<svg width="296" height="334" viewBox="0 0 296 334" fill="none" xmlns="http://www.w3.org/2000/svg">
<path d="M34.1348 324.073C30.8218 321.45 27.7589 318.526 24.9852 315.338C-22.0913 261.539 6.06395 171.343 55.9983 129.521C104.112 89.2428 168.727 101.273 220.482 127.577C269.118 152.298 311.816 199.705 290.121 257.299C276.639 292.975 242 300.742 207.722 303.392C187.587 304.975 170.033 305.274 150.374 310.467L73.483 330.81C68.6356 332.093 63.7343 333.376 58.7332 333.437C49.722 333.545 41.3253 329.673 34.1348 324.073Z" fill="white"/>
<path d="M257.195 27.5299H176.754C175.853 26.623 175.203 25.4976 174.868 24.2641C174.533 23.0305 174.523 21.731 174.841 20.4928C178.956 2.60474 200.025 14.2553 200.025 14.2553C200.025 14.2553 199.926 -3.90951 223.621 1.54056C247.316 6.99062 245.563 15.2457 245.563 15.2457C245.563 15.2457 259.483 7.62421 264.115 18.5551C265.554 21.9383 262.331 24.9648 257.195 27.5299Z" fill="#C7BBD5"/>
<path d="M134.127 91.0115H24.0062C24.0062 91.0115 18.0333 83.4577 24.0062 78.3706C27.2971 75.5656 31.1909 75.8547 34.0205 76.679C34.4583 76.796 34.9155 76.8211 35.3635 76.7528C35.8114 76.6846 36.2404 76.5244 36.6234 76.2823C37.0065 76.0402 37.3353 75.7215 37.5892 75.3462C37.8431 74.9709 38.0166 74.5472 38.0989 74.1016C38.7694 70.9952 40.8362 66.9292 46.7599 64.524C52.5914 62.1619 56.2821 65.7542 58.4166 69.4819C58.5771 69.7558 58.813 69.9778 59.0961 70.1214C59.3792 70.2649 59.6976 70.324 60.0134 70.2916C60.3292 70.2592 60.629 70.1366 60.877 69.9385C61.1251 69.7404 61.3109 69.4752 61.4123 69.1744C63.2577 63.3245 69.7043 55.5615 90.871 55.5615C117.795 55.5615 114.806 69.8756 112.401 75.8239C112.31 76.0542 112.283 76.3046 112.323 76.5488C112.363 76.7929 112.469 77.0217 112.628 77.2108C112.788 77.3999 112.996 77.5424 113.229 77.6231C113.463 77.7039 113.715 77.7198 113.957 77.6693C118.109 76.7836 125.817 75.6333 129.274 78.346C134.127 82.1844 134.127 91.0115 134.127 91.0115Z" fill="#C7BBD5"/>
<path d="M187.292 113.913C187.292 113.913 166.746 97.7101 165.043 93.927C163.339 90.144 162.582 66.7321 162.582 66.7321L171.415 64.7637L176.521 92.4446L206.558 101.087L189.217 119.277L187.292 113.913Z" fill="#51457C"/>
<path d="M181.164 281.585L180.119 290.222L176.846 294.282L167.945 290.419L168.665 289.047L170.726 261.495L181.164 281.585Z" fill="#C7C3D5"/>
<path d="M213.453 281.585L215.071 294.786L217.771 294.282L225.627 290.419L224.907 289.047L222.846 261.495L213.453 281.585Z" fill="#C7C3D5"/>
<path d="M177.768 154.721L176.126 158.965L170.528 226.913L168.172 282.274H183.482L192.709 224.852L207.331 160.54L201.66 155.01L177.768 154.721Z" fill="#352767"/>
<path d="M192.715 155.441C192.936 174.21 194.275 192.949 196.725 211.559C199.973 235.727 205.257 263.107 211.003 282.773H227.199C227.199 282.773 222.444 162.447 221.786 159.131C221.446 157.224 220.409 155.512 218.876 154.327L192.715 155.441Z" fill="#3B2E6C"/>
<path d="M212.24 89.6576C211.917 93.5117 211.812 97.3808 211.926 101.247C209.176 103.744 203.043 103.307 200.195 100.558C200.79 95.3804 200.961 90.1631 200.706 84.958C200.706 84.958 209.933 88.0706 210.08 88.1874C210.228 88.3043 212.24 89.6576 212.24 89.6576Z" fill="#BAB5CB"/>
<path d="M213.637 85.2166C213.637 85.2166 208.476 91.7739 207.148 92.549C205.819 93.324 197.084 94.2836 192.883 90.7036C188.681 87.1235 199.126 74.7102 201.753 72.3604C207.775 74.8947 215.231 80.4924 215.231 80.4924L213.637 85.2166Z" fill="#C7C3D5"/>
<path d="M208.224 64.6595C208.224 64.6595 205.763 63.1094 201.654 68.6086C197.545 74.1079 207.32 82.0861 211.828 81.754C209.86 85.5555 211.828 90.6057 211.828 90.6057C211.828 90.6057 223.756 86.552 223.59 80.8374C223.534 79.1028 221.295 78.1739 221.295 78.1739C221.295 78.1739 223.627 75.209 219.308 71.3706C214.99 67.5321 210.223 68.8055 208.568 67.3045C206.914 65.8036 208.224 64.6595 208.224 64.6595Z" fill="#352767"/>
<path d="M212.421 86.9581C212.827 86.7182 214.444 86.2876 214.973 87.5732C215.502 88.8588 214.807 89.7569 213.669 90.5381C212.531 91.3193 210.114 92.0329 209.474 91.0241C208.834 90.0153 210.262 88.2498 212.421 86.9581Z" fill="#C7C3D5"/>
<path d="M211.927 101.247C201.894 100.287 200.615 99.5981 200.615 99.5981C200.615 99.5981 185.058 99.2413 180.857 119.701C178.458 131.419 177.781 154.72 177.781 154.72C177.781 154.72 194.777 158.737 218.89 154.332C218.331 147.923 217.802 145.493 218.89 137.392C220.465 125.858 231.999 106.488 211.927 101.247Z" fill="#A9A3BE"/>
<path d="M180.622 289.189L181.754 299.387H145.849C145.849 299.387 145.393 296.066 147.903 294.288C150.413 292.51 154.294 293.993 157.53 292.48C160.766 290.966 164.629 285.867 168.541 286.328C172.453 286.79 170.534 292.129 174.12 292.264C177.147 292.381 177.085 290.32 178.74 289.435C179.256 289.172 179.838 289.069 180.413 289.139L180.622 289.189Z" fill="#3B2E6C"/>
<path d="M181.479 296.847L181.755 299.387H145.85C145.769 298.532 145.854 297.669 146.102 296.847H181.479Z" fill="#352767"/>
<path d="M237.984 299.387H213.059L214.086 289.256H215.113C215.113 289.256 216.122 293.279 217.912 293.279C219.702 293.279 220.914 288.038 224.1 288.001C227.287 287.964 225.859 290.708 229.802 292.719C233.745 294.731 237.984 294.263 237.984 299.387Z" fill="#3B2E6C"/>
<path d="M237.258 296.735C237.768 297.522 238.016 298.45 237.965 299.387H213.059L213.348 296.735H237.258Z" fill="#352767"/>
<path d="M230.085 294.104C233.228 294.024 235.006 294.645 236.027 295.254C237.214 296.035 237.983 297.198 237.983 299.388H223.484C223.484 299.388 224.05 294.245 230.085 294.104Z" fill="#352767"/>
<path d="M199.859 54.0972L201.625 54.5586C201.625 54.5586 204.657 55.1368 206.939 53.4268C208.243 54.8416 205.943 55.7335 205.943 55.7335C205.943 55.7335 210.655 56.7854 211.11 58.354C211.565 59.9225 205.531 60.0579 204.343 59.5842C203.355 59.0783 202.456 58.4157 201.68 57.622L197.559 56.3117L199.859 54.0972Z" fill="#C7C3D5"/>
<path d="M131.393 38.8354L129.77 31.4723L132.864 30.9863L135.22 38.8354H131.393Z" fill="#C7C3D5"/>
<path d="M122.605 51.1573L117.604 46.9375L115.199 48.014C116.395 50.0353 117.775 51.9421 119.321 53.7101C121.234 55.6724 122.605 51.1573 122.605 51.1573Z" fill="#C7C3D5"/>
<path d="M186.203 39.1309L188.99 44.2549C190.465 46.9648 192.696 49.1875 195.412 50.6523L200.72 53.5126L198.506 58.3414L190.7 56.0962C188.055 55.3355 185.653 53.9005 183.73 51.9317L181.098 49.2436L186.203 39.1309Z" fill="#E5E3EC"/>
<path d="M187.063 27.6035L181.336 35.0281L186.392 39.3525L191.793 32.014L187.063 27.6035Z" fill="#BAB5CB"/>
<path d="M190.821 25.5914C190.821 25.5914 184.67 31.4782 186.657 36.6638C188.644 41.8493 191.996 42.5075 193.559 41.9354C195.121 41.3634 198.812 39.8009 199.384 38.626C199.956 37.4511 200.147 36.3439 200.583 36.0302C201.02 35.7165 204.84 33.8834 204.889 30.7893C204.939 27.6951 199.538 21.5623 196.53 21.8822C193.522 22.202 190.821 25.5914 190.821 25.5914Z" fill="#C7C3D5"/>
<path d="M205.888 30.8697C206.548 29.1023 206.739 27.194 206.441 25.3311C206.143 23.4681 205.368 21.7141 204.19 20.2402C200.112 15.2208 194.102 12.9017 190.977 15.1777C191.777 13.3938 190.442 13.9474 190.522 14.9993C189.636 16.1742 191.623 24.2263 199.841 29.8732C199.909 28.889 200.26 28.606 200.26 28.606C200.26 28.606 201.188 30.9005 203.335 31.6448C202.542 29.7994 202.929 29.6825 202.929 29.6825C202.929 29.6825 204.559 32.5613 205.888 30.8697Z" fill="#352767"/>
<path d="M191.491 15.7688C191.491 15.7688 189.264 14.1941 187.074 16.7161C184.884 19.2382 183.998 21.3727 184.521 24.4237C184.747 26.0685 185.237 27.666 185.973 29.1541L191.325 29.7692C191.325 29.7692 193.902 27.4379 194.579 25.0511C195.255 22.6644 191.491 15.7688 191.491 15.7688Z" fill="#352767"/>
<path d="M187.21 27.8865C187.026 28.0561 186.881 28.2635 186.784 28.4945C186.687 28.7255 186.641 28.9746 186.649 29.225C186.658 29.4753 186.72 29.7208 186.832 29.9449C186.944 30.169 187.103 30.3663 187.298 30.5234C187.493 30.6804 187.719 30.7935 187.962 30.855C188.205 30.9164 188.458 30.9247 188.704 30.8794C188.951 30.834 189.184 30.7361 189.389 30.5922C189.594 30.4483 189.766 30.2619 189.892 30.0456C190.087 29.8796 190.243 29.6727 190.349 29.4395C190.455 29.2064 190.508 28.9528 190.504 28.6968C190.501 28.4408 190.441 28.1887 190.329 27.9585C190.217 27.7283 190.055 27.5256 189.856 27.3649C189.657 27.2043 189.424 27.0896 189.176 27.029C188.927 26.9684 188.668 26.9634 188.417 27.0144C188.166 27.0653 187.929 27.171 187.724 27.3239C187.519 27.4768 187.35 27.6731 187.229 27.8988L187.21 27.8865Z" fill="#C7C3D5"/>
<path d="M130.359 37.741L135.28 36.5107C138.713 42.5645 141.552 48.9362 143.757 55.5368C148.727 54.165 155.205 49.1948 159.72 49.2563C161.491 58.6124 141.727 66.9905 141.727 66.9905L135.059 58.0465L130.359 37.741Z" fill="#FE6D00"/>
<path d="M160.07 49.2568L176.033 62.8697C176.033 62.8697 166.744 71.1801 142.398 74.3849C127.284 67.7784 117.602 53.1875 117.602 53.1875L121.981 49.6505C121.981 49.6505 134.155 57.1121 141.093 62.2792C148.352 58.4838 153.599 49.6505 160.07 49.2568Z" fill="#FE8B33"/>
<path d="M183.822 36.0369C188.872 39.0203 188.86 54.3617 176.035 62.8689C162.686 56.3239 159.02 54.4293 160.072 49.2561C167.398 45.4238 174.73 30.6606 183.822 36.0369Z" fill="#D4D1DF"/>
<path d="M157.824 30.8639L156.342 29.7936C156.342 29.7936 153.955 27.8313 153.807 24.9894C151.888 24.891 152.669 27.2285 152.669 27.2285C152.669 27.2285 148.849 24.282 147.349 24.934C145.848 25.5861 149.612 30.3103 150.72 30.9254C151.741 31.3585 152.825 31.6244 153.93 31.7128L157.578 34.0441L157.824 30.8639Z" fill="#C7C3D5"/>
<path d="M181.464 34.8799C181.464 34.8799 168.116 34.8799 156.927 29.0361L154.312 34.0433C160.145 40.4761 168.079 44.6197 176.691 45.7308C181.889 46.3459 184.282 42.5875 183.82 38.5953C183.761 37.8308 183.515 37.0925 183.104 36.4449C182.693 35.7973 182.13 35.26 181.464 34.8799Z" fill="#E5E3EC"/>
<path d="M105.619 45.4245L118.149 43.0439L118.765 47.9158C118.765 47.9158 116.704 46.1196 116.113 49.4905C116.113 49.4905 113.653 47.559 106.271 47.5098C104.887 47.1284 105.619 45.4245 105.619 45.4245Z" fill="#3B2E6C"/>
<path d="M122.536 26.626L134.925 29.6586L133.695 33.6938C133.695 33.6938 132.36 31.8484 130.422 34.6842C130.422 34.6842 128.989 31.91 122.315 28.8097C121.165 27.8624 122.536 26.626 122.536 26.626Z" fill="#3B2E6C"/>
<path d="M177.085 61.3561L175.855 56.1951L178.377 47.2265C178.377 47.2265 177.104 45.3811 175.917 48.7336C175.098 51.0649 169.698 45.0059 167.803 45.4611C165.908 45.9163 162.95 50.542 165.699 53.8145C167.155 55.6424 168.959 57.1625 171.008 58.2866L172.238 64.4379L177.085 61.3561Z" fill="#C7C3D5"/>
<path d="M169.426 62.3464L177.767 59.1416L185.327 90.2242L213.715 101.776C213.715 101.776 224.271 103.622 223.613 115.02C222.955 126.419 208.425 121.633 203.978 119.855C200.287 118.379 182.319 105.313 176.414 100.977C175.819 100.539 175.318 99.9875 174.94 99.3537C174.562 98.7199 174.314 98.0168 174.212 97.2859L169.426 62.3464Z" fill="#665C8C"/>
<path d="M86.8214 116.392L103.356 144.024L123.803 166.784C123.803 166.784 135.423 170.979 135.208 174.399C134.906 179.185 126.245 178.047 124.271 176.435C122.296 174.823 119.965 169.564 119.965 169.564L95.3594 149.781C95.3594 149.781 77.2868 132.404 75.9089 126.228C74.531 120.052 80.5778 109.687 86.8214 116.392Z" fill="#B8B3CA"/>
<path d="M100.083 83.1435C100.083 83.1435 101.313 87.2464 99.9723 89.2579C98.6313 91.2693 95.6664 91.6015 95.6664 91.6015L94.5469 82.5283L100.083 83.1435Z" fill="#28195D"/>
<path d="M79.4837 95.6064C79.4837 95.6064 79.9019 103.191 79.293 107.725C85.3705 107.977 87.6034 108.537 87.6034 108.537L87.1667 97.6118L79.4837 95.6064Z" fill="#BAB5CB"/>
<path d="M96.4231 82.0242C96.4231 82.0242 98.2685 91.8171 96.0601 98.6881C93.8518 105.559 90.9484 105.276 89.1891 105.092C87.4299 104.907 82.0598 102.57 80.3989 96.2953C76.7081 93.5456 74.9304 90.919 76.0438 85.9857C77.4832 79.6314 82.9209 77.0232 88.82 77.5645C93.3167 77.9767 96.4231 82.0242 96.4231 82.0242Z" fill="#C7C3D5"/>
<path d="M120.297 211.374C120.297 211.374 118.642 230.929 77.8531 233.168C37.0637 235.407 45.4602 208.126 45.4602 208.126L120.297 211.374Z" fill="#BCB8CD"/>
<path d="M90.3789 81.8088C92.2243 84.6507 102.183 82.424 99.9873 89.2581C103.518 85.1182 101.218 77.5275 94.8755 74.7902C88.5335 72.0528 81.5087 74.6979 80.7275 79.1699C76.8153 77.2753 73.9611 78.8193 72.9276 81.4705C71.802 84.3247 73.106 91.5279 71.5251 97.8638C69.9443 104.2 78.3962 97.8269 78.3962 97.8269L79.9094 93.9638C79.9094 93.9638 89.9791 91.6694 90.3789 81.8088Z" fill="#352767"/>
<path d="M84.1762 107.484C71.1723 107.484 66.8664 110.941 65.1686 113.703C63.4708 116.465 63.883 121.429 64.8672 125.391C65.8514 129.352 74.5617 146.92 68.9578 153.687H94.2828C94.2828 153.687 95.5438 141.384 96.3927 130.392C97.1431 120.759 95.8698 112.455 91.0472 110.142C88.6051 108.967 88.396 108.629 84.1762 107.484Z" fill="#D2CFDD"/>
<path d="M94.2824 153.687C96.743 175.611 107.686 224.846 107.686 224.846C107.686 224.846 106.659 251.296 112.521 290.609C110.51 296.761 107.151 293.451 107.151 293.451C107.151 293.451 104.893 292.879 104.69 289.711C103.608 265.555 89.1153 237.585 92.6462 228.715C89.9458 220.528 57.5837 177.659 71.7317 153.669L94.2824 153.687Z" fill="#C7C3D5"/>
<path d="M91.0604 153.687C91.0604 153.687 89.012 184.32 72.7049 229.889C72.9202 249.647 60.1746 277.186 61.5833 288.628C57.1543 287.982 56.896 295.204 57.1543 287.982C58.0155 263.992 52.1841 250.582 58.0155 228.683C56.41 200.842 53.0084 175.474 68.9587 153.687H91.0604Z" fill="#C7C3D5"/>
<path d="M94.2836 153.687C94.2836 153.687 98.6203 201.87 120.298 211.404C112.522 239.048 68.731 212.665 55.395 212.056C43.9351 211.533 45.6882 219.739 45.6882 219.739C45.2207 218.554 44.9085 217.314 44.7594 216.049C43.8 208.564 44.2993 200.965 46.2295 193.67C49.8896 180.199 68.9894 153.687 68.9894 153.687H94.2836Z" fill="#D2CFDD"/>
<path d="M112.225 288.555C113.726 288.198 114.685 293.42 122.38 294.312C126.539 294.792 126.865 298.92 126.865 298.92H101.195L103.976 288.007C103.976 288.007 104.96 287.657 105.274 287.921C105.587 288.186 107.673 290.874 109.543 290.997C111.413 291.12 112.225 288.555 112.225 288.555Z" fill="#695E8E"/>
<path d="M126.533 297.523C126.706 297.973 126.824 298.442 126.883 298.92H101.195L101.552 297.523H126.533Z" fill="#3B2E6C"/>
<path d="M61.3319 286.432C61.0305 285.436 57.6042 284.919 57.2044 286.432C55.931 291.218 53.1568 291.846 52.8984 298.919H66.5482C66.6589 292.012 63.3126 293.057 61.3319 286.432Z" fill="#695E8E"/>
<path d="M66.5029 297.376C66.5433 297.89 66.5576 298.405 66.546 298.92H52.9023C52.9023 298.366 52.9639 297.856 53.0131 297.376H66.5029Z" fill="#3B2E6C"/>
<path d="M74.8618 111.336C78.1589 113.673 93.9739 147.893 93.9739 147.893L117.921 168.389C117.921 168.389 124.134 171.268 126.637 171.668C129.141 172.068 133.834 176.392 133.49 178.059C133.146 179.726 128.643 183.7 122.03 180.938C115.417 178.176 117.367 174.602 114.279 172.646C111.191 170.69 87.5643 155.84 87.5643 155.84C87.5643 155.84 66.6498 127.458 64.097 120.839C61.5442 114.221 69.1718 107.307 74.8618 111.336Z" fill="#C7C3D5"/>
<path d="M81.2299 93.7238C81.2299 93.7238 81.1315 90.9434 79.8212 90.9434C78.511 90.9434 77.6744 92.1306 77.7421 93.7176C77.8098 95.3046 79.2123 97.1193 80.4241 96.9594C81.2914 96.8486 81.2299 93.7238 81.2299 93.7238Z" fill="#C7C3D5"/>
<path d="M194.993 232.03L195.94 234.017L199.539 237.825C199.539 237.825 199.982 244.444 197.447 244.899C194.913 245.354 193.338 236.287 193.338 236.287L191.973 233.211L194.993 232.03Z" fill="#C7C3D5"/>
<path d="M171.174 186.289C172.422 189.343 172.422 192.764 171.174 195.817C167.016 205.401 184.283 205.389 183.292 218.417C182.302 231.446 172.46 234.269 160.176 233.685C147.892 233.101 145.062 220.404 147.916 213.023C150.77 205.641 155.661 206.871 154.824 198.389C154.32 193.271 171.174 186.289 171.174 186.289Z" fill="#352767"/>
<path d="M164.069 195.564L164.702 209.885L157.874 208.488L157.148 199.538L164.069 195.564Z" fill="#BAB5CB"/>
<path d="M162.895 189.42C163.511 193.376 163.265 199.355 161.001 201.526C158.737 203.698 156.191 205.992 152.217 205.531C148.243 205.069 147.037 200.53 147.296 197.989C147.554 195.449 148.261 194.575 148.163 193.21C148.065 191.844 146.318 190.196 147.265 188.086C148.212 185.976 161.53 180.673 162.895 189.42Z" fill="#C7C3D5"/>
<path d="M165.659 182.63C165.659 182.722 169.811 181.916 171.195 186.259C172.579 190.602 169.522 195.289 165.456 194.354C164.558 193.971 163.635 193.651 162.694 193.395C162.694 193.395 161.051 196.157 159.064 194.139C157.078 192.121 158.136 188.96 158.136 188.96C158.136 188.96 156.628 190.596 154.217 188.75C151.142 191.377 140.53 189.083 140.438 182.224C140.346 175.365 149.05 173.2 153.94 178.994C157.65 174.805 165.905 177.506 165.659 182.63Z" fill="#352767"/>
<path d="M184.312 224.212C184.312 224.212 175.085 221.979 171.364 220.78C167.642 219.58 164.333 205.924 169.045 206.792C173.757 207.659 186.299 215.816 186.299 215.816L195.938 232.283L191.762 234.682L184.312 224.212Z" fill="#FE8B33"/>
<path d="M155.85 206.792H152.91C152.91 206.792 142.939 205.106 138.35 201.834C135.329 195.953 132.143 188.996 132.143 188.996L125.918 191.364L134.148 210.353C134.148 210.353 143.332 219.002 152.725 219.993C157.419 211.553 155.85 206.792 155.85 206.792Z" fill="#FE6D00"/>
<path d="M155.742 234.343C155.742 234.343 166.255 260.745 174.159 266.908C186.154 267.198 203.618 267.776 203.618 267.776C205.497 268.724 207.01 270.266 207.924 272.162C209.579 271.996 208.668 269.929 208.668 269.929L205.07 263.015C204.245 263.441 203.387 263.801 202.505 264.091C194.022 262.602 184.666 257.884 181.116 259.17C177.37 251.93 177.186 236.25 173.458 234.343C158.559 234.27 155.742 234.343 155.742 234.343Z" fill="#C7C3D5"/>
<path d="M150.059 234.307L155.742 234.344C155.742 234.344 164.28 234.307 166.261 234.307C167.867 249.199 163.278 262.689 163.026 267.733C165.012 269.763 163.77 288.961 164.391 291.028C165.012 293.095 165.425 293.488 165.425 293.488L158.437 297.708L155.742 297.456V296.133L158.351 295.432L160.67 291.871C160.67 291.871 158.209 275.877 155.133 268.539C151.689 256.23 150.471 240.556 150.059 234.307Z" fill="#C7C3D5"/>
<path d="M202.812 263.18L203.274 264.257C203.274 264.257 205.427 264.841 205.734 265.536C206.042 266.231 203.729 267.997 203.729 267.997L205.162 269.264C205.162 269.264 207.118 268.556 207.789 269.836C208.459 271.115 206.897 271.946 206.897 271.946C207.338 272.45 207.84 272.896 208.392 273.274C209.142 273.748 211.978 272.296 211.978 272.296L207.789 261.544L202.812 263.18Z" fill="#A9A3BE"/>
<path d="M207.787 261.568L211.976 272.321C211.976 272.321 211.509 272.561 210.9 272.813L206.551 261.95L207.787 261.568Z" fill="#6B608F"/>
<path d="M164.948 290.861L164.044 291.046C164.044 291.046 164.358 292.94 163.165 293.722C161.971 294.503 159.671 292.928 159.671 292.928L158.92 293.937C158.92 293.937 160.101 295.352 158.988 296.244C157.874 297.136 157.142 295.512 157.142 295.512C156.688 295.737 156.196 295.877 155.691 295.924C153.23 295.924 154.091 299.971 154.091 299.971H160.895L167.741 295.05L164.948 290.861Z" fill="#A9A3BE"/>
<path d="M153.957 298.902H160.625L166.979 293.938L167.748 295.045L160.902 299.966H154.08C154.015 299.614 153.973 299.259 153.957 298.902Z" fill="#6B608F"/>
<path d="M131.456 189.825L130.718 187.746L132.773 182.77C132.773 182.77 132.034 181.909 131.432 182.77C130.829 183.631 130.817 184.209 130.331 184.129C129.845 184.049 130.441 176.944 128.713 176.452C126.984 175.96 123.97 181.988 123.945 183.477C123.921 184.966 126.658 188.841 126.658 188.841L127.975 192.132L131.456 189.825Z" fill="#C7C3D5"/>
<path d="M164.568 190.878C166.413 191.376 166.954 194.452 165.22 196.033C163.485 197.614 162.495 195.947 162.242 194.803C161.929 193.394 161.898 190.164 164.568 190.878Z" fill="#C7C3D5"/>
<path d="M169.045 206.791C169.045 206.791 159.24 206.09 155.85 206.791C152.461 207.492 148.192 219.783 149.767 234.306H174.261C174.261 234.306 172.939 224.876 173.228 217.47C172.668 210.722 172.939 207.542 169.045 206.791Z" fill="#FE8B33"/>
<path d="M174.261 234.307C174.261 234.307 182.325 251.174 183.328 255.289C176.998 265.451 161.989 268.932 150.726 267.481C144.685 245.385 149.76 234.307 149.76 234.307H174.261Z" fill="#665C8C"/>
</svg>
