<svg width="250" height="211" viewBox="0 0 250 211" fill="none" xmlns="http://www.w3.org/2000/svg">
<path d="M85.8537 204.448C108.53 213.003 133.102 212.156 156.625 200.637C192.787 182.945 222.634 151.96 239.93 115.71C255.991 82.0354 255.188 39.3909 220.182 17.9054C207.596 10.2233 193.157 6.03378 178.631 3.49363C135.148 -4.118 88.6673 2.73511 50.9972 25.7905C30.5525 38.2972 12.5333 56.0871 4.29549 78.5427C-7.54089 110.806 6.57986 137.037 28.4093 160.216C38.3582 170.8 48.5365 181.216 60.1171 190.027C67.9524 196.055 76.6218 200.912 85.8537 204.448Z" fill="white"/>
<path d="M222.387 170.57L220.676 169.865C197.091 160.119 171.76 174.566 147.329 180.625C119.281 187.584 81.2497 185.917 60.2229 173.508C45.8816 165.032 43.6325 141.482 43.756 94.1278C43.8353 62.2966 37.7937 41.8607 66.0881 32.3881C88.3144 24.9441 130.65 22.8184 171.928 32.5204C187.804 36.2424 201.122 45.1859 203.794 64.1929C209.36 103.795 204.826 140.927 204.826 140.927L222.387 170.57Z" fill="#6F5293"/>
<path d="M117.527 156.414C88.9428 156.414 65.7711 131.517 65.7711 100.804C65.7711 70.0917 88.9428 45.1943 117.527 45.1943C146.11 45.1943 169.282 70.0917 169.282 100.804C169.282 131.517 146.11 156.414 117.527 156.414Z" fill="#A39CB9"/>
<path d="M109.138 104.183H128.163V115.975H109.138V104.183Z" fill="#B4AFC6"/>
<path d="M117.491 109.923C108.45 109.923 101.121 98.8546 101.121 85.2009C101.121 71.5471 108.45 60.4785 117.491 60.4785C126.531 60.4785 133.86 71.5471 133.86 85.2009C133.86 98.8546 126.531 109.923 117.491 109.923Z" fill="#C3BFD2"/>
<path d="M102.048 93.4042L98.467 79.5569C97.5722 76.1301 97.7009 72.5162 98.8373 69.1618C99.9738 65.8074 102.068 62.8594 104.861 60.6822L104.967 60.6028C108.57 57.8068 112.99 56.268 117.55 56.2218C122.11 56.1756 126.56 57.6245 130.219 60.347C133.222 62.5902 135.456 65.7086 136.613 69.2735C137.771 72.8383 137.796 76.6742 136.684 80.2537L133.844 91.3051L132.344 78.9571C132.07 77.0488 131.116 75.3037 129.658 74.0429C128.199 72.7821 126.334 72.0905 124.406 72.0952H114.158C111.712 72.1048 109.35 72.984 107.493 74.5757C105.637 76.1673 104.407 78.3675 104.024 80.7829L102.048 93.4042Z" fill="#28195D"/>
<path d="M189.471 172.088C184.567 149.632 167.924 131.613 146.156 124.028C138.241 121.239 129.913 119.802 121.522 119.776H120.013C87.9088 120.411 60.858 142.179 51.7558 172.079L189.471 172.088Z" fill="#443772"/>
<path d="M105.047 121.522L132.433 120.773L128.27 115.163L109.139 115.41L105.047 121.522Z" fill="#5C5084"/>
<path d="M161.167 101.042L170.146 115.304L186.163 118.991L175.747 132.212L176.814 148.308L161.397 142.752L146.041 148.476L146.932 132.371L136.374 119.264L152.339 115.41L161.167 101.042Z" fill="#FE8B33"/>
<path d="M186.163 118.991L170.146 115.305L161.326 101.369L161.591 142.858L176.814 148.309L175.747 132.213L186.163 118.991Z" fill="#FE6D00"/>
</svg>
