<svg width="188" height="181" viewBox="0 0 188 181" fill="none" xmlns="http://www.w3.org/2000/svg">
<path d="M142.059 176.355C152.505 172.998 161.676 166.533 168.347 157.822C176.283 147.583 181.108 135.241 184.132 122.652C188.343 105.16 189.252 86.7515 185.673 69.1107C183.198 56.8838 178.454 44.8616 170.233 35.476C154.448 17.4598 131.551 16.7046 111.078 26.9691C98.9491 33.0485 86.2657 41.3719 76.3083 50.5869C73.5425 53.1499 70.9286 55.8721 68.4798 58.7396C65.1812 62.5919 62.198 66.7036 59.5592 71.0348C39.9346 103.326 27.1104 158.607 73.7486 174.559C82.8399 177.669 92.4815 178.876 102.021 179.64C115.924 180.753 129.721 180.442 142.059 176.355Z" fill="white"/>
<path fill-rule="evenodd" clip-rule="evenodd" d="M124.838 66.949C124.838 67.265 124.744 67.5739 124.568 67.8366C124.393 68.0993 124.143 68.304 123.851 68.4249C123.559 68.5458 123.238 68.5775 122.928 68.5158C122.619 68.4542 122.334 68.302 122.11 68.0786C121.887 67.8552 121.735 67.5706 121.673 67.2607C121.612 66.9508 121.643 66.6296 121.764 66.3377C121.885 66.0458 122.09 65.7963 122.353 65.6208C122.615 65.4453 122.924 65.3516 123.24 65.3516C123.664 65.3516 124.07 65.5199 124.37 65.8195C124.669 66.119 124.838 66.5254 124.838 66.949Z" fill="url(#paint0_linear)"/>
<path fill-rule="evenodd" clip-rule="evenodd" d="M125.667 67.3635C125.667 67.8789 125.514 68.3827 125.227 68.8112C124.941 69.2397 124.534 69.5737 124.058 69.7709C123.582 69.9681 123.058 70.0197 122.552 69.9192C122.047 69.8186 121.583 69.5705 121.218 69.2061C120.854 68.8416 120.606 68.3773 120.505 67.8719C120.405 67.3664 120.456 66.8425 120.653 66.3664C120.851 65.8903 121.185 65.4833 121.613 65.197C122.042 64.9106 122.545 64.7578 123.061 64.7578C123.403 64.7577 123.742 64.8251 124.058 64.956C124.374 65.0869 124.662 65.2789 124.904 65.5208C125.146 65.7628 125.337 66.0501 125.468 66.3663C125.599 66.6824 125.667 67.0213 125.667 67.3635Z" fill="url(#paint1_linear)"/>
<path fill-rule="evenodd" clip-rule="evenodd" d="M71.918 72.593L72.6135 72.7638L82.5805 62.7139L141.994 57.2714L149.924 56.2804C149.962 56.2755 150.002 56.2793 150.039 56.2913C150.076 56.3033 150.11 56.3233 150.139 56.3499C150.167 56.3765 150.189 56.4091 150.204 56.4452C150.219 56.4814 150.225 56.5204 150.223 56.5593L150.154 57.8564C150.13 58.0327 142.593 66.9251 142.593 66.9251L151.962 74.5481L151.853 75.5926C151.848 75.6514 151.823 75.7067 151.782 75.749C151.741 75.7912 151.686 75.8176 151.628 75.8236L143.975 76.4718L84.4299 81.51C84.2613 81.523 84.0932 81.4798 83.9518 81.3871L72.3769 73.9423C72.3007 73.8925 72.2355 73.8276 72.1854 73.7516C72.1353 73.6757 72.1014 73.5901 72.0857 73.5005L71.9186 72.5912" fill="#81789F"/>
<path fill-rule="evenodd" clip-rule="evenodd" d="M82.9612 62.0066L149.927 56.3404C149.957 56.3378 149.988 56.3443 150.015 56.3591C150.042 56.3739 150.063 56.3963 150.078 56.4236C150.092 56.4508 150.097 56.4817 150.094 56.5121C150.09 56.5426 150.078 56.5714 150.058 56.5948L142.685 65.3533C142.637 65.4131 142.612 65.4886 142.616 65.5654C142.62 65.6421 142.653 65.7147 142.707 65.7692L151.739 74.5203C151.748 74.53 151.755 74.5421 151.758 74.5553C151.761 74.5685 151.76 74.5823 151.755 74.5951C151.751 74.6079 151.743 74.6192 151.732 74.6277C151.722 74.6362 151.709 74.6416 151.696 74.6432L84.488 80.329C84.2941 80.3451 84.1001 80.2981 83.9351 80.195L71.9098 72.7379C71.8977 72.7304 71.8874 72.7202 71.8798 72.7082C71.8722 72.6962 71.8674 72.6826 71.8658 72.6685C71.8642 72.6543 71.8659 72.64 71.8706 72.6266C71.8753 72.6132 71.8831 72.601 71.8932 72.591L82.4089 62.264C82.5575 62.1163 82.7531 62.0253 82.9618 62.0066" fill="#A39CB9"/>
<path fill-rule="evenodd" clip-rule="evenodd" d="M85.5032 69.0744C85.4399 69.0741 85.379 69.0501 85.3326 69.0071C85.2862 68.964 85.2576 68.9052 85.2525 68.8421L85.118 67.1218C85.1127 67.0554 85.134 66.9896 85.1772 66.9389C85.2204 66.8882 85.282 66.8567 85.3484 66.8514L122.674 63.9336H122.694C122.757 63.9337 122.817 63.9574 122.864 64C122.91 64.0427 122.939 64.1012 122.944 64.164L123.078 65.8844C123.083 65.9507 123.062 66.0164 123.018 66.067C122.975 66.1176 122.914 66.1489 122.847 66.1541L85.5229 69.0719C85.5163 69.0725 85.5098 69.0725 85.5032 69.0719" fill="#C3BCDA"/>
<path fill-rule="evenodd" clip-rule="evenodd" d="M85.8255 74.9421C85.7624 74.9416 85.7017 74.9176 85.6554 74.8748C85.609 74.8319 85.5803 74.7733 85.5748 74.7105L85.4519 73.1056C85.4494 73.0728 85.4534 73.0398 85.4636 73.0085C85.4739 72.9772 85.4902 72.9482 85.5117 72.9232C85.5331 72.8982 85.5593 72.8777 85.5887 72.8628C85.6181 72.8479 85.6501 72.839 85.6829 72.8365L122.71 69.9414H122.73C122.793 69.9415 122.854 69.9654 122.9 70.0083C122.947 70.0512 122.975 70.11 122.98 70.1731L123.103 71.7773C123.108 71.8436 123.086 71.9092 123.043 71.9597C122.999 72.0101 122.938 72.0415 122.871 72.047L85.847 74.9409C85.8404 74.9415 85.8339 74.9415 85.8273 74.9409" fill="#C3BCDA"/>
<path fill-rule="evenodd" clip-rule="evenodd" d="M94.4931 56.0299C94.4357 56.0312 94.3794 56.0139 94.3324 55.9807C94.2855 55.9476 94.2505 55.9002 94.2326 55.8456L93.934 54.8428L94.0262 54.747C94.0252 54.7573 94.0263 54.7677 94.0295 54.7776C94.0327 54.7875 94.0378 54.7966 94.0447 54.8044C94.0516 54.8121 94.06 54.8184 94.0693 54.8228C94.0787 54.8272 94.0889 54.8296 94.0993 54.8299C94.1003 54.8304 94.1013 54.8306 94.1024 54.8306C94.1034 54.8306 94.1045 54.8304 94.1054 54.8299L167.658 48.7184C167.866 48.7022 168.065 48.6239 168.229 48.4935L179.919 39.1108C179.935 39.0977 179.947 39.0789 179.951 39.0579L180.018 39.0309L179.996 39.9526C179.993 40.0453 179.97 40.1362 179.929 40.2193C179.888 40.3024 179.83 40.3757 179.758 40.4343L171.818 47.0177L168.553 49.726C168.414 49.8412 168.242 49.9109 168.062 49.9257L127.6 53.2872L119.071 53.9955L102.894 55.3399L94.5189 56.0342C94.511 56.0348 94.503 56.0348 94.495 56.0342L94.4931 56.0299ZM101.857 45.0933C99.4822 43.263 93.0468 38.2906 92.9995 38.1505L92.6309 36.7324H92.6474C92.642 36.7569 92.6437 36.7825 92.6524 36.806C92.6612 36.8296 92.6765 36.8501 92.6966 36.8651L102.22 44.1803C102.251 44.2036 102.277 44.2329 102.296 44.2664C102.315 44.2998 102.327 44.3369 102.332 44.3752C102.336 44.4135 102.333 44.4524 102.322 44.4894C102.311 44.5265 102.293 44.561 102.269 44.5908L101.861 45.0921" fill="#4B416B"/>
<path fill-rule="evenodd" clip-rule="evenodd" d="M94.1006 54.8292C94.0904 54.8289 94.0802 54.8265 94.0709 54.8221C94.0616 54.8177 94.0533 54.8115 94.0465 54.8038C94.0397 54.7961 94.0345 54.787 94.0314 54.7772C94.0282 54.7674 94.0271 54.7571 94.0281 54.7469C94.0302 54.7327 94.0359 54.7194 94.0447 54.7082L101.859 45.0938L102.267 44.593C102.292 44.5631 102.31 44.5285 102.321 44.4913C102.332 44.4542 102.335 44.4152 102.33 44.3768C102.326 44.3383 102.314 44.3012 102.294 44.2676C102.275 44.2341 102.249 44.2048 102.218 44.1814L92.6949 36.8668C92.6747 36.8518 92.6594 36.8312 92.6507 36.8077C92.642 36.7842 92.6402 36.7586 92.6457 36.7341C92.6516 36.7062 92.6663 36.6808 92.6876 36.6618C92.709 36.6428 92.7358 36.6311 92.7643 36.6284L119.069 34.4436L127.598 33.7358L162.552 30.8321L166.116 30.5366C166.145 30.5336 166.175 30.5321 166.204 30.5322C166.4 30.5322 166.592 30.5876 166.757 30.692L179.906 38.9656C179.921 38.9754 179.933 38.9896 179.941 39.0063C179.948 39.0231 179.95 39.0417 179.947 39.0597C179.943 39.0806 179.931 39.0993 179.914 39.1125L168.224 48.4946C168.061 48.6251 167.862 48.7041 167.654 48.7213L94.1012 54.8304C94.099 54.8311 94.0967 54.8311 94.0945 54.8304L94.1006 54.8292ZM164.993 41.5782H164.973L128.808 44.4044C128.775 44.4071 128.743 44.4162 128.714 44.4312C128.684 44.4463 128.658 44.4669 128.637 44.4921C128.615 44.5173 128.599 44.5465 128.589 44.5779C128.579 44.6094 128.575 44.6425 128.578 44.6754L128.708 46.3448C128.713 46.4076 128.742 46.4662 128.788 46.5089C128.835 46.5516 128.896 46.5752 128.959 46.5752H128.978L165.143 43.7489C165.21 43.7437 165.272 43.7123 165.315 43.6616C165.358 43.6109 165.38 43.5451 165.375 43.4785L165.243 41.8098C165.238 41.7468 165.21 41.6881 165.164 41.6452C165.117 41.6023 165.056 41.5784 164.993 41.5782ZM164.932 35.3861H164.913L128.455 38.2363C128.389 38.2415 128.328 38.2727 128.285 38.3232C128.241 38.3737 128.22 38.4392 128.225 38.5054L128.365 40.294C128.37 40.3569 128.399 40.4155 128.445 40.4584C128.492 40.5013 128.552 40.5253 128.615 40.5257C128.622 40.5263 128.628 40.5263 128.634 40.5257L165.092 37.676C165.125 37.6735 165.157 37.6645 165.186 37.6496C165.216 37.6346 165.242 37.614 165.263 37.5889C165.285 37.5637 165.301 37.5346 165.311 37.5032C165.321 37.4717 165.325 37.4386 165.322 37.4057L165.183 35.619C165.178 35.5558 165.149 35.4968 165.103 35.4536C165.056 35.4105 164.995 35.3862 164.932 35.3855" fill="#5C5084"/>
<path fill-rule="evenodd" clip-rule="evenodd" d="M128.621 40.5264C128.558 40.5258 128.497 40.5017 128.451 40.4588C128.405 40.4158 128.376 40.357 128.371 40.2941L128.231 38.5056C128.226 38.4393 128.248 38.3738 128.291 38.3233C128.334 38.2728 128.396 38.2413 128.462 38.2358L164.918 35.3862C164.925 35.3856 164.932 35.3856 164.939 35.3862C165.002 35.3867 165.063 35.4108 165.109 35.4536C165.155 35.4965 165.184 35.555 165.189 35.6179L165.328 37.4058C165.331 37.4387 165.327 37.4718 165.317 37.5032C165.306 37.5345 165.29 37.5635 165.269 37.5886C165.247 37.6137 165.221 37.6342 165.192 37.6491C165.162 37.6641 165.13 37.673 165.097 37.6755L128.64 40.5252C128.634 40.5258 128.628 40.5258 128.621 40.5252" fill="#8F82BA"/>
<path fill-rule="evenodd" clip-rule="evenodd" d="M128.964 46.5748C128.9 46.5747 128.84 46.5508 128.793 46.5079C128.747 46.465 128.718 46.4062 128.713 46.3432L128.583 44.6744C128.578 44.6079 128.599 44.5422 128.643 44.4915C128.686 44.4407 128.747 44.4091 128.814 44.4034L164.978 41.5771H164.998C165.062 41.5775 165.122 41.6016 165.169 41.6446C165.215 41.6876 165.244 41.7464 165.249 41.8094L165.379 43.4788C165.384 43.5451 165.363 43.6108 165.319 43.6613C165.276 43.7118 165.215 43.7432 165.148 43.7485L128.983 46.5748H128.964Z" fill="#8F82BA"/>
<path fill-rule="evenodd" clip-rule="evenodd" d="M125.415 43.6395C125.415 44.1358 125.268 44.6211 124.992 45.0338C124.717 45.4466 124.325 45.7683 123.866 45.9583C123.408 46.1483 122.903 46.198 122.416 46.1012C121.93 46.0044 121.482 45.7654 121.131 45.4144C120.78 45.0634 120.541 44.6163 120.445 44.1295C120.348 43.6427 120.398 43.1381 120.588 42.6796C120.778 42.2211 121.099 41.8292 121.512 41.5535C121.925 41.2778 122.41 41.1307 122.906 41.1309C123.236 41.1308 123.562 41.1956 123.866 41.3217C124.171 41.4477 124.447 41.6325 124.68 41.8655C124.913 42.0984 125.098 42.375 125.224 42.6794C125.35 42.9838 125.415 43.31 125.415 43.6395Z" fill="#ED6E00"/>
<path fill-rule="evenodd" clip-rule="evenodd" d="M124.615 43.2392C124.616 43.5438 124.526 43.8419 124.357 44.0954C124.188 44.349 123.948 44.5467 123.667 44.6636C123.385 44.7805 123.076 44.8112 122.777 44.7519C122.478 44.6926 122.203 44.546 121.988 44.3306C121.772 44.1152 121.626 43.8406 121.567 43.5417C121.507 43.2429 121.538 42.9332 121.655 42.6519C121.772 42.3705 121.969 42.1301 122.223 41.9613C122.477 41.7924 122.775 41.7025 123.079 41.7031C123.486 41.7039 123.877 41.866 124.165 42.1539C124.452 42.4418 124.614 42.832 124.615 43.2392Z" fill="#ED6E00"/>
<path fill-rule="evenodd" clip-rule="evenodd" d="M144.953 31.028C144.94 31.028 144.927 31.0268 144.914 31.0243L137.101 29.8146L127.598 28.34L119.068 27.0202L76.3052 20.3956C76.1339 20.3685 75.9763 20.2859 75.8567 20.1603L73.1914 17.3696L72.6113 16.762L66.0802 9.92477C66.0162 9.85686 65.9669 9.77661 65.9352 9.6889C65.9035 9.60119 65.8901 9.5079 65.8958 9.41482L65.9487 8.4668L66.0101 8.49752C66.0127 8.51882 66.0222 8.53868 66.0371 8.55404L76.2634 18.9118C76.4028 19.0541 76.5845 19.1475 76.7814 19.1779L145.397 29.8072C145.401 29.8077 145.404 29.8077 145.408 29.8072C145.428 29.8065 145.447 29.798 145.46 29.7834C145.474 29.7687 145.482 29.7492 145.481 29.7291L145.558 29.8311L145.196 30.8468C145.179 30.8982 145.146 30.943 145.102 30.975C145.058 31.007 145.005 31.0247 144.95 31.0256L144.953 31.028ZM138.901 19.3198L138.557 18.7748C138.515 18.7075 138.5 18.6271 138.514 18.5492C138.529 18.4714 138.573 18.4019 138.636 18.3545L148.209 11.357L147.772 12.7406C147.76 12.7713 147.431 13.0288 146.901 13.43C145.053 14.8272 140.757 17.9717 138.905 19.3222" fill="#AFA9C2"/>
<path fill-rule="evenodd" clip-rule="evenodd" d="M145.41 29.8096C145.406 29.8102 145.403 29.8102 145.4 29.8096L76.7829 19.1802C76.5863 19.1491 76.405 19.0556 76.2656 18.9136L66.0387 8.55581C66.0239 8.54039 66.0146 8.52052 66.0123 8.49929C66.0103 8.48079 66.0136 8.46207 66.0218 8.44535C66.0299 8.42862 66.0426 8.41456 66.0583 8.40467L79.0839 0.65383C79.2284 0.5669 79.3938 0.520825 79.5625 0.520508C79.6092 0.520525 79.6558 0.524204 79.702 0.531548L119.072 6.63025L127.601 7.95124L143.296 10.383L148.272 11.1542C148.287 11.1571 148.3 11.1641 148.31 11.1744C148.321 11.1847 148.328 11.1978 148.331 11.2121C148.334 11.2265 148.333 11.2414 148.328 11.2551C148.323 11.2688 148.314 11.2807 148.302 11.2893L148.208 11.3569L138.639 18.3612C138.576 18.4086 138.532 18.478 138.518 18.5557C138.503 18.6334 138.518 18.7138 138.56 18.7809L138.905 19.3252L145.47 29.6959C145.478 29.7074 145.482 29.7211 145.482 29.7352C145.483 29.7451 145.481 29.755 145.478 29.7643C145.474 29.7735 145.469 29.7821 145.462 29.7893C145.455 29.7966 145.447 29.8025 145.438 29.8066C145.429 29.8107 145.42 29.8129 145.41 29.8132V29.8096ZM81.442 11.3329C81.3826 11.3337 81.3255 11.3555 81.2805 11.3942C81.2356 11.433 81.2058 11.4863 81.1962 11.5449L80.9609 13.0373C80.9508 13.1029 80.9671 13.1699 81.0063 13.2235C81.0454 13.2772 81.1042 13.3132 81.1698 13.3236L114.265 18.5461C114.278 18.5486 114.29 18.5499 114.303 18.5498C114.362 18.5489 114.419 18.5273 114.464 18.4886C114.509 18.45 114.539 18.3969 114.549 18.3385L114.784 16.8461C114.794 16.7802 114.778 16.713 114.738 16.6591C114.699 16.6051 114.641 16.5687 114.575 16.5579L81.4807 11.3354C81.4678 11.3354 81.4549 11.3354 81.4414 11.3354L81.442 11.3329ZM82.4509 5.71349C82.3914 5.71407 82.3342 5.73571 82.2892 5.77451C82.2442 5.81332 82.2144 5.86679 82.2051 5.92548L81.952 7.52295C81.9419 7.58866 81.9582 7.65574 81.9973 7.70949C82.0364 7.76324 82.0952 7.79929 82.1609 7.80987L115.523 13.0748C115.537 13.0748 115.549 13.0748 115.563 13.0748C115.622 13.074 115.679 13.0523 115.724 13.0135C115.769 12.9748 115.799 12.9214 115.809 12.8628L116.06 11.2653C116.071 11.1996 116.055 11.1323 116.016 11.0783C115.977 11.0243 115.919 10.9879 115.853 10.9772L82.4902 5.71349C82.4771 5.71227 82.4639 5.71227 82.4509 5.71349Z" fill="#D0CCDB"/>
<path fill-rule="evenodd" clip-rule="evenodd" d="M125.924 17.1869C125.924 17.702 125.771 18.2056 125.485 18.634C125.199 19.0624 124.792 19.3962 124.317 19.5935C123.841 19.7907 123.317 19.8424 122.812 19.742C122.307 19.6417 121.842 19.3937 121.478 19.0296C121.114 18.6654 120.866 18.2014 120.765 17.6962C120.664 17.191 120.716 16.6673 120.913 16.1913C121.11 15.7154 121.444 15.3086 121.872 15.0223C122.3 14.736 122.804 14.5831 123.319 14.583C123.661 14.5829 123.999 14.6502 124.315 14.781C124.632 14.9118 124.919 15.1036 125.161 15.3454C125.402 15.5872 125.594 15.8742 125.725 16.1902C125.856 16.5062 125.924 16.8449 125.924 17.1869Z" fill="#ED6E00"/>
<path fill-rule="evenodd" clip-rule="evenodd" d="M125.095 16.7723C125.095 17.0882 125.002 17.3971 124.826 17.6598C124.651 17.9225 124.401 18.1273 124.109 18.2482C123.817 18.3691 123.496 18.4007 123.186 18.3391C122.876 18.2774 122.592 18.1253 122.368 17.9019C122.145 17.6784 121.993 17.3938 121.931 17.0839C121.869 16.774 121.901 16.4529 122.022 16.161C122.143 15.8691 122.348 15.6196 122.61 15.444C122.873 15.2685 123.182 15.1748 123.498 15.1748C123.922 15.1748 124.328 15.3431 124.627 15.6427C124.927 15.9423 125.095 16.3486 125.095 16.7723Z" fill="#ED6E00"/>
<path fill-rule="evenodd" clip-rule="evenodd" d="M115.558 13.0744H115.52L82.1577 7.8095C82.0919 7.79891 82.033 7.76274 81.9937 7.70887C81.9545 7.65501 81.9381 7.58785 81.9482 7.52197L82.2014 5.9245C82.2106 5.86575 82.2404 5.8122 82.2854 5.7733C82.3304 5.73439 82.3877 5.71264 82.4471 5.71191C82.4605 5.71192 82.4739 5.71313 82.4871 5.71557L115.85 10.9786C115.915 10.9896 115.974 11.0261 116.013 11.0801C116.051 11.1341 116.067 11.2012 116.057 11.2668L115.805 12.8643C115.795 12.9229 115.766 12.9763 115.721 13.0151C115.676 13.0539 115.618 13.0755 115.559 13.0762" fill="#E0DBEC"/>
<path fill-rule="evenodd" clip-rule="evenodd" d="M114.3 18.5462C114.287 18.5462 114.274 18.545 114.262 18.5425L81.1674 13.32C81.1017 13.3093 81.0428 13.2731 81.0036 13.2193C80.9644 13.1655 80.948 13.0984 80.9579 13.0325L81.1932 11.5401C81.2027 11.4815 81.2326 11.4281 81.2775 11.3894C81.3225 11.3506 81.3796 11.3289 81.439 11.3281C81.4522 11.3282 81.4653 11.3294 81.4783 11.3318L114.572 16.5543C114.638 16.5649 114.696 16.6011 114.736 16.655C114.775 16.7089 114.791 16.7761 114.781 16.8419L114.545 18.3343C114.536 18.3929 114.506 18.4462 114.461 18.4849C114.416 18.5237 114.359 18.5454 114.3 18.5462" fill="#E0DBEC"/>
<path fill-rule="evenodd" clip-rule="evenodd" d="M67.3959 87.2465C46.7436 86.7082 23.8992 92.2558 23.8992 92.2558C18.4604 122.267 20.8529 156.216 21.7788 166.495C21.865 167.431 22.2553 168.313 22.8901 169.006C23.5249 169.699 24.3692 170.165 25.2939 170.333C35.9656 172.295 47.2198 171.105 52.881 170.243C53.9563 170.078 54.9562 169.591 55.7476 168.844C56.539 168.098 57.0845 167.128 57.3115 166.065C61.0527 148.651 71.7404 110.234 71.7404 110.234C81.8444 109.078 90.1857 106.245 97.0683 102.461C91.9042 96.3582 89.5153 88.6332 88.4893 84.0693C81.1655 86.2689 73.7643 87.4106 67.3953 87.2447" fill="#5C5084"/>
<path fill-rule="evenodd" clip-rule="evenodd" d="M128.696 57.4064C126.69 54.9358 124.806 55.0427 124.806 55.0427C121.644 67.8526 104.913 79.1387 88.4902 84.0712C89.5157 88.6344 91.9045 96.3595 97.0693 102.463C124.388 87.445 128.696 57.4064 128.696 57.4064Z" fill="url(#paint2_linear)"/>
<path fill-rule="evenodd" clip-rule="evenodd" d="M128.196 58.0243C128.402 58.7002 125.934 59.7047 124.51 56.9307C124.472 55.6085 123.722 49.9325 124.522 48.8616C128.786 43.1623 137.019 36.0449 137.019 36.0449C138.385 37.4194 137.236 38.7483 137.236 38.7483L133.236 42.8354C134.051 44.3401 135.048 45.6132 135.505 47.4276C135.851 48.8026 135.617 50.2655 134.913 51.5066C134.209 52.7477 133.242 54.3704 132.333 55.6361C130.612 58.0323 128.193 58.0268 128.193 58.0268" fill="#C3BFD2"/>
<path fill-rule="evenodd" clip-rule="evenodd" d="M131.481 45.4932L127.844 48.5191L126.682 51.5525L129.864 55.1535C129.864 55.1535 131.005 49.12 131.821 47.8193C132.637 46.5186 132.227 45.8833 131.481 45.4932Z" fill="#C3BFD2"/>
<path fill-rule="evenodd" clip-rule="evenodd" d="M31.6308 112.331L23.8996 92.2559C23.8996 92.2559 4.48419 105.18 1.15039 121.77C4.79324 122.073 11.4172 123.085 17.879 126.425C19.3806 118.591 31.6308 112.331 31.6308 112.331Z" fill="#5C5084"/>
<path fill-rule="evenodd" clip-rule="evenodd" d="M48.3104 131.311C48.3104 131.311 26.5332 143.346 19.3243 132.823C17.8276 130.639 17.4854 128.478 17.8786 126.425C11.4168 123.085 4.79163 122.073 1.15001 121.77C0.146057 126.771 0.600723 132.105 3.49338 137.519C16.0722 161.06 51.1257 136.679 51.1257 136.679L48.3104 131.311Z" fill="#C3BFD2"/>
<path fill-rule="evenodd" clip-rule="evenodd" d="M43.8604 150.33L55.724 108.901C55.7892 108.671 55.921 108.466 56.1027 108.311C56.2845 108.156 56.5081 108.059 56.7452 108.031C58.8956 107.781 65.1227 107.076 72.3138 106.468C80.977 105.735 91.0343 105.142 97.0457 105.647C97.2429 105.663 97.4333 105.727 97.6001 105.833C97.767 105.939 97.9053 106.085 98.003 106.257C98.1007 106.429 98.1548 106.622 98.1606 106.82C98.1663 107.018 98.1236 107.214 98.0361 107.391C94.6182 114.307 80.5586 142.437 73.5168 151.652C73.4024 151.802 73.2545 151.924 73.0848 152.007C72.9151 152.091 72.7283 152.133 72.5393 152.132L45.0136 151.876C44.8269 151.874 44.6431 151.829 44.4766 151.745C44.3101 151.66 44.1653 151.539 44.0536 151.389C43.9419 151.239 43.8662 151.066 43.8325 150.882C43.7987 150.699 43.8079 150.51 43.8591 150.33" fill="#ED6E00"/>
<path fill-rule="evenodd" clip-rule="evenodd" d="M46.7272 140.321C46.7272 140.321 45.0738 133.525 45.7404 131.115C46.4071 128.705 47.6986 125.605 52.0037 126.294C56.3089 126.983 61.3871 128.796 61.3871 128.796C61.3871 128.796 61.1302 131.936 57.8585 130.923L59.886 132.493C59.886 132.493 59.596 135.007 56.833 133.664L58.7199 135.745C58.7199 135.745 57.5328 137.81 55.4991 136.483C53.4654 135.155 52.4916 141.136 46.7259 140.318" fill="#C3BFD2"/>
<path fill-rule="evenodd" clip-rule="evenodd" d="M71.5215 118.836C71.5215 119.525 71.7257 120.198 72.1083 120.771C72.491 121.343 73.0348 121.79 73.6711 122.053C74.3074 122.317 75.0076 122.386 75.6831 122.252C76.3587 122.117 76.9792 121.786 77.4663 121.299C77.9533 120.812 78.285 120.191 78.4195 119.516C78.5539 118.84 78.485 118.14 78.2216 117.504C77.9581 116.867 77.5118 116.323 76.9392 115.941C76.3666 115.558 75.6933 115.354 75.0046 115.354C74.5472 115.353 74.0943 115.444 73.6717 115.618C73.2491 115.793 72.8651 116.05 72.5417 116.373C72.2183 116.697 71.9617 117.081 71.7866 117.503C71.6116 117.926 71.5215 118.379 71.5215 118.836Z" fill="#E05E00"/>
<path fill-rule="evenodd" clip-rule="evenodd" d="M57.0636 121.132L59.4789 112.939C59.6192 112.45 59.8897 112.008 60.2617 111.661C60.6336 111.313 61.093 111.074 61.5906 110.967C69.1608 109.388 89.8806 109.053 90.0889 109.05L90.0748 108.123C89.2201 108.137 69.0576 108.463 61.4007 110.062C60.7394 110.202 60.1287 110.52 59.6339 110.98C59.139 111.441 58.7786 112.028 58.591 112.677L56.1758 120.87L57.0636 121.132Z" fill="#FBAE83"/>
<path fill-rule="evenodd" clip-rule="evenodd" d="M50.754 66.0675C50.754 66.0675 45.6501 62.4922 45.2458 65.458C44.8415 68.4238 49.8318 69.8025 52.3201 68.7193L50.754 66.0675Z" fill="url(#paint3_linear)"/>
<path fill-rule="evenodd" clip-rule="evenodd" d="M46.6337 70.2793L39.8801 89.2228C39.8256 89.3747 39.8265 89.5411 39.8827 89.6924C39.9389 89.8438 40.0468 89.9703 40.1873 90.0498C41.9691 91.0574 48.3958 93.9821 56.2235 89.1245C56.6273 88.8771 56.9718 88.5438 57.2323 88.1482C57.4928 87.7527 57.6629 87.3046 57.7306 86.8358L60.0101 70.4083L46.6337 70.2818" fill="#C3BFD2"/>
<path fill-rule="evenodd" clip-rule="evenodd" d="M61.0997 52.8164C61.0997 52.8164 68.1869 66.4699 67.21 71.9492C66.2331 77.4286 57.2922 76.9475 49.5248 72.4162L44.207 57.6961L61.0997 52.8164Z" fill="#C3BFD2"/>
<path fill-rule="evenodd" clip-rule="evenodd" d="M49.9389 65.2152C50.0138 65.1833 50.0809 65.1354 50.1354 65.0748C50.1899 65.0143 50.2306 64.9426 50.2546 64.8648C50.2785 64.7869 50.2853 64.7048 50.2743 64.6241C50.2632 64.5433 50.2348 64.466 50.1908 64.3974C49.6212 63.509 48.5546 61.694 48.2247 60.1162C48.2247 60.1162 46.9344 59.2733 51.5425 58.2159C56.1506 57.1585 63.0271 55.5155 64.5066 51.6146C65.948 47.8108 62.347 38.1768 56.3816 45.7685C56.3293 45.8364 56.2622 45.8914 56.1853 45.9293C56.1083 45.9672 56.0238 45.9868 55.938 45.9868C55.8523 45.9868 55.7677 45.9672 55.6908 45.9293C55.6139 45.8914 55.5467 45.8364 55.4944 45.7685C54.5409 44.5022 52.0261 41.8688 48.4858 43.4165C45.1723 44.8653 44.7778 47.2793 44.811 48.4989C44.8143 48.5828 44.7985 48.6663 44.7648 48.7431C44.731 48.82 44.6802 48.8881 44.6162 48.9424C44.5522 48.9967 44.4767 49.0357 44.3953 49.0565C44.314 49.0773 44.229 49.0793 44.1468 49.0623C42.4812 48.7281 38.4807 48.4166 36.5736 52.503C35.0025 55.87 35.9844 57.795 36.8863 58.7393C36.9525 58.8086 36.9998 58.8937 37.0236 58.9865C37.0474 59.0792 37.0469 59.1766 37.0223 59.2691C36.9976 59.3617 36.9495 59.4463 36.8827 59.515C36.8158 59.5836 36.7325 59.6338 36.6406 59.6609C35.5408 59.9866 34.1166 60.9033 34.2333 63.4703C34.3955 67.0222 38.3689 66.7476 39.5007 66.5958C39.5917 66.5833 39.6844 66.5933 39.7707 66.6247C39.857 66.6562 39.9343 66.7083 39.9959 66.7765C40.955 67.8591 45.2798 72.4542 49.9985 73.0477C50.0926 73.0585 50.1878 73.0454 50.2755 73.0097C50.3632 72.974 50.4404 72.9167 50.5002 72.8433C50.5599 72.7698 50.6002 72.6825 50.6173 72.5894C50.6345 72.4963 50.6279 72.4003 50.5982 72.3104L48.6124 66.3525C48.5679 66.2188 48.5752 66.0733 48.6327 65.9446C48.6903 65.816 48.7939 65.7136 48.9233 65.6576L49.942 65.2183" fill="#2B0D61"/>
<path fill-rule="evenodd" clip-rule="evenodd" d="M122.855 170.239C122.735 170.219 122.619 170.175 122.516 170.11C122.412 170.045 122.323 169.959 122.254 169.858C120.196 166.891 105.285 143.712 126.757 123.647C147.142 104.6 156.225 100.845 157.785 89.32C157.969 87.9744 159.802 87.7084 160.365 88.9452C164.563 98.1866 170.878 119.64 147.289 132.834C121.267 147.388 122.821 164.304 123.902 169.132C123.935 169.278 123.931 169.431 123.892 169.575C123.852 169.72 123.777 169.853 123.674 169.962C123.571 170.071 123.442 170.154 123.3 170.202C123.158 170.25 123.006 170.262 122.858 170.238" fill="#A39CB9"/>
<path fill-rule="evenodd" clip-rule="evenodd" d="M126.006 170.771C125.725 170.725 125.466 170.588 125.268 170.382C125.071 170.176 124.945 169.912 124.911 169.629C124.428 165.666 123.403 150.881 134.384 147.321C139.655 145.612 144.394 146.823 148.813 148.032C154.532 149.599 159.718 151.166 164.828 146.409C165.306 145.966 166.07 146.39 165.94 147.028C165.012 151.554 161.192 161.983 145.628 163.609C128.971 165.349 127.043 167.192 127.303 169.562C127.321 169.733 127.298 169.906 127.238 170.066C127.177 170.227 127.081 170.372 126.955 170.489C126.829 170.606 126.678 170.692 126.514 170.741C126.349 170.79 126.175 170.801 126.006 170.771Z" fill="#A39CB9"/>
<path fill-rule="evenodd" clip-rule="evenodd" d="M121.373 166.326C121.339 166.326 121.305 166.316 121.276 166.297C121.248 166.278 121.225 166.251 121.212 166.219C119.912 163.096 118.969 159.809 118.515 156.44C118.28 154.755 118.171 153.055 118.187 151.353C118.209 149.649 118.359 147.949 118.636 146.267C119.193 142.897 120.236 139.625 121.733 136.554C123.222 133.482 125.148 130.635 127.37 128.052C129.601 125.47 132.127 123.158 134.895 121.164C136.28 120.166 137.726 119.255 139.224 118.437L140.33 117.835C140.699 117.639 141.057 117.428 141.414 117.215L141.953 116.899L142.482 116.565L143.008 116.232L143.526 115.884C144.909 114.957 146.234 113.946 147.493 112.857C148.755 111.77 149.939 110.597 151.04 109.346C152.147 108.099 153.161 106.772 154.074 105.376C154.98 103.981 155.798 102.502 156.399 100.959L156.402 100.948C156.414 100.918 156.435 100.893 156.461 100.875C156.488 100.856 156.519 100.847 156.551 100.847C156.571 100.847 156.591 100.85 156.609 100.858C156.646 100.872 156.676 100.901 156.694 100.936C156.711 100.972 156.714 101.013 156.703 101.051C156.454 101.868 156.143 102.664 155.775 103.435C155.414 104.205 155.016 104.957 154.587 105.693C154.158 106.428 153.701 107.148 153.205 107.84C152.709 108.532 152.199 109.216 151.652 109.868C149.479 112.495 146.9 114.783 144.088 116.709C142.679 117.663 141.219 118.54 139.714 119.336C138.25 120.127 136.837 121.01 135.483 121.978C132.768 123.915 130.29 126.164 128.1 128.679C125.909 131.192 124.043 133.972 122.547 136.952C119.515 142.943 118.319 149.696 119.108 156.364C119.482 159.688 120.349 162.95 121.534 166.089C121.551 166.132 121.55 166.18 121.531 166.222C121.512 166.264 121.478 166.297 121.435 166.314C121.415 166.322 121.395 166.325 121.374 166.325" fill="#C9C6D7"/>
<path fill-rule="evenodd" clip-rule="evenodd" d="M125.626 168.223C125.598 168.223 125.57 168.215 125.548 168.198C125.526 168.181 125.51 168.157 125.503 168.13C125.499 168.112 125.499 168.093 125.503 168.075C125.524 167.94 125.532 167.804 125.525 167.668V167.262C125.529 166.992 125.535 166.722 125.545 166.451C125.565 165.911 125.596 165.372 125.64 164.833C125.727 163.756 125.858 162.683 126.04 161.615C126.413 159.486 126.975 157.371 127.906 155.402C128.367 154.412 128.945 153.481 129.627 152.628C130.314 151.769 131.142 151.033 132.077 150.452C133.02 149.878 134.064 149.488 135.153 149.303C135.694 149.207 136.242 149.158 136.792 149.154H136.985C137.468 149.157 137.951 149.188 138.431 149.247C138.977 149.314 139.505 149.409 140.037 149.5L141.632 149.781C142.693 149.974 143.753 150.177 144.811 150.39C146.927 150.809 149.035 151.27 151.149 151.659C152.207 151.851 153.267 152.023 154.332 152.13C154.931 152.191 155.533 152.226 156.132 152.226C156.596 152.228 157.06 152.202 157.521 152.15C158.575 152.043 159.597 151.732 160.532 151.234C161.465 150.735 162.289 150.044 163.022 149.268C163.035 149.254 163.051 149.243 163.069 149.235C163.087 149.228 163.106 149.224 163.126 149.224C163.153 149.224 163.18 149.232 163.203 149.247C163.226 149.262 163.244 149.283 163.255 149.309C163.266 149.334 163.27 149.362 163.266 149.389C163.261 149.416 163.249 149.441 163.23 149.462C162.493 150.26 161.651 150.982 160.686 151.514C159.719 152.043 158.657 152.379 157.562 152.503C157.072 152.56 156.58 152.588 156.087 152.586C155.486 152.586 154.886 152.55 154.293 152.493C153.212 152.388 152.142 152.217 151.078 152.027C148.952 151.641 146.844 151.187 144.73 150.774C142.615 150.362 140.49 149.963 138.377 149.648C137.892 149.585 137.403 149.551 136.914 149.548H136.754C136.238 149.55 135.723 149.594 135.214 149.68C134.169 149.85 133.167 150.216 132.259 150.759C131.355 151.313 130.551 152.017 129.884 152.841C129.212 153.669 128.641 154.574 128.184 155.537C127.25 157.461 126.671 159.548 126.279 161.657C126.087 162.713 125.946 163.78 125.849 164.852C125.802 165.388 125.765 165.924 125.739 166.46C125.727 166.729 125.717 166.997 125.711 167.266L125.705 167.669C125.697 167.803 125.707 167.938 125.734 168.07C125.738 168.085 125.739 168.102 125.737 168.118C125.735 168.134 125.729 168.149 125.721 168.163C125.712 168.177 125.701 168.189 125.688 168.199C125.675 168.209 125.66 168.216 125.645 168.219C125.635 168.222 125.625 168.223 125.615 168.223" fill="#C9C6D7"/>
<defs>
<linearGradient id="paint0_linear" x1="-1009.27" y1="-369184" x2="-1203.27" y2="-378023" gradientUnits="userSpaceOnUse">
<stop offset="1" stop-color="#E3605E"/>
</linearGradient>
<linearGradient id="paint1_linear" x1="245403" y1="-997125" x2="254857" y2="-1.04071e+06" gradientUnits="userSpaceOnUse">
<stop offset="1" stop-color="#E3605E"/>
</linearGradient>
<linearGradient id="paint2_linear" x1="-103139" y1="-901.597" x2="-129572" y2="-1152.57" gradientUnits="userSpaceOnUse">
<stop offset="1" stop-color="#C3BFD2"/>
</linearGradient>
<linearGradient id="paint3_linear" x1="953424" y1="466225" x2="1.03447e+06" y2="540805" gradientUnits="userSpaceOnUse">
<stop offset="1" stop-color="#EF908C"/>
</linearGradient>
</defs>
</svg>
