<svg width="245" height="301" viewBox="0 0 245 301" fill="none" xmlns="http://www.w3.org/2000/svg">
<path d="M6.1039 233.624C11.0023 248.869 20.4388 262.254 33.1513 271.991C48.0947 283.572 66.1076 290.614 84.4817 295.028C110.01 301.174 136.877 302.5 162.623 297.276C180.468 293.665 198.014 286.741 211.712 274.743C238.006 251.705 239.108 218.288 224.127 188.408C215.254 170.706 203.107 152.195 189.658 137.663C185.917 133.626 181.944 129.811 177.759 126.237C172.137 121.423 166.136 117.069 159.815 113.218C112.687 84.5763 32.0057 65.8598 8.72521 133.927C4.18617 147.195 2.42411 161.267 1.30958 175.189C-0.315505 195.481 0.139021 215.617 6.1039 233.624Z" fill="white"/>
<path d="M107.451 118.953C107.451 118.953 80.9946 40.1452 127.244 0.520508C219.513 50.2071 170.399 140.82 170.399 140.82L107.451 118.953Z" fill="#A39CB9"/>
<path d="M127.244 0.520508L128.197 1.04352L135.189 98.7418L178.257 55.4248C178.487 56.0474 178.705 56.7074 178.917 57.3487L135.332 101.158L137.349 129.351L135.481 128.728L131.459 72.5287L100.707 54.9827C100.782 54.3227 100.856 53.6689 100.937 53.0152L131.322 70.3059L126.385 1.28635C126.671 1.03107 126.951 0.769563 127.244 0.520508Z" fill="#C9C6D7"/>
<path d="M128.832 100.516C128.832 100.516 157.349 22.6863 215.074 14.2744C257.787 69.9196 202.963 126.972 202.963 126.972L136.515 155.975L128.832 100.516Z" fill="#D0CCDB"/>
<path d="M159.896 48.1024L177.024 80.629L213.71 14.4986C214.165 14.4238 214.619 14.3429 215.074 14.2744C215.242 14.4923 215.398 14.7103 215.56 14.9282L195.928 50.3314L229.282 43.0216C229.363 43.3392 229.432 43.6443 229.5 43.9681L229.687 44.8024L194.763 52.4733L162.044 111.499L221.001 100.541C220.653 101.232 220.298 101.923 219.943 102.596L160.892 113.573L137.655 155.483L136.534 155.975L136.285 154.188L176.01 82.5405L158.65 49.6092C159.068 49.0861 159.491 48.6067 159.896 48.1024Z" fill="white"/>
<path d="M149.118 134.6C149.118 134.6 206.145 95.411 244.575 121.587C240.397 216.39 119.518 217.822 119.518 217.822L149.118 134.6Z" fill="#5C5084"/>
<path d="M244.574 121.587C244.574 121.954 244.53 122.315 244.512 122.676L163.4 169.654L210.951 188.172C210.391 188.614 209.824 189.043 209.251 189.467L161.402 170.825L129.703 189.18L130.65 186.522L192.291 150.795L202.471 113.374C203.094 113.281 203.772 113.2 204.432 113.125L194.539 149.493L243.665 121.033C243.951 121.219 244.238 121.4 244.518 121.593L244.574 121.587Z" fill="#443772"/>
<path d="M21.9746 43.7812V58.488H43.5179V78.8545H42.8392V228.014C42.8573 233.639 45.1 239.029 49.0779 243.007C53.0557 246.985 58.4457 249.228 64.0712 249.246L178.568 249.345V77.9081C178.568 68.8571 174.973 60.1768 168.573 53.7768C162.173 47.3767 153.492 43.7813 144.441 43.7812H21.9746Z" fill="url(#paint0_linear)"/>
<path d="M7.28125 72.1554V58.5134C7.30244 54.4184 8.93643 50.4967 11.8291 47.5982C14.7218 44.6997 18.6402 43.0578 22.7351 43.0283C28.3371 43.0216 33.7141 45.2316 37.6921 49.1758C41.6701 53.12 43.926 58.478 43.9671 64.0798V72.1741L7.28125 72.1554Z" fill="#5C5084"/>
<path d="M151.627 81.75H78.3613V84.8258H151.627V81.75Z" fill="#5C5084"/>
<path d="M151.627 94.0537H78.3613V97.1296H151.627V94.0537Z" fill="#5C5084"/>
<path d="M151.627 107.895H78.3613V110.97H151.627V107.895Z" fill="#5C5084"/>
<path d="M151.627 120.191H78.3613V123.267H151.627V120.191Z" fill="#5C5084"/>
<path d="M151.627 133.609H78.3613V136.685H151.627V133.609Z" fill="#5C5084"/>
<path d="M151.627 145.913H78.3613V148.989H151.627V145.913Z" fill="#5C5084"/>
<path d="M151.627 159.748H78.3613V162.824H151.627V159.748Z" fill="#5C5084"/>
<path d="M151.627 172.051H78.3613V175.127H151.627V172.051Z" fill="#5C5084"/>
<path d="M184.042 249.346H70.2676C70.2676 249.346 93.2741 244.595 85.5969 216.259H206.725C206.725 216.259 214.39 249.346 184.042 249.346Z" fill="#A39CB9"/>
<path d="M53.9226 155.34L47.7771 171.397L43.9043 168.515L52.559 153.92L53.9226 155.34Z" fill="#B4AFC6"/>
<path d="M53.1621 150.484C52.7748 150.96 52.5775 151.564 52.6079 152.177L52.334 154.493L52.6515 154.854L53.7412 155.82C53.6976 155.34 53.6478 155.82 53.6478 155.82L55.3974 152.775C55.3974 152.775 57.5081 151.417 54.8432 149.419C54.72 149.321 54.5699 149.264 54.413 149.254C54.2561 149.244 54.0999 149.282 53.9653 149.363C53.5703 149.626 53.2848 150.025 53.1621 150.484Z" fill="#B4AFC6"/>
<path d="M40.3496 182.997C43.0853 179.304 45.565 175.429 47.7715 171.397L44.4403 167.605L40.3496 172.369V182.997Z" fill="#443772"/>
<path d="M30.7534 252.608L32.7147 252.95C33.1194 250.522 39.2026 239.016 39.7007 233.026C40.151 228.316 40.8493 223.634 41.7928 218.998L35.2426 217.062C35.2426 217.062 33.5864 217.062 35.4045 230.591C31.3138 235.965 30.2117 248.156 30.7534 252.608Z" fill="#B4AFC6"/>
<path d="M35.5742 212.143C35.5742 212.143 37.1121 221.395 39.254 231.295C37.0187 237.266 40.4246 253.94 40.4993 253.884C40.7546 253.641 41.9314 255.092 41.9314 255.092C41.9314 255.092 44.4219 240.373 44.9636 233.736C45.5053 227.098 45.6485 219.01 45.6485 219.01L35.5742 212.143Z" fill="#C3BFD2"/>
<path d="M40.2051 252.951C39.9484 253.172 39.7462 253.45 39.6144 253.762C39.4827 254.074 39.4248 254.412 39.4455 254.751C39.6198 255.753 39.8627 258.113 39.8627 258.113H40.8153V255.915C40.8153 255.772 42.87 258.113 43.2187 258.113H48.287C48.287 258.113 48.6232 256.631 45.647 256.152C42.6708 255.672 40.2051 252.951 40.2051 252.951Z" fill="#2A1B5F"/>
<path d="M32.9338 251.276L32.8031 253.374C32.7719 253.816 32.8927 254.256 33.1455 254.62C33.5773 255.218 34.0908 255.752 34.671 256.207C33.2016 256.681 31.8629 255.031 31.1655 253.935C30.8253 253.401 30.6903 252.761 30.7857 252.135L31.0286 250.485L32.9338 251.276Z" fill="#B4AFC6"/>
<path d="M30.7548 252.428C30.7548 252.428 29.466 252.546 29.248 253.53C29.0301 254.514 28.4199 256.5 28.4199 256.5L29.1422 257.048L30.1322 255.074C30.1322 255.074 32.2741 257.957 32.6227 258.094H38.158C38.158 258.094 38.158 256.263 34.6961 256.182C31.4833 256.126 30.7548 252.428 30.7548 252.428Z" fill="#28195D"/>
<path d="M41.7881 174.561H37.8281L39.4096 169.903L42.5104 171.809L41.7881 174.561Z" fill="#B4AFC6"/>
<path d="M67.9488 113.655L56.5508 142.92L61.8479 144.983L73.2459 115.718L67.9488 113.655Z" fill="#FEB882"/>
<path opacity="0.33" d="M57.558 143.317L57.4023 143.255C57.4023 143.255 67.1217 115.709 68.8029 113.997C70.484 112.285 73.9396 111.338 70.6708 114.713C67.4019 118.088 57.558 143.317 57.558 143.317Z" fill="white"/>
<path d="M70.8491 48.4151C77.5611 48.4151 84.3043 48.2283 90.9728 49.0378C92.0437 49.1685 96.5765 49.3242 93.5629 49.293L95.8543 50.0589C98.295 51.8645 100.368 54.0251 103.002 55.6128C105.37 57.0477 107.921 58.1556 110.586 58.9066C115.422 64.4783 118.456 71.3845 119.289 78.7151C120.121 86.0456 118.713 93.4564 115.25 99.9707C111.787 106.485 106.431 111.797 99.8888 115.207C93.3464 118.617 85.9244 119.965 78.6009 119.072C77.3862 118.287 76.0818 117.649 74.7157 117.173C74.2577 116.928 73.7809 116.72 73.2898 116.55C71.4547 115.438 69.5472 114.45 67.5802 113.593C65.5561 112.756 63.4087 112.255 61.2231 112.111C55.9106 108.164 51.7718 102.845 49.2501 96.726C46.7284 90.6066 45.9187 83.9166 46.9077 77.3723C47.8967 70.828 50.6472 64.676 54.8645 59.5751C59.0819 54.4742 64.6073 50.6165 70.8491 48.4151Z" fill="#A39CB9"/>
<path d="M83.5106 118.454C81.1677 117.097 78.5419 116.302 75.8397 116.132C74.0572 116.091 72.2791 115.938 70.5161 115.671L70.2422 115.609L96.144 49.0303C103.434 52.4536 109.387 58.1919 113.075 65.3511C116.764 72.5104 117.981 80.6886 116.537 88.6117C115.093 96.5348 111.069 103.758 105.092 109.156C99.1152 114.553 91.5207 117.823 83.4919 118.454H83.5106Z" fill="#C9C6D7"/>
<path d="M48.9364 69.7263C46.3165 76.4562 45.7514 83.8118 47.3123 90.8629C48.8732 97.914 52.4901 104.344 57.7055 109.339C62.9209 114.335 69.5006 117.671 76.6125 118.927C83.7243 120.182 91.0487 119.301 97.6595 116.394C104.27 113.486 109.87 108.684 113.751 102.593C117.633 96.5032 119.62 89.3988 119.464 82.1786C119.307 74.9585 117.012 67.9471 112.871 62.0311C108.729 56.1151 102.925 51.5602 96.1946 48.9426C91.7269 47.2042 86.9606 46.3629 82.1677 46.4665C77.3749 46.5702 72.6494 47.6169 68.261 49.5469C63.8727 51.4768 59.9074 54.2522 56.5917 57.7146C53.276 61.177 50.6747 65.2586 48.9364 69.7263ZM52.7531 71.2144C55.077 65.2408 59.12 60.0904 64.3709 56.4145C69.6218 52.7386 75.8449 50.7023 82.2531 50.5632C88.6613 50.4241 94.9669 52.1883 100.372 55.6328C105.778 59.0773 110.041 64.0473 112.622 69.9145C115.203 75.7816 115.986 82.2823 114.872 88.5946C113.758 94.9068 110.798 100.747 106.365 105.377C101.932 110.007 96.2263 113.218 89.9684 114.605C83.7105 115.991 77.1819 115.491 71.2081 113.168C63.1985 110.05 56.7548 103.88 53.294 96.0123C49.8332 88.1449 49.6386 79.2252 52.7531 71.2144Z" fill="#FE6D00"/>
<path d="M45.7031 172.512L58.1933 135.21C58.2688 134.992 58.3866 134.791 58.5399 134.619C58.6933 134.447 58.8792 134.307 59.0869 134.207C59.2947 134.107 59.5201 134.049 59.7504 134.036C59.9806 134.023 60.2111 134.056 60.4285 134.133L64.9178 135.882C65.1294 135.973 65.321 136.105 65.4817 136.27C65.6423 136.435 65.7687 136.63 65.8538 136.844C65.9388 137.058 65.9808 137.287 65.9772 137.517C65.9736 137.748 65.9246 137.975 65.833 138.186L55.821 163.895C54.3267 161.573 48.8599 173.222 45.7031 172.512Z" fill="#FE6D00"/>
<path d="M41.4824 176.192L58.1941 135.21C58.3375 134.805 58.6246 134.466 59.001 134.259C59.3774 134.051 59.817 133.988 60.2363 134.083C60.1242 134.899 49.5767 165.919 45.1809 179.43C44.2407 178.901 42.6654 176.46 41.4824 176.192Z" fill="#FE8B33"/>
<path d="M76.6743 67.9209C76.3381 68.7884 75.7524 69.5368 74.9911 70.0716C74.2299 70.6063 73.3272 70.9036 72.3971 70.9257C71.467 70.9478 70.5513 70.6938 69.7655 70.1958C68.9797 69.6977 68.3591 68.978 67.982 68.1275C67.605 67.277 67.4884 66.3339 67.6471 65.4172C67.8057 64.5004 68.2325 63.6513 68.8734 62.977C69.5143 62.3026 70.3407 61.8333 71.2482 61.6284C72.1556 61.4234 73.1035 61.4919 73.972 61.8253C74.5498 62.048 75.0781 62.3823 75.5266 62.8092C75.9752 63.2361 76.3352 63.7471 76.5862 64.3132C76.8371 64.8793 76.9741 65.4893 76.9892 66.1083C77.0043 66.7273 76.8973 67.3433 76.6743 67.9209Z" fill="white"/>
<path d="M67.4338 73.4563C67.2707 73.8693 66.9886 74.2246 66.6233 74.4771C66.258 74.7296 65.8259 74.8678 65.3818 74.8744C64.9378 74.8809 64.5018 74.7554 64.1293 74.5137C63.7567 74.2721 63.4643 73.9252 63.2891 73.5171C63.114 73.1091 63.064 72.6581 63.1455 72.2216C63.227 71.7851 63.4364 71.3826 63.747 71.0652C64.0576 70.7479 64.4555 70.5299 64.8902 70.439C65.3249 70.3482 65.7768 70.3884 66.1885 70.5548C66.738 70.775 67.1776 71.2041 67.4111 71.7481C67.6445 72.292 67.6527 72.9063 67.4338 73.4563Z" fill="white"/>
<path d="M47.0557 179.566C47.0557 179.448 47.0059 179.348 46.981 179.243C50.9036 174.187 54.2347 170.619 54.2347 170.619L50.9347 166.827L43.3261 174.025H41.1033C40.2296 173.479 39.1939 173.253 38.1724 173.385C37.1508 173.517 36.2064 173.998 35.4995 174.747C34.5407 175.737 33.9056 178.414 34.5407 181.254C36.309 189.062 34.9267 193.196 34.9267 193.196L45.1442 197.006C45.1442 197.006 45.3808 190.213 45.5365 185.45C45.5808 184.523 45.8686 183.623 46.3708 182.841C46.9947 181.871 47.2386 180.705 47.0557 179.566Z" fill="#D0CCDB"/>
<path d="M60.3796 154.562L54.2341 170.62L50.3613 167.737L59.016 153.148L60.3796 154.562Z" fill="#C3BFD2"/>
<path d="M59.6504 149.705C59.2631 150.181 59.0658 150.785 59.0962 151.398L58.8223 153.721L59.1398 154.075L60.2294 155.041C60.1858 154.561 60.136 155.041 60.136 155.041L61.8856 152.002C61.8856 152.002 63.9964 150.645 61.3315 148.64C61.2075 148.544 61.0576 148.487 60.9011 148.477C60.7446 148.467 60.5888 148.504 60.4536 148.584C60.0586 148.847 59.7731 149.246 59.6504 149.705Z" fill="#C3BFD2"/>
<path d="M45.3293 192.966C45.3293 192.966 46.6867 199.89 46.6867 204.005C46.6867 206.272 46.1325 220.53 46.1325 220.53C46.1325 220.53 36.4256 221.234 34.539 221.234C34.072 209.547 31.4258 209.192 31.4258 203.737C31.4258 201.371 32.6711 198.694 33.5739 196.988C34.2764 195.831 34.7341 194.543 34.9188 193.202L34.9811 192.978L45.3293 192.966Z" fill="#28195D"/>
<path d="M43.1816 161.535L36.6875 163.808L37.3101 168.658C37.3101 168.727 37.3101 168.795 37.3475 168.864C37.472 168.864 37.5966 168.888 37.7211 168.938H37.7833H37.8581C38.5797 169.149 39.2365 169.539 39.7676 170.071C40.2987 170.603 40.687 171.261 40.8965 171.983C41.8289 172.145 42.7832 172.132 43.7109 171.946C44.2524 171.884 44.7648 171.668 45.1865 171.323C46.575 168.341 43.1816 161.535 43.1816 161.535Z" fill="#C3BFD2"/>
<path d="M43.0323 165.663C41.2827 166.516 41.6936 175.532 41.3948 181.665C41.3102 183.266 40.6763 184.789 39.6001 185.977C38.5238 187.166 37.0709 187.947 35.4859 188.19C33.1759 188.557 30.6293 188.626 29.0977 187.754C30.1126 186.926 35.5731 178.888 33.8235 168.24C33.5931 166.84 33.5682 162.936 35.928 160.819C38.5493 158.465 43.96 161.535 43.96 161.535C43.96 161.535 45.4357 164.486 43.0323 165.663Z" fill="#28195D"/>
<path d="M163.096 170.918C163.42 171.633 163.469 172.443 163.233 173.191L162.822 176.105L162.311 176.447L160.443 177.226C160.562 176.84 160.562 176.428 160.443 176.043L159.622 172.998C159.622 172.998 158.333 167.861 161.819 168.085C161.819 163.901 162.971 164.592 162.971 164.592L163.046 168.21L163.096 170.918Z" fill="#C3BFD2"/>
<path d="M171.776 181.086C171.776 181.086 169.335 190.394 167.256 190.556C165.176 190.718 163.009 175.824 163.009 175.824L160.183 176.167C160.183 176.167 159.081 197.604 165.425 197.959C171.77 198.314 172.604 193.601 172.604 193.601L171.776 181.086Z" fill="#D8D6E2"/>
<path d="M172.038 206.533H188.631V181.335C183.893 174.1 177.984 176.067 177.984 176.067C177.984 176.067 172.611 176.167 171.758 181.092C171.776 184.66 172.038 206.533 172.038 206.533Z" fill="#A9A3BE"/>
<path d="M179.921 172.724L180.17 176.285L180.051 176.397C179.485 176.928 178.74 177.228 177.964 177.239C177.188 177.249 176.435 176.969 175.855 176.453L175.799 173.776L179.921 172.724Z" fill="#B4AFC6"/>
<path d="M181.228 165.277L180.923 171.168C180.788 171.176 180.656 171.215 180.537 171.282C180.418 171.348 180.316 171.44 180.238 171.551C180.16 171.662 180.107 171.79 180.085 171.924C180.062 172.058 180.07 172.195 180.107 172.326C180.046 172.461 180.012 172.607 180.008 172.755C179.266 173.312 178.418 173.709 177.516 173.924C176.614 174.138 175.678 174.164 174.765 174.001C171.029 173.284 173.283 166.081 173.283 166.081L181.228 165.277Z" fill="#C3BFD2"/>
<path d="M183.095 169.704C183.262 169.087 183.588 168.524 184.041 168.073C186.152 166.242 184.266 164.916 183.593 164.486C182.921 164.057 183.002 162.662 182.043 161.915C180.58 160.769 179.166 161.958 178.226 161.784C177.286 161.61 176.707 160.364 175.343 161.024C173.98 161.684 174.135 162.755 173.693 163.204C173.251 163.652 172.448 162.407 171.128 163.826C169.104 165.999 173.071 166.939 173.071 166.939C174.724 167.474 176.516 167.392 178.114 166.709C178.304 166.625 178.516 166.607 178.718 166.656C178.919 166.706 179.099 166.821 179.228 166.983C179.913 167.917 179.92 172.83 179.92 172.83L180.878 172.033C180.878 172.033 182.97 171.678 183.095 169.704Z" fill="#28195D"/>
<path d="M180.86 170.183C180.792 170.349 180.677 170.49 180.529 170.59C180.38 170.69 180.206 170.743 180.027 170.744C179.849 170.745 179.674 170.692 179.525 170.594C179.376 170.495 179.26 170.354 179.191 170.189C179.122 170.025 179.104 169.843 179.138 169.668C179.172 169.492 179.258 169.331 179.384 169.205C179.51 169.078 179.671 168.992 179.846 168.956C180.021 168.921 180.202 168.938 180.368 169.006C180.478 169.051 180.578 169.117 180.662 169.2C180.747 169.283 180.814 169.383 180.859 169.492C180.905 169.602 180.929 169.719 180.929 169.838C180.929 169.956 180.905 170.074 180.86 170.183Z" fill="#C3BFD2"/>
<path d="M175.797 254.047C175.797 254.047 174.863 255.342 170.455 256.469C169.484 256.712 168.438 256.88 168.438 258.486H172.796L177.242 257.714V258.486H179.645C179.645 258.486 180.317 254.551 178.91 254.047H175.797Z" fill="#28195D"/>
<path d="M175.568 251.226L175.799 254.046C176.228 254.345 176.734 254.513 177.257 254.53C177.779 254.548 178.295 254.414 178.744 254.146L178.906 254.046V251.226H175.568Z" fill="#C3BFD2"/>
<path d="M188.156 254.047C188.156 254.047 187.222 255.342 182.814 256.469C181.843 256.712 180.797 256.88 180.797 258.486H185.155L189.607 257.714V258.486H192.011C192.011 258.486 192.677 254.551 191.276 254.047H188.156Z" fill="#28195D"/>
<path d="M187.914 251.226L188.138 254.046C188.567 254.345 189.074 254.513 189.596 254.53C190.119 254.548 190.635 254.414 191.083 254.146L191.251 254.046V251.226H187.914Z" fill="#C3BFD2"/>
<path d="M188.618 181.335C188.618 181.335 193.599 192.81 187.248 198.675C180.897 204.541 172.305 203.538 172.305 203.538V200.232C172.305 200.232 180.094 199.572 182.591 194.367C185.087 189.162 181.588 184.66 181.588 184.66" fill="#A9A3BE"/>
<path d="M172.797 203.083L168.824 203.17C167.212 203.077 166.141 200.68 165.873 198.88C165.864 198.819 165.871 198.756 165.894 198.697C165.916 198.639 165.953 198.588 166.002 198.548C166.05 198.509 166.108 198.483 166.169 198.472C166.231 198.461 166.294 198.467 166.352 198.488C167.697 198.955 171.165 200.182 172.062 200.742L172.797 203.083Z" fill="#C3BFD2"/>
<path d="M172.037 206.533C167.087 220.505 174.839 251.444 174.839 251.444H179.247C179.247 251.444 177.167 207.573 182.902 206.533H172.037Z" fill="#28195D"/>
<path d="M183.456 190.898C183.398 192.102 183.097 193.282 182.572 194.367C180.081 199.572 171.881 200.263 171.881 200.263V203.6C171.881 203.6 180.903 204.534 187.248 198.675C189.545 196.546 190.361 193.694 190.46 190.898H183.456Z" fill="#D8D6E2"/>
<path d="M183.42 191.403L183.936 191.167C184.065 188.746 183.369 186.354 181.963 184.38L181.57 184.691C182.962 186.639 183.618 189.017 183.42 191.403Z" fill="#9891B1"/>
<path d="M162.337 171.361C162.337 171.361 163.252 171.087 163.395 169.418C163.539 167.749 164.323 168.266 164.323 168.266C164.323 168.266 163.919 174.847 162.866 175.115C161.814 175.383 162.337 171.361 162.337 171.361Z" fill="#C3BFD2"/>
<path d="M176.918 206.533C175.567 223.668 186.507 251.444 186.507 251.444H191.75C191.75 251.444 188.188 233.68 188.113 217.012C188.082 213.512 188.255 210.013 188.63 206.533H176.918Z" fill="#2A1B5F"/>
<path d="M173.906 241.986C175.151 249.37 170.942 256.139 165.008 258.473C163.146 259.024 161.246 259.44 159.324 259.719C151.366 261.039 146.479 255.211 145.078 246.768C143.677 238.325 146.516 230.828 154.479 229.508C156.364 229.296 158.261 229.206 160.158 229.241C163.555 229.493 166.765 230.892 169.262 233.207C171.76 235.523 173.397 238.618 173.906 241.986Z" fill="#A796BD"/>
<path d="M168.545 254.146C168.455 254.161 168.363 254.139 168.289 254.086C168.214 254.033 168.164 253.953 168.15 253.863C168.135 253.773 168.156 253.68 168.209 253.606C168.262 253.532 168.343 253.482 168.433 253.467L171.652 252.932C172.205 252.075 172.672 251.166 173.047 250.217L169.666 250.778C169.576 250.792 169.483 250.771 169.409 250.718C169.335 250.665 169.285 250.584 169.27 250.494C169.255 250.404 169.277 250.312 169.33 250.238C169.383 250.164 169.464 250.114 169.554 250.099L173.289 249.476C173.571 248.635 173.78 247.77 173.912 246.892L170.257 247.515C170.167 247.53 170.075 247.508 170.001 247.455C169.927 247.402 169.877 247.322 169.862 247.232C169.847 247.142 169.868 247.049 169.922 246.975C169.975 246.901 170.055 246.851 170.145 246.836L174.005 246.214C174.124 245.113 174.124 244.002 174.005 242.901L169.971 243.574C169.882 243.586 169.791 243.563 169.719 243.509C169.647 243.456 169.599 243.376 169.585 243.287C169.577 243.243 169.577 243.198 169.587 243.155C169.596 243.111 169.614 243.07 169.64 243.034C169.665 242.997 169.698 242.966 169.735 242.942C169.773 242.919 169.815 242.902 169.859 242.895L173.918 242.222C173.918 242.154 173.918 242.092 173.887 242.029C173.675 240.728 173.301 239.458 172.773 238.25L169.037 238.873C168.948 238.885 168.857 238.862 168.785 238.809C168.713 238.755 168.665 238.675 168.651 238.586C168.643 238.542 168.643 238.498 168.653 238.454C168.662 238.411 168.68 238.369 168.706 238.333C168.731 238.296 168.764 238.265 168.801 238.241C168.839 238.218 168.881 238.201 168.925 238.194L172.492 237.602C171.909 236.426 171.177 235.329 170.313 234.34L166.721 234.962C166.631 234.977 166.538 234.956 166.464 234.903C166.39 234.85 166.34 234.769 166.325 234.679C166.31 234.589 166.332 234.497 166.385 234.423C166.438 234.349 166.518 234.299 166.608 234.284L169.753 233.761C169.176 233.17 168.551 232.629 167.885 232.142L164.572 232.69C164.528 232.697 164.482 232.695 164.438 232.685C164.395 232.674 164.353 232.655 164.317 232.628C164.28 232.602 164.249 232.568 164.226 232.529C164.203 232.491 164.187 232.448 164.18 232.403C164.166 232.315 164.186 232.225 164.237 232.152C164.289 232.078 164.366 232.028 164.454 232.011L167.063 231.582C164.988 230.258 162.614 229.477 160.158 229.309C158.261 229.275 156.364 229.364 154.479 229.577C146.516 230.897 143.677 238.399 145.078 246.836C146.479 255.273 151.366 261.107 159.324 259.787C161.246 259.509 163.146 259.092 165.008 258.542C167.443 257.557 169.554 255.911 171.104 253.791L168.545 254.146Z" fill="#FE8B33"/>
<path d="M168.651 238.543C168.665 238.632 168.713 238.712 168.785 238.765C168.857 238.819 168.948 238.842 169.037 238.829L172.773 238.207C172.673 237.989 172.58 237.771 172.474 237.584L168.906 238.175C168.826 238.195 168.756 238.243 168.709 238.311C168.661 238.378 168.641 238.461 168.651 238.543Z" fill="#FE6D00"/>
<path d="M166.335 234.633C166.348 234.722 166.397 234.801 166.469 234.855C166.541 234.909 166.632 234.932 166.721 234.919L170.313 234.296C170.133 234.091 169.946 233.892 169.753 233.674L166.609 234.197C166.56 234.205 166.514 234.222 166.474 234.249C166.433 234.276 166.399 234.311 166.373 234.353C166.347 234.394 166.33 234.44 166.323 234.489C166.317 234.537 166.321 234.586 166.335 234.633Z" fill="#FE6D00"/>
<path d="M164.18 232.336C164.187 232.38 164.203 232.423 164.226 232.462C164.25 232.5 164.28 232.534 164.317 232.56C164.353 232.587 164.395 232.606 164.439 232.617C164.483 232.627 164.528 232.629 164.573 232.622L167.885 232.074C167.615 231.875 167.341 231.688 167.063 231.514L164.454 231.943C164.366 231.96 164.289 232.01 164.237 232.084C164.186 232.157 164.166 232.247 164.18 232.336Z" fill="#FE6D00"/>
<path d="M169.602 243.243C169.616 243.332 169.664 243.412 169.736 243.466C169.808 243.519 169.899 243.542 169.988 243.53L174.023 242.857C174.023 242.633 173.967 242.403 173.936 242.179L169.857 242.851C169.772 242.871 169.698 242.922 169.65 242.996C169.602 243.069 169.585 243.158 169.602 243.243Z" fill="#FE6D00"/>
<path d="M169.901 247.204C169.907 247.248 169.922 247.291 169.945 247.329C169.968 247.368 169.998 247.401 170.034 247.428C170.07 247.455 170.111 247.474 170.154 247.485C170.198 247.495 170.243 247.497 170.287 247.49L173.942 246.867C173.979 246.631 174.011 246.394 174.036 246.151L170.175 246.774C170.128 246.782 170.083 246.8 170.042 246.826C170.002 246.853 169.968 246.887 169.942 246.928C169.917 246.968 169.9 247.014 169.892 247.061C169.885 247.109 169.888 247.157 169.901 247.204Z" fill="#FE6D00"/>
<path d="M169.278 250.491C169.292 250.58 169.341 250.66 169.413 250.713C169.485 250.767 169.575 250.79 169.664 250.777L173.045 250.217C173.139 249.974 173.232 249.725 173.313 249.47L169.577 250.092C169.531 250.098 169.486 250.112 169.446 250.136C169.405 250.159 169.37 250.19 169.342 250.227C169.314 250.265 169.294 250.307 169.283 250.353C169.272 250.398 169.27 250.445 169.278 250.491Z" fill="#FE6D00"/>
<path d="M168.158 253.859C168.164 253.904 168.179 253.946 168.202 253.985C168.224 254.024 168.255 254.057 168.291 254.084C168.327 254.11 168.368 254.13 168.411 254.14C168.455 254.151 168.5 254.153 168.544 254.146L171.103 253.722C171.296 253.461 171.477 253.199 171.651 252.932L168.432 253.467C168.388 253.475 168.346 253.491 168.308 253.515C168.271 253.538 168.238 253.569 168.213 253.606C168.187 253.642 168.169 253.684 168.16 253.727C168.151 253.771 168.15 253.816 168.158 253.859Z" fill="#FE6D00"/>
<path d="M171.321 242.223C172.703 250.566 167.237 258.412 159.117 259.763C150.998 261.114 143.284 255.442 141.901 247.086C140.519 238.73 145.98 230.897 154.105 229.546C162.231 228.195 169.939 233.886 171.321 242.223Z" fill="#FEB882"/>
<path d="M162.661 244.676C163.127 245.356 163.442 246.128 163.586 246.94C163.73 247.752 163.699 248.585 163.495 249.383C163.239 250.167 162.814 250.885 162.249 251.486C161.684 252.086 160.993 252.555 160.226 252.858C160.338 253.568 160.444 254.277 160.55 254.987C160.55 255.093 160.5 255.143 160.401 255.155L159.018 255.33C158.875 255.33 158.651 255.255 158.626 255.087L158.383 253.487C158.051 253.561 157.727 253.624 157.412 253.673L157.194 253.705L156.901 253.736C156.982 254.284 157.069 254.831 157.15 255.379C157.168 255.426 157.168 255.476 157.15 255.523C157.136 255.549 157.115 255.571 157.088 255.585C157.063 255.604 157.032 255.614 157.001 255.616L155.619 255.803C155.542 255.804 155.468 255.782 155.405 255.738C155.342 255.694 155.295 255.632 155.27 255.56C155.183 254.968 155.089 254.383 155.002 253.792C153.969 253.738 152.964 253.433 152.076 252.901C150.364 251.843 149.585 250.268 149.23 248.312C149.199 248.151 149.529 247.976 149.654 247.958L151.802 247.709C151.924 248.46 152.242 249.167 152.722 249.758C153.203 250.349 153.83 250.804 154.542 251.077L153.67 245L153.303 244.963C151.964 244.807 150.575 244.458 149.648 243.344C149.157 242.668 148.83 241.887 148.691 241.064C148.552 240.24 148.605 239.395 148.846 238.596C149.087 237.796 149.51 237.063 150.081 236.453C150.652 235.844 151.356 235.374 152.138 235.081C152.039 234.459 151.945 233.786 151.846 233.139C151.846 232.977 151.914 232.908 152.051 232.89L153.402 232.715C153.478 232.715 153.553 232.738 153.615 232.781C153.678 232.825 153.725 232.887 153.751 232.958L153.994 234.552L154.442 234.484C154.635 234.484 154.834 234.44 155.027 234.428H155.488L155.226 232.69C155.226 232.578 155.326 232.529 155.413 232.516L156.758 232.342C156.895 232.342 157.126 232.423 157.15 232.591C157.25 233.263 157.356 233.936 157.456 234.608C158.614 234.828 159.673 235.411 160.478 236.273C161.283 237.135 161.793 238.231 161.932 239.403C161.932 239.508 161.77 239.627 161.621 239.695C161.584 239.719 161.544 239.738 161.503 239.751L159.311 240.031C159.123 239.136 158.638 238.331 157.935 237.746C158.184 239.407 158.437 241.067 158.695 242.727H158.85C159.585 242.773 160.303 242.97 160.958 243.305C161.614 243.64 162.194 244.107 162.661 244.676ZM158.028 251.152L157.15 245.361L156.322 245.286L155.606 245.212C155.918 247.248 156.229 249.29 156.534 251.326C156.808 251.326 157.101 251.295 157.399 251.258C157.605 251.226 157.817 251.195 158.022 251.152H158.028ZM156.715 242.522C156.428 240.654 156.148 238.786 155.862 236.918C155.394 236.859 154.922 236.859 154.454 236.918H154.342C154.622 238.73 154.896 240.548 155.17 242.36C155.687 242.416 156.198 242.466 156.715 242.509V242.522ZM153.197 242.086C152.973 240.598 152.748 239.116 152.518 237.628C152.001 237.959 151.621 238.466 151.447 239.055C151.273 239.644 151.317 240.276 151.572 240.835C151.722 241.158 151.948 241.44 152.231 241.657C152.514 241.874 152.845 242.019 153.197 242.08V242.086ZM160.793 249.184C160.915 248.85 160.969 248.494 160.951 248.138C160.934 247.783 160.846 247.434 160.692 247.113C160.539 246.792 160.322 246.504 160.056 246.268C159.79 246.031 159.48 245.85 159.143 245.735L159.853 250.411C160.299 250.115 160.631 249.676 160.793 249.165" fill="#FE8B33"/>
<defs>
<linearGradient id="paint0_linear" x1="103.148" y1="41.3156" x2="96.6601" y2="278.697" gradientUnits="userSpaceOnUse">
<stop stop-color="#F9F8FA"/>
<stop offset="0.25" stop-color="#EAE8EF"/>
<stop offset="1" stop-color="#D8D6E2"/>
</linearGradient>
</defs>
</svg>
