<svg width="350" height="351" viewBox="0 0 350 351" fill="none" xmlns="http://www.w3.org/2000/svg">
<path d="M27.8781 277.378C80.4421 377.32 235.633 338.401 293.964 266.396C317.127 237.812 331.179 202.076 334.206 165.438C337.294 127.944 339.047 85.0177 316.208 52.8188C293.995 23.4175 255.213 -1.82215 227.75 24.2267C191.955 60.2712 166.754 106.073 109.681 108.724C99.6357 111.847 89.9162 115.933 80.6583 120.924C23.5234 151.689 -3.33765 213.019 25.9864 273.594C26.5938 274.894 27.2243 276.156 27.8781 277.378Z" fill="white"/>
<g opacity="0.5">
<g style="mix-blend-mode:multiply" opacity="0.5">
<path d="M227.148 258.353C251.947 258.353 272.05 255.724 272.05 252.48C272.05 249.237 251.947 246.607 227.148 246.607C202.35 246.607 182.247 249.237 182.247 252.48C182.247 255.724 202.35 258.353 227.148 258.353Z" fill="#C7BBD5"/>
</g>
</g>
<path d="M244.78 195.537L228.425 195.158C226.983 195.123 227.876 196.861 229 196.9L245.351 197.279C246.798 197.314 245.905 195.576 244.78 195.537Z" fill="#5A3983"/>
<path d="M247.817 184.871L230.307 184.466C229.252 184.444 228.529 186.535 229.684 186.562L247.194 186.971C248.248 186.971 248.971 184.897 247.817 184.871Z" fill="#5A3983"/>
<path d="M241.796 216.066L225.022 215.678C223.95 215.652 224.234 217.856 225.349 217.878L242.123 218.266C243.194 218.288 242.911 216.088 241.796 216.066Z" fill="#5A3983"/>
<path d="M243.961 205.854L227.196 205.466C226.037 205.436 225.453 207.231 226.891 207.261L243.652 207.649C244.815 207.675 245.394 205.884 243.961 205.854Z" fill="#5A3983"/>
<path d="M237.303 237.14L221.275 236.77C219.885 236.739 219.946 238.404 221.323 238.439L237.351 238.809C238.741 238.839 238.68 237.175 237.303 237.14Z" fill="#5A3983"/>
<path d="M239.722 226.631L223.349 226.252C222.268 226.226 221.523 228.134 222.913 228.165L239.29 228.544C240.366 228.57 241.111 226.666 239.726 226.631H239.722Z" fill="#5A3983"/>
<path d="M249.347 168.35C247.639 177.979 245.929 187.606 244.219 197.232C241.514 212.498 238.806 227.763 236.093 243.026C235.472 246.552 234.846 250.077 234.215 253.6C233.963 255.038 235.71 254.715 235.928 253.496L241.051 224.61C243.761 209.346 246.47 194.082 249.177 178.815C249.819 175.292 250.444 171.77 251.054 168.25C251.307 166.812 249.564 167.135 249.347 168.359V168.35Z" fill="#5A3983"/>
<path d="M232.324 168.315L227.201 197.197C224.485 212.463 221.776 227.728 219.075 242.991C218.448 246.514 217.822 250.04 217.197 253.569C216.945 254.994 218.805 254.41 219.001 253.299L224.125 224.418L232.276 178.623C232.901 175.094 233.525 171.568 234.15 168.045C234.402 166.62 232.546 167.204 232.346 168.315H232.324Z" fill="#5A3983"/>
<path d="M238.118 196.909L254.386 196.53C255.462 196.508 256.181 194.578 254.796 194.613L238.528 194.987C237.451 195.014 236.733 196.939 238.118 196.909Z" fill="#6F5293"/>
<path d="M236.316 186.374L252.898 185.991C254.144 185.96 254.675 184.274 253.216 184.309L236.634 184.693C235.388 184.719 234.856 186.409 236.316 186.374Z" fill="#6F5293"/>
<path d="M241.748 217.787L258.33 217.403C259.371 217.377 260.164 215.356 258.892 215.386L242.31 215.769C241.269 215.791 240.476 217.817 241.748 217.787Z" fill="#6F5293"/>
<path d="M239.948 207.317L256.395 206.938C257.471 206.912 258.225 204.995 256.831 205.026L240.379 205.405C239.308 205.431 238.55 207.352 239.944 207.317H239.948Z" fill="#6F5293"/>
<path d="M245.783 238.439L262.443 238.055C263.833 238.021 263.676 236.361 262.304 236.391L245.643 236.779C244.249 236.809 244.406 238.469 245.783 238.439Z" fill="#6F5293"/>
<path d="M244.039 228.034L260.456 227.655C261.911 227.62 261.423 225.943 260.159 225.969L243.738 226.352C242.283 226.383 242.771 228.065 244.039 228.034Z" fill="#6F5293"/>
<path d="M232.276 168.201L237.4 197.083C240.11 212.349 242.818 227.614 245.525 242.877C246.153 246.406 246.779 249.932 247.403 253.456C247.595 254.532 249.747 253.983 249.551 252.885L244.427 224.017L236.298 178.205C235.676 174.679 235.05 171.154 234.42 167.631C234.233 166.555 232.08 167.104 232.276 168.201Z" fill="#6F5293"/>
<path d="M249.49 167.88C251.198 177.508 252.907 187.135 254.618 196.761C257.325 212.027 260.034 227.292 262.744 242.555C263.371 246.079 263.997 249.603 264.621 253.129C264.857 254.471 266.525 254.354 266.281 252.977C264.571 243.351 262.861 233.724 261.153 224.096C258.443 208.832 255.735 193.567 253.028 178.301C252.401 174.778 251.775 171.253 251.15 167.727C250.91 166.385 249.246 166.503 249.49 167.88Z" fill="#6F5293"/>
<path d="M190.603 251.4C190.451 251.701 190.342 252.062 190.786 251.945C191.44 251.77 192.564 250.864 192.686 250.241C193 250.491 193.26 250.8 193.453 251.152C193.575 251.361 191.274 252.929 190.459 253.409C190.292 253.506 190.1 253.555 189.907 253.551C189.713 253.546 189.524 253.488 189.361 253.382C188.83 252.773 190.342 251.688 190.603 251.4Z" fill="#3D166D"/>
<path d="M190.786 251.945C190.35 252.062 190.45 251.701 190.603 251.4C191.017 250.964 191.374 250.585 191.444 250.489C191.622 250.232 192.363 248.873 192.363 248.873L192.668 249.243C192.623 249.574 192.623 249.91 192.668 250.241C192.563 250.864 191.439 251.77 190.786 251.945Z" fill="#B2A2C5"/>
<path d="M209.333 250.446C209.307 250.781 209.211 251.147 208.897 250.812C208.426 250.324 207.938 248.965 208.156 248.372C207.761 248.421 207.378 248.549 207.032 248.747C206.819 248.864 207.956 251.396 208.413 252.232C208.51 252.397 208.648 252.534 208.814 252.629C208.98 252.724 209.168 252.773 209.359 252.772C210.213 252.616 209.402 250.825 209.333 250.446Z" fill="#3D166D"/>
<path d="M208.893 250.812C209.211 251.148 209.307 250.782 209.329 250.446C209.211 249.845 209.089 249.348 209.085 249.226C209.085 248.917 209.137 247.37 209.137 247.37L208.701 247.527C208.701 247.527 208.266 248.363 208.166 248.372C207.935 248.965 208.423 250.324 208.893 250.812Z" fill="#B2A2C5"/>
<path d="M201.652 192.596C201.652 192.735 199.474 196.36 198.01 199.972C195.291 206.607 192.32 242.926 191.867 249.77C191.823 250.459 193.571 249.509 193.645 249.265L207.704 206.337L208.536 247.814L209.66 248.21C209.66 248.21 214.967 232.866 216.039 220.697C218.143 196.922 212.497 196.003 212.178 194.06C210.928 194.613 204.04 193.737 201.652 192.596Z" fill="#3D166D"/>
<path d="M192.686 249.879C193.05 249.755 193.379 249.544 193.644 249.265L207.703 206.337L208.536 247.814L209.66 248.21C209.66 248.21 214.966 232.866 216.038 220.697C218.142 196.922 212.496 196.003 212.178 194.059C211.368 194.417 208.183 194.173 205.39 193.646C203.883 193.362 192.254 250.053 192.686 249.879Z" fill="#2E0562"/>
<path d="M207.071 180.732H207.137C210.378 180.432 213.99 180.684 215.924 181.246C216.16 181.316 216.36 184.536 216.36 184.536C216.308 188.671 214.391 193.65 213.11 195.428C212.831 195.811 210.749 195.933 208.496 195.768C205.529 195.541 202.144 194.853 200.933 193.96C201.19 193.158 202.362 189.093 202.492 185.682C202.593 183.124 203.46 180.928 207.071 180.732Z" fill="#FFDBBF"/>
<path d="M210.343 180.598H210.727C212.478 180.604 214.223 180.817 215.924 181.234C216.16 181.303 216.36 184.523 216.36 184.523C216.308 188.658 214.391 193.638 213.11 195.415C212.849 195.777 210.979 195.908 208.875 195.777L208.496 195.755C210.047 192.934 211.021 189.833 211.363 186.632C211.48 185.107 210.343 180.598 210.343 180.598Z" fill="#FFC091"/>
<path d="M211.999 174.633C211.999 174.633 211.211 170.938 209.067 170.189C206.923 169.44 202.362 176.167 203.957 176.162C204.34 176.162 205.207 175.247 205.468 175.914C205.73 176.581 205.978 178.667 207.128 179.273C208.278 179.879 210.06 179.988 211.18 178.541C212.3 177.095 211.999 174.633 211.999 174.633Z" fill="#3D166D"/>
<path d="M209.067 170.189C208.772 170.154 208.474 170.184 208.191 170.274C207.908 170.365 207.649 170.516 207.429 170.716C206.952 171.069 206.514 171.472 206.122 171.918C205.319 172.795 204.639 173.777 204.1 174.838C203.969 175.09 203.871 175.358 203.809 175.635C203.775 175.735 203.775 175.844 203.809 175.944C203.837 175.971 203.872 175.988 203.91 175.993C203.949 175.999 203.988 175.992 204.022 175.975C204.266 175.883 204.519 175.687 204.832 175.574C204.925 175.531 205.026 175.513 205.128 175.52C205.229 175.528 205.327 175.561 205.412 175.617C205.485 175.687 205.542 175.772 205.577 175.866C205.604 175.944 205.63 176.023 205.647 176.097C205.771 176.685 205.927 177.267 206.113 177.839C206.272 178.416 206.619 178.924 207.098 179.282C206.564 178.973 206.157 178.485 205.948 177.905C205.728 177.341 205.537 176.767 205.377 176.184C205.277 175.465 204.715 176.049 204.135 176.293C204.034 176.338 203.92 176.348 203.811 176.323C203.703 176.298 203.606 176.239 203.534 176.153C203.436 175.982 203.406 175.779 203.451 175.587C203.514 175.275 203.618 174.974 203.761 174.689C204.327 173.602 205.054 172.606 205.917 171.735C206.345 171.3 206.818 170.912 207.329 170.577C207.591 170.415 207.872 170.286 208.165 170.193C208.457 170.089 208.775 170.088 209.067 170.189Z" fill="#795F9A"/>
<path d="M214.479 161.602C214.428 161.572 214.387 161.528 214.362 161.473C214.338 161.419 214.332 161.359 214.344 161.301C214.414 160.996 214.544 160.495 214.714 159.937C214.829 159.62 214.999 159.325 215.215 159.066C215.401 158.871 215.629 158.722 215.882 158.63C216.17 158.521 216.143 158.757 216.143 158.757C216.143 158.757 216.409 158.652 216.396 158.844C216.383 159.036 215.651 160.003 215.655 160.43C215.655 160.43 216.17 160.046 216.265 160.19C216.361 160.334 215.756 161.175 215.446 161.297C215.3 161.418 215.164 161.552 215.041 161.698C214.963 161.789 214.671 161.715 214.479 161.602Z" fill="#B2A2C5"/>
<path d="M224.952 159.344C225.011 159.345 225.068 159.327 225.116 159.292C225.164 159.258 225.2 159.209 225.217 159.152C225.318 158.856 225.461 158.359 225.597 157.793C225.658 157.462 225.658 157.122 225.597 156.791C225.543 156.523 225.427 156.272 225.257 156.059C225.065 155.815 224.969 156.033 224.969 156.033C224.969 156.033 224.79 155.806 224.708 155.976C224.625 156.146 224.751 157.353 224.533 157.719C224.533 157.719 224.285 157.126 224.128 157.201C223.971 157.275 224.063 158.307 224.263 158.569C224.328 158.75 224.376 158.936 224.407 159.126C224.433 159.257 224.729 159.335 224.952 159.344Z" fill="#B2A2C5"/>
<path d="M218.13 175.996C217.808 175.443 217.233 176.833 217.259 175.944C217.315 172.158 220.348 164.364 222.635 160.124C222.771 159.87 222.958 159.646 223.185 159.467C223.412 159.288 223.673 159.157 223.952 159.084C224.232 159.011 224.523 158.996 224.809 159.041C225.094 159.086 225.367 159.189 225.611 159.344L225.654 159.371C228.456 161.174 227.027 163.636 226.16 165.688C225.293 167.74 221.733 173.443 221.733 173.443C221.733 173.443 220.143 176.493 219.463 177.438C218.784 178.384 218.888 177.312 218.13 175.996Z" fill="#FFC091"/>
<path d="M216.191 182.958C216.347 182.81 216.492 182.651 216.627 182.484C217.982 181.011 220.801 175.513 220.984 172.559C221.228 168.72 217.633 173.025 217.633 173.025C217.633 173.025 215.821 178.401 213.276 180.771C212.575 181.438 214.727 184.344 216.191 182.958Z" fill="#FFC091"/>
<path d="M210.091 178.014C210.091 178.014 209.621 180.711 209.747 181.024C209.873 181.338 210.388 181.769 210.736 181.107C211.085 180.445 210.928 178.057 210.928 178.057L210.091 178.014Z" fill="#B2A2C5"/>
<path d="M209.795 179.982C209.943 180.126 210.132 180.221 210.336 180.252C210.539 180.283 210.748 180.25 210.932 180.157C210.965 179.667 210.972 179.175 210.954 178.684L209.991 178.632C209.93 179.02 209.852 179.529 209.795 179.982Z" fill="#7D649E"/>
<path d="M212.047 177.461C212.047 176.994 211.102 175.578 211.102 175.578C210.204 174.707 208.143 176.384 207.917 176.807C207.69 177.23 207.96 177.84 208.17 178.262C208.444 178.791 208.849 179.241 209.346 179.569C209.871 179.743 210.443 179.71 210.945 179.478C212.073 178.859 212.235 178.389 212.047 177.461Z" fill="#B2A2C5"/>
<path d="M208.466 171.483C208.312 171.636 208.167 171.798 208.03 171.967C206.701 173.461 203.268 179.591 202.772 182.497C201.704 188.753 206.667 181.294 206.667 181.294L209.62 174.594C210.348 173.914 209.908 170.071 208.466 171.483Z" fill="#FFDBBF"/>
<path d="M205.943 175.116C205.865 174.471 210.636 164.376 213.746 161.174C213.746 161.174 214.182 161.03 215.441 162.045C217.99 164.154 216.291 166.215 215.202 167.984C214.112 169.753 209.538 174.828 209.538 174.828C209.538 174.828 206.288 177.834 205.943 175.116Z" fill="#FFDBBF"/>
<path d="M209.385 182.192C209.385 182.192 209.512 183.094 209.729 183.273C209.827 183.33 209.935 183.367 210.048 183.38C210.16 183.394 210.275 183.384 210.383 183.351C210.684 183.185 210.975 182.118 210.975 182.118C210.975 182.118 210.3 181.425 209.76 181.512C209.22 181.6 209.385 182.192 209.385 182.192Z" fill="#866EA4"/>
<path d="M210.017 182.767L207.59 193.737L209.381 195.336L210.975 194.16L210.195 182.771L210.017 182.767Z" fill="#866EA4"/>
<path d="M210.928 180.41C210.892 180.665 210.806 180.911 210.675 181.133C210.53 181.247 210.364 181.332 210.188 181.386L210.623 183.464C210.623 183.464 211.281 182.593 211.447 182.31C211.51 182.188 211.564 182.061 211.608 181.931C211.688 181.705 211.692 181.459 211.619 181.23C211.546 181.002 211.399 180.804 211.203 180.667L210.928 180.41Z" fill="#FFC091"/>
<path d="M210.379 181.491L209.408 183.233C208.939 182.667 208.708 181.941 208.763 181.207C208.776 180.981 208.843 180.762 208.959 180.567C209.207 180.448 209.474 180.373 209.748 180.345C209.724 180.576 209.772 180.809 209.885 181.013C209.998 181.216 210.17 181.38 210.379 181.482" fill="#FFC091"/>
<path d="M130.465 114.096C132.414 105.838 127.3 97.5643 119.042 95.6154C110.785 93.6665 102.511 98.7805 100.562 107.038C98.6131 115.295 103.727 123.569 111.985 125.518C120.242 127.467 128.516 122.353 130.465 114.096Z" fill="#6F5293"/>
<path d="M130.88 128.054C130.882 130.878 130.046 133.638 128.479 135.986C126.911 138.335 124.683 140.165 122.075 141.247C119.467 142.329 116.597 142.612 113.828 142.063C111.059 141.513 108.514 140.154 106.518 138.159C104.521 136.163 103.16 133.62 102.609 130.851C102.057 128.082 102.34 125.212 103.42 122.603C104.5 119.994 106.329 117.765 108.676 116.196C111.024 114.627 113.784 113.79 116.607 113.79C120.39 113.791 124.019 115.294 126.695 117.969C129.371 120.643 130.876 124.271 130.88 128.054Z" fill="#6F5293"/>
<path d="M146.133 161.062C146.131 162.309 145.76 163.528 145.066 164.564C144.371 165.6 143.385 166.408 142.232 166.884C141.08 167.36 139.811 167.484 138.588 167.239C137.365 166.995 136.242 166.393 135.36 165.511C134.479 164.628 133.879 163.504 133.636 162.28C133.393 161.057 133.519 159.789 133.997 158.637C134.474 157.484 135.283 156.5 136.32 155.807C137.358 155.114 138.577 154.744 139.824 154.744C140.653 154.745 141.474 154.909 142.24 155.226C143.006 155.544 143.701 156.01 144.287 156.596C144.873 157.183 145.337 157.879 145.654 158.645C145.971 159.411 146.134 160.232 146.133 161.062Z" fill="#5A3983"/>
<path d="M126.841 158.878C126.84 160.127 126.469 161.346 125.775 162.384C125.08 163.421 124.094 164.229 122.94 164.705C121.787 165.182 120.518 165.305 119.294 165.06C118.07 164.815 116.947 164.213 116.065 163.329C115.184 162.445 114.585 161.32 114.343 160.095C114.101 158.871 114.228 157.602 114.708 156.45C115.188 155.298 115.998 154.313 117.037 153.622C118.076 152.931 119.297 152.563 120.545 152.565C121.373 152.567 122.193 152.731 122.957 153.049C123.722 153.367 124.416 153.832 125.001 154.418C125.585 155.004 126.049 155.7 126.364 156.465C126.68 157.231 126.842 158.051 126.841 158.878Z" fill="#5A3983"/>
<path d="M166.749 161.204C166.75 162.629 166.329 164.022 165.538 165.207C164.747 166.392 163.622 167.315 162.307 167.861C160.991 168.407 159.542 168.55 158.145 168.273C156.748 167.995 155.464 167.31 154.457 166.303C153.449 165.296 152.763 164.012 152.484 162.615C152.206 161.218 152.349 159.77 152.893 158.454C153.438 157.137 154.362 156.012 155.546 155.221C156.73 154.429 158.123 154.007 159.548 154.007C161.457 154.007 163.288 154.765 164.638 156.115C165.989 157.464 166.748 159.295 166.749 161.204Z" fill="#5A3983"/>
<path d="M177.541 162.098C177.542 163.523 177.12 164.916 176.329 166.101C175.538 167.286 174.414 168.209 173.098 168.755C171.781 169.301 170.333 169.444 168.936 169.166C167.538 168.888 166.255 168.202 165.247 167.195C164.24 166.187 163.554 164.904 163.276 163.506C162.998 162.109 163.141 160.66 163.687 159.344C164.232 158.028 165.156 156.903 166.341 156.112C167.526 155.321 168.919 154.9 170.344 154.9C172.252 154.902 174.082 155.66 175.432 157.01C176.781 158.359 177.54 160.189 177.541 162.098Z" fill="#5A3983"/>
<path d="M198.355 162.571C203.772 157.153 203.772 148.37 198.355 142.953C192.938 137.535 184.154 137.535 178.737 142.953C173.319 148.37 173.319 157.153 178.737 162.571C184.154 167.988 192.938 167.988 198.355 162.571Z" fill="#5A3983"/>
<path d="M150.373 171.857C156.668 171.857 161.77 166.755 161.77 160.46C161.77 154.165 156.668 149.062 150.373 149.062C144.078 149.062 138.976 154.165 138.976 160.46C138.976 166.755 144.078 171.857 150.373 171.857Z" fill="#5A3983"/>
<path d="M190.977 163.933C191.986 157.72 187.766 151.866 181.553 150.857C175.34 149.849 169.485 154.068 168.477 160.281C167.468 166.494 171.687 172.349 177.901 173.357C184.114 174.366 189.968 170.147 190.977 163.933Z" fill="#5A3983"/>
<path d="M144.913 158.726C144.915 160.98 144.248 163.185 142.996 165.06C141.745 166.936 139.966 168.398 137.883 169.262C135.801 170.126 133.509 170.353 131.297 169.914C129.086 169.475 127.054 168.39 125.459 166.797C123.865 165.203 122.778 163.172 122.338 160.961C121.897 158.75 122.123 156.458 122.985 154.375C123.847 152.292 125.308 150.511 127.183 149.258C129.057 148.006 131.261 147.337 133.516 147.337C136.537 147.337 139.435 148.537 141.572 150.672C143.709 152.808 144.911 155.704 144.913 158.726Z" fill="#5A3983"/>
<path d="M204.855 140.336C204.855 142.164 204.314 143.952 203.298 145.473C202.283 146.995 200.839 148.18 199.149 148.88C197.46 149.581 195.601 149.764 193.807 149.408C192.013 149.051 190.365 148.17 189.072 146.877C187.779 145.584 186.898 143.936 186.542 142.142C186.185 140.349 186.369 138.489 187.069 136.8C187.769 135.11 188.955 133.667 190.476 132.651C191.997 131.635 193.785 131.094 195.614 131.095C198.064 131.096 200.414 132.07 202.147 133.803C203.879 135.535 204.853 137.885 204.855 140.336Z" fill="#6F5293"/>
<path d="M213.829 130.951C213.829 133.848 212.971 136.679 211.362 139.087C209.753 141.496 207.467 143.373 204.791 144.482C202.116 145.591 199.171 145.883 196.331 145.319C193.49 144.755 190.88 143.362 188.831 141.315C186.781 139.268 185.385 136.66 184.818 133.82C184.251 130.979 184.538 128.035 185.644 125.358C186.75 122.681 188.625 120.392 191.031 118.781C193.438 117.169 196.268 116.307 199.164 116.304C201.089 116.301 202.996 116.679 204.775 117.414C206.554 118.149 208.171 119.227 209.533 120.588C210.895 121.948 211.976 123.564 212.713 125.342C213.45 127.12 213.829 129.026 213.829 130.951Z" fill="#6F5293"/>
<path d="M209.618 112.759C210.553 106.999 206.642 101.572 200.882 100.637C195.122 99.7021 189.695 103.613 188.76 109.373C187.825 115.133 191.737 120.56 197.496 121.495C203.256 122.43 208.683 118.518 209.618 112.759Z" fill="#6F5293"/>
<path d="M202.423 93.8925C202.423 101.774 196.324 108.165 188.835 108.165C181.345 108.165 175.25 101.774 175.25 93.8925C175.25 86.011 181.35 79.6152 188.835 79.6152C196.32 79.6152 202.423 86.0067 202.423 93.8925Z" fill="#6F5293"/>
<path d="M183.563 82.1112C183.563 83.3529 183.195 84.5667 182.505 85.5991C181.815 86.6316 180.835 87.4363 179.688 87.9115C178.54 88.3866 177.278 88.511 176.06 88.2687C174.842 88.0265 173.724 87.4285 172.846 86.5505C171.968 85.6725 171.37 84.5538 171.127 83.336C170.885 82.1181 171.01 80.8558 171.485 79.7086C171.96 78.5614 172.765 77.5809 173.797 76.8911C174.829 76.2012 176.043 75.833 177.285 75.833C178.95 75.833 180.547 76.4945 181.724 77.6718C182.902 78.8492 183.563 80.4461 183.563 82.1112Z" fill="#6F5293"/>
<path d="M157.766 98.763C166.789 98.763 174.104 91.4482 174.104 82.425C174.104 73.4017 166.789 66.0869 157.766 66.0869C148.743 66.0869 141.428 73.4017 141.428 82.425C141.428 91.4482 148.743 98.763 157.766 98.763Z" fill="#6F5293"/>
<path d="M132.601 101.857C142.415 101.857 150.372 94.6201 150.372 85.6931C150.372 76.7661 142.415 69.5293 132.601 69.5293C122.786 69.5293 114.829 76.7661 114.829 85.6931C114.829 94.6201 122.786 101.857 132.601 101.857Z" fill="#6F5293"/>
<path d="M116.776 101.055C120.448 101.055 123.425 98.0782 123.425 94.4063C123.425 90.7344 120.448 87.7578 116.776 87.7578C113.105 87.7578 110.128 90.7344 110.128 94.4063C110.128 98.0782 113.105 101.055 116.776 101.055Z" fill="#6F5293"/>
<path d="M132.601 88.3848L119.988 116.303V137.399L132.828 156.085L154.499 148.818L174.845 154.931L188.835 156.085L200.703 126.964L197.605 99.6776L166.536 91.6524L132.601 88.3848Z" fill="#6F5293"/>
<path d="M155.884 186.034C157.099 183.364 158.358 180.763 159.648 178.157C160.938 175.552 162.262 172.977 163.652 170.428C165.042 167.88 166.458 165.348 167.987 162.882C169.482 160.399 171.128 158.01 172.915 155.729C171.386 158.171 170.01 160.706 168.793 163.318C167.543 165.91 166.406 168.546 165.308 171.217C164.21 173.888 163.168 176.558 162.171 179.251C161.173 181.943 160.197 184.662 159.3 187.363L155.884 186.034Z" fill="#3D166D"/>
<path d="M161.26 152.073H153.923V207.806H161.26V152.073Z" fill="#3D166D"/>
<path d="M196.629 149.576C196.63 151.249 196.135 152.884 195.206 154.276C194.277 155.667 192.957 156.751 191.412 157.392C189.866 158.033 188.166 158.201 186.525 157.875C184.885 157.549 183.377 156.744 182.194 155.562C181.011 154.379 180.205 152.873 179.879 151.232C179.552 149.591 179.719 147.891 180.359 146.345C180.999 144.8 182.083 143.479 183.474 142.55C184.864 141.62 186.5 141.124 188.172 141.124C190.414 141.124 192.565 142.014 194.151 143.599C195.736 145.184 196.628 147.334 196.629 149.576Z" fill="#6F5293"/>
<path d="M173.76 99.5822C178.428 99.5822 182.212 95.798 182.212 91.13C182.212 86.4619 178.428 82.6777 173.76 82.6777C169.092 82.6777 165.308 86.4619 165.308 91.13C165.308 95.798 169.092 99.5822 173.76 99.5822Z" fill="#6F5293"/>
<path d="M132.827 144.448C132.828 147.091 132.045 149.674 130.578 151.871C129.11 154.069 127.024 155.781 124.583 156.793C122.142 157.805 119.456 158.07 116.864 157.554C114.273 157.039 111.892 155.767 110.024 153.898C108.155 152.03 106.883 149.649 106.368 147.058C105.853 144.466 106.117 141.78 107.129 139.339C108.141 136.898 109.853 134.812 112.051 133.344C114.248 131.877 116.831 131.094 119.474 131.095C121.227 131.095 122.964 131.44 124.584 132.111C126.204 132.782 127.676 133.766 128.916 135.006C130.156 136.246 131.14 137.718 131.811 139.338C132.482 140.958 132.827 142.695 132.827 144.448Z" fill="#6F5293"/>
<path d="M156.079 171.382C154.419 169.831 152.642 168.293 150.851 166.816C149.061 165.339 147.231 163.897 145.349 162.533C143.477 161.154 141.533 159.877 139.524 158.708C137.524 157.503 135.387 156.542 133.158 155.846C135.489 156.251 137.762 156.936 139.929 157.885C142.117 158.801 144.253 159.835 146.329 160.982C148.411 162.111 150.455 163.318 152.463 164.585C154.472 165.853 156.437 167.147 158.406 168.559L156.079 171.382Z" fill="#3D166D"/>
<path d="M139.824 153.646C139.825 155.318 139.33 156.954 138.401 158.345C137.473 159.736 136.152 160.821 134.607 161.462C133.062 162.102 131.361 162.27 129.721 161.945C128.08 161.619 126.573 160.814 125.39 159.631C124.206 158.449 123.401 156.942 123.074 155.301C122.747 153.661 122.915 151.96 123.554 150.415C124.194 148.869 125.278 147.548 126.669 146.619C128.06 145.689 129.695 145.193 131.368 145.193C132.478 145.193 133.578 145.411 134.604 145.835C135.63 146.26 136.562 146.883 137.347 147.667C138.132 148.452 138.755 149.384 139.18 150.41C139.606 151.436 139.824 152.535 139.824 153.646Z" fill="#6F5293"/>
<path d="M145.957 152.944C146.757 149.553 144.657 146.155 141.266 145.355C137.875 144.554 134.477 146.655 133.677 150.046C132.876 153.437 134.976 156.834 138.367 157.635C141.758 158.435 145.156 156.335 145.957 152.944Z" fill="#6F5293"/>
<path d="M164.157 169.614C164.51 169.614 164.959 169.587 165.364 169.557C165.769 169.526 166.205 169.478 166.623 169.426C167.466 169.322 168.302 169.176 169.133 168.991C170.799 168.638 172.424 168.114 173.982 167.426C174.759 167.074 175.511 166.671 176.234 166.22C176.957 165.757 177.642 165.237 178.282 164.664C178.923 164.077 179.506 163.431 180.025 162.734C180.537 162.019 180.975 161.254 181.332 160.451C181.093 161.312 180.769 162.147 180.365 162.943C179.942 163.746 179.443 164.506 178.875 165.213C178.293 165.92 177.655 166.579 176.966 167.182C176.268 167.78 175.532 168.332 174.762 168.834C173.206 169.827 171.55 170.654 169.821 171.3C168.95 171.628 168.078 171.918 167.207 172.171C166.771 172.297 166.309 172.415 165.856 172.524C165.403 172.633 164.985 172.724 164.436 172.807L164.157 169.614Z" fill="#3D166D"/>
<path d="M148.055 164.024C148.133 163.613 148.19 163.198 148.225 162.782C148.264 162.346 148.281 161.91 148.29 161.475C148.302 160.586 148.251 159.698 148.137 158.817C148.024 157.923 147.83 157.041 147.558 156.181C147.281 155.305 146.916 154.458 146.469 153.654C147.116 154.339 147.69 155.09 148.181 155.894C148.686 156.71 149.116 157.57 149.466 158.464C149.823 159.367 150.114 160.295 150.338 161.24C150.447 161.719 150.547 162.198 150.625 162.686C150.711 163.192 150.769 163.703 150.799 164.215L148.055 164.024Z" fill="#3D166D"/>
<path d="M159.622 163.653C160.014 163.47 160.394 163.262 160.759 163.03C161.147 162.795 161.522 162.538 161.888 162.263C162.624 161.713 163.308 161.097 163.931 160.42C164.554 159.729 165.083 158.958 165.504 158.129C165.927 157.27 166.21 156.35 166.34 155.401C166.438 156.391 166.375 157.39 166.153 158.36C165.912 159.351 165.545 160.307 165.059 161.205C164.562 162.107 163.978 162.959 163.317 163.749C162.988 164.151 162.639 164.537 162.271 164.904C161.894 165.292 161.493 165.656 161.069 165.993L159.622 163.653Z" fill="#3D166D"/>
<path d="M174.675 152.073C174.675 153.433 174.271 154.763 173.515 155.895C172.76 157.026 171.685 157.908 170.428 158.429C169.171 158.949 167.788 159.085 166.453 158.82C165.119 158.555 163.893 157.899 162.931 156.937C161.969 155.975 161.314 154.749 161.048 153.415C160.783 152.08 160.919 150.697 161.44 149.44C161.96 148.183 162.842 147.109 163.973 146.353C165.105 145.597 166.435 145.193 167.795 145.193C168.699 145.193 169.593 145.371 170.428 145.717C171.263 146.063 172.021 146.569 172.66 147.208C173.299 147.847 173.805 148.605 174.151 149.44C174.497 150.275 174.675 151.169 174.675 152.073Z" fill="#6F5293"/>
<path d="M185.454 155.401C185.454 156.966 184.99 158.496 184.12 159.797C183.251 161.098 182.015 162.112 180.57 162.711C179.124 163.31 177.533 163.466 175.998 163.161C174.464 162.856 173.054 162.102 171.947 160.996C170.841 159.889 170.087 158.48 169.782 156.945C169.477 155.41 169.633 153.819 170.232 152.373C170.831 150.928 171.845 149.692 173.146 148.823C174.447 147.953 175.977 147.489 177.542 147.489C179.64 147.489 181.653 148.323 183.136 149.807C184.62 151.29 185.454 153.303 185.454 155.401Z" fill="#6F5293"/>
<path d="M165.577 147.633C166.043 141.063 161.096 135.36 154.527 134.894C147.957 134.427 142.254 139.375 141.788 145.944C141.321 152.513 146.269 158.217 152.838 158.683C159.407 159.149 165.111 154.202 165.577 147.633Z" fill="#6F5293"/>
<path d="M139.825 153.646C139.868 154.406 139.803 155.169 139.633 155.912C139.597 156.107 139.545 156.3 139.476 156.487L139.302 157.036C139.161 157.395 138.998 157.746 138.814 158.086C138.06 159.465 136.942 160.61 135.581 161.397C133.844 162.387 131.819 162.749 129.846 162.423C127.873 162.097 126.072 161.103 124.746 159.606C124.481 159.31 124.235 158.997 124.01 158.669C123.901 158.504 123.801 158.33 123.7 158.164C123.593 157.996 123.5 157.82 123.422 157.637C123.074 156.924 122.824 156.168 122.677 155.389C122.542 154.611 122.507 153.819 122.572 153.032C122.721 151.467 123.296 149.974 124.236 148.714C125.166 147.486 126.415 146.538 127.848 145.974C126.54 146.666 125.433 147.685 124.634 148.93C123.835 150.176 123.371 151.606 123.286 153.084C123.22 154.523 123.531 155.954 124.19 157.234C124.849 158.515 125.833 159.6 127.042 160.382C127.647 160.761 128.297 161.062 128.976 161.279C129.661 161.489 130.37 161.61 131.085 161.641C132.528 161.713 133.965 161.403 135.25 160.743C136.557 160.051 137.664 159.035 138.465 157.792C139.266 156.549 139.734 155.122 139.825 153.646Z" fill="#5A3983"/>
<path d="M165.255 148.3C165.344 149.768 165.097 151.237 164.532 152.596C163.953 153.969 163.09 155.204 162.001 156.22C160.906 157.245 159.626 158.049 158.228 158.591C155.399 159.683 152.265 159.683 149.436 158.591C148.037 158.051 146.756 157.246 145.663 156.22C144.572 155.205 143.71 153.969 143.131 152.596C142.567 151.237 142.32 149.768 142.408 148.3C142.5 149.722 142.877 151.112 143.519 152.384C144.161 153.657 145.053 154.787 146.142 155.706C148.297 157.514 151.019 158.505 153.832 158.505C156.644 158.505 159.367 157.514 161.522 155.706C162.61 154.786 163.501 153.656 164.143 152.383C164.785 151.111 165.163 149.722 165.255 148.3Z" fill="#5A3983"/>
<path d="M196.628 149.576C196.714 150.713 196.56 151.854 196.177 152.928C195.793 154.001 195.189 154.982 194.402 155.806C193.604 156.652 192.642 157.325 191.574 157.784C190.503 158.247 189.348 158.486 188.181 158.488C187.014 158.489 185.859 158.253 184.786 157.793C183.718 157.333 182.754 156.66 181.955 155.815C181.168 154.99 180.564 154.009 180.182 152.936C179.799 151.863 179.646 150.721 179.733 149.585C179.907 151.765 180.88 153.803 182.464 155.31C184.013 156.768 186.06 157.58 188.187 157.58C190.314 157.58 192.361 156.768 193.91 155.31C195.491 153.799 196.46 151.757 196.628 149.576Z" fill="#5A3983"/>
<path d="M184.721 158.726C184.304 159.826 183.64 160.816 182.781 161.619C181.921 162.423 180.889 163.019 179.763 163.361C178.609 163.711 177.393 163.801 176.2 163.625C175.008 163.449 173.869 163.01 172.866 162.342C171.872 161.655 171.035 160.764 170.413 159.728C169.803 158.692 169.432 157.532 169.328 156.334C169.22 155.162 169.383 153.98 169.806 152.882C170.228 151.783 170.898 150.797 171.764 149.999C171.064 150.868 170.549 151.871 170.249 152.946C169.95 154.021 169.872 155.145 170.021 156.251C170.174 157.324 170.55 158.353 171.125 159.271C171.701 160.19 172.463 160.977 173.362 161.583C174.261 162.188 175.277 162.598 176.344 162.786C177.412 162.973 178.507 162.935 179.558 162.673C180.642 162.4 181.658 161.909 182.546 161.231C183.433 160.552 184.174 159.7 184.721 158.726Z" fill="#5A3983"/>
<path d="M174.103 82.4208C174.048 80.6847 173.734 78.9665 173.171 77.3233C172.02 74.0496 169.858 71.2268 166.997 69.2632C165.577 68.3073 164.02 67.5728 162.379 67.0848C159.084 66.1398 155.574 66.2695 152.358 67.4551C149.162 68.6521 146.434 70.8437 144.577 73.7071C144.54 73.7641 144.491 73.8132 144.435 73.8515C144.378 73.8898 144.315 73.9166 144.248 73.9303C144.181 73.9441 144.113 73.9445 144.046 73.9317C143.979 73.9188 143.915 73.8928 143.858 73.8553H143.832C141.145 71.8169 137.947 70.5596 134.591 70.2217C131.25 69.8847 127.879 70.4457 124.828 71.8468C123.314 72.5496 121.91 73.4699 120.662 74.5785C119.428 75.6872 118.364 76.9717 117.504 78.3907C116.671 79.8184 116.082 81.3747 115.761 82.9959C115.696 83.4054 115.617 83.8063 115.569 84.2158L115.504 85.4488C115.478 86.2713 115.534 87.0944 115.67 87.906C115.696 88.0708 115.661 88.2397 115.571 88.3803C115.481 88.5209 115.342 88.6235 115.182 88.6685C114.435 88.883 113.736 89.2362 113.121 89.7097C112.503 90.1849 111.985 90.7771 111.596 91.4525C110.807 92.812 110.588 94.4282 110.986 95.9487C111.029 96.107 111.011 96.2756 110.936 96.4215C110.861 96.5674 110.734 96.68 110.581 96.7373C108.292 97.5551 106.239 98.9235 104.604 100.722C102.969 102.52 101.802 104.694 101.205 107.05C100.925 108.231 100.779 109.439 100.769 110.653C100.766 111.866 100.912 113.075 101.205 114.252C101.812 116.611 102.984 118.786 104.621 120.591C104.699 120.678 104.747 120.788 104.759 120.905C104.771 121.021 104.745 121.139 104.686 121.24C103.886 122.61 103.329 124.107 103.039 125.667C102.603 128.035 102.792 130.476 103.588 132.748C104.384 135.021 105.76 137.046 107.579 138.624C107.638 138.678 107.679 138.748 107.696 138.826C107.713 138.904 107.706 138.986 107.675 139.059C106.758 141.04 106.347 143.217 106.478 145.395C106.609 147.573 107.277 149.685 108.424 151.542C109.598 153.409 111.214 154.958 113.129 156.051C115.073 157.134 117.249 157.732 119.473 157.794C117.215 157.839 114.983 157.311 112.986 156.257C110.989 155.204 109.292 153.661 108.054 151.773C106.79 149.872 106.03 147.682 105.845 145.407C105.636 143.119 106.025 140.816 106.973 138.724L107.074 139.16C104.45 136.948 102.681 133.891 102.069 130.515C101.458 127.139 102.042 123.656 103.723 120.665L103.797 121.327C102.002 119.4 100.715 117.055 100.055 114.504C99.7263 113.233 99.5551 111.927 99.5449 110.614C99.5427 109.294 99.6889 107.979 99.9806 106.693C100.628 104.138 101.892 101.781 103.662 99.8282C105.432 97.8754 107.653 96.3863 110.132 95.4912L109.696 96.2885C109.199 94.4276 109.456 92.4456 110.411 90.7728C110.886 89.9446 111.518 89.2167 112.271 88.6292C113.03 88.0492 113.892 87.6189 114.811 87.3614L114.319 88.1239C114.177 87.2338 114.121 86.3321 114.153 85.4313L114.232 84.0807C114.284 83.645 114.376 83.2094 114.445 82.7475C114.807 80.974 115.462 79.2733 116.384 77.7154C117.32 76.1845 118.479 74.8013 119.822 73.6113C121.169 72.4371 122.679 71.4641 124.305 70.7227C127.564 69.2499 131.157 68.6724 134.713 69.0497C138.27 69.4182 141.649 70.7868 144.459 72.997L143.71 73.119C145.721 70.1313 148.641 67.871 152.037 66.6727C155.434 65.4744 159.126 65.402 162.566 66.4661C164.253 67.0174 165.845 67.8224 167.289 68.8537C168.725 69.8839 169.98 71.144 171.005 72.5831L171.393 73.1146C171.52 73.2933 171.62 73.4937 171.733 73.681C171.967 74.0517 172.183 74.4342 172.378 74.8269L172.931 76.0206L173.367 77.2623C173.869 78.9353 174.117 80.6741 174.103 82.4208Z" fill="#7B619C"/>
<path d="M171.926 251.518H143.934C143.397 251.518 142.876 251.333 142.459 250.995C142.042 250.658 141.754 250.187 141.642 249.662L133.15 209.579H181.633L174.226 249.601C174.127 250.139 173.842 250.625 173.422 250.975C173.002 251.325 172.473 251.517 171.926 251.518Z" fill="#FEB882"/>
<g opacity="0.63">
<path opacity="0.63" d="M157.391 210.163L157.112 251.517H171.925C172.475 251.518 173.006 251.325 173.428 250.973C173.849 250.621 174.133 250.132 174.23 249.592L181.637 208.346L157.391 210.163Z" fill="#FE8B33"/>
</g>
<path d="M181.794 212.628H132.998C131.862 212.628 130.772 212.177 129.969 211.374C129.166 210.57 128.715 209.481 128.715 208.345C128.715 207.209 129.166 206.12 129.969 205.317C130.772 204.514 131.862 204.063 132.998 204.063H181.794C182.357 204.06 182.914 204.169 183.435 204.382C183.956 204.596 184.43 204.91 184.829 205.306C185.228 205.703 185.546 206.174 185.763 206.693C185.98 207.212 186.092 207.769 186.094 208.332C186.096 208.897 185.986 209.457 185.77 209.979C185.555 210.501 185.238 210.976 184.838 211.375C184.438 211.775 183.964 212.091 183.441 212.306C182.919 212.521 182.359 212.63 181.794 212.628Z" fill="#FE6D00"/>
<g opacity="0.69">
<path opacity="0.69" d="M153.143 146.675V140.044C148.838 139.909 144.534 138.681 142.072 137.038L143.915 130.616C147.146 132.53 150.821 133.567 154.576 133.622C158.881 133.622 161.822 131.505 161.822 128.224C161.822 125.148 159.43 123.166 154.372 121.323C147.196 118.709 142.552 115.446 142.552 109.089C142.552 103.216 146.651 98.7024 153.552 97.4738V90.7773H159.155V97.1339C162.427 97.1685 165.649 97.9383 168.583 99.3864L166.741 105.673C165.102 104.924 162.092 103.351 157.447 103.351C152.655 103.351 150.956 105.813 150.956 108.144C150.956 110.945 153.417 112.5 159.234 114.84C166.884 117.711 170.3 121.401 170.3 127.475C170.3 133.287 166.27 138.41 158.755 139.639V146.68L153.143 146.675Z" fill="#FFEBDB"/>
</g>
<path d="M234.224 92.1625C229.693 88.5289 222.966 89.9841 219.65 94.2929C218.468 95.825 217.668 97.6175 217.319 99.5211C216.933 100.379 216.63 101.272 216.413 102.187C215.176 107.503 217.812 113.764 223.536 115.519C229.44 117.332 235.204 112.622 237.365 107.677C239.587 102.628 238.907 95.9268 234.224 92.1625Z" fill="#FE6D00"/>
<path d="M231.266 91.4083C226.909 87.8183 220.404 89.3388 217.163 93.6564C215.96 95.251 214.548 98.2224 213.838 101.063C212.488 106.352 215.219 113.127 220.739 114.831C226.425 116.573 232.037 111.837 234.167 106.905C236.359 101.804 235.762 95.1029 231.266 91.4083Z" fill="#FEB882"/>
<path d="M230.42 95.5781C228.507 93.5217 224.708 92.8072 222.425 94.7068C221.939 95.0877 221.55 95.5779 221.29 96.1375C221.029 96.6972 220.905 97.3104 220.926 97.9274C220.947 98.5443 221.114 99.1475 221.412 99.6879C221.71 100.228 222.132 100.691 222.643 101.037C223.859 101.909 225.349 102.257 226.599 103.068C228.019 103.987 228.682 105.838 227.527 107.272C226.433 108.631 224.351 108.875 222.734 108.509C220.656 108.03 219.537 106.745 219.754 104.619C219.764 104.561 219.757 104.501 219.734 104.447C219.71 104.393 219.672 104.347 219.623 104.315C219.575 104.282 219.517 104.264 219.459 104.263C219.4 104.262 219.342 104.278 219.293 104.309C217.946 105.015 218.277 106.88 219.014 107.912C219.924 109.193 221.628 109.873 223.122 110.06C226.024 110.409 229.518 108.914 229.544 105.581C229.539 104.884 229.365 104.199 229.036 103.584C228.708 102.969 228.235 102.444 227.658 102.052C226.263 101.046 224.364 100.745 223.105 99.5603C221.702 98.2532 222.386 96.1227 224.059 95.3952C225.976 94.563 228.137 95.5128 229.854 96.3842C229.959 96.4354 230.079 96.4471 230.192 96.4171C230.305 96.3871 230.404 96.3174 230.47 96.2207C230.536 96.124 230.565 96.0067 230.552 95.8904C230.539 95.774 230.484 95.6663 230.398 95.5869L230.42 95.5781Z" fill="#FFEBDB"/>
<path d="M226.072 91.7833C225.236 92.6547 224.879 94.0401 224.495 95.1555C224.06 96.4146 223.524 97.8131 223.493 99.155C223.499 99.2144 223.524 99.2703 223.564 99.3145C223.604 99.3587 223.657 99.3889 223.716 99.4006C223.774 99.4123 223.835 99.4049 223.889 99.3795C223.943 99.3542 223.988 99.3121 224.016 99.2596C224.534 98.0833 224.73 96.7327 225.11 95.4997C225.489 94.2667 226.146 93.0642 226.207 91.8312C226.207 91.7572 226.116 91.7397 226.072 91.7833Z" fill="#FFEBDB"/>
<path d="M223.223 102.776C222.312 103.939 222.12 105.786 221.746 107.189C221.51 108.061 221.275 108.932 221.049 109.803C220.853 110.566 220.552 111.319 220.661 112.108C220.691 112.304 220.961 112.448 221.096 112.261C221.994 111.102 222.151 109.189 222.512 107.79C222.896 106.309 223.737 104.401 223.506 102.863C223.506 102.728 223.31 102.636 223.214 102.758L223.223 102.776Z" fill="#FFEBDB"/>
<path d="M228.416 92.6414C227.523 93.2252 227.292 94.9025 226.961 95.8698C226.525 97.1768 225.741 98.6712 225.715 100.078C225.719 100.123 225.736 100.166 225.764 100.202C225.792 100.237 225.83 100.264 225.873 100.279C225.915 100.293 225.961 100.295 226.005 100.285C226.049 100.274 226.089 100.251 226.12 100.218C226.9 99.1679 227.17 97.6866 227.584 96.4579C227.941 95.3992 228.891 93.7741 228.512 92.6762C228.509 92.6669 228.504 92.6585 228.497 92.6515C228.49 92.6445 228.482 92.6391 228.472 92.6358C228.463 92.6324 228.453 92.6312 228.444 92.6322C228.434 92.6331 228.424 92.6363 228.416 92.6414Z" fill="#FFEBDB"/>
<path d="M225.593 104.64C224.696 105.738 224.547 107.633 224.212 108.997C223.994 109.868 223.776 110.74 223.563 111.611C223.41 112.234 223.258 112.508 223.563 113.066C223.581 113.091 223.609 113.109 223.639 113.114C223.67 113.12 223.702 113.114 223.728 113.097C224.247 112.744 224.238 112.399 224.391 111.79C224.585 110.991 224.783 110.195 224.983 109.402C225.323 108.017 226.12 106.156 225.855 104.749C225.833 104.649 225.702 104.57 225.624 104.671L225.593 104.64Z" fill="#FFEBDB"/>
<path d="M243.138 135.87C242.188 134.999 234.289 124.926 240.358 121.58C240.358 121.58 240.358 119.667 242.994 119.17C245.63 118.674 246.915 121.619 246.967 122.042C247.02 122.464 243.138 135.87 243.138 135.87Z" fill="#694B8E"/>
<path d="M248.24 184.37C248.209 184.039 249.473 183.564 250.296 183.294C250.052 183.455 249.813 183.686 250.205 183.786C250.775 183.939 252.026 183.734 252.383 183.311C252.517 183.636 252.582 183.984 252.575 184.335C252.584 184.701 248.314 185.08 248.24 184.37Z" fill="#2E0562"/>
<path d="M250.204 183.773C249.812 183.673 250.051 183.442 250.295 183.281C250.809 183.115 251.236 182.993 251.332 182.95C251.406 182.915 251.471 182.866 251.525 182.805C251.579 182.744 251.62 182.674 251.646 182.597L251.907 182.54C251.907 182.54 252.343 183.211 252.387 183.298C252.025 183.721 250.775 183.934 250.204 183.773Z" fill="#B2A2C5"/>
<path d="M241.426 184.666C241.343 184.462 242.654 183.865 243.482 183.595C243.238 183.756 242.994 183.982 243.386 184.087C243.961 184.24 245.212 184.03 245.565 183.612C245.698 183.937 245.764 184.285 245.756 184.636C245.782 185.015 241.7 185.342 241.426 184.666Z" fill="#2E0562"/>
<path d="M243.381 184.087C242.989 183.982 243.233 183.756 243.477 183.595C243.987 183.425 244.418 183.307 244.514 183.259C244.587 183.225 244.653 183.177 244.707 183.117C244.761 183.057 244.802 182.987 244.828 182.911L245.089 182.85C245.089 182.85 245.525 183.525 245.568 183.612C245.207 184.03 243.956 184.239 243.381 184.087Z" fill="#B2A2C5"/>
<path d="M247.255 138.244C247.255 138.366 250.231 141.111 251.106 144.313C253.054 151.428 252.117 178.51 252.034 182.653C252.034 182.967 251.681 182.862 251.629 182.653L243.425 149.001L242.51 159.627L245.264 183.128L244.754 183.172C244.754 183.172 236.419 164.058 235.722 158.882C233.888 145.224 237.901 139.277 238.201 138.453C239.304 138.911 245.181 139.281 247.255 138.244Z" fill="#B2A2C5"/>
<path d="M238.376 137.94C238.315 138.035 235.871 142.793 235.566 146.37C235.133 150.36 235.17 154.387 235.675 158.369C235.675 158.369 237.958 159.676 248.371 158.756L248.872 151.947L250.209 158.447C250.209 158.447 251.808 158.565 252.292 158.334C252.292 158.334 252.331 147.385 251.02 143.956C249.708 140.528 246.663 137.447 246.663 137.447L238.376 137.94Z" fill="#795F9A"/>
<path d="M243.791 159.044H244.179C245.399 158.996 246.793 158.909 248.353 158.769L248.854 151.959L250.192 158.46C250.192 158.46 251.79 158.577 252.274 158.347C252.274 158.347 252.313 147.398 251.002 143.969C249.69 140.54 246.645 137.46 246.645 137.46L242.201 137.626C242.201 137.626 245.281 141.904 245.186 146.67C245.07 150.827 244.604 154.966 243.791 159.044Z" fill="#694B8E"/>
<path d="M237.317 109.995C237.238 110.103 237.195 110.232 237.195 110.366C237.195 110.499 237.238 110.629 237.317 110.736C238.494 112.348 244.092 119.702 244.942 120.321C245.643 120.822 247.782 122.308 247.634 120.321C247.282 118.297 246.771 116.304 246.105 114.361C244.815 110.536 240.855 105.277 237.317 109.995Z" fill="#735796"/>
<path d="M241.63 125.61C241.63 125.61 241.439 127.484 241.574 127.684C241.613 127.766 241.675 127.835 241.752 127.884C241.829 127.932 241.918 127.958 242.009 127.958C242.1 127.958 242.189 127.932 242.267 127.884C242.344 127.835 242.405 127.766 242.445 127.684C242.698 127.205 242.367 125.593 242.367 125.593L241.63 125.61Z" fill="#B2A2C5"/>
<path d="M241.53 126.974C241.696 127.027 241.872 127.039 242.043 127.009C242.215 126.98 242.376 126.909 242.515 126.804C242.507 126.533 242.476 126.264 242.423 125.998L241.591 126.037C241.569 126.307 241.543 126.66 241.53 126.974Z" fill="#7D649E"/>
<path d="M226.556 115.175C226.681 115.134 226.815 115.133 226.94 115.174C227.065 115.215 227.173 115.295 227.249 115.402C228.386 117.005 233.619 124.29 233.915 125.27C234.194 126.172 235.004 129.57 232.926 128.246C231.715 127.479 228.791 125.196 227.859 124.381C224.87 121.811 221.036 116.996 226.556 115.175Z" fill="#866EA4"/>
<path d="M225.592 116.435C225.543 116.472 225.482 116.492 225.42 116.492C225.358 116.492 225.298 116.472 225.248 116.435C224.987 116.234 224.569 115.886 224.116 115.467C223.865 115.215 223.661 114.92 223.514 114.596C223.404 114.33 223.359 114.042 223.384 113.755C223.405 113.437 223.619 113.568 223.619 113.568C223.619 113.568 223.641 113.263 223.815 113.363C223.989 113.463 224.582 114.592 224.987 114.783C224.987 114.783 224.856 114.121 225.035 114.095C225.213 114.069 225.745 115.023 225.719 115.367C225.77 115.563 225.837 115.753 225.919 115.938C225.989 116.06 225.78 116.304 225.592 116.435Z" fill="#B2A2C5"/>
<path d="M238.398 109.433C238.448 109.4 238.487 109.352 238.509 109.295C238.53 109.239 238.532 109.177 238.515 109.119C238.428 108.81 238.262 108.3 238.049 107.738C237.901 107.441 237.7 107.174 237.456 106.949C237.238 106.744 236.982 106.582 236.703 106.474C236.398 106.379 236.511 106.588 236.511 106.588C236.488 106.576 236.462 106.57 236.436 106.569C236.411 106.568 236.385 106.572 236.361 106.581C236.336 106.591 236.314 106.605 236.296 106.623C236.278 106.642 236.263 106.664 236.254 106.688C236.18 106.871 236.82 107.703 236.925 108.322C236.925 108.322 236.563 107.916 236.489 108.065C236.415 108.213 237.073 109.054 237.4 109.158C237.556 109.276 237.702 109.407 237.836 109.55C237.91 109.642 238.206 109.542 238.398 109.433Z" fill="#B2A2C5"/>
<path d="M233.078 124.098C233.794 125.303 234.787 126.318 235.975 127.061C236.795 127.583 237.765 127.82 238.733 127.736C240.768 127.562 244.536 127.157 246.371 126.939C246.994 126.865 249.285 129 248.884 129.753C248.749 130.015 248.296 132.777 248.157 133.779C247.93 135.369 247.447 137.382 247.255 138.245C244.798 139.574 239.064 139.116 237.879 138.894C237.879 138.811 237.443 136.824 237.165 135.108C236.925 133.531 236.498 132.263 236.293 131.213C236.188 130.867 235.994 130.555 235.731 130.307C235.408 130.012 235.053 129.755 234.672 129.54C230.725 127.065 230.172 123.998 230.172 123.998L233.078 124.098Z" fill="#866EA4"/>
<path d="M244.039 127.204L244.37 127.169L246.383 126.938C247.006 126.864 244.331 119.689 244.331 119.689L246.344 116.73C246.344 116.73 249.176 121.314 248.897 129.753C248.897 130.045 248.309 132.777 248.169 133.779C247.943 135.369 247.459 137.382 247.267 138.244C246.344 138.741 244.954 138.989 243.521 139.116L243.085 139.142C243.828 136.867 244.295 134.51 244.475 132.123C244.534 130.472 244.387 128.82 244.039 127.204Z" fill="#735796"/>
<path d="M243.32 125.776C243.596 125.267 243.801 124.723 243.93 124.159C243.967 124.029 243.976 123.892 243.959 123.757C243.942 123.623 243.899 123.493 243.831 123.375C243.763 123.258 243.673 123.155 243.565 123.073C243.457 122.99 243.334 122.93 243.203 122.896C242.331 122.678 241.386 122.46 241.085 122.569C240.606 122.704 240.419 123.266 240.271 123.684C240.082 124.212 240.037 124.78 240.14 125.331C240.364 125.797 240.756 126.16 241.238 126.346C242.397 126.699 242.819 126.503 243.32 125.776Z" fill="#B2A2C5"/>
<path d="M243.604 120.843C243.295 121.514 241.204 122.817 241.862 124.372C242.52 125.928 243.604 126.69 244.04 127.178C243.442 127.923 243.044 128.808 242.884 129.75C242.724 130.691 242.807 131.658 243.125 132.559C244.245 135.635 241.722 137.216 244.262 139.817C249.952 145.66 257.359 138.628 257.097 134.031C256.989 132.097 255.995 127.797 251.299 127.117C251.299 127.117 253.085 119.71 246.11 120.434C246.114 120.434 244.371 119.148 243.604 120.843Z" fill="#694B8E"/>
<path d="M242.902 121.667C242.508 122.045 242.179 122.487 241.931 122.974C241.877 123.094 241.843 123.222 241.831 123.353C241.822 123.482 241.837 123.612 241.874 123.736C241.933 124 242.015 124.258 242.118 124.508C242.575 125.5 243.284 126.355 244.175 126.987C244.217 127.019 244.246 127.066 244.255 127.119C244.264 127.171 244.252 127.225 244.223 127.27C243.914 127.732 243.647 128.22 243.425 128.729C243.196 129.22 243.063 129.749 243.033 130.289C243.077 130.84 243.159 131.387 243.277 131.927C243.377 132.481 243.499 133.038 243.634 133.583C243.639 133.609 243.639 133.635 243.634 133.661L243.425 136.079C243.347 136.898 243.234 137.67 243.539 138.393C243.873 139.108 244.369 139.734 244.989 140.223C245.615 140.733 246.276 141.199 246.967 141.617C246.23 141.27 245.524 140.859 244.859 140.388C244.164 139.916 243.601 139.276 243.22 138.528C242.92 137.738 242.838 136.881 242.985 136.049L243.155 133.618V133.701C243.007 133.138 242.876 132.585 242.763 132.019C242.702 131.736 242.658 131.452 242.615 131.147C242.565 130.859 242.536 130.568 242.528 130.276C242.57 129.671 242.727 129.08 242.99 128.533C243.234 128 243.526 127.49 243.861 127.008L243.905 127.3C242.995 126.593 242.289 125.656 241.861 124.586C241.763 124.317 241.694 124.038 241.656 123.754C241.631 123.61 241.631 123.462 241.656 123.318C241.681 123.166 241.73 123.019 241.8 122.883C242.089 122.412 242.463 122 242.902 121.667Z" fill="#8269A1"/>
<g opacity="0.5">
<path opacity="0.5" d="M92.6668 254.167C110.559 254.167 125.064 252.44 125.064 250.311C125.064 248.181 110.559 246.455 92.6668 246.455C74.7743 246.455 60.2695 248.181 60.2695 250.311C60.2695 252.44 74.7743 254.167 92.6668 254.167Z" fill="#C7BBD5"/>
</g>
<path d="M108.364 193.624C108.364 193.764 111.849 198.269 112.594 201.981C114.825 213.173 111.688 242.351 110.917 248.28C110.812 249.078 110.599 248.917 110.455 247.932C109.719 242.8 101.741 207.235 101.741 207.235L78.2147 249.13L77.5742 248.912C77.5742 248.912 82.8024 230.81 85.8522 221.05C87.8999 214.559 90.4704 203.418 97.4457 195.084C99.2799 194.687 105.541 193.402 108.364 193.624Z" fill="#B2A2C5"/>
<path d="M114.529 250.158C114.529 249.875 113.222 249.256 112.324 248.942C112.586 249.125 112.843 249.378 112.42 249.487C111.797 249.648 110.446 249.4 110.063 248.934C109.917 249.29 109.842 249.672 109.841 250.058C109.85 250.48 114.472 250.964 114.529 250.158Z" fill="#3D166D"/>
<path d="M112.421 249.492C112.856 249.387 112.586 249.13 112.325 248.947C111.776 248.756 111.31 248.616 111.209 248.568C111.051 248.486 110.93 248.346 110.874 248.176L110.595 248.106C110.595 248.106 110.111 248.843 110.063 248.939C110.447 249.405 111.797 249.653 112.421 249.492Z" fill="#B2A2C5"/>
<path d="M73.9534 250.533C73.9316 250.097 75.304 249.7 76.2058 249.435C75.9357 249.604 75.6656 249.844 76.0839 249.97C76.6982 250.158 78.0488 249.97 78.454 249.535C78.5811 249.897 78.6387 250.28 78.6239 250.663C78.6108 251.073 74.0013 251.33 73.9534 250.533Z" fill="#3D166D"/>
<path d="M76.0844 249.971C75.6488 249.845 75.9363 249.605 76.2064 249.435C76.7598 249.27 77.2303 249.157 77.3305 249.109C77.4112 249.074 77.484 249.023 77.5447 248.959C77.6053 248.896 77.6525 248.821 77.6834 248.738L77.9666 248.682C77.9666 248.682 78.4023 249.435 78.4546 249.531C78.045 249.98 76.6988 250.159 76.0844 249.971Z" fill="#B2A2C5"/>
<path d="M95.1629 196.631C95.1629 196.631 88.2835 210.276 85.665 221.704L88.0526 222.597L94.3656 212.141L91.8212 223.033C91.8212 223.033 103.423 226.035 113.148 222.314C113.148 222.314 117.278 201.323 108.355 193.629L95.1629 196.631Z" fill="#3D166D"/>
<path d="M100.265 224.143H100.626C104.434 224.261 108.965 223.904 113.152 222.301C113.152 222.301 117.282 201.309 108.36 193.615L104.155 194.574L102.957 194.848C102.957 194.848 105.07 202.137 103.785 209.435C102.87 214.396 101.695 219.306 100.265 224.143Z" fill="#2E0562"/>
<path d="M106.107 180.118C104.609 179.246 100.522 178.697 93.747 181.255C93.0534 181.518 92.404 181.885 91.8213 182.344C92.6578 184.662 92.2221 187.986 92.2221 187.986C94.357 191.162 96.0779 195.772 96.1825 196.56C98.6484 197.048 107.549 194.87 108.565 194.051C108.818 191.679 108.717 189.282 108.264 186.94C107.753 184.606 107.031 182.322 106.107 180.118Z" fill="#C7BBD5"/>
<path d="M106.107 180.118C104.987 179.465 102.417 178.994 98.3604 179.87L98.0859 179.927C100.098 181.817 101.57 184.21 102.351 186.858C103.358 190.344 102.9 195.798 102.9 195.798L103.462 195.672C105.906 195.11 108.089 194.435 108.564 194.051C108.818 191.679 108.716 189.283 108.263 186.941C107.752 184.606 107.031 182.323 106.107 180.118Z" fill="#B6A7C8"/>
<path d="M105.14 182.536C105.14 182.536 108.795 186.274 112.694 190.134C113.91 191.337 116.228 194.386 119.548 195.297C125.211 196.857 127.826 194.125 127.826 194.125C127.826 194.125 128.392 191.171 126.623 190.504C124.854 189.838 115.626 187.69 115.626 187.69C115.626 187.69 109.527 182.488 107.828 181.255C107.052 180.688 106.142 180.122 106.142 180.122L105.14 182.536Z" fill="#B6A7C8"/>
<path d="M96.8271 177.948C96.8271 177.948 97.0711 180.588 97.289 180.841C97.5068 181.094 98.1603 181.333 98.352 180.614C98.5437 179.895 97.7116 177.734 97.7116 177.734L96.8271 177.948Z" fill="#B2A2C5"/>
<path d="M97.0537 179.861C97.2577 179.948 97.4819 179.977 97.7012 179.944C97.9205 179.911 98.1263 179.817 98.2954 179.674C98.1953 179.211 98.0673 178.754 97.912 178.306L96.8271 177.87C96.8664 178.271 96.9884 179.425 97.0537 179.861Z" fill="#7D649E"/>
<path d="M98.4736 173.007C98.4736 173.007 100.182 170.563 102.203 172.506C102.203 172.506 103.122 173.073 102.268 175.033C101.414 176.994 101.985 178.283 102.9 177.996C102.9 177.996 102.83 179.024 100.691 178.397C98.5521 177.769 98.1774 175.373 98.1774 175.373L95.8508 177.952C95.8508 177.952 92.6747 176.806 94.583 173.735C94.962 173.125 95.9423 172.031 97.0315 172.254C97.5878 172.322 98.1003 172.589 98.4736 173.007Z" fill="#866EA4"/>
<path d="M99.8288 178.227C100.02 177.996 100.264 176.985 100.439 176.136C100.503 175.8 100.434 175.452 100.245 175.167C100.056 174.882 99.7625 174.682 99.428 174.611C98.3518 174.406 97.145 174.249 96.779 174.384C96.1996 174.594 96.0166 175.325 95.8641 175.861C95.6833 176.547 95.6833 177.267 95.8641 177.953C96.1773 178.518 96.6948 178.942 97.3106 179.138C98.7614 179.473 99.2711 179.194 99.8288 178.227Z" fill="#B2A2C5"/>
<path d="M95.1628 176.562C95.1105 176.506 98.2125 175.835 99.1405 174.314C100.069 172.794 96.9099 173.621 96.9099 173.621L95.1628 176.562Z" fill="#866EA4"/>
<path d="M107.114 203.915L123.37 208.912L127.291 189.328L114.869 185.512L107.114 203.915Z" fill="#FE8B33"/>
<path d="M107.087 203.976C106.913 204.547 110.412 206.124 114.899 207.505C119.387 208.886 123.177 209.544 123.347 208.978C123.517 208.411 120.023 206.83 115.535 205.449C111.048 204.068 107.262 203.423 107.087 203.976Z" fill="#FE8B33"/>
<path d="M139.145 197.149C139.145 197.149 127.303 200.49 124.088 203.932L124.754 198.43C124.754 198.43 131.028 199.332 138.261 195.89L139.145 197.149Z" fill="#FE8B33"/>
<path d="M141.284 198.748C141.284 198.748 139.075 198.691 138.021 196.896C136.966 195.101 139.763 193.066 139.763 193.066C139.763 193.066 141.254 194.495 141.284 198.748Z" fill="#FE8B33"/>
<path d="M109.976 202.115C109.422 202.102 108.886 201.916 108.442 201.584C105.327 199.405 104.499 193.084 104.355 188.152C104.344 187.745 104.433 187.341 104.615 186.977C104.797 186.613 105.066 186.299 105.399 186.064C105.731 185.829 106.117 185.68 106.521 185.63C106.925 185.58 107.335 185.631 107.715 185.777C114.398 188.361 114.455 188.417 114.629 188.583L114.921 188.862L114.895 189.263C114.773 191.11 114.023 200.407 110.943 201.897C110.642 202.043 110.311 202.118 109.976 202.115ZM106.8 187.328C106.643 187.328 106.491 187.377 106.364 187.468C106.263 187.538 106.181 187.633 106.126 187.743C106.071 187.854 106.045 187.976 106.05 188.099C106.233 194.421 107.453 198.821 109.396 200.168C109.858 200.49 110.076 200.386 110.172 200.342C111.697 199.606 112.786 193.903 113.108 189.746C112.429 189.472 110.83 188.836 107.065 187.38C106.981 187.347 106.891 187.329 106.8 187.328Z" fill="#FE8B33"/>
<path d="M103.624 193.716C104.268 193.676 104.906 193.569 105.528 193.398C106.439 193.028 106.583 191.995 106.361 192.126C106.097 192.244 105.803 192.278 105.52 192.222C105.376 192.121 105.729 191.947 105.585 191.747C105.441 191.546 105.093 192.026 104.84 192.139C104.587 192.252 102.993 192.439 103.624 193.716Z" fill="#B2A2C5"/>
<path d="M92.157 182.069C90.5536 183.054 90.5885 184.64 89.8827 187.158C89.0113 190.343 87.5605 193.632 89.4732 197.07C90.8891 199.614 101.28 199.614 103.454 195.636C103.824 194.791 103.898 193.845 103.663 192.953C103.64 192.835 103.594 192.722 103.528 192.622C103.461 192.522 103.375 192.437 103.275 192.37C103.175 192.304 103.062 192.258 102.944 192.235C102.826 192.212 102.705 192.213 102.587 192.238L92.1787 194.417L93.8169 187.315C93.4751 185.506 92.9178 183.745 92.157 182.069Z" fill="#C7BBD5"/>
<path d="M126.929 191.079C126.929 191.079 126.057 190.831 125.792 191.079C125.652 191.214 126.227 191.253 126.227 191.253C126.227 191.253 125.617 191.253 125.609 191.463C125.6 191.672 125.97 191.689 125.97 191.689C125.97 191.689 125.752 191.689 125.757 191.789C125.757 191.977 126.245 192.09 126.245 192.09C126.245 192.09 125.809 192.194 125.97 192.347C126.131 192.499 126.672 192.347 126.672 192.347C126.672 192.347 127.277 191.493 126.929 191.079Z" fill="#B2A2C5"/>
<path d="M96.9579 173.043C96.9579 173.043 99.5719 165.283 94.2435 166.072C88.9152 166.86 86.349 173.823 89.2899 175.343C90.1225 175.787 91.0508 176.022 91.9944 176.026C92.938 176.031 93.8685 175.805 94.7054 175.369L96.9579 173.043Z" fill="#866EA4"/>
<path d="M92.3302 166.677C91.2293 167.371 90.282 168.283 89.5461 169.356C88.8272 170.403 88.4015 171.623 88.3132 172.89C88.2717 173.485 88.4448 174.075 88.8011 174.554C89.1926 175.015 89.7155 175.344 90.2999 175.499C90.9042 175.682 91.5293 175.788 92.1602 175.813C92.7877 175.852 93.4163 175.755 94.0032 175.53C94.0217 175.52 94.0419 175.515 94.0626 175.513C94.0833 175.512 94.1041 175.515 94.1237 175.522C94.1433 175.529 94.1613 175.54 94.1765 175.554C94.1917 175.568 94.2039 175.585 94.2123 175.604C94.2184 175.633 94.2184 175.662 94.2123 175.691C94.1511 176.139 94.2667 176.594 94.5347 176.959C94.7003 177.128 94.8764 177.287 95.0619 177.434C95.2492 177.586 95.4366 177.739 95.637 177.869C95.4194 177.763 95.2084 177.644 95.0052 177.512C94.7943 177.382 94.5933 177.236 94.404 177.076C94.2161 176.895 94.0767 176.668 93.9988 176.419C93.9155 176.17 93.88 175.909 93.8943 175.647L94.1295 175.804C92.8603 176.347 91.4392 176.42 90.1212 176.009C89.4249 175.836 88.8003 175.449 88.3349 174.902C87.8921 174.323 87.6795 173.599 87.7381 172.872C87.8439 171.506 88.3552 170.203 89.2063 169.13C90.0271 168.065 91.1009 167.221 92.3302 166.677Z" fill="#A391BA"/>
<path d="M116.52 187.595C116.389 188.643 116.184 189.682 115.906 190.701C115.638 191.718 115.333 192.72 114.991 193.707C114.651 194.696 114.263 195.672 113.84 196.631C113.425 197.604 112.94 198.546 112.39 199.45C112.522 198.399 112.728 197.36 113.008 196.339C113.274 195.328 113.575 194.322 113.923 193.337C114.272 192.352 114.651 191.376 115.073 190.414C115.49 189.442 115.973 188.5 116.52 187.595Z" fill="#FE6D00"/>
<path d="M120.402 96.7981C120.11 96.5236 120.794 94.8201 121.164 94.3801C121.09 94.5805 121.02 94.9421 121.295 94.9291C121.535 94.865 121.752 94.7339 121.92 94.551C122.088 94.3681 122.201 94.1411 122.245 93.8965C122.46 94.1443 122.642 94.4198 122.785 94.7156C122.942 95.0554 121.09 97.4473 120.402 96.7981Z" fill="#3D166D"/>
<path d="M121.077 95.4259C120.803 95.4259 121.043 94.6765 121.121 94.4761C121.222 94.2675 121.343 94.069 121.483 93.8835C121.539 93.7669 121.551 93.6339 121.518 93.5089L121.744 93.3477C121.766 93.4328 121.806 93.5126 121.86 93.5823C121.913 93.6519 121.981 93.7099 122.058 93.7528C122.126 93.7972 122.189 93.8499 122.245 93.9097C122.21 94.3584 121.474 95.4041 121.077 95.4259Z" fill="#B2A2C5"/>
<path d="M114.076 95.718C113.784 95.4436 114.473 93.7401 114.839 93.2957C114.765 93.4961 114.699 93.862 114.969 93.849C115.211 93.7884 115.43 93.6584 115.599 93.4749C115.768 93.2914 115.879 93.0625 115.919 92.8164C116.136 93.0631 116.318 93.3388 116.459 93.6355C116.621 93.9535 114.765 96.3629 114.076 95.718Z" fill="#3D166D"/>
<path d="M114.751 94.3321C114.481 94.3321 114.721 93.5827 114.795 93.3823C114.898 93.1748 115.019 92.9766 115.156 92.7898C115.213 92.6733 115.227 92.5407 115.196 92.4151L115.422 92.2539C115.443 92.3396 115.482 92.4199 115.536 92.4897C115.59 92.5595 115.658 92.6172 115.736 92.6591C115.803 92.7036 115.865 92.7563 115.919 92.8159C115.884 93.2647 115.152 94.3103 114.751 94.3321Z" fill="#B2A2C5"/>
<path d="M126.968 48.5728L125.373 48.8865C125.377 49.112 125.367 49.3376 125.343 49.5618C125.229 51.6313 124.035 55.3085 121.962 57.574C119.282 60.5279 119.7 55.8705 119.7 55.8705C120.716 54.1473 121.631 52.3667 122.441 50.5377C123.173 48.6687 126.937 46.4859 126.968 48.5728Z" fill="#6F5293"/>
<path d="M121.613 56.7986C121.635 59.7656 115.892 63.9656 112.276 65.8651C112.101 65.9557 111.897 65.9755 111.707 65.9204C111.518 65.8652 111.356 65.7394 111.257 65.5689C111.122 65.338 110.943 65.0243 110.73 64.6191C109.457 62.1923 111.488 61.016 112.947 59.905C114.407 58.794 119.286 56.1712 119.286 56.1712C119.286 56.1712 121.613 54.3762 121.613 56.7986Z" fill="#6F5293"/>
<path d="M132.322 58.5667C134.5 59.3684 134.814 64.3656 135.18 67.5679C135.772 72.783 121.613 76.2162 121.613 76.2162C121.613 76.2162 122.519 90.8594 122.048 93.2775C121.918 93.9484 119.574 93.6217 119.574 93.6217C119.574 93.6217 113.966 78.4425 115.291 73.5803C116.084 70.67 124.575 68.6397 124.575 68.6397L114.119 74.3035L115.713 92.502L113.383 92.38C113.383 92.38 107.07 78.8216 108.041 71.794C108.568 67.9905 120.841 62.2874 120.841 62.2874C120.841 62.2874 123.682 59.926 123.978 59.5165C125.603 59.242 129.891 58.24 132.322 58.5667Z" fill="#3D166D"/>
<path d="M122.92 52.0321C122.485 54.9816 122.341 56.1841 123.308 59.9615C123.596 61.0681 134.113 61.9961 134.248 61.3731C134.296 61.1465 134.684 59.3733 134.888 58.4366C135.89 53.9273 136.261 52.6159 135.655 50.9254C135.22 49.7535 135.01 48.3767 128.928 47.6709C127.02 47.4487 125.813 48.2634 125.099 48.4464C123.935 48.747 123.081 50.8034 122.92 52.0321Z" fill="#624389"/>
<path d="M128.087 67.2285L127.983 68.3351L122.402 70.4221L117.884 69.847L122.559 69.0017L128.087 67.2285Z" fill="#FE8B33"/>
<path d="M107.758 67.4636L122.331 69.0712L128.087 67.2283L107.971 65.2852L107.758 67.4636Z" fill="#FE6D00"/>
<path d="M122.183 58.445L107.81 57.5039L106.607 57.5475L121.521 58.5321L122.183 58.445Z" fill="#FE8B33"/>
<path d="M128.266 47.6269C127.464 49.4972 126.954 51.4793 126.754 53.5042C126.594 56.066 126.808 58.6374 127.39 61.1374C127.39 61.1374 124.824 61.1112 123.569 60.3183C123.386 60.1995 123.253 60.0159 123.199 59.8042C122.907 58.5625 121.818 53.4694 122.937 50.5416C124.227 47.1825 128.266 47.6269 128.266 47.6269Z" fill="#6F5293"/>
<path d="M126.728 61.0724C128.428 60.1659 130.023 59.076 131.486 57.8222C132.327 57.0467 132.658 54.2584 132.658 54.2584C132.658 54.2584 134.122 47.5837 135.865 50.4984C137.063 52.4982 135.259 58.6152 133.094 61.8915C132.305 63.0853 126.001 61.4297 126.728 61.0724Z" fill="#563480"/>
<path d="M130.24 59.7651C130.24 59.7651 120.446 63.2201 120.389 64.5228C120.333 65.8255 123.635 67.6161 124.633 67.3199C125.631 67.0236 132.61 64.2919 133.442 61.0068C134.222 57.9266 130.24 59.7651 130.24 59.7651Z" fill="#563480"/>
<path d="M107.653 68.5488L122.401 70.4222L121.521 58.5325L106.607 57.5479L107.653 68.5488Z" fill="#FEB882"/>
<path d="M122.977 70.0824L122.402 70.4222L121.521 58.5324L122.184 58.4453L122.977 70.0824Z" fill="#FE8B33"/>
<path d="M129.234 45.1094C129.234 45.1094 130.184 47.51 129.979 47.828C129.774 48.1461 128.903 48.6602 128.258 48.1243C127.613 47.5884 127.783 45.3359 127.783 45.3359L129.234 45.1094Z" fill="#B2A2C5"/>
<path d="M129.843 46.8737C129.251 47.23 128.555 47.3744 127.87 47.2833C127.79 46.8346 127.754 46.3795 127.761 45.9239L129.163 44.9785C129.29 45.3227 129.726 46.4642 129.843 46.8737Z" fill="#7D649E"/>
<path d="M125.146 45.065C125.014 44.5134 124.974 43.9436 125.028 43.3789C125.028 43.1916 125.137 42.6165 125.29 42.5076C126.1 41.8889 127.904 42.5773 128.244 42.8038C128.645 43.0783 128.64 43.6752 128.649 44.1109C128.658 44.5465 128.34 46.725 126.928 46.6335C125.394 46.5158 125.381 45.9059 125.146 45.065Z" fill="#B2A2C5"/>
<path d="M124.881 45.9234C124.881 45.222 124.99 44.2896 125.033 44.477C125.19 45.1915 125.412 46.1805 126.536 46.2197C127.556 46.2458 128.227 45.8886 128.48 44.9649C128.538 44.3988 128.521 43.8272 128.427 43.2658C128.375 43.0566 128.061 42.5948 127.626 42.6776C126.733 42.9128 125.795 42.9128 124.903 42.6776C124.61 42.5549 124.346 42.3737 124.127 42.1452C123.907 41.9167 123.737 41.6456 123.626 41.3488C123.443 40.9954 123.34 40.6057 123.326 40.2079C123.312 39.8101 123.386 39.414 123.543 39.0484C123.639 38.8131 123.944 38.7652 123.94 39.0222C123.892 40.5428 125.935 39.4884 126.401 39.1442C126.633 38.9072 126.908 38.7164 127.212 38.5822C127.623 38.4969 128.052 38.5767 128.405 38.8044C128.808 38.9985 129.129 39.3278 129.313 39.7348C129.497 40.1418 129.532 40.6005 129.412 41.0307C129.708 41.0612 129.93 41.2791 129.991 41.828C130.062 42.8265 129.787 43.8189 129.211 44.6382C129.329 44.9816 129.418 45.3343 129.477 45.6925C129.551 45.9131 129.551 46.1516 129.477 46.3722C129.225 46.895 128.122 47.4701 127.608 47.6574C127.094 47.8448 126.066 48.0496 125.595 47.6574C125.348 47.4453 125.154 47.1776 125.03 46.8762C124.906 46.5748 124.855 46.2483 124.881 45.9234Z" fill="#3D166D"/>
<path opacity="0.5" d="M76.093 108.997C76.1043 108.817 76.0881 108.636 76.045 108.461C75.4307 105.947 73.2523 104.318 70.7515 103.917C68.5077 103.555 66.3947 104.296 64.4211 105.329C64.025 103.997 63.238 102.814 62.1621 101.935C61.0862 101.056 59.771 100.52 58.3869 100.397C55.3894 100.153 52.7753 101.821 51.2025 104.204C50.2353 102.083 49.8344 99.6516 48.6189 97.6387C47.2334 95.347 45.0114 93.5302 42.2057 93.6784C37.1343 93.9441 33.8798 99.6342 32.0238 104.34C30.1322 102.962 27.8256 102.275 25.4886 102.392C23.4485 102.513 21.4463 102.997 19.5764 103.821C18.0689 104.44 15.7772 105.076 15.0235 106.644C14.86 106.977 14.7822 107.346 14.7969 107.716C13.5117 108.444 13.7774 110.87 15.6204 110.87H74.4809C74.7165 110.874 74.95 110.825 75.1648 110.728C75.3796 110.631 75.5705 110.489 75.7242 110.31C75.8779 110.131 75.9906 109.921 76.0543 109.694C76.118 109.468 76.1312 109.229 76.093 108.997Z" fill="#C7BBD5"/>
<path opacity="0.5" d="M219.498 74.5087C219.633 74.5087 219.768 74.5087 219.903 74.5087C219.845 74.4359 219.814 74.3449 219.816 74.2516C219.755 70.6703 222.604 67.6031 225.824 67.7164C225.998 65.0762 226.508 61.9349 228.747 60.5015C230.194 59.5692 232.154 59.543 233.392 60.7499C233.64 57.2644 234.084 53.6526 236.137 50.8555C238.067 48.2414 241.055 47.2132 243.979 48.2414C250.427 50.5157 251.494 58.4582 252.692 65.0413C253.355 61.8652 255.455 59.0812 258.321 58.0486C261.668 56.8374 265.423 58.236 267.628 61.1638C268.028 59.0725 269.296 57.0379 271.348 56.7721C272.024 56.7017 272.706 56.8249 273.315 57.1273C273.924 57.4297 274.434 57.8988 274.786 58.48C275.117 53.8182 274.664 48.9603 276.128 44.5381C277.247 41.166 279.522 37.8243 282.82 36.9137C286.406 35.9247 289.752 38.3123 291.969 41.2183C294.522 44.5425 296.174 48.773 296.932 53.0252C297.775 57.664 297.538 62.4347 296.239 66.967C300.421 65.2635 304.952 69.7293 303.118 74.6394C303.147 74.6714 303.167 74.7105 303.175 74.7526C303.183 74.7948 303.18 74.8384 303.166 74.8789C303.152 74.9194 303.127 74.9554 303.094 74.983C303.061 75.0106 303.021 75.0289 302.979 75.0359C297.581 75.4149 292.087 75.1709 286.697 75.1753H237.892C231.793 75.1753 225.611 75.4105 219.498 75.0533C219.426 75.0533 219.356 75.0246 219.305 74.9735C219.254 74.9225 219.226 74.8532 219.226 74.781C219.226 74.7088 219.254 74.6395 219.305 74.5884C219.356 74.5374 219.426 74.5087 219.498 74.5087Z" fill="#C7BBD5"/>
</svg>
