<svg width="792" height="507" viewBox="0 0 792 507" fill="none" xmlns="http://www.w3.org/2000/svg">
<g clip-path="url(#clip0)">
<path d="M627.839 44.6909H106.976V333.2H627.839V44.6909Z" fill="white"/>
<path d="M108.384 16.3494C110.786 16.3494 112.734 14.4018 112.734 11.9993C112.734 9.59685 110.786 7.64926 108.384 7.64926C105.982 7.64926 104.034 9.59685 104.034 11.9993C104.034 14.4018 105.982 16.3494 108.384 16.3494Z" fill="white"/>
<path d="M124.896 16.3494C127.298 16.3494 129.246 14.4018 129.246 11.9993C129.246 9.59685 127.298 7.64926 124.896 7.64926C122.493 7.64926 120.546 9.59685 120.546 11.9993C120.546 14.4018 122.493 16.3494 124.896 16.3494Z" fill="white"/>
<path d="M141.408 16.3494C143.81 16.3494 145.758 14.4018 145.758 11.9993C145.758 9.59685 143.81 7.64926 141.408 7.64926C139.005 7.64926 137.057 9.59685 137.057 11.9993C137.057 14.4018 139.005 16.3494 141.408 16.3494Z" fill="white"/>
<path d="M672.851 455.671L676.911 471.911L659.048 476.783L657.424 459.732L672.851 455.671Z" fill="#A0616A"/>
<path d="M607.893 475.971V491.398L590.029 494.647L586.781 486.527L593.277 472.724L607.893 475.971Z" fill="#A0616A"/>
<path d="M643.62 307.892L641.184 329.815L642.808 372.038C642.808 372.038 642.808 376.098 645.244 377.722C646.55 378.609 675.287 458.92 675.287 458.92C675.287 458.92 668.791 467.039 656.611 464.604L654.176 456.484C654.176 456.484 650.928 445.928 649.304 443.492C647.68 441.056 623.32 391.526 623.32 391.526L611.953 371.226L608.705 398.833C608.705 398.833 615.201 433.748 613.577 449.988C611.953 466.227 608.705 483.279 608.705 483.279L589.217 480.031C589.129 477.411 588.283 474.872 586.781 472.723C584.345 469.475 585.157 458.108 585.157 458.108V455.672L580.286 393.149L571.354 311.14L643.62 307.892Z" fill="#2F2E41"/>
<path d="M588.822 69.5174H140.458V294.462H588.822V69.5174Z" fill="#F5F5F5"/>
<path d="M569.57 88.4766L570.693 89.5996L513.749 146.543L495.882 128.675L464.515 160.043L426 121.529L360.485 187.043L330.706 157.263L265.588 222.382L229.059 185.852L162.12 252.79L160.997 251.667L229.059 183.606L265.588 220.136L330.706 155.018L360.485 184.798L426 119.283L464.515 157.797L495.882 126.429L513.749 144.298L569.57 88.4766Z" fill="#7B7095"/>
<path d="M423.22 131.126C417.957 131.126 413.691 126.86 413.691 121.597C413.691 116.334 417.957 112.067 423.22 112.067C428.483 112.067 432.75 116.334 432.75 121.597C432.75 126.86 428.483 131.126 423.22 131.126Z" fill="#FF6E00"/>
<path d="M362.073 193.861C356.81 193.861 352.544 189.595 352.544 184.332C352.544 179.069 356.81 174.803 362.073 174.803C367.336 174.803 371.603 179.069 371.603 184.332C371.603 189.595 367.336 193.861 362.073 193.861Z" fill="#FF6E00"/>
<path d="M229.456 193.861C224.193 193.861 219.926 189.595 219.926 184.332C219.926 179.069 224.193 174.803 229.456 174.803C234.719 174.803 238.985 179.069 238.985 184.332C238.985 189.595 234.719 193.861 229.456 193.861Z" fill="#FF6E00"/>
<path d="M588.405 160.112C600.513 160.112 610.329 150.297 610.329 138.189C610.329 126.081 600.513 116.265 588.405 116.265C576.297 116.265 566.482 126.081 566.482 138.189C566.482 150.297 576.297 160.112 588.405 160.112Z" fill="#A0616A"/>
<path d="M607.487 138.595L616.419 160.518L595.307 175.946L582.316 153.21L607.487 138.595Z" fill="#A0616A"/>
<path d="M608.705 155.24L616.825 151.18L621.696 162.548C621.696 162.548 653.364 172.292 650.928 216.95C648.492 261.609 642.808 278.661 642.808 278.661C642.808 278.661 656.611 307.892 648.492 311.14C640.372 314.388 571.354 326.567 569.73 315.2C568.106 303.832 575.414 237.25 575.414 237.25C575.414 237.25 572.978 189.343 593.277 179.6L589.217 170.668L608.705 155.24Z" fill="#3F3D56"/>
<path d="M564.046 312.764C564.046 312.764 545.371 332.251 555.926 337.123C566.482 341.995 572.978 315.2 572.978 315.2L564.046 312.764Z" fill="#A0616A"/>
<path d="M602.209 487.339L611.141 484.091C611.141 484.091 620.884 506.014 612.765 506.014H591.653C591.653 506.014 579.474 501.954 572.978 501.954C566.482 501.954 554.302 489.775 563.234 484.091C572.166 478.407 583.534 480.031 583.534 480.031L586.781 472.723L590.841 484.091C590.841 484.091 595.713 492.211 602.209 487.339Z" fill="#2F2E41"/>
<path d="M667.979 469.475C667.979 469.475 673.064 466.267 675.799 467.465C678.535 468.663 680.159 481.655 680.159 481.655C680.159 481.655 688.279 491.399 670.415 493.023C652.552 494.647 648.492 491.399 646.868 486.527C645.244 481.655 648.492 476.783 648.492 476.783L653.364 475.159C653.364 475.159 659.047 471.099 657.423 469.475C655.799 467.851 657.423 464.604 657.423 464.604C657.423 464.604 663.107 475.971 667.979 469.475Z" fill="#2F2E41"/>
<path d="M595.904 137.837C595.815 137.128 595.655 136.429 595.427 135.751C594.249 133.279 589.651 134.001 588.832 131.388C588.672 130.876 588.705 130.32 588.548 129.807C588.148 128.501 586.611 127.853 585.246 127.915C583.892 128.102 582.563 128.444 581.287 128.935C578.075 129.846 574.658 129.498 571.338 129.143C569.858 129.093 568.407 128.715 567.09 128.037C565.833 127.264 564.927 125.707 565.385 124.303C565.823 122.958 567.296 122.218 567.958 120.968C569.009 118.981 567.724 116.416 568.577 114.337C569.945 111.001 575.122 111.671 577.753 109.206C578.391 108.607 578.851 107.842 579.463 107.217C581.279 105.361 584.146 105.002 586.73 105.258C589.313 105.514 591.852 106.272 594.448 106.227C596.91 106.183 599.49 105.433 601.758 106.391C603.093 107.073 604.264 108.036 605.192 109.212L611.01 115.593C611.809 116.346 612.425 117.273 612.809 118.302C613.159 119.524 612.837 120.837 612.986 122.1C613.326 124.98 616.023 127.156 616.387 130.033C616.46 130.926 616.417 131.824 616.259 132.705L615.444 138.714C615.403 139.3 615.247 139.872 614.984 140.398C614.747 140.803 614.389 141.122 614.122 141.508C613.369 142.598 613.438 144.038 613.063 145.309C612.689 146.58 611.347 147.837 610.172 147.225C609.406 146.825 608.899 143.521 607.969 142.663C606.672 141.469 605.995 141.616 604.395 141.636C601.19 141.677 596.929 141.951 595.904 137.837Z" fill="#2F2E41"/>
<path d="M599.773 185.283C599.773 185.283 624.132 195.027 616.825 216.951C609.517 238.874 590.029 306.268 590.029 306.268L578.662 311.952L575.414 320.884L559.986 315.2L562.422 303.02L568.106 290.84L582.722 199.899C582.722 199.899 582.721 184.471 599.773 185.283Z" fill="#3F3D56"/>
<path opacity="0.1" d="M618.043 221.416L592.871 307.486L582.316 318.042L588.406 307.079L618.043 221.416Z" fill="black"/>
<path d="M122.445 235.336L127.192 269.086L147.231 304.946C153.032 310.219 147.758 322.876 147.758 322.876L142.485 319.184L141.43 312.856C141.43 312.856 118.227 286.489 112.426 280.161C106.625 273.833 104.516 239.028 104.516 239.028L122.445 235.336Z" fill="#F6C9A0"/>
<path d="M104.98 464.213C104.98 464.213 106.035 476.342 105.507 479.506C104.98 482.67 89.1596 478.978 89.1596 478.978C91.7964 473.705 93.3784 457.885 93.3784 457.885L104.98 464.213Z" fill="#F6C9A0"/>
<path d="M183.555 467.377C183.555 467.377 185.137 484.252 184.609 487.416C184.082 490.58 168.262 486.889 168.262 486.889C170.898 481.615 172.48 465.795 172.48 465.795L183.555 467.377Z" fill="#F6C9A0"/>
<path d="M151.239 196.848C161.832 196.848 170.42 188.261 170.42 177.667C170.42 167.074 161.832 158.486 151.239 158.486C140.645 158.486 132.058 167.074 132.058 177.667C132.058 188.261 140.645 196.848 151.239 196.848Z" fill="#F6C9A0"/>
<path d="M154.551 195.794C151.386 200.013 152.969 207.395 152.969 207.395C152.969 207.395 120.8 244.837 115 244.837C109.199 244.837 110.254 218.47 110.254 218.47C110.254 218.47 118.691 208.45 123.437 206.341C128.183 204.231 136.621 181.555 136.621 181.555C136.621 181.555 157.715 191.575 154.551 195.794Z" fill="#F6C9A0"/>
<path d="M176.172 267.513L196.814 302.188C200.582 308.386 193.574 339.759 193.574 339.759L190.41 406.732L185.137 474.216V481.598L167.734 481.071L161.933 408.841L153.496 354.525L139.785 396.185L117.109 447.338C115.173 453.647 112.794 459.812 109.989 465.786L105.77 473.169L89.9539 471.32L113.945 390.384L118.691 337.65C119.218 308.118 128.711 291.771 128.711 291.771V285.443L176.172 267.513Z" fill="#2F2E41"/>
<path d="M103.925 476.869C103.925 476.869 106.562 472.65 106.562 474.232C106.562 475.814 113.418 480.033 113.418 480.033C113.418 480.033 120.273 478.978 121.328 486.889C122.382 494.799 111.836 496.381 109.199 495.854C106.562 495.326 99.7066 496.381 99.7066 496.381C99.7066 496.381 94.4331 497.436 85.9956 496.381C77.5581 495.326 84.9409 481.088 85.9956 478.451C87.0503 475.814 92.3237 477.924 92.3237 477.924C101.816 480.56 103.925 476.869 103.925 476.869Z" fill="#2F2E41"/>
<path d="M183.027 484.779C183.027 484.779 185.664 480.56 185.664 482.143C185.664 483.725 192.519 487.943 192.519 487.943C192.519 487.943 199.375 486.889 200.43 494.799C201.484 502.709 190.937 504.291 188.301 503.764C185.664 503.236 178.808 504.291 178.808 504.291C178.808 504.291 173.535 505.346 165.097 504.291C156.66 503.236 164.043 488.998 165.097 486.361C166.152 483.725 171.426 485.834 171.426 485.834C180.918 488.471 183.027 484.779 183.027 484.779Z" fill="#2F2E41"/>
<path d="M146.64 206.868C159.824 193.157 174.062 227.434 174.062 227.434C174.062 227.434 178.808 240.091 175.117 246.946C171.426 253.802 178.808 269.095 178.808 269.095C160.749 284.469 142.753 298.682 126.074 288.607C128.183 275.95 121.328 269.622 116.582 257.493C111.835 245.364 102.871 248.001 102.871 248.001C102.871 248.001 103.398 234.29 104.98 223.216C106.562 212.141 120.8 207.983 120.8 207.983C123.382 212.62 133.457 220.579 146.64 206.868Z" fill="#3F3D56"/>
<path d="M169.844 229.017L174.59 262.767L194.629 298.626C200.43 303.9 195.156 316.556 195.156 316.556L189.883 312.865L188.828 306.536C188.828 306.536 165.625 280.169 159.824 273.841C154.023 267.513 151.914 232.708 151.914 232.708L169.844 229.017Z" fill="#F6C9A0"/>
<path d="M173.008 234.29L150.859 236.927C150.859 236.927 149.277 211.087 152.622 204.633C155.966 198.18 168.262 205.286 168.262 205.286C171.426 205.813 173.008 234.29 173.008 234.29Z" fill="#3F3D56"/>
<path d="M172.712 166.562C158.528 173.651 166.712 193.008 165.037 201.13C162.295 214.433 121.86 207.672 121.86 207.672C116.94 206.787 113.942 152.053 140.884 152.537C154.465 152.781 184.862 160.489 172.712 166.562Z" fill="#2F2E41"/>
<path d="M164.065 183.391C165.156 183.391 166.04 181.977 166.04 180.232C166.04 178.486 165.156 177.072 164.065 177.072C162.974 177.072 162.09 178.486 162.09 180.232C162.09 181.977 162.974 183.391 164.065 183.391Z" fill="#F6C9A0"/>
</g>
<path d="M17.5241 404.111L0 389.734L14.377 372.209L31.9011 386.586L17.5241 404.111ZM1.8763 389.549L17.3392 402.234L30.0247 386.771L14.5619 374.086L1.8763 389.549Z" fill="#3F3D56"/>
<path d="M71.2145 279.423C69.6322 279.423 68.0855 278.954 66.7699 278.075C65.4543 277.196 64.4289 275.946 63.8234 274.485C63.2179 273.023 63.0595 271.414 63.3682 269.862C63.6769 268.311 64.4388 266.885 65.5576 265.766C66.6764 264.647 68.1019 263.886 69.6538 263.577C71.2056 263.268 72.8141 263.427 74.276 264.032C75.7378 264.638 76.9872 265.663 77.8662 266.979C78.7453 268.294 79.2145 269.841 79.2145 271.423C79.2121 273.544 78.3685 275.578 76.8687 277.077C75.3689 278.577 73.3355 279.421 71.2145 279.423ZM71.2145 264.756C69.8959 264.756 68.607 265.147 67.5107 265.88C66.4144 266.613 65.5599 267.654 65.0553 268.872C64.5507 270.09 64.4187 271.431 64.6759 272.724C64.9331 274.017 65.5681 275.205 66.5004 276.137C67.4328 277.07 68.6207 277.704 69.9139 277.962C71.2071 278.219 72.5475 278.087 73.7657 277.582C74.9839 277.078 76.0251 276.223 76.7576 275.127C77.4902 274.031 77.8812 272.742 77.8812 271.423C77.8791 269.656 77.1761 267.961 75.9263 266.711C74.6765 265.461 72.982 264.758 71.2145 264.756Z" fill="#3F3D56"/>
<path d="M49.2839 189.333H31.9506V172H49.2839V189.333ZM33.2839 188H47.9506V173.333H33.2839V188Z" fill="#3F3D56"/>
<path d="M692.524 240.688L675 226.311L689.377 208.786L706.901 223.163L692.524 240.688ZM676.876 226.126L692.339 238.811L705.025 223.348L689.562 210.663L676.876 226.126Z" fill="#3F3D56"/>
<path d="M746.214 92C746.214 90.4178 746.684 88.871 747.563 87.5554C748.442 86.2398 749.691 85.2145 751.153 84.609C752.615 84.0035 754.223 83.845 755.775 84.1537C757.327 84.4624 758.752 85.2243 759.871 86.3432C760.99 87.462 761.752 88.8874 762.061 90.4393C762.369 91.9911 762.211 93.5997 761.606 95.0615C761 96.5233 759.975 97.7727 758.659 98.6518C757.343 99.5308 755.797 100 754.214 100C752.093 99.9976 750.06 99.154 748.56 97.6542C747.06 96.1545 746.217 94.121 746.214 92ZM747.548 92C747.548 93.3185 747.939 94.6075 748.671 95.7038C749.404 96.8001 750.445 97.6546 751.663 98.1592C752.881 98.6638 754.222 98.7958 755.515 98.5386C756.808 98.2813 757.996 97.6464 758.929 96.7141C759.861 95.7817 760.496 94.5938 760.753 93.3006C761.01 92.0074 760.878 90.667 760.374 89.4488C759.869 88.2306 759.015 87.1894 757.918 86.4569C756.822 85.7243 755.533 85.3333 754.214 85.3333C752.447 85.3354 750.753 86.0384 749.503 87.2882C748.253 88.538 747.55 90.2325 747.548 92Z" fill="#3F3D56"/>
<path d="M706.881 360C705.299 360 703.752 359.531 702.437 358.652C701.121 357.773 700.096 356.523 699.49 355.062C698.885 353.6 698.726 351.991 699.035 350.439C699.344 348.887 700.106 347.462 701.224 346.343C702.343 345.224 703.769 344.462 705.321 344.154C706.872 343.845 708.481 344.003 709.943 344.609C711.405 345.214 712.654 346.24 713.533 347.555C714.412 348.871 714.881 350.418 714.881 352C714.879 354.121 714.035 356.155 712.535 357.654C711.036 359.154 709.002 359.998 706.881 360ZM706.881 345.333C705.563 345.333 704.274 345.724 703.177 346.457C702.081 347.189 701.227 348.231 700.722 349.449C700.217 350.667 700.085 352.007 700.343 353.301C700.6 354.594 701.235 355.782 702.167 356.714C703.1 357.646 704.287 358.281 705.581 358.539C706.874 358.796 708.214 358.664 709.432 358.159C710.651 357.655 711.692 356.8 712.424 355.704C713.157 354.608 713.548 353.319 713.548 352C713.546 350.233 712.843 348.538 711.593 347.288C710.343 346.038 708.649 345.335 706.881 345.333Z" fill="#3F3D56"/>
<path d="M766.382 258.157H765.049V496.59H766.382V258.157Z" fill="#3F3D56"/>
<path d="M765.973 476.157C780.332 476.157 791.973 449.592 791.973 416.823C791.973 384.054 780.332 357.49 765.973 357.49C751.613 357.49 739.973 384.054 739.973 416.823C739.973 449.592 751.613 476.157 765.973 476.157Z" fill="#3F3D56"/>
<path d="M765.973 340.823C780.332 340.823 791.973 314.259 791.973 281.49C791.973 248.721 780.332 222.157 765.973 222.157C751.613 222.157 739.973 248.721 739.973 281.49C739.973 314.259 751.613 340.823 765.973 340.823Z" fill="#3F3D56"/>
<path d="M766.611 233.015L765.334 232.632C765.415 232.362 773.253 205.501 760.383 188.208C753.113 178.442 740.639 173.49 723.306 173.49V172.157C741.086 172.157 753.921 177.291 761.456 187.417C774.725 205.252 766.694 232.739 766.611 233.015Z" fill="#3F3D56"/>
<path d="M723.306 189.49C732.511 189.49 739.973 182.028 739.973 172.823C739.973 163.619 732.511 156.157 723.306 156.157C714.101 156.157 706.639 163.619 706.639 172.823C706.639 182.028 714.101 189.49 723.306 189.49Z" fill="#D0CDE1"/>
<defs>
<clipPath id="clip0">
<rect width="600" height="506.014" fill="white" transform="translate(82)"/>
</clipPath>
</defs>
</svg>
