<svg width="21" height="14" viewBox="0 0 21 14" fill="none" xmlns="http://www.w3.org/2000/svg">
<path d="M14.3889 7.22221C14.3889 9.37151 12.6493 11.1111 10.5 11.1111C8.35069 11.1111 6.61111 9.37151 6.61111 7.22221C6.61111 5.0729 8.35069 3.33332 10.5 3.33332C12.6493 3.33332 14.3889 5.0729 14.3889 7.22221ZM9.94444 6.1111V8.33332H9.66667C9.36111 8.33332 9.11111 8.58332 9.11111 8.88888C9.11111 9.19443 9.36111 9.44443 9.66667 9.44443H11.3333C11.6389 9.44443 11.8889 9.19443 11.8889 8.88888C11.8889 8.58332 11.6389 8.33332 11.3333 8.33332H11.0556V5.55554C11.0556 5.24999 10.8056 4.99999 10.5 4.99999H9.94444C9.63889 4.99999 9.38889 5.24999 9.38889 5.55554C9.38889 5.8611 9.63889 6.1111 9.94444 6.1111ZM0.5 2.77776C0.5 1.55033 1.49479 0.555542 2.72222 0.555542H18.2778C19.5035 0.555542 20.5 1.55033 20.5 2.77776V11.6667C20.5 12.8923 19.5035 13.8889 18.2778 13.8889H2.72222C1.49479 13.8889 0.5 12.8923 0.5 11.6667V2.77776ZM2.16667 4.44443V9.99999C3.3941 9.99999 4.38889 10.9965 4.38889 12.2222H16.6111C16.6111 10.9965 17.6076 9.99999 18.8333 9.99999V4.44443C17.6076 4.44443 16.6111 3.4479 16.6111 2.22221H4.38889C4.38889 3.4479 3.3941 4.44443 2.16667 4.44443Z" fill="white"/>
</svg>
