<svg width="20" height="20" viewBox="0 0 20 20" fill="none" xmlns="http://www.w3.org/2000/svg">
<path fill-rule="evenodd" clip-rule="evenodd" d="M18.3909 12.4834C17.2456 13.5114 15.99 14.429 14.6963 15.2604C12.0073 16.9886 9.00793 18.4499 6.0283 19.6077C5.04255 19.9908 3.87523 20.2122 2.89152 19.7003C2.24499 19.3638 1.81929 18.7789 1.5938 18.0974C1.42675 17.5925 1.35475 16.9987 1.26054 16.472C0.498377 12.2123 0.827083 7.24415 1.6851 2.9948C1.89791 1.94066 2.39992 0.518043 3.51916 0.139721C4.05653 -0.0418782 4.66537 -0.0313066 5.21622 0.0848195C5.39728 0.122993 5.5557 0.177158 5.72806 0.241327C9.39415 1.60573 12.675 3.30955 15.7585 5.72762C16.6318 6.41237 17.5885 7.12375 18.3909 7.88782C18.9142 8.38614 19.3983 8.95102 19.5278 9.68494C19.5631 9.88545 19.5704 10.0879 19.5549 10.2907C19.4931 11.0996 19.0605 11.9953 18.3909 12.4834H18.3909Z" fill="white"/>
<path fill-rule="evenodd" clip-rule="evenodd" d="M2.30575 17.8608C2.57229 18.6664 3.37182 19.8314 5.75326 18.9061C9.19482 17.5688 14.3377 15.1203 17.9169 11.8951C17.9169 11.8951 18.7176 11.3387 18.802 10.2332C18.8864 9.12779 18.0253 8.46322 15.2917 6.31962C12.6016 4.21012 9.58783 2.48154 5.46306 0.946475C5.31723 0.892209 5.21268 0.853568 5.05845 0.821048C4.77454 0.761195 4.24024 0.689398 3.75764 0.852497C3.05951 1.0885 2.62676 2.12095 2.4203 3.14357C2.22361 4.11761 0.947296 10.462 1.99885 16.3393C2.07289 16.7534 2.17898 17.4776 2.30578 17.8608H2.30575Z" fill="#FFB700"/>
<path fill-rule="evenodd" clip-rule="evenodd" d="M2.76784 1.98948L2.7678 1.98951C2.64786 2.40085 2.54693 2.93358 2.49146 3.62284L2.49316 3.60404C3.19196 3.3667 4.18621 3.27463 5.59605 3.44843C10.0998 4.00367 14.724 6.54258 17.2308 8.06761L17.9093 8.47099C17.7313 8.29923 17.5237 8.11475 17.284 7.91218L17.2839 7.91211L17.2357 7.87146L17.2113 7.85095C17.161 7.80888 17.1107 7.76699 17.0601 7.72529L17.0342 7.70388L16.9816 7.66069L16.955 7.63887L16.9282 7.61693L16.8739 7.57263L16.8464 7.55028L16.7907 7.50515L16.7626 7.48237L16.7055 7.4364L16.6767 7.41315L16.6183 7.36627L16.5888 7.34262L16.559 7.31883L16.5291 7.29488L16.4988 7.27076L16.4684 7.2465L16.4068 7.19749L16.3757 7.17273L16.3443 7.14784L16.3127 7.12278L16.2809 7.09755L16.2165 7.04657L16.1839 7.02084L16.1512 6.99494L16.1228 6.97253L16.1182 6.96888L16.0849 6.94265L16.0514 6.91626L16.0177 6.88966L16.0121 6.88524L15.9837 6.86289L15.9495 6.83596L15.915 6.80886L15.8987 6.79598L15.8803 6.78156L15.8454 6.75413L15.8102 6.72649L15.7827 6.70481L15.7748 6.69862L15.7391 6.67062L15.7032 6.64245L15.6671 6.61408L15.6641 6.61167L15.6307 6.58551L15.594 6.55677L15.5572 6.52783L15.5427 6.51652L15.52 6.49869L15.4826 6.46935L15.445 6.43984L15.4187 6.41923L15.4071 6.41013L15.3689 6.38026L15.3306 6.35015L15.2919 6.31987C12.6018 4.21036 9.58809 2.48178 5.46333 0.946719C5.31749 0.892453 5.21294 0.853812 5.05871 0.821292C4.7748 0.761439 4.24051 0.689642 3.7579 0.852741C3.7483 0.855986 3.73877 0.859432 3.72933 0.862979L3.7224 0.865588C3.71314 0.869135 3.7039 0.872781 3.69474 0.876595L3.69072 0.878335C3.68159 0.882149 3.67249 0.88613 3.66349 0.890245L3.66081 0.89145C3.65165 0.895665 3.64258 0.900081 3.63351 0.904564L3.62709 0.907776C3.61831 0.912164 3.6096 0.916692 3.60096 0.921359L3.59527 0.924504C3.58748 0.928753 3.57971 0.933103 3.57199 0.937552L3.5672 0.940295C3.55864 0.945347 3.55014 0.9505 3.54171 0.955752L3.53518 0.959834C3.52665 0.965187 3.51819 0.97064 3.50979 0.97626L3.50494 0.97954C3.49741 0.984592 3.48992 0.989777 3.48246 0.995063L3.47747 0.998543C3.46924 1.00443 3.46108 1.01045 3.45295 1.01654L3.44656 1.02143C3.43833 1.02768 3.43017 1.03397 3.42207 1.04043L3.4213 1.04107L3.4204 1.04183C3.41207 1.04849 3.4038 1.05528 3.39561 1.06221L3.39139 1.06576C3.38329 1.07261 3.3752 1.07961 3.36724 1.0867L3.36198 1.09138C3.35445 1.09811 3.34699 1.1049 3.33957 1.11182L3.33753 1.1137L3.33692 1.11427L3.33669 1.11447C3.32886 1.12179 3.32107 1.12932 3.3133 1.13688L3.30775 1.14234C3.29999 1.15 3.29223 1.15776 3.2845 1.16569L3.28135 1.16893C3.27426 1.17629 3.26713 1.18376 3.26008 1.19132L3.25589 1.19573C3.24847 1.20373 3.24114 1.21189 3.23378 1.22006L3.22843 1.22608C3.22097 1.23451 3.2135 1.24301 3.20614 1.2516L3.20297 1.25535C3.19634 1.26321 3.18968 1.27111 3.18313 1.27911L3.17848 1.28473C3.17145 1.29332 3.16449 1.30202 3.15753 1.31079L3.15215 1.31768C3.14526 1.32645 3.13843 1.33528 3.13167 1.34414L3.13037 1.34588L3.12849 1.34843C3.1223 1.35666 3.11611 1.36495 3.11002 1.37328L3.10407 1.38141C3.09765 1.39031 3.09122 1.39928 3.08487 1.40828L3.07868 1.41714C3.07205 1.42665 3.06546 1.43618 3.05894 1.44578L3.0588 1.44598L2.76784 1.98948ZM3.15542 1.56495C3.14719 1.57121 3.139 1.5775 3.13093 1.58396L3.15542 1.56495ZM2.88563 1.84214C2.87878 1.8509 2.87195 1.8597 2.86516 1.8686L2.88563 1.84214ZM2.83267 1.91514C2.82605 1.92464 2.81946 1.93418 2.81293 1.94378L2.83267 1.91514ZM2.81143 1.94716L2.80798 1.95244C2.80122 1.96285 2.79447 1.97332 2.78781 1.98389L2.78466 1.98884C2.77811 1.99931 2.77162 2.00982 2.76516 2.02043L2.76429 2.0218L2.76335 2.02334C2.7569 2.03398 2.75051 2.04471 2.74412 2.05549L2.74097 2.06081C2.73441 2.07201 2.72789 2.08326 2.72143 2.09456L2.71842 2.09992L2.7026 2.12815L2.69795 2.13655C2.69212 2.14719 2.6863 2.15796 2.68055 2.1687L2.67613 2.17697L2.65944 2.20878L2.65777 2.21199L2.65576 2.21594L2.63987 2.24726L2.63639 2.25415C2.63083 2.26529 2.62531 2.27647 2.61986 2.28767L2.61561 2.29647C2.60999 2.30815 2.60434 2.31982 2.59882 2.3316L2.59818 2.33294L2.59791 2.33351C2.59246 2.34515 2.58707 2.35689 2.58169 2.3686L2.57724 2.3783L2.56141 2.41357L2.5582 2.42089L2.81143 1.94716ZM2.86881 1.82273C2.86319 1.83441 2.85757 1.84609 2.85201 1.85786L2.86881 1.82273ZM2.81186 1.94957L2.81156 1.95023L2.81186 1.94957Z" fill="#FFDF77"/>
<path fill-rule="evenodd" clip-rule="evenodd" d="M2.49335 3.60404C3.19214 3.3667 4.18639 3.27463 5.59623 3.44844C10.1 4.00367 14.7242 6.54259 17.231 8.06762C15.1333 14.1326 5.93062 18.4733 5.93062 18.4733C4.82932 17.372 3.76739 16.3494 2.74477 8.75829C2.43376 6.44948 2.39582 4.7929 2.49335 3.60404Z" fill="#FFCE00"/>
<path fill-rule="evenodd" clip-rule="evenodd" d="M5.80313 5.99328C5.69029 6.33188 5.5774 6.67066 5.46735 7.01026C5.98549 7.00518 6.50348 7.00614 7.02139 7.00709C7.62547 7.00821 8.22944 7.00933 8.8334 7.00087C8.91442 6.66416 9.00643 6.32984 9.10556 5.99788C9.5596 6.58022 10.0223 7.15605 10.4849 7.7318C10.7597 8.07377 11.0345 8.41572 11.3074 8.75898C10.8941 9.11561 10.4842 9.47596 10.0744 9.83628C9.5061 10.3359 8.93788 10.8355 8.36063 11.325C8.36063 11.2443 8.3607 11.1635 8.36078 11.0828C8.36106 10.7993 8.36132 10.516 8.35825 10.2331C7.9264 10.2343 7.49453 10.2334 7.06266 10.2326C6.31222 10.2311 5.56177 10.2297 4.8113 10.2386C4.63982 11.0926 4.45532 11.9439 4.27083 12.7952C4.07871 13.6816 3.8866 14.5679 3.70923 15.4572C4.23158 15.4664 4.75395 15.4916 5.27632 15.5167C5.46899 15.526 5.66168 15.5353 5.85436 15.5437C5.95827 15.0951 6.05636 14.6449 6.15444 14.1948C6.29846 13.5339 6.44246 12.8731 6.60482 12.217C6.75898 12.2234 6.91327 12.2307 7.06763 12.2379C7.86166 12.275 8.65792 12.3123 9.45089 12.2398C10.5593 12.1266 11.6723 11.6916 12.4409 10.8632C13.2928 9.97514 13.6366 8.65908 13.4068 7.4579C13.3015 6.89858 13.0277 6.35499 12.5754 5.99708C11.9909 5.51016 11.2137 5.31665 10.4656 5.31742C9.47924 5.31691 8.49317 5.31708 7.50698 5.31725C7.01385 5.31733 6.52069 5.31742 6.02744 5.31742C5.95327 5.54276 5.87821 5.76798 5.80313 5.99328Z" fill="black"/>
</svg>
