<svg width="21" height="20" viewBox="0 0 21 20" fill="none" xmlns="http://www.w3.org/2000/svg">
<path d="M0.5 5.6006V4.80069C0.5 4.13801 0.919727 3.60081 1.4375 3.60081H15.5V1.20107C15.5 0.132833 16.5117 -0.400861 17.1004 0.352609L20.2254 4.35219C20.5915 4.82079 20.5915 5.5805 20.2254 6.04906L17.1004 10.0486C16.5139 10.7992 15.5 10.2729 15.5 9.20022V6.80048H1.4375C0.919727 6.80048 0.5 6.26328 0.5 5.6006ZM19.5625 13.1998H5.5V10.8001C5.5 9.73446 4.48977 9.19622 3.89957 9.95159L0.77457 13.9512C0.408477 14.4198 0.408477 15.1795 0.77457 15.648L3.89957 19.6476C4.4866 20.3989 5.5 19.8709 5.5 18.7992V16.3995H19.5625C20.0803 16.3995 20.5 15.8623 20.5 15.1996V14.3997C20.5 13.737 20.0803 13.1998 19.5625 13.1998Z" fill="white"/>
</svg>
