<svg width="24" height="20" viewBox="0 0 24 20" fill="none" xmlns="http://www.w3.org/2000/svg">
<path d="M19.5875 8.89732C19.5875 8.89732 19.9042 10.558 19.975 10.9062H18.5833C18.7208 10.5089 19.25 8.96429 19.25 8.96429C19.2417 8.97768 19.3875 8.55804 19.4708 8.29911L19.5875 8.89732ZM24 2.14286V17.8571C24 19.0402 23.1042 20 22 20H2C0.895833 20 0 19.0402 0 17.8571V2.14286C0 0.959821 0.895833 0 2 0H22C23.1042 0 24 0.959821 24 2.14286ZM6.35417 13.3571L8.9875 6.42857H7.21667L5.57917 11.1607L5.4 10.2009L4.81667 7.01339C4.72083 6.57143 4.425 6.44643 4.05833 6.42857H1.3625L1.33333 6.56696C1.99167 6.74554 2.57917 7.00446 3.09167 7.33036L4.58333 13.3571H6.35417ZM10.2875 13.3661L11.3375 6.42857H9.6625L8.61667 13.3661H10.2875ZM16.1167 11.0982C16.125 10.308 15.675 9.70536 14.7125 9.20982C14.125 8.89286 13.7667 8.67857 13.7667 8.35268C13.775 8.05804 14.0708 7.75446 14.7292 7.75446C15.275 7.74107 15.675 7.87946 15.975 8.01786L16.125 8.09375L16.3542 6.59375C16.025 6.45536 15.5 6.29911 14.8542 6.29911C13.2 6.29911 12.0375 7.24554 12.0292 8.59375C12.0167 9.58929 12.8625 10.1429 13.4958 10.4777C14.1417 10.817 14.3625 11.0402 14.3625 11.3393C14.3542 11.8036 13.8375 12.0179 13.3583 12.0179C12.6917 12.0179 12.3333 11.9062 11.7875 11.6473L11.5667 11.5357L11.3333 13.0938C11.725 13.2857 12.45 13.4554 13.2 13.4643C14.9583 13.4688 16.1042 12.5357 16.1167 11.0982ZM22 13.3661L20.65 6.42857H19.3542C18.9542 6.42857 18.65 6.55357 18.4792 7.00446L15.9917 13.3661H17.75C17.75 13.3661 18.0375 12.5089 18.1 12.3259H20.25C20.3 12.5714 20.45 13.3661 20.45 13.3661H22Z" fill="white"/>
</svg>
