<svg width="19" height="20" viewBox="0 0 19 20" fill="none" xmlns="http://www.w3.org/2000/svg">
<path d="M14.7268 19.4837H4.35675C2.02721 19.4837 0.121582 17.5554 0.121582 15.1981V4.70446C0.121582 2.34716 2.02721 0.418823 4.35675 0.418823H14.7268C17.0563 0.418823 18.962 2.34716 18.962 4.70446V15.1981C18.962 17.5554 17.0563 19.4837 14.7268 19.4837Z" fill="url(#paint0_linear_92_450)"/>
<path d="M6.47664 12.3246C6.39422 12.404 6.31571 12.4815 6.23525 12.555C6.12338 12.6582 6.00171 12.7436 5.8604 12.7973C5.515 12.9244 5.20492 12.7615 5.10483 12.404C5.05969 12.2452 5.06558 12.0863 5.09305 11.9274C5.12053 11.7586 5.14604 11.5898 5.18725 11.425C5.23043 11.2562 5.28734 11.0913 5.34426 10.9245C5.41687 10.712 5.49145 10.5015 5.56799 10.291C5.61705 10.158 5.61509 10.0209 5.6092 9.8839C5.60135 9.74091 5.66808 9.66148 5.80742 9.66942C5.92124 9.67538 6.03311 9.69126 6.1175 9.78063C6.21759 9.88589 6.25095 10.011 6.21366 10.148C6.14497 10.4062 6.06451 10.6624 5.99386 10.9206C5.93498 11.1311 5.88003 11.3436 5.83097 11.5561C5.81527 11.6295 5.81527 11.711 5.82312 11.7864C5.83882 11.9354 5.95853 12.0108 6.09395 11.9473C6.17245 11.9115 6.24506 11.8539 6.3059 11.7924C6.49823 11.5958 6.60813 11.3475 6.70037 11.0913C6.73177 11.002 6.7671 10.9106 6.7985 10.8213C6.87111 10.6187 6.94373 10.4141 7.01241 10.2096C7.07129 10.0348 7.12035 9.86007 7.17923 9.68531C7.27343 9.4033 7.56781 9.16698 7.86612 9.18287C8.02116 9.19081 8.05649 9.25635 8.02705 9.3894C7.97602 9.63367 7.90929 9.87794 7.84257 10.1182C7.54622 11.1926 7.24596 12.267 6.94765 13.3414C6.94176 13.3652 6.93588 13.3891 6.93195 13.4089C7.97013 13.2381 9.00635 13.0673 10.0524 12.8966C10.0936 12.6741 10.1387 12.4418 10.1858 12.1876C10.1446 12.2134 10.1211 12.2293 10.0956 12.2452C9.98566 12.3127 9.87183 12.3723 9.74427 12.3941C9.51661 12.4358 9.3498 12.3306 9.28111 12.1081C9.2713 12.0784 9.26345 12.0466 9.25363 12.0049C9.21242 12.0803 9.17709 12.1479 9.13784 12.2114C9.02205 12.3921 8.87486 12.5331 8.65702 12.5828C8.33909 12.6543 8.02705 12.4855 7.91518 12.1757C7.85238 12.0029 7.82687 11.8222 7.82098 11.6395C7.80332 11.1271 7.93285 10.6445 8.11929 10.1738C8.2076 9.95142 8.3175 9.73893 8.46077 9.54828C8.57067 9.4033 8.69235 9.27223 8.83954 9.16499C9.07701 8.99222 9.42634 8.96441 9.70305 9.22457C9.72072 9.17294 9.73838 9.12527 9.75212 9.07563C9.79137 8.94654 9.89342 8.91079 10.0249 8.92867C10.0759 8.93661 10.127 8.95051 10.176 8.9664C10.2742 9.00016 10.3252 9.07364 10.3271 9.17691C10.3271 9.24443 10.3154 9.31195 10.3016 9.37749C10.1937 9.88589 10.0779 10.3943 9.97585 10.9047C9.94248 11.0675 9.93856 11.2343 9.92286 11.4012C9.91893 11.4349 9.92482 11.4687 9.93267 11.5024C9.9523 11.5839 9.98958 11.6057 10.0661 11.5719C10.1211 11.5481 10.176 11.5183 10.2271 11.4846C10.3075 11.4309 10.3487 11.3555 10.3664 11.2582C10.5038 10.5154 10.647 9.77467 10.7903 9.03194C10.7923 9.02201 10.7942 9.01406 10.7962 9.00413C10.8394 8.79958 10.9159 8.7976 11.0866 8.82143C11.1494 8.82937 11.2103 8.84923 11.2692 8.87108C11.3457 8.89689 11.3634 8.93264 11.3555 9.01605C11.3496 9.0657 11.3437 9.11336 11.3555 9.16897C11.3987 9.11733 11.4399 9.06371 11.485 9.01208C11.54 8.94654 11.591 8.87505 11.6558 8.82341C11.8363 8.68241 12.0424 8.64468 12.2622 8.6983C12.4133 8.73603 12.5056 8.84327 12.5664 8.98229C12.6606 9.20074 12.6881 9.43309 12.694 9.66942C12.7057 10.1063 12.6096 10.5254 12.4859 10.9384C12.4153 11.1748 12.3289 11.4071 12.1994 11.6176C12.1288 11.7328 12.0522 11.846 11.9619 11.9453C11.5871 12.3584 11.1063 12.2154 10.8433 11.9711C10.8237 11.9532 10.806 11.9314 10.7707 11.8937C10.7236 12.2134 10.6804 12.5113 10.6333 12.8251C10.7216 12.8151 10.7962 12.8072 10.8708 12.7973C11.4635 12.7238 12.0561 12.6483 12.6508 12.5768C12.9197 12.545 13.1905 12.5172 13.4613 12.4974C13.6026 12.4875 13.7478 12.4934 13.8911 12.5053C14.1207 12.5252 14.2228 12.7476 14.1737 12.9422C14.1521 13.0316 14.0913 13.0951 13.9991 13.113C13.8342 13.1468 13.6713 13.1825 13.5045 13.2044C12.7685 13.2997 12.0346 13.3891 11.2986 13.4804C11.0631 13.5102 10.8276 13.546 10.5921 13.5738C10.5411 13.5797 10.5195 13.5976 10.5077 13.6472C10.4841 13.7386 10.4547 13.8299 10.4213 13.9193C10.388 14.0087 10.3252 14.0762 10.2408 14.1219C10.0975 14.2013 9.93856 14.1278 9.91305 13.965C9.89931 13.8716 9.91108 13.7763 9.91108 13.6711C9.77371 13.6909 9.64222 13.7048 9.51073 13.7287C8.63151 13.8855 7.75425 14.0544 6.88485 14.2609C6.81027 14.2788 6.72 14.2807 6.66897 14.3264C6.61991 14.3721 6.60813 14.4635 6.58458 14.5369C6.45113 14.95 6.30198 15.3571 6.10572 15.7444C5.89377 16.1614 5.63668 16.5467 5.29912 16.8704C5.09109 17.069 4.85755 17.2179 4.56905 17.2676C4.06076 17.355 3.63096 17.0114 3.59564 16.4891C3.57797 16.2409 3.6447 16.0065 3.7232 15.7742C3.82329 15.4783 3.97244 15.2102 4.15888 14.9639C4.25701 14.8328 4.36299 14.7038 4.48467 14.5965C4.9125 14.2212 5.36977 13.8895 5.91143 13.6969C5.94283 13.685 5.97816 13.677 6.00367 13.6592C6.03507 13.6353 6.07432 13.6055 6.0861 13.5698C6.22151 13.1647 6.353 12.7556 6.48449 12.3484C6.48057 12.3425 6.47664 12.3326 6.47664 12.3246ZM5.77602 14.5687C5.7505 14.5786 5.72303 14.5846 5.69948 14.5965C5.30304 14.7911 4.96352 15.0553 4.69269 15.4068C4.52392 15.6272 4.3728 15.8596 4.29626 16.1297C4.27271 16.2111 4.2629 16.3004 4.26486 16.3838C4.27075 16.5189 4.38261 16.5924 4.51018 16.5507C4.5612 16.5348 4.61027 16.505 4.65541 16.4752C4.79671 16.3799 4.90661 16.2528 5.01063 16.1177C5.24613 15.8079 5.43061 15.4683 5.58565 15.1129C5.66219 14.9401 5.72106 14.7574 5.78779 14.5806C5.79172 14.5767 5.79564 14.5727 5.7976 14.5687C5.78975 14.5687 5.78387 14.5687 5.77602 14.5687ZM12.062 9.83028C12.0503 9.76673 12.0424 9.6575 12.013 9.55424C11.958 9.37153 11.8344 9.32983 11.6852 9.44501C11.6008 9.51055 11.5184 9.59395 11.4654 9.68729C11.383 9.83227 11.3143 9.98915 11.2613 10.15C11.1259 10.5551 11.0376 10.9742 10.9512 11.3932C10.9395 11.4468 10.9532 11.4846 11.0003 11.5084C11.0415 11.5283 11.0847 11.5481 11.1279 11.5541C11.3006 11.5739 11.4497 11.5124 11.5616 11.3833C11.6381 11.2939 11.7048 11.1906 11.7519 11.0814C11.8265 10.9126 11.8834 10.7378 11.9403 10.5611C12.011 10.3407 12.0463 10.1083 12.062 9.83028ZM9.59119 9.88191C9.59512 9.69722 9.49699 9.6158 9.35372 9.65353C9.31643 9.66346 9.27915 9.67935 9.24382 9.69524C9.03579 9.79056 8.88468 9.94944 8.77281 10.1441C8.60796 10.43 8.50983 10.7398 8.47843 11.0695C8.46273 11.2264 8.47058 11.3853 8.53142 11.5342C8.54516 11.568 8.56086 11.6017 8.58048 11.6315C8.68253 11.7765 8.83954 11.7904 8.96122 11.6613C9.07112 11.5461 9.13784 11.4012 9.18691 11.2522C9.3027 10.8987 9.4126 10.5432 9.51858 10.1877C9.5539 10.0765 9.57353 9.96135 9.59119 9.88191Z" fill="#FDFCFD"/>
<path d="M10.1638 2.62335C11.1823 2.6869 11.987 3.15955 12.4266 4.16245C12.8682 5.16733 12.5699 6.35293 11.7299 7.05396C11.198 7.49881 10.5838 7.69542 9.89687 7.65967C9.68884 7.64974 9.48474 7.61201 9.28848 7.54052C9.19232 7.50477 9.10989 7.5147 9.02943 7.56832C8.90775 7.64974 8.78607 7.73116 8.66439 7.81457C8.58785 7.86621 8.51132 7.91784 8.43478 7.96749C8.40926 7.98338 8.38179 7.99927 8.35431 8.01118C8.22675 8.06877 8.16787 8.03501 8.16198 7.896C8.16002 7.81259 8.16395 7.72918 8.17376 7.64776C8.19535 7.47895 8.22086 7.31213 8.24637 7.14333C8.26796 7.00034 8.23656 6.88714 8.13843 6.76997C7.71452 6.26952 7.52219 5.68566 7.5536 5.02633C7.57715 4.52389 7.75377 4.07507 8.03834 3.67192C8.12273 3.55277 8.22675 3.44751 8.33076 3.34424C8.74486 2.93912 9.24727 2.72066 9.81444 2.64718C9.91649 2.63328 10.0166 2.6313 10.1638 2.62335ZM9.57501 6.40655C9.6751 6.3847 9.80659 6.36882 9.92827 6.32314C10.1814 6.22782 10.3188 5.96766 10.2717 5.7075C10.2442 5.56054 10.1657 5.44734 10.0441 5.36195C9.87921 5.24478 9.69277 5.17924 9.50829 5.10378C9.41212 5.06605 9.31399 5.02236 9.23353 4.96079C9.06475 4.83369 9.09615 4.61723 9.29044 4.53183C9.45137 4.46034 9.60641 4.48417 9.7536 4.57354C9.84584 4.62914 9.90079 4.71057 9.90276 4.82376C9.90276 4.84759 9.90668 4.87341 9.91453 4.89724C9.93808 4.98065 10.0068 5.03229 10.0833 5.02434C10.1657 5.0164 10.2305 4.95086 10.2305 4.86348C10.2344 4.64106 10.1579 4.45438 9.95967 4.34317C9.6908 4.19224 9.4082 4.17436 9.12363 4.29352C8.95485 4.36501 8.84495 4.49013 8.8214 4.68078C8.79588 4.88731 8.85476 5.06207 9.03335 5.17924C9.12952 5.24279 9.23549 5.29244 9.33951 5.34408C9.44352 5.39372 9.55342 5.43146 9.65744 5.48508C9.72417 5.51884 9.79286 5.56054 9.84584 5.61218C9.93416 5.69757 9.95967 5.80878 9.92435 5.92794C9.88902 6.04312 9.78893 6.06894 9.68688 6.08681C9.64174 6.09476 9.5966 6.09476 9.5495 6.09476C9.25708 6.09277 9.11185 5.9617 9.07849 5.66977C9.06671 5.56451 8.99803 5.50295 8.90382 5.50891C8.81158 5.51487 8.74682 5.59033 8.75467 5.69559C8.77626 5.99943 8.94111 6.27746 9.29044 6.36286C9.37287 6.3847 9.45922 6.38868 9.57501 6.40655ZM11.7044 4.3809C11.7024 4.29551 11.673 4.24983 11.6161 4.22203C11.5611 4.19621 11.4885 4.20812 11.4473 4.2538C11.4237 4.27763 11.4061 4.30742 11.3904 4.33721C11.0764 4.91909 10.7604 5.50097 10.4464 6.08284C10.4326 6.11065 10.415 6.13646 10.4052 6.16625C10.3816 6.23377 10.4071 6.30527 10.466 6.34499C10.5249 6.38272 10.6014 6.37875 10.6524 6.3291C10.674 6.30725 10.6917 6.28144 10.7054 6.25363C11.0273 5.65984 11.3492 5.06406 11.671 4.46828C11.6887 4.43253 11.6985 4.39679 11.7044 4.3809Z" fill="#01E0C5"/>
<path d="M12.7314 11.0094C12.7432 10.8068 12.7334 10.64 12.7648 10.4811C12.808 10.2627 12.8708 10.0482 12.9454 9.83768C13.0729 9.48021 13.2437 9.13863 13.4851 8.84472C13.6028 8.70173 13.7422 8.57066 13.8933 8.46342C14.0542 8.34625 14.2505 8.33036 14.4487 8.35419C14.5684 8.36809 14.6783 8.40185 14.7745 8.4793C14.8922 8.57463 14.955 8.69577 14.9786 8.84472C15.0041 9.01153 14.9746 9.17041 14.9236 9.32531C14.7117 9.95287 14.2897 10.3501 13.6499 10.505C13.6401 10.5069 13.6323 10.5129 13.6244 10.5109C13.5027 10.493 13.4733 10.5784 13.4458 10.6718C13.4046 10.8108 13.3869 10.9498 13.4223 11.0908C13.4595 11.2457 13.5793 11.3271 13.7363 11.3033C13.9149 11.2755 14.064 11.1841 14.1975 11.0709C14.3074 10.9776 14.4094 10.8743 14.5036 10.7671C14.6449 10.6082 14.7274 10.6162 14.8137 10.8148C14.8196 10.8287 14.8255 10.8426 14.8314 10.8565C14.9197 11.0431 14.8922 11.1961 14.7391 11.347C14.4918 11.5873 14.2406 11.8196 13.9168 11.9487C13.7991 11.9944 13.6735 12.0361 13.5479 12.048C13.2005 12.0818 12.9316 11.8971 12.8158 11.5615C12.7942 11.4979 12.7727 11.4324 12.7648 11.3649C12.7471 11.2338 12.7393 11.1027 12.7314 11.0094ZM13.6185 9.90123C13.6244 9.90917 13.6303 9.91712 13.6362 9.92506C13.7166 9.89329 13.803 9.87144 13.8795 9.83172C14.1033 9.71654 14.2858 9.55965 14.3761 9.3134C14.4035 9.23793 14.4212 9.15849 14.3976 9.07707C14.3741 8.99565 14.3113 8.94997 14.2308 8.9738C14.172 8.99167 14.1092 9.02345 14.0679 9.06714C13.8403 9.30148 13.7127 9.59341 13.6185 9.90123Z" fill="#FDFCFD"/>
<defs>
<linearGradient id="paint0_linear_92_450" x1="1.3661" y1="18.2251" x2="17.9119" y2="1.87419" gradientUnits="userSpaceOnUse">
<stop stop-color="#6F0384"/>
<stop offset="1" stop-color="#A221AF"/>
</linearGradient>
</defs>
</svg>
