<svg width="61" height="60" viewBox="0 0 61 60" fill="none" xmlns="http://www.w3.org/2000/svg">
<g clip-path="url(#clip0)">
<path opacity="0.5" d="M52.7183 39.5456C54.6977 38.4677 56.4021 36.9481 57.6993 35.1049C59.6764 31.8005 60.4748 27.9235 59.964 24.1068C58.9871 16.4392 54.3614 10.8365 47.3451 7.73547C33.7122 1.71094 16.0308 2.99874 5.98749 14.9442C4.84211 16.3013 3.83083 17.7662 2.96781 19.3183C-0.680952 26.3345 1.01391 34.1946 5.23997 40.5595C11.901 50.4993 23.1507 59.2104 35.0814 52.4532C39.6257 49.885 43.3262 46.0808 47.4561 42.8909C49.0769 41.6549 50.9494 40.6484 52.7183 39.5456Z" fill="#E8E4ED"/>
<path d="M6.71484 37.011C6.71484 37.4965 7.10824 37.8899 7.59375 37.8899C8.96707 37.8899 10.0842 39.0071 10.0842 40.3803C10.0842 40.8658 10.4776 41.2592 10.9631 41.2592H22.0746C24.474 43.0513 27.423 44.0709 30.5005 44.0709C33.6599 44.0709 36.5793 43.024 38.9304 41.2592H50.0381C50.5236 41.2592 50.917 40.8658 50.917 40.3803C50.917 39.0071 52.0342 37.8899 53.4074 37.8899C53.8929 37.8899 54.2863 37.4965 54.2863 37.011V30.9113C54.2863 30.4258 53.8929 30.0324 53.4074 30.0324C52.9219 30.0324 52.5285 30.4258 52.5285 30.9113V36.2235C50.8901 36.5696 49.5967 37.8629 49.2506 39.5014H40.8694C43.1668 36.9961 44.5711 33.6593 44.5711 30.0003C44.5711 26.3412 43.1667 23.0044 40.8694 20.4992H49.2507C49.5968 22.1377 50.8901 23.4311 52.5286 23.777V27.3971C52.5286 27.8825 52.922 28.276 53.4075 28.276C53.893 28.276 54.2864 27.8825 54.2864 27.3971V22.9895C54.2864 22.5041 53.893 22.1106 53.4075 22.1106C52.0343 22.1106 50.9171 20.9935 50.9171 19.6203C50.9171 19.1349 50.5238 18.7414 50.0382 18.7414H38.9305C36.5794 16.9765 33.6601 15.9297 30.5007 15.9297C27.3414 15.9297 24.422 16.9765 22.071 18.7414H10.9631C10.4776 18.7414 10.0842 19.1349 10.0842 19.6203C10.0842 20.9935 8.96707 22.1106 7.59375 22.1106C7.10824 22.1106 6.71484 22.5041 6.71484 22.9895V37.011ZM8.47266 23.7771C10.1112 23.4311 11.4046 22.1378 11.7506 20.4993H20.1319C17.8344 23.0045 16.4302 26.3413 16.4302 30.0004C16.4302 31.1965 16.5809 32.3855 16.8782 33.5344C16.9997 34.0043 17.4793 34.2868 17.9493 34.1651C18.4192 34.0436 18.7016 33.5639 18.58 33.094C18.3198 32.0889 18.188 31.048 18.188 30.0004C18.188 23.2111 23.7115 17.6877 30.5006 17.6877C37.2898 17.6877 42.8133 23.2111 42.8133 30.0004C42.8133 36.7896 37.2899 42.3132 30.5006 42.3132C26.1184 42.3132 22.0315 39.9536 19.8346 36.1554C19.5915 35.7352 19.0535 35.5918 18.6337 35.8347C18.2135 36.0777 18.0698 36.6154 18.313 37.0355C18.831 37.9311 19.4421 38.7552 20.128 39.5015H11.7506C11.4046 37.8631 10.1113 36.5697 8.47266 36.2236V23.7771Z" fill="#2B0D61"/>
<path d="M26.3588 36.4922C27.5951 37.301 28.4329 37.5295 29.5356 37.5833V38.6948C29.5356 39.1803 29.929 39.5737 30.4145 39.5737C30.9 39.5737 31.2934 39.1803 31.2934 38.6948V37.5164C33.4446 37.1241 34.7009 35.3642 34.9772 33.7207C35.3283 31.6323 34.2353 29.8162 32.1925 29.0942C31.8972 28.9898 31.5947 28.8801 31.2934 28.7655V24.0825C32.0872 24.2471 32.5617 24.6525 32.6004 24.6866C32.9574 25.0105 33.5094 24.9864 33.837 24.6315C34.1661 24.2748 34.1436 23.7186 33.7868 23.3895C33.7324 23.3394 32.8068 22.5064 31.2934 22.3006V21.3066C31.2934 20.8212 30.9 20.4277 30.4145 20.4277C29.929 20.4277 29.5356 20.8212 29.5356 21.3066V22.3682C29.3756 22.4016 29.2124 22.4424 29.0455 22.4927C27.7036 22.8969 26.7007 24.0461 26.4284 25.4921C26.1804 26.8079 26.6002 28.0752 27.5238 28.7996C28.0297 29.1964 28.6624 29.5597 29.5356 29.9452V35.8249C28.7354 35.7777 28.2087 35.6018 27.3212 35.0211C26.9149 34.7554 26.3702 34.8691 26.1045 35.2754C25.8387 35.6817 25.9526 36.2264 26.3588 36.4922ZM28.6088 27.4162C28.2034 27.0984 28.0299 26.4857 28.1558 25.8173C28.2729 25.1959 28.6972 24.4426 29.5356 24.1815V27.997C29.1842 27.8129 28.8677 27.6193 28.6088 27.4162ZM31.6067 30.7514C33.4348 31.3975 33.3218 32.9643 33.2436 33.4292C33.0871 34.3609 32.4237 35.353 31.2934 35.7058V30.6392C31.3961 30.6764 31.4994 30.7135 31.6067 30.7514Z" fill="#ED6E00"/>
<path d="M57.7589 12.6104H9.35023C8.86473 12.6104 8.47133 13.0039 8.47133 13.4893C8.47133 13.9746 8.86473 14.3682 9.35023 14.3682H57.7589C58.3011 14.3682 58.7422 14.8094 58.7422 15.3516V44.6494C58.7422 45.1916 58.3011 45.6329 57.7589 45.6329H3.24125C2.69902 45.6329 2.25781 45.1916 2.25781 44.6494V15.3516C2.25781 14.8094 2.69902 14.3682 3.24125 14.3682H5.83625C6.32176 14.3682 6.71516 13.9746 6.71516 13.4893C6.71516 13.0039 6.32176 12.6104 5.83625 12.6104H3.24125C1.72965 12.6104 0.5 13.8401 0.5 15.3516V44.6494C0.5 46.1609 1.72965 47.3907 3.24125 47.3907H57.759C59.2704 47.3907 60.5001 46.161 60.5001 44.6494V15.3516C60.5 13.8401 59.2704 12.6104 57.7589 12.6104Z" fill="#2B0D61"/>
</g>
<defs>
<clipPath id="clip0">
<rect width="60" height="60" fill="white" transform="translate(0.5)"/>
</clipPath>
</defs>
</svg>
