<svg width="140" height="140" viewBox="0 0 140 140" fill="none" xmlns="http://www.w3.org/2000/svg">
<path fill-rule="evenodd" clip-rule="evenodd" d="M70 0C88.6977 0 106.276 7.28137 119.497 20.5023C132.719 33.7239 140 51.3023 140 70C140 88.6977 132.719 106.276 119.497 119.497C106.276 132.719 88.6977 140 70 140C51.3021 140 33.7236 132.719 20.5023 119.497C7.28109 106.276 0 88.6977 0 70C0 51.3023 7.28109 33.7236 20.5023 20.5023C33.7233 7.28137 51.3021 0 70 0ZM8.20312 70C8.20312 104.075 35.925 131.797 70 131.797C104.075 131.797 131.797 104.075 131.797 70C131.797 35.925 104.075 8.20312 70 8.20312C35.925 8.20312 8.20312 35.925 8.20312 70ZM97.6425 47.5398C99.244 45.9383 101.841 45.9383 103.443 47.5395C105.044 49.1413 105.044 51.7384 103.443 53.34L64.323 92.4596C63.5224 93.2602 62.4724 93.6608 61.423 93.6608C60.3735 93.6608 59.3238 93.2605 58.5229 92.4596L36.5568 70.4935C34.955 68.8917 34.955 66.2946 36.5568 64.6931C38.1586 63.0916 40.7557 63.0916 42.3572 64.6931L61.4232 83.7591L97.6425 47.5398Z" fill="#ED6E00"/>
</svg>
