<svg width="150" height="150" viewBox="0 0 150 150" fill="none" xmlns="http://www.w3.org/2000/svg">
<path fill-rule="evenodd" clip-rule="evenodd" d="M147.78 51.7971L98.2079 2.2172C96.8002 0.796067 94.8821 -0.00249912 92.8816 5.87565e-06H92.859C90.8717 0.000945876 88.9683 0.799825 87.5754 2.2172L34.9891 54.796H7.51591C3.36493 54.796 0 58.1609 0 62.3119V132.46C0 136.611 3.36493 139.976 7.51591 139.976H44.6345L52.1103 147.459C53.518 148.88 55.4361 149.679 57.4366 149.676H57.4566C59.4446 149.676 61.3492 148.877 62.7428 147.459L70.2337 139.976H127.77C131.921 139.976 135.286 136.611 135.286 132.46V74.9236L147.768 62.4422C149.192 61.0477 149.997 59.1392 150 57.146C150.008 55.1373 149.208 53.2101 147.78 51.7971ZM115.91 27.0122L88.1265 54.796H66.8515L105.273 16.3747L115.91 27.0122ZM91.1229 5.74968C92.0758 4.77355 93.6398 4.75476 94.6162 5.70803C94.6239 5.71557 94.6316 5.72311 94.6392 5.7307C94.6455 5.73698 94.6518 5.7433 94.6579 5.74968L101.73 12.8322L59.764 54.796H42.0741L91.1229 5.74968ZM59.1953 143.927C58.7371 144.405 58.1039 144.676 57.4416 144.678C56.7702 144.677 56.1275 144.406 55.6578 143.927L51.722 139.976H63.1487L59.1953 143.927ZM130.276 132.46C130.276 133.844 129.154 134.965 127.77 134.965H7.51591C6.13235 134.965 5.01061 133.844 5.01061 132.46V97.3861H130.276V132.46ZM130.276 92.3755H5.01061V77.3437H130.276V92.3755ZM130.276 72.3331H5.01061V62.3119C5.01061 60.9283 6.13235 59.8066 7.51591 59.8066H127.77C129.154 59.8066 130.276 60.9283 130.276 62.3119V72.3331ZM144.238 58.8871L135.286 67.8386V62.3119C135.286 58.1609 131.921 54.796 127.77 54.796H95.2015L119.443 30.5547L144.228 55.3396C144.709 55.8113 144.98 56.457 144.979 57.1309C144.979 57.7923 144.711 58.4255 144.238 58.8871ZM67.6432 99.8914H82.675V104.902H67.6432V99.8914ZM87.6856 99.8914V104.902H102.717V99.8914H87.6856ZM122.76 99.8914H107.728V104.902H122.76V99.8914ZM25.053 128.998C24.7367 129.363 24.3941 129.706 24.0284 130.022C19.842 133.643 13.5136 133.184 9.89345 128.998C6.27297 124.812 6.73175 118.483 10.9181 114.863C15.1042 111.242 21.4329 111.701 25.053 115.887C26.5656 114.12 28.6528 112.942 30.948 112.56H31.0207L31.0858 112.543C31.575 112.453 32.0716 112.411 32.5689 112.418C38.1035 112.418 42.5902 116.904 42.5902 122.439C42.5607 125.733 40.9404 128.809 38.241 130.696C34.0583 133.59 28.366 132.856 25.053 128.998ZM32.5689 117.428C32.3563 117.423 32.144 117.441 31.9351 117.481C29.5034 117.833 27.6864 119.897 27.6445 122.354C27.5972 125.121 29.8022 127.402 32.5689 127.449C33.9788 127.45 35.3229 126.853 36.2693 125.808C36.2785 125.799 36.2889 125.791 36.299 125.784C36.3109 125.775 36.3225 125.767 36.3319 125.756C36.3918 125.681 36.4406 125.607 36.4887 125.533C36.5232 125.481 36.5573 125.429 36.595 125.377C37.2316 124.53 37.577 123.499 37.5796 122.439C37.5796 119.671 35.3364 117.428 32.5689 117.428ZM22.5477 122.439C22.5477 119.671 20.3045 117.428 17.5371 117.428C14.7697 117.428 12.5265 119.671 12.5265 122.439C12.5265 125.206 14.7697 127.449 17.5371 127.449C20.3045 127.449 22.5477 125.206 22.5477 122.439Z" fill="#2B0D61"/>
</svg>
