<svg width="140" height="140" viewBox="0 0 140 140" fill="none" xmlns="http://www.w3.org/2000/svg">
<path fill-rule="evenodd" clip-rule="evenodd" d="M119.497 20.5023C106.276 7.28137 88.6977 0 70 0C51.3021 0 33.7233 7.28137 20.5023 20.5023C7.28109 33.7236 0 51.3023 0 70C0 88.6977 7.28109 106.276 20.5023 119.497C33.7236 132.719 51.3021 140 70 140C88.6977 140 106.276 132.719 119.497 119.497C132.719 106.276 140 88.6977 140 70C140 51.3023 132.719 33.7239 119.497 20.5023ZM70 131.797C35.925 131.797 8.20312 104.075 8.20312 70C8.20312 35.925 35.925 8.20312 70 8.20312C104.075 8.20312 131.797 35.925 131.797 70C131.797 104.075 104.075 131.797 70 131.797ZM35.0109 109C33.9834 109 32.956 108.609 32.1754 107.823C30.6082 106.256 30.6082 103.715 32.1754 102.148L64.325 69.9983L32.1754 37.8513C30.6082 36.2832 30.6082 33.7425 32.1754 32.1754C33.7425 30.6082 36.2832 30.6082 37.8513 32.1754L69.9994 64.3239L102.148 32.1754C103.715 30.6082 106.256 30.6082 107.823 32.1754C109.39 33.7425 109.39 36.2832 107.823 37.8513L75.6748 69.9994L107.823 102.148C109.39 103.715 109.39 106.256 107.823 107.823C107.036 108.604 106.01 109 104.988 109C103.961 109 102.934 108.609 102.153 107.823L70.0007 75.6735L37.8513 107.823C37.0648 108.604 36.0374 109 35.0109 109Z" fill="#FF4337"/>
</svg>
