<svg width="150" height="123" viewBox="0 0 150 123" fill="none" xmlns="http://www.w3.org/2000/svg">
<path fill-rule="evenodd" clip-rule="evenodd" d="M140 0H10C4.48596 0 0 4.03734 0 9V75.6V80.1V90C0 94.9626 4.48596 99 10 99H63.75V107.719C63.75 108.961 64.8694 109.969 66.25 109.969C67.6306 109.969 68.75 108.961 68.75 107.719V99.5625H81.25V107.719C81.25 108.961 82.3694 109.969 83.75 109.969C85.1306 109.969 86.25 108.961 86.25 107.719V99H140C145.514 99 150 94.9626 150 90V80.1V75.6V9C150 4.03734 145.514 0 140 0ZM112.098 75.6H145V9C145 6.51882 142.757 4.5 140 4.5H10C7.2431 4.5 5 6.51882 5 9V75.6H102.399L93.9713 68.015L88.1707 73.2355C87.6682 73.6879 86.9411 73.8739 86.2494 73.7266C85.5577 73.5797 84.9999 73.1209 84.775 72.514L73.1741 41.1913C72.9283 40.5281 73.1202 39.7969 73.6695 39.3026C74.2187 38.8081 75.0314 38.6355 75.7681 38.8566L110.571 49.2975C111.245 49.4998 111.755 50.0019 111.918 50.6245C112.082 51.2471 111.875 51.9013 111.373 52.3536L105.572 57.574L117.399 68.2186C118.2 68.9393 118.2 70.108 117.399 70.8288L112.098 75.6ZM5 80.1V90C5 92.4813 7.2431 94.5 10 94.5H140C142.757 94.5 145 92.4813 145 90V80.1H5ZM112.387 120.481C111.977 121.667 110.576 122.331 109.258 121.961C88.2447 116.078 61.6206 116.115 40.7428 121.961C39.425 122.33 38.0234 121.668 37.6131 120.481C37.2028 119.294 37.9391 118.033 39.2575 117.664C61.1053 111.547 88.7668 111.511 110.743 117.664C112.061 118.033 112.797 119.294 112.387 120.481ZM95.4212 64.0996L107.248 74.7441L113.049 69.5237L101.222 58.8792C100.421 58.1585 100.422 56.989 101.222 56.269L106.126 51.8551L78.3621 43.526L87.6168 68.5135L92.521 64.0996C93.3217 63.3788 94.6204 63.3788 95.4212 64.0996ZM74.6602 30.9656C75.7927 30.9656 76.7109 30.1392 76.7109 29.12V18.0457C76.7109 17.0264 75.7927 16.2 74.6602 16.2C73.5276 16.2 72.6094 17.0264 72.6094 18.0457V29.12C72.6094 30.1392 73.5276 30.9656 74.6602 30.9656ZM55.8085 23.2277C56.6094 22.5069 57.908 22.5069 58.7087 23.2277L67.4095 31.0584C68.2104 31.7792 68.2104 32.9478 67.4095 33.6686C66.6087 34.3894 65.31 34.3894 64.5093 33.6686L55.8085 25.8379C55.0076 25.1171 55.0076 23.9486 55.8085 23.2277ZM64.5093 46.7196L55.8085 54.5504C55.0076 55.2712 55.0076 56.4397 55.8085 57.1605C56.6093 57.8814 57.908 57.8814 58.7087 57.1605L67.4095 49.3299C68.2104 48.6091 68.2104 47.4405 67.4095 46.7196C66.6086 45.9988 65.31 45.9988 64.5093 46.7196ZM93.5118 25.8379L84.811 33.6686C84.0103 34.3894 82.7115 34.3894 81.9108 33.6686C81.1099 32.9478 81.1099 31.7792 81.9108 31.0584L90.6116 23.2277C91.4125 22.5069 92.7111 22.5069 93.5118 23.2277C94.3127 23.9486 94.3127 25.1171 93.5118 25.8379ZM64.4062 40.1941C64.4062 39.1749 63.488 38.3484 62.3555 38.3484H61V37.8H57V38.3484H50.0508C48.9182 38.3484 48 39.1749 48 40.1941C48 41.2134 48.9182 42.0398 50.0508 42.0398H57V42.3H61V42.0398H62.3555C63.488 42.0398 64.4062 41.2134 64.4062 40.1941ZM75 90C76.6569 90 78 88.7912 78 87.3C78 85.8088 76.6569 84.6 75 84.6C73.3431 84.6 72 85.8088 72 87.3C72 88.7912 73.3431 90 75 90ZM75 93.6C78.866 93.6 82 90.7794 82 87.3C82 83.8206 78.866 81 75 81C71.134 81 68 83.8206 68 87.3C68 90.7794 71.134 93.6 75 93.6Z" fill="#2B0D61"/>
</svg>
