<svg width="140" height="140" viewBox="0 0 140 140" fill="none" xmlns="http://www.w3.org/2000/svg">
<path d="M43.75 87.5H20.4168C18.8059 87.5 17.5 86.1941 17.5 84.5832C17.5 82.9724 18.8059 81.6665 20.4168 81.6665H43.75C45.3608 81.6665 46.6668 82.9724 46.6668 84.5832C46.6668 86.1941 45.3608 87.5 43.75 87.5Z" fill="#607D8B"/>
<path d="M72.9168 99.1668H20.4168C18.8059 99.1668 17.5 97.8608 17.5 96.25C17.5 94.6392 18.8059 93.3332 20.4168 93.3332H72.9168C74.5276 93.3332 75.8335 94.6392 75.8335 96.25C75.8332 97.8608 74.5276 99.1668 72.9168 99.1668Z" fill="#607D8B"/>
<path d="M105 49.7C105.003 48.0493 105.715 46.4795 106.954 45.3893C108.151 44.3111 108.247 42.467 107.169 41.2702C107.101 41.1947 107.029 41.1231 106.954 41.0553C102.178 36.7303 94.8003 37.0962 90.4753 41.8723C86.1503 46.6484 86.5162 54.0263 91.2923 58.3513C95.7373 62.3763 102.51 62.3763 106.954 58.3513C108.151 57.2731 108.247 55.4291 107.169 54.2322C107.101 54.1568 107.029 54.0851 106.954 54.0173C105.713 52.9249 105.002 51.3527 105 49.7Z" fill="#CCCCCC"/>
<path d="M110.833 61.3668C117.277 61.3668 122.5 56.1434 122.5 49.7C122.5 43.2566 117.277 38.0332 110.833 38.0332C104.39 38.0332 99.1665 43.2566 99.1665 49.7C99.1665 56.1434 104.39 61.3668 110.833 61.3668Z" fill="#FF6E00"/>
<path d="M125.417 116.667H14.5832C6.52914 116.667 0 110.138 0 102.083V37.9168C0 29.8627 6.52914 23.3335 14.5832 23.3335H125.416C133.471 23.3335 140 29.8627 140 37.9168V102.084C140 110.138 133.471 116.667 125.417 116.667ZM14.5832 29.1668C9.75078 29.1668 5.83324 33.0843 5.83324 37.9168V102.084C5.83324 106.916 9.75078 110.834 14.5832 110.834H125.416C130.249 110.834 134.166 106.916 134.166 102.084V37.9168C134.166 33.0843 130.249 29.1668 125.416 29.1668H14.5832Z" fill="#7B7095"/>
<path d="M43.75 87.5H20.4168C18.8059 87.5 17.5 86.1941 17.5 84.5832C17.5 82.9724 18.8059 81.6665 20.4168 81.6665H43.75C45.3608 81.6665 46.6668 82.9724 46.6668 84.5832C46.6668 86.1941 45.3608 87.5 43.75 87.5Z" fill="#7B7095"/>
<path d="M72.9168 99.1668H20.4168C18.8059 99.1668 17.5 97.8608 17.5 96.25C17.5 94.6392 18.8059 93.3332 20.4168 93.3332H72.9168C74.5276 93.3332 75.8335 94.6392 75.8335 96.25C75.8332 97.8608 74.5276 99.1668 72.9168 99.1668Z" fill="#7B7095"/>
<path d="M99.1668 61.3668C92.7235 61.3957 87.4768 56.1958 87.4478 49.7528C87.4188 43.3095 92.6187 38.0628 99.0618 38.0338C101.976 38.0207 104.789 39.0986 106.948 41.0553C108.145 42.1334 108.241 43.9775 107.163 45.1743C107.095 45.2498 107.023 45.3214 106.948 45.3893C104.566 47.4805 104.33 51.1074 106.421 53.4898C106.585 53.6769 106.761 53.8527 106.948 54.0168C108.145 55.0949 108.241 56.939 107.163 58.1358C107.095 58.2113 107.023 58.2829 106.948 58.3507C104.817 60.2842 102.044 61.3586 99.1668 61.3668ZM99.1668 43.8668C95.9451 43.8668 93.3335 46.4784 93.3335 49.7C93.4082 52.9755 96.1242 55.5704 99.3997 55.4958C99.8186 55.4862 100.235 55.4323 100.643 55.335C98.6743 51.8361 98.6743 47.5639 100.643 44.065C100.162 43.9332 99.6652 43.8665 99.1668 43.8668Z" fill="#7B7095"/>
<path d="M32.0832 75.6H20.4168C18.8059 75.6 17.5 74.2941 17.5 72.6832C17.5 71.0724 18.8059 69.7665 20.4168 69.7665H32.0835C33.6943 69.7665 35.0003 71.0724 35.0003 72.6832C35 74.2941 33.6941 75.6 32.0832 75.6Z" fill="#7B7095"/>
<path d="M55.4168 75.6H43.75C42.1392 75.6 40.8332 74.2941 40.8332 72.6832C40.8332 71.0724 42.1392 69.7665 43.75 69.7665H55.4168C57.0276 69.7665 58.3335 71.0724 58.3335 72.6832C58.3332 74.2941 57.0276 75.6 55.4168 75.6Z" fill="#7B7095"/>
<path d="M78.75 75.6H67.0832C65.4724 75.6 64.1665 74.2941 64.1665 72.6832C64.1665 71.0724 65.4724 69.7665 67.0832 69.7665H78.75C80.3608 69.7665 81.6668 71.0724 81.6668 72.6832C81.6668 74.2941 80.3608 75.6 78.75 75.6Z" fill="#7B7095"/>
<path d="M110.833 61.3668C104.39 61.3668 99.1665 56.1433 99.1665 49.7C99.1665 43.2567 104.39 38.0332 110.833 38.0332C117.277 38.0332 122.5 43.2567 122.5 49.7C122.5 56.1433 117.277 61.3668 110.833 61.3668ZM110.833 43.8668C107.612 43.8668 105 46.4784 105 49.7C105 52.9216 107.612 55.5332 110.833 55.5332C114.055 55.5332 116.666 52.9216 116.666 49.7C116.667 46.4784 114.055 43.8668 110.833 43.8668Z" fill="#7B7095"/>
<mask id="path-13-inside-1" fill="white">
<rect x="18.2" y="35" width="42" height="28" rx="3"/>
</mask>
<rect x="18.2" y="35" width="42" height="28" rx="3" stroke="#7B7095" stroke-width="11.66" mask="url(#path-13-inside-1)"/>
</svg>
