<svg width="62" height="58" viewBox="0 0 62 58" fill="none" xmlns="http://www.w3.org/2000/svg">
<g opacity="0.5">
<path opacity="0.5" d="M40.1777 56.3934C37.8293 57.535 35.2367 58.0831 32.6272 57.9896C31.7449 57.9626 30.8652 57.88 29.9934 57.7422C19.0109 54.845 9.9839 47.0631 3.47105 36.5834C2.83313 35.417 2.26804 34.2121 1.77898 32.9758C-0.615446 26.7982 -0.950676 20.022 3.0161 14.6983C3.71922 13.7986 4.52254 12.9819 5.41053 12.264C10.6623 8.01788 18.5081 7.26762 25.2444 6.677C26.5949 6.60116 27.9485 6.60116 29.299 6.677C30.6369 6.74199 31.9696 6.88859 33.2897 7.11598C35.081 7.41517 36.8453 7.85823 38.5654 8.44089C50.2981 12.0964 64.3055 21.9614 60.3068 36.2801C58.5509 41.3484 55.0152 44.8682 51.3996 48.2523L49.2366 50.3035C48.2436 51.1164 47.3001 51.9879 46.4112 52.9134C45.3713 54.0388 44.0767 54.8982 42.6359 55.4196C41.8458 55.7708 41.0077 56.122 40.1777 56.3934Z" fill="#E8E4ED"/>
</g>
<path d="M24.5418 56.1222C23.0518 56.1143 21.6085 55.6007 20.4484 54.6654C19.2884 53.7302 18.4804 52.4287 18.1567 50.9741L16.297 42.5777C16.2823 42.5121 16.2807 42.4444 16.2922 42.3783C16.3037 42.3121 16.3282 42.2489 16.3641 42.1922C16.4001 42.1355 16.4468 42.0864 16.5017 42.0478C16.5566 42.0092 16.6186 41.9818 16.6841 41.9671C16.7496 41.9524 16.8174 41.9508 16.8835 41.9623C16.9497 41.9738 17.0129 41.9982 17.0696 42.0342C17.1263 42.0701 17.1753 42.1169 17.214 42.1718C17.2526 42.2267 17.28 42.2887 17.2947 42.3542L19.1544 50.7507C19.4825 52.1798 20.3594 53.4226 21.5957 54.211C22.8321 54.9994 24.3288 55.2702 25.763 54.9648L44.9184 50.7267C46.3491 50.4003 47.5938 49.5242 48.3839 48.2877C49.1739 47.0511 49.4457 45.5534 49.1406 44.1181L40.5686 5.36821C40.4117 4.65737 40.1163 3.98441 39.6992 3.38782C39.2821 2.79123 38.7515 2.2827 38.1377 1.89131C37.524 1.49992 36.8391 1.23336 36.1222 1.10684C35.4054 0.980331 34.6706 0.996361 33.9599 1.15401L14.8045 5.39215C13.3739 5.71855 12.1291 6.59465 11.3391 7.83121C10.5491 9.06776 10.2772 10.5655 10.5823 12.0008L11.7316 17.2047C11.7491 17.2714 11.7528 17.3409 11.7427 17.409C11.7325 17.4772 11.7087 17.5426 11.6726 17.6013C11.6365 17.6601 11.5889 17.7108 11.5326 17.7507C11.4764 17.7905 11.4126 17.8185 11.3453 17.8331C11.2779 17.8476 11.2083 17.8484 11.1406 17.8353C11.0729 17.8223 11.0086 17.7957 10.9515 17.7571C10.8944 17.7185 10.8457 17.6688 10.8083 17.6109C10.7709 17.553 10.7456 17.4881 10.734 17.4202L9.5607 12.2243C9.18524 10.5234 9.50068 8.74311 10.4376 7.27481C11.3746 5.80651 12.8564 4.77045 14.5571 4.39447L33.7125 0.156332C34.5542 -0.030772 35.4245 -0.0501316 36.2737 0.0993598C37.1229 0.248851 37.9342 0.564254 38.6614 1.02755C39.3886 1.49084 40.0173 2.09293 40.5117 2.79939C41.006 3.50585 41.3562 4.30282 41.5423 5.14473L50.1144 43.8946C50.4878 45.5962 50.1716 47.3765 49.2352 48.8456C48.2987 50.3146 46.8182 51.3526 45.118 51.7324L25.9625 55.9705C25.4958 56.0718 25.0195 56.1227 24.5418 56.1222Z" fill="#201752"/>
<path d="M10.7424 15.7045C10.6256 15.7055 10.512 15.6664 10.4205 15.5938C10.329 15.5212 10.2651 15.4194 10.2396 15.3054C10.2244 15.2398 10.2225 15.1719 10.234 15.1056C10.2456 15.0393 10.2703 14.9759 10.3068 14.9194C10.3433 14.8628 10.3907 14.8141 10.4463 14.7763C10.502 14.7384 10.5646 14.712 10.6306 14.6988L41.6305 7.84276C41.6972 7.82534 41.7667 7.82159 41.8349 7.83175C41.9031 7.8419 41.9685 7.86575 42.0272 7.90185C42.0859 7.93795 42.1367 7.98555 42.1765 8.04179C42.2164 8.09804 42.2444 8.16177 42.2589 8.22914C42.2735 8.29651 42.2743 8.36612 42.2612 8.43379C42.2481 8.50146 42.2215 8.56579 42.183 8.6229C42.1444 8.68001 42.0946 8.72874 42.0367 8.76612C41.9788 8.80351 41.914 8.82878 41.846 8.84044L10.8461 15.6965L10.7424 15.7045Z" fill="#201752"/>
<path d="M23.2092 8.23342C23.0924 8.23442 22.9787 8.19536 22.8872 8.12274C22.7957 8.05012 22.7319 7.94833 22.7064 7.83435C22.6912 7.76878 22.6893 7.70083 22.7008 7.63452C22.7124 7.56821 22.7371 7.5049 22.7736 7.44833C22.8101 7.39176 22.8575 7.34308 22.9131 7.30519C22.9688 7.26731 23.0314 7.24098 23.0974 7.22776L27.176 6.32586C27.241 6.31056 27.3084 6.30838 27.3742 6.31943C27.4401 6.33047 27.5031 6.35452 27.5596 6.39018C27.6161 6.42585 27.6649 6.47241 27.7031 6.52715C27.7414 6.58188 27.7684 6.64368 27.7825 6.70896C27.7979 6.77448 27.8002 6.84239 27.7892 6.90879C27.7783 6.97519 27.7543 7.03877 27.7187 7.09588C27.6831 7.15299 27.6366 7.20249 27.5818 7.24156C27.527 7.28063 27.465 7.30849 27.3994 7.32354L23.3209 8.23342H23.2092Z" fill="#201752"/>
<path d="M17.9496 48.3401C17.8335 48.3375 17.7216 48.2959 17.6318 48.2221C17.5421 48.1483 17.4798 48.0465 17.4548 47.9331C17.4263 47.8008 17.4515 47.6626 17.5249 47.5489C17.5982 47.4351 17.7136 47.3551 17.8459 47.3265L48.8458 40.4704C48.9781 40.442 49.1162 40.4672 49.2299 40.5405C49.3437 40.6138 49.4237 40.7293 49.4524 40.8615C49.4676 40.9271 49.4694 40.995 49.4579 41.0613C49.4463 41.1276 49.4216 41.1909 49.3851 41.2475C49.3486 41.3041 49.3012 41.3528 49.2456 41.3906C49.1899 41.4285 49.1273 41.4549 49.0613 41.4681L18.0614 48.3241L17.9496 48.3401Z" fill="#201752"/>
<path d="M39.3791 18.8485C39.2802 18.8495 39.1832 18.8218 39.0997 18.7687L32.946 14.8419C32.8894 14.8057 32.8405 14.7587 32.8021 14.7037C32.7636 14.6486 32.7364 14.5865 32.7219 14.5209C32.7075 14.4553 32.7061 14.3875 32.7178 14.3214C32.7296 14.2553 32.7543 14.1921 32.7904 14.1355C32.8266 14.0789 32.8735 14.03 32.9286 13.9915C32.9837 13.9531 33.0458 13.9258 33.1114 13.9114C33.177 13.8969 33.2447 13.8956 33.3109 13.9073C33.377 13.919 33.4402 13.9437 33.4968 13.9799L39.6505 17.9067C39.7436 17.9659 39.815 18.0537 39.854 18.1569C39.8931 18.2601 39.8977 18.3731 39.8671 18.4792C39.8366 18.5852 39.7725 18.6785 39.6846 18.745C39.5966 18.8116 39.4894 18.8479 39.3791 18.8485Z" fill="#201752"/>
<path d="M39.1717 14.9136C39.0728 14.9146 38.9757 14.8869 38.8923 14.8338L36.9209 13.5807C36.864 13.5443 36.8149 13.4969 36.7764 13.4414C36.738 13.3858 36.7109 13.3232 36.6968 13.2572C36.6827 13.1911 36.6818 13.1229 36.6943 13.0565C36.7067 12.9901 36.7322 12.9268 36.7692 12.8703C36.8043 12.8131 36.8504 12.7634 36.9049 12.7242C36.9595 12.6851 37.0213 12.6573 37.0868 12.6424C37.1522 12.6275 37.22 12.6259 37.2861 12.6376C37.3522 12.6494 37.4153 12.6742 37.4716 12.7107L39.443 13.9718C39.5576 14.0455 39.6385 14.1613 39.6684 14.2942C39.6982 14.4272 39.6746 14.5665 39.6027 14.6821C39.5559 14.7537 39.492 14.8124 39.4167 14.8528C39.3414 14.8932 39.2571 14.9141 39.1717 14.9136Z" fill="#201752"/>
<path d="M17.0955 40.2156C16.9953 40.2162 16.8978 40.1825 16.8194 40.12C16.741 40.0576 16.6864 39.9702 16.6645 39.8724L13.0808 23.6701C13.0682 23.6135 13.0669 23.555 13.077 23.4979C13.087 23.4408 13.1082 23.3862 13.1393 23.3373C13.1705 23.2884 13.2109 23.2461 13.2584 23.2128C13.3059 23.1795 13.3594 23.1559 13.416 23.1433C13.4726 23.1307 13.5312 23.1294 13.5883 23.1395C13.6454 23.1495 13.6999 23.1707 13.7489 23.2018C13.7978 23.233 13.8401 23.2734 13.8734 23.3209C13.9066 23.3684 13.9302 23.422 13.9428 23.4786L17.5265 39.6809C17.5394 39.7375 17.541 39.7961 17.5311 39.8533C17.5212 39.9106 17.5 39.9653 17.4689 40.0142C17.4377 40.0632 17.3971 40.1056 17.3494 40.1388C17.3018 40.172 17.248 40.1954 17.1913 40.2076L17.0955 40.2156Z" fill="#FF5100"/>
<path d="M5.49083 26.7981C5.38544 26.8023 5.28205 26.7685 5.19957 26.7027C5.11709 26.637 5.06103 26.5438 5.04165 26.4401C5.02227 26.3364 5.04088 26.2292 5.09405 26.1381C5.14721 26.0471 5.2314 25.9782 5.3312 25.9441C6.56454 25.5308 7.64958 24.7649 8.45195 23.7412C9.1258 22.8589 10.0365 22.1863 11.0778 21.8017C11.1772 21.784 11.2796 21.8012 11.3679 21.8502C11.4561 21.8992 11.5247 21.9772 11.5622 22.0709C11.5997 22.1646 11.6037 22.2684 11.5737 22.3647C11.5436 22.461 11.4812 22.5441 11.3971 22.5998C10.4774 22.9347 9.67561 23.5312 9.09045 24.3158C8.19584 25.4544 6.98962 26.3085 5.61853 26.7741C5.57764 26.7893 5.53445 26.7974 5.49083 26.7981Z" fill="#FF5100"/>
<path d="M21.9636 23.1587C20.4918 23.0906 19.0423 22.7722 17.6776 22.2169C16.8487 21.8296 15.9292 21.6777 15.0197 21.7779C14.9625 21.7834 14.9047 21.7773 14.8498 21.7601C14.7949 21.7429 14.744 21.7149 14.7001 21.6777C14.6563 21.6405 14.6203 21.5949 14.5943 21.5436C14.5683 21.4922 14.5528 21.4362 14.5488 21.3788C14.5434 21.3212 14.5493 21.2629 14.5665 21.2076C14.5836 21.1522 14.6115 21.1008 14.6486 21.0563C14.6857 21.0117 14.7313 20.975 14.7826 20.9482C14.834 20.9214 14.8902 20.905 14.9479 20.9C15.9901 20.7934 17.0419 20.9642 17.9968 21.3948C19.279 21.92 20.643 22.2171 22.0274 22.2728C22.1347 22.2872 22.2331 22.34 22.3043 22.4215C22.3755 22.503 22.4148 22.6075 22.4148 22.7157C22.4148 22.824 22.3755 22.9285 22.3043 23.01C22.2331 23.0914 22.1347 23.1443 22.0274 23.1587H21.9636Z" fill="#FF5100"/>
<path d="M3.21608 33.9413C3.15586 33.9405 3.09643 33.9274 3.04151 33.9026C2.98659 33.8779 2.93734 33.8422 2.89683 33.7976C2.84349 33.7411 2.80642 33.6712 2.78956 33.5953C2.7727 33.5194 2.77667 33.4404 2.80105 33.3666L5.05181 26.2312C5.07639 26.1572 5.11928 26.0906 5.17649 26.0375C5.2337 25.9845 5.30337 25.9468 5.37906 25.9279C5.45405 25.9115 5.53207 25.9155 5.60503 25.9393C5.678 25.9632 5.74327 26.0061 5.79409 26.0636L10.8543 31.5867C10.9062 31.6441 10.9424 31.714 10.9591 31.7896C10.9759 31.8651 10.9728 31.9438 10.9501 32.0177C10.9264 32.0915 10.8837 32.1576 10.8262 32.2095C10.7688 32.2613 10.6986 32.2971 10.6229 32.3131L3.31187 33.9093L3.21608 33.9413ZM5.66639 27.2209L3.89451 32.9037L9.71297 31.6187L5.66639 27.2209Z" fill="#FF5100"/>
<path d="M6.86286 36.8793C6.06689 36.8803 5.28776 36.6501 4.62007 36.2168C4.15623 35.9216 3.75527 35.5376 3.44024 35.087C3.12521 34.6364 2.90231 34.1279 2.78434 33.5909C2.76271 33.4779 2.78548 33.3609 2.84792 33.2643C2.91035 33.1677 3.00765 33.0988 3.11956 33.0721C3.17618 33.0592 3.2348 33.0576 3.29202 33.0675C3.34925 33.0774 3.40395 33.0986 3.45294 33.1297C3.50194 33.1609 3.54426 33.2015 3.57746 33.2492C3.61065 33.2968 3.63407 33.3506 3.64634 33.4073C3.83712 34.2607 4.3584 35.0037 5.09595 35.4734C5.83349 35.9432 6.72717 36.1014 7.58118 35.9135C8.00498 35.8209 8.40633 35.6455 8.76222 35.3975C9.11811 35.1494 9.42155 34.8336 9.65512 34.468C9.88869 34.1025 10.0478 33.6944 10.1233 33.2672C10.1989 32.84 10.1894 32.4022 10.0953 31.9787C10.0824 31.922 10.0808 31.8634 10.0907 31.8062C10.1006 31.749 10.1218 31.6943 10.153 31.6453C10.1841 31.5963 10.2247 31.554 10.2724 31.5208C10.32 31.4876 10.3738 31.4642 10.4306 31.4519C10.5447 31.428 10.6638 31.4496 10.7622 31.5123C10.8606 31.5749 10.9307 31.6735 10.9573 31.7871C11.076 32.3243 11.0875 32.8797 10.9912 33.4214C10.8949 33.963 10.6927 34.4804 10.3961 34.9438C10.0996 35.4072 9.71448 35.8075 9.26294 36.1218C8.8114 36.4361 8.30229 36.6583 7.76476 36.7755C7.46848 36.8409 7.16625 36.8757 6.86286 36.8793Z" fill="#FF5100"/>
<path d="M19.7211 30.2858C19.6524 30.2868 19.5844 30.2713 19.5229 30.2406C19.4614 30.2099 19.4081 30.165 19.3675 30.1095C19.3268 30.0541 19.3001 29.9897 19.2894 29.9218C19.2787 29.8539 19.2845 29.7844 19.3061 29.7191L21.5569 22.5758C21.5819 22.5028 21.6251 22.4375 21.6823 22.3858C21.7396 22.3342 21.809 22.2979 21.8841 22.2805C21.9591 22.2641 22.0371 22.268 22.1101 22.2918C22.183 22.3157 22.2483 22.3586 22.2991 22.4161L27.3594 27.9393C27.4113 27.995 27.4475 28.0636 27.4643 28.1379C27.4812 28.2122 27.478 28.2896 27.4552 28.3623C27.4306 28.4363 27.3877 28.503 27.3305 28.556C27.2733 28.609 27.2036 28.6467 27.1279 28.6656L19.8169 30.2619L19.7211 30.2858ZM22.1714 23.5734L20.3756 29.2562L26.1941 27.9712L22.1714 23.5734Z" fill="#FF5100"/>
<path d="M23.3763 33.2239C22.4241 33.2215 21.501 32.8956 20.7584 32.2995C20.0159 31.7034 19.498 30.8727 19.2898 29.9435C19.2644 29.8292 19.2855 29.7095 19.3483 29.6107C19.4112 29.5119 19.5107 29.4421 19.625 29.4167C19.7393 29.3913 19.8591 29.4124 19.9578 29.4752C20.0566 29.5381 20.1264 29.6376 20.1518 29.7519C20.2305 30.1897 20.3968 30.607 20.6407 30.9789C20.8846 31.3508 21.201 31.6697 21.571 31.9164C21.9411 32.1631 22.3571 32.3325 22.7942 32.4146C23.2313 32.4967 23.6805 32.4896 24.1148 32.394C24.5492 32.2983 24.9597 32.1159 25.3219 31.8578C25.684 31.5996 25.9903 31.271 26.2225 30.8917C26.4546 30.5123 26.6077 30.09 26.6728 29.65C26.7378 29.2101 26.7133 28.7615 26.6008 28.3312C26.5754 28.2169 26.5965 28.0972 26.6593 27.9984C26.7222 27.8996 26.8217 27.8299 26.936 27.8045C27.0503 27.7791 27.1701 27.8001 27.2688 27.863C27.3676 27.9258 27.4374 28.0254 27.4628 28.1397C27.6981 29.2243 27.4943 30.358 26.8961 31.2928C26.2978 32.2276 25.3537 32.8874 24.2702 33.1281C23.9763 33.1905 23.6768 33.2226 23.3763 33.2239Z" fill="#FF5100"/>
<path d="M13.0967 24.0127C12.5006 24.0139 11.9266 23.7865 11.493 23.3774C11.0593 22.9682 10.7989 22.4085 10.7654 21.8132C10.7319 21.218 10.9277 20.6326 11.3127 20.1773C11.6976 19.7221 12.2424 19.4317 12.8349 19.3658C13.4275 19.3 14.0227 19.4637 14.4982 19.8234C14.9737 20.183 15.2933 20.7112 15.3912 21.2993C15.4892 21.8873 15.358 22.4906 15.0247 22.9849C14.6915 23.4793 14.1815 23.8271 13.5996 23.9569C13.434 23.9908 13.2657 24.0095 13.0967 24.0127ZM13.0967 20.2375C12.9933 20.2257 12.8889 20.2257 12.7855 20.2375C12.5998 20.2781 12.424 20.355 12.2681 20.4637C12.1122 20.5724 11.9793 20.7108 11.877 20.871C11.7747 21.0311 11.705 21.2099 11.6719 21.397C11.6387 21.5841 11.6429 21.776 11.684 21.9615C11.7237 22.1477 11.8 22.3241 11.9084 22.4805C12.0168 22.637 12.1552 22.7703 12.3157 22.8728C12.4761 22.9753 12.6552 23.0448 12.8427 23.0775C13.0303 23.1101 13.2224 23.1052 13.408 23.0629C13.6883 23.002 13.944 22.8589 14.1427 22.6521C14.3414 22.4452 14.474 22.1839 14.5237 21.9014C14.5733 21.6189 14.5378 21.328 14.4215 21.0658C14.3053 20.8036 14.1136 20.582 13.8709 20.4291C13.64 20.281 13.371 20.2033 13.0967 20.2056V20.2375Z" fill="#FF5100"/>
<path d="M12.4977 41.237C12.3978 41.2362 12.3011 41.202 12.223 41.1398C12.1449 41.0775 12.0899 40.991 12.0667 40.8938C12.0538 40.8372 12.0522 40.7786 12.0621 40.7214C12.072 40.6642 12.0931 40.6095 12.1243 40.5605C12.1555 40.5115 12.1961 40.4691 12.2437 40.4359C12.2914 40.4027 12.3451 40.3793 12.4019 40.3671L21.5965 38.3318C21.7108 38.3064 21.8305 38.3274 21.9293 38.3903C22.0281 38.4532 22.0979 38.5527 22.1233 38.667C22.1487 38.7813 22.1276 38.901 22.0648 38.9998C22.0019 39.0986 21.9024 39.1684 21.7881 39.1938L12.5934 41.2211L12.4977 41.237Z" fill="#FF5100"/>
<path d="M4.06947 27.0294C3.30352 27.0223 2.55261 26.816 1.89054 26.4308C1.83814 26.403 1.79171 26.3652 1.75392 26.3195C1.71613 26.2738 1.68772 26.2211 1.6703 26.1644C1.65289 26.1077 1.64681 26.0481 1.65241 25.9891C1.65802 25.93 1.6752 25.8726 1.70298 25.8202C1.73075 25.7678 1.76858 25.7214 1.81429 25.6836C1.86001 25.6458 1.91273 25.6174 1.96942 25.6C2.02612 25.5826 2.08569 25.5765 2.14474 25.5821C2.20378 25.5877 2.26115 25.6049 2.31356 25.6327C2.73209 25.8827 3.1989 26.0412 3.68319 26.0976C4.16747 26.154 4.65821 26.1071 5.12301 25.9599L5.39439 25.8961C5.50868 25.8751 5.62663 25.9002 5.72238 25.9661C5.81813 26.0319 5.88388 26.133 5.9052 26.2472C5.92635 26.3625 5.90139 26.4814 5.83571 26.5785C5.77003 26.6755 5.66887 26.7428 5.55402 26.766L5.33852 26.8139C4.92669 26.9407 4.50007 27.0131 4.06947 27.0294Z" fill="#FF5100"/>
<path d="M21.9804 23.1508C21.8747 23.1494 21.773 23.11 21.694 23.0398C21.6151 22.9695 21.5641 22.8731 21.5505 22.7682C21.5369 22.6634 21.5616 22.5572 21.6201 22.4691C21.6785 22.381 21.7668 22.317 21.8687 22.2888C21.9576 22.2631 22.0483 22.2445 22.14 22.2329C22.6213 22.1684 23.0835 22.0028 23.4962 21.747C23.9089 21.4911 24.2627 21.1508 24.5345 20.7483C24.6032 20.6544 24.7059 20.591 24.8207 20.5717C24.9355 20.5523 25.0533 20.5785 25.149 20.6446C25.1964 20.678 25.2367 20.7204 25.2675 20.7694C25.2984 20.8185 25.3193 20.8731 25.3289 20.9303C25.3386 20.9874 25.3368 21.0459 25.3237 21.1023C25.3107 21.1588 25.2866 21.2121 25.2528 21.2592C24.9135 21.7537 24.475 22.1723 23.9652 22.4883C23.4555 22.8043 22.8856 23.0109 22.2917 23.0949L22.0762 23.1428L21.9804 23.1508Z" fill="#FF5100"/>
</svg>
