<svg width="61" height="54" viewBox="0 0 61 54" fill="none" xmlns="http://www.w3.org/2000/svg">
<g opacity="0.5">
<path opacity="0.5" d="M52.8104 7.6408C54.8058 8.62291 56.4732 10.1632 57.6102 12.0746C59.7905 15.4914 60.5064 19.6648 60.482 23.7163C60.4007 35.2929 54.8849 47.4552 43.7639 52.19C27.4932 59.0806 -5.78044 45.5597 0.866145 24.0498C2.88371 17.5415 8.70049 14.8243 15.0217 13.8806C21.5129 12.9908 27.9378 11.6699 34.2536 9.92683C40.0541 8.21841 46.7902 4.80969 52.8104 7.6408Z" fill="#E8E4ED"/>
</g>
<path d="M46.6518 46.5116C45.5496 46.5116 44.4722 46.1848 43.5558 45.5725C42.6394 44.9601 41.9251 44.0898 41.5033 43.0715C41.0815 42.0532 40.9712 40.9328 41.1862 39.8517C41.4012 38.7707 41.932 37.7778 42.7113 36.9984C43.4907 36.2191 44.4836 35.6883 45.5646 35.4733C46.6456 35.2583 47.7661 35.3686 48.7844 35.7904C49.8027 36.2122 50.673 36.9265 51.2854 37.8429C51.8977 38.7593 52.2245 39.8368 52.2245 40.9389C52.2245 42.4169 51.6374 43.8344 50.5923 44.8794C49.5472 45.9245 48.1298 46.5116 46.6518 46.5116ZM46.6518 36.4075C45.7556 36.4075 44.8795 36.6733 44.1343 37.1712C43.3891 37.6691 42.8083 38.3768 42.4654 39.2048C42.1224 40.0328 42.0327 40.944 42.2075 41.823C42.3824 42.702 42.8139 43.5094 43.4476 44.1431C44.0814 44.7768 44.8888 45.2084 45.7678 45.3833C46.6468 45.5581 47.5579 45.4684 48.3859 45.1254C49.2139 44.7824 49.9216 44.2016 50.4195 43.4564C50.9175 42.7113 51.1832 41.8352 51.1832 40.9389C51.1811 39.7378 50.703 38.5865 49.8536 37.7371C49.0043 36.8878 47.853 36.4097 46.6518 36.4075Z" fill="#201752"/>
<path d="M14.6557 46.5116C13.5535 46.5116 12.4761 46.1848 11.5597 45.5725C10.6433 44.9601 9.92899 44.0898 9.50721 43.0715C9.08542 42.0532 8.97506 40.9328 9.19009 39.8517C9.40511 38.7707 9.93586 37.7778 10.7152 36.9984C11.4946 36.2191 12.4875 35.6883 13.5685 35.4733C14.6495 35.2583 15.77 35.3686 16.7883 35.7904C17.8066 36.2122 18.6769 36.9265 19.2893 37.8429C19.9016 38.7593 20.2284 39.8368 20.2284 40.9389C20.2284 42.4169 19.6413 43.8344 18.5962 44.8794C17.5511 45.9245 16.1337 46.5116 14.6557 46.5116ZM14.6557 36.4075C13.7595 36.4075 12.8834 36.6733 12.1382 37.1712C11.393 37.6691 10.8122 38.3768 10.4693 39.2048C10.1263 40.0328 10.0366 40.944 10.2114 41.823C10.3862 42.702 10.8178 43.5094 11.4515 44.1431C12.0853 44.7768 12.8927 45.2084 13.7717 45.3833C14.6507 45.5581 15.5618 45.4684 16.3898 45.1254C17.2178 44.7824 17.9255 44.2016 18.4234 43.4564C18.9214 42.7113 19.1871 41.8352 19.1871 40.9389C19.185 39.7378 18.7069 38.5865 17.8575 37.7371C17.0082 36.8878 15.8569 36.4097 14.6557 36.4075Z" fill="#201752"/>
<path d="M55.0716 41.493H51.7036C51.5655 41.493 51.433 41.4381 51.3354 41.3405C51.2377 41.2428 51.1829 41.1104 51.1829 40.9723C51.1829 40.8342 51.2377 40.7018 51.3354 40.6042C51.433 40.5065 51.5655 40.4517 51.7036 40.4517H54.5509V33.0404H3.38769V40.4191H9.61123C9.75363 40.4191 9.8902 40.4757 9.9909 40.5764C10.0916 40.6771 10.1482 40.8137 10.1482 40.9561C10.1482 41.0985 10.0916 41.235 9.9909 41.3357C9.8902 41.4364 9.75363 41.493 9.61123 41.493H2.87515C2.73707 41.493 2.60464 41.4381 2.50699 41.3405C2.40935 41.2428 2.35449 41.1104 2.35449 40.9723V32.5441C2.35449 32.406 2.40935 32.2736 2.50699 32.1759C2.60464 32.0783 2.73707 32.0234 2.87515 32.0234H55.0797C55.2178 32.0234 55.3502 32.0783 55.4479 32.1759C55.5455 32.2736 55.6004 32.406 55.6004 32.5441V40.9398C55.6049 41.0115 55.5945 41.0834 55.5698 41.151C55.5452 41.2185 55.5068 41.2802 55.4571 41.3322C55.4074 41.3841 55.3475 41.4253 55.2812 41.4529C55.2148 41.4806 55.1435 41.4943 55.0716 41.493Z" fill="#201752"/>
<path d="M38.0854 41.4925H23.1896C23.0515 41.4925 22.9191 41.4376 22.8214 41.34C22.7238 41.2424 22.6689 41.1099 22.6689 40.9718C22.6689 40.8337 22.7238 40.7013 22.8214 40.6037C22.9191 40.506 23.0515 40.4512 23.1896 40.4512H38.0854C38.2235 40.4512 38.356 40.506 38.4536 40.6037C38.5512 40.7013 38.6061 40.8337 38.6061 40.9718C38.6061 41.1099 38.5512 41.2424 38.4536 41.34C38.356 41.4376 38.2235 41.4925 38.0854 41.4925Z" fill="#201752"/>
<path d="M55.072 33.0396H34.8312C34.6931 33.0396 34.5607 32.9847 34.463 32.8871C34.3654 32.7894 34.3105 32.657 34.3105 32.5189V12.3107C34.3105 12.1726 34.3654 12.0402 34.463 11.9425C34.5607 11.8449 34.6931 11.79 34.8312 11.79H44.7563C45.4094 11.7946 46.0505 11.965 46.6197 12.2852C47.1889 12.6053 47.6674 13.0648 48.0105 13.6205L54.9337 24.6846C55.3159 25.3061 55.5186 26.0213 55.5194 26.751V32.5433C55.5149 32.6654 55.4676 32.782 55.3858 32.8727C55.304 32.9634 55.1929 33.0225 55.072 33.0396ZM35.3844 31.9983H54.5513V26.751C54.553 26.216 54.4035 25.6915 54.1201 25.2378L47.1969 14.1737C46.9409 13.758 46.5815 13.4158 46.1537 13.1806C45.726 12.9453 45.2445 12.825 44.7563 12.8314H35.3844V31.9983Z" fill="#201752"/>
<path d="M50.0197 26.3036H38.2316C38.0935 26.3036 37.9611 26.2488 37.8634 26.1511C37.7658 26.0535 37.7109 25.9211 37.7109 25.783V15.6789C37.7109 15.5408 37.7658 15.4083 37.8634 15.3107C37.9611 15.2131 38.0935 15.1582 38.2316 15.1582H43.2837C43.3706 15.1584 43.4562 15.18 43.5329 15.2211C43.6095 15.2623 43.6748 15.3217 43.723 15.3941L50.459 25.4982C50.5071 25.5781 50.5325 25.6695 50.5325 25.7626C50.5325 25.8558 50.5071 25.9472 50.459 26.027C50.4164 26.1075 50.3534 26.1755 50.2763 26.224C50.1992 26.2725 50.1108 26.3 50.0197 26.3036ZM38.7523 25.2623H49.0435L43.0071 16.1995H38.7523V25.2623Z" fill="#201752"/>
<path d="M4.55094 17.8999C4.41285 17.8999 4.28042 17.8451 4.18277 17.7474C4.08513 17.6498 4.03027 17.5173 4.03027 17.3793V3.05289C4.03027 2.9148 4.08513 2.78237 4.18277 2.68473C4.28042 2.58708 4.41285 2.53223 4.55094 2.53223C4.68902 2.53223 4.82145 2.58708 4.9191 2.68473C5.01674 2.78237 5.0716 2.9148 5.0716 3.05289V17.363C5.07495 17.433 5.06389 17.503 5.03912 17.5685C5.01436 17.6341 4.9764 17.6939 4.9276 17.7443C4.8788 17.7946 4.8202 17.8344 4.75541 17.8611C4.69062 17.8879 4.62103 17.9011 4.55094 17.8999Z" fill="#201752"/>
<path d="M28.1272 24.6198H19.7071C19.6269 24.6207 19.5475 24.6028 19.4754 24.5675C19.4034 24.5321 19.3406 24.4804 19.2922 24.4164L4.59975 4.8183C4.23342 4.32989 4.03378 3.73666 4.03027 3.12615V2.83327C4.02983 2.25486 4.20657 1.69019 4.5367 1.21524C4.86683 0.740296 5.33451 0.377862 5.87682 0.176711C6.41913 -0.0244395 7.01004 -0.0546554 7.57004 0.0901296C8.13004 0.234915 8.63225 0.547753 9.00911 0.986549L28.534 23.7655C28.599 23.8421 28.6405 23.9358 28.6535 24.0354C28.6665 24.135 28.6504 24.2362 28.6072 24.3269C28.5644 24.4172 28.4962 24.493 28.4109 24.545C28.3257 24.597 28.227 24.623 28.1272 24.6198ZM19.9918 23.5784H27.0208L8.21185 1.66992C8.04631 1.47303 7.83958 1.31487 7.60623 1.20663C7.37288 1.09839 7.1186 1.0427 6.86137 1.0435C6.38735 1.04564 5.93337 1.23489 5.59818 1.57007C5.263 1.90526 5.07374 2.35926 5.0716 2.83327V3.12615C5.07335 3.51062 5.19887 3.8843 5.42956 4.19188L19.9918 23.5784Z" fill="#201752"/>
<path d="M31.4957 33.0395H16.3396C16.2544 33.0404 16.1704 33.02 16.0952 32.9802C16.0199 32.9404 15.9557 32.8826 15.9084 32.8118C15.8608 32.7407 15.8314 32.6589 15.8229 32.5738C15.8144 32.4887 15.827 32.4027 15.8596 32.3236L19.2276 23.9035C19.2654 23.8072 19.3315 23.7245 19.4172 23.6664C19.5028 23.6083 19.6041 23.5776 19.7076 23.5781H28.1277C28.2319 23.5792 28.3335 23.6105 28.4201 23.6683C28.5068 23.7261 28.5748 23.8078 28.6158 23.9035L31.9839 32.3236C32.0153 32.4034 32.0265 32.4897 32.0166 32.5748C32.0067 32.66 31.9758 32.7414 31.9269 32.8118C31.8802 32.8831 31.8161 32.9414 31.7407 32.9812C31.6653 33.0211 31.581 33.0411 31.4957 33.0395ZM17.1124 31.9982H30.7636L27.8104 24.6195H20.0981L17.1124 31.9982Z" fill="#201752"/>
<path d="M41.5996 12.8312H38.2316C38.0935 12.8312 37.9611 12.7764 37.8634 12.6787C37.7658 12.5811 37.7109 12.4487 37.7109 12.3106V10.6266C37.7109 10.0418 37.9432 9.48107 38.3567 9.06761C38.7701 8.65415 39.3309 8.42188 39.9156 8.42188C40.5003 8.42188 41.0611 8.65415 41.4746 9.06761C41.888 9.48107 42.1203 10.0418 42.1203 10.6266V12.3106C42.1214 12.3793 42.1087 12.4475 42.0829 12.5111C42.0571 12.5748 42.0188 12.6326 41.9703 12.6812C41.9217 12.7298 41.8639 12.7681 41.8002 12.7938C41.7365 12.8196 41.6683 12.8323 41.5996 12.8312ZM38.7523 11.7899H41.079V10.6266C41.079 10.318 40.9564 10.0221 40.7382 9.80394C40.5201 9.58577 40.2242 9.4632 39.9156 9.4632C39.6071 9.4632 39.3112 9.58577 39.093 9.80394C38.8748 10.0221 38.7523 10.318 38.7523 10.6266V11.7899Z" fill="#201752"/>
<path d="M6.23541 22.863H2.86737C2.7487 22.863 2.63488 22.8158 2.55097 22.7319C2.46706 22.648 2.41992 22.5342 2.41992 22.4155V17.3635C2.41992 17.2448 2.46706 17.131 2.55097 17.0471C2.63488 16.9632 2.7487 16.916 2.86737 16.916H6.23541C6.35407 16.916 6.46788 16.9632 6.55179 17.0471C6.6357 17.131 6.68284 17.2448 6.68284 17.3635V22.4155C6.68394 22.4746 6.67313 22.5333 6.65104 22.588C6.62894 22.6428 6.59602 22.6926 6.55425 22.7344C6.51248 22.7761 6.46271 22.8091 6.40793 22.8312C6.35314 22.8532 6.29447 22.8641 6.23541 22.863ZM3.3148 21.9681H5.75541V17.8109H3.3148V21.9681Z" fill="#FF5100"/>
<path d="M4.55138 27.9147C3.98608 27.9147 3.44394 27.6902 3.04421 27.2904C2.64449 26.8907 2.41992 26.3486 2.41992 25.7833C2.41992 25.6646 2.46706 25.5508 2.55097 25.4669C2.63488 25.383 2.7487 25.3358 2.86737 25.3358C2.98604 25.3358 3.09984 25.383 3.18375 25.4669C3.26767 25.5508 3.3148 25.6646 3.3148 25.7833C3.3148 26.0278 3.38733 26.2669 3.5232 26.4703C3.65908 26.6736 3.85221 26.8321 4.07816 26.9257C4.30412 27.0193 4.55275 27.0438 4.79263 26.9961C5.0325 26.9484 5.25283 26.8306 5.42577 26.6576C5.59871 26.4847 5.71649 26.2644 5.7642 26.0245C5.81191 25.7846 5.78742 25.536 5.69383 25.31C5.60023 25.0841 5.44174 24.891 5.23838 24.7551C5.03503 24.6192 4.79595 24.5467 4.55138 24.5467C4.49262 24.5467 4.43443 24.5351 4.38015 24.5126C4.32586 24.4901 4.27655 24.4572 4.235 24.4156C4.19345 24.3741 4.16048 24.3248 4.138 24.2705C4.11551 24.2162 4.10393 24.158 4.10393 24.0992V22.4152C4.10393 22.3565 4.11551 22.2983 4.138 22.244C4.16048 22.1897 4.19345 22.1404 4.235 22.0988C4.27655 22.0573 4.32586 22.0243 4.38015 22.0018C4.43443 21.9793 4.49262 21.9678 4.55138 21.9678C4.67005 21.9678 4.78387 22.0149 4.86778 22.0988C4.95169 22.1827 4.99883 22.2965 4.99883 22.4152V23.7006C5.51209 23.8124 5.966 24.1097 6.27348 24.5356C6.58095 24.9615 6.72034 25.486 6.66488 26.0083C6.60942 26.5307 6.36301 27.0141 5.97296 27.366C5.5829 27.7178 5.07667 27.9132 4.55138 27.9147Z" fill="#FF5100"/>
</svg>
