<svg width="61" height="58" viewBox="0 0 61 58" fill="none" xmlns="http://www.w3.org/2000/svg">
<g opacity="0.5">
<path opacity="0.5" d="M28.9491 8.72394C30.3455 8.36371 31.7674 8.11057 33.2024 7.96672C42.3454 7.05644 53.4379 7.92644 58.4726 16.6989C66.2865 30.337 52.0282 48.2444 39.9449 53.5853C25.6141 59.933 4.5005 56.0019 0.601615 38.6825C-3.20866 24.5611 11.8794 15.3214 23.3424 10.617C25.1595 9.84186 27.034 9.20894 28.9491 8.72394Z" fill="#E8E4ED"/>
</g>
<path d="M32.5096 40.3423C31.6056 40.34 30.7383 39.9844 30.0929 39.3514L29.0135 38.2962C28.9643 38.2488 28.925 38.1921 28.8979 38.1295C28.8707 38.0668 28.8563 37.9994 28.8555 37.9311C28.8547 37.8628 28.8674 37.795 28.893 37.7317C28.9185 37.6684 28.9564 37.6108 29.0045 37.5622C29.0525 37.5136 29.1097 37.4751 29.1727 37.4488C29.2357 37.4226 29.3034 37.4091 29.3717 37.4092C29.44 37.4093 29.5075 37.4229 29.5705 37.4493C29.6335 37.4758 29.6906 37.5144 29.7385 37.5631L30.8099 38.6103C31.2728 39.0596 31.8926 39.3109 32.5378 39.3109C33.1829 39.3109 33.8027 39.0596 34.2657 38.6103L35.3371 37.5631C35.385 37.5144 35.4421 37.4758 35.5051 37.4493C35.568 37.4229 35.6356 37.4093 35.7039 37.4092C35.7722 37.4091 35.8398 37.4226 35.9029 37.4488C35.9659 37.4751 36.0231 37.5136 36.0711 37.5622C36.1191 37.6108 36.157 37.6684 36.1826 37.7317C36.2082 37.795 36.2209 37.8628 36.2201 37.9311C36.2192 37.9994 36.2048 38.0668 36.1777 38.1295C36.1506 38.1921 36.1113 38.2488 36.0621 38.2962L34.9826 39.3514C34.656 39.6713 34.2693 39.9235 33.8449 40.0935C33.4205 40.2635 32.9667 40.3481 32.5096 40.3423Z" fill="#201752"/>
<path d="M32.5099 57.9275C32.3912 57.925 32.2783 57.8758 32.1957 57.7906L27.0402 52.5948C26.9857 52.5397 26.9466 52.4713 26.9268 52.3963C26.907 52.3214 26.9072 52.2426 26.9274 52.1678L30.4557 39.2306C30.469 39.1723 30.4939 39.1173 30.529 39.0688C30.5641 39.0204 30.6086 38.9796 30.6599 38.9488C30.7112 38.9181 30.7682 38.898 30.8275 38.8899C30.8867 38.8817 30.947 38.8857 31.0047 38.9014C31.0624 38.9172 31.1163 38.9445 31.1631 38.9817C31.21 39.0189 31.2488 39.0651 31.2773 39.1177C31.3058 39.1703 31.3234 39.2281 31.3289 39.2877C31.3345 39.3472 31.3279 39.4073 31.3096 39.4642L27.8538 52.1517L32.5099 56.8481L37.1821 52.1517L33.7182 39.4723C33.6999 39.4153 33.6934 39.3553 33.6989 39.2957C33.7045 39.2362 33.722 39.1784 33.7505 39.1258C33.779 39.0732 33.8179 39.0269 33.8647 38.9898C33.9116 38.9526 33.9655 38.9253 34.0231 38.9095C34.0808 38.8937 34.1411 38.8898 34.2004 38.8979C34.2596 38.9061 34.3166 38.9261 34.3679 38.9569C34.4192 38.9876 34.4637 39.0285 34.4988 39.0769C34.5339 39.1253 34.5589 39.1804 34.5721 39.2387L38.1004 52.1759C38.1206 52.2507 38.1208 52.3295 38.101 52.4044C38.0812 52.4793 38.0421 52.5477 37.9877 52.6028L32.8321 57.7986C32.7896 57.8403 32.7392 57.8732 32.6839 57.8953C32.6286 57.9174 32.5694 57.9284 32.5099 57.9275Z" fill="#201751"/>
<path d="M32.5095 57.9998C32.4418 58.0011 32.3745 57.9882 32.312 57.9618C32.2496 57.9354 32.1934 57.8962 32.147 57.8467L26.9915 52.6509C26.928 52.5863 26.8827 52.5061 26.8601 52.4184C26.8375 52.3308 26.8383 52.2387 26.8626 52.1514L30.3829 39.2223C30.4217 39.0962 30.5074 38.9897 30.6223 38.9249C30.7372 38.8601 30.8727 38.8418 31.0007 38.8738C31.1287 38.9058 31.2396 38.9856 31.3104 39.0969C31.3813 39.2082 31.4069 39.3425 31.3818 39.472L27.934 52.1192L32.5095 56.735L37.0931 52.1192L33.6454 39.472C33.6101 39.3395 33.6289 39.1985 33.6977 39.0799C33.7664 38.9613 33.8794 38.8749 34.0119 38.8397C34.1444 38.8044 34.2854 38.8232 34.404 38.8919C34.5226 38.9607 34.609 39.0737 34.6443 39.2062L38.1645 52.1353C38.1888 52.2226 38.1897 52.3146 38.167 52.4023C38.1444 52.49 38.0991 52.5702 38.0356 52.6348L32.8801 57.8306C32.8344 57.8841 32.7775 57.9269 32.7135 57.9561C32.6495 57.9853 32.5799 58.0002 32.5095 57.9998Z" fill="#201752"/>
<path d="M41.2093 52.6748C41.0902 52.6754 40.9747 52.6348 40.8822 52.5599C40.7897 52.485 40.7259 52.3805 40.7018 52.2639C40.6755 52.1295 40.7029 51.9901 40.7782 51.8756C40.8535 51.7612 40.9707 51.6808 41.1045 51.6517L53.0509 49.1786L51.5123 41.4373C51.1559 39.7165 50.2205 38.1698 48.862 37.0551C48.14 36.4228 47.2789 35.9701 46.3487 35.7339L39.2759 33.704C39.0721 33.6471 38.8789 33.5573 38.704 33.4381C38.4595 33.2719 38.2537 33.0549 38.1008 32.8018C37.9479 32.5488 37.8514 32.2658 37.8179 31.972L37.4876 29.1848C37.4794 29.0963 37.4936 29.0071 37.5288 28.9255C37.564 28.8439 37.619 28.7724 37.689 28.7176C39.6499 27.1374 41.0346 24.9542 41.6281 22.5067C41.6562 22.4039 41.7154 22.3123 41.7976 22.2445C41.8798 22.1767 41.981 22.136 42.0873 22.1281C43.0701 22.0395 43.8354 20.8312 43.8354 19.3651C43.8354 17.899 43.1829 16.8679 42.2887 16.6423C42.2226 16.6259 42.1603 16.5967 42.1055 16.5562C42.0507 16.5158 42.0044 16.4649 41.9693 16.4066C41.8983 16.2887 41.877 16.1475 41.9101 16.014C41.9432 15.8805 42.028 15.7655 42.1458 15.6945C42.2637 15.6235 42.4049 15.6023 42.5384 15.6354C43.9079 15.9818 44.8665 17.5204 44.8665 19.3651C44.8665 21.2098 43.8918 22.7484 42.5384 23.0948C41.8592 25.5403 40.4549 27.7225 38.5107 29.354L38.8007 31.8512C38.8156 31.9975 38.8631 32.1386 38.9398 32.264C39.0165 32.3895 39.1203 32.4962 39.2437 32.5762C39.33 32.6361 39.4251 32.6823 39.5257 32.7131L46.5501 34.7512C47.6437 35.0133 48.6614 35.5263 49.5226 36.2495C51.0541 37.5218 52.1009 39.2826 52.487 41.2359L54.0981 49.4767C54.1244 49.6112 54.097 49.7506 54.0217 49.865C53.9464 49.9795 53.8292 50.0599 53.6953 50.0889L41.2415 52.6667L41.2093 52.6748Z" fill="#201752"/>
<path d="M22.5528 52.4088H22.4401L11.2992 50.0888C11.1654 50.0598 11.0482 49.9794 10.9729 49.8649C10.8976 49.7505 10.8702 49.6111 10.8965 49.4766L12.5478 41.2358C12.9355 39.2963 13.9795 37.5495 15.5042 36.2897C16.3549 35.5496 17.3676 35.0198 18.4606 34.743L25.4609 32.713C25.5614 32.6822 25.6565 32.636 25.7428 32.5761C25.8662 32.4961 25.9701 32.3894 26.0468 32.2639C26.1234 32.1385 26.171 31.9974 26.1859 31.8511L26.4759 29.3539C24.532 27.7221 23.1278 25.5399 22.4481 23.0947C21.1028 22.7483 20.1281 21.2258 20.1281 19.365C20.1281 17.5042 21.0545 16.038 22.3756 15.6594C22.5081 15.622 22.6499 15.6381 22.7705 15.7045C22.8911 15.7708 22.9808 15.882 23.0201 16.0139C23.0573 16.1453 23.0409 16.2861 22.9745 16.4054C22.908 16.5247 22.7969 16.6128 22.6656 16.6503C21.8198 16.9161 21.1914 18.0439 21.1914 19.3328C21.1914 20.7908 21.997 22.0072 22.9395 22.0958C23.0444 22.1053 23.1438 22.1467 23.2244 22.2144C23.3051 22.2821 23.3631 22.3728 23.3906 22.4744C23.9919 24.9206 25.3784 27.1022 27.3378 28.6853C27.4069 28.7405 27.4608 28.8123 27.4946 28.894C27.5284 28.9757 27.541 29.0646 27.5312 29.1525L27.2089 31.9397C27.1754 32.2334 27.0789 32.5165 26.926 32.7695C26.7731 33.0226 26.5673 33.2396 26.3228 33.4058C26.1458 33.5265 25.9498 33.6163 25.7428 33.6716L18.7345 35.7097C17.7829 35.9467 16.9018 36.4079 16.1648 37.055C14.8205 38.1651 13.8989 39.7039 13.5548 41.413L12.0081 49.1544L22.6817 51.3858C22.8091 51.4085 22.9233 51.4783 23.0016 51.5813C23.0799 51.6843 23.1166 51.813 23.1044 51.9418C23.0922 52.0706 23.0321 52.1901 22.9359 52.2767C22.8397 52.3632 22.7144 52.4104 22.5851 52.4088H22.5528Z" fill="#201752"/>
<path d="M22.5529 16.6745C22.4202 16.6746 22.2926 16.6237 22.1966 16.5321C22.1006 16.4406 22.0435 16.3156 22.0373 16.1831C22.0157 14.4185 22.2879 12.6625 22.8429 10.9873C22.8639 10.9226 22.8974 10.8628 22.9416 10.8111C22.9858 10.7595 23.0398 10.7171 23.1004 10.6864C23.1611 10.6557 23.2272 10.6373 23.295 10.6323C23.3628 10.6272 23.4309 10.6356 23.4954 10.657C23.6247 10.7012 23.7316 10.7941 23.7933 10.916C23.855 11.038 23.8666 11.1792 23.8257 11.3095C23.3286 12.8718 23.0838 14.5034 23.1007 16.1428C23.1039 16.2106 23.0938 16.2783 23.0708 16.3421C23.0479 16.4058 23.0126 16.4645 22.9669 16.5146C22.9213 16.5648 22.8662 16.6054 22.8048 16.6342C22.7435 16.663 22.677 16.6795 22.6093 16.6826L22.5529 16.6745Z" fill="#201752"/>
<path d="M42.4177 16.6589C42.2802 16.6506 42.1515 16.5885 42.0595 16.4859C41.9675 16.3834 41.9197 16.2488 41.9263 16.1112C41.9525 14.4717 41.7103 12.8391 41.2093 11.2778C41.1666 11.1475 41.1774 11.0056 41.2393 10.8832C41.3013 10.7608 41.4093 10.6681 41.5396 10.6253C41.6699 10.5826 41.8119 10.5934 41.9343 10.6553C42.0566 10.7173 42.1494 10.8253 42.1921 10.9556C42.7264 12.6402 42.9822 14.4006 42.9493 16.1676C42.9411 16.3022 42.8811 16.4284 42.7821 16.5199C42.6831 16.6115 42.5525 16.6613 42.4177 16.6589Z" fill="#201752"/>
<path d="M37.1816 12.6878C36.673 12.6883 36.1648 12.6614 35.6591 12.6073C33.9316 12.3424 32.265 11.7723 30.7372 10.9237C30.3425 10.7303 29.9316 10.5289 29.5208 10.3437C28.2976 9.6501 26.85 9.4677 25.493 9.83617C24.7208 10.1028 24.0787 10.6527 23.6966 11.3748C23.6674 11.4354 23.6265 11.4897 23.5761 11.5344C23.5257 11.5791 23.4669 11.6133 23.4032 11.635C23.3395 11.6568 23.2721 11.6656 23.2049 11.661C23.1377 11.6565 23.0721 11.6386 23.0119 11.6084C22.8895 11.5492 22.7954 11.444 22.7501 11.3158C22.7048 11.1875 22.7121 11.0466 22.7703 10.9237C23.2817 9.94567 24.1545 9.2058 25.203 8.86145C26.5322 8.37811 28.1433 8.56339 29.98 9.40117C30.4069 9.5945 30.7855 9.79589 31.2205 9.98922C32.6303 10.7916 34.1713 11.3371 35.7719 11.6003C37.7012 11.8729 39.6677 11.5527 41.4108 10.682C41.5318 10.6261 41.6698 10.6193 41.7958 10.663C41.9217 10.7067 42.0259 10.7975 42.0863 10.9163C42.1468 11.0352 42.1588 11.1728 42.12 11.3003C42.0812 11.4278 41.9944 11.5354 41.878 11.6003C40.4228 12.3353 38.8118 12.7084 37.1816 12.6878Z" fill="#201752"/>
<path d="M32.5099 36.9184C32.3849 36.9201 32.2639 36.874 32.1716 36.7895L26.428 31.6501C26.3212 31.5582 26.2552 31.4277 26.2447 31.2872C26.2341 31.1467 26.2798 31.0077 26.3716 30.9009C26.4635 30.7941 26.594 30.7281 26.7345 30.7175C26.875 30.707 27.014 30.7526 27.1208 30.8445L32.5099 35.6778L37.9072 30.8445C38.0102 30.7538 38.1448 30.7071 38.2819 30.7147C38.4191 30.7222 38.5477 30.7833 38.6402 30.8848C38.7343 30.9836 38.7868 31.1149 38.7868 31.2513C38.7868 31.3878 38.7343 31.519 38.6402 31.6178L32.8966 36.7573C32.8477 36.8105 32.7878 36.8525 32.721 36.8803C32.6542 36.9081 32.5822 36.9211 32.5099 36.9184Z" fill="#201752"/>
<path d="M41.6847 45.5944C41.5553 45.5959 41.4301 45.5487 41.3339 45.4622C41.2377 45.3757 41.1775 45.2562 41.1654 45.1273C41.1532 44.9985 41.1899 44.8698 41.2682 44.7668C41.3465 44.6638 41.4607 44.594 41.5881 44.5713L48.0808 43.3469C48.2152 43.3231 48.3536 43.3528 48.4664 43.4295C48.5793 43.5062 48.6577 43.624 48.685 43.7577C48.699 43.8244 48.6993 43.8933 48.6861 43.9602C48.6729 44.0271 48.6463 44.0907 48.6079 44.1471C48.5696 44.2034 48.5203 44.2515 48.4629 44.2884C48.4056 44.3253 48.3414 44.3503 48.2742 44.3619L41.7814 45.5863L41.6847 45.5944Z" fill="#201752"/>
<path d="M23.1171 12.2605C22.9804 12.2605 22.8492 12.2062 22.7526 12.1095C22.6559 12.0128 22.6016 11.8817 22.6016 11.745V3.59277C22.6016 2.63991 22.9801 1.72607 23.6539 1.0523C24.3276 0.378523 25.2415 0 26.1943 0L38.616 0C39.5674 0.00213334 40.4792 0.381598 41.1512 1.05514C41.8233 1.72869 42.2007 2.6413 42.2007 3.59277V11.1166C42.2007 11.2534 42.1464 11.3845 42.0497 11.4812C41.953 11.5779 41.8219 11.6322 41.6851 11.6322C41.5484 11.6322 41.4173 11.5779 41.3206 11.4812C41.2239 11.3845 41.1696 11.2534 41.1696 11.1166V3.59277C41.1696 2.91477 40.9008 2.26442 40.4221 1.78424C39.9435 1.30407 39.294 1.03324 38.616 1.03111H26.1943C25.5156 1.03323 24.8653 1.3038 24.3853 1.78375C23.9054 2.26369 23.6348 2.91403 23.6327 3.59277V11.745C23.6338 11.813 23.6212 11.8805 23.5956 11.9436C23.5701 12.0066 23.5322 12.0639 23.4841 12.112C23.436 12.16 23.3787 12.198 23.3157 12.2235C23.2526 12.249 23.1851 12.2616 23.1171 12.2605Z" fill="#201752"/>
<path d="M32.405 8.05569C32.2875 8.05569 32.1748 8.00901 32.0917 7.92592C32.0086 7.84283 31.9619 7.73014 31.9619 7.61263V3.2868C31.9619 3.1693 32.0086 3.05661 32.0917 2.97352C32.1748 2.89043 32.2875 2.84375 32.405 2.84375C32.5225 2.84375 32.6352 2.89043 32.7183 2.97352C32.8013 3.05661 32.848 3.1693 32.848 3.2868V7.59652C32.8502 7.65604 32.8403 7.71539 32.819 7.77102C32.7977 7.82665 32.7655 7.87741 32.7241 7.92028C32.6827 7.96314 32.6332 7.99722 32.5783 8.02049C32.5235 8.04375 32.4645 8.05573 32.405 8.05569Z" fill="#FF5100"/>
<path d="M34.5561 5.88843H30.2544C30.1907 5.897 30.1258 5.89185 30.0642 5.87331C30.0026 5.85477 29.9457 5.82327 29.8973 5.78093C29.8489 5.73859 29.8101 5.68638 29.7835 5.62781C29.7569 5.56924 29.7432 5.50567 29.7432 5.44134C29.7432 5.37702 29.7569 5.31345 29.7835 5.25488C29.8101 5.19631 29.8489 5.1441 29.8973 5.10176C29.9457 5.05942 30.0026 5.02792 30.0642 5.00938C30.1258 4.99084 30.1907 4.98569 30.2544 4.99426H34.5561C34.6643 5.00883 34.7636 5.06217 34.8355 5.14439C34.9074 5.22661 34.947 5.33212 34.947 5.44134C34.947 5.55057 34.9074 5.65608 34.8355 5.7383C34.7636 5.82052 34.6643 5.87386 34.5561 5.88843Z" fill="#FF5100"/>
</svg>
