<svg width="42" height="57" viewBox="0 0 42 57" fill="none" xmlns="http://www.w3.org/2000/svg">
<g opacity="0.5">
<path opacity="0.5" d="M9.24068 56.429C8.64133 56.3836 8.04599 56.2956 7.45913 56.1657C5.58885 55.8015 3.90186 54.8022 2.6837 53.337C1.46555 51.8719 0.791066 50.0308 0.774414 48.1254C0.774414 44.0898 3.96573 40.7668 3.56294 36.6383C3.33057 34.2525 2.57921 31.9443 2.15318 29.5818C1.37859 25.2441 1.85108 20.5036 4.41497 16.9172C6.4444 14.0822 9.56602 12.2697 12.6644 10.6508C17.6063 8.10264 22.7331 5.93023 28.0013 4.15196C30.0002 3.33289 32.1467 2.93473 34.3064 2.98233C36.2933 3.20754 38.1418 4.111 39.5401 5.54037C40.9384 6.96974 41.8011 8.83758 41.9826 10.8289C42.3079 16.0264 37.916 20.3719 37.0485 25.5074C36.483 28.7994 37.4125 32.1456 37.4358 35.4841C37.432 38.3435 36.7739 41.164 35.5118 43.7297C34.2497 46.2955 32.4172 48.5383 30.1546 50.2865C26.2817 53.2145 21.4947 54.5081 16.7774 55.5615C14.3205 56.2142 11.7817 56.5064 9.24068 56.429Z" fill="#E8E4ED"/>
</g>
<path d="M31.7273 52.6804C31.5266 52.6768 31.3289 52.632 31.1463 52.5487L31.0534 52.5023C31.0191 52.4906 30.9875 52.4722 30.9604 52.448L30.6971 52.2931L30.5421 52.2002H30.5034L30.2555 52.0453H30.2091L30.0696 51.9523L29.9534 51.8749L29.7675 51.7509L29.6204 51.6425L29.4887 51.5418L29.3415 51.4333C29.2614 51.3723 29.1863 51.305 29.1169 51.2319C28.9061 51.0234 28.77 50.7511 28.7296 50.4574C28.7155 50.2389 28.6396 50.0289 28.5106 49.852C28.3817 49.6751 28.2051 49.5385 28.0015 49.4581H27.955C27.8858 49.4223 27.8132 49.3938 27.7381 49.3729C27.5241 49.324 27.3163 49.2512 27.1184 49.156C26.8093 48.9857 26.5208 48.7804 26.2587 48.5441L26.2044 48.4899L26.158 48.4512C25.958 48.2753 25.7268 48.1387 25.4763 48.0484L25.2517 47.9632L24.9806 47.8547C23.984 47.4611 23.0333 46.9598 22.1456 46.3598C21.9364 46.2203 21.7196 46.0809 21.5104 45.9105C21.301 45.7073 21.0269 45.5839 20.7358 45.5619H20.6893C20.5912 45.5705 20.4931 45.5459 20.4105 45.4922H20.364L19.8063 45.1746H19.7598L19.1479 44.8261C18.8613 44.6557 18.6289 44.5085 18.4353 44.3768C18.2334 44.2275 18.0443 44.0617 17.8699 43.8811C17.7072 43.7029 17.5678 43.5325 17.4748 43.4163C17.3388 43.2438 17.194 43.0783 17.041 42.9206C16.9032 42.7812 16.7556 42.6518 16.5995 42.5333H16.5608L16.4446 42.4481C16.3657 42.394 16.2906 42.3344 16.22 42.2699H16.1657C15.9591 42.1027 15.7743 41.9101 15.6158 41.6967L15.5383 41.5883L15.4919 41.5108C15.4514 41.4624 15.4151 41.4106 15.3834 41.3559C15.3059 41.2217 15.2285 41.0745 15.151 40.9144C15.0736 40.7517 14.9961 40.5736 14.9264 40.3877C14.9192 40.3389 14.9192 40.2893 14.9264 40.2405V40.1785C14.9233 40.1244 14.9233 40.0701 14.9264 40.0159V39.861C14.9237 39.8094 14.9237 39.7576 14.9264 39.706V39.6596C14.9341 39.6218 14.9472 39.5853 14.9651 39.5511C14.9786 39.52 14.9968 39.4912 15.0193 39.4659C15.1754 39.2949 15.2587 39.0699 15.2517 38.8385C15.2475 38.795 15.2343 38.7528 15.213 38.7146C15.1533 38.5646 15.0543 38.4335 14.9264 38.335H14.8877L14.818 38.2808C14.7712 38.2483 14.7294 38.2092 14.694 38.1646C14.6292 38.0997 14.5696 38.0298 14.5159 37.9555L14.4694 37.8858L14.3919 37.7773L14.3455 37.6921C14.206 37.4752 14.0821 37.2506 13.9349 37.0027L13.8187 36.7936L13.5864 36.414L13.5321 36.3211L13.4237 36.1507L13.323 35.9958L13.1991 35.8176C13.1498 35.7442 13.0954 35.6743 13.0364 35.6085C12.9173 35.4528 12.7879 35.3053 12.6491 35.1669C12.5636 35.0821 12.5114 34.9694 12.5019 34.8494C12.4987 34.8133 12.4987 34.777 12.5019 34.7409C12.4953 34.6105 12.4771 34.4809 12.4477 34.3536C12.4037 34.1817 12.3468 34.0134 12.2773 33.8501L12.2231 33.7107L12.1146 33.5016C12.1146 33.4319 12.0372 33.3699 11.9984 33.3002L11.859 33.0523C11.8125 32.9749 11.7661 32.8974 11.7273 32.8199C11.6886 32.7425 11.5337 32.5101 11.4485 32.3552C11.173 31.8769 10.8677 31.4164 10.5345 30.9764L10.3098 30.6821L10.0387 30.3412L9.79861 30.0237C9.53652 29.7219 9.36 29.3555 9.28738 28.9625V28.8773C9.29113 28.8076 9.29113 28.7378 9.28738 28.6681C9.26728 28.5552 9.22517 28.4473 9.16344 28.3506C9.136 28.3114 9.10192 28.2773 9.06274 28.2499C9.03326 28.231 9.00711 28.2075 8.9853 28.1801C8.93035 28.1403 8.88087 28.0934 8.83813 28.0407C8.78045 27.9608 8.73114 27.8751 8.69095 27.7851L8.62897 27.6844C8.5644 27.5175 8.51009 27.3467 8.46632 27.1732L8.39661 26.9485C8.37657 26.8718 8.35067 26.7967 8.31914 26.7239V26.6852L8.24943 26.5148C8.17825 26.359 8.08711 26.2132 7.97832 26.081C7.90464 25.9999 7.86091 25.896 7.85438 25.7867V25.4458C7.80871 24.8974 7.63636 24.3671 7.3509 23.8967C7.20793 23.6504 7.03348 23.4239 6.83194 23.2228C6.69288 23.0864 6.54259 22.9621 6.38267 22.851L6.32844 22.8122L6.14255 22.6806C6.01668 22.6069 5.90409 22.5127 5.80948 22.4017C5.79671 22.4044 5.7835 22.4044 5.77073 22.4017V22.363C5.68863 22.2478 5.62101 22.1229 5.56936 21.9912C5.37483 21.4453 5.11472 20.9251 4.79477 20.442C4.79477 20.3955 4.74054 20.3645 4.7173 20.3258L4.64759 20.2328L4.59336 20.1476L4.4152 19.8998L4.33776 19.8146C4.26805 19.7371 4.21383 19.6597 4.14411 19.5899L4.05114 19.4892L4.00467 19.4428L3.84976 19.2801C3.78125 19.209 3.70884 19.1418 3.63288 19.0787C3.00366 18.5286 2.28955 18.0839 1.51824 17.7619L1.40981 17.7154L1.31684 17.669L1.20066 17.6225L1.09223 17.576H1.03025H0.937299H0.898579C0.823606 17.5379 0.759184 17.4819 0.71103 17.413C0.662875 17.344 0.632462 17.2643 0.622503 17.1808C0.612544 17.0973 0.623353 17.0126 0.653942 16.9343C0.684532 16.8559 0.733968 16.7864 0.797878 16.7317C1.30136 16.3289 1.40205 15.9571 1.12319 15.4614C1.05427 15.3427 0.973844 15.2312 0.883072 15.1283L0.720414 14.9424L0.658457 14.8727C0.611515 14.8135 0.578737 14.7443 0.562626 14.6704C0.546516 14.5966 0.547482 14.5201 0.565487 14.4467C0.561883 14.421 0.561883 14.3949 0.565487 14.3692C0.565487 14.2995 0.619708 14.1601 0.371839 13.9277C0.213386 13.7636 0.101162 13.5605 0.0465246 13.339C-0.0155082 13.1029 -0.0155082 12.8547 0.0465246 12.6186C0.0614543 12.5464 0.0848509 12.4762 0.116235 12.4095C0.171364 12.2711 0.252923 12.1448 0.356356 12.0377C0.552147 11.8304 0.730886 11.6076 0.890825 11.3715L0.968289 11.2708L1.19293 10.961C1.48669 10.5961 1.85684 10.3 2.27735 10.0935L2.47873 9.98502C2.55244 9.94502 2.63498 9.92407 2.71885 9.92407C2.80271 9.92407 2.88528 9.94502 2.95899 9.98502C3.03038 10.0289 3.08924 10.0905 3.12995 10.1637C3.17065 10.237 3.1918 10.3195 3.19136 10.4033V10.4963C3.21562 10.6966 3.1862 10.8997 3.10614 11.0849C3.06631 11.1606 3.00763 11.2246 2.93575 11.2708C2.89074 11.3018 2.84105 11.3253 2.78858 11.3406C2.72093 11.3305 2.65181 11.3405 2.58983 11.3695C2.52785 11.3984 2.47574 11.4449 2.44001 11.5032C2.43233 11.6096 2.46558 11.7149 2.53295 11.7976C2.60993 11.8885 2.65219 12.0038 2.65219 12.1229C2.65219 12.242 2.60993 12.3573 2.53295 12.4482L2.35481 12.6341H2.76534H2.8273C3.03712 12.6287 3.24008 12.5583 3.40824 12.4327L3.5709 12.332C3.6728 12.2759 3.79099 12.2569 3.90536 12.278C4.01974 12.2992 4.12326 12.3594 4.19832 12.4482C4.23622 12.4906 4.28286 12.5243 4.33499 12.5471C4.38713 12.5698 4.44355 12.581 4.50042 12.5799C4.56726 12.5887 4.63497 12.5887 4.70182 12.5799C4.76998 12.566 4.84026 12.5665 4.90825 12.5811C4.97625 12.5958 5.04045 12.6244 5.09684 12.6651C5.1545 12.7032 5.20311 12.7534 5.23924 12.8123C5.27538 12.8712 5.29818 12.9373 5.306 13.0059C5.33429 13.2818 5.42715 13.5472 5.57709 13.7805C5.62254 13.845 5.67446 13.9047 5.73201 13.9587C5.85014 14.072 5.99794 14.1496 6.15831 14.1825C6.31868 14.2154 6.48508 14.2022 6.63829 14.1446C6.78808 14.1014 6.91905 14.0093 7.01032 13.8829C7.10159 13.7565 7.14787 13.6032 7.14177 13.4474C7.14851 13.3703 7.1668 13.2946 7.196 13.2228L7.97059 11.7976C8.04503 11.4638 8.18454 11.1479 8.38112 10.8681C8.53908 10.6284 8.6 10.3376 8.55153 10.0547C8.5493 9.94449 8.58389 9.83665 8.64982 9.74827C8.71576 9.65989 8.80926 9.59601 8.91557 9.56674C9.03943 9.51753 9.15127 9.44227 9.24348 9.34604C9.3357 9.24981 9.40614 9.13488 9.45004 9.00904L9.51977 8.87736C9.6249 8.69411 9.7664 8.53429 9.93557 8.40775C10.1047 8.2812 10.298 8.19059 10.5035 8.1415C11.4253 7.83941 12.3625 7.50633 13.3617 7.11129L13.7258 6.97187C13.9757 6.87143 14.2189 6.755 14.4539 6.6233C15.3997 6.0612 16.1966 5.28021 16.7777 4.34601C16.9682 4.01016 17.072 3.63213 17.0798 3.24609C17.0896 3.07923 17.1129 2.91344 17.1495 2.75035C17.1665 2.65829 17.2078 2.57244 17.2691 2.50165C17.3303 2.43085 17.4094 2.37766 17.498 2.34756C17.5615 2.32487 17.619 2.28793 17.6659 2.2396C17.7129 2.19126 17.7483 2.1328 17.7692 2.06871C17.8244 1.92819 17.8421 1.77566 17.8204 1.62623C17.7986 1.47679 17.7382 1.33561 17.6452 1.21666C17.6131 1.18644 17.5845 1.15266 17.56 1.11596C17.4927 1.02285 17.4331 0.924412 17.3819 0.821621L17.3354 0.744162C17.3047 0.677327 17.2889 0.60467 17.2889 0.531149C17.2889 0.457628 17.3047 0.384972 17.3354 0.318137C17.3653 0.250809 17.4091 0.190513 17.4638 0.141145C17.5185 0.0917781 17.5829 0.0544381 17.653 0.0315386H17.7614C17.8309 0.00452928 17.9059 -0.00534806 17.9801 0.00274114C18.0542 0.0108303 18.1253 0.0366484 18.1874 0.0780141C18.2926 0.138436 18.4013 0.192747 18.5128 0.240678L18.7839 0.341375C18.9049 0.38183 19.0238 0.428365 19.1402 0.480801C19.1849 0.430799 19.2399 0.391063 19.3014 0.364321C19.3629 0.33758 19.4294 0.324467 19.4965 0.325883C19.5619 0.324836 19.6268 0.336944 19.6874 0.361487C19.748 0.38603 19.8031 0.422506 19.8493 0.46875C19.8956 0.514993 19.9321 0.57006 19.9566 0.630679C19.9812 0.691297 19.9933 0.756231 19.9922 0.821621C19.9912 0.923251 19.9617 1.02256 19.907 1.10822L19.969 1.14695C20.2485 1.36394 20.4453 1.6701 20.5267 2.01449C20.5267 2.09969 20.5732 2.19265 20.5964 2.30883C20.7048 2.83555 20.9527 2.92076 21.1541 2.944C21.2754 2.95488 21.3885 3.01002 21.4717 3.09892V2.98273L21.5336 3.04469C21.6025 3.13202 21.6893 3.20351 21.7882 3.2543C21.8871 3.30509 21.9958 3.33399 22.1069 3.33904C22.2133 3.33383 22.3186 3.36252 22.4077 3.42098C22.4968 3.47944 22.565 3.56466 22.6026 3.66437L22.68 3.87351C22.7857 4.12528 22.8737 4.3841 22.9434 4.6481C22.9407 4.66866 22.9407 4.68949 22.9434 4.71006C22.9675 4.83439 23.0355 4.94589 23.1351 5.02413C23.2347 5.10238 23.3591 5.14212 23.4856 5.13609C23.6118 5.13707 23.7334 5.18401 23.8275 5.26813C23.9216 5.35225 23.9818 5.46778 23.9968 5.5931V5.84871C23.9968 5.97264 23.9968 6.07334 23.9968 6.17404C23.9887 6.29435 24.012 6.41472 24.0643 6.52336C24.1166 6.63201 24.1962 6.72523 24.2953 6.79391C24.3945 6.86259 24.5097 6.90439 24.6298 6.91521C24.7499 6.92604 24.8708 6.90553 24.9806 6.85568C25.2954 6.77297 25.6262 6.77297 25.9411 6.85568C26.1893 6.92389 26.4517 6.92083 26.6983 6.84686C26.9449 6.77288 27.1656 6.63098 27.3353 6.4374L27.5367 6.236C27.6133 6.16128 27.7121 6.11335 27.8182 6.09939C27.9243 6.08543 28.0321 6.10618 28.1254 6.15855L28.2338 6.22051L28.3501 6.29023C28.5259 6.40339 28.724 6.47736 28.931 6.50711C29.2002 6.5439 29.4739 6.48643 29.7056 6.34445C29.7995 6.28993 29.9014 6.2507 30.0077 6.22826C30.1146 6.19857 30.2266 6.1922 30.3362 6.20958C30.4458 6.22695 30.5504 6.26766 30.6428 6.32896C30.6555 6.32568 30.6689 6.32568 30.6816 6.32896C30.8537 6.44932 31.0321 6.56049 31.216 6.66203L31.4717 6.8092C31.8091 6.97867 32.1306 7.17829 32.4321 7.40564C32.4841 7.44732 32.5274 7.4989 32.5593 7.55741C32.5912 7.61591 32.6111 7.68017 32.618 7.74646C32.6311 7.88337 32.5893 8.01988 32.5018 8.12601C31.9906 8.6992 31.4949 9.30338 30.9527 9.91531L30.8597 10.0005C30.8191 10.0262 30.7842 10.06 30.7572 10.0998C30.7302 10.1397 30.7118 10.1846 30.7031 10.2319C30.6944 10.2792 30.6955 10.3278 30.7065 10.3746C30.7174 10.4214 30.738 10.4655 30.7668 10.504C30.8417 10.6117 30.9509 10.6909 31.0766 10.7286C31.1318 10.7466 31.1841 10.7727 31.2315 10.8061L31.3787 10.7441C31.4852 10.7069 31.6011 10.7065 31.7079 10.743C31.8146 10.7795 31.906 10.8508 31.9674 10.9455L32.0139 11.0152C32.0621 11.1024 32.0835 11.2019 32.0752 11.3011C32.067 11.4004 32.0294 11.495 31.9674 11.5729C31.9062 11.65 31.8232 11.7067 31.7292 11.7358C31.6352 11.7648 31.5346 11.7647 31.4407 11.7356H31.371C31.298 11.7193 31.2293 11.6876 31.1695 11.6426C31.1068 11.6843 31.0352 11.7108 30.9604 11.7201C30.6733 11.7512 30.4028 11.8702 30.1858 12.0609C29.9409 12.2911 29.6156 12.4162 29.2795 12.4095C28.7761 12.4482 28.2648 12.5334 27.8156 12.6109L27.2656 12.6961C27.1605 12.7076 27.0624 12.7539 26.9868 12.8278C26.6699 13.1468 26.3005 13.4088 25.8946 13.6024C25.459 13.8083 25.061 14.0858 24.7172 14.4234C24.4447 14.6687 24.2462 14.9853 24.144 15.3374C24.0687 15.6213 23.9703 15.8985 23.8497 16.1663C23.5621 16.7189 23.4798 17.3557 23.6173 17.9633C23.6435 18.0506 23.6444 18.1436 23.6197 18.2314C23.595 18.3192 23.5458 18.3982 23.4779 18.459C23.3735 18.56 23.2413 18.6274 23.0983 18.6527H22.9744H22.8117C22.0371 18.8076 21.8667 19.0012 21.8667 19.7991C21.8667 19.9462 21.8667 20.1012 21.8667 20.2638C21.8729 20.3777 21.8402 20.4902 21.7741 20.5831C21.708 20.676 21.6123 20.7437 21.5027 20.7751C21.453 20.7852 21.406 20.8056 21.3646 20.8349C21.3233 20.8643 21.2885 20.9019 21.2625 20.9455C21.2325 21.0314 21.2253 21.1237 21.2416 21.2133C21.2579 21.3029 21.2971 21.3868 21.3555 21.4567L21.6421 21.8285L21.8125 22.0376C21.8554 22.093 21.8859 22.1569 21.902 22.225C21.918 22.2932 21.9192 22.364 21.9055 22.4327C21.8817 22.5189 21.8817 22.6099 21.9055 22.696C21.9829 22.8974 22.1766 22.9749 22.3935 23.0524L22.4942 23.0911C22.567 23.1141 22.6346 23.1513 22.6931 23.2004C22.7516 23.2496 22.7998 23.3098 22.835 23.3777C22.8761 23.4734 22.8998 23.5757 22.9047 23.6798C22.9152 24.0864 23.0534 24.4793 23.2997 24.8029C23.3594 24.8819 23.4241 24.9569 23.4934 25.0276L23.5553 25.0895C23.9271 25.4458 24.0433 25.6705 23.8032 26.1817C23.8032 26.2437 23.7412 26.3056 23.7025 26.3676L23.6328 26.5148L23.4546 26.9021H25.1742C25.3451 26.9135 25.514 26.9447 25.6777 26.995C25.8112 27.0156 25.9353 27.0762 26.0335 27.1689C26.1317 27.2616 26.1994 27.3819 26.2277 27.514C26.2724 27.6553 26.3035 27.8005 26.3206 27.9478C26.3344 28.0864 26.3823 28.2194 26.4601 28.3351C26.5283 28.4251 26.6202 28.4944 26.7254 28.5355C26.8307 28.5765 26.9453 28.5875 27.0565 28.5674H27.3276L28.7218 28.4977C28.9349 28.4824 29.1379 28.4012 29.3028 28.2653L29.6049 28.0407L30.2091 27.6069C30.294 27.5469 30.3955 27.5147 30.4995 27.5147C30.6036 27.5147 30.705 27.5469 30.79 27.6069C30.8747 27.6692 30.937 27.7571 30.9677 27.8575C30.9984 27.958 30.9958 28.0657 30.9604 28.1646C30.8817 28.4004 30.8323 28.645 30.8132 28.8928C30.7822 29.2846 30.7822 29.6783 30.8132 30.0701C30.8132 30.3412 30.8132 30.5736 30.8132 30.8447V31.0461C30.8132 31.3947 31.1231 31.6813 31.5878 31.7355C31.8297 31.7659 32.0744 31.7081 32.2772 31.5728L32.4167 31.4412C32.4812 31.369 32.5655 31.3174 32.6591 31.2926C32.7527 31.2678 32.8515 31.271 32.9434 31.3017L33.075 31.3482H33.2222C33.5605 31.3945 33.8668 31.5727 34.0743 31.844L34.2911 32.177L34.5468 32.5721L34.9728 33.1917C35.1819 33.5248 35.453 33.9663 35.7009 34.4233C35.9839 34.8874 36.1038 35.4326 36.0417 35.9725C36.0131 36.1113 35.969 36.2464 35.91 36.3753C35.6007 37.1287 35.4555 37.9394 35.484 38.7533V39.0322C35.484 39.2878 35.484 39.5744 35.484 39.8532C35.4758 39.9847 35.4157 40.1075 35.3169 40.1947C35.2181 40.2818 35.0888 40.3262 34.9573 40.318C34.8258 40.3097 34.703 40.2496 34.6158 40.1509C34.5287 40.0521 34.4843 39.9227 34.4925 39.7912C34.4925 39.5356 34.4925 39.2723 34.4925 39.0167V38.7301C34.468 37.7827 34.6421 36.8407 35.0038 35.9648C35.0313 35.9053 35.0521 35.843 35.0657 35.7789C35.0805 35.4558 34.9939 35.1362 34.8179 34.8649C34.5932 34.4311 34.3376 34.0205 34.1362 33.703C34.0123 33.5016 33.8884 33.3079 33.7567 33.1143L33.5011 32.7115L33.2997 32.4017C33.1983 32.3624 33.0949 32.3288 32.9898 32.301C32.9771 32.3042 32.9638 32.3042 32.9511 32.301C32.5484 32.5986 32.045 32.7266 31.5491 32.6573C31.1052 32.6393 30.6855 32.4502 30.378 32.1296C30.0704 31.8091 29.8989 31.3819 29.8992 30.9377V30.7828C29.8992 30.5736 29.8992 30.3567 29.8992 30.1244C29.8797 29.7787 29.8797 29.4321 29.8992 29.0864C29.5955 29.3051 29.2351 29.4316 28.8613 29.4505L27.4748 29.5202H27.2191C26.9353 29.5506 26.6484 29.5058 26.3873 29.3902C26.1263 29.2746 25.9002 29.0924 25.7319 28.8618C25.5698 28.6176 25.4664 28.3393 25.4298 28.0485V27.909H23.6095C23.455 27.9105 23.3027 27.8728 23.1667 27.7994C23.0307 27.726 22.9156 27.6193 22.832 27.4893C22.7485 27.3593 22.6992 27.2103 22.6889 27.0561C22.6786 26.902 22.7075 26.7477 22.773 26.6077L22.9899 26.1197L23.0983 25.9028L23.1371 25.8331L23.0441 25.7324C22.9481 25.6364 22.8601 25.5328 22.7808 25.4226C22.4492 24.9895 22.2477 24.471 22.1998 23.9276C21.871 23.8572 21.576 23.677 21.3634 23.4165C21.1508 23.156 21.0333 22.8309 21.0302 22.4946V22.4482C20.9217 22.3191 20.8133 22.1796 20.7048 22.0299C20.5351 21.8131 20.4292 21.5533 20.3991 21.2796C20.369 21.0059 20.4159 20.7292 20.5344 20.4807C20.6482 20.2675 20.8166 20.0884 21.0224 19.9617V19.7913C20.9855 19.5421 21.0005 19.2879 21.0665 19.0448C21.1325 18.8016 21.248 18.5747 21.4059 18.3783C21.5637 18.182 21.7604 18.0203 21.9837 17.9036C22.2069 17.7868 22.452 17.7175 22.7033 17.6999C22.6567 17.0306 22.7848 16.3606 23.0751 15.7557C23.1735 15.5301 23.2538 15.297 23.3152 15.0586C23.4596 14.5396 23.7404 14.0689 24.1285 13.6953C24.5461 13.2849 25.0274 12.9448 25.5538 12.6883C25.8588 12.5483 26.1409 12.3629 26.3903 12.1384C26.6183 11.8989 26.9221 11.7457 27.2501 11.7046L27.7768 11.6194C28.2493 11.5342 28.7838 11.449 29.326 11.4025C29.5661 11.4025 29.5971 11.356 29.6359 11.3251C29.7442 11.2195 29.8637 11.1261 29.9922 11.0462C29.8067 10.7638 29.7347 10.4217 29.7908 10.0884C29.8468 9.7552 30.0266 9.45543 30.2943 9.24916L31.4174 7.90912L31.0379 7.69223L30.759 7.53732C30.5344 7.41338 30.3485 7.29719 30.1781 7.18101C29.8415 7.36882 29.4635 7.46997 29.0782 7.47535C28.9802 7.48303 28.8818 7.48303 28.7838 7.47535C28.5078 7.41982 28.2432 7.31766 28.0015 7.17326C27.7124 7.46379 27.3517 7.67271 26.9558 7.77882C26.5599 7.88492 26.143 7.88445 25.7474 7.77744C25.59 7.73643 25.4246 7.73643 25.2672 7.77744C25.0173 7.85992 24.7523 7.88603 24.4911 7.85389C24.2299 7.82174 23.9791 7.73215 23.7567 7.59154C23.5315 7.44094 23.3444 7.24012 23.21 7.0049C23.0755 6.76969 22.9975 6.50648 22.9821 6.236C22.9783 6.16635 22.9783 6.09653 22.9821 6.02687C22.7402 5.94915 22.5211 5.81312 22.3442 5.63076C22.1672 5.44841 22.0378 5.22532 21.9674 4.98117C21.951 4.9384 21.938 4.89436 21.9287 4.84949C21.8796 4.65954 21.8175 4.47319 21.7428 4.29178C21.3692 4.22246 21.0289 4.03188 20.7746 3.74957C20.4504 3.67558 20.1575 3.50219 19.9366 3.2536C19.7158 3.00502 19.5782 2.69367 19.5429 2.36305C19.5255 2.31021 19.5048 2.25847 19.481 2.20814C19.4113 1.95252 19.3416 1.90605 19.3106 1.88281C19.0952 1.76034 18.9079 1.59411 18.7606 1.39482C18.8196 1.73337 18.7848 2.08161 18.6599 2.40178C18.5538 2.72186 18.3403 2.99547 18.0557 3.17637C18.0517 3.24086 18.0517 3.30554 18.0557 3.37002C18.0328 3.91609 17.8759 4.44813 17.5987 4.9192C16.9259 5.98346 16.01 6.8728 14.9264 7.51408C14.6491 7.66955 14.3619 7.80669 14.0666 7.92461L13.7026 8.07178C12.6801 8.46682 11.7273 8.84637 10.7901 9.11748C10.4493 9.22592 10.4105 9.31113 10.3641 9.39633C10.3613 9.4169 10.3613 9.43774 10.3641 9.4583C10.2017 9.83887 9.93265 10.1644 9.58948 10.3956C9.59244 10.8103 9.45605 11.214 9.20219 11.5419C9.08324 11.7404 8.99939 11.9579 8.95431 12.1849C8.93994 12.2126 8.927 12.241 8.91557 12.2701L8.21071 13.6488C8.18947 13.9924 8.06277 14.321 7.84791 14.59C7.63305 14.8589 7.34048 15.055 7.01008 15.1515C6.81311 15.2188 6.6063 15.2529 6.39815 15.2522C6.09181 15.247 5.79122 15.1683 5.52163 15.0227C5.25204 14.8772 5.02134 14.669 4.84897 14.4157C4.68741 14.1794 4.56695 13.9175 4.49266 13.6411C4.26471 13.6298 4.04342 13.5605 3.84976 13.4397C3.52946 13.6283 3.15928 13.7147 2.78858 13.6876H2.22312C2.05344 13.6736 1.89101 13.6126 1.75415 13.5113C1.6173 13.4101 1.51145 13.2726 1.44853 13.1144C1.38307 12.9509 1.36578 12.7721 1.39872 12.5992C1.43167 12.4262 1.51346 12.2663 1.63443 12.1384L1.67317 12.0919L1.6267 11.9525C1.45467 12.1953 1.26571 12.4257 1.06124 12.6419C1.0588 12.6624 1.0588 12.6832 1.06124 12.7038C1.06367 12.7244 1.06367 12.7452 1.06124 12.7658C1.04187 12.8447 1.04187 12.9271 1.06124 13.0059C1.00113 13.0046 0.941916 13.0207 0.890825 13.0524C1.06532 13.2005 1.202 13.3881 1.28956 13.5996C1.37712 13.8111 1.41302 14.0404 1.3943 14.2685L1.45628 14.3382C1.58334 14.4838 1.69495 14.6421 1.78935 14.8107C1.99052 15.1037 2.09819 15.4507 2.09819 15.8061C2.09819 16.1614 1.99052 16.5085 1.78935 16.8014C2.63854 17.1629 3.42335 17.6599 4.11312 18.2731L4.361 18.5133L4.53914 18.6992L4.66307 18.8308L4.87996 19.0865L4.9187 19.1252L4.97291 19.1949C5.04262 19.2878 5.12008 19.3885 5.18979 19.497L5.24402 19.5744L5.29824 19.6442C5.33794 19.6959 5.37415 19.7503 5.40667 19.8068C5.77223 20.3638 6.07122 20.9617 6.29747 21.5884C6.31343 21.6319 6.33421 21.6734 6.35943 21.7123C6.38954 21.7477 6.42642 21.7766 6.46788 21.7975L6.71573 21.9679L6.76221 22.0067C6.9641 22.1445 7.15334 22.3 7.32767 22.4714C7.58927 22.7327 7.81579 23.027 8.00156 23.3467C8.35572 23.928 8.57294 24.5823 8.63673 25.2599C8.76217 25.4229 8.86871 25.5996 8.95431 25.7867L9.04726 26.0345C9.04428 26.0473 9.04428 26.0605 9.04726 26.0733L9.13247 26.3366L9.20219 26.5767C9.24092 26.7162 9.27964 26.8478 9.31837 26.9485C9.32091 26.9665 9.32091 26.9848 9.31837 27.0028L9.36484 27.088H9.40356C9.51944 27.1753 9.62132 27.2798 9.70566 27.3978C9.8515 27.609 9.94932 27.8496 9.99226 28.1027C9.99226 28.1879 9.99226 28.2731 10.0387 28.3506V28.5442C10.088 28.7667 10.1948 28.9724 10.3486 29.1406L10.6042 29.4737L10.8675 29.8068L11.1077 30.1166C11.5346 30.5997 11.9304 31.1094 12.2928 31.6426L12.5484 32.0841L12.6956 32.3319L12.8273 32.5643C12.8815 32.6495 12.928 32.7347 12.9744 32.8199C13.0209 32.9051 13.0596 32.9903 13.0984 33.0756L13.1758 33.246C13.2641 33.4564 13.3341 33.6741 13.385 33.8966C13.424 34.049 13.4499 34.2045 13.4624 34.3614C13.5786 34.4853 13.6948 34.617 13.811 34.7642L13.9969 35.012L14.1363 35.2134L14.2525 35.3838L14.3687 35.5697L14.4307 35.6704L14.6708 36.081L14.787 36.2901C14.9264 36.5225 15.0503 36.7394 15.182 36.9408L15.3292 37.1654L15.4066 37.2583L15.5151 37.3513C15.7732 37.5542 15.9736 37.8213 16.096 38.1259C16.1426 38.2373 16.1738 38.3546 16.189 38.4744C16.2292 38.9452 16.0878 39.4135 15.7939 39.7835C15.7939 39.7835 15.7939 39.8222 15.7939 39.8455C15.7902 39.8686 15.7902 39.8921 15.7939 39.9152C15.8369 40.0339 15.886 40.1502 15.9411 40.2637C15.9978 40.3866 16.0625 40.5056 16.1348 40.6201C16.1524 40.6595 16.1759 40.6961 16.2045 40.7285L16.2742 40.8292V40.8834C16.3922 41.0353 16.5273 41.1731 16.677 41.2939L16.7312 41.3404L16.8629 41.4411L17.0255 41.5651H17.072C17.2655 41.7102 17.4468 41.8708 17.6142 42.0453C17.7949 42.2297 17.9656 42.4236 18.1255 42.6262C18.2297 42.7635 18.3408 42.8954 18.4585 43.0213C18.5868 43.152 18.724 43.2736 18.8691 43.3853C19.0472 43.5015 19.2563 43.6332 19.5197 43.7881L20.1162 44.1289H20.1626L20.7281 44.4543C21.2182 44.4887 21.6824 44.688 22.0449 45.0197C22.223 45.1592 22.4167 45.2908 22.6026 45.4148C23.4417 45.9447 24.3349 46.3835 25.2672 46.7238L25.5228 46.8245L25.7629 46.9175C26.1212 47.0493 26.4521 47.2463 26.7389 47.4984L26.8164 47.5681L26.8628 47.6146C26.9325 47.6843 27.01 47.7385 27.0952 47.8083C27.2137 47.9004 27.3408 47.9808 27.4748 48.0484C27.6077 48.116 27.7481 48.168 27.893 48.2033C28.0293 48.2354 28.1618 48.2822 28.2881 48.3427H28.3345C28.7163 48.4961 29.0461 48.7556 29.2849 49.0906C29.5238 49.4255 29.6617 49.8219 29.6824 50.2327C29.6916 50.3195 29.733 50.3997 29.7985 50.4574L29.9225 50.5658L30.0387 50.651L30.1858 50.7594L30.3098 50.8446L30.4879 50.9686L30.5886 51.0383L30.7125 51.1235H30.759L30.9991 51.2784H31.0379L31.185 51.3636L31.5259 51.565C31.5785 51.5929 31.6367 51.6088 31.6963 51.6115C31.7461 51.5359 31.7705 51.4463 31.766 51.3559C31.7674 51.2387 31.7804 51.1219 31.8047 51.0073C31.8471 50.7831 31.9385 50.571 32.0724 50.3862C32.2064 50.2014 32.3794 50.0485 32.5793 49.9384C32.4589 49.6326 32.4609 49.2921 32.585 48.9877C32.709 48.6834 32.9456 48.4385 33.2454 48.304C33.2473 48.2782 33.2473 48.2523 33.2454 48.2265C33.3746 47.8133 33.6257 47.4487 33.9658 47.1808C33.8429 47.0798 33.7289 46.9684 33.625 46.8478C33.3032 46.4672 33.096 46.0032 33.0275 45.5096C32.9589 45.016 33.0318 44.5131 33.2377 44.0592C33.2794 43.9665 33.326 43.876 33.3771 43.7881C33.4121 43.7294 33.4406 43.6671 33.4623 43.6022C33.4132 43.4834 33.4107 43.3505 33.4552 43.23C33.4997 43.1094 33.588 43.01 33.7024 42.9516C33.7603 42.9226 33.8234 42.9054 33.888 42.901C33.9526 42.8966 34.0174 42.9051 34.0787 42.926C34.14 42.9469 34.1965 42.9798 34.2449 43.0227C34.2934 43.0657 34.3328 43.1179 34.3609 43.1762C34.443 43.3515 34.4755 43.546 34.4551 43.7385C34.4346 43.931 34.3618 44.1142 34.2447 44.2684C34.2106 44.3288 34.1796 44.3908 34.1517 44.4543C34.0197 44.7379 33.9714 45.0533 34.0126 45.3635C34.0537 45.6736 34.1826 45.9655 34.3841 46.2049C34.4623 46.2971 34.5506 46.3802 34.6475 46.4527C34.7165 46.5087 34.789 46.5604 34.8643 46.6076C34.9583 46.6645 35.0312 46.7505 35.0717 46.8526C35.1123 46.9547 35.1183 47.0672 35.089 47.1731C35.0422 47.3426 34.9826 47.5083 34.9108 47.6688C34.8631 47.7667 34.784 47.8457 34.6862 47.8935C34.4405 48.037 34.2601 48.2703 34.1827 48.5441C34.1418 48.7349 34.0509 48.9113 33.9194 49.0553C33.8646 49.1085 33.7983 49.1482 33.7257 49.1715C33.5476 49.2258 33.5011 49.3032 33.4778 49.3652C33.4588 49.4295 33.4551 49.4973 33.4672 49.5633C33.4794 49.6292 33.5069 49.6914 33.5475 49.7447C33.6022 49.8339 33.6439 49.9304 33.6715 50.0313C33.674 50.0493 33.674 50.0676 33.6715 50.0855C33.6921 50.1785 33.6855 50.2753 33.6525 50.3646C33.6196 50.4539 33.5616 50.5318 33.4856 50.589C33.3839 50.6672 33.2683 50.725 33.1448 50.7594L32.9744 50.8292C32.899 50.868 32.8339 50.924 32.7841 50.9926C32.7343 51.0612 32.7013 51.1405 32.6877 51.2242C32.6802 51.2833 32.6802 51.3432 32.6877 51.4024C32.6875 51.7344 32.5695 52.0555 32.3547 52.3086C32.2494 52.4163 32.1228 52.5008 31.9829 52.5565C31.9102 52.5827 31.8349 52.6009 31.7582 52.6107H31.6033L31.7273 52.6804Z" fill="#201752"/>
<path d="M33.5633 42.9985C33.3697 42.9985 33.1838 42.9985 32.9901 42.9985C32.7122 42.9688 32.433 42.9532 32.1535 42.952C31.6142 42.943 31.0835 42.8155 30.599 42.5786C30.1144 42.3416 29.6879 42.0011 29.3495 41.581C28.9685 41.1549 28.7578 40.6034 28.7578 40.0318C28.7578 39.4602 28.9685 38.9087 29.3495 38.4826C29.6552 38.1444 30.0104 37.8545 30.403 37.6228C30.6345 37.4796 30.9091 37.4228 31.1785 37.4625C31.4478 37.5022 31.6944 37.6358 31.8747 37.8397C32.5725 38.3339 33.3436 38.7155 34.1598 38.9706C34.8336 39.0558 35.6547 40.1325 35.8561 40.9846C35.9596 41.2853 35.9507 41.6134 35.8311 41.9081C35.7115 42.2029 35.4893 42.4444 35.2054 42.588C34.701 42.8601 34.1364 43.0012 33.5633 42.9985ZM30.9762 38.289C30.7825 38.289 30.5037 38.4904 29.9537 39.0636C29.7321 39.3316 29.6108 39.6685 29.6108 40.0163C29.6108 40.3641 29.7321 40.701 29.9537 40.9691C30.2127 41.3093 30.5449 41.5869 30.9257 41.7813C31.3065 41.9757 31.7261 42.082 32.1535 42.0922C32.5253 42.0922 32.812 42.0922 33.0676 42.1387C33.6578 42.2419 34.2655 42.1292 34.7794 41.8211C34.8713 41.7802 34.9453 41.7076 34.988 41.6165C35.0307 41.5255 35.0391 41.4221 35.0118 41.3254C34.9548 41.0195 34.837 40.7283 34.6654 40.4688C34.4937 40.2093 34.2718 39.987 34.0126 39.8149H33.8964C32.9386 39.5153 32.0379 39.0571 31.2318 38.4594C31.2042 38.4141 31.167 38.3753 31.1228 38.3459C31.0787 38.3165 31.0286 38.297 30.9762 38.289Z" fill="#FF5100"/>
</svg>
