<svg width="61" height="62" viewBox="0 0 61 62" fill="none" xmlns="http://www.w3.org/2000/svg">
<g opacity="0.5">
<path opacity="0.5" d="M60.1295 30.2591C60.5315 34.5264 59.1864 38.8711 57.3465 42.7982C54.4011 49.091 49.8632 56.6129 43.4313 59.7206C36.1027 63.2612 27.8232 62.3026 20.4404 59.4037C16.7749 58.0995 13.2991 56.3135 10.1045 54.0927C1.33024 47.568 -0.718382 34.5574 0.201565 24.3297C0.324278 21.6897 1.03193 19.11 2.27338 16.7769C3.56024 14.7626 5.44371 13.2003 7.66104 12.3078C9.87838 11.4154 12.319 11.2372 14.6424 11.7983C20.997 13.4063 26.8105 16.2357 33.3815 17.3644C34.9817 17.6427 36.582 17.8746 38.19 18.0756C46.5932 19.9928 57.5939 17.3721 59.8358 28.6898C59.9646 29.2066 60.0627 29.7307 60.1295 30.2591Z" fill="#E8E4ED"/>
</g>
<path d="M35.2369 56.0632C34.6506 56.0624 34.0702 55.9468 33.5284 55.723L7.5225 45.1398C6.40384 44.6836 5.51184 43.8023 5.04226 42.6892C4.57267 41.5761 4.56387 40.3222 5.01777 39.2027L11.8671 22.3808C11.9163 22.2588 12.012 22.1613 12.133 22.1099C12.2541 22.0584 12.3906 22.0571 12.5126 22.1063C12.6346 22.1555 12.7321 22.2512 12.7835 22.3722C12.835 22.4933 12.8363 22.6298 12.7871 22.7518L5.93771 39.5814C5.76112 40.0144 5.67163 40.4779 5.67437 40.9454C5.67711 41.413 5.77203 41.8754 5.9537 42.3063C6.13537 42.7371 6.40021 43.1279 6.73308 43.4562C7.06595 43.7846 7.4603 44.0441 7.89357 44.2198L33.8995 54.8031C34.774 55.1576 35.7535 55.1508 36.623 54.7842C37.4926 54.4175 38.1812 53.7209 38.5379 52.8472L45.3872 36.0254C45.411 35.965 45.4466 35.91 45.4919 35.8636C45.5372 35.8172 45.5913 35.7803 45.6511 35.7551C45.7109 35.7299 45.7751 35.7169 45.8399 35.7168C45.9048 35.7168 45.969 35.7297 46.0288 35.7548C46.1508 35.803 46.2486 35.8977 46.3008 36.018C46.353 36.1383 46.3553 36.2744 46.3072 36.3964L39.4578 53.226C39.1146 54.064 38.5301 54.7811 37.7786 55.2862C37.0271 55.7914 36.1424 56.0618 35.2369 56.0632Z" fill="#201752"/>
<path d="M48.626 37.5105C48.0353 37.5116 47.45 37.3987 46.9021 37.1781L42.0627 35.2067C41.9434 35.1555 41.8486 35.06 41.7982 34.9404C41.7478 34.8208 41.7456 34.6863 41.7921 34.5651C41.8419 34.4426 41.938 34.3447 42.0596 34.2926C42.1812 34.2405 42.3184 34.2384 42.4415 34.2868L47.2731 36.2581C48.1472 36.6176 49.1279 36.6176 50.002 36.2581C50.4328 36.077 50.8234 35.8123 51.1512 35.4792C51.4789 35.1462 51.7374 34.7514 51.9115 34.3177L54.3621 28.3033C54.7167 27.4287 54.7098 26.4493 54.3432 25.5797C53.9765 24.7102 53.28 24.0216 52.4063 23.6649L16.3969 8.97667C15.9641 8.79901 15.5004 8.70871 15.0326 8.71094C14.5647 8.71317 14.1019 8.8079 13.6708 8.98968C13.2398 9.17146 12.8489 9.4367 12.5207 9.77013C12.1925 10.1036 11.9335 10.4986 11.7585 10.9325L9.30791 16.947C8.95338 17.8215 8.96019 18.801 9.32685 19.6705C9.69351 20.5401 10.3901 21.2287 11.2638 21.5854L16.2423 23.6108C16.3027 23.6356 16.3576 23.6722 16.4039 23.7183C16.4502 23.7644 16.487 23.8191 16.5121 23.8794C16.5372 23.9397 16.5502 24.0044 16.5503 24.0697C16.5505 24.135 16.5377 24.1998 16.5129 24.2602C16.488 24.3206 16.4515 24.3755 16.4054 24.4218C16.3593 24.4681 16.3045 24.5048 16.2442 24.5299C16.1839 24.5551 16.1193 24.5681 16.0539 24.5682C15.9886 24.5683 15.9239 24.5556 15.8635 24.5307L10.9004 22.5285C9.78177 22.0723 8.88977 21.191 8.42019 20.0779C7.9506 18.9649 7.9418 17.7109 8.3957 16.5914L10.8463 10.5846C11.3009 9.46654 12.1807 8.57465 13.2926 8.10498C14.4044 7.63531 15.6572 7.62629 16.7757 8.07991L52.7851 22.7681C53.9037 23.2243 54.7957 24.1056 55.2653 25.2187C55.7349 26.3318 55.7437 27.5857 55.2898 28.7053L52.8392 34.712C52.4991 35.5505 51.9164 36.2685 51.1658 36.774C50.4153 37.2794 49.5309 37.5493 48.626 37.5491V37.5105Z" fill="#201752"/>
<path d="M44.065 19.6137C43.0228 19.6118 41.9909 19.407 41.0269 19.0107L34.4095 16.3437C34.3488 16.3191 34.2937 16.2827 34.2472 16.2367C34.2007 16.1906 34.1638 16.1359 34.1386 16.0755C34.1135 16.0151 34.1005 15.9503 34.1006 15.8849C34.1006 15.8194 34.1136 15.7547 34.1389 15.6943L35.0975 13.3751C35.9795 11.1937 37.4158 9.28037 39.2643 7.8245C40.3556 6.9486 41.6657 6.38767 43.0527 6.20237C44.4398 6.01707 45.8511 6.21443 47.1341 6.77313C48.0086 7.09382 48.8019 7.60283 49.4578 8.2641C50.1137 8.92538 50.6163 9.72277 50.9298 10.5998C51.459 12.1357 51.4123 13.8115 50.7984 15.3155C50.4387 16.2029 49.8972 17.0052 49.2089 17.6709C48.5206 18.3366 47.7006 18.8509 46.8017 19.1808C45.923 19.4888 44.9959 19.6354 44.065 19.6137ZM35.2444 15.5706L41.4289 18.0831C43.0424 18.7514 44.8496 18.7818 46.4847 18.1681C47.2549 17.8867 47.9579 17.4478 48.5489 16.8794C49.1399 16.311 49.6059 15.6257 49.9171 14.8671C50.4352 13.5864 50.4736 12.1617 50.0254 10.8549C49.7552 10.111 49.3251 9.43537 48.7654 8.87571C48.2058 8.31604 47.5302 7.88596 46.7862 7.61578C45.6629 7.12014 44.4245 6.94446 43.2077 7.10816C41.9908 7.27186 40.8429 7.76857 39.8905 8.54346C38.1881 9.8995 36.858 11.6658 36.0252 13.6766L35.2444 15.5706Z" fill="#201752"/>
<path d="M34.5956 16.3435C34.532 16.3418 34.4691 16.3287 34.4101 16.3049L27.7927 13.6146C25.9394 12.8727 24.4365 11.4554 23.5872 9.64878C23.1747 8.78618 22.9466 7.84709 22.9173 6.8914C22.888 5.93571 23.0582 4.98441 23.4171 4.09818C24.0305 2.60193 25.1608 1.37566 26.6022 0.642578C27.4433 0.234535 28.3636 0.0154813 29.2985 0.00079121C30.2333 -0.0138989 31.16 0.17613 32.0136 0.55754C33.3191 1.05818 34.4643 1.90347 35.3274 3.00344C36.1905 4.1034 36.7391 5.41684 36.9148 6.80391C37.2151 9.13882 36.9062 11.5117 36.0181 13.6919L35.0595 16.0498C35.0103 16.1707 34.9161 16.2677 34.7966 16.3203C34.7317 16.3406 34.6635 16.3485 34.5956 16.3435ZM28.1483 12.7101L34.3328 15.2148L35.1059 13.3208C35.9132 11.3036 36.1978 9.11511 35.933 6.95852C35.7925 5.73823 35.3174 4.58053 34.5603 3.61329C33.8031 2.64605 32.7934 1.9069 31.6425 1.47749C30.9213 1.15466 30.1385 0.992306 29.3483 1.00165C28.5581 1.01099 27.7794 1.1918 27.066 1.5316C25.831 2.15367 24.864 3.2031 24.3448 4.48471C24.0396 5.24569 23.8951 6.06159 23.9203 6.88111C23.9456 7.70063 24.1401 8.50607 24.4917 9.24679C25.2309 10.8205 26.5368 12.0573 28.1483 12.7101Z" fill="#201752"/>
<path d="M20.7112 50.4666C20.6499 50.4777 20.587 50.4777 20.5257 50.4666C20.465 50.442 20.4099 50.4056 20.3634 50.3596C20.3169 50.3136 20.28 50.2587 20.2549 50.1984C20.2297 50.138 20.2168 50.0732 20.2168 50.0078C20.2168 49.9423 20.2299 49.8776 20.2551 49.8172L22.1723 45.1092C22.2295 45.0005 22.3251 44.9169 22.4405 44.8748C22.5559 44.8326 22.6828 44.8349 22.7966 44.8812C22.9104 44.9275 23.0029 45.0145 23.0562 45.1252C23.1094 45.2359 23.1195 45.3625 23.0845 45.4803L21.1905 50.1573C21.1523 50.2521 21.0857 50.3326 20.9999 50.388C20.9141 50.4433 20.8132 50.4708 20.7112 50.4666Z" fill="#201752"/>
<path d="M32.013 22.6669C31.9493 22.6652 31.8865 22.6521 31.8274 22.6283C31.7668 22.6037 31.7116 22.5673 31.6652 22.5213C31.6187 22.4752 31.5818 22.4204 31.5566 22.36C31.5314 22.2996 31.5185 22.2349 31.5186 22.1694C31.5186 22.104 31.5316 22.0392 31.5569 21.9789L34.1234 15.6707C34.1455 15.6069 34.1804 15.5483 34.226 15.4986C34.2715 15.4488 34.3268 15.4089 34.3883 15.3813C34.4499 15.3536 34.5165 15.3389 34.5839 15.3379C34.6514 15.337 34.7183 15.3498 34.7807 15.3757C34.843 15.4016 34.8993 15.4399 34.9463 15.4884C34.9932 15.5369 35.0298 15.5944 35.0537 15.6575C35.0775 15.7206 35.0883 15.788 35.0852 15.8554C35.0821 15.9228 35.0652 15.9888 35.0356 16.0495L32.4691 22.3577C32.4323 22.4486 32.3693 22.5266 32.288 22.5817C32.2068 22.6367 32.1111 22.6664 32.013 22.6669Z" fill="#201752"/>
<path d="M24.0972 41.8548C24.0292 41.8551 23.9622 41.8391 23.9016 41.8082C23.8411 41.7772 23.7889 41.7322 23.7493 41.677L23.5793 41.4373C23.2855 41.0431 16.6217 31.774 19.0646 25.8137C19.5432 24.6674 20.3734 23.7025 21.4354 23.0582C22.4974 22.4138 23.7366 22.1231 24.9744 22.228C26.2122 22.3329 27.3847 22.8279 28.3232 23.6417C29.2617 24.4556 29.9177 25.5463 30.1967 26.7568C31.2517 26.1069 32.4853 25.8077 33.7208 25.9021C34.9562 25.9964 36.1301 26.4794 37.0742 27.2819C38.0183 28.0843 38.6841 29.1651 38.9763 30.3692C39.2684 31.5734 39.1718 32.8391 38.7004 33.985C36.2189 39.9453 24.9167 41.7156 24.4374 41.8084H24.1436L24.0972 41.8548ZM24.4837 23.0538C23.4926 23.0579 22.5245 23.3531 21.6999 23.9029C20.8752 24.4527 20.2303 25.2327 19.8454 26.1461C17.5262 31.6658 23.9813 40.5637 24.2596 40.9348C24.7234 40.8652 35.5695 39.1568 37.8655 33.6371C38.2953 32.6085 38.3698 31.466 38.0771 30.3904C37.7844 29.3148 37.1413 28.3675 36.2497 27.6985C35.358 27.0295 34.2687 26.6771 33.1541 26.6969C32.0396 26.7168 30.9635 27.1079 30.0962 27.8082C30.0368 27.8575 29.9649 27.8894 29.8885 27.9003C29.8121 27.9112 29.7341 27.9008 29.6633 27.87C29.5921 27.8412 29.5301 27.7936 29.4839 27.7323C29.4376 27.6711 29.4088 27.5985 29.4004 27.5221C29.3038 26.6224 28.9653 25.7657 28.4208 25.0429C27.8764 24.3201 27.1463 23.7583 26.3082 23.4172C25.7282 23.1818 25.1096 23.056 24.4837 23.0461V23.0538Z" fill="#FF5100"/>
<path d="M35.2289 32.9571C35.1754 32.9681 35.1201 32.9681 35.0666 32.9571C34.9631 32.9127 34.8811 32.8297 34.8378 32.7258C34.7945 32.6219 34.7933 32.5052 34.8346 32.4005C34.9191 32.1984 34.9625 31.9817 34.9625 31.7627C34.9625 31.5437 34.9191 31.3269 34.8346 31.1249C34.7535 30.9217 34.6323 30.7369 34.4782 30.5815C34.3241 30.4261 34.1404 30.3033 33.9379 30.2204C33.8344 30.176 33.7524 30.093 33.7091 29.9891C33.6658 29.8852 33.6647 29.7685 33.706 29.6638C33.7272 29.6119 33.7584 29.5648 33.7979 29.525C33.8374 29.4852 33.8843 29.4537 33.936 29.4321C33.9878 29.4106 34.0432 29.3995 34.0993 29.3994C34.1553 29.3994 34.2108 29.4104 34.2626 29.4319C34.5688 29.558 34.847 29.7434 35.0813 29.9775C35.3155 30.2115 35.5012 30.4896 35.6277 30.7956C35.7541 31.1017 35.8188 31.4297 35.818 31.7608C35.8173 32.092 35.751 32.4197 35.6232 32.7252C35.5864 32.7974 35.5297 32.8576 35.4599 32.8986C35.39 32.9397 35.3099 32.96 35.2289 32.9571Z" fill="#FF5100"/>
</svg>
