<svg width="64" height="54" viewBox="0 0 64 54" fill="none" xmlns="http://www.w3.org/2000/svg">
<g opacity="0.5">
<path opacity="0.5" d="M55.1995 37.682C57.3109 36.5322 59.1289 34.9113 60.5125 32.9452C62.6215 29.4206 63.4731 25.285 62.9283 21.2139C61.8862 13.0352 56.9521 7.05898 49.4681 3.75117C34.9263 -2.675 16.0662 -1.30134 5.35332 11.4405C4.13159 12.8881 3.05288 14.4506 2.13233 16.1061C-1.75968 23.5902 0.0481755 31.9742 4.55596 38.7635C11.6611 49.3659 23.6608 58.6578 36.3868 51.45C41.2341 48.7106 45.1813 44.6528 49.5865 41.2503C51.3154 39.9319 53.3127 38.8582 55.1995 37.682Z" fill="#E8E4ED"/>
</g>
<path d="M15.9952 11.2512C15.3348 11.2501 14.6852 11.0833 14.1059 10.766C13.5266 10.4488 13.0362 9.99132 12.6795 9.43543L10.1849 5.48816C10.1226 5.39066 10.0957 5.27475 10.1086 5.15981C10.1216 5.04486 10.1736 4.93783 10.2559 4.85659L13.6664 1.44614C13.7483 1.36506 13.8552 1.31396 13.9698 1.30107C14.0844 1.28818 14.2 1.31426 14.2979 1.37509L18.2452 3.86977C19.0451 4.38536 19.6318 5.17259 19.8973 6.08649C20.1627 7.00039 20.0891 7.97944 19.6899 8.84334C19.6311 8.96113 19.5287 9.05133 19.4045 9.09476C19.2802 9.13818 19.1439 9.1314 19.0246 9.07585C18.9052 9.02029 18.8123 8.92036 18.7655 8.79731C18.7187 8.67427 18.7218 8.53783 18.7741 8.41703C19.0748 7.77591 19.1316 7.04723 18.934 6.36724C18.7364 5.68725 18.2979 5.10252 17.7005 4.72239L14.1242 2.44875L11.2901 5.29079L13.5637 8.86703C13.9436 9.46256 14.527 9.89976 15.2052 10.0973C15.8834 10.2948 16.6102 10.2391 17.2505 9.94069C17.3721 9.88333 17.5114 9.876 17.6384 9.92029C17.7653 9.96458 17.8699 10.0569 17.9294 10.1775C17.9862 10.3001 17.9924 10.4402 17.9466 10.5673C17.9008 10.6944 17.8066 10.7983 17.6847 10.8564C17.1573 11.1104 16.5805 11.2452 15.9952 11.2512Z" fill="#FF6D00"/>
<path d="M33.1419 22.1302C33.0744 22.1312 33.0074 22.1184 32.9449 22.0926C32.8825 22.0668 32.826 22.0286 32.7788 21.9803L19.1291 8.33057C19.0351 8.23465 18.9824 8.10569 18.9824 7.97137C18.9824 7.83705 19.0351 7.70809 19.1291 7.61217C19.1754 7.5649 19.2307 7.52736 19.2917 7.50173C19.3527 7.47609 19.4182 7.46289 19.4844 7.46289C19.5505 7.46289 19.616 7.47609 19.677 7.50173C19.738 7.52736 19.7933 7.5649 19.8396 7.61217L33.4972 21.2697C33.567 21.3404 33.6145 21.4301 33.6337 21.5275C33.6529 21.625 33.6429 21.726 33.605 21.8178C33.567 21.9096 33.5029 21.9883 33.4205 22.0438C33.3382 22.0994 33.2413 22.1295 33.1419 22.1302Z" fill="#FF6D00"/>
<path d="M30.4106 24.8612C30.3431 24.8622 30.2761 24.8494 30.2136 24.8236C30.1512 24.7978 30.0947 24.7596 30.0475 24.7112L16.3978 11.0615C16.3506 11.0144 16.3132 10.9584 16.2877 10.8967C16.2622 10.8351 16.249 10.769 16.249 10.7023C16.249 10.6356 16.2622 10.5696 16.2877 10.5079C16.3132 10.4463 16.3506 10.3903 16.3978 10.3431C16.445 10.2959 16.501 10.2585 16.5626 10.233C16.6243 10.2075 16.6903 10.1943 16.757 10.1943C16.8237 10.1943 16.8898 10.2075 16.9514 10.233C17.013 10.2585 17.0691 10.2959 17.1162 10.3431L30.7659 24.0007C30.8132 24.047 30.8507 24.1023 30.8763 24.1633C30.902 24.2243 30.9152 24.2898 30.9152 24.3559C30.9152 24.4221 30.902 24.4876 30.8763 24.5486C30.8507 24.6096 30.8132 24.6649 30.7659 24.7112C30.7202 24.7593 30.6651 24.7975 30.6039 24.8233C30.5428 24.8491 30.477 24.862 30.4106 24.8612Z" fill="#FF6D00"/>
<path d="M46.6811 44.6612C46.3287 44.6621 45.9796 44.5927 45.6543 44.4572C45.329 44.3216 45.034 44.1226 44.7864 43.8717L33.1104 32.1957C32.8482 31.9368 32.6427 31.6263 32.5068 31.2839C32.3709 30.9414 32.3076 30.5745 32.321 30.2063L32.3683 28.73L29.9289 28.8168C29.7905 28.8165 29.6576 28.7628 29.5579 28.6668L28.1131 27.2221C28.0659 27.1758 28.0283 27.1205 28.0027 27.0595C27.9771 26.9985 27.9639 26.933 27.9639 26.8669C27.9639 26.8007 27.9771 26.7352 28.0027 26.6742C28.0283 26.6132 28.0659 26.5579 28.1131 26.5116L35.2814 19.3434C35.3782 19.2479 35.5086 19.1941 35.6446 19.1934C35.7781 19.1944 35.9059 19.2484 35.9998 19.3434L37.4366 20.7802C37.4869 20.8292 37.5263 20.8883 37.5522 20.9536C37.5781 21.0189 37.5898 21.0889 37.5866 21.1591L37.5077 23.5906L38.9839 23.5433C39.3518 23.5323 39.7181 23.5967 40.0602 23.7324C40.4023 23.8682 40.7131 24.0725 40.9734 24.3327L52.6415 36.0009C52.9049 36.2589 53.1112 36.5692 53.2472 36.9119C53.3832 37.2545 53.4458 37.6219 53.431 37.9903C53.4057 38.7461 53.0921 39.4636 52.5547 39.9955L48.7653 43.777C48.2384 44.3183 47.5229 44.635 46.768 44.6612H46.6811ZM32.913 27.7195C33.0466 27.7205 33.1744 27.7745 33.2683 27.8695C33.3189 27.9166 33.3585 27.9743 33.3844 28.0384C33.4103 28.1025 33.4219 28.1715 33.4183 28.2405L33.3551 30.2615C33.344 30.4897 33.3804 30.7176 33.4619 30.931C33.5434 31.1443 33.6683 31.3384 33.8288 31.501L45.4969 43.1691C45.6726 43.3304 45.8784 43.4554 46.1025 43.5371C46.3265 43.6188 46.5645 43.6556 46.8027 43.6453C47.041 43.6351 47.2749 43.578 47.4911 43.4773C47.7072 43.3766 47.9015 43.2343 48.0627 43.0586L51.8442 39.2771C52.2002 38.9284 52.4093 38.4567 52.4284 37.9587C52.4395 37.7306 52.4031 37.5026 52.3216 37.2893C52.2401 37.0759 52.1151 36.8818 51.9547 36.7193L40.2786 25.0511C40.1168 24.8893 39.923 24.7629 39.7096 24.6799C39.4962 24.597 39.2679 24.5595 39.0392 24.5696L37.0261 24.6327C36.9565 24.6374 36.8866 24.6271 36.8213 24.6025C36.756 24.578 36.6967 24.5398 36.6473 24.4904C36.598 24.4411 36.5598 24.3818 36.5352 24.3164C36.5107 24.2511 36.5004 24.1813 36.5051 24.1117L36.5919 21.3565L35.6682 20.4328L29.2105 26.8827L30.142 27.8063L32.8972 27.7195H32.913Z" fill="#201752"/>
<path d="M47.4782 39.198C47.4107 39.199 47.3437 39.1862 47.2812 39.1604C47.2188 39.1346 47.1623 39.0964 47.1151 39.048L37.5627 29.4956C37.4687 29.3997 37.416 29.2707 37.416 29.1364C37.416 29.0021 37.4687 28.8731 37.5627 28.7772C37.609 28.73 37.6643 28.6924 37.7253 28.6668C37.7863 28.6411 37.8518 28.6279 37.918 28.6279C37.9841 28.6279 38.0496 28.6411 38.1106 28.6668C38.1716 28.6924 38.2269 28.73 38.2732 28.7772L47.8335 38.3375C47.9034 38.4081 47.9508 38.4978 47.97 38.5953C47.9892 38.6928 47.9792 38.7938 47.9413 38.8856C47.9034 38.9774 47.8392 39.056 47.7568 39.1116C47.6745 39.1672 47.5776 39.1972 47.4782 39.198Z" fill="#201752"/>
<path d="M45.4266 17.3536C44.43 17.3563 43.4418 17.1715 42.5135 16.8089C42.3889 16.7595 42.2885 16.6633 42.2339 16.5408C42.1793 16.4184 42.1748 16.2794 42.2214 16.1537C42.245 16.0913 42.2808 16.0342 42.3266 15.9857C42.3724 15.9372 42.4273 15.8983 42.4882 15.8711C42.5491 15.844 42.6148 15.8292 42.6815 15.8275C42.7481 15.8259 42.8145 15.8374 42.8767 15.8616C43.9381 16.2766 45.0847 16.4262 46.2171 16.2976C47.3495 16.1689 48.4334 15.7658 49.3746 15.1233C50.3159 14.4807 51.0861 13.6182 51.6183 12.6105C52.1506 11.6027 52.4289 10.4803 52.4291 9.34066C52.4313 8.6891 52.3409 8.04052 52.1606 7.41439L48.5134 11.0617C48.4194 11.1567 48.2917 11.2106 48.1581 11.2117H46.2239C46.0904 11.2106 45.9626 11.1567 45.8687 11.0617L43.7056 8.89857C43.6101 8.80173 43.5563 8.6714 43.5556 8.53542V6.60916C43.5563 6.47317 43.6101 6.34284 43.7056 6.246L47.3529 2.60661C46.7271 2.42377 46.0785 2.33074 45.4266 2.33031C44.5033 2.33134 43.5893 2.51473 42.7371 2.86997C41.8849 3.2252 41.1113 3.74528 40.4606 4.40033C39.81 5.05539 39.2951 5.83251 38.9457 6.6871C38.5962 7.54168 38.4189 8.45687 38.4241 9.38014C38.4204 10.2505 38.5839 11.1135 38.9057 11.9222C38.9523 12.0479 38.9478 12.1869 38.8932 12.3093C38.8386 12.4318 38.7382 12.528 38.6136 12.5774C38.489 12.6266 38.35 12.6242 38.2271 12.571C38.1043 12.5177 38.0076 12.4178 37.9583 12.2932C37.3857 10.8316 37.2551 9.23391 37.5826 7.69863C37.9101 6.16336 38.6814 4.75809 39.8006 3.65735C40.9199 2.55661 42.3378 1.80887 43.8783 1.50698C45.4188 1.2051 47.0141 1.36237 48.466 1.95927C48.5434 1.99174 48.6118 2.04242 48.6655 2.10703C48.7191 2.17163 48.7563 2.24824 48.7739 2.33031C48.7907 2.41243 48.7865 2.49745 48.7617 2.5775C48.7368 2.65755 48.6921 2.73002 48.6318 2.78819L44.5661 6.85389V8.36964L46.4371 10.2328H47.9765L52.0501 6.16705C52.109 6.11564 52.1791 6.07861 52.2547 6.05887C52.3304 6.03912 52.4096 6.03722 52.4861 6.05329C52.5627 6.06936 52.6344 6.10297 52.6958 6.15148C52.7571 6.19999 52.8063 6.26207 52.8396 6.33284C53.2394 7.29886 53.4433 8.33467 53.4396 9.38014C53.4271 11.4978 52.5776 13.5246 51.0764 15.0184C49.5753 16.5121 47.5443 17.3516 45.4266 17.3536Z" fill="#201752"/>
<path d="M18.1186 44.6606C17.0762 44.6592 16.044 44.4554 15.0792 44.0606C15.0025 44.027 14.9347 43.976 14.8813 43.9116C14.8278 43.8471 14.7902 43.7711 14.7713 43.6895C14.756 43.6074 14.7609 43.5228 14.7856 43.443C14.8104 43.3632 14.8543 43.2906 14.9134 43.2317L18.9791 39.166V37.6502L17.1081 35.7871H15.6082L11.5425 39.8528C11.4839 39.9124 11.4111 39.956 11.331 39.9795C11.2508 40.003 11.166 40.0055 11.0846 39.987C11.0025 39.9721 10.9256 39.9368 10.8607 39.8844C10.7959 39.832 10.7453 39.7641 10.7135 39.687C10.1183 38.2348 9.96216 36.6399 10.2645 35.0999C10.5668 33.5598 11.3143 32.1423 12.4144 31.0229C13.5144 29.9035 14.9187 29.1314 16.4533 28.8023C17.9878 28.4732 19.5852 28.6016 21.0475 29.1715C21.1726 29.2223 21.2726 29.3205 21.3258 29.4446C21.379 29.5688 21.3812 29.7089 21.3317 29.8346C21.2825 29.9591 21.1858 30.059 21.0629 30.1123C20.9401 30.1656 20.8011 30.1679 20.6765 30.1188C19.6151 29.7038 18.4684 29.5541 17.336 29.6828C16.2036 29.8114 15.1198 30.2145 14.1785 30.8571C13.2373 31.4996 12.4671 32.3622 11.9348 33.3699C11.4025 34.3776 11.1242 35.5 11.1241 36.6397C11.1258 37.291 11.2161 37.939 11.3925 38.566L15.0398 34.9187C15.1337 34.8237 15.2614 34.7698 15.395 34.7687H17.3292C17.4628 34.7698 17.5905 34.8237 17.6844 34.9187L19.8475 37.0818C19.9416 37.1795 19.9952 37.3093 19.9975 37.4449V39.3791C19.9968 39.5151 19.943 39.6454 19.8475 39.7423L16.2082 43.3816C16.8312 43.5645 17.4772 43.6575 18.1265 43.658C19.2655 43.6554 20.3868 43.3756 21.3935 42.8428C22.4002 42.31 23.2621 41.5402 23.9048 40.5999C24.5475 39.6596 24.9517 38.5769 25.0824 37.4455C25.2132 36.314 25.0666 35.1677 24.6553 34.1056C24.6106 33.9819 24.6159 33.8458 24.6699 33.726C24.724 33.6061 24.8226 33.5121 24.9449 33.4638C25.0671 33.4155 25.2034 33.4168 25.3247 33.4673C25.4461 33.5179 25.5429 33.6137 25.5948 33.7345C26.0665 34.9499 26.2352 36.2618 26.0863 37.557C25.9373 38.8522 25.4752 40.0916 24.7399 41.1681C24.0046 42.2446 23.0182 43.1259 21.8659 43.7358C20.7137 44.3457 19.4302 44.6658 18.1265 44.6685L18.1186 44.6606Z" fill="#201752"/>
<path d="M32.4551 17.3537C32.3887 17.3545 32.3229 17.3416 32.2618 17.3158C32.2006 17.2899 32.1455 17.2518 32.0998 17.2037C32.0058 17.1077 31.9531 16.9788 31.9531 16.8444C31.9531 16.7101 32.0058 16.5812 32.0998 16.4852L37.5628 11.0301C37.6599 10.9518 37.7825 10.9121 37.907 10.9187C38.0316 10.9253 38.1493 10.9778 38.2375 11.066C38.3257 11.1542 38.3782 11.2719 38.3848 11.3964C38.3914 11.521 38.3517 11.6436 38.2733 11.7406L32.8103 17.2037C32.7649 17.2522 32.7098 17.2906 32.6486 17.3164C32.5874 17.3423 32.5215 17.355 32.4551 17.3537Z" fill="#201752"/>
<path d="M39.9632 20.7645C39.8638 20.7638 39.7669 20.7337 39.6846 20.6781C39.6022 20.6226 39.5381 20.5439 39.5001 20.4521C39.4622 20.3603 39.4522 20.2593 39.4714 20.1618C39.4906 20.0643 39.5381 19.9747 39.6079 19.904L43.0184 16.4857C43.0655 16.4385 43.1215 16.4011 43.1832 16.3756C43.2448 16.3501 43.3108 16.3369 43.3776 16.3369C43.4443 16.3369 43.5103 16.3501 43.572 16.3756C43.6336 16.4011 43.6896 16.4385 43.7368 16.4857C43.7839 16.5329 43.8214 16.5889 43.8469 16.6505C43.8724 16.7121 43.8856 16.7782 43.8856 16.8449C43.8856 16.9116 43.8724 16.9777 43.8469 17.0393C43.8214 17.1009 43.7839 17.1569 43.7368 17.2041L40.3263 20.6145C40.2791 20.6629 40.2226 20.7011 40.1602 20.7269C40.0977 20.7527 40.0307 20.7655 39.9632 20.7645Z" fill="#201752"/>
<path d="M20.171 29.6374C20.0362 29.638 19.9064 29.5871 19.8078 29.4953C19.7138 29.3993 19.6611 29.2704 19.6611 29.1361C19.6611 29.0017 19.7138 28.8728 19.8078 28.7769L25.2708 23.3138C25.3661 23.2186 25.4953 23.165 25.6301 23.165C25.7648 23.165 25.894 23.2186 25.9893 23.3138C26.0845 23.4091 26.138 23.5383 26.138 23.673C26.138 23.8078 26.0845 23.937 25.9893 24.0322L20.5262 29.4953C20.4301 29.586 20.3031 29.6368 20.171 29.6374Z" fill="#201752"/>
<path d="M25.6263 35.1005C25.5269 35.0997 25.43 35.0696 25.3477 35.0141C25.2653 34.9585 25.2011 34.8799 25.1632 34.7881C25.1253 34.6962 25.1153 34.5953 25.1345 34.4978C25.1537 34.4003 25.2011 34.3106 25.271 34.24L28.6815 30.8216C28.7767 30.7264 28.9059 30.6729 29.0407 30.6729C29.1754 30.6729 29.3046 30.7264 29.3999 30.8216C29.4951 30.9169 29.5487 31.0461 29.5487 31.1808C29.5487 31.3156 29.4951 31.4448 29.3999 31.5401L25.9894 34.9505C25.9422 34.9988 25.8857 35.0371 25.8233 35.0629C25.7608 35.0887 25.6938 35.1015 25.6263 35.1005Z" fill="#201752"/>
</svg>
