<svg width="30" height="44" viewBox="0 0 30 44" fill="none" xmlns="http://www.w3.org/2000/svg">
<path d="M8.44391 20.4935C8.04189 19.7153 7.72353 18.8966 7.49414 18.0513" stroke="white" stroke-width="3" stroke-linecap="round" stroke-linejoin="round"/>
<path d="M22.5094 18.0964C21.4692 21.8955 18.4842 25.6493 15.0018 25.6493C13.8101 25.627 12.6554 25.2316 11.7002 24.5187" stroke="white" stroke-width="1.2" stroke-linecap="round" stroke-linejoin="round"/>
<path d="M7.67505 37.4536V42.8808" stroke="white" stroke-width="1.2" stroke-linecap="round" stroke-linejoin="round"/>
<path d="M26.4895 42.8807C26.7843 42.8808 27.0763 42.822 27.3481 42.7078C27.62 42.5936 27.8663 42.4263 28.0727 42.2157C28.2791 42.0051 28.4414 41.7554 28.5501 41.4813C28.6587 41.2072 28.7116 40.9142 28.7056 40.6194V40.3028C28.7056 33.8805 25.8111 30.6242 19.0723 29.2222L15.0018 32.0715L10.9314 29.2222C4.19259 30.6242 1.29807 33.8805 1.29807 40.3028V40.6194C1.29205 40.9142 1.34493 41.2072 1.4536 41.4813C1.56227 41.7554 1.72456 42.0051 1.93094 42.2157C2.13733 42.4263 2.38368 42.5936 2.65554 42.7078C2.9274 42.822 3.21932 42.8808 3.51419 42.8807H26.4895Z" stroke="white" stroke-width="1.2" stroke-linecap="round" stroke-linejoin="round"/>
<path d="M22.3286 37.4536V42.8808" stroke="white" stroke-width="1.2" stroke-linecap="round" stroke-linejoin="round"/>
<path d="M10.9314 29.2224C11.9264 28.4083 11.9264 24.6997 11.9264 24.6997" stroke="white" stroke-width="1.2" stroke-linecap="round" stroke-linejoin="round"/>
<path d="M19.0721 29.2224C18.0771 28.4083 18.0771 24.6997 18.0771 24.6997" stroke="white" stroke-width="1.2" stroke-linecap="round" stroke-linejoin="round"/>
<path d="M14.7756 4.12134C22.238 4.12134 25.4039 6.88018 23.0069 17.7799C23.0069 17.8878 22.964 17.9914 22.8877 18.0677C22.8113 18.144 22.7078 18.1869 22.5998 18.1869C22.4919 18.1869 22.3884 18.144 22.312 18.0677C22.2357 17.9914 22.1928 17.8878 22.1928 17.7799C21.7405 16.1969 21.1526 12.9406 21.1526 12.9406C21.1299 12.7567 21.0375 12.5885 20.8944 12.4707C20.7514 12.3529 20.5686 12.2944 20.3837 12.3074C17.7606 12.2622 14.866 10.5888 14.866 10.5888C14.866 10.5888 14.1424 10.8149 14.2329 11.1767L15.3183 14.1165L10.479 11.5386C10.2509 11.4254 9.99314 11.3863 9.74175 11.4269C9.49035 11.4674 9.25793 11.5855 9.07698 11.7647L7.81063 17.7346C7.81063 17.8426 7.76774 17.9461 7.69141 18.0225C7.61507 18.0988 7.51154 18.1417 7.40359 18.1417C7.29563 18.1417 7.1921 18.0988 7.11576 18.0225C7.03943 17.9461 6.99654 17.8426 6.99654 17.7346C4.59952 6.88018 7.7654 4.12134 15.1826 4.12134" stroke="white" stroke-width="1.2" stroke-linecap="round" stroke-linejoin="round"/>
<path d="M5.82078 20.2221C6.02382 20.1853 6.21702 20.1069 6.3882 19.9917C6.55938 19.8765 6.70481 19.727 6.81531 19.5528C6.92581 19.3785 6.99898 19.1833 7.0302 18.9793C7.06141 18.7753 7.05 18.5671 6.99668 18.3678L5.95646 13.619C5.91374 13.419 5.83157 13.2296 5.71477 13.0618C5.59796 12.894 5.44887 12.7512 5.27621 12.6417C5.10354 12.5322 4.91078 12.4582 4.70919 12.4241C4.5076 12.39 4.30123 12.3965 4.10216 12.4431V12.4431C3.89816 12.4806 3.70385 12.559 3.53094 12.6735C3.35802 12.7881 3.21007 12.9365 3.09599 13.1097C2.98191 13.2829 2.90405 13.4775 2.86711 13.6816C2.83017 13.8857 2.83491 14.0952 2.88103 14.2974L3.19762 15.7446L3.92125 19.0462C4.02818 19.4475 4.28442 19.7928 4.63752 20.0113C4.99063 20.2299 5.41392 20.3053 5.82078 20.2221V20.2221Z" stroke="#FF5100" stroke-width="1.2" stroke-linecap="round" stroke-linejoin="round"/>
<path d="M2.88093 14.1616L1.65981 14.9757C1.53794 15.0389 1.43811 15.1376 1.37351 15.2587C1.30891 15.3798 1.28258 15.5177 1.29799 15.6541V15.7898L1.93117 18.5034C1.96916 18.631 2.04642 18.7435 2.15198 18.8247C2.25753 18.9059 2.386 18.9517 2.51912 18.9557L4.01161 19.227" stroke="#FF5100" stroke-width="1.2" stroke-linecap="round" stroke-linejoin="round"/>
<path d="M24.1829 20.2221C23.9799 20.1853 23.7867 20.1069 23.6155 19.9917C23.4443 19.8765 23.2989 19.727 23.1884 19.5528C23.0779 19.3785 23.0047 19.1833 22.9735 18.9793C22.9423 18.7753 22.9537 18.5671 23.007 18.3678L24.0472 13.619C24.0899 13.419 24.1721 13.2296 24.2889 13.0618C24.4057 12.894 24.5548 12.7512 24.7275 12.6417C24.9001 12.5322 25.0929 12.4582 25.2945 12.4241C25.4961 12.39 25.7024 12.3965 25.9015 12.4431C26.1055 12.4806 26.2998 12.559 26.4727 12.6735C26.6457 12.7881 26.7936 12.9365 26.9077 13.1097C27.0218 13.2829 27.0996 13.4775 27.1366 13.6816C27.1735 13.8857 27.1688 14.0952 27.1226 14.2974L26.8061 15.7446L26.0824 19.0462C25.9755 19.4475 25.7193 19.7928 25.3662 20.0113C25.013 20.2299 24.5898 20.3053 24.1829 20.2221Z" stroke="#FF5100" stroke-width="1.2" stroke-linecap="round" stroke-linejoin="round"/>
<path d="M27.1226 14.1616L28.3437 14.9757C28.4656 15.0389 28.5654 15.1376 28.63 15.2587C28.6946 15.3798 28.721 15.5177 28.7056 15.6541V15.7898L28.0724 18.5034C28.0344 18.631 27.9571 18.7435 27.8516 18.8247C27.746 18.9059 27.6175 18.9517 27.4844 18.9557L25.9919 19.227" stroke="#FF5100" stroke-width="1.2" stroke-linecap="round" stroke-linejoin="round"/>
<path d="M2.74518 14.2069C2.59917 12.5089 2.80759 10.799 3.35723 9.18576C3.90687 7.57251 4.78573 6.09106 5.93809 4.83536C7.09045 3.57966 8.49116 2.57711 10.0514 1.89129C11.6116 1.20546 13.2974 0.851318 15.0017 0.851318C16.706 0.851318 18.3917 1.20546 19.952 1.89129C21.5122 2.57711 22.9129 3.57966 24.0653 4.83536C25.2176 6.09106 26.0965 7.57251 26.6461 9.18576C27.1958 10.799 27.4042 12.5089 27.2582 14.2069" stroke="#FF5100" stroke-width="1.2" stroke-linecap="round" stroke-linejoin="round"/>
<path d="M5.8208 20.2222L6.54443 21.2172C6.9844 21.7972 7.57669 22.2439 8.25539 22.5074C8.93409 22.7709 9.67259 22.8409 10.3887 22.7096L13.0571 22.2122" stroke="#FF5100" stroke-width="1.2" stroke-linecap="round" stroke-linejoin="round"/>
<path d="M15.0595 20.7947L13.5395 21.0273C13.1445 21.0877 12.8732 21.457 12.9337 21.852L13.0356 22.5181C13.0961 22.9132 13.4653 23.1844 13.8604 23.124L15.3804 22.8914C15.7754 22.8309 16.0467 22.4617 15.9862 22.0666L15.8843 21.4005C15.8239 21.0055 15.4546 20.7342 15.0595 20.7947Z" stroke="#FF5100" stroke-width="1.2" stroke-linecap="round" stroke-linejoin="round"/>
</svg>
