<svg width="20" height="26" viewBox="0 0 20 26" xmlns="http://www.w3.org/2000/svg" xmlns:xlink="http://www.w3.org/1999/xlink"><title>atm / images / icon/Categorias/M/candado</title><defs><path d="M8 14.4v-.8c0-.44.358-.8.8-.8h14.4c.442 0 .8.36.8.8v.8H8zm3.2-4.8c0-2.646 2.154-4.8 4.8-4.8s4.8 2.154 4.8 4.8v1.6h-9.6V9.6zm12 1.6h-.8V9.6c0-3.53-2.87-6.4-6.4-6.4-3.53 0-6.4 2.87-6.4 6.4v1.6h-.8a2.403 2.403 0 0 0-2.4 2.4v12.8c0 1.323 1.077 2.4 2.4 2.4h14.4c1.323 0 2.4-1.077 2.4-2.4v-1.6a.8.8 0 0 0-1.6 0v1.6c0 .44-.358.8-.8.8H8.8c-.442 0-.8-.36-.8-.8V16h16v2.4a.8.8 0 0 0 1.6 0v-4.8c0-1.323-1.077-2.4-2.4-2.4z" id="a"/></defs><g transform="translate(-6 -3)" fill="none" fill-rule="evenodd"><mask id="b" fill="#fff"><use xlink:href="#a"/></mask><use fill="#050005" xlink:href="#a"/><path d="M0 0h32v32H0z" mask="url(#b)" fill="#333"/></g></svg>