<svg width="63" height="41" viewBox="0 0 63 41" fill="none" xmlns="http://www.w3.org/2000/svg">
<path d="M31.771 31.7291C39.9805 31.7291 46.6356 25.074 46.6356 16.8645C46.6356 8.65508 39.9805 2 31.771 2C23.5616 2 16.9065 8.65508 16.9065 16.8645C16.9065 25.074 23.5616 31.7291 31.771 31.7291Z" stroke="#4E4674" stroke-width="2.5"/>
<path d="M29.3891 28.3985C30.1695 28.5426 30.9634 28.6174 31.771 28.6231C38.265 28.6231 43.5295 23.3586 43.5295 16.8646C43.5295 10.3705 38.265 5.10608 31.771 5.10608C30.1027 5.10608 28.5157 5.45348 27.0781 6.07988C24.58 7.16842 22.5335 9.0995 21.2975 11.5142C20.4759 13.1191 20.0125 14.9377 20.0125 16.8646C20.0125 18.6128 20.394 20.272 21.0783 21.7633C21.5669 22.828 22.2098 23.8071 22.9784 24.6721" stroke="#4E4674" stroke-width="2.5" stroke-linecap="round"/>
<path d="M24.3599 25.9939C25.313 26.7686 26.3899 27.3971 27.5562 27.845" stroke="#4E4674" stroke-width="2.5" stroke-linecap="round"/>
<path d="M43.9731 28.623L46.6354 31.2853" stroke="#4E4674" stroke-width="2.5"/>
<path fill-rule="evenodd" clip-rule="evenodd" d="M46.2053 30.8551C45.3655 31.6949 45.3655 33.0566 46.2053 33.8964L51.124 38.8151C51.9639 39.655 53.3255 39.655 54.1653 38.8151C55.0052 37.9753 55.0052 36.6137 54.1653 35.7738L49.2466 30.8551C48.4068 30.0153 47.0451 30.0153 46.2053 30.8551Z" fill="#A7A3BA" stroke="#4E4674" stroke-width="2.5"/>
<path d="M48.4104 31.7291L53.2913 36.61" stroke="white" stroke-width="2.5" stroke-linecap="round"/>
<path d="M31.9929 8.65576C31.4279 8.65576 30.8758 8.71135 30.3419 8.81734M28.7292 9.31072C25.6938 10.5863 23.5623 13.5874 23.5623 17.0864" stroke="#4E4674" stroke-width="2.5" stroke-linecap="round"/>
<path d="M55.5877 16.9876H51.96M58.3939 13.5366H50.7727H58.3939ZM61.4999 13.5366H60.5143H61.4999Z" stroke="#4E4674" stroke-width="2.5" stroke-linecap="round" stroke-linejoin="round"/>
<path d="M15.6532 26.7494H12.0255M13.5785 22.8547H5.95732H13.5785ZM3.37302 22.8547H1.5H3.37302Z" stroke="#4E4674" stroke-width="2.5" stroke-linecap="round" stroke-linejoin="round"/>
</svg>
