<svg width="60" height="60" viewBox="0 0 60 60" fill="none" xmlns="http://www.w3.org/2000/svg">
<path fill-rule="evenodd" clip-rule="evenodd" d="M30 57.75C45.3259 57.75 57.75 45.3259 57.75 30C57.75 14.6741 45.3259 2.25 30 2.25C14.6741 2.25 2.25 14.6741 2.25 30C2.25 45.3259 14.6741 57.75 30 57.75Z" fill="#FFD8DF"/>
<path d="M27 40.875C27 40.5 27.125 40.125 27.25 39.75C27.375 39.375 27.625 39.125 27.875 38.875C28.125 38.625 28.5 38.375 28.875 38.25C29.25 38.125 29.625 38 30.125 38C30.625 38 31 38.125 31.375 38.25C31.75 38.375 32.125 38.625 32.375 38.875C32.625 39.125 32.875 39.375 33 39.75C33.125 40.125 33.25 40.5 33.25 40.875C33.25 41.25 33.125 41.625 33 42C32.875 42.375 32.625 42.625 32.375 42.875C32.125 43.125 31.75 43.375 31.375 43.5C31 43.625 30.625 43.75 30.125 43.75C29.625 43.75 29.25 43.625 28.875 43.5C28.5 43.375 28.25 43.125 27.875 42.875C27.625 42.625 27.375 42.375 27.25 42C27.125 41.625 27 41.375 27 40.875ZM32.25 35.125H27.75L27.125 16.25H32.875L32.25 35.125Z" fill="#FE3A61"/>
</svg>
