<?xml version="1.0" encoding="UTF-8"?><svg id="Capa_1" xmlns="http://www.w3.org/2000/svg" viewBox="0 0 128 128"><defs><style>.cls-1{fill:#aa9ec0;stroke-width:0px;}</style></defs><path class="cls-1" d="m110.05,47.42c-2.02-.81-4.3-1.62-6.36-2.45-.93,2.28-1.82,4.45-2.74,6.69,5.39,2.22,10.7,4.39,16.01,6.57,2.73-4.29,5.39-8.48,8.07-12.66l.73-1.18-1.25-.79c-1.63-.99-3.23-2.04-4.88-3.08-.94,1.46-1.81,2.82-2.73,4.27C108.55,20,80.93,3.18,52.75,9.26,29.22,14.33,13.22,33.41,9.81,53.07c2.34.45,4.67.89,7.04,1.34.89-4.43,2.25-8.53,4.24-12.4,10.29-20.05,31.89-30.46,53.93-25.47,16.67,3.78,28.15,14.03,34.62,29.86l.42,1.02Z"/><path class="cls-1" d="m89.8,98.19h-50.75V30.27c.39-.26.84-.14,1.27-.14,13.23,0,26.45,0,39.68-.02.83,0,1.41.24,1.99.83,2.35,2.37,4.74,4.7,7.13,7.03.45.44.7.88.7,1.56-.02,19.26-.02,38.51-.02,57.77,0,.27,0,.55,0,.89Zm-8.47-7.25c.68,0,1.23-.55,1.23-1.23v-.19c0-14.26,0-28.53,0-42.79,0-1.56.07-3.11-.13-4.64-.03-.24-.13-.46-.29-.64-.94-1.07-2.21-2.51-3.12-3.27-.57-.62-1.18-.8-2-.8-9.8.02-19.61.01-29.41.02,0,0,0,0-.01,0-.69,0-1.27.53-1.27,1.23v51.08c0,.68.55,1.23,1.23,1.23h33.79Z"/><path class="cls-1" d="m11.72,82.5c-1.21,1.81-2.3,3.43-3.45,5.15-2.01-1.33-3.96-2.63-6.03-4.01,3.18-4.78,6.35-9.54,9.6-14.41,4.99,2.18,9.97,4.35,15.02,6.55-.97,2.23-1.91,4.38-2.89,6.63-1.76-.76-3.47-1.49-5.22-2.24,4.75,15.47,20.91,31.71,43.88,32.54,23.96.86,44.87-15.73,49.45-39.58,2.34.43,4.68.85,7.02,1.28-3.54,21.32-21.26,41.47-46.98,45.05-26.57,3.7-51.55-11.84-60.4-36.95Z"/><path class="cls-1" d="m56.18,45.23h16.43v7.14h-16.43v-7.14Z"/><path class="cls-1" d="m72.65,60.62v7.11h-16.49v-7.11h16.49Z"/><path class="cls-1" d="m72.6,83.05h-16.44v-7.13h16.44v7.13Z"/></svg>