<svg width="30" height="30" viewBox="0 0 30 30" fill="none" xmlns="http://www.w3.org/2000/svg">
<path fill-rule="evenodd" clip-rule="evenodd" d="M0.523134 18.9748V6.04105C0.523134 4.05084 2.14232 2.43164 4.13254 2.43164H26.3906C28.3808 2.43164 30 4.05084 30 6.04105V18.9748C30 20.965 28.3808 22.5842 26.3906 22.5842H23.1508L23.0817 25.8432C23.061 26.8223 21.9366 27.3682 21.1545 26.7784L15.5913 22.5843H4.13254C2.14232 22.5842 0.523134 20.965 0.523134 18.9748ZM15.994 20.1779C16.2554 20.1779 16.5095 20.2631 16.7183 20.4204L20.7258 23.4417L20.77 21.3556C20.7839 20.7013 21.3183 20.178 21.9728 20.178H26.3906C27.054 20.178 27.5937 19.6383 27.5937 18.9749V6.04114C27.5937 5.37775 27.054 4.83799 26.3906 4.83799H4.13254C3.46914 4.83799 2.92938 5.37775 2.92938 6.04114V18.9749C2.92938 19.6383 3.46914 20.178 4.13254 20.178L15.994 20.1779ZM7.74195 10.3272C7.74195 10.9918 8.28057 11.5304 8.94511 11.5304H21.578C22.2425 11.5304 22.7812 10.9918 22.7812 10.3272C22.7812 9.66273 22.2425 9.1241 21.578 9.1241H8.94511C8.28057 9.1241 7.74195 9.66273 7.74195 10.3272ZM9.92262 15.5909C9.92262 16.2555 10.4612 16.7941 11.1258 16.7941H19.3974C20.0618 16.7941 20.6005 16.2555 20.6005 15.5909C20.6005 14.9265 20.0618 14.3879 19.3974 14.3879H11.1258C10.4612 14.3879 9.92262 14.9265 9.92262 15.5909Z" fill="white"/>
</svg>
