<svg width="26" height="26" viewBox="0 0 26 26" xmlns="http://www.w3.org/2000/svg" xmlns:xlink="http://www.w3.org/1999/xlink"><title>atm / images / icon/Web-App/M/phone</title><defs><path d="M11.915 3.2c1.323 0 2.4 1.077 2.4 2.4v4.8c0 1.323-1.077 2.4-2.4 2.4h-1.6c-.441 0-.8.36-.8.8v4.8c0 .44.359.8.8.8h1.6c1.323 0 2.4 1.077 2.4 2.4v4.8c0 1.323-1.077 2.4-2.4 2.4h-1.6c-2.2 0-6.153-2.003-7.022-9.507a.802.802 0 0 1 .702-.888.81.81 0 0 1 .887.702c.926 8 5.25 8.093 5.433 8.093h1.6c.442 0 .8-.36.8-.8v-4.8c0-.44-.358-.8-.8-.8h-1.6a2.403 2.403 0 0 1-2.4-2.4v-4.8c0-1.323 1.077-2.4 2.4-2.4h1.6c.442 0 .8-.36.8-.8V5.6c0-.44-.358-.8-.8-.8h-1.628c-.419.013-4.507.339-5.405 8.093a.804.804 0 0 1-.887.702.802.802 0 0 1-.702-.888C4.162 5.203 8.115 3.2 10.315 3.2zm14.237 1.92c.104.14 2.56 3.5 2.56 10.88 0 7.381-2.456 10.741-2.56 10.88a.802.802 0 0 1-1.12.16.8.8 0 0 1-.16-1.12c.02-.028 2.24-3.128 2.24-9.92s-2.22-9.892-2.241-9.923a.802.802 0 0 1 .166-1.118.796.796 0 0 1 1.115.161zm-3.975 3.237c.072.105 1.735 2.659 1.735 7.643s-1.663 7.538-1.735 7.643a.795.795 0 0 1-1.108.223.8.8 0 0 1-.223-1.11c.013-.018 1.466-2.298 1.466-6.756s-1.453-6.738-1.467-6.76a.8.8 0 0 1 1.332-.883zm-3.95 2.486c.037.072.885 1.808.885 5.157 0 3.35-.848 5.086-.885 5.158a.798.798 0 0 1-1.072.358.8.8 0 0 1-.361-1.068c.008-.016.718-1.516.718-4.448 0-2.933-.71-4.43-.718-4.447a.8.8 0 0 1 1.434-.71z" id="a"/></defs><g transform="translate(-3 -3)" fill="none" fill-rule="evenodd"><mask id="b" fill="#fff"><use xlink:href="#a"/></mask><use fill="#050005" xlink:href="#a"/><path d="M0 0h32v32H0z" mask="url(#b)" fill="#333"/></g></svg>