<svg width="26" height="26" viewBox="0 0 26 26" xmlns="http://www.w3.org/2000/svg" xmlns:xlink="http://www.w3.org/1999/xlink"><title>atm / images / icon/Web-App/M/ribbon</title><defs><path d="M14.222 3.72c.997-.65 2.559-.65 3.556 0l.516.335c.608.395 1.78.743 2.506.743h.8c1.323 0 2.4 1.076 2.4 2.4v.8c0 .724.347 1.897.742 2.505l.336.517c.648.997.648 2.558 0 3.555l-.336.517c-.395.608-.742 1.78-.742 2.506v.468l4.234 4.234c.763.763.606 1.422.502 1.67-.102.25-.458.828-1.536.828h-1.6c-.442 0-.8.36-.8.8v1.568c0 1.076-.578 1.435-.826 1.537-.097.042-.256.09-.459.09-.32 0-.749-.12-1.216-.583l-1.26-1.243a.801.801 0 0 1 1.123-1.139l1.038 1.024v-1.254c0-1.324 1.077-2.4 2.4-2.4h1.269l-3.362-3.362a2.386 2.386 0 0 1-1.907.962h-.8c-.726 0-1.898.347-2.506.742l-.516.336c-.5.325-1.138.486-1.778.486-.131 0-.254-.036-.384-.05l-5.918 5.892c-.468.466-.898.587-1.218.587-.2 0-.358-.048-.454-.09-.248-.102-.826-.459-.826-1.535v-1.568c0-.44-.358-.8-.8-.8H4.8c-1.078 0-1.434-.578-1.536-.828-.104-.248-.26-.907.502-1.67L8 18.066v-.468c0-.725-.347-1.898-.742-2.506l-.336-.517c-.648-.997-.648-2.558 0-3.555l.336-.517C7.653 9.895 8 8.723 8 7.998v-.8c0-1.324 1.077-2.4 2.4-2.4h.8c.726 0 1.898-.348 2.506-.743zm-5.73 16.116l-3.36 3.362H6.4c1.323 0 2.4 1.076 2.4 2.4v1.241l5.158-5.136-.252-.163c-.608-.395-1.78-.742-2.506-.742h-.8c-.78 0-1.469-.381-1.907-.962zM16.907 5.06c-.474-.306-1.338-.306-1.812 0l-.516.336c-.864.563-2.348 1.002-3.378 1.002h-.8c-.442 0-.8.36-.8.8v.8c0 1.03-.44 2.512-1 3.377l-.338.517c-.307.472-.307 1.34.002 1.811l.334.517c.562.866 1.002 2.347 1.002 3.378v.8c0 .44.358.8.8.8h.8c1.03 0 2.514.438 3.378 1.001l.516.336c.474.306 1.338.306 1.812 0l.516-.336c.864-.563 2.348-1.001 3.378-1.001h.8c.442 0 .8-.36.8-.8v-.8c0-1.03.44-2.512 1-3.378l.338-.517c.307-.472.307-1.339-.002-1.811l-.334-.517C22.84 10.51 22.4 9.028 22.4 7.998v-.8c0-.44-.358-.8-.8-.8h-.8c-1.03 0-2.514-.439-3.378-1.002zM16 7.998c2.646 0 4.8 2.153 4.8 4.8 0 2.646-2.154 4.8-4.8 4.8a4.806 4.806 0 0 1-4.8-4.8c0-2.647 2.154-4.8 4.8-4.8zm0 1.6a3.203 3.203 0 0 0-3.2 3.2c0 1.764 1.435 3.2 3.2 3.2 1.765 0 3.2-1.436 3.2-3.2 0-1.765-1.435-3.2-3.2-3.2z" id="a"/></defs><g transform="translate(-3 -3)" fill="none" fill-rule="evenodd"><mask id="b" fill="#fff"><use xlink:href="#a"/></mask><use fill="#050005" xlink:href="#a"/><path d="M0 0h32v32H0z" mask="url(#b)" fill="#333"/></g></svg>