<svg width="30" height="30" viewBox="0 0 30 30" fill="none" xmlns="http://www.w3.org/2000/svg">
<path d="M15 28C22.1797 28 28 22.1797 28 15C28 7.8203 22.1797 2 15 2C7.8203 2 2 7.8203 2 15C2 17.5743 2.74829 19.9739 4.03922 21.9931C4.20015 22.2448 4.26184 22.549 4.19702 22.8406L3.18182 27.409L7.13593 25.9263C7.46362 25.8034 7.82903 25.8507 8.1259 26.0359C10.1201 27.2808 12.476 28 15 28Z" stroke="black" stroke-opacity="0.87" stroke-width="2.5"/>
<path d="M11.1098 7.70266C10.5553 7.54551 9.63206 7.70266 9.63206 7.70266C8.1543 8.34441 7.50134 10.3541 7.65598 11.6376C7.81064 12.9211 8.79008 15.0828 11.2473 17.6837C13.7045 20.2844 16.3507 21.0444 18.6876 21.7031C20.5571 22.23 22.1358 20.7629 22.6913 19.9636C22.6913 19.9636 23.1896 18.7983 22.9147 17.9708C21.4369 17.1939 19.1172 16.2313 19.1172 16.2313C19.1172 16.2313 18.5508 16.9695 18.1722 17.4303C17.8112 17.8695 17.5536 18.2578 17.2099 18.2916C16.8661 18.3254 15.251 17.5992 13.6186 16.2313C12.5632 15.3468 11.3332 13.5798 11.5394 13.3096C11.5394 13.3096 11.9689 12.786 12.2954 12.4146C12.5839 12.0862 12.6942 11.8483 12.8281 11.435C12.914 11.2999 11.4362 7.79516 11.1098 7.70266Z" fill="black" fill-opacity="0.87"/>
</svg>
