<svg width="111" height="93" viewBox="0 0 111 93" fill="none" xmlns="http://www.w3.org/2000/svg">
<path d="M5.04918 72.294C-0.794816 62.73 -2.18682 48.678 6.29718 40.554C8.0767 39.0413 10.1326 37.888 12.3512 37.158C14.2352 36.174 16.1132 35.178 17.9432 34.158C21.6032 32.076 25.0592 29.802 27.8672 26.958C38.5292 16.146 39.0932 0.401964 57.7652 0.0779638C63.8372 -0.0240362 71.3132 1.52996 78.7652 4.40996C81.289 5.38248 83.7603 6.48598 86.1692 7.71596C107.709 16.764 118.689 44.514 104.469 64.38C103.365 66.102 102.201 67.77 101.007 69.354C99.8132 70.938 98.6072 72.438 97.3772 73.842C84.2612 89.052 61.7192 96.528 37.3772 91.098C34.6156 90.4828 31.8895 89.7177 29.2112 88.806C21.1772 86.184 13.9292 82.32 8.36118 76.662C7.14059 75.2982 6.03294 73.8373 5.04918 72.294Z" fill="#EAE6EF"/>
<path d="M32.8171 36.5939C31.4844 36.4368 30.211 35.9533 29.1098 35.1865C28.0085 34.4197 27.1134 33.393 26.5037 32.1976C25.894 31.0022 25.5885 29.6748 25.6143 28.3332C25.6401 26.9915 25.9964 25.6768 26.6516 24.5057C27.3069 23.3346 28.2408 22.3432 29.3708 21.6193C30.5007 20.8954 31.7917 20.4613 33.1295 20.3555C34.4672 20.2497 35.8104 20.4754 37.0401 21.0128C38.2698 21.5501 39.348 22.3824 40.1791 23.4359V23.4359C41.0375 24.5239 41.6046 25.8126 41.827 27.1805C42.0494 28.5484 41.9198 29.9503 41.4503 31.2542C40.9809 32.5581 40.1871 33.721 39.1438 34.6332C38.1005 35.5453 36.842 36.1768 35.4871 36.4679C34.6098 36.6544 33.7081 36.6969 32.8171 36.5939V36.5939Z" stroke="#2E0563" stroke-width="3" stroke-linecap="round" stroke-linejoin="round"/>
<path d="M50.7872 68.7903L36.5912 46.9143L31.0832 54.0783L34.3532 64.7823C34.5167 65.3157 34.5724 65.8762 34.5169 66.4313C34.4614 66.9864 34.2959 67.5249 34.03 68.0153C33.7641 68.5057 33.4032 68.9382 32.9683 69.2876C32.5335 69.637 32.0334 69.8963 31.4972 70.0503L31.3472 70.0863C30.349 70.2967 29.3082 70.1249 28.4306 69.605C27.5529 69.0851 26.9023 68.2548 26.6072 67.2783L22.7372 54.6363C22.5622 54.0718 22.5128 53.4758 22.5926 52.8901C22.6724 52.3045 22.8795 51.7434 23.1992 51.2463L33.2312 37.2783" stroke="#2E0563" stroke-width="3" stroke-linecap="round" stroke-linejoin="round"/>
<path d="M50.8592 40.2783L59.2112 55.3563L76.6952 53.1663C78.5298 52.9361 80.3918 53.0728 82.1732 53.5683L95.4392 57.2763C95.9548 57.4804 96.4249 57.7846 96.8223 58.1714C97.2197 58.5581 97.5366 59.0197 97.7547 59.5295C97.9728 60.0394 98.0878 60.5874 98.093 61.1419C98.0983 61.6964 97.9936 62.2465 97.7852 62.7603C97.6064 63.2007 97.3527 63.6067 97.0352 63.9603C96.4608 64.6165 95.6965 65.0777 94.8482 65.2798C93.9999 65.482 93.1097 65.415 92.3012 65.0883L78.8972 61.7703L61.1612 63.3303L76.2212 68.2443C77.6953 68.7276 78.9635 69.6936 79.8212 70.9863L87.0872 81.9663C87.6925 82.7611 88.0113 83.7373 87.9916 84.7361C87.972 85.735 87.6152 86.6979 86.9792 87.4683C86.7638 87.7305 86.5181 87.9661 86.2472 88.1703C85.3137 88.882 84.1359 89.1939 82.9725 89.0375C81.8092 88.8811 80.7555 88.2692 80.0432 87.3363L71.4872 75.7983L52.6592 69.7983C51.973 69.6054 51.3352 69.2701 50.7872 68.8143" stroke="#2E0563" stroke-width="3" stroke-linecap="round" stroke-linejoin="round"/>
<path d="M48.0451 34.9623L56.4451 26.2983C56.8724 25.8603 57.1945 25.331 57.3871 24.7503L61.9351 12.4803C62.1085 11.9681 62.1792 11.4269 62.1434 10.8874C62.1076 10.3478 61.9658 9.82068 61.7262 9.33596C61.4867 8.85124 61.154 8.41845 60.7471 8.06231C60.3403 7.70617 59.8673 7.43364 59.3551 7.2603C58.843 7.08695 58.3017 7.01618 57.7622 7.05203C57.2227 7.08787 56.6955 7.22963 56.2108 7.4692C55.7261 7.70878 55.2933 8.04148 54.9371 8.44831C54.581 8.85515 54.3085 9.32814 54.1351 9.8403L49.8871 21.2403L41.8771 29.4783" stroke="#2E0563" stroke-width="3" stroke-linecap="round" stroke-linejoin="round"/>
<path d="M41.9612 70.1758L34.9352 74.9158L43.8152 75.4618L40.1972 85.4218L50.2412 78.2998L54.0392 85.1098L57.3092 78.8998" stroke="#FF6D00" stroke-width="3" stroke-linecap="round" stroke-linejoin="round"/>
</svg>
