<svg width="109" height="94" viewBox="0 0 109 94" fill="none" xmlns="http://www.w3.org/2000/svg">
<path d="M47.064 4.07326L47.34 4.02526C63.168 1.50526 75.492 1.97925 87.51 14.6033C90.2281 17.4712 92.6933 20.5688 94.878 23.8613C96.9208 27.0089 98.7974 30.2613 100.5 33.6053C107.352 47.1593 110.856 62.4053 105.234 75.7313C95.7 98.0033 65.304 95.8733 46.248 89.6993C28.152 83.8373 7.80001 67.3733 1.65601 48.0953C-7.84799 18.2693 25.728 7.46326 47.064 4.07326Z" fill="#E8E4ED"/>
<path d="M44.0699 80.6627V71.5967C44.0699 69.0107 51.552 64.8047 57.666 64.8047C63.78 64.8047 71.262 69.0047 71.262 71.5967V80.6627" stroke="#2E0563" stroke-width="3" stroke-linecap="round" stroke-linejoin="round"/>
<path d="M57.666 64.8047C61.752 64.8047 64.464 61.3247 64.464 57.0047V54.4367C64.464 50.1467 61.758 46.6367 57.666 46.6367C53.574 46.6367 50.868 50.1167 50.868 54.4367V57.0287C50.868 61.3247 53.58 64.8047 57.666 64.8047Z" stroke="#2E0563" stroke-width="3" stroke-linecap="round" stroke-linejoin="round"/>
<path d="M44.0699 43.6189V34.5469C44.0699 31.9609 51.552 27.7549 57.666 27.7549C63.78 27.7549 71.262 31.9549 71.262 34.5469V43.6189" stroke="#2E0563" stroke-width="3" stroke-linecap="round" stroke-linejoin="round"/>
<path d="M57.666 27.755C61.752 27.755 64.464 24.275 64.464 19.985V17.393C64.464 13.103 61.758 9.62305 57.666 9.62305C53.574 9.62305 50.868 13.103 50.868 17.423V20.015C50.868 24.275 53.58 27.755 57.666 27.755Z" stroke="#FF6D00" stroke-width="3" stroke-linecap="round" stroke-linejoin="round"/>
<path d="M78.066 67.5165V65.2725C78.066 62.6805 85.548 58.4805 91.662 58.4805C97.776 58.4805 100.722 60.7365 100.722 65.2785C100.722 69.8205 98.46 78.8745 98.46 78.8745" stroke="#2E0563" stroke-width="3" stroke-linecap="round" stroke-linejoin="round"/>
<path d="M89.4001 58.4571C93.4861 58.4571 96.1981 54.9771 96.1981 50.6571V48.0891C96.1981 43.7991 93.4861 40.2891 89.4001 40.2891C85.3141 40.2891 82.6021 43.7691 82.6021 48.0891V50.6811C82.5961 54.9771 85.3081 58.4571 89.4001 58.4571Z" stroke="#2E0563" stroke-width="3" stroke-linecap="round" stroke-linejoin="round"/>
<path d="M78.882 26.7227C81.15 22.1927 84.498 19.9307 89.082 19.9307C93.666 19.9307 97.014 22.1867 97.014 26.7287C97.014 29.7287 96.042 33.6287 95.37 35.9987" stroke="#2E0563" stroke-width="3" stroke-linecap="round" stroke-linejoin="round"/>
<path d="M85.68 19.931C89.766 19.931 92.478 16.451 92.478 12.131V9.56297C92.478 5.27297 89.772 1.79297 85.68 1.79297C81.588 1.79297 78.882 5.27297 78.882 9.59297V12.185C78.882 16.451 81.6 19.931 85.68 19.931Z" stroke="#2E0563" stroke-width="3" stroke-linecap="round" stroke-linejoin="round"/>
<path d="M37.272 67.5165V65.2725C37.272 62.6805 29.79 58.4805 23.676 58.4805C17.562 58.4805 14.61 60.7125 14.61 65.2725C14.61 69.8325 16.878 78.8685 16.878 78.8685" stroke="#2E0563" stroke-width="3" stroke-linecap="round" stroke-linejoin="round"/>
<path d="M25.938 58.4571C21.852 58.4571 19.14 54.9771 19.14 50.6571V48.0891C19.14 43.7991 21.852 40.2891 25.938 40.2891C30.024 40.2891 32.742 43.7691 32.742 48.0891V50.6811C32.742 54.9771 30.03 58.4571 25.938 58.4571Z" stroke="#2E0563" stroke-width="3" stroke-linecap="round" stroke-linejoin="round"/>
<path d="M38.442 26.7227C36.18 22.1927 32.832 19.9307 28.242 19.9307C23.652 19.9307 20.316 22.1867 20.316 26.7287C20.316 29.7287 21.288 33.6287 21.954 35.9987" stroke="#2E0563" stroke-width="3" stroke-linecap="round" stroke-linejoin="round"/>
<path d="M31.644 19.931C27.558 19.931 24.846 16.451 24.846 12.131V9.56297C24.846 5.27297 27.558 1.79297 31.644 1.79297C35.73 1.79297 38.442 5.27297 38.442 9.59297V12.185C38.442 16.451 35.736 19.931 31.644 19.931Z" stroke="#2E0563" stroke-width="3" stroke-linecap="round" stroke-linejoin="round"/>
</svg>
