<svg width="400" height="401" viewBox="0 0 400 401" fill="none" xmlns="http://www.w3.org/2000/svg">
<path d="M33.1599 339.494C52.1366 333.147 87.3203 328.206 121.155 326.121C162.989 323.546 192.056 326.619 225.906 327.975C277.693 330.557 352.525 324.289 381.701 332.721C404.781 339.393 392.693 347.5 364.181 354.987C269.218 379.921 87.0245 388.843 24.3531 370.645C20.521 369.603 16.7931 368.21 13.2167 366.484C-1.3386 359.184 4.78501 349.339 33.1599 339.494Z" fill="white"/>
<path d="M282.172 60.6783L283.348 75.5437L297.932 76.1712L292.053 53.1338L282.172 60.6783Z" fill="#B4AFC6"/>
<path d="M275.933 63.3976C274.086 63.3471 272.37 63.0658 271.475 62.3373C266.138 54.5764 272.197 33.6523 272.197 33.6523L280.722 30.0459L291.541 36.8042L292.154 50.8258C292.214 52.7123 291.804 54.584 290.96 56.2724C290.116 57.9608 288.866 59.4129 287.322 60.498C283.854 62.4671 279.92 63.4684 275.933 63.3976Z" fill="#C3BFD2"/>
<path d="M289.875 44.7962C289.284 42.4376 289.594 37.0064 287.192 37.3959C285.447 37.6844 279.453 37.9297 277.433 37.9297C272.622 37.9297 264.054 36.0544 264.054 28.7334C264.054 25.0766 267.602 21.9246 269.824 20.987C272.054 20.0837 274.54 20.0425 276.799 20.8716C282.093 22.718 289.118 26.8004 291.945 26.2378C296.655 25.293 301.358 28.0554 301.322 32.0585C301.257 36.3357 299.021 42.7622 296.922 46.8518C295.702 49.2114 294.076 51.3379 292.118 53.1341L289.875 44.7962Z" fill="#28195D"/>
<path d="M294.751 45.2941C293.676 44.3492 291.671 44.5296 290.272 45.698C288.873 46.8665 288.599 48.5831 289.673 49.5208C290.748 50.4584 292.753 50.2925 294.152 49.1241C295.552 47.9556 295.826 46.239 294.751 45.2941Z" fill="#C3BFD2"/>
<path d="M241.153 72.2044C240.923 71.4831 239.898 69.1967 235.823 66.0519C232.166 63.2245 222.84 59.5605 226.887 56.7764C231.885 57.1731 237.8 57.0432 237.8 57.0432C240.793 57.5842 244.291 61.3204 246.058 64.0612L250.386 73.1276C250.386 73.1276 248.381 77.5851 248.323 77.8087L246.238 77.412C244.822 75.4244 243.107 73.6677 241.153 72.2044Z" fill="#C3BFD2"/>
<path d="M240.937 69.6369C240.918 69.3928 240.874 69.1512 240.807 68.9156C241.449 69.0454 242.098 69.132 242.74 69.1969C244.803 70.4591 246.902 71.6492 248.972 72.8826C248.092 73.9717 246.859 75.4936 246.808 75.6234L231.661 70.2355C231.661 70.2355 231.496 68.1583 234.864 68.2232C236.961 68.2952 239.024 68.7754 240.937 69.6369Z" fill="#C3BFD2"/>
<path d="M264.054 102.995L240.648 81.2415L248.727 69.1602L280.744 84.278L266.809 108.78L264.054 102.995Z" fill="#5C5084"/>
<path d="M290.049 66.6798C323.429 59.7628 317.616 170.298 317.616 170.298H264.811C264.811 170.298 264.054 151.054 262.128 126.654C260.491 105.953 272.096 82.5838 290.049 66.6798Z" fill="#A39CB9"/>
<path d="M272.666 353.133C272.666 353.133 267.465 357.958 255.607 360.98C252.996 361.644 250.176 360.757 250.176 365.063H264.602L276.568 362.993V365.041H283.059C283.059 365.041 284.862 354.467 281.083 353.111L272.666 353.133Z" fill="#28195D"/>
<path d="M273.394 345.566L272.673 353.154C273.829 353.958 275.193 354.41 276.6 354.458C278.008 354.505 279.399 354.145 280.607 353.421L281.047 353.154L282.374 345.566H273.394Z" fill="#C3BFD2"/>
<path d="M197.812 101.308C197.091 101.236 194.602 100.752 190.599 97.4849C187.029 94.5565 181.396 86.2835 179.564 90.8492C181.071 95.6312 182.269 101.423 182.269 101.423C183.459 104.222 187.887 106.818 190.924 107.915L200.741 110.136C200.741 110.136 204.635 107.186 204.845 107.078L203.993 105.13C201.747 104.186 199.661 102.896 197.812 101.308Z" fill="#C3BFD2"/>
<path d="M195.295 101.668C195.044 101.705 194.791 101.717 194.538 101.704C194.805 102.31 195.035 102.916 195.259 103.529C196.947 105.253 198.577 107.034 200.243 108.78C201.108 107.676 202.32 106.133 202.407 106.039L193.752 92.4502C193.752 92.4502 191.696 92.7531 192.511 96.0566C193.063 98.0913 194.009 99.9979 195.295 101.668Z" fill="#C3BFD2"/>
<path d="M323.48 342.509C323.48 342.509 318.272 347.334 306.414 350.356C303.803 351.02 300.99 350.133 300.99 354.439H315.38L327.353 352.369V354.439H333.844C333.844 354.439 335.647 343.865 331.868 342.509H323.48Z" fill="#28195D"/>
<path d="M324.201 334.914L323.479 342.509C324.635 343.314 325.999 343.768 327.407 343.815C328.815 343.863 330.206 343.502 331.413 342.776L331.861 342.509L333.202 334.914H324.201Z" fill="#C3BFD2"/>
<path d="M317.615 170.298C317.615 170.298 313.389 192.657 317.168 239.021C317.837 247.204 319.693 255.246 322.679 262.895C332.849 288.962 334.219 337.063 334.219 337.063H322.607L281.609 219.813L317.615 170.298Z" fill="#28195D"/>
<path d="M297.932 103.168C297.932 103.168 288.808 137.176 264.032 140.307C239.257 143.437 198.562 112.112 198.562 112.112L203.034 103.168L246.001 115.199C249.177 116.089 252.561 115.873 255.598 114.588C258.636 113.302 261.147 111.023 262.72 108.124L275.667 84.2783L297.932 103.168Z" fill="#A39CB9"/>
<path d="M264.811 170.298L272.471 347.572H282.872C282.872 347.572 294.542 306.243 293.691 273.656C293.385 263.336 295.199 253.062 299.021 243.471C314.882 204.01 317.615 170.298 317.615 170.298H264.811Z" fill="#2A1B5F"/>
<path d="M173.974 84.2783L211.336 112.401L254.071 78.9986L219.169 53.1338L173.974 84.2783Z" fill="#FE8B33"/>
<path d="M223.627 119.434C223.746 116.028 224.515 112.677 225.891 109.559L203.056 103.169L198.584 112.113C206.869 118.302 215.588 123.89 224.672 128.832C223.877 125.765 223.525 122.6 223.627 119.434Z" fill="#A39CB9"/>
<path d="M297.283 102.995C297.196 103.327 287.985 136.599 263.967 139.643C241.608 142.478 205.313 116.288 199.774 112.141C199.49 112.492 199.202 112.838 198.908 113.179C204.274 117.204 237.186 141.201 260.418 141.201C261.675 141.205 262.93 141.128 264.176 140.97C289.06 137.84 298.487 103.688 298.581 103.341L297.283 102.995Z" fill="#5C5084"/>
<path d="M191.436 108.015L199.478 109.833C200.247 107.91 201.232 106.08 202.414 104.38C200.767 103.536 199.223 102.505 197.812 101.307C197.091 101.235 194.61 100.752 190.643 97.499C191.343 100.4 191.648 103.381 191.551 106.363C191.53 106.919 191.486 107.467 191.436 108.015Z" fill="#C3BFD2"/>
<path d="M201.866 105.217L193.744 92.4502C193.744 92.4502 191.689 92.7531 192.504 96.0566C193.047 98.1029 193.988 100.022 195.273 101.704C195.023 101.741 194.769 101.753 194.516 101.74C194.783 102.346 195.014 102.952 195.237 103.565C196.86 105.224 198.432 106.933 200.034 108.614C200.56 107.438 201.172 106.302 201.866 105.217Z" fill="#C3BFD2"/>
<path d="M238.571 64.876H238.29C240.569 67.0398 241.269 68.6122 241.449 69.1603C242.394 69.872 243.288 70.648 244.125 71.4828C244.226 70.6534 244.37 69.8528 244.536 69.0521C242.373 67.9291 240.367 66.5249 238.571 64.876Z" fill="#C3BFD2"/>
<path d="M240.013 66.1309C238.434 65.5594 236.774 65.2405 235.094 65.1861C231.726 65.1212 231.892 67.1912 231.892 67.1912L244.11 71.5188C244.204 70.6822 244.348 69.8671 244.514 69.0665C242.922 68.2367 241.415 67.2535 240.013 66.1309Z" fill="#C3BFD2"/>
<path d="M282.172 74.5919V67.2854L294.369 62.2148L298.804 67.8336L282.172 74.5919Z" fill="white"/>
<path d="M193.556 148.53C194.032 148.934 195.8 150.167 200.048 150.549C203.892 150.895 212.079 149.107 210.514 153.16C206.835 155.288 202.753 158.252 202.753 158.252C200.409 159.306 196.261 158.209 193.787 157.005L186.639 152.324C186.639 152.324 186.026 147.996 185.961 147.823L187.606 147.102C189.497 147.902 191.508 148.384 193.556 148.53Z" fill="#C3BFD2"/>
<path d="M194.869 150.34C194.996 150.516 195.139 150.68 195.295 150.831C194.783 151.047 194.292 151.3 193.809 151.552C191.797 151.61 189.792 151.732 187.779 151.812C187.902 150.571 188.075 148.833 188.068 148.703L201.137 145.378C201.137 145.378 202.198 146.82 199.803 148.436C198.308 149.406 196.628 150.054 194.869 150.34Z" fill="#C3BFD2"/>
<path d="M129.854 349.534C129.854 349.534 134.499 353.862 145.08 356.538C147.409 357.129 149.919 356.336 149.919 360.18H137.073L126.399 358.334V360.18H120.628C120.628 360.18 119.02 350.746 122.388 349.534H129.854Z" fill="#28195D"/>
<path d="M129.204 342.761L129.853 349.533C128.824 350.252 127.609 350.657 126.354 350.7C125.1 350.742 123.86 350.419 122.785 349.772L122.388 349.533L119.994 342.761H129.204Z" fill="#C3BFD2"/>
<path d="M123.737 170.175L129.854 345.264H120.232L101.782 254.917L104.205 170.175H123.737Z" fill="#28195D"/>
<path d="M72.1806 345.639C72.1806 345.639 72.1806 352.851 86.6782 357.179C89.6426 358.066 88.6833 358.946 89.2387 360.194H72.5845L66.0931 352.866L64.023 354.59L59.3203 349.973C59.3203 349.973 61.4841 343.287 65.0905 343.229L72.1806 345.639Z" fill="#28195D"/>
<path d="M74.8855 339.4L72.1808 345.639C70.975 345.987 69.6943 345.978 68.4936 345.613C67.2928 345.248 66.2236 344.543 65.4152 343.583L65.1123 343.229L67.2761 336.817L74.8855 339.4Z" fill="#C3BFD2"/>
<path d="M113.942 170.175C113.942 170.175 111.209 220.087 98.37 268.903L75.0296 342.869L64.5278 341.672L76.1692 271.203C76.8044 267.282 77.0844 263.311 77.0059 259.339L78.7081 171.019L113.942 170.175Z" fill="#2C1E60"/>
<path d="M116.957 55.7669L114.714 69.4567L102.518 64.0038L106.542 47.5732L116.957 55.7669Z" fill="#B4AFC6"/>
<path d="M121.386 57.0573C123.088 57.014 124.668 56.7543 125.497 56.0836C130.38 48.9069 124.812 29.6489 124.812 29.6489L116.957 26.3311L106.975 32.534L106.405 45.4448C106.35 47.183 106.728 48.9077 107.506 50.4629C108.285 52.0182 109.438 53.355 110.863 54.3525C114.063 56.1863 117.699 57.1208 121.386 57.0573Z" fill="#C3BFD2"/>
<path d="M109.745 36.2778C110.009 35.2309 110.654 34.3205 111.555 33.7254C112.456 33.1302 113.547 32.8932 114.613 33.0609C116.396 33.3681 118.2 33.5321 120.008 33.5514C124.437 33.5514 129.933 31.8203 129.933 25.0836C129.933 18.347 121.653 20.655 121.653 20.655C121.653 20.655 104.652 23.23 98.0599 28.2068C94.9079 30.5653 100.18 38.0666 102.121 41.8244C103.243 43.993 104.74 45.9464 106.542 47.5946L109.745 36.2778Z" fill="#28195D"/>
<path d="M104.054 40.3605C105.042 39.4878 106.888 39.6393 108.179 40.7284C109.471 41.8175 109.723 43.3827 108.735 44.2554C107.747 45.1281 105.9 44.9767 104.609 43.8876C103.318 42.7984 103.073 41.2333 104.054 40.3605Z" fill="#C3BFD2"/>
<path d="M114.714 68.2521C135.083 119.217 131.188 229.897 131.188 229.897C131.188 229.897 78.5857 227.588 74.3735 227.588C70.0026 75.436 102.518 62.8281 102.518 62.8281L114.714 68.2521Z" fill="url(#paint0_linear)"/>
<path d="M121.646 83.9248L148.996 117.226C150.378 118.91 151.996 120.384 153.8 121.604L190.008 146.127L186.12 154.516L143.428 138.504C139.997 137.224 136.945 135.098 134.556 132.322L125.778 124.561L121.646 83.9248Z" fill="url(#paint1_linear)"/>
<path d="M103.766 72.9253C120.593 77.3972 108.497 117.644 104.595 129.351C103.875 131.517 103.583 133.802 103.737 136.08L107.646 195.109H97.5481L82.5529 135.113C81.9544 132.715 81.7306 130.238 81.8893 127.771C82.7765 114.038 87.0031 68.4318 103.766 72.9253Z" fill="url(#paint2_linear)"/>
<path d="M104.335 136.015L107.415 195.296L106.131 195.08L103.138 136.094C102.977 133.736 103.281 131.369 104.032 129.127C106.052 123.075 110.964 107.179 111.75 93.8566C112.19 93.496 112.615 93.1354 113.034 92.7314C112.529 105.794 107.812 121.582 105.165 129.516C104.468 131.608 104.187 133.815 104.335 136.015Z" fill="#A39CB9"/>
<path d="M83.1081 134.955L99.0338 195.311L97.5191 195.095L81.9469 135.229C81.3267 132.77 81.0955 130.229 81.2617 127.699C82.1449 117.347 83.7403 107.069 86.0365 96.9365C86.426 97.088 86.8155 97.225 87.2049 97.3621C84.9665 107.387 83.3812 117.547 82.459 127.778C82.2976 130.19 82.5166 132.611 83.1081 134.955Z" fill="#A39CB9"/>
<path d="M127.704 98.0119C127.041 101.762 119.273 111.081 119.273 111.081C118.837 110.845 118.359 110.696 117.866 110.641C117.145 110.591 116.229 110.93 116.424 112.546C116.618 114.161 118.53 112.985 118.53 112.985L119.352 112.106C119.352 112.106 127.07 103.696 128.829 97.9686C130.589 92.2417 128.786 94.5065 127.704 98.0119Z" fill="#9891B1"/>
<path d="M116.676 112.935C116.445 111.319 117.397 110.98 118.082 111.03C118.588 111.08 119.078 111.23 119.525 111.47C119.525 111.47 127.293 102.152 127.957 98.401C128.555 96.4535 129.464 94.9028 129.854 94.8956C129.854 93.6622 128.541 95.5087 127.769 98.0115C127.106 101.762 119.338 111.074 119.338 111.074C118.9 110.841 118.423 110.692 117.931 110.634C117.21 110.59 116.294 110.929 116.488 112.545C116.511 112.754 116.588 112.953 116.712 113.122C116.695 113.061 116.683 112.998 116.676 112.935Z" fill="#D6D3E0"/>
<path d="M119.056 97.0021C119.258 100.529 127.488 110.064 127.488 110.064C127.488 110.064 128.318 109.408 128.895 109.624C129.472 109.841 130.532 109.92 130.301 111.536C130.07 113.151 128.195 111.976 128.195 111.976L127.373 111.096C127.373 111.096 120.088 103.515 117.946 97.947C116.9 92.1696 118.84 93.4679 119.056 97.0021Z" fill="#9891B1"/>
<path d="M119.056 97.2971C119.258 100.824 127.488 110.367 127.488 110.367C127.488 110.367 128.317 109.71 128.894 109.927C129.471 110.143 130.25 110.201 130.337 111.254C130.431 109.876 129.457 109.811 128.894 109.588C128.332 109.364 127.488 110.028 127.488 110.028C127.488 110.028 119.258 100.492 119.056 96.9653C118.897 94.1667 117.614 92.7819 117.729 95.1909C117.83 93.2507 118.905 94.6428 119.056 97.2971Z" fill="#D6D3E0"/>
<path d="M124.66 85.3819C124.401 72.1177 117.448 65.6407 115.421 65.2656C115.446 65.7697 115.582 66.2621 115.818 66.7082C122.684 71.9446 123.196 85.4613 123.196 85.4613C123.196 85.4613 115.919 86.2979 117.635 98.0186C118.17 97.8605 118.738 97.8605 119.273 98.0186C119.273 98.0186 116.46 88.3247 123.954 87.7405C131.448 87.1562 127.704 98.0186 127.704 98.0186C128.181 97.9301 128.67 97.9301 129.147 98.0186C131.549 88.0218 128.216 84.9996 124.66 85.3819Z" fill="#55497F"/>
<path d="M120.636 88.9883C117.491 91.2098 118.472 96.4679 118.818 97.9176C118.973 97.93 119.126 97.9615 119.273 98.0114C119.273 98.0114 117.455 91.7435 120.636 88.9883Z" fill="#463974"/>
<path d="M116.171 65.2653L103.455 58.9902L101.443 63.9598L116.957 71.5692L116.171 65.2653Z" fill="#C5C1D3"/>
<path d="M115.616 96.7276C116.936 100.089 115.832 103.659 113.149 104.712C110.466 105.765 107.235 103.897 105.936 100.536C104.638 97.1748 105.72 93.5973 108.403 92.5515C111.086 91.5056 114.296 93.3809 115.616 96.7276Z" fill="#C5C1D3"/>
<path d="M108.483 92.5078C107.859 92.7691 107.3 93.1623 106.843 93.6603C106.386 94.1583 106.042 94.7494 105.835 95.3929L114.996 103.413C116.344 101.798 116.698 99.1868 115.717 96.6984C114.404 93.3301 111.158 91.4547 108.483 92.5078Z" fill="#D6D3E0"/>
<path d="M111.901 96.5186C112.44 96.9747 112.816 97.5935 112.972 98.2817C113.128 98.97 113.056 99.6904 112.767 100.334C112.622 100.607 112.414 100.842 112.16 101.018C111.907 101.195 111.615 101.31 111.309 101.352C111.002 101.394 110.691 101.363 110.399 101.261C110.107 101.16 109.843 100.99 109.629 100.767C109.091 100.312 108.716 99.6945 108.56 99.0075C108.404 98.3205 108.475 97.6013 108.764 96.9586C108.908 96.6852 109.116 96.4501 109.369 96.2725C109.622 96.0949 109.914 95.9799 110.22 95.9369C110.526 95.894 110.839 95.9243 111.131 96.0254C111.423 96.1266 111.687 96.2956 111.901 96.5186Z" fill="#827AA1"/>
<path d="M111.548 97.1825C111.92 97.4949 112.18 97.9206 112.288 98.3946C112.396 98.8686 112.347 99.3649 112.146 99.8079C112.046 99.9963 111.903 100.158 111.729 100.281C111.554 100.403 111.353 100.482 111.142 100.512C110.931 100.541 110.715 100.52 110.514 100.451C110.312 100.381 110.13 100.265 109.982 100.111C109.61 99.7984 109.35 99.3728 109.242 98.8988C109.134 98.4248 109.184 97.9284 109.384 97.4854C109.484 97.297 109.627 97.135 109.801 97.0127C109.976 96.8903 110.177 96.8111 110.388 96.7816C110.6 96.752 110.815 96.7729 111.016 96.8426C111.218 96.9123 111.4 97.0288 111.548 97.1825Z" fill="#D6D3E0"/>
<path d="M111.627 97.0311C111.479 96.8774 111.297 96.7609 111.096 96.6913C110.894 96.6216 110.679 96.6007 110.468 96.6302C110.257 96.6598 110.056 96.739 109.881 96.8613C109.706 96.9837 109.563 97.1457 109.463 97.334L112.219 99.6637C112.418 99.22 112.468 98.7236 112.361 98.249C112.255 97.7743 111.997 97.347 111.627 97.0311Z" fill="white"/>
<path d="M102.849 60.6209C102.501 60.5341 102.133 60.5717 101.809 60.727C101.485 60.8824 101.225 61.1458 101.075 61.472C94.3453 74.6424 107.494 92.9123 107.494 92.9123L108.807 92.4435C108.807 92.4435 95.8888 73.7409 102.849 60.6209Z" fill="#55497F"/>
<path d="M138.718 217.252H77.0205V241.162H138.718V217.252Z" fill="#FEB882"/>
<path d="M110.12 237.13C110.12 238.84 108.966 239.035 107.545 239.035C106.124 239.035 104.97 238.84 104.97 237.13V234.058C88.6834 233.618 77.0132 228.446 77.0132 228.446V249.767C77.0132 251.743 78.0951 253.374 79.7324 253.374H135.992C137.636 253.374 138.718 251.765 138.718 249.767V228.72C128.801 231.281 118.948 234 110.127 234.079L110.12 237.13Z" fill="#FE8B33"/>
<path d="M135.985 212.196H79.7255C78.0883 212.196 77.0063 213.798 77.0063 215.803V226.542C86.1786 228.656 95.551 229.78 104.963 229.896V228.454C104.963 226.744 106.11 226.55 107.538 226.55C108.966 226.55 110.113 226.744 110.113 228.454V229.896C126.947 229.586 138.704 226.542 138.704 226.542V215.774C138.711 213.798 137.629 212.196 135.985 212.196Z" fill="#FEB882"/>
<path d="M115.168 205.092C115.168 205.092 112.139 204.551 107.876 204.27C105.433 204.421 103 204.696 100.584 205.092C99.3725 205.092 96.9346 207.054 96.9346 208.107V211.857H100.014V210.184C100.014 209.347 101.457 208.114 102.33 208.114C104.147 207.576 106.016 207.233 107.905 207.09C109.797 207.233 111.668 207.576 113.488 208.114C114.361 208.114 115.803 209.347 115.803 210.184V211.857H118.84V207.948C118.84 206.895 116.373 205.092 115.168 205.092Z" fill="#FE6D00"/>
<path d="M135.999 211.721H79.7396C78.1023 211.721 77.0132 213.322 77.0132 215.327V217.274C77.0132 215.298 78.1023 213.668 79.7396 213.668H135.999C137.643 213.668 138.725 215.277 138.725 217.274V215.327C138.725 213.322 137.643 211.721 135.999 211.721Z" fill="white"/>
<path d="M107.559 239.093C106.117 239.093 104.984 238.898 104.984 237.188V239.251C104.984 240.961 106.131 241.163 107.559 241.163C108.987 241.163 110.134 240.961 110.134 239.251V237.188C110.134 238.898 108.98 239.093 107.559 239.093Z" fill="#ECEAF0"/>
<path d="M104.984 234.115C95.6641 233.88 86.4499 232.078 77.7274 228.785L77.0566 228.634V230.574C77.0566 230.574 88.734 235.738 105.02 236.186L104.984 234.115Z" fill="#FEB882"/>
<path d="M110.134 236.23C118.955 236.15 128.808 233.431 138.726 230.87V228.808C128.808 231.368 118.955 234.087 110.134 234.167V236.23Z" fill="#FEB882"/>
<path d="M110.372 230.242V224.97H104.256V230.242H98.9614V236.359H104.256V241.682H110.372V236.359H115.673V230.242H110.372Z" fill="#FE6D00"/>
<path d="M107.364 241.682V224.97H104.256V230.242H98.9614V236.359H104.256V241.682H107.364Z" fill="#FE6D00"/>
<path d="M107.206 195.044H97.9951L98.8823 202.502C99.8488 207.385 107.667 209.628 113.25 209.715C113.442 209.714 113.631 209.664 113.799 209.57C113.966 209.475 114.106 209.339 114.205 209.174C114.305 209.01 114.36 208.822 114.366 208.63C114.371 208.438 114.327 208.248 114.238 208.077C112.781 205.199 109.622 199.148 107.206 195.044Z" fill="#C3BFD2"/>
<defs>
<linearGradient id="paint0_linear" x1="131.484" y1="146.352" x2="73.9696" y2="146.352" gradientUnits="userSpaceOnUse">
<stop stop-color="#E7E6ED"/>
<stop offset="1" stop-color="#D8D6E2"/>
</linearGradient>
<linearGradient id="paint1_linear" x1="434920" y1="9767.59" x2="441399" y2="9767.59" gradientUnits="userSpaceOnUse">
<stop stop-color="#E7E6ED"/>
<stop offset="1" stop-color="#D8D6E2"/>
</linearGradient>
<linearGradient id="paint2_linear" x1="198112" y1="19358" x2="199413" y2="19358" gradientUnits="userSpaceOnUse">
<stop stop-color="#E7E6ED"/>
<stop offset="1" stop-color="#D8D6E2"/>
</linearGradient>
</defs>
</svg>
