<svg width="112" height="113" viewBox="0 0 112 113" fill="none" xmlns="http://www.w3.org/2000/svg">
<path d="M35.5997 111.38C19.4522 108.934 2.83273 96.9397 0.386126 79.3416C-2.6663 57.3222 17.6347 41.0639 30.3162 25.8484C39.3803 14.9669 48.8463 2.44259 63.4444 1.09113C83.4075 -0.761294 99.2871 13.994 107.39 31.0562C115.732 48.6135 112.435 72.4154 99.5376 88.3125C85.691 105.351 58.3298 114.823 35.5997 111.38Z" fill="#E8E4ED"/>
<path d="M2.44824 97.4697H108.019" stroke="#2B0D61" stroke-width="3" stroke-linecap="round" stroke-linejoin="round"/>
<path d="M10.0908 97.138V50.8623H21.2753" stroke="#2B0D61" stroke-width="3" stroke-linecap="round" stroke-linejoin="round"/>
<path d="M18.9395 74.3965V81.9518" stroke="#2B0D61" stroke-width="3" stroke-linecap="round" stroke-linejoin="round"/>
<path d="M18.9395 59.5713V67.1266" stroke="#2B0D61" stroke-width="3" stroke-linecap="round" stroke-linejoin="round"/>
<path d="M100.376 96.6429V50.8623H89.1919" stroke="#2B0D61" stroke-width="3" stroke-linecap="round" stroke-linejoin="round"/>
<path d="M91.5278 74.3965V81.9518" stroke="#2B0D61" stroke-width="3" stroke-linecap="round" stroke-linejoin="round"/>
<path d="M91.5278 59.5713V67.1266" stroke="#2B0D61" stroke-width="3" stroke-linecap="round" stroke-linejoin="round"/>
<path d="M35.5415 49.79H74.926" stroke="#2B0D61" stroke-width="3" stroke-linecap="round" stroke-linejoin="round"/>
<path d="M35.5415 67.3711H74.926" stroke="#2B0D61" stroke-width="3" stroke-linecap="round" stroke-linejoin="round"/>
<path d="M35.5415 58.5801H74.926" stroke="#2B0D61" stroke-width="3" stroke-linecap="round" stroke-linejoin="round"/>
<path d="M77.0405 25.8838H83.0172V97.2139" stroke="#2B0D61" stroke-width="3" stroke-linecap="round" stroke-linejoin="round"/>
<path d="M27.4502 97.2139V25.8838H33.0075" stroke="#2B0D61" stroke-width="3" stroke-linecap="round" stroke-linejoin="round"/>
<path d="M45.2056 97.4232V84.8174H65.2444V97.4349C65.2444 97.4349 45.2056 97.3883 45.2056 97.4232Z" stroke="#ED6E00" stroke-width="3" stroke-linecap="round" stroke-linejoin="round"/>
<path d="M55.2368 85.1729V96.8292" stroke="#ED6E00" stroke-width="3" stroke-linecap="round" stroke-linejoin="round"/>
<path d="M38.9316 27.8349V16.3184H71.5297V27.8349" stroke="#2B0D61" stroke-width="3" stroke-linecap="round" stroke-linejoin="round"/>
<path d="M45.188 22.3594L55.2307 28.3652L65.2792 22.3594" stroke="#2B0D61" stroke-width="3" stroke-linecap="round" stroke-linejoin="round"/>
</svg>
