<svg width="120" height="121" viewBox="0 0 120 121" fill="none" xmlns="http://www.w3.org/2000/svg">
<path d="M82.595 106.282C66.1037 114.007 45.9891 114.915 30.0396 107.36C5.49787 95.7096 -0.292426 59.5931 14.3755 38.4999C28.0474 18.8338 55.7988 4.96976 79.8687 9.18723C108.704 14.2319 119.108 50.4241 111.325 75.1057C106.857 89.3892 95.9056 100.038 82.595 106.282Z" fill="#E8E4ED"/>
<path d="M57.2901 12.1816C39.6862 12.1816 38.7076 22.8302 39.9425 35.7681C41.1775 48.7059 49.3211 59.3486 57.2901 59.3486C65.259 59.3486 73.3969 48.735 74.6435 35.7972C75.8901 22.8593 74.894 12.1816 57.2901 12.1816Z" stroke="#2B0D61" stroke-width="3" stroke-linecap="round" stroke-linejoin="round"/>
<path d="M62.4982 22.6318C62.4982 22.6318 60.6341 31.4862 47.1836 31.4862" stroke="#2B0D61" stroke-width="3" stroke-linecap="round" stroke-linejoin="round"/>
<path d="M60.9658 26.2207C65.1263 28.9243 69.6761 30.9752 74.4571 32.3023" stroke="#2B0D61" stroke-width="3" stroke-linecap="round" stroke-linejoin="round"/>
<path d="M54.5174 79.5684L52.0708 98.9722" stroke="#ED6E00" stroke-width="3" stroke-linecap="round" stroke-linejoin="round"/>
<path d="M60.063 79.5684L62.5096 98.9722" stroke="#ED6E00" stroke-width="3" stroke-linecap="round" stroke-linejoin="round"/>
<path d="M16.8921 98.9719L18.395 78.9505C19.8804 67.8826 26.5503 66.6651 26.5503 66.6651C26.5503 66.6651 33.7853 64.6204 41.4688 63.3389L48.1911 76.9408" stroke="#2B0D61" stroke-width="3" stroke-linecap="round" stroke-linejoin="round"/>
<path d="M97.6825 98.9719L96.1737 78.9505C94.6883 67.8826 88.0184 66.6651 88.0184 66.6651C88.0184 66.6651 80.7834 64.6204 73.0999 63.3389L66.4067 76.9408" stroke="#2B0D61" stroke-width="3" stroke-linecap="round" stroke-linejoin="round"/>
<path d="M57.3133 82.3063L50.2764 74.3548L57.2667 66.4092H57.3133L64.3094 74.3548L57.3133 82.3063Z" stroke="#ED6E00" stroke-width="3" stroke-linecap="round" stroke-linejoin="round"/>
</svg>
