<svg width="120" height="121" viewBox="0 0 120 121" fill="none" xmlns="http://www.w3.org/2000/svg">
<path d="M11.1728 69.4621C13.8368 89.6821 33.5468 101.418 51.7568 105.744C69.6848 110.004 98.5148 110.112 106.957 89.6761C107.715 87.8289 108.257 85.9 108.571 83.9281C112.171 61.7281 96.3188 37.5061 79.1708 24.8101C63.4148 13.1341 40.2188 5.32811 24.4268 21.3061C17.5748 28.2301 15.5408 38.9761 13.0268 47.9701C11.1728 54.6601 10.2248 62.2681 11.1728 69.4621Z" fill="#E8E4ED"/>
<path d="M45.8767 46.7405C46.8667 57.1685 52.6866 65.7125 59.8386 65.7125C66.9906 65.7125 72.8047 57.1685 73.7947 46.7405C74.0115 44.702 74.1077 42.6524 74.0827 40.6025" stroke="#2E0563" stroke-width="3" stroke-linecap="round" stroke-linejoin="round"/>
<path d="M94.9928 99.9659L93.6788 82.4999C92.3828 72.8579 86.5868 71.7839 86.5868 71.7839C86.5868 71.7839 80.2748 69.9839 73.5728 68.8799L59.9828 87.0119L46.3988 68.8799C39.6908 70.0019 33.3788 71.7839 33.3788 71.7839C33.3788 71.7839 27.5828 72.8579 26.2868 82.4999L24.9788 99.9659" stroke="#2E0563" stroke-width="3" stroke-linecap="round" stroke-linejoin="round"/>
<path d="M73.7527 83.4238H83.1307" stroke="#2E0563" stroke-width="3" stroke-linecap="round" stroke-linejoin="round"/>
<path d="M85.9869 43.2122V26.7122L59.9829 19.2842L33.9849 26.7542L59.9829 35.2742L85.0689 27.0962" stroke="#FF6D00" stroke-width="3" stroke-linecap="round" stroke-linejoin="round"/>
<path d="M43.7109 35.766V38.862C47.4789 42.18 53.4369 44.31 59.9829 44.31C66.5289 44.31 72.4869 42.18 76.2549 38.862V30.084" stroke="#FF6D00" stroke-width="3" stroke-linecap="round" stroke-linejoin="round"/>
</svg>
