<svg width="120" height="121" viewBox="0 0 120 121" fill="none" xmlns="http://www.w3.org/2000/svg">
<path d="M91.491 104.033C56.847 120.233 13.647 96.2331 11.487 57.9351C11.3272 55.2307 11.3874 52.5177 11.667 49.8231C12.3945 43.0099 14.5822 36.4335 18.0808 30.5421C21.5794 24.6506 26.3068 19.5825 31.941 15.6831C39.681 10.5231 49.941 10.6011 58.221 14.4471C68.463 19.1991 72.663 29.3751 78.891 38.0931C88.107 52.1391 107.409 58.2951 108.441 76.0791C109.251 90.1491 101.889 99.1731 91.491 104.033Z" fill="#E8E4ED"/>
<path d="M30.501 60.9648V102.947" stroke="#2E0563" stroke-width="3" stroke-linecap="round" stroke-linejoin="round"/>
<path d="M56.055 54.4075C55.077 49.3315 50.817 45.9355 45.531 45.9355H32.649C26.613 45.9355 21.915 50.3695 21.915 56.6755V76.0016C21.915 78.2787 22.8196 80.4626 24.4298 82.0728C26.04 83.683 28.2239 84.5876 30.501 84.5876V84.5876" stroke="#2E0563" stroke-width="3" stroke-linecap="round" stroke-linejoin="round"/>
<path d="M82.0349 60.9717L88.4789 97.4697H75.5969" stroke="#2E0563" stroke-width="3" stroke-linecap="round" stroke-linejoin="round"/>
<path d="M41.2412 22.3192C40.1286 22.3034 39.0238 22.5068 37.9898 22.918C36.9559 23.3291 36.013 23.9399 35.2152 24.7155C34.4173 25.4911 33.78 26.4162 33.3398 27.4381C32.8995 28.46 32.6648 29.5586 32.6492 30.6712V37.5892C32.7083 39.8279 33.6392 41.955 35.2435 43.5174C36.8478 45.0799 38.9987 45.9542 41.2382 45.9542C43.4776 45.9542 45.6285 45.0799 47.2328 43.5174C48.8371 41.955 49.768 39.8279 49.8272 37.5892V30.6712C49.7956 28.4253 48.8734 26.2838 47.2633 24.7177C45.6532 23.1515 43.4871 22.2888 41.2412 22.3192V22.3192Z" stroke="#2E0563" stroke-width="3" stroke-linecap="round" stroke-linejoin="round"/>
<path d="M58.4192 60.9648C53.6732 60.9648 49.8271 64.3308 49.8271 68.4828V72.7788C49.8271 76.9308 53.6732 80.2908 58.4192 80.2908C63.1652 80.2908 66.9811 76.9308 66.9811 72.7788V68.4828C66.9811 64.3308 63.1592 60.9648 58.4192 60.9648Z" stroke="#FF6D00" stroke-width="3" stroke-linecap="round" stroke-linejoin="round"/>
<path d="M64.857 101.741V96.815C66.0837 96.5097 67.173 95.8028 67.9515 94.8068C68.73 93.8109 69.1529 92.5831 69.153 91.319V87.545C69.153 82.211 64.827 80.291 59.493 80.291H55.197C49.857 80.291 45.531 82.211 45.531 87.545V91.319C45.5311 92.5831 45.954 93.8109 46.7325 94.8068C47.511 95.8028 48.6003 96.5097 49.827 96.815V101.741" stroke="#FF6D00" stroke-width="3" stroke-linecap="round" stroke-linejoin="round"/>
<path d="M61.863 51.4075C63.449 50.582 65.2174 50.1693 67.005 50.2075H79.887C87.003 50.2075 89.577 55.2475 90.627 60.9415C91.227 64.1035 92.217 68.6815 93.111 72.5875C93.6067 74.7026 93.2938 76.9266 92.2335 78.8228C91.1733 80.7189 89.4425 82.1502 87.381 82.8355L85.971 83.3095" stroke="#2E0563" stroke-width="3" stroke-linecap="round" stroke-linejoin="round"/>
<path d="M77.739 39.1795C72.111 37.0975 68.055 31.7695 68.055 31.7695C67.0844 32.512 66.2931 33.463 65.7395 34.5525C65.186 35.6419 64.8844 36.8418 64.857 38.0635V42.8635C64.8355 43.8226 65.0057 44.7763 65.3579 45.6686C65.71 46.561 66.237 47.3739 66.9077 48.0598C67.5785 48.7456 68.3795 49.2905 69.2638 49.6624C70.148 50.0343 71.0977 50.2258 72.057 50.2255H75.603V38.2255" stroke="#2E0563" stroke-width="3" stroke-linecap="round" stroke-linejoin="round"/>
<path d="M60.561 30.9053C60.561 26.6153 65.853 22.3193 72.375 22.3193C78.897 22.3193 84.183 27.2513 84.183 33.3413V41.6453C84.183 44.0453 85.4551 45.0653 86.3311 45.9353" stroke="#2E0563" stroke-width="3" stroke-linecap="round" stroke-linejoin="round"/>
</svg>
