<svg width="119" height="103" viewBox="0 0 119 103" fill="none" xmlns="http://www.w3.org/2000/svg">
<path d="M51.7143 3.62115C67.524 -0.922535 83.7531 -1.38273 95.3686 3.4231C101.468 5.94543 107.602 10.326 111.196 16.2911C141.283 66.3182 71.3104 118.332 28.3026 98.1066C16.0347 92.3396 7.291 82.058 2.5376 68.9804C-8.94978 37.4309 20.5143 12.5804 51.7143 3.62115Z" fill="#E8E4ED"/>
<path d="M51.2134 33.0264V73.2671" stroke="#ED6E00" stroke-width="3" stroke-linecap="round" stroke-linejoin="round"/>
<path d="M67.9377 33.0264V73.2671" stroke="#ED6E00" stroke-width="3" stroke-linecap="round" stroke-linejoin="round"/>
<path d="M84.6677 33.0264V73.2671" stroke="#2B0D61" stroke-width="3" stroke-linecap="round" stroke-linejoin="round"/>
<path d="M115.262 84.2305H3.88916" stroke="#2B0D61" stroke-width="3" stroke-linecap="round" stroke-linejoin="round"/>
<path d="M26.0601 32.4792H93.126V25.2268L59.6076 9.27148L26.0601 25.2035V32.4792Z" stroke="#2B0D61" stroke-width="3" stroke-linecap="round" stroke-linejoin="round"/>
<path d="M109.361 74.957H9.78418" stroke="#2B0D61" stroke-width="3" stroke-linecap="round" stroke-linejoin="round"/>
<path d="M17.7708 55.1973V73.2672" stroke="#2B0D61" stroke-width="3" stroke-linecap="round" stroke-linejoin="round"/>
<path d="M27.5397 45.8828H11.4736V54.4401H27.5397" stroke="#2B0D61" stroke-width="3" stroke-linecap="round" stroke-linejoin="round"/>
<path d="M34.4834 33.0264V73.2671" stroke="#2B0D61" stroke-width="3" stroke-linecap="round" stroke-linejoin="round"/>
<path d="M101.404 55.1973V73.2672" stroke="#2B0D61" stroke-width="3" stroke-linecap="round" stroke-linejoin="round"/>
<path d="M91.6057 45.8828H107.678V54.4401H91.6057" stroke="#2B0D61" stroke-width="3" stroke-linecap="round" stroke-linejoin="round"/>
</svg>
