<svg width="120" height="103" viewBox="0 0 120 103" fill="none" xmlns="http://www.w3.org/2000/svg">
<path d="M16.2391 100.291C7.18084 96.1143 0.510941 87.2657 0.149776 76.5764C-0.097142 73.0945 -0.0386733 69.5976 0.324526 66.1259C1.39055 55.5939 4.98472 44.9919 9.57501 35.8871C11.7142 31.7849 14.464 28.0314 17.7304 24.755C21.0063 21.5081 24.6256 18.6271 28.5245 16.1628C31.4045 13.8058 34.6973 12.0044 38.2352 10.8502C41.8707 9.66872 45.6522 8.99632 49.4721 8.85212C82.3381 7.59969 129.383 27.3007 117.831 65.2463C110.404 89.4735 83.4624 85.9201 63.2721 92.1356C60.4459 92.9769 57.7133 94.1051 55.1168 95.5026C48.2022 99.3007 38.1828 102.114 30.3537 102.784C25.5119 103.199 20.6459 102.339 16.2391 100.291Z" fill="#E8E4ED"/>
<path d="M66.8198 46.081C66.8198 47.9936 66.2527 49.8631 65.1901 51.4533C64.1276 53.0436 62.6174 54.283 60.8504 55.0149C59.0835 55.7468 57.1392 55.9383 55.2634 55.5651C53.3876 55.192 51.6646 54.2711 50.3122 52.9187C48.9599 51.5663 48.0389 49.8433 47.6658 47.9675C47.2927 46.0918 47.4842 44.1475 48.2161 42.3805C48.948 40.6136 50.1874 39.1033 51.7776 38.0408C53.3678 36.9783 55.2374 36.4111 57.1499 36.4111C58.4198 36.4111 59.6772 36.6612 60.8504 37.1472C62.0236 37.6332 63.0896 38.3454 63.9876 39.2434C64.8855 40.1413 65.5977 41.2073 66.0837 42.3805C66.5697 43.5537 66.8198 44.8112 66.8198 46.081Z" stroke="#2B0D61" stroke-width="3" stroke-linecap="round" stroke-linejoin="round"/>
<path d="M63.7208 11.2171L72.7266 7.57045L57.6101 1.59375V21.5627" stroke="#ED6E00" stroke-width="3" stroke-linecap="round" stroke-linejoin="round"/>
<path d="M63.6159 90.9701V73.7041H50.6431V90.9701" stroke="#2B0D61" stroke-width="3" stroke-linecap="round" stroke-linejoin="round"/>
<path d="M82.74 35.0187L57.5749 21.5391L31.5244 35.0187" stroke="#2B0D61" stroke-width="3" stroke-linecap="round" stroke-linejoin="round"/>
<path d="M39.3535 37V90.9709" stroke="#2B0D61" stroke-width="3" stroke-linecap="round" stroke-linejoin="round"/>
<path d="M19.0645 63.9355V90.9705" stroke="#2B0D61" stroke-width="3" stroke-linecap="round" stroke-linejoin="round"/>
<path d="M39.0448 57.9408H13.9438V48.3467H39.0448" stroke="#2B0D61" stroke-width="3" stroke-linecap="round" stroke-linejoin="round"/>
<path d="M28.8623 67.7744V74.8463" stroke="#2B0D61" stroke-width="3" stroke-linecap="round" stroke-linejoin="round"/>
<path d="M28.8623 79.7217V86.7935" stroke="#2B0D61" stroke-width="3" stroke-linecap="round" stroke-linejoin="round"/>
<path d="M75.0857 37.501V90.9709" stroke="#2B0D61" stroke-width="3" stroke-linecap="round" stroke-linejoin="round"/>
<path d="M75.2197 57.9408H100.315V48.3467H75.2197" stroke="#2B0D61" stroke-width="3" stroke-linecap="round" stroke-linejoin="round"/>
<path d="M85.3965 67.7744V74.8463" stroke="#2B0D61" stroke-width="3" stroke-linecap="round" stroke-linejoin="round"/>
<path d="M85.3965 79.7217V86.7935" stroke="#2B0D61" stroke-width="3" stroke-linecap="round" stroke-linejoin="round"/>
<path d="M95.2063 63.9355V90.9705" stroke="#2B0D61" stroke-width="3" stroke-linecap="round" stroke-linejoin="round"/>
<path d="M57.1265 42.1553V46.0815L59.9634 47.6834" stroke="#2B0D61" stroke-width="3" stroke-linecap="round" stroke-linejoin="round"/>
<path d="M12.8955 92.0654H101.684" stroke="#2B0D61" stroke-width="3" stroke-linecap="round" stroke-linejoin="round"/>
</svg>
