<svg width="120" height="121" viewBox="0 0 120 121" fill="none" xmlns="http://www.w3.org/2000/svg">
  <path d="M92.4514 96.1982C90.8052 97.8499 88.9636 99.2946 86.9674 100.5C72.0274 109.5 52.0234 102.072 38.6134 93.6122C21.2134 82.6502 6.38736 61.6082 16.4854 40.4882C24.2014 24.4022 43.7434 28.6022 57.3874 23.3222C66.3094 20.3642 74.7874 15.9842 84.4774 17.6822C103.515 21.0062 107.985 41.0822 106.257 57.4622C104.889 70.4522 102.201 86.4722 92.4514 96.1982Z" fill="#E8E4ED" />
  <path d="M48.5073 55.1201V97.1021" stroke="#2E0563" stroke-width="3" stroke-linecap="round" stroke-linejoin="round" />
  <path d="M48.5074 78.7428C46.2302 78.7428 44.0464 77.8382 42.4362 76.228C40.826 74.6179 39.9214 72.434 39.9214 70.1568V50.8308C39.9214 44.5248 44.6194 40.0908 50.6554 40.0908H54.9514" stroke="#2E0563" stroke-width="3" stroke-linecap="round" stroke-linejoin="round" />
  <path d="M69.8975 55.1201V97.1021" stroke="#2E0563" stroke-width="3" stroke-linecap="round" stroke-linejoin="round" />
  <path d="M69.8975 78.7429C72.1746 78.7429 74.3585 77.8383 75.9687 76.2281C77.5789 74.6179 78.4835 72.434 78.4835 70.1569C78.6815 64.0369 78.6815 57.0469 78.4835 50.8249C78.5139 49.3947 78.2553 47.9732 77.7233 46.6453C77.1913 45.3174 76.3969 44.1105 75.3875 43.0969C73.3368 41.1324 70.595 40.0546 67.7555 40.0969H63.4595" stroke="#2E0563" stroke-width="3" stroke-linecap="round" stroke-linejoin="round" />
  <path d="M59.2473 16.4745C58.1347 16.4586 57.0299 16.6621 55.9959 17.0732C54.962 17.4844 54.0191 18.0952 53.2213 18.8708C52.4234 19.6464 51.7861 20.5715 51.3459 21.5934C50.9056 22.6153 50.6709 23.7139 50.6553 24.8265V31.7445C50.7144 33.9831 51.6453 36.1102 53.2496 37.6727C54.8539 39.2351 57.0049 40.1095 59.2443 40.1095C61.4837 40.1095 63.6346 39.2351 65.2389 37.6727C66.8432 36.1102 67.7741 33.9831 67.8333 31.7445V24.8265C67.8017 22.5806 66.8795 20.4391 65.2694 18.8729C63.6593 17.3067 61.4932 16.444 59.2473 16.4745Z" stroke="#FF6D00" stroke-width="3" stroke-linecap="round" stroke-linejoin="round" />
</svg>
