<svg width="151" height="143" viewBox="0 0 151 143" fill="none" xmlns="http://www.w3.org/2000/svg">
<path opacity="0.5" d="M4.82346 116.942C-2.09962 108.296 -0.761166 92.2572 7.70037 82.4342C27.3388 63.7418 51.785 54.9649 62.8619 24.9495C65.7017 19.4307 69.3295 14.3544 73.6312 9.88031C97.9619 -10.7658 127.323 7.64954 143.677 29.0649C158.293 45.3726 145.985 70.0649 133.877 89.6803C131.454 93.6111 129.031 97.3265 126.823 100.75C123.908 105.151 120.681 109.338 117.17 113.28C113.67 117.202 109.893 120.868 105.87 124.25C79.3696 147.757 43.6235 148.096 18.0004 130.065C12.961 126.387 8.51237 121.962 4.80808 116.942" fill="#E8E4ED"/>
<path d="M54.0082 65.081C52.9161 62.8804 52.0452 60.5768 51.4082 58.2041" stroke="#320164" stroke-width="4" stroke-linecap="round" stroke-linejoin="round"/>
<path d="M93.3858 58.3271C90.455 68.9271 82.1627 79.5195 72.3935 79.5195C69.0728 79.4466 65.8582 78.3356 63.2012 76.3425" stroke="#320164" stroke-width="4" stroke-linecap="round" stroke-linejoin="round"/>
<path d="M104.532 127.788C106.207 127.788 107.813 127.123 108.997 125.938C110.182 124.754 110.847 123.147 110.847 121.473V120.596C110.847 102.596 102.655 93.4956 83.801 89.5264L72.3933 97.4494L60.9933 89.5264C42.1317 93.4956 33.9395 102.603 33.9395 120.596V121.473C33.9395 122.303 34.103 123.124 34.4209 123.891C34.7388 124.658 35.2046 125.354 35.7919 125.941C36.3791 126.527 37.0763 126.992 37.8434 127.309C38.6105 127.626 39.4325 127.789 40.2625 127.788H104.532Z" stroke="#320164" stroke-width="4" stroke-linecap="round" stroke-linejoin="round"/>
<path d="M51.8379 112.149V127.319" stroke="#320164" stroke-width="4" stroke-linecap="round" stroke-linejoin="round"/>
<path d="M92.9473 112.149V127.319" stroke="#320164" stroke-width="4" stroke-linecap="round" stroke-linejoin="round"/>
<path d="M60.9922 89.5341C63.8307 87.1802 63.8307 76.9033 63.8307 76.9033" stroke="#320164" stroke-width="4" stroke-linecap="round" stroke-linejoin="round"/>
<path d="M83.7994 89.5341C80.9609 87.1802 80.9609 76.9033 80.9609 76.9033" stroke="#320164" stroke-width="4" stroke-linecap="round" stroke-linejoin="round"/>
<path d="M71.7305 19.1807C92.6305 19.1807 101.515 26.9807 94.8612 57.4345C94.8019 57.692 94.6587 57.9224 94.4541 58.0896C94.2496 58.2569 93.9953 58.3514 93.7312 58.3585C93.4671 58.3655 93.2081 58.2846 92.995 58.1285C92.7818 57.9724 92.6265 57.75 92.5535 57.4961C91.3305 53.0268 89.6382 43.9576 89.6382 43.9576C89.5949 43.427 89.3465 42.9342 88.9458 42.5838C88.5451 42.2334 88.0236 42.0529 87.492 42.0807C80.1535 42.0037 72.0382 37.3653 72.0382 37.3653C71.809 37.304 71.5682 37.3008 71.3375 37.3557C71.1067 37.4106 70.8933 37.522 70.7163 37.68C70.5393 37.8379 70.4043 38.0373 70.3235 38.2603C70.2428 38.4834 70.2187 38.723 70.2535 38.9576L73.3305 47.1422L59.7151 39.9653C59.0895 39.6411 58.3752 39.5303 57.6808 39.6497C56.9865 39.7691 56.3502 40.1123 55.8689 40.6268L52.2612 57.3576C52.1898 57.6118 52.036 57.8351 51.8239 57.9925C51.6119 58.1499 51.3536 58.2324 51.0895 58.2271C50.8255 58.2219 50.5707 58.1291 50.3651 57.9633C50.1595 57.7976 50.0147 57.5683 49.9535 57.3114C43.3305 26.9576 52.092 19.1807 72.9612 19.1807" stroke="#320164" stroke-width="4" stroke-linecap="round" stroke-linejoin="round"/>
<path d="M46.6542 64.3187C47.2201 64.194 47.7559 63.9588 48.2309 63.6268C48.7059 63.2947 49.1108 62.8722 49.4223 62.3835C49.7338 61.8948 49.9459 61.3494 50.0464 60.7786C50.1469 60.2079 50.1338 59.6229 50.008 59.0572L47.0695 45.8187C46.9443 45.2535 46.7089 44.7185 46.3769 44.2443C46.0449 43.7701 45.6227 43.3659 45.1345 43.0548C44.6463 42.7437 44.1016 42.5318 43.5315 42.4313C42.9614 42.3307 42.377 42.3434 41.8118 42.4687C41.2467 42.594 40.7117 42.8293 40.2374 43.1613C39.7632 43.4933 39.359 43.9155 39.0479 44.4037C38.7369 44.892 38.525 45.4367 38.4244 46.0068C38.3239 46.5769 38.3366 47.1612 38.4619 47.7264L39.3541 51.7495L41.4003 60.9802C41.5259 61.5445 41.7614 62.0785 42.0935 62.5517C42.4255 63.0249 42.8476 63.4281 43.3355 63.7381C43.8234 64.0482 44.3676 64.259 44.937 64.3586C45.5065 64.4582 46.09 64.4447 46.6542 64.3187V64.3187Z" stroke="#ED6E00" stroke-width="4" stroke-linecap="round" stroke-linejoin="round"/>
<path d="M38.3776 47.2646L34.9545 49.5723C34.6133 49.7592 34.3371 50.0454 34.1625 50.3931C33.988 50.7407 33.9235 51.1333 33.9776 51.5185L34.0468 51.8493L35.7391 59.4723C35.8539 59.8454 36.0794 60.1748 36.3858 60.4166C36.6922 60.6584 37.0649 60.8013 37.4545 60.8262L41.5391 61.4954" stroke="#ED6E00" stroke-width="4" stroke-linecap="round" stroke-linejoin="round"/>
<path d="M98.1314 64.3187C97.5661 64.1931 97.0311 63.9573 96.557 63.6249C96.0828 63.2925 95.6788 62.8699 95.3681 62.3812C95.0574 61.8926 94.8459 61.3476 94.7459 60.7772C94.6459 60.2068 94.6593 59.6224 94.7852 59.0572L97.7237 45.8187C97.8489 45.2535 98.0843 44.7185 98.4163 44.2443C98.7483 43.7701 99.1705 43.3659 99.6587 43.0548C100.147 42.7437 100.692 42.5318 101.262 42.4313C101.832 42.3307 102.416 42.3434 102.981 42.4687C103.547 42.594 104.082 42.8293 104.556 43.1613C105.03 43.4933 105.434 43.9155 105.745 44.4037C106.056 44.892 106.268 45.4367 106.369 46.0068C106.469 46.5769 106.457 47.1612 106.331 47.7264L105.439 51.7495L103.393 60.9802C103.138 62.1205 102.44 63.1126 101.453 63.7386C100.467 64.3647 99.2718 64.5733 98.1314 64.3187V64.3187Z" stroke="#ED6E00" stroke-width="4" stroke-linecap="round" stroke-linejoin="round"/>
<path d="M106.408 47.2646L109.831 49.5723C110.173 49.7575 110.451 50.0435 110.626 50.3916C110.8 50.7397 110.864 51.1331 110.808 51.5185L110.738 51.8493L109.046 59.4723C108.932 59.846 108.707 60.1759 108.4 60.4179C108.094 60.6599 107.721 60.8023 107.331 60.8262L103.246 61.4954" stroke="#ED6E00" stroke-width="4" stroke-linecap="round" stroke-linejoin="round"/>
<path d="M46.6543 64.3184L48.7081 67.0184C49.9293 68.643 51.5781 69.8961 53.4703 70.6378C55.3625 71.3795 57.4237 71.5805 59.4235 71.2184L66.9235 69.8645" stroke="#ED6E00" stroke-width="4" stroke-linecap="round" stroke-linejoin="round"/>
<path d="M72.6377 65.7895L68.4789 66.4296C67.3536 66.6028 66.5818 67.6554 66.755 68.7807L67.0323 70.5826C67.2055 71.7079 68.2582 72.4797 69.3835 72.3065L73.5422 71.6664C74.6675 71.4932 75.4394 70.4406 75.2661 69.3153L74.9888 67.5134C74.8156 66.3881 73.763 65.6163 72.6377 65.7895Z" stroke="#ED6E00" stroke-width="4" stroke-linecap="round" stroke-linejoin="round"/>
</svg>
