<?xml version="1.0" encoding="UTF-8"?>
<svg xmlns="http://www.w3.org/2000/svg" version="1.1" xmlns:xlink="http://www.w3.org/1999/xlink" viewBox="0 0 695 123">
  <defs>
    <style>
      .cls-1, .cls-2 {
        fill: #fff;
      }

      .cls-2 {
        fill-rule: evenodd;
      }

      .cls-3 {
        fill: none;
      }

      .cls-4 {
        clip-path: url(#clippath);
      }
    </style>
    <clipPath id="clippath">
      <rect class="cls-3" x="-69.9" y="-58.1" width="815.8" height="247"/>
    </clipPath>
  </defs>
  <!-- Generator: Adobe Illustrator 28.7.5, SVG Export Plug-In . SVG Version: 1.2.0 Build 176)  -->
  <g>
    <g id="Capa_1">
      <g class="cls-4">
        <g>
          <path class="cls-2" d="M301.5,38.2v-10.3h-1.6c-.5,1.1-1.1,1.6-2,1.6-2.3,0-3.3-1.6-6.8-1.6-5.6,0-10.2,4.4-10.2,9.6,0,11.3,17.7,8.8,17.7,18.1s-2.5,5.8-5.9,5.8-9.3-2.7-10.7-9.7h-1.6v11.4h1.6c.1-1.2.9-2.3,2.2-2.3s4.8,2.5,8.5,2.5c5.7,0,10.6-4.7,10.6-10.3,0-12.5-17.5-10.2-17.5-18.7s2.3-4.5,5.6-4.5,7.6,2.8,8.3,8.4h1.9,0Z"/>
          <path class="cls-2" d="M339.5,41.9c.5-7.8-6.7-14-14.4-14s-16.8,7.9-16.8,18,7.5,17.3,18,17.3,9.7-2,13.8-7.2v-2.5c-4.8,5.4-7.2,7-11.8,7s-13.5-3.8-13.3-18.8h24.5,0ZM315,40.3c.4-6.2,3.7-10.4,9.2-10.4s9.2,3,9,10.4h-18.2Z"/>
          <path class="cls-2" d="M375,28h-1.6c-.5,1.2-1.4,1.9-2.3,1.9-1.7,0-4.4-1.9-9.4-1.9-9.5,0-17.3,8.2-17.3,18.5s6.9,16.9,16.8,16.9,11.1-2.5,14.7-7.4v-2.5c-3.5,4.8-8.4,7-12.5,7-6.8,0-12.5-7.6-12.5-16.8s4.6-13.9,11.2-13.9,9.8,3.9,11.2,9.9h1.6v-11.8h0Z"/>
          <path class="cls-2" d="M414.1,28h-1.6l-11.3,1v1.6c5.8,0,6.5.6,6.5,5.3v18c-2.7,3.7-5.7,5.5-8.9,5.5s-7.5-2.8-7.5-7.5v-23.9h-1.6l-10.8,1v1.6c4.8,0,5.9,1.2,5.9,4.4v17.1c0,6.2,4.4,11.2,11,11.2s8.4-2.2,11.7-6.5h.2v5.5h12.2v-1.6c-4.5,0-5.7-1-5.7-4.7v-28h0Z"/>
          <path class="cls-2" d="M436.5,36.8c3-2.9,4.9-4,7.1-4s5.2,1.4,7.9,2.9l2.6-5.9c-1.7-1.5-4.2-2.6-6.1-2.6s-5.2,1.9-11.4,7.3v-7.3h-1.6l-11.7,1v1.6c5.7,0,6.9.6,6.9,5.5v19c0,5.1-.6,6.4-5.6,6.4v1.6h17.6v-1.6c-4.4,0-5.5-1-5.5-4.7v-19.1h0Z"/>
          <path class="cls-2" d="M470.2,27.2h-1.6l-11.1,1v1.6c4.9,0,6.3.6,6.3,5.3v20.5c0,4-1.2,5.1-6.3,5.1v1.6h18.3v-1.6c-4.7,0-5.6-1.8-5.6-5.1v-28.4h0ZM467.1,14.7c-2.3,0-4.1,1.8-4.1,4.1s1.9,4.1,4.1,4.1,4.1-1.9,4.1-4.1-1.8-4.1-4.1-4.1"/>
          <path class="cls-2" d="M516.6,35.8c-1.2-2.8-.5-4.6,2.1-5v-2.5h-16.1v2.5c3.9.1,5.4,1.1,7.1,5l11.7,27.1-2.2,5.8c-2.1,5.9-4.4,8.2-8.5,8.2s-1.9-.2-3.2-.8l-2.2,5.8c1.7,1,2.8,1.4,4.2,1.4,4,0,8.4-4.4,11.1-12.2l11.2-33.2c1.9-5.6,4-7.9,7.7-7.9v-1.8h-11.8v1.8c3.7.2,4,2.4,2.6,6.3l-5.9,17.7-7.8-18.4h0Z"/>
          <path class="cls-2" d="M490.9,17.1h-1.6c-2.8,5.8-6.6,9.8-11.2,12.1v1.6h6.3v22.4c0,5.8,4,9.8,9.6,9.8s7.2-1.9,10.1-5.6l-1-1.2c-2,2.3-3.8,3.2-6.2,3.2-3.7,0-6.1-2.4-6.1-7v-21.6h11.7v-2.5h-11.7v-11.2h0Z"/>
          <path class="cls-1" d="M3.5,27.4h8.3c3.2,0,5.7.5,7.7,1.5,3.5,1.8,5.6,5.1,5.6,9.8s-1.7,8.1-6.6,10c-1.9.7-4.2,1.2-7.3,1.2h-1.5v11.8H3.5V27.4ZM11.6,44.8c1.7,0,3-.3,4-.8,1.9-1,2.9-2.8,2.9-5.4s-.9-4.2-2.7-5.3c-1-.6-2.4-.9-4.3-.9h-1.8v12.3h1.9,0Z"/>
          <path class="cls-1" d="M29.5,27.4h9.4c3.2,0,5.5.5,7.3,1.4,3.7,1.7,5.1,4.9,5.1,8.4s-2.8,7.6-6.7,8.8h0c1,.7,2.4,2.5,4.3,5.7l5.7,10h-7.2l-5-8.7c-1.7-3.1-2.9-4.5-3.7-4.7h-3v13.4h-6.2s0-34.3,0-34.3ZM38.5,43.2c1.6,0,2.8-.3,3.8-.9,1.5-.8,2.4-2.4,2.4-4.5s-.8-3.4-2.3-4.3c-.8-.6-2-1-3.9-1h-2.8v10.7s2.8,0,2.8,0Z"/>
          <path class="cls-1" d="M56.2,44.7c0-10.4,7.1-17.6,17.3-17.6s17.3,7.2,17.3,17.6-7.3,17.5-17.3,17.5-17.3-7-17.3-17.5M84.1,44.7c0-7.6-4.1-12.3-10.6-12.3s-10.6,4.5-10.6,12.3,4.3,12.3,10.6,12.3,10.6-4.5,10.6-12.3"/>
          <polygon class="cls-1" points="101.8 32.7 91.8 32.7 91.8 27.4 118.9 27.4 117.2 32.7 108 32.7 108 61.7 101.8 61.7 101.8 32.7"/>
          <polygon class="cls-1" points="120.7 27.4 139.7 27.4 137.9 32.7 127 32.7 127 41.6 137.9 41.6 137.9 46.9 127 46.9 127 56.3 139.7 56.3 139.7 61.7 120.7 61.7 120.7 27.4"/>
          <path class="cls-1" d="M171.2,59.5c-3.8,2.1-7.4,2.7-10.9,2.7-11.2,0-17.3-7.2-17.3-17.3s7.1-17.8,18.1-17.8,6.9.7,9,1.7v5.8c-2.6-1.4-5.5-2.2-8.9-2.2-7.6,0-11.6,5.7-11.6,12.4s4.4,12.2,11.4,12.2,6-1,8.4-2.4l1.7,4.9h0Z"/>
          <polygon class="cls-1" points="183.7 32.7 173.7 32.7 173.7 27.4 200.8 27.4 199.1 32.7 189.9 32.7 189.9 61.7 183.7 61.7 183.7 32.7"/>
          <polygon class="cls-1" points="209.9 27.2 214.9 27.2 228.6 61.6 221.9 61.6 212.4 36.1 206.3 53 203.1 61.6 196.6 61.6 209.9 27.2"/>
          <path class="cls-1" d="M203.7,118.7c-2.6,1.4-5,1.8-7.3,1.8-7.5,0-11.6-4.8-11.6-11.6s4.7-12,12.1-12,4.6.5,6,1.1v3.9c-1.8-.9-3.7-1.5-5.9-1.5-5.1,0-7.8,3.8-7.8,8.3s2.9,8.2,7.6,8.2,4-.7,5.6-1.6l1.1,3.3h0Z"/>
          <path class="cls-1" d="M205.2,108.7c0-7,4.8-11.8,11.6-11.8s11.6,4.8,11.6,11.8-4.9,11.8-11.6,11.8-11.6-4.7-11.6-11.8M223.9,108.7c0-5.1-2.8-8.3-7.1-8.3s-7.1,3-7.1,8.3,2.9,8.2,7.1,8.2,7.1-3,7.1-8.2"/>
          <path class="cls-1" d="M231.5,97.2h3.8l6,8.7c.8,1.2,1.4,2.1,1.9,3h0c.5-.9,1.1-1.9,1.9-3.1l5.5-8.5h3.8v23h-4.2v-13c0-.9,0-2.1,0-3h0c-.3.7-1.1,1.9-1.6,2.6l-4.5,7h-1.9l-5-7.2c-.5-.7-1.1-1.5-1.6-2.4h0c0,.9,0,2.1,0,2.9v13.1h-4.2v-23h0Z"/>
          <path class="cls-1" d="M258.7,97.2h5.5c2.1,0,3.8.3,5.2,1,2.4,1.2,3.7,3.4,3.7,6.6s-1.1,5.4-4.4,6.7c-1.3.5-2.8.8-4.9.8h-1v7.9h-4.2v-23h0ZM264.1,108.8c1.1,0,2-.2,2.7-.5,1.3-.6,1.9-1.9,1.9-3.6s-.6-2.8-1.8-3.5c-.7-.4-1.6-.6-2.9-.6h-1.2v8.2h1.3,0Z"/>
          <path class="cls-1" d="M282.6,97.1h3.4l9.2,23.1h-4.5l-2.2-5.8h-8.2l-2.2,5.8h-4.4l8.9-23.1h0ZM287.1,111l-1.6-4.6c-.6-1.7-.9-2.8-1.1-3.6h0c-.2.8-.6,1.8-1.2,3.6l-1.7,4.5h5.7Z"/>
          <path class="cls-1" d="M313.5,120.1l-10-13.1c-1-1.3-1.8-2.4-2.6-3.5h0c0,.9,0,2.2,0,3.6v13h-4.2v-23h4.1l9.6,12.6c1,1.4,1.9,2.5,2.5,3.6h0c0-1.2,0-2.6,0-3.9v-12.3h4.2v23h-3.8ZM301.6,93.7c0-1.9,1.2-2.9,2.9-2.9s3.5,1.5,4.6,1.5.8-.4.8-1.3h2.7v1.4c0,1.8-1.2,2.9-2.9,2.9s-3.5-1.5-4.6-1.5-.8.4-.8,1.3h-2.7v-1.4Z"/>
          <path class="cls-1" d="M323.3,90.7h4.5l-3.4,5.1h-3.2l2-5.1h0ZM321.4,97.2h4.2v23h-4.2v-23Z"/>
          <path class="cls-1" d="M336.1,97.1h3.4l9.2,23.1h-4.5l-2.2-5.8h-8.2l-2.2,5.8h-4.4l8.9-23.1h0ZM340.6,111l-1.6-4.6c-.6-1.7-.9-2.8-1.1-3.6h0c-.2.8-.6,1.8-1.2,3.6l-1.7,4.5h5.7Z"/>
          <path class="cls-1" d="M356.4,97.2h7.1c8.1,0,12.5,4.5,12.5,11.3s-5,11.7-12.9,11.7h-6.8v-23h0ZM363.2,116.6c6.1,0,8.4-3.7,8.4-8s-2.8-7.8-8.4-7.8h-2.6v15.9h2.6Z"/>
          <polygon class="cls-1" points="379.2 97.2 391.9 97.2 390.7 100.7 383.4 100.7 383.4 106.7 390.7 106.7 390.7 110.3 383.4 110.3 383.4 116.6 391.9 116.6 391.9 120.1 379.2 120.1 379.2 97.2"/>
          <path class="cls-1" d="M401.8,115.3c1.4.9,3.1,1.7,5.2,1.7s3.8-.7,3.8-2.7c0-4.5-9.9-3.9-9.9-10.9s2.7-6.3,7.5-6.3,4.4.5,5.6,1.2v3.8c-1.8-.9-3.7-1.5-5.5-1.5s-3.1.6-3.1,2.5c0,4.2,9.9,3.7,9.9,10.9s-3.5,6.6-8.2,6.6-5.2-.8-6.9-2l1.6-3.2h0Z"/>
          <polygon class="cls-1" points="418.4 97.2 431.1 97.2 430 100.7 422.6 100.7 422.6 106.7 430 106.7 430 110.3 422.6 110.3 422.6 116.6 431.1 116.6 431.1 120.1 418.4 120.1 418.4 97.2"/>
          <path class="cls-1" d="M453.8,118.6c-2.1,1.1-5.2,1.8-8.4,1.8-7.5,0-12-4.8-12-11.4s5-12.1,12.6-12.1,4.9.5,6.7,1.2v3.9c-1.8-.9-3.9-1.5-6.4-1.5-5.5,0-8.5,3.4-8.5,8.3s2.9,8.2,7.9,8.2,2.9-.3,3.8-.7v-7.3h4.2s0,9.7,0,9.7Z"/>
          <path class="cls-1" d="M458.4,116c-.6-1.2-.9-2.7-.9-4.5v-14.4h4.2v14.1c0,1.2.2,2.3.6,3.1.8,1.6,2.4,2.6,4.7,2.6s3.9-.9,4.7-2.6c.4-.8.6-1.9.6-3.1v-14.1h4.2v14.4c0,1.8-.3,3.3-.9,4.5-1.4,3-4.4,4.4-8.6,4.4s-7.2-1.5-8.6-4.5"/>
          <path class="cls-1" d="M480.5,97.2h6.3c2.2,0,3.7.3,4.9.9,2.4,1.2,3.4,3.3,3.4,5.6s-1.9,5.1-4.5,5.9h0c.7.4,1.6,1.7,2.9,3.8l3.8,6.7h-4.8l-3.3-5.8c-1.1-2.1-2-3-2.5-3.1h-2v9h-4.2v-23h0ZM486.5,107.8c1.1,0,1.9-.2,2.5-.6,1-.6,1.6-1.6,1.6-3s-.5-2.3-1.5-2.9c-.6-.4-1.3-.7-2.6-.7h-1.9v7.2h1.9Z"/>
          <path class="cls-1" d="M498.6,108.7c0-7,4.8-11.8,11.6-11.8s11.6,4.8,11.6,11.8-4.9,11.8-11.6,11.8-11.6-4.7-11.6-11.8M517.3,108.7c0-5.1-2.8-8.3-7.1-8.3s-7.1,3-7.1,8.3,2.9,8.2,7.1,8.2,7.1-3,7.1-8.2"/>
          <path class="cls-1" d="M525.4,115.3c1.4.9,3.1,1.7,5.2,1.7s3.8-.7,3.8-2.7c0-4.5-9.9-3.9-9.9-10.9s2.7-6.3,7.5-6.3,4.4.5,5.6,1.2v3.8c-1.8-.9-3.7-1.5-5.5-1.5s-3.1.6-3.1,2.5c0,4.2,9.9,3.7,9.9,10.9s-3.5,6.6-8.2,6.6-5.2-.8-6.9-2l1.6-3.2h0Z"/>
          <path class="cls-1" d="M565.2,20.5c1.1,0,2-.4,2.8-1.1.8-.7,1.1-1.7,1.1-2.8s-.4-2.1-1.1-2.8c-.7-.8-1.7-1.1-2.8-1.1s-2,.4-2.7,1.1c-.7.7-1.1,1.7-1.1,2.8s.4,2.1,1.1,2.8c.7.8,1.7,1.1,2.7,1.1M564.8,9.9c1,0,1.9.2,2.7.6s1.2.9,1.4,1.6v-6.8h3v17.8h-3v-1.9c-.2.6-.7,1.2-1.4,1.6-.7.4-1.6.6-2.7.6-1.8,0-3.3-.6-4.6-1.9-1.2-1.3-1.8-2.9-1.8-4.8s.6-3.5,1.8-4.8c1.2-1.3,2.8-1.9,4.6-1.9"/>
          <path class="cls-1" d="M577.1,15.2h6.8c0-.8-.3-1.4-1-2-.6-.6-1.4-.9-2.2-.9s-1.8.3-2.5.8c-.7.6-1.1,1.2-1.1,2M574,16.7h0c0-2.1.6-3.8,1.9-5,1.3-1.2,2.9-1.9,4.8-1.9s3.4.6,4.5,1.9c1.2,1.2,1.8,2.8,1.8,4.6s0,.6,0,1.1h-9.9c0,1,.4,1.9,1.1,2.5.7.6,1.6.9,2.7.9s2.5-.5,3.5-1.5l1.8,1.8c-1.5,1.5-3.2,2.3-5.4,2.3s-3.6-.6-4.9-1.8c-1.3-1.2-1.9-2.8-1.9-4.8"/>
          <rect class="cls-1" x="558.6" y="34" width="28.8" height="4.1"/>
          <rect class="cls-1" x="558.6" y="58.7" width="28.8" height="4.1"/>
          <rect class="cls-1" x="558.6" y="42.2" width="28.8" height="4.1"/>
          <rect class="cls-1" x="558.6" y="50.5" width="28.8" height="4.1"/>
          <path class="cls-1" d="M598.9,34h11.2c4.5,0,8,3,8,7.2s-1.3,4.8-3.6,5.7c3.7.7,5.7,3.5,5.7,7s-3.6,8.3-8.6,8.3h-12.7v-28.1h0ZM609.1,45.2c1.8,0,3-1.3,3-3s-1.3-2.9-3-2.9h-4.1v5.9h4.1,0ZM610.4,56.8c2.1,0,3.6-1.5,3.6-3.4s-1.5-3.3-3.7-3.3h-5.3v6.8h5.4,0s0,0,0,0Z"/>
          <rect class="cls-1" x="627.5" y="34" width="6.2" height="28.1"/>
          <path class="cls-1" d="M656.2,33.6c4.6,0,8.6,2,11.4,5.2l-4.2,3.6c-1.8-2-4.3-3.2-7.1-3.2-5,0-8.9,3.8-8.9,8.9s3.9,8.8,8.9,8.8,5.4-1.2,7.2-3.2l4.2,3.6c-2.8,3.3-6.9,5.3-11.4,5.3-8.4,0-15.2-6.1-15.2-14.5s6.8-14.5,15.2-14.5"/>
          <polygon class="cls-1" points="674.2 34 674.2 62.2 693.7 62.2 693.7 56.5 680.4 56.5 680.4 50.5 692.6 50.5 692.6 45 680.4 45 680.4 39.7 693.4 39.7 693.4 34 674.2 34"/>
          <rect class="cls-1" x="254.9" y="19.8" width="1.3" height="51.7"/>
        </g>
      </g>
    </g>
  </g>
</svg>