<svg width="264"
     height="50"
     viewBox="0 0 264 50"
     fill="none"
     xmlns="http://www.w3.org/2000/svg">
  <path d="M123.289 30.5171H122.517V0.000185013H123.289V30.5171Z"
        fill="white" />
  <path d="M0 6.03435H4.04781C5.59972 6.03435 6.82179 6.26223 7.81675 6.7489C9.54556 7.61408 10.5374 9.24092 10.5374 11.5306C10.5374 13.4664 9.69774 15.4787 7.33085 16.4466C6.41315 16.8028 5.26833 17.0299 3.76662 17.0299H3.05671V22.8096H0V6.03435ZM3.97056 14.5378C4.78553 14.5378 5.446 14.4104 5.93266 14.1547C6.872 13.6958 7.33085 12.7804 7.33085 11.5306C7.33085 10.436 6.89981 9.49584 6.00837 8.95974C5.52402 8.68319 4.83805 8.5287 3.92035 8.5287H3.05671V14.5378H3.97056Z"
        fill="white" />
  <path d="M12.7324 6.03435H17.3147C18.8921 6.03435 20.013 6.29004 20.9044 6.72109C22.685 7.56232 23.3972 9.11347 23.3972 10.8207C23.3972 13.0601 22.0493 14.5378 20.1127 15.1458V15.1991C20.6233 15.4787 21.3092 16.3941 22.2022 17.9221L25.0001 22.8096H21.4884L19.0721 18.5578C18.2564 17.0584 17.6461 16.3686 17.2375 16.2682H15.7898V22.8096H12.7324V6.03435ZM17.161 13.7738C17.9512 13.7738 18.5098 13.6201 19.0204 13.3389C19.7318 12.9342 20.1907 12.1702 20.1907 11.1258C20.1907 10.2328 19.8098 9.44641 19.0721 9.01381C18.665 8.73263 18.1027 8.5287 17.1873 8.5287H15.7898V13.7738H17.161Z"
        fill="white" />
  <path d="M25.8719 14.4846C25.8719 9.39392 29.3596 5.88144 34.3213 5.88144C39.2845 5.88144 42.7738 9.41941 42.7738 14.4846C42.7738 19.6254 39.2088 23.063 34.3213 23.063C29.3836 23.063 25.8719 19.6254 25.8719 14.4846ZM39.5155 14.4846C39.5155 10.7689 37.5039 8.45227 34.3213 8.45227C31.2182 8.45227 29.1287 10.6662 29.1287 14.4846C29.1287 18.2775 31.2182 20.4929 34.3213 20.4929C37.4004 20.4929 39.5155 18.2775 39.5155 14.4846Z"
        fill="white" />
  <path d="M48.2014 8.62989H43.3139V6.0359H56.5766L55.737 8.62989H51.2581V22.8096H48.2014V8.62989Z"
        fill="white" />
  <path d="M57.4968 6.03435H66.762L65.9223 8.62912H60.5543V13.0075H65.9223V15.6046H60.5543V20.2117H66.7898V22.8096H57.4968V6.03435Z"
        fill="white" />
  <path d="M82.2172 21.7394C80.3586 22.7559 78.5781 23.0649 76.8987 23.0649C71.3994 23.0649 68.4199 19.5239 68.4199 14.6117C68.4199 9.75199 71.8837 5.88185 77.2795 5.88185C79.1103 5.88185 80.6383 6.23719 81.6811 6.69528V9.54728C80.3864 8.859 78.9828 8.45267 77.3537 8.45267C73.6404 8.45267 71.6798 11.2521 71.6798 14.5367C71.6798 18.0461 73.818 20.4933 77.254 20.4933C78.9071 20.4933 80.181 20.0082 81.3775 19.3223L82.2172 21.7394Z"
        fill="white" />
  <path d="M87.1615 8.63005H82.274V6.03606H95.5367L94.6932 8.63005H90.2151V22.8066H87.1615V8.63005Z"
        fill="white" />
  <path d="M104.82 5.9828L110.833 22.8105H107.152L102.895 10.3543L98.7765 22.8105H95.1667L101.194 5.9828H104.82Z"
        fill="white" />
  <path d="M146.48 5.81604V10.7275H145.578C145.43 9.4946 144.992 8.51354 144.255 7.78586C143.521 7.05819 142.634 6.69821 141.593 6.69821C140.799 6.69821 140.161 6.89519 139.675 7.29148C139.194 7.68931 138.951 8.21768 138.951 8.87816C138.951 9.52395 139.174 10.091 139.623 10.5815C140.068 11.0735 141.043 11.6653 142.539 12.3551C144.477 13.235 145.756 14.0785 146.38 14.8865C147.003 15.6945 147.317 16.664 147.317 17.7918C147.317 19.1282 146.817 20.2862 145.82 21.2587C144.822 22.2351 143.64 22.7241 142.277 22.7241C141.569 22.7241 140.636 22.4669 139.481 21.9547C138.848 21.6751 138.43 21.5345 138.223 21.5345C137.946 21.5345 137.711 21.638 137.519 21.8412C137.33 22.049 137.221 22.3062 137.191 22.6144H136.419V17.1762H137.191C137.468 18.6052 138.084 19.7408 139.04 20.582C139.993 21.4217 141.087 21.8412 142.317 21.8412C143.111 21.8412 143.776 21.5785 144.311 21.0486C144.847 20.5195 145.115 19.8683 145.115 19.088C145.115 18.3357 144.868 17.6883 144.374 17.1352C143.88 16.5837 142.811 15.9479 141.169 15.2272C139.319 14.4169 138.101 13.6583 137.519 12.9538C136.931 12.2516 136.638 11.3995 136.638 10.3984C136.638 9.15007 137.119 8.07555 138.081 7.17174C139.043 6.26871 140.185 5.81604 141.504 5.81604C142.119 5.81604 142.787 5.96358 143.506 6.25558C144.022 6.46338 144.438 6.56534 144.762 6.56534C145.188 6.56534 145.504 6.31506 145.707 5.81604H146.48Z"
        fill="white" />
  <path d="M165.587 18.1237V19.2886C164.62 20.5215 163.632 21.4021 162.628 21.9313C161.622 22.4596 160.413 22.7246 159.004 22.7246C156.51 22.7246 154.45 21.9421 152.831 20.3778C151.209 18.8159 150.399 16.8306 150.399 14.4251C150.399 12.0026 151.17 9.96475 152.721 8.30392C154.268 6.64772 156.165 5.81652 158.41 5.81652C160.259 5.81652 161.874 6.43992 163.253 7.68979C164.635 8.93812 165.324 10.4252 165.324 12.1555V12.4869H153.591V12.7071C153.591 14.4699 153.857 15.9986 154.391 17.2995C154.928 18.5965 155.712 19.6123 156.738 20.3446C157.765 21.0823 158.836 21.4485 159.95 21.4485C160.995 21.4485 161.886 21.2299 162.628 20.798C163.368 20.3662 164.353 19.4756 165.587 18.1237ZM153.591 11.716H162.286V11.4077C162.286 9.98484 161.879 8.85547 161.063 8.01733C160.25 7.17996 159.233 6.76359 158.014 6.76359C156.724 6.76359 155.686 7.2039 154.898 8.08221C154.114 8.96439 153.679 10.1741 153.591 11.716Z"
        fill="white" />
  <path d="M183.243 5.81604V11.4528H182.474C182.133 9.98435 181.488 8.82485 180.536 7.97203C179.579 7.12308 178.445 6.69821 177.126 6.69821C175.539 6.69821 174.247 7.31233 173.25 8.54753C172.249 9.78119 171.752 11.3787 171.752 13.3439C171.752 15.5176 172.342 17.3979 173.526 18.9807C174.705 20.5674 176.111 21.3591 177.739 21.3591C178.827 21.3591 179.9 21.0664 180.965 20.4785C182.027 19.893 182.942 19.0749 183.705 18.0336V19.1985C181.974 21.5492 179.624 22.7241 176.66 22.7241C174.296 22.7241 172.371 21.9748 170.883 20.4785C169.392 18.9807 168.647 17.0371 168.647 14.6447C168.647 12.1944 169.451 10.1079 171.057 8.39226C172.663 6.67735 174.607 5.81604 176.882 5.81604C177.895 5.81604 179.026 6.02306 180.273 6.43171C180.815 6.60938 181.191 6.69821 181.394 6.69821C181.849 6.69821 182.207 6.40389 182.474 5.81604H183.243Z"
        fill="white" />
  <path d="M201.01 5.81604H201.759V19.2217C201.759 20.1015 201.945 20.6971 202.321 21.0077C202.692 21.3143 203.423 21.4681 204.51 21.4681V22.2166L198.7 22.5256V19.5987H198.611C197.01 21.6828 195.146 22.7241 193.019 22.7241C191.491 22.7241 190.238 22.212 189.265 21.19C188.289 20.1695 187.801 18.8864 187.801 17.3446V9.16475C187.801 8.34205 187.594 7.78587 187.185 7.48923C186.774 7.19723 186.035 7.04969 184.96 7.04969V6.30038L190.09 5.81604H190.863V17.2202C190.863 18.3357 191.189 19.2178 191.839 19.8628C192.493 20.5086 193.37 20.83 194.471 20.83C195.998 20.83 197.406 19.9571 198.7 18.2097V9.58498C198.7 8.48419 198.53 7.79282 198.19 7.51318C197.854 7.23277 196.989 7.07904 195.593 7.04969V6.30038L201.01 5.81604Z"
        fill="white" />
  <path d="M211.731 5.81623V9.27232C213.197 7.99618 214.34 7.10319 215.154 6.58949C215.967 6.07347 216.648 5.81623 217.189 5.81623C218.203 5.81623 219.18 6.23569 220.117 7.06997L218.908 9.91039C217.205 8.97259 215.939 8.5037 215.121 8.5037C214.211 8.5037 213.079 9.14717 211.731 10.4388V19.218C211.731 20.1017 211.914 20.6973 212.282 21.0079C212.648 21.3145 213.352 21.4683 214.394 21.4683V22.2168H205.961V21.4683C207.078 21.4683 207.808 21.2906 208.154 20.9391C208.497 20.5876 208.669 19.741 208.669 18.3984V9.6771C208.669 8.57322 208.481 7.8579 208.106 7.53423C207.735 7.21288 206.82 7.04988 205.367 7.04988V6.30058L210.958 5.81623H211.731Z"
        fill="white" />
  <path d="M227.427 5.81623H228.196V19.2659C228.196 20.1458 228.389 20.7329 228.77 21.0279C229.152 21.3199 229.847 21.4683 230.861 21.4683V22.2168H222.123V21.4683C223.398 21.4683 224.22 21.3277 224.587 21.0388C224.954 20.7506 225.137 20.1589 225.137 19.2582V9.43531C225.137 8.4643 224.969 7.82314 224.631 7.51337C224.291 7.20284 223.456 7.04988 222.123 7.04988V6.30058L227.427 5.81623ZM226.723 0.00021553C227.264 0.00021553 227.723 0.187155 228.098 0.55872C228.474 0.934145 228.661 1.39223 228.661 1.93451C228.661 2.47834 228.468 2.94414 228.087 3.33425C227.704 3.72126 227.249 3.9167 226.723 3.9167C226.179 3.9167 225.709 3.72126 225.311 3.33425C224.916 2.94414 224.718 2.47834 224.718 1.93451C224.718 1.39223 224.912 0.934145 225.303 0.55872C225.69 0.187155 226.164 0.00021553 226.723 0.00021553Z"
        fill="white" />
  <path d="M237.839 0.841175H238.609V6.21301H244.158V7.38023H238.609V17.662C238.609 18.7311 238.856 19.5592 239.357 20.137C239.857 20.7156 240.567 21.006 241.493 21.006C242.579 21.006 243.57 20.4931 244.465 19.4649L244.972 20.0628C243.576 21.838 241.969 22.7256 240.149 22.7256C238.786 22.7256 237.677 22.2891 236.824 21.4247C235.975 20.5595 235.55 19.4425 235.55 18.0799V7.38023H232.535V6.61084C234.736 5.50851 236.502 3.58812 237.839 0.841175Z"
        fill="white" />
  <path d="M253.361 6.30187V7.05041C252.455 7.18405 252.004 7.6514 252.004 8.4486C252.004 8.75914 252.083 9.10907 252.246 9.49377L256.078 18.5194L258.861 10.0839C259.083 9.38794 259.191 8.8333 259.191 8.42233C259.191 7.56488 258.657 7.10989 257.589 7.05041V6.30187H263.245V7.05041C262.39 7.05041 261.686 7.34086 261.126 7.92022C260.571 8.50036 260.062 9.45823 259.606 10.7985L253.252 29.6192C252.632 31.4091 251.843 32.8235 250.888 33.8648C249.932 34.9053 248.952 35.4268 247.95 35.4268C247.362 35.4268 246.698 35.1996 245.966 34.7431L247.003 31.9931C247.562 32.241 248.078 32.3685 248.551 32.3685C249.509 32.3685 250.303 32.0634 250.929 31.4624C251.554 30.8614 252.118 29.8556 252.621 28.4482L254.668 22.6584L248.938 9.44897C248.512 8.48722 248.089 7.84916 247.672 7.53939C247.25 7.22808 246.595 7.06509 245.699 7.05041V6.30187H253.361Z"
        fill="white" />
  <path d="M130.744 49.2387C129.789 49.7616 128.874 49.9185 128.008 49.9185C125.183 49.9185 123.655 48.1 123.655 45.5756C123.655 43.0758 125.432 41.0882 128.208 41.0882C129.146 41.0882 129.933 41.2721 130.469 41.5061V42.9715C129.8 42.6193 129.084 42.4107 128.245 42.4107C126.335 42.4107 125.327 43.8475 125.327 45.5362C125.327 47.3415 126.427 48.596 128.192 48.596C129.043 48.596 129.698 48.348 130.313 47.9957L130.744 49.2387Z"
        fill="white" />
  <path d="M131.645 45.5106C131.645 42.8942 133.438 41.0874 135.987 41.0874C138.539 41.0874 140.33 42.9058 140.33 45.5106C140.33 48.154 138.5 49.9199 135.987 49.9199C133.45 49.9199 131.645 48.154 131.645 45.5106ZM138.658 45.5106C138.658 43.601 137.623 42.4099 135.987 42.4099C134.39 42.4099 133.319 43.5485 133.319 45.5106C133.319 47.4588 134.39 48.599 135.987 48.599C137.573 48.599 138.658 47.4588 138.658 45.5106Z"
        fill="white" />
  <path d="M141.848 41.167H143.274L145.538 44.4261C145.839 44.8687 146.059 45.197 146.257 45.5369H146.283C146.466 45.2086 146.69 44.8301 146.99 44.3728L149.055 41.167H150.496V49.7871H148.914V44.9212C148.914 44.569 148.914 44.1233 148.938 43.7834H148.914C148.794 44.0321 148.483 44.5157 148.324 44.7505L146.623 47.3947H145.903L144.021 44.6864C143.837 44.4261 143.602 44.1233 143.431 43.7981H143.406C143.418 44.1379 143.418 44.5814 143.418 44.8826V49.7871H141.848V41.167Z"
        fill="white" />
  <path d="M152.378 41.167H154.458C155.255 41.167 155.883 41.2836 156.393 41.5339C157.282 41.9789 157.791 42.8155 157.791 43.9943C157.791 44.9885 157.362 46.0205 156.146 46.5164C155.674 46.7003 155.085 46.8185 154.315 46.8185H153.948V49.7871H152.378V41.167ZM154.42 45.5369C154.835 45.5369 155.177 45.4689 155.425 45.3407C155.909 45.1059 156.146 44.6339 156.146 43.9943C156.146 43.4311 155.921 42.9476 155.466 42.6718C155.218 42.5281 154.865 42.4485 154.392 42.4485H153.948V45.5369H154.42Z"
        fill="white" />
  <path d="M161.69 41.1281H162.945L166.412 49.7876H164.714L163.875 47.6285H160.801L159.992 49.7876H158.355L161.69 41.1281ZM163.392 46.3493L162.789 44.6328C162.556 43.9793 162.438 43.5861 162.358 43.2987H162.333C162.253 43.6008 162.124 43.9793 161.889 44.6483L161.259 46.3493H163.392Z"
        fill="white" />
  <path d="M173.634 49.7871L169.891 44.8695C169.513 44.3836 169.211 43.9541 168.925 43.5601H168.897C168.925 43.9 168.925 44.396 168.925 44.8942V49.7871H167.354V41.167H168.912L172.523 45.8892C172.9 46.3998 173.214 46.8192 173.475 47.224H173.502C173.49 46.7667 173.475 46.2437 173.475 45.7725V41.167H175.06V49.7871H173.634ZM169.16 39.8576C169.16 39.1539 169.618 38.7738 170.234 38.7738C170.978 38.7738 171.54 39.3486 171.944 39.3486C172.208 39.3486 172.235 39.1786 172.235 38.8534H173.254V39.3748C173.254 40.0677 172.783 40.4478 172.183 40.4478C171.448 40.4478 170.874 39.8854 170.469 39.8854C170.206 39.8854 170.181 40.0554 170.181 40.369H169.16V39.8576Z"
        fill="white" />
  <path d="M177.649 38.7603H179.335L178.081 40.6845H176.889L177.649 38.7603ZM176.942 41.165H178.512V49.7852H176.942V41.165Z"
        fill="white" />
  <path d="M182.789 41.1281H184.045L187.511 49.7876H185.81L184.975 47.6285H181.9L181.088 49.7876H179.451L182.789 41.1281ZM184.491 46.3493L183.887 44.6328C183.652 43.9793 183.537 43.5861 183.457 43.2987H183.432C183.352 43.6008 183.221 43.9793 182.985 44.6483L182.358 46.3493H184.491Z"
        fill="white" />
  <path d="M191.069 41.167H193.749C196.797 41.167 198.46 42.868 198.46 45.4172C198.46 48.0367 196.604 49.7871 193.606 49.7871H191.069V41.167ZM193.633 48.4561C195.909 48.4561 196.77 47.0664 196.77 45.4458C196.77 43.6389 195.711 42.5018 193.606 42.5018H192.638V48.4561H193.633Z"
        fill="white" />
  <path d="M200.617 41.167H205.378L204.947 42.5018H202.187V44.7505H204.947V46.0846H202.187V48.4561H205.392V49.7871H200.617V41.167Z"
        fill="white" />
  <path d="M209.786 47.9698C210.297 48.3212 210.949 48.597 211.734 48.597C212.455 48.597 213.173 48.3212 213.173 47.5773C213.173 45.8895 209.446 46.0988 209.446 43.4708C209.446 42.2001 210.453 41.0877 212.243 41.0877C213.135 41.0877 213.88 41.2855 214.352 41.5188V42.9602C213.672 42.6049 212.98 42.4102 212.297 42.4102C211.696 42.4102 211.12 42.645 211.12 43.3387C211.12 44.9223 214.848 44.7138 214.848 47.4453C214.848 48.9763 213.54 49.918 211.775 49.918C210.768 49.918 209.826 49.6298 209.172 49.1725L209.786 47.9698Z"
        fill="white" />
  <path d="M216.353 41.167H221.114L220.682 42.5018H217.922V44.7505H220.682V46.0846H217.922V48.4561H221.127V49.7871H216.353V41.167Z"
        fill="white" />
  <path d="M229.983 49.2255C229.196 49.6179 228.046 49.9199 226.844 49.9199C224.018 49.9199 222.344 48.1023 222.344 45.6296C222.344 43.0132 224.214 41.0889 227.079 41.0889C228.085 41.0889 228.924 41.2851 229.579 41.5192V42.9861C228.897 42.6455 228.126 42.4114 227.196 42.4114C225.117 42.4114 224.018 43.6929 224.018 45.523C224.018 47.38 225.102 48.5982 226.962 48.5982C227.537 48.5982 228.058 48.4916 228.4 48.3356V45.6025H229.983V49.2255Z"
        fill="white" />
  <path d="M232.022 48.2447C231.799 47.7982 231.696 47.2235 231.696 46.57V41.1664H233.265V46.4633C233.265 46.9222 233.341 47.3146 233.5 47.629C233.802 48.2447 234.403 48.5969 235.266 48.5969C236.128 48.5969 236.731 48.2447 237.031 47.629C237.191 47.3146 237.267 46.9222 237.267 46.4525V41.1664H238.838V46.57C238.838 47.2381 238.733 47.8129 238.51 48.2571C237.974 49.3679 236.851 49.9194 235.266 49.9194C233.671 49.9194 232.545 49.3679 232.022 48.2447Z"
        fill="white" />
  <path d="M240.656 41.167H243.009C243.821 41.167 244.398 41.2983 244.854 41.5185C245.772 41.9534 246.137 42.7498 246.137 43.625C246.137 44.7776 245.442 45.5369 244.448 45.8513V45.8768C244.71 46.0205 245.065 46.4909 245.522 47.2758L246.959 49.7871H245.155L243.912 47.6048C243.495 46.8308 243.181 46.4793 242.97 46.4268H242.226V49.7871H240.656V41.167ZM242.932 45.1445C243.336 45.1445 243.624 45.0649 243.888 44.9212C244.252 44.7134 244.49 44.3195 244.49 43.7834C244.49 43.3245 244.293 42.9205 243.912 42.6973C243.703 42.5536 243.416 42.4485 242.945 42.4485H242.226V45.1445H242.932Z"
        fill="white" />
  <path d="M247.784 45.5106C247.784 42.8942 249.577 41.0874 252.126 41.0874C254.677 41.0874 256.469 42.9058 256.469 45.5106C256.469 48.154 254.639 49.9199 252.126 49.9199C249.588 49.9199 247.784 48.154 247.784 45.5106ZM254.795 45.5106C254.795 43.601 253.761 42.4099 252.126 42.4099C250.529 42.4099 249.458 43.5485 249.458 45.5106C249.458 47.4588 250.529 48.599 252.126 48.599C253.712 48.599 254.795 47.4588 254.795 45.5106Z"
        fill="white" />
  <path d="M258.183 47.9698C258.69 48.3212 259.346 48.597 260.131 48.597C260.852 48.597 261.571 48.3212 261.571 47.5773C261.571 45.8895 257.843 46.0988 257.843 43.4708C257.843 42.2001 258.85 41.0877 260.641 41.0877C261.53 41.0877 262.275 41.2855 262.748 41.5188V42.9602C262.069 42.6049 261.375 42.4102 260.694 42.4102C260.093 42.4102 259.518 42.645 259.518 43.3387C259.518 44.9223 263.245 44.7138 263.245 47.4453C263.245 48.9763 261.938 49.918 260.172 49.918C259.162 49.918 258.222 49.6298 257.567 49.1725L258.183 47.9698Z"
        fill="white" />
</svg>