<?xml version="1.0" encoding="UTF-8"?>
<svg id="Capa_1" xmlns="http://www.w3.org/2000/svg" viewBox="0 0 583.47 95.2">
  <defs>
    <style>
      .cls-1, .cls-2 {
        fill: #fff;
      }

      .cls-2, .cls-3 {
        fill-rule: evenodd;
      }

      .cls-3, .cls-4 {
        fill: #201751;
      }

      .cls-5 {
        fill: #346696;
      }

      .cls-6 {
        fill: #f16e29;
      }
    </style>
  </defs>
  <polygon class="cls-3" points="233.12 0 466.94 0 466.86 68.35 233.12 68.35 233.12 0"/>
  <path class="cls-2" d="M264.35,29.68v-6.78h-1.06c-.31.74-.74,1.05-1.3,1.05-1.51,0-2.19-1.05-4.49-1.05-3.67,0-6.72,2.92-6.72,6.34,0,7.47,11.7,5.79,11.7,11.95,0,2.18-1.69,3.8-3.86,3.8-2.74,0-6.16-1.8-7.09-6.41h-1.06v7.53h1.06c.06-.81.62-1.49,1.43-1.49,1.06,0,3.18,1.62,5.61,1.62,3.79,0,6.97-3.11,6.97-6.79,0-8.21-11.57-6.72-11.57-12.32,0-1.8,1.49-2.99,3.67-2.99,2.61,0,5.04,1.87,5.47,5.54h1.25Z"/>
  <path class="cls-2" d="M289.44,32.12c.31-5.11-4.42-9.22-9.52-9.22-6.23,0-11.08,5.23-11.08,11.9s4.98,11.44,11.88,11.44c3.85,0,6.41-1.3,9.08-4.72v-1.62c-3.17,3.54-4.73,4.61-7.77,4.61s-8.9-2.49-8.77-12.38h16.18ZM273.26,31.06c.25-4.11,2.43-6.85,6.1-6.85,2.79,0,6.1,2,5.92,6.85h-12.01Z"/>
  <path class="cls-2" d="M312.8,22.9h-1.06c-.37.82-.94,1.25-1.49,1.25-1.12,0-2.92-1.25-6.22-1.25-6.29,0-11.39,5.42-11.39,12.2s4.54,11.14,11.08,11.14c3.98,0,7.34-1.62,9.7-4.85v-1.62c-2.31,3.18-5.54,4.61-8.21,4.61-4.48,0-8.28-5.03-8.28-11.07,0-5.42,3.05-9.16,7.41-9.16,3.67,0,6.46,2.55,7.4,6.54h1.06v-7.78Z"/>
  <path class="cls-2" d="M338.64,22.9h-1.06l-7.47.69v1.06c3.8.05,4.29.43,4.29,3.48v11.89c-1.8,2.42-3.74,3.61-5.85,3.61-2.98,0-4.97-1.87-4.97-4.98v-15.75h-1.06l-7.1.69v1.06c3.18,0,3.92.81,3.92,2.92v11.27c0,4.1,2.87,7.4,7.23,7.4,2.98,0,5.54-1.43,7.72-4.29h.12v3.62h8.03v-1.06c-2.98,0-3.79-.69-3.79-3.11v-18.49Z"/>
  <path class="cls-2" d="M353.39,28.76c1.99-1.93,3.23-2.67,4.66-2.67s3.42.94,5.23,1.92l1.69-3.92c-1.12-1-2.8-1.74-4.05-1.74-1.49,0-3.42,1.25-7.53,4.79v-4.79h-1.06l-7.72.69v1.05c3.74,0,4.54.38,4.54,3.61v12.56c0,3.36-.37,4.24-3.72,4.24v1.05h11.63v-1.05c-2.92,0-3.66-.69-3.66-3.11v-12.62Z"/>
  <path class="cls-2" d="M375.6,22.4h-1.05l-7.34.68v1.06c3.23,0,4.16.42,4.16,3.47v13.49c0,2.62-.81,3.38-4.16,3.38v1.06h12.08v-1.06c-3.11,0-3.68-1.2-3.68-3.38v-18.7ZM373.55,14.14c-1.49,0-2.74,1.18-2.74,2.68s1.24,2.74,2.74,2.74,2.68-1.25,2.68-2.74-1.19-2.68-2.68-2.68"/>
  <path class="cls-2" d="M406.2,28.05c-.82-1.88-.31-3.03,1.38-3.27v-1.62h-10.62v1.62c2.57.06,3.56.71,4.69,3.27l7.73,17.89-1.48,3.83c-1.37,3.87-2.93,5.43-5.62,5.43-.74,0-1.25-.13-2.12-.5l-1.44,3.81c1.13.69,1.81.93,2.75.93,2.67,0,5.55-2.93,7.3-8.05l7.41-21.87c1.25-3.68,2.67-5.19,5.05-5.19v-1.18h-7.79v1.18c2.44.13,2.62,1.57,1.74,4.19l-3.87,11.66-5.12-12.13Z"/>
  <path class="cls-2" d="M389.3,15.73h-1.06c-1.87,3.8-4.37,6.48-7.36,7.99v1.06h4.18v14.78c0,3.81,2.62,6.43,6.37,6.43,2.5,0,4.75-1.26,6.68-3.68l-.69-.82c-1.31,1.5-2.49,2.13-4.11,2.13-2.44,0-3.99-1.56-3.99-4.62v-14.22h7.71v-1.63h-7.71v-7.42Z"/>
  <rect class="cls-6" y="0" width="233.38" height="68.35"/>
  <path class="cls-1" d="M67.78,22.51h5.45c2.09,0,3.74.31,5.08.97,2.33,1.16,3.67,3.36,3.67,6.45,0,2.6-1.14,5.31-4.32,6.61-1.24.48-2.78.79-4.8.79h-.97v7.79h-4.11v-22.62ZM73.13,33.98c1.1,0,2-.17,2.64-.52,1.28-.62,1.89-1.86,1.89-3.53,0-1.48-.58-2.75-1.78-3.47-.66-.38-1.58-.59-2.81-.59h-1.17v8.1h1.23Z"/>
  <path class="cls-1" d="M84.89,22.51h6.17c2.13,0,3.64.34,4.84.93,2.41,1.13,3.36,3.22,3.36,5.52,0,3.02-1.81,5.01-4.42,5.83v.08c.69.38,1.61,1.61,2.81,3.67l3.77,6.59h-4.72l-3.26-5.73c-1.09-2.03-1.92-2.95-2.47-3.09h-1.95v8.82h-4.12v-22.62ZM90.86,32.95c1.06,0,1.81-.2,2.51-.58.96-.56,1.57-1.58,1.57-2.99,0-1.2-.51-2.26-1.5-2.85-.55-.38-1.3-.65-2.54-.65h-1.88v7.07h1.85Z"/>
  <path class="cls-1" d="M102.56,33.91c0-6.87,4.7-11.6,11.39-11.6s11.4,4.77,11.4,11.6-4.81,11.55-11.4,11.55-11.39-4.63-11.39-11.55M120.94,33.91c0-5.01-2.71-8.14-7-8.14s-6.99,2.98-6.99,8.14,2.81,8.09,6.99,8.09,7-2.98,7-8.09"/>
  <polygon class="cls-1" points="132.6 26.01 126.02 26.01 126.02 22.51 143.9 22.51 142.76 26.01 136.73 26.01 136.73 45.13 132.6 45.13 132.6 26.01"/>
  <polygon class="cls-1" points="145.1 22.51 157.59 22.51 156.45 26.01 149.21 26.01 149.21 31.92 156.45 31.92 156.45 35.42 149.21 35.42 149.21 41.62 157.62 41.62 157.62 45.13 145.1 45.13 145.1 22.51"/>
  <path class="cls-1" d="M178.37,43.68c-2.5,1.37-4.91,1.78-7.17,1.78-7.41,0-11.42-4.77-11.42-11.39s4.66-11.77,11.94-11.77c2.47,0,4.53.48,5.94,1.11v3.83c-1.75-.92-3.64-1.47-5.84-1.47-5,0-7.64,3.77-7.64,8.2,0,4.73,2.88,8.03,7.52,8.03,2.23,0,3.94-.66,5.55-1.58l1.14,3.25Z"/>
  <polygon class="cls-1" points="186.64 26.01 180.06 26.01 180.06 22.51 197.93 22.51 196.79 26.01 190.76 26.01 190.76 45.13 186.64 45.13 186.64 26.01"/>
  <polygon class="cls-1" points="203.89 22.4 207.18 22.4 216.27 45.09 211.81 45.09 205.55 28.24 201.56 39.43 199.43 45.09 195.15 45.09 203.89 22.4"/>
  <path class="cls-4" d="M246.39,94c-1.68.92-3.29,1.2-4.81,1.2-4.97,0-7.66-3.2-7.66-7.64s3.13-7.89,8-7.89c1.66,0,3.04.32,3.98.74v2.58c-1.17-.62-2.44-.99-3.91-.99-3.36,0-5.13,2.53-5.13,5.5,0,3.17,1.93,5.38,5.04,5.38,1.49,0,2.64-.44,3.73-1.06l.76,2.19Z"/>
  <path class="cls-4" d="M247.38,87.45c0-4.6,3.15-7.77,7.64-7.77s7.64,3.2,7.64,7.77-3.22,7.75-7.64,7.75-7.64-3.11-7.64-7.75M259.7,87.45c0-3.36-1.82-5.45-4.69-5.45s-4.69,2-4.69,5.45,1.89,5.43,4.69,5.43,4.69-2,4.69-5.43"/>
  <path class="cls-4" d="M264.72,79.81h2.51l3.98,5.73c.53.78.92,1.36,1.27,1.95h.05c.32-.58.71-1.24,1.24-2.05l3.63-5.64h2.53v15.16h-2.78v-8.56c0-.62,0-1.4.05-2h-.05c-.21.44-.76,1.29-1.04,1.7l-2.99,4.65h-1.27l-3.31-4.76c-.32-.46-.74-.99-1.03-1.56h-.05c.02.6.02,1.38.02,1.91v8.63h-2.76v-15.16Z"/>
  <path class="cls-4" d="M282.64,79.81h3.66c1.4,0,2.51.21,3.4.64,1.56.78,2.46,2.25,2.46,4.32,0,1.75-.76,3.56-2.9,4.44-.83.32-1.86.53-3.22.53h-.64v5.22h-2.76v-15.16ZM286.22,87.49c.74,0,1.33-.12,1.77-.34.85-.41,1.27-1.24,1.27-2.37,0-.99-.39-1.84-1.2-2.32-.44-.25-1.06-.39-1.89-.39h-.78v5.43h.83Z"/>
  <path class="cls-4" d="M298.42,79.74h2.21l6.1,15.23h-2.99l-1.47-3.8h-5.41l-1.43,3.8h-2.88l5.87-15.23ZM301.41,88.92l-1.06-3.01c-.41-1.15-.62-1.84-.76-2.35h-.05c-.14.53-.37,1.2-.78,2.37l-1.1,2.99h3.75Z"/>
  <path class="cls-4" d="M318.82,94.97l-6.58-8.65c-.67-.85-1.2-1.61-1.7-2.3h-.05c.05.6.05,1.47.05,2.35v8.6h-2.76v-15.16h2.74l6.35,8.3c.67.9,1.22,1.63,1.68,2.35h.05c-.02-.81-.05-1.73-.05-2.55v-8.1h2.78v15.16h-2.51ZM310.95,77.51c0-1.24.81-1.91,1.89-1.91,1.31,0,2.3,1.01,3.01,1.01.46,0,.51-.3.51-.87h1.79v.92c0,1.22-.83,1.89-1.89,1.89-1.29,0-2.3-.99-3.01-.99-.46,0-.51.3-.51.85h-1.79v-.9Z"/>
  <path class="cls-4" d="M325.28,75.58h2.97l-2.21,3.38h-2.09l1.33-3.38ZM324.04,79.81h2.76v15.16h-2.76v-15.16Z"/>
  <path class="cls-4" d="M333.72,79.74h2.21l6.1,15.23h-2.99l-1.47-3.8h-5.41l-1.43,3.8h-2.88l5.87-15.23ZM336.71,88.92l-1.06-3.01c-.41-1.15-.62-1.84-.76-2.35h-.05c-.14.53-.37,1.2-.78,2.37l-1.1,2.99h3.75Z"/>
  <path class="cls-4" d="M347.09,79.81h4.72c5.36,0,8.28,2.99,8.28,7.47s-3.27,7.68-8.53,7.68h-4.46v-15.16ZM351.59,92.62c4,0,5.52-2.44,5.52-5.29,0-3.17-1.86-5.18-5.57-5.18h-1.7v10.47h1.75Z"/>
  <polygon class="cls-4" points="362.13 79.81 370.5 79.81 369.74 82.16 364.89 82.16 364.89 86.11 369.74 86.11 369.74 88.46 364.89 88.46 364.89 92.62 370.52 92.62 370.52 94.97 362.13 94.97 362.13 79.81"/>
  <path class="cls-4" d="M377.06,91.77c.9.62,2.05,1.1,3.43,1.1,1.27,0,2.53-.48,2.53-1.79,0-2.97-6.56-2.6-6.56-7.22,0-2.23,1.77-4.19,4.92-4.19,1.56,0,2.87.35,3.7.76v2.53c-1.2-.62-2.42-.97-3.61-.97-1.06,0-2.07.41-2.07,1.63,0,2.78,6.56,2.41,6.56,7.22,0,2.69-2.3,4.35-5.41,4.35-1.77,0-3.43-.51-4.58-1.31l1.08-2.12Z"/>
  <polygon class="cls-4" points="388.01 79.81 396.38 79.81 395.62 82.16 390.77 82.16 390.77 86.11 395.62 86.11 395.62 88.46 390.77 88.46 390.77 92.62 396.4 92.62 396.4 94.97 388.01 94.97 388.01 79.81"/>
  <path class="cls-4" d="M411.37,93.98c-1.38.69-3.4,1.22-5.52,1.22-4.97,0-7.91-3.2-7.91-7.54,0-4.6,3.29-7.98,8.33-7.98,1.77,0,3.24.34,4.39.76v2.58c-1.2-.6-2.55-1.01-4.19-1.01-3.66,0-5.59,2.25-5.59,5.47s1.91,5.41,5.18,5.41c1.01,0,1.93-.18,2.53-.46v-4.81h2.78v6.37Z"/>
  <path class="cls-4" d="M414.36,92.26c-.39-.78-.58-1.79-.58-2.94v-9.5h2.76v9.32c0,.81.14,1.5.41,2.05.53,1.08,1.59,1.7,3.1,1.7s2.58-.62,3.11-1.7c.28-.55.41-1.24.41-2.07v-9.29h2.76v9.5c0,1.17-.18,2.19-.58,2.97-.94,1.96-2.92,2.92-5.7,2.92s-4.78-.97-5.7-2.94"/>
  <path class="cls-4" d="M428.95,79.81h4.14c1.43,0,2.44.23,3.24.62,1.61.76,2.25,2.16,2.25,3.7,0,2.02-1.22,3.36-2.97,3.91v.05c.46.25,1.08,1.08,1.89,2.46l2.53,4.42h-3.17l-2.19-3.84c-.74-1.36-1.29-1.98-1.66-2.07h-1.31v5.91h-2.76v-15.16ZM432.95,86.8c.71,0,1.22-.14,1.68-.39.64-.37,1.06-1.06,1.06-2,0-.81-.34-1.52-1.01-1.91-.37-.25-.87-.44-1.7-.44h-1.26v4.74h1.24Z"/>
  <path class="cls-4" d="M440.88,87.45c0-4.6,3.15-7.77,7.64-7.77s7.64,3.2,7.64,7.77-3.22,7.75-7.64,7.75-7.64-3.11-7.64-7.75M453.21,87.45c0-3.36-1.82-5.45-4.69-5.45s-4.69,2-4.69,5.45,1.89,5.43,4.69,5.43,4.69-2,4.69-5.43"/>
  <path class="cls-4" d="M458.57,91.77c.9.62,2.05,1.1,3.43,1.1,1.27,0,2.53-.48,2.53-1.79,0-2.97-6.56-2.6-6.56-7.22,0-2.23,1.77-4.19,4.92-4.19,1.56,0,2.87.35,3.7.76v2.53c-1.2-.62-2.42-.97-3.61-.97-1.06,0-2.07.41-2.07,1.63,0,2.78,6.56,2.41,6.56,7.22,0,2.69-2.3,4.35-5.41,4.35-1.77,0-3.43-.51-4.58-1.31l1.08-2.12Z"/>
  <path class="cls-5" d="M483.62,35.35c.86,0,1.57-.29,2.15-.88.58-.57.89-1.31.89-2.18s-.29-1.6-.89-2.18c-.57-.58-1.3-.88-2.15-.88s-1.52.29-2.11.88c-.55.57-.83,1.31-.83,2.18s.28,1.6.83,2.18c.57.58,1.28.88,2.11.88M483.31,27.07c.8,0,1.49.15,2.06.46.57.3.94.71,1.1,1.21v-5.27h2.36v13.83h-2.36v-1.46c-.18.5-.55.9-1.1,1.22-.57.31-1.24.46-2.06.46-1.4,0-2.58-.5-3.54-1.49-.95-1.02-1.42-2.26-1.42-3.73s.47-2.72,1.42-3.71c.96-1.02,2.15-1.51,3.54-1.51"/>
  <path class="cls-5" d="M492.86,31.21h5.29c0-.58-.25-1.09-.75-1.52-.5-.44-1.08-.66-1.75-.66-.74,0-1.37.22-1.9.63-.53.43-.84.94-.89,1.54M490.46,32.35v-.08c0-1.57.48-2.84,1.46-3.82.98-.97,2.22-1.46,3.73-1.46s2.62.48,3.53,1.46c.91.97,1.37,2.16,1.37,3.58,0,.22-.01.48-.04.84h-7.71c.04.8.33,1.43.86,1.9.53.48,1.24.71,2.12.71,1.03,0,1.92-.38,2.68-1.16l1.41,1.38c-1.13,1.19-2.51,1.79-4.16,1.79-1.56,0-2.82-.47-3.8-1.41-.98-.94-1.46-2.2-1.46-3.75"/>
  <rect class="cls-5" x="478.49" y="45.83" width="22.36" height="3.2"/>
  <rect class="cls-5" x="478.49" y="64.99" width="22.36" height="3.2"/>
  <rect class="cls-5" x="478.49" y="52.22" width="22.36" height="3.2"/>
  <rect class="cls-5" x="478.49" y="58.62" width="22.36" height="3.19"/>
  <path class="cls-5" d="M509.85,45.83h8.68c3.48,0,6.25,2.35,6.25,5.59,0,2.09-1.04,3.76-2.79,4.39,2.88.51,4.39,2.7,4.39,5.42,0,3.71-2.83,6.46-6.65,6.46h-9.88v-21.86ZM517.76,54.56c1.38,0,2.35-.98,2.35-2.32s-.98-2.26-2.32-2.26h-3.2v4.58h3.17ZM518.76,63.53c1.63,0,2.83-1.17,2.83-2.67s-1.17-2.56-2.86-2.56h-4.14v5.24h4.18-.01Z"/>
  <rect class="cls-5" x="532.03" y="45.83" width="4.82" height="21.86"/>
  <path class="cls-5" d="M554.36,45.49c3.54,0,6.68,1.57,8.85,4.08l-3.3,2.79c-1.38-1.54-3.35-2.48-5.55-2.48-3.88,0-6.93,2.95-6.93,6.89s3.05,6.87,6.93,6.87c2.2,0,4.2-.94,5.59-2.51l3.3,2.79c-2.17,2.54-5.33,4.11-8.87,4.11-6.5,0-11.77-4.74-11.77-11.26s5.27-11.29,11.77-11.29"/>
  <polygon class="cls-5" points="568.31 45.83 568.31 67.7 583.47 67.7 583.47 63.3 573.15 63.3 573.15 58.63 582.6 58.63 582.6 54.34 573.15 54.34 573.15 50.23 583.26 50.23 583.26 45.83 568.31 45.83"/>
</svg>