<svg width="120" height="121" viewBox="0 0 120 121" fill="none" xmlns="http://www.w3.org/2000/svg">
<path d="M36.4242 107.493C31.6214 107.545 26.9706 105.81 23.3741 102.627C10.9121 91.9828 8.37412 70.4608 10.0721 54.7588C11.3023 44.5837 15.9573 35.1298 23.2721 27.9508C38.0981 13.4728 70.6001 8.6548 91.1201 19.0348C93.3742 20.1647 95.5106 21.5153 97.4981 23.0668C107.458 31.0588 110.974 43.7848 109.63 56.8768C108.46 65.9188 103.69 74.3368 95.4941 78.0808C84.2981 83.3968 70.4441 82.1908 63.0221 93.7768C61.8221 94.9768 60.5261 96.1768 59.1882 97.2748C52.4622 102.915 44.3382 107.415 36.4242 107.493Z" fill="#E8E4ED"/>
<path d="M68.356 68.6971L57.31 62.6611L51.658 64.7251L57.508 72.6691" stroke="#FF6D00" stroke-width="3" stroke-linecap="round" stroke-linejoin="round"/>
<path d="M73.3059 77.247L94.4319 69.519C94.4319 69.519 101.53 65.229 97.2039 62.883C92.8779 60.537 89.3559 61.017 89.3559 61.017L48.1479 76.095C47.6843 76.2645 47.188 76.3255 46.6971 76.2735C46.2062 76.2215 45.7338 76.0579 45.3159 75.795L33.3159 68.235L26.4939 70.737L35.0319 80.895C34.6552 81.1791 34.359 81.5565 34.1728 81.9901C33.9865 82.4236 33.9166 82.8982 33.9699 83.367C33.9965 83.9069 34.187 84.4259 34.5161 84.8547C34.8453 85.2835 35.2973 85.6017 35.8119 85.767C37.5579 86.367 41.6199 86.793 44.0619 87.033C45.3341 87.161 46.6188 86.9968 47.8179 86.553L58.9299 82.491" stroke="#2E0563" stroke-width="3" stroke-linecap="round" stroke-linejoin="round"/>
<path d="M46.192 67.6648C45.3879 63.2806 44.9862 58.8321 44.992 54.3748C44.992 36.2428 51.19 21.5488 58.828 21.5488C66.466 21.5488 72.664 36.2428 72.664 54.3748C72.664 56.7028 72.562 58.9828 72.364 61.1788" stroke="#2E0563" stroke-width="3" stroke-linecap="round" stroke-linejoin="round"/>
<path d="M31.9419 35.7393H85.8699" stroke="#2E0563" stroke-width="3" stroke-linecap="round" stroke-linejoin="round"/>
<path d="M26.026 54.3747H91.672C91.6714 49.6471 90.6497 44.9754 88.6767 40.6793C86.7037 36.3831 83.8261 32.5638 80.2405 29.4825C76.655 26.4013 72.4463 24.1309 67.9022 22.8267C63.3581 21.5224 58.5859 21.2151 53.9121 21.9257C49.2382 22.6362 44.773 24.348 40.8219 26.9438C36.8707 29.5396 33.5269 32.9583 31.0191 36.9659C28.5113 40.9735 26.8988 45.4755 26.2917 50.1639C25.6847 54.8523 26.0976 59.6165 27.502 64.1307" stroke="#2E0563" stroke-width="3" stroke-linecap="round" stroke-linejoin="round"/>
<path d="M58.8941 82.4973L55.7261 101.433L64.7441 98.1333L70.7321 79.9053" stroke="#FF6D00" stroke-width="3" stroke-linecap="round" stroke-linejoin="round"/>
</svg>
