<svg width="51" height="51" viewBox="0 0 51 51" fill="none" xmlns="http://www.w3.org/2000/svg">
<g clip-path="url(#clip0)">
<path d="M38.5792 5.70984C28.975 5.88901 22.2848 1.03623 17.657 1.12373C13.0292 1.21123 3.35699 4.05289 3.75561 25.3459C4.15422 46.639 17.2889 49.5182 22.3806 49.4237C46.2181 48.9779 55.5903 5.39178 38.5792 5.70984V5.70984Z" fill="#EAE6EF"/>
<path d="M23.4167 50.2735C21.1187 50.2735 19.25 48.4048 19.25 46.1069C19.25 43.8089 21.1187 41.9402 23.4167 41.9402C25.7146 41.9402 27.5833 43.8089 27.5833 46.1069C27.5833 48.4048 25.7146 50.2735 23.4167 50.2735ZM23.4167 44.0235C22.2667 44.0235 21.3333 44.9589 21.3333 46.1069C21.3333 47.2548 22.2667 48.1902 23.4167 48.1902C24.5667 48.1902 25.5 47.2548 25.5 46.1069C25.5 44.9589 24.5667 44.0235 23.4167 44.0235Z" fill="#2B0D61"/>
<path d="M37.9997 50.2735C35.7018 50.2735 33.833 48.4048 33.833 46.1069C33.833 43.8089 35.7018 41.9402 37.9997 41.9402C40.2976 41.9402 42.1663 43.8089 42.1663 46.1069C42.1663 48.4048 40.2976 50.2735 37.9997 50.2735ZM37.9997 44.0235C36.8497 44.0235 35.9163 44.9589 35.9163 46.1069C35.9163 47.2548 36.8497 48.1902 37.9997 48.1902C39.1497 48.1902 40.083 47.2548 40.083 46.1069C40.083 44.9589 39.1497 44.0235 37.9997 44.0235Z" fill="#2B0D61"/>
<path d="M20.2917 19.0235H12.4792C11.9042 19.0235 11.4375 18.5569 11.4375 17.9819C11.4375 17.4069 11.9042 16.9402 12.4792 16.9402H20.2917C20.8667 16.9402 21.3333 17.4069 21.3333 17.9819C21.3333 18.5569 20.8667 19.0235 20.2917 19.0235Z" fill="#2B0D61"/>
<path d="M40.2917 39.8572H21.3542C19.0312 39.8572 16.9729 38.3009 16.3521 36.0738L9.72917 12.9572C9.35417 11.6197 8.12292 10.6905 6.72917 10.6905H1.54167C0.966667 10.6905 0.5 10.2238 0.5 9.64884C0.5 9.07384 0.966667 8.60718 1.54167 8.60718H6.72917C9.05208 8.60718 11.1104 10.1634 11.7312 12.3905L18.3542 35.5072C18.7292 36.8447 19.9604 37.7738 21.3542 37.7738H40.2917C41.5958 37.7738 42.7771 36.9426 43.2312 35.7072L45.125 30.5218C45.3229 29.9822 45.9208 29.7051 46.4625 29.9009C47.0021 30.0988 47.2812 30.6968 47.0833 31.2363L45.1896 36.4238C44.4333 38.478 42.4667 39.8572 40.2917 39.8572V39.8572Z" fill="#2B0D61"/>
<path d="M38 29.4404C37.8625 29.4404 37.725 29.4133 37.5958 29.357C37.1 29.1508 25.5 24.1362 25.5 13.8904V5.18413C25.5 4.7383 25.7854 4.34038 26.2083 4.19663L37.6667 0.327881C37.8833 0.254964 38.1187 0.254964 38.3333 0.327881L49.7917 4.19663C50.2146 4.34038 50.5 4.7383 50.5 5.18413V13.8904C50.5 24.1362 38.9 29.1508 38.4042 29.3591C38.275 29.4133 38.1375 29.4404 38 29.4404ZM27.5833 5.93205V13.8904C27.5833 21.7758 36.0312 26.3029 38 27.2529C39.9667 26.3008 48.4167 21.757 48.4167 13.8904V5.93205L38 2.41538L27.5833 5.93205Z" fill="#ED6E00"/>
<path d="M36.9583 19.0237C36.9396 19.0237 36.9187 19.0237 36.9021 19.0216C36.6041 19.005 36.3312 18.8633 36.1458 18.632L31.9791 13.4237C31.6208 12.9737 31.6916 12.3195 32.1416 11.9591C32.5958 11.6008 33.2479 11.6737 33.6062 12.1216L37.0437 16.4216L43.5125 9.95288C43.9187 9.54663 44.5791 9.54663 44.9854 9.95288C45.3916 10.3591 45.3916 11.0195 44.9854 11.4258L37.6937 18.7175C37.5 18.9154 37.2333 19.0237 36.9583 19.0237V19.0237Z" fill="#ED6E00"/>
</g>
<defs>
<clipPath id="clip0">
<rect width="50" height="50" fill="white" transform="translate(0.5 0.273682)"/>
</clipPath>
</defs>
</svg>
