<svg id="LOGOTIPO" xmlns="http://www.w3.org/2000/svg" viewBox="0 0 547.57 212.1"><defs><style>.cls-1{fill:#002d72;}.cls-2{fill:#ffb500;}</style></defs><path class="cls-1" d="M545,304.13a15.61,15.61,0,0,0,10.18-3.77c1.19-1,2-.86,2.84,0l.66.6a1.7,1.7,0,0,1-.13,2.64c-4,3.83-9.58,5.09-13.55,5.09-9,0-17.5-6.28-17.5-17.18,0-10,7.13-17.44,16.64-17.44a16.13,16.13,0,0,1,11.5,4.42,16.91,16.91,0,0,1,5,12.23,2.09,2.09,0,0,1-2.25,2.11h-25.5A11.86,11.86,0,0,0,545,304.13Zm-12.09-15.66h22.33a11.64,11.64,0,0,0-3-6.61,10.53,10.53,0,0,0-8.07-3.23C538.16,278.63,533.8,282.46,532.94,288.47Z" transform="translate(-145.68 -108.35)"/><path class="cls-1" d="M601,291.38c0,9.58-6.81,17.31-16.72,17.31a16,16,0,0,1-11.82-5v14.8a1.68,1.68,0,0,1-1.79,1.92H569a1.71,1.71,0,0,1-1.78-1.92V276.45a1.71,1.71,0,0,1,1.78-1.92h1.45a1.68,1.68,0,0,1,1.79,1.92v2.64a16.13,16.13,0,0,1,12-5C594.18,274.07,601,281.73,601,291.38Zm-5.35,0c0-6.87-4.56-12.62-12-12.62-6.28,0-11.76,4.16-11.76,12.62S577.34,304,583.68,304C591.08,304,595.64,298.25,595.64,291.38Z" transform="translate(-145.68 -108.35)"/><path class="cls-1" d="M605,303.4c-.66-.86-1.06-1.85.13-2.77l.46-.47c.93-.79,1.79-1.05,2.84.07a11.13,11.13,0,0,0,8.39,3.9c4,0,6.81-1.85,6.81-4.76,0-3.76-3.7-5.09-7.86-6.8-4.69-1.92-9.39-4-9.39-9.32,0-5.55,4.43-9.18,11.17-9.18a13.39,13.39,0,0,1,10,4.23,1.79,1.79,0,0,1,.13,2.84l-.46.46a1.82,1.82,0,0,1-2.84.13c-2.44-2.38-4.23-3.17-7-3.17-3.5,0-5.75,1.72-5.75,4.23s2.64,3.9,6.28,5.48c5.68,2.45,11,4.36,11,11,0,5.68-4.75,9.38-11.82,9.38A16.33,16.33,0,0,1,605,303.4Z" transform="translate(-145.68 -108.35)"/><path class="cls-1" d="M433.17,207.34v40.92a2.12,2.12,0,0,1-2.12,2.12h-14a2.12,2.12,0,0,1-2.12-2.12V211.33c0-9.84-4-14.83-11.83-14.83-9.55,0-14.83,7.7-14.83,18.68v33.08a2.12,2.12,0,0,1-2.12,2.12h-14a2.12,2.12,0,0,1-2.12-2.12V184.94a2.12,2.12,0,0,1,2.12-2.12H386a2.12,2.12,0,0,1,2.12,2.12v6.29c4.42-6.7,11.26-10.12,20.39-10.12C422.77,181.11,433.17,190.8,433.17,207.34Z" transform="translate(-145.68 -108.35)"/><path class="cls-1" d="M497.18,191.78V157.49a2.12,2.12,0,0,1,2.12-2.12h14a2.12,2.12,0,0,1,2.13,2.12v90.77a2.12,2.12,0,0,1-2.13,2.12H499.44a2.12,2.12,0,0,1-2.12-2.12V242c-5.27,6.41-12.4,9.7-21.38,9.7A33.86,33.86,0,0,1,452,242.24c-6.69-6.13-10.12-14.83-10.12-26.09,0-14,5.31-24.24,16.24-30.53A35.14,35.14,0,0,1,477.57,181C486.5,181.53,493.11,185.08,497.18,191.78ZM497,216.29c0-13.54-8.56-20.1-18.82-20.1-10.69,0-18.25,7.42-18.25,20s7.56,20.24,18.53,20.24C489.19,236.39,497,229.26,497,216.29Z" transform="translate(-145.68 -108.35)"/><path class="cls-1" d="M536.59,154.3a10.88,10.88,0,1,1,0,21.76,10.88,10.88,0,0,1,0-21.76Zm-6.87,28.52h14a2.12,2.12,0,0,1,2.12,2.12v63.32a2.12,2.12,0,0,1-2.12,2.12h-14a2.12,2.12,0,0,1-2.13-2.12V184.94A2.12,2.12,0,0,1,529.72,182.82Z" transform="translate(-145.68 -108.35)"/><path class="cls-1" d="M276.12,182c-6.12,0-12.12,3-14.83,9.68v-6.71a2.12,2.12,0,0,0-2.12-2.12H245.32a2.12,2.12,0,0,0-2.12,2.12v63.32a2.12,2.12,0,0,0,2.12,2.12h14a2.12,2.12,0,0,0,2.12-2.12V214.6c0-10.12,4.41-15.24,13.12-15.24a18.11,18.11,0,0,1,4.37.5,2.31,2.31,0,0,0,2.75-1.54l4.05-12.5a2.3,2.3,0,0,0-1.44-2.94A28.34,28.34,0,0,0,276.12,182Z" transform="translate(-145.68 -108.35)"/><path class="cls-1" d="M642.21,244.19a1.44,1.44,0,0,1-.12,1.52c-3,3.92-7.51,5.81-13.42,5.81-8.11,0-15.51-5.54-16.22-13.37-4.69,8.11-13.37,13.52-24.61,13.52a32.78,32.78,0,0,1-23.47-9.39c-6.54-6.26-9.81-14.8-9.81-25.46,0-11.1,3.41-19.78,10.38-26.18a34.79,34.79,0,0,1,24.33-9.53c9.81,0,16.5,3.13,20.2,9.53V185a2.21,2.21,0,0,1,2.21-2.21h13.64a2.21,2.21,0,0,1,2.21,2.21V230.9c0,3.27,1.57,5,4.55,5a7.42,7.42,0,0,0,3.79-.93,1.39,1.39,0,0,1,2,.57Zm-38.86-13.72c3.7-3.56,5.55-8.39,5.55-14.37,0-11.52-8.11-19.63-18.21-19.63a17.5,17.5,0,0,0-12.8,5.41c-3.56,3.7-5.27,8.53-5.27,14.51s1.71,10.67,5.12,14.22A16.68,16.68,0,0,0,590.26,236,18,18,0,0,0,603.35,230.47Z" transform="translate(-145.68 -108.35)"/><path class="cls-1" d="M339.79,191.9V185A2.21,2.21,0,0,1,342,182.8h13.77A2.21,2.21,0,0,1,358,185l.11,63.11a2.22,2.22,0,0,1-2.21,2.22H342.26a2.22,2.22,0,0,1-2.21-2.22l-.12-6.15c-5.26,6.4-12.37,9.68-21.33,9.68a33.75,33.75,0,0,1-23.9-9.39c-6.69-6.12-10.1-14.8-10.1-26,0-16,7-27.12,21.34-33a29.1,29.1,0,0,1,9.28-2.09C326.69,180.51,335,184,339.79,191.9Zm-.14,24.47c0-13.52-8.53-20.06-18.78-20.06-10.67,0-18.21,7.4-18.21,19.92s7.54,20.2,18.5,20.2C331.83,236.43,339.65,229.31,339.65,216.37Z" transform="translate(-145.68 -108.35)"/><path class="cls-1" d="M231.17,199.76V238a2.26,2.26,0,0,1-.88,1.79c-10.86,8.36-22.8,12.54-36,12.54-17.22,0-32.44-7.25-41.68-22.48-4.7-7.53-7-16.35-7-26.45,0-15.37,6-28.6,15.22-36.56a50.38,50.38,0,0,1,33-12.52,47.34,47.34,0,0,1,35.8,15.77,2.24,2.24,0,0,1-.13,3l-9.6,9.6a2.21,2.21,0,0,1-3.32-.16q-8.19-10.76-22.47-10.75c-8.39,0-15.36,2.7-20.91,8s-8.39,13-8.39,22.76q0,15.58,9,23.9a29.86,29.86,0,0,0,21.34,8.39,35.91,35.91,0,0,0,17.21-4.26V215.18H194a2.21,2.21,0,0,1-2.21-2.21V199.76a2.22,2.22,0,0,1,2.21-2.22h35A2.22,2.22,0,0,1,231.17,199.76Z" transform="translate(-145.68 -108.35)"/><path class="cls-2" d="M631.43,109.91a54.2,54.2,0,0,0-25.82,0c-2.34.55-3.81,3.3-3.21,6l9.45,42.82a2.62,2.62,0,0,0,2.41,2.21h8.52a2.62,2.62,0,0,0,2.41-2.21l9.45-42.82C635.24,113.22,633.77,110.47,631.43,109.91Z" transform="translate(-145.68 -108.35)"/><path class="cls-2" d="M569,127.56a54,54,0,0,0-16.11,20.19c-1,2.17.21,5,2.72,6.27l39.37,19.31a2.63,2.63,0,0,0,3.23-.51l5.31-6.66a2.62,2.62,0,0,0-.22-3.26l-27.59-34.09C573.92,126.65,570.85,126.09,569,127.56Z" transform="translate(-145.68 -108.35)"/><path class="cls-2" d="M687.49,212.59a54.15,54.15,0,0,0,5.75-25.17c0-2.41-2.37-4.45-5.16-4.47l-43.86-.32a2.6,2.6,0,0,0-2.68,1.86l-1.9,8.3a2.61,2.61,0,0,0,1.61,2.84l39.65,18.75C683.42,215.57,686.42,214.74,687.49,212.59Z" transform="translate(-145.68 -108.35)"/><path class="cls-2" d="M684.19,147.75a54.21,54.21,0,0,0-16.1-20.19c-1.89-1.48-5-.92-6.72,1.25L633.78,162.9a2.61,2.61,0,0,0-.21,3.26l5.3,6.66a2.63,2.63,0,0,0,3.23.51L681.47,154C684,152.79,685.2,149.93,684.19,147.75Z" transform="translate(-145.68 -108.35)"/></svg>