<svg width="184" height="41" viewBox="0 0 184 41" fill="none" xmlns="http://www.w3.org/2000/svg">
<path d="M95.1082 8.73535V20.7829C95.1416 22.2253 94.9004 23.6599 94.3992 24.9949C93.8982 26.3299 93.1484 27.5359 92.1979 28.536C91.335 29.4961 90.3037 30.2553 89.1659 30.7677C88.0279 31.2804 86.807 31.5355 85.5766 31.518C84.2665 31.5567 82.9626 31.3032 81.7447 30.7731C80.5268 30.2429 79.4202 29.4475 78.4919 28.4348C77.5665 27.4666 76.8343 26.299 76.342 25.0053C75.8494 23.712 75.6075 22.3209 75.6307 20.9199V8.06719C75.6075 7.62139 75.6659 7.17479 75.8025 6.7537C75.9393 6.33288 76.1513 5.94589 76.4265 5.61611C76.6842 5.32634 76.9941 5.09834 77.3366 4.94634C77.6788 4.79434 78.0463 4.72183 78.4156 4.73338C78.7689 4.72156 79.1206 4.7887 79.4493 4.93023C79.778 5.07148 80.0771 5.28471 80.3285 5.55622C80.6131 5.89326 80.8331 6.28883 80.9762 6.71986C81.1194 7.15116 81.1827 7.60904 81.1623 8.06719V20.9319C81.1447 21.5582 81.2435 22.1815 81.4522 22.7648C81.6612 23.3484 81.9759 23.879 82.3776 24.3254C82.7819 24.7752 83.2676 25.1278 83.8033 25.3609C84.339 25.594 84.9132 25.7025 85.4893 25.6794C86.5145 25.6947 87.504 25.2658 88.2415 24.4865C88.6836 24.0061 89.0294 23.4303 89.2576 22.796C89.4855 22.1614 89.5904 21.4819 89.5659 20.8006V8.06719C89.5411 7.623 89.5967 7.17774 89.7295 6.75719C89.8622 6.33664 90.0697 5.94885 90.3397 5.61611C90.5939 5.32607 90.9007 5.0978 91.2406 4.9458C91.5803 4.7938 91.9455 4.72129 92.3125 4.73338C92.8038 4.70169 93.2933 4.82549 93.7226 5.08974C94.1514 5.35427 94.5018 5.74797 94.732 6.22438C95.0316 7.01876 95.16 7.87786 95.1082 8.73535Z" fill="#1F3664"/>
<path d="M110.473 4.56013C112.415 4.49837 114.331 5.04487 115.999 6.13466C117.389 7.12454 118.081 8.21594 118.081 9.39677C118.106 9.80174 118.057 10.2078 117.937 10.5916C117.817 10.9756 117.629 11.3298 117.383 11.6335C117.159 11.8903 116.888 12.093 116.587 12.2287C116.287 12.3643 115.964 12.4298 115.639 12.4207C115.183 12.3978 114.744 12.2185 114.386 11.9077C113.95 11.568 113.536 11.2159 113.127 10.8461C112.371 10.1087 111.413 9.66613 110.402 9.58771C109.689 9.56059 108.989 9.81222 108.429 10.2975C108.189 10.4866 107.993 10.7347 107.856 11.0212C107.719 11.3081 107.644 11.6258 107.639 11.9496C107.639 13.1423 108.609 13.9775 110.555 14.5022C113.585 15.3133 115.716 16.2916 116.969 17.4125C118.477 18.7486 119.232 20.6352 119.236 23.0728C119.261 24.2136 119.06 25.3472 118.647 26.3954C118.235 27.4432 117.619 28.381 116.844 29.144C115.174 30.7846 112.987 31.6507 110.745 31.5596C108.403 31.6453 106.096 30.921 104.151 29.4899C102.516 28.2376 101.666 26.8062 101.666 25.2078C101.657 24.4467 101.921 23.7122 102.402 23.1622C102.63 22.8846 102.911 22.6638 103.224 22.5148C103.537 22.3654 103.875 22.2913 104.217 22.2972C105.078 22.2972 106.035 22.8083 107.089 23.8301C108.479 25.1721 109.71 25.8341 110.789 25.8341C111.56 25.8701 112.313 25.5747 112.887 25.011C113.154 24.7413 113.364 24.4124 113.504 24.0458C113.644 23.6795 113.711 23.2847 113.699 22.8878C113.699 21.9454 113.203 21.2238 112.222 20.7289C111.013 20.2068 109.778 19.7608 108.522 19.3928C106.371 18.6852 104.827 17.8897 103.89 17.007C103.319 16.4216 102.873 15.7064 102.582 14.912C102.291 14.1179 102.163 13.2634 102.206 12.4089C102.175 11.3341 102.366 10.2655 102.764 9.28263C103.162 8.29973 103.757 7.42747 104.506 6.73084C106.039 5.28361 108.028 4.56013 110.473 4.56013Z" fill="#1F3664"/>
<path d="M130.995 8.06095V15.0688H139.868V8.06095C139.843 7.61569 139.901 7.16989 140.039 6.74987C140.175 6.32986 140.388 5.94422 140.662 5.61578C140.919 5.32547 141.23 5.09693 141.572 4.94493C141.915 4.79293 142.283 4.72069 142.652 4.73304C143.017 4.72123 143.382 4.79374 143.721 4.94574C144.061 5.09774 144.367 5.32601 144.619 5.61578C145.164 6.2885 145.441 7.16989 145.393 8.06686V28.0407C145.417 28.49 145.359 28.9399 145.223 29.3644C145.088 29.7893 144.876 30.1806 144.602 30.516C144.352 30.8041 144.049 31.0316 143.713 31.1836C143.377 31.3359 143.016 31.4089 142.652 31.3985C142.285 31.406 141.918 31.3297 141.579 31.1748C141.24 31.0198 140.934 30.7894 140.679 30.498C140.399 30.1645 140.184 29.7732 140.044 29.3473C139.905 28.9211 139.845 28.4688 139.868 28.0168V20.5736H130.995V28.0348C131.019 28.4855 130.961 28.9366 130.824 29.3626C130.688 29.7885 130.475 30.1803 130.199 30.516C129.949 30.8041 129.645 31.0316 129.309 31.1836C128.973 31.3359 128.612 31.4089 128.248 31.3985C127.882 31.4087 127.517 31.3353 127.177 31.1836C126.838 31.0313 126.531 30.8041 126.275 30.516C125.995 30.1843 125.778 29.7944 125.639 29.369C125.499 28.9436 125.44 28.4919 125.463 28.0407V8.06686C125.441 7.61945 125.501 7.17177 125.641 6.75068C125.781 6.32932 125.996 5.94341 126.275 5.61578C126.532 5.32601 126.841 5.09801 127.182 4.94628C127.524 4.79427 127.891 4.7215 128.259 4.73304C128.613 4.72123 128.965 4.7881 129.295 4.92963C129.625 5.07115 129.925 5.28412 130.177 5.55589C130.459 5.89319 130.676 6.28823 130.817 6.71845C130.957 7.14841 131.018 7.60495 130.995 8.06095Z" fill="#1F3664"/>
<path d="M170.07 10.3515L163.246 17.6814L171.11 25.6196C172.135 26.6693 172.653 27.6235 172.653 28.4885C172.662 28.8809 172.595 29.2711 172.456 29.6331C172.317 29.9951 172.109 30.3203 171.846 30.5878C171.583 30.8596 171.273 31.0712 170.935 31.2106C170.596 31.3497 170.235 31.4139 169.873 31.3988C169.147 31.3988 168.311 30.9138 167.367 29.9435L158.254 20.5324V28.0349C158.277 28.4856 158.218 28.9365 158.082 29.3621C157.945 29.788 157.734 30.1801 157.46 30.5161C157.208 30.8045 156.905 31.032 156.569 31.184C156.232 31.3362 155.872 31.4093 155.508 31.3988C155.139 31.4098 154.773 31.337 154.432 31.185C154.09 31.0333 153.781 30.8056 153.524 30.5161C153.245 30.1828 153.028 29.7915 152.889 29.3653C152.75 28.9394 152.689 28.4872 152.712 28.0349V8.0315C152.673 7.116 152.965 6.22092 153.524 5.53852C153.777 5.23855 154.084 5.00088 154.428 4.84136C154.771 4.68211 155.14 4.6045 155.514 4.6139C155.87 4.60423 156.224 4.6762 156.553 4.82498C156.883 4.97403 157.179 5.19666 157.426 5.47891C157.997 6.17876 158.296 7.09425 158.26 8.0315V14.9497L166.243 6.1468C167.149 5.15664 168.015 4.6139 168.784 4.6139C169.143 4.60691 169.499 4.67996 169.831 4.82874C170.165 4.97752 170.466 5.19854 170.718 5.47891C170.971 5.74665 171.17 6.06757 171.305 6.42233C171.442 6.77682 171.511 7.1579 171.508 7.54246C171.508 8.39727 171.028 9.33371 170.07 10.3515Z" fill="#1F3664"/>
<path d="M177.669 28.0413V8.06746C177.644 7.62139 177.702 7.17425 177.838 6.75316C177.975 6.33207 178.187 5.94536 178.465 5.61611C178.983 5.06101 179.679 4.74546 180.405 4.73418C181.13 4.72317 181.833 5.01751 182.366 5.55649C182.935 6.24023 183.234 7.14337 183.195 8.06746V28.0413C183.244 28.9474 182.961 29.838 182.411 30.5163C182.158 30.8061 181.853 31.0346 181.515 31.1869C181.176 31.3389 180.813 31.4111 180.448 31.3991C180.081 31.406 179.716 31.3295 179.379 31.1745C179.04 31.0196 178.733 30.7894 178.481 30.4986C178.202 30.1691 177.986 29.7821 177.847 29.3599C177.708 28.938 177.647 28.4896 177.669 28.0413Z" fill="#1F3664"/>
<path d="M48.8892 31.1779C48.5263 31.1787 48.1667 31.1011 47.8311 30.9494C47.4957 30.7976 47.1907 30.5753 46.934 30.2941C46.6772 30.0132 46.4738 29.6797 46.3353 29.3123C46.1967 28.9452 46.1255 28.5515 46.1262 28.1543V7.98972C46.1262 7.18756 46.4174 6.41842 46.9355 5.85151C47.4539 5.28432 48.1565 4.96582 48.8892 4.96582C49.6222 4.96582 50.3248 5.28432 50.8432 5.85151C51.3613 6.41842 51.6522 7.18756 51.6522 7.98972V28.1543C51.653 28.5515 51.582 28.9452 51.4434 29.3123C51.3049 29.6797 51.1015 30.0132 50.8447 30.2941C50.588 30.5753 50.2832 30.7976 49.9476 30.9494C49.612 31.1011 49.2524 31.1787 48.8892 31.1779Z" fill="#1F3664"/>
<path d="M74.3637 40.8162C73.6483 40.8165 72.9605 40.513 72.4454 39.9695L53.4149 19.8822C52.8904 19.3266 52.5874 18.5669 52.5721 17.7685C52.5571 16.9698 52.8304 16.1969 53.3332 15.6179L62.6795 4.8825C63.1935 4.3419 63.8785 4.03924 64.5916 4.03736C65.3044 4.03575 65.9905 4.33519 66.5068 4.8731C67.0231 5.41128 67.3299 6.14657 67.363 6.92618C67.3962 7.70552 67.1535 8.46902 66.6849 9.05742L59.2461 17.6159L76.3038 35.6154C76.7007 36.0343 76.974 36.5733 77.0886 37.1636C77.2032 37.7536 77.154 38.3678 76.9472 38.9272C76.7403 39.4863 76.3853 39.9652 75.9279 40.3019C75.4706 40.6384 74.9313 40.8175 74.38 40.8162H74.3637Z" fill="#00E6B2"/>
<path d="M32.9499 7.7073L18.8893 23.3768C18.5159 23.7896 18.0056 24.0278 17.4694 24.0391C16.9333 24.0509 16.4145 23.835 16.0259 23.4386L8.8119 16.055C8.59463 15.8659 8.41613 15.6307 8.28755 15.364C8.15897 15.0976 8.08312 14.8051 8.06472 14.5057C8.04632 14.2063 8.08578 13.9058 8.18064 13.6235C8.27548 13.341 8.42366 13.0826 8.61591 12.8646C8.80817 12.6468 9.04032 12.4736 9.29783 12.3562C9.55535 12.2389 9.83267 12.18 10.1124 12.183C10.3922 12.186 10.6683 12.2512 10.9236 12.3739C11.1788 12.4969 11.4076 12.675 11.5957 12.8973L17.3492 18.7709L30.1441 4.57356C26.5358 1.34555 21.9124 -0.277045 17.2236 0.0387732C12.5349 0.35486 8.13705 2.58546 4.93381 6.27269C1.73054 9.95965 -0.0348022 14.8229 0.000520008 19.8631C0.0358422 24.9033 1.86915 29.7378 5.12371 33.3726C8.37828 37.0077 12.8069 39.1672 17.4996 39.4075C22.1922 39.6476 26.7923 37.9506 30.3549 34.6649C33.9172 31.3792 36.1716 26.7539 36.6542 21.7403C37.1368 16.7266 35.8112 11.705 32.9499 7.7073ZM24.4304 29.0983H10.9053C10.3665 29.0983 9.84982 28.869 9.46883 28.46C9.08786 28.0512 8.87384 27.497 8.87384 26.919C8.87384 26.3408 9.08786 25.7865 9.46883 25.3778C9.84982 24.9691 10.3665 24.7395 10.9053 24.7395H24.4304C24.9691 24.7395 25.4858 24.9691 25.8669 25.3778C26.2477 25.7865 26.4618 26.3408 26.4618 26.919C26.4618 27.497 26.2477 28.0512 25.8669 28.46C25.4858 28.869 24.9691 29.0983 24.4304 29.0983Z" fill="#00E6B2"/>
</svg>
