<?xml version="1.0" encoding="utf-8"?>
<!-- Generator: Adobe Illustrator 25.2.1, SVG Export Plug-In . SVG Version: 6.00 Build 0)  -->
<svg version="1.1" id="Capa_1" xmlns="http://www.w3.org/2000/svg" xmlns:xlink="http://www.w3.org/1999/xlink" x="0px" y="0px"
	 viewBox="0 0 526.9 119.2" style="enable-background:new 0 0 526.9 119.2;" xml:space="preserve">
<style type="text/css">
	.st0{fill-rule:evenodd;clip-rule:evenodd;fill:#201751;}
	.st1{fill-rule:evenodd;clip-rule:evenodd;fill:#FFFFFF;}
	.st2{fill-rule:evenodd;clip-rule:evenodd;fill:#FF5100;}
	.st3{fill:#FFFFFF;}
	.st4{fill:#201751;}
</style>
<g>
	<polygon class="st0" points="262.6,7.4 519.8,7.4 519.7,82.6 262.6,82.6 	"/>
	<path class="st1" d="M297,40.1v-7.5h-1.2c-0.3,0.8-0.8,1.2-1.4,1.2c-1.7,0-2.4-1.2-4.9-1.2c-4,0-7.4,3.2-7.4,7
		c0,8.2,12.9,6.4,12.9,13.1c0,2.4-1.9,4.2-4.2,4.2c-3,0-6.8-2-7.8-7h-1.2v8.3h1.2c0.1-0.9,0.7-1.6,1.6-1.6c1.2,0,3.5,1.8,6.2,1.8
		c4.2,0,7.7-3.4,7.7-7.5c0-9-12.7-7.4-12.7-13.6c0-2,1.6-3.3,4-3.3c2.9,0,5.5,2.1,6,6.1C295.6,40.1,297,40.1,297,40.1z"/>
	<path class="st1" d="M324.6,42.7c0.3-5.6-4.9-10.1-10.5-10.1c-6.9,0-12.2,5.8-12.2,13.1s5.5,12.6,13.1,12.6c4.2,0,7.1-1.4,10-5.2
		v-1.8c-3.5,3.9-5.2,5.1-8.5,5.1c-3.3,0-9.8-2.7-9.6-13.6L324.6,42.7L324.6,42.7z M306.8,41.6c0.3-4.5,2.7-7.5,6.7-7.5
		c3.1,0,6.7,2.2,6.5,7.5H306.8z"/>
	<path class="st1" d="M350.3,32.6h-1.2c-0.4,0.9-1,1.4-1.6,1.4c-1.2,0-3.2-1.4-6.8-1.4c-6.9,0-12.5,6-12.5,13.4
		c0,7.3,5,12.3,12.2,12.3c4.4,0,8.1-1.8,10.7-5.3v-1.8c-2.5,3.5-6.1,5.1-9,5.1c-4.9,0-9.1-5.5-9.1-12.2c0-6,3.4-10.1,8.1-10.1
		c4,0,7.1,2.8,8.1,7.2h1.2V32.6z"/>
	<path class="st1" d="M378.7,32.6h-1.2l-8.2,0.8v1.2c4.2,0.1,4.7,0.5,4.7,3.8v13.1c-2,2.7-4.1,4-6.4,4c-3.3,0-5.5-2-5.5-5.5V32.6
		h-1.2l-7.8,0.8v1.2c3.5,0,4.3,0.9,4.3,3.2v12.4c0,4.5,3.2,8.1,8,8.1c3.3,0,6.1-1.6,8.5-4.7h0.1v4h8.8v-1.2c-3.3,0-4.2-0.8-4.2-3.4
		L378.7,32.6L378.7,32.6z"/>
	<path class="st1" d="M394.9,39.1c2.2-2.1,3.6-2.9,5.1-2.9c1.6,0,3.8,1,5.8,2.1l1.9-4.3c-1.2-1.1-3.1-1.9-4.5-1.9
		c-1.6,0-3.8,1.4-8.3,5.3V32h-1.2l-8.5,0.8v1.2c4.1,0,5,0.4,5,4v13.8c0,3.7-0.4,4.7-4.1,4.7v1.2h12.8v-1.2c-3.2,0-4-0.8-4-3.4V39.1z
		"/>
	<path class="st1" d="M419.3,32.1h-1.1l-8.1,0.7V34c3.6,0,4.6,0.5,4.6,3.8v14.8c0,2.9-0.9,3.7-4.6,3.7v1.2h13.3v-1.2
		c-3.4,0-4-1.3-4-3.7L419.3,32.1L419.3,32.1z M417.1,23c-1.6,0-3,1.3-3,3c0,1.6,1.4,3,3,3c1.6,0,3-1.4,3-3
		C420,24.3,418.7,23,417.1,23"/>
	<path class="st1" d="M453,38.3c-0.9-2.1-0.3-3.3,1.5-3.6v-1.8h-11.7v1.8c2.8,0.1,3.9,0.8,5.2,3.6l8.5,19.7l-1.6,4.2
		c-1.5,4.3-3.2,6-6.2,6c-0.8,0-1.4-0.1-2.3-0.6l-1.6,4.2c1.2,0.8,2,1,3,1c2.9,0,6.1-3.2,8-8.9l8.1-24.1c1.4-4,2.9-5.7,5.5-5.7v-1.3
		H461v1.3c2.7,0.1,2.9,1.7,1.9,4.6l-4.2,12.8L453,38.3z"/>
	<path class="st1" d="M434.4,24.7h-1.2c-2,4.2-4.8,7.1-8.1,8.8v1.2h4.6v16.3c0,4.2,2.9,7.1,7,7.1c2.8,0,5.2-1.4,7.4-4l-0.8-0.9
		c-1.4,1.7-2.7,2.3-4.5,2.3c-2.7,0-4.4-1.7-4.4-5.1V34.7h8.5v-1.8h-8.5V24.7z"/>
	<rect x="7.1" y="7.4" class="st2" width="256.7" height="75.2"/>
	<g>
		<path class="st3" d="M80.7,32.2h6c2.3,0,4.1,0.3,5.6,1.1c2.6,1.3,4,3.7,4,7.1c0,2.9-1.2,5.8-4.8,7.3c-1.4,0.5-3.1,0.9-5.3,0.9
			h-1.1v8.6h-4.5L80.7,32.2L80.7,32.2z M86.6,44.8c1.2,0,2.2-0.2,2.9-0.6c1.4-0.7,2.1-2,2.1-3.9c0-1.6-0.6-3-2-3.8
			c-0.7-0.4-1.7-0.7-3.1-0.7h-1.3v8.9C85.3,44.8,86.6,44.8,86.6,44.8z"/>
		<path class="st3" d="M99.6,32.2h6.8c2.3,0,4,0.4,5.3,1c2.7,1.2,3.7,3.5,3.7,6.1c0,3.3-2,5.5-4.9,6.4v0.1c0.8,0.4,1.8,1.8,3.1,4
			l4.1,7.2h-5.2l-3.6-6.3c-1.2-2.2-2.1-3.2-2.7-3.4h-2.1v9.7h-4.5L99.6,32.2L99.6,32.2z M106.1,43.7c1.2,0,2-0.2,2.8-0.6
			c1.1-0.6,1.7-1.7,1.7-3.3c0-1.3-0.6-2.5-1.7-3.1c-0.6-0.4-1.4-0.7-2.8-0.7h-2.1v7.8C104.1,43.7,106.1,43.7,106.1,43.7z"/>
		<path class="st3" d="M119,44.7c0-7.5,5.2-12.8,12.5-12.8c7.4,0,12.5,5.2,12.5,12.8c0,7.6-5.3,12.7-12.5,12.7
			C124.2,57.4,119,52.3,119,44.7z M139.2,44.7c0-5.5-3-9-7.7-9c-4.6,0-7.7,3.3-7.7,9c0,5.6,3.1,8.9,7.7,8.9
			C136.1,53.6,139.2,50.3,139.2,44.7z"/>
		<path class="st3" d="M152,36h-7.2v-3.8h19.7l-1.3,3.8h-6.6v21H152V36z"/>
		<path class="st3" d="M165.8,32.2h13.7l-1.2,3.8h-8v6.5h8v3.8h-8v6.8h9.2v3.8h-13.8L165.8,32.2L165.8,32.2z"/>
		<path class="st3" d="M202.4,55.5c-2.8,1.5-5.4,2-7.9,2c-8.1,0-12.6-5.2-12.6-12.5c0-7.2,5.1-13,13.1-13c2.7,0,5,0.5,6.5,1.2v4.2
			c-1.9-1-4-1.6-6.4-1.6c-5.5,0-8.4,4.2-8.4,9c0,5.2,3.2,8.8,8.3,8.8c2.4,0,4.3-0.7,6.1-1.7L202.4,55.5z"/>
		<path class="st3" d="M212,36h-7.2v-3.8h19.7l-1.3,3.8h-6.6v21H212L212,36L212,36z"/>
	</g>
	<path class="st3" d="M230.1,31.9h3.6L243.9,57h-4.9L232,38.3l-4.4,12.4l-2.4,6.3h-4.8L230.1,31.9z"/>
	<path class="st4" d="M277.1,110.2c-1.8,1-3.4,1.2-5,1.2c-5.2,0-8-3.3-8-7.9c0-4.6,3.2-8.2,8.3-8.2c1.7,0,3.2,0.3,4.1,0.8v2.7
		c-1.2-0.6-2.5-1-4.1-1c-3.5,0-5.3,2.6-5.3,5.7c0,3.3,2,5.6,5.2,5.6c1.6,0,2.8-0.4,3.9-1.1L277.1,110.2z"/>
	<path class="st4" d="M278.8,103.4c0-4.8,3.3-8.1,8-8.1c4.7,0,7.9,3.3,7.9,8.1c0,4.8-3.4,8.1-7.9,8.1
		C282.1,111.5,278.8,108.2,278.8,103.4 M291.6,103.4c0-3.5-1.9-5.7-4.9-5.7c-2.9,0-4.9,2.1-4.9,5.7c0,3.6,2,5.7,4.9,5.7
		C289.6,109.1,291.6,107,291.6,103.4"/>
	<path class="st4" d="M297.4,95.5h2.6l4.1,6c0.5,0.8,1,1.4,1.3,2h0c0.3-0.6,0.7-1.3,1.3-2.1l3.8-5.9h2.6v15.8h-2.9v-8.9
		c0-0.6,0-1.5,0-2.1h0c-0.2,0.4-0.8,1.3-1.1,1.8l-3.1,4.8h-1.3l-3.5-5c-0.3-0.5-0.8-1-1.1-1.6h0c0,0.6,0,1.4,0,2v9h-2.9L297.4,95.5
		L297.4,95.5z"/>
	<path class="st4" d="M316.7,95.5h3.8c1.5,0,2.6,0.2,3.5,0.7c1.6,0.8,2.6,2.3,2.6,4.5c0,1.8-0.8,3.7-3,4.6c-0.9,0.3-1.9,0.6-3.4,0.6
		h-0.7v5.4h-2.9L316.7,95.5L316.7,95.5z M320.4,103.5c0.8,0,1.4-0.1,1.8-0.4c0.9-0.4,1.3-1.3,1.3-2.5c0-1-0.4-1.9-1.2-2.4
		c-0.5-0.3-1.1-0.4-2-0.4h-0.8v5.7L320.4,103.5L320.4,103.5z"/>
	<path class="st4" d="M333.7,95.4h2.3l6.3,15.8h-3.1l-1.5-3.9h-5.6l-1.5,3.9h-3L333.7,95.4z M336.9,104.9l-1.1-3.1
		c-0.4-1.2-0.6-1.9-0.8-2.4h0c-0.1,0.6-0.4,1.2-0.8,2.5l-1.1,3.1H336.9z"/>
	<path class="st4" d="M355.6,111.2l-6.8-9c-0.7-0.9-1.2-1.7-1.8-2.4h0c0,0.6,0,1.5,0,2.4v8.9h-2.9V95.5h2.8l6.6,8.6
		c0.7,0.9,1.3,1.7,1.7,2.4h0c0-0.8,0-1.8,0-2.7v-8.4h2.9v15.8C358.2,111.2,355.6,111.2,355.6,111.2z M347.4,93.1c0-1.3,0.8-2,2-2
		c1.4,0,2.4,1.1,3.1,1.1c0.5,0,0.5-0.3,0.5-0.9h1.9v1c0,1.3-0.9,2-2,2c-1.4,0-2.4-1-3.1-1c-0.5,0-0.5,0.3-0.5,0.9h-1.9V93.1z"/>
	<path class="st4" d="M362.9,91.1h3.1l-2.3,3.5h-2.2L362.9,91.1z M361.6,95.5h2.9v15.8h-2.9V95.5z"/>
	<path class="st4" d="M372.3,95.4h2.3l6.3,15.8h-3.1l-1.5-3.9h-5.6l-1.5,3.9h-3L372.3,95.4z M375.5,104.9l-1.1-3.1
		c-0.4-1.2-0.6-1.9-0.8-2.4h0c-0.1,0.6-0.4,1.2-0.8,2.5l-1.1,3.1H375.5z"/>
	<path class="st4" d="M387.5,95.5h4.9c5.6,0,8.6,3.1,8.6,7.8c0,4.8-3.4,8-8.9,8h-4.6L387.5,95.5L387.5,95.5z M392.2,108.8
		c4.2,0,5.8-2.5,5.8-5.5c0-3.3-1.9-5.4-5.8-5.4h-1.8v10.9L392.2,108.8L392.2,108.8z"/>
	<polygon class="st4" points="405,95.5 413.7,95.5 412.9,97.9 407.8,97.9 407.8,102 412.9,102 412.9,104.5 407.8,104.5 407.8,108.8 
		413.7,108.8 413.7,111.2 405,111.2 	"/>
	<path class="st4" d="M421.7,107.9c0.9,0.7,2.1,1.2,3.6,1.2c1.3,0,2.6-0.5,2.6-1.9c0-3.1-6.8-2.7-6.8-7.5c0-2.3,1.9-4.4,5.1-4.4
		c1.6,0,3,0.4,3.9,0.8v2.6c-1.2-0.6-2.5-1-3.8-1c-1.1,0-2.1,0.4-2.1,1.7c0,2.9,6.8,2.5,6.8,7.5c0,2.8-2.4,4.5-5.6,4.5
		c-1.8,0-3.6-0.5-4.8-1.4L421.7,107.9z"/>
	<polygon class="st4" points="433.8,95.5 442.5,95.5 441.7,97.9 436.6,97.9 436.6,102 441.7,102 441.7,104.5 436.6,104.5 
		436.6,108.8 442.5,108.8 442.5,111.2 433.8,111.2 	"/>
	<path class="st4" d="M458.7,110.2c-1.4,0.7-3.5,1.3-5.7,1.3c-5.2,0-8.2-3.3-8.2-7.8c0-4.8,3.4-8.3,8.7-8.3c1.8,0,3.4,0.4,4.6,0.8
		v2.7c-1.2-0.6-2.7-1.1-4.4-1.1c-3.8,0-5.8,2.3-5.8,5.7c0,3.4,2,5.6,5.4,5.6c1.1,0,2-0.2,2.6-0.5v-5h2.9L458.7,110.2L458.7,110.2z"
		/>
	<path class="st4" d="M462.4,108.4c-0.4-0.8-0.6-1.9-0.6-3.1v-9.9h2.9v9.7c0,0.8,0.1,1.6,0.4,2.1c0.5,1.1,1.6,1.8,3.2,1.8
		c1.6,0,2.7-0.7,3.2-1.8c0.3-0.6,0.4-1.3,0.4-2.2v-9.7h2.9v9.9c0,1.2-0.2,2.3-0.6,3.1c-1,2-3,3-5.9,3
		C465.4,111.5,463.4,110.5,462.4,108.4"/>
	<path class="st4" d="M478.2,95.5h4.3c1.5,0,2.5,0.2,3.4,0.6c1.7,0.8,2.3,2.2,2.3,3.9c0,2.1-1.3,3.5-3.1,4.1v0.1
		c0.5,0.3,1.1,1.1,2,2.6l2.6,4.6h-3.3l-2.3-4c-0.8-1.4-1.3-2.1-1.7-2.2h-1.4v6.2h-2.9L478.2,95.5L478.2,95.5z M482.4,102.7
		c0.7,0,1.3-0.2,1.8-0.4c0.7-0.4,1.1-1.1,1.1-2.1c0-0.8-0.4-1.6-1-2c-0.4-0.3-0.9-0.5-1.8-0.5h-1.3v4.9L482.4,102.7L482.4,102.7z"/>
	<path class="st4" d="M491.2,103.4c0-4.8,3.3-8.1,8-8.1s8,3.3,8,8.1c0,4.8-3.4,8.1-8,8.1C494.5,111.5,491.2,108.2,491.2,103.4
		 M504.1,103.4c0-3.5-1.9-5.7-4.9-5.7c-2.9,0-4.9,2.1-4.9,5.7c0,3.6,2,5.7,4.9,5.7C502.1,109.1,504.1,107,504.1,103.4"/>
	<path class="st4" d="M510.3,107.9c0.9,0.7,2.1,1.2,3.6,1.2c1.3,0,2.6-0.5,2.6-1.9c0-3.1-6.8-2.7-6.8-7.5c0-2.3,1.8-4.4,5.1-4.4
		c1.6,0,3,0.4,3.9,0.8v2.6c-1.2-0.6-2.5-1-3.8-1c-1.1,0-2.2,0.4-2.2,1.7c0,2.9,6.8,2.5,6.8,7.5c0,2.8-2.4,4.5-5.6,4.5
		c-1.8,0-3.6-0.5-4.8-1.4L510.3,107.9z"/>
</g>
</svg>
