<svg width="128" height="16" viewBox="0 0 128 16" fill="none" xmlns="http://www.w3.org/2000/svg">
<path d="M0.146973 10.2803V4.91812H2.55778C2.80427 4.91812 3.02481 4.95921 3.2194 5.04137C3.41832 5.11812 3.58697 5.23056 3.72643 5.37975C3.86481 5.52245 3.96968 5.6965 4.03995 5.90191C4.11238 6.10731 4.14805 6.33218 4.14805 6.57758C4.14805 6.82839 4.11238 7.0565 4.03995 7.26083C3.97234 7.45485 3.86563 7.63294 3.72643 7.78407C3.58256 7.93086 3.40945 8.04577 3.21832 8.12137C3.02373 8.19812 2.80427 8.23704 2.55886 8.23704H1.16103V10.2803H0.146973ZM1.16103 7.36137H2.46589C2.63371 7.3709 2.79883 7.31598 2.92751 7.20785C3.03995 7.09975 3.09616 6.9484 3.09616 6.7538V6.40137C3.09616 6.20677 3.03995 6.05758 2.92751 5.95596C2.79899 5.84744 2.63385 5.79214 2.46589 5.80137H1.16103V7.36137ZM7.17184 10.3722C6.81832 10.3722 6.49832 10.3127 6.21184 10.196C5.92768 10.0801 5.67502 9.89856 5.47454 9.66623C5.26359 9.40962 5.1046 9.1144 5.00643 8.79704C4.88701 8.40922 4.82972 8.00494 4.8367 7.59921C4.8367 7.14839 4.89292 6.75164 5.00643 6.40894C5.10361 6.0892 5.26266 5.79168 5.47454 5.53326C5.67995 5.29758 5.92535 5.12029 6.21184 5.00353C6.49832 4.88461 6.81832 4.82623 7.17184 4.82623C7.52535 4.82623 7.84535 4.88569 8.13184 5.00245C8.4194 5.12137 8.66481 5.29758 8.86913 5.53218C9.07454 5.76894 9.23022 6.06083 9.33832 6.40785C9.45076 6.75164 9.50697 7.14839 9.50697 7.59921C9.50697 8.05542 9.45076 8.45434 9.33832 8.79704C9.23022 9.14083 9.07454 9.42948 8.86913 9.66515C8.66373 9.90083 8.4194 10.0781 8.13184 10.1949C7.82655 10.3163 7.50037 10.3766 7.17184 10.3722ZM7.17184 9.4738C7.55562 9.4738 7.86049 9.34515 8.08643 9.08894C8.3167 8.8338 8.43238 8.47488 8.43238 8.01434V7.18299C8.43238 6.72245 8.3167 6.36353 8.08643 6.10839C7.86049 5.85218 7.5567 5.72353 7.17184 5.72353C6.78805 5.72353 6.47995 5.85218 6.25076 6.10839C6.02481 6.36353 5.91238 6.72245 5.91238 7.18299V8.01326C5.91238 8.4738 6.02481 8.83272 6.25076 9.08785C6.48103 9.34407 6.78805 9.47272 7.17184 9.47272V9.4738ZM11.2302 10.2803L9.98589 4.91812H10.9999L11.5297 7.4911L11.8594 9.13542H11.8832L12.267 7.49218L12.881 4.91921H14.0032L14.6172 7.49218L14.9935 9.13542H15.0162L15.3545 7.49218L15.9005 4.91921H16.8681L15.5848 10.2803H14.441L13.7567 7.44569L13.427 6.03272H13.4118L13.0659 7.44569L12.3816 10.2803H11.2302ZM17.7059 10.2803V4.91812H21.241V5.81758H18.721V7.11488H20.9481V8.01434H18.721V9.38083H21.2399V10.2803H17.707H17.7059ZM23.3264 10.2803H22.3124V4.91812H24.7318C24.9783 4.91812 25.1978 4.95704 25.3924 5.0338C25.587 5.11056 25.7513 5.22299 25.8843 5.37218C26.0226 5.51488 26.1275 5.68894 26.1989 5.89434C26.2756 6.09975 26.3145 6.32677 26.3145 6.57758C26.3145 6.94623 26.2302 7.26407 26.0605 7.53002C25.8885 7.8028 25.6241 8.00464 25.3156 8.09867L26.414 10.2803H25.2853L24.2864 8.21326H23.3264V10.2803ZM24.6324 7.36137C24.7998 7.37062 24.9645 7.31572 25.0929 7.20785C25.2053 7.09975 25.2626 6.9484 25.2626 6.7538V6.40137C25.2626 6.20677 25.2053 6.05758 25.0929 5.95596C24.9647 5.8477 24.8 5.79242 24.6324 5.80137H23.3264V7.36137H24.6324ZM27.4129 10.2803V4.91812H30.947V5.81758H28.4281V7.11488H30.6551V8.01434H28.4281V9.38083H30.947V10.2803H27.4129ZM32.0183 4.91812H33.9697C34.3178 4.91812 34.6335 4.97434 34.9145 5.08785C35.201 5.20029 35.4443 5.36894 35.6443 5.59488C35.8497 5.81434 36.0053 6.09326 36.1135 6.43164C36.2259 6.76461 36.2821 7.1538 36.2821 7.59921C36.2821 8.04461 36.2259 8.43596 36.1135 8.77434C36.0053 9.10731 35.8497 9.38623 35.6443 9.61218C35.4453 9.83164 35.201 9.99812 34.9145 10.1106C34.6335 10.2241 34.3178 10.2803 33.9697 10.2803H32.0194L32.0183 4.91812ZM33.9697 9.38083C34.3481 9.38083 34.6486 9.27164 34.8691 9.0511C35.094 8.82515 35.2064 8.48245 35.2064 8.02191V7.1765C35.2064 6.71596 35.094 6.37542 34.8691 6.15488C34.6486 5.93002 34.3491 5.81758 33.9697 5.81758H33.0324V9.38083H33.9697ZM39.1297 4.91812H41.6108C41.8313 4.91812 42.0281 4.95164 42.2021 5.01867C42.3816 5.08461 42.5329 5.17758 42.6562 5.29434C42.7783 5.41326 42.8713 5.55812 42.9318 5.73218C42.9989 5.90191 43.0324 6.08894 43.0324 6.29434C43.0324 6.49867 43.0043 6.67272 42.9481 6.81542C42.8841 6.99746 42.7659 7.15551 42.6093 7.26822C42.4527 7.38092 42.2653 7.44287 42.0724 7.44569V7.49218C42.1902 7.49218 42.3156 7.5138 42.4486 7.56029C42.5883 7.60758 42.7165 7.68384 42.8248 7.78407C42.9426 7.88137 43.0399 8.00893 43.1167 8.16785C43.1935 8.32137 43.2324 8.5138 43.2324 8.74407C43.2324 8.95921 43.1956 9.16137 43.1243 9.35056C43.0583 9.53434 42.9621 9.6965 42.8399 9.83488C42.7167 9.97218 42.5718 10.0835 42.4021 10.1646C42.2284 10.2425 42.04 10.282 41.8497 10.2803H39.1297V4.91812ZM40.1437 9.41975H41.5578C41.7524 9.41975 41.9037 9.3711 42.0108 9.2738C42.1189 9.1711 42.1718 9.02515 42.1718 8.83596V8.57434C42.1718 8.38515 42.1178 8.23921 42.0097 8.1365C41.9026 8.03488 41.7524 7.98299 41.5578 7.98299H40.1437V9.42083V9.41975ZM40.1437 7.1538H41.3956C41.5794 7.1538 41.7243 7.10515 41.8259 7.00785C41.8786 6.95159 41.9194 6.88522 41.9458 6.81276C41.9722 6.7403 41.9836 6.66324 41.9794 6.58623V6.34731C41.9794 6.16785 41.9286 6.02948 41.8259 5.93218C41.7243 5.82948 41.5805 5.77866 41.3956 5.77866H40.1437V7.1538ZM45.2064 10.2803V8.17542L43.3708 4.91812H44.507L45.7437 7.18407H45.7589L46.9653 4.91812H48.0713L46.2281 8.16785V10.2803H45.2064Z" fill="#184661"/>
<path d="M93.3368 3.25275V7.73885C93.3499 8.27595 93.2554 8.81015 93.059 9.30725C92.8627 9.80435 92.5689 10.2535 92.1965 10.6259C91.8584 10.9834 91.4543 11.2661 91.0085 11.4569C90.5626 11.6478 90.0842 11.7428 89.6021 11.7363C89.0888 11.7507 88.5779 11.6563 88.1007 11.4589C87.6235 11.2615 87.1899 10.9653 86.8262 10.5882C86.4636 10.2277 86.1767 9.79285 85.9838 9.31115C85.7908 8.82955 85.696 8.31155 85.7051 7.78985V3.00395C85.696 2.83795 85.7189 2.67165 85.7724 2.51485C85.826 2.35815 85.9091 2.21405 86.0169 2.09125C86.1179 1.98335 86.2393 1.89845 86.3735 1.84185C86.5076 1.78525 86.6516 1.75825 86.7963 1.76255C86.9347 1.75815 87.0725 1.78315 87.2013 1.83585C87.3301 1.88845 87.4473 1.96785 87.5458 2.06895C87.6573 2.19445 87.7435 2.34175 87.7996 2.50225C87.8557 2.66285 87.8805 2.83335 87.8725 3.00395V7.79435C87.8656 8.02755 87.9043 8.25965 87.9861 8.47685C88.068 8.69415 88.1913 8.89175 88.3487 9.05795C88.5071 9.22545 88.6974 9.35675 88.9073 9.44355C89.1172 9.53035 89.3422 9.57075 89.5679 9.56215C89.9696 9.56785 90.3573 9.40815 90.6463 9.11795C90.8195 8.93905 90.955 8.72465 91.0444 8.48845C91.1337 8.25215 91.1748 7.99915 91.1652 7.74545V3.00395C91.1555 2.83855 91.1773 2.67275 91.2293 2.51615C91.2813 2.35955 91.3626 2.21515 91.4684 2.09125C91.568 1.98325 91.6882 1.89825 91.8214 1.84165C91.9545 1.78505 92.0976 1.75805 92.2414 1.76255C92.4339 1.75075 92.6257 1.79685 92.7939 1.89525C92.9619 1.99375 93.0992 2.14035 93.1894 2.31775C93.3068 2.61355 93.3571 2.93345 93.3368 3.25275Z" fill="#1F3664"/>
<path d="M99.357 1.69804C100.118 1.67504 100.869 1.87854 101.522 2.28434C102.067 2.65294 102.338 3.05934 102.338 3.49904C102.348 3.64984 102.328 3.80104 102.282 3.94394C102.235 4.08694 102.161 4.21884 102.065 4.33194C101.977 4.42754 101.87 4.50304 101.753 4.55354C101.635 4.60404 101.509 4.62844 101.381 4.62504C101.202 4.61654 101.031 4.54974 100.89 4.43404C100.719 4.30754 100.557 4.17644 100.397 4.03874C100.101 3.76414 99.7251 3.59934 99.3292 3.57014C99.0496 3.56004 98.7756 3.65374 98.5562 3.83444C98.4622 3.90484 98.3852 3.99724 98.3315 4.10394C98.2778 4.21074 98.2487 4.32904 98.2466 4.44964C98.2466 4.89374 98.6267 5.20474 99.389 5.40014C100.576 5.70214 101.411 6.06644 101.902 6.48384C102.493 6.98134 102.789 7.68384 102.791 8.59154C102.801 9.01634 102.722 9.43844 102.56 9.82874C102.398 10.2189 102.157 10.5681 101.853 10.8522C101.199 11.4631 100.342 11.7856 99.4637 11.7517C98.546 11.7836 97.642 11.5139 96.88 10.981C96.2394 10.5147 95.9063 9.98174 95.9063 9.38654C95.9027 9.10314 96.0062 8.82964 96.1946 8.62484C96.2841 8.52144 96.3939 8.43924 96.5166 8.38374C96.6392 8.32814 96.7719 8.30054 96.9056 8.30274C97.243 8.30274 97.6181 8.49304 98.0309 8.87354C98.5755 9.37324 99.058 9.61974 99.4808 9.61974C99.7828 9.63314 100.078 9.52314 100.303 9.31324C100.407 9.21284 100.49 9.09034 100.545 8.95384C100.6 8.81744 100.626 8.67044 100.621 8.52264C100.621 8.17174 100.427 7.90304 100.042 7.71874C99.5686 7.52434 99.0845 7.35824 98.5925 7.22124C97.7498 6.95774 97.1448 6.66154 96.7775 6.33284C96.554 6.11484 96.3792 5.84854 96.2652 5.55274C96.1512 5.25704 96.1009 4.93884 96.1177 4.62064C96.1056 4.22044 96.1803 3.82254 96.3363 3.45654C96.4923 3.09054 96.7255 2.76574 97.0188 2.50634C97.6195 1.96744 98.3989 1.69804 99.357 1.69804Z" fill="#1F3664"/>
<path d="M107.398 3.00167V5.61117H110.874V3.00167C110.865 2.83587 110.887 2.66987 110.941 2.51347C110.995 2.35707 111.078 2.21347 111.186 2.09117C111.287 1.98307 111.408 1.89797 111.542 1.84137C111.677 1.78477 111.821 1.75787 111.966 1.76247C112.109 1.75807 112.252 1.78507 112.384 1.84167C112.517 1.89827 112.637 1.98327 112.736 2.09117C112.95 2.34167 113.058 2.66987 113.039 3.00387V10.4415C113.049 10.6088 113.026 10.7763 112.973 10.9344C112.92 11.0926 112.837 11.2383 112.73 11.3632C112.632 11.4705 112.513 11.5552 112.381 11.6118C112.249 11.6685 112.108 11.6957 111.966 11.6918C111.821 11.6946 111.678 11.6662 111.545 11.6085C111.412 11.5508 111.292 11.465 111.193 11.3565C111.083 11.2323 110.998 11.0866 110.944 10.928C110.889 10.7693 110.865 10.6009 110.874 10.4326V7.66097H107.398V10.4393C107.407 10.6071 107.385 10.7751 107.331 10.9337C107.278 11.0923 107.194 11.2382 107.086 11.3632C106.988 11.4705 106.869 11.5552 106.737 11.6118C106.606 11.6685 106.464 11.6957 106.322 11.6918C106.178 11.6956 106.035 11.6683 105.902 11.6118C105.769 11.5551 105.649 11.4705 105.549 11.3632C105.439 11.2397 105.354 11.0945 105.299 10.9361C105.245 10.7777 105.221 10.6095 105.231 10.4415V3.00387C105.222 2.83727 105.245 2.67057 105.3 2.51377C105.355 2.35687 105.439 2.21317 105.549 2.09117C105.649 1.98327 105.77 1.89837 105.904 1.84187C106.038 1.78527 106.182 1.75817 106.326 1.76247C106.465 1.75807 106.603 1.78297 106.732 1.83567C106.861 1.88837 106.979 1.96767 107.078 2.06887C107.188 2.19447 107.273 2.34157 107.328 2.50177C107.383 2.66187 107.407 2.83187 107.398 3.00167Z" fill="#1F3664"/>
<path d="M122.708 3.85459L120.035 6.58399L123.116 9.53989C123.517 9.93079 123.721 10.2861 123.721 10.6082C123.724 10.7543 123.698 10.8996 123.643 11.0344C123.589 11.1692 123.507 11.2903 123.404 11.3899C123.301 11.4911 123.18 11.5699 123.047 11.6218C122.914 11.6736 122.773 11.6975 122.631 11.6919C122.347 11.6919 122.019 11.5113 121.649 11.15L118.079 7.64559V10.4393C118.088 10.6071 118.065 10.775 118.011 10.9335C117.958 11.0921 117.875 11.2381 117.767 11.3632C117.669 11.4706 117.55 11.5553 117.418 11.6119C117.287 11.6686 117.145 11.6958 117.003 11.6919C116.858 11.696 116.715 11.6689 116.581 11.6123C116.447 11.5558 116.326 11.471 116.225 11.3632C116.116 11.2391 116.031 11.0934 115.976 10.9347C115.922 10.7761 115.898 10.6077 115.907 10.4393V2.99069C115.892 2.64979 116.006 2.31649 116.225 2.06239C116.324 1.95069 116.445 1.86219 116.579 1.80279C116.714 1.74349 116.859 1.71459 117.005 1.71809C117.145 1.71449 117.283 1.74129 117.412 1.79669C117.542 1.85219 117.658 1.93509 117.754 2.04019C117.978 2.30079 118.095 2.64169 118.081 2.99069V5.56679L121.209 2.28889C121.564 1.92019 121.903 1.71809 122.204 1.71809C122.345 1.71549 122.485 1.74269 122.615 1.79809C122.745 1.85349 122.864 1.93579 122.962 2.04019C123.061 2.13989 123.14 2.25939 123.192 2.39149C123.246 2.52349 123.273 2.66539 123.272 2.80859C123.272 3.12689 123.084 3.47559 122.708 3.85459Z" fill="#1F3664"/>
<path d="M125.686 10.4416V3.00401C125.676 2.83791 125.699 2.67141 125.752 2.51461C125.806 2.35781 125.889 2.21381 125.998 2.09121C126.201 1.88451 126.473 1.76701 126.758 1.76281C127.042 1.75871 127.317 1.86831 127.526 2.06901C127.749 2.32361 127.866 2.65991 127.851 3.00401V10.4416C127.87 10.779 127.759 11.1106 127.544 11.3632C127.445 11.4711 127.325 11.5562 127.193 11.6129C127.06 11.6695 126.918 11.6964 126.775 11.6919C126.631 11.6945 126.488 11.666 126.356 11.6083C126.223 11.5506 126.103 11.4649 126.004 11.3566C125.895 11.2339 125.81 11.0898 125.756 10.9326C125.701 10.7755 125.677 10.6085 125.686 10.4416Z" fill="#1F3664"/>
<path d="M75.2271 11.6096C75.0849 11.6099 74.944 11.581 74.8125 11.5245C74.6811 11.468 74.5616 11.3852 74.461 11.2805C74.3604 11.1759 74.2807 11.0517 74.2264 10.9149C74.1721 10.7782 74.1442 10.6316 74.1445 10.4837V2.97512C74.1445 2.67642 74.2586 2.39002 74.4616 2.17892C74.6647 1.96772 74.94 1.84912 75.2271 1.84912C75.5143 1.84912 75.7896 1.96772 75.9927 2.17892C76.1957 2.39002 76.3097 2.67642 76.3097 2.97512V10.4837C76.31 10.6316 76.2822 10.7782 76.2279 10.9149C76.1736 11.0517 76.0939 11.1759 75.9933 11.2805C75.8927 11.3852 75.7733 11.468 75.6418 11.5245C75.5103 11.581 75.3694 11.6099 75.2271 11.6096Z" fill="#1F3664"/>
<path d="M85.2086 15.1986C84.9283 15.1987 84.6588 15.0857 84.457 14.8833L77.0004 7.40352C76.7949 7.19662 76.6762 6.91372 76.6702 6.61642C76.6643 6.31902 76.7714 6.03122 76.9684 5.81562L80.6305 1.81812C80.8319 1.61682 81.1003 1.50412 81.3797 1.50342C81.659 1.50282 81.9278 1.61432 82.1301 1.81462C82.3324 2.01502 82.4526 2.28882 82.4656 2.57912C82.4786 2.86932 82.3835 3.15362 82.1999 3.37272L79.2852 6.55962L85.9688 13.262C86.1243 13.418 86.2314 13.6187 86.2763 13.8385C86.3212 14.0582 86.3019 14.2869 86.2209 14.4952C86.1398 14.7034 86.0007 14.8817 85.8215 15.0071C85.6423 15.1324 85.431 15.1991 85.215 15.1986H85.2086Z" fill="#00E6B2"/>
<path d="M68.9818 2.86994L63.4725 8.70474C63.3262 8.85844 63.1263 8.94714 62.9162 8.95134C62.7061 8.95574 62.5028 8.87534 62.3506 8.72774L59.524 5.97834C59.4389 5.90794 59.3689 5.82034 59.3185 5.72104C59.2682 5.62184 59.2384 5.51294 59.2312 5.40144C59.224 5.28994 59.2395 5.17804 59.2766 5.07294C59.3138 4.96774 59.3719 4.87154 59.4472 4.79034C59.5225 4.70924 59.6135 4.64474 59.7144 4.60104C59.8153 4.55734 59.9239 4.53544 60.0336 4.53654C60.1432 4.53764 60.2514 4.56194 60.3514 4.60764C60.4514 4.65344 60.541 4.71974 60.6147 4.80254L62.8691 6.98964L67.8824 1.70304C66.4686 0.501038 64.657 -0.103162 62.8199 0.0144378C60.9828 0.132138 59.2596 0.962738 58.0045 2.33574C56.7494 3.70864 56.0577 5.51954 56.0715 7.39634C56.0853 9.27314 56.8037 11.0733 58.0789 12.4268C59.3541 13.7804 61.0893 14.5845 62.928 14.674C64.7667 14.7634 66.5691 14.1315 67.965 12.908C69.3608 11.6845 70.2441 9.96224 70.4332 8.09534C70.6223 6.22844 70.1029 4.35854 68.9818 2.86994ZM65.6436 10.8352H60.3442C60.1331 10.8352 59.9307 10.7498 59.7814 10.5975C59.6321 10.4453 59.5483 10.2389 59.5483 10.0237C59.5483 9.80844 59.6321 9.60204 59.7814 9.44984C59.9307 9.29764 60.1331 9.21214 60.3442 9.21214H65.6436C65.8547 9.21214 66.0572 9.29764 66.2065 9.44984C66.3557 9.60204 66.4396 9.80844 66.4396 10.0237C66.4396 10.2389 66.3557 10.4453 66.2065 10.5975C66.0572 10.7498 65.8547 10.8352 65.6436 10.8352Z" fill="#00E6B2"/>
</svg>
