<svg width="200"
     height="52"
     viewBox="0 0 200 52"
     fill="none"
     xmlns="http://www.w3.org/2000/svg">
  <path d="M23.425 48.0663L1.7233 26.4243L0 28.1401L23.425 51.5054L47.0812 27.9163L45.3579 26.1855L23.425 48.0663Z"
        fill="#A7B6C0" />
  <path d="M45.3579 26.1856L47.0812 24.4772L23.7607 1L0 24.701L1.7233 26.4243L23.7607 4.43914L45.3579 26.1856Z"
        fill="white" />
  <path d="M45.358 26.1854L23.7608 4.43896L1.69354 26.4241L23.3952 48.0586L45.358 26.1854ZM14.8831 15.398L24.6933 5.61021L33.1904 13.9582L16.8601 30.2437C13.0629 26.454 10.4742 19.7995 14.8831 15.398ZM14.2565 35.0929L30.5868 18.7998C34.3915 22.5896 36.9802 29.2441 32.5638 33.6456L22.7611 43.4333L14.2565 35.0929Z"
        fill="white" />
  <path fill-rule="evenodd"
        clip-rule="evenodd"
        d="M53.6239 23.9846L53.0644 21.7466C54.0267 22.6192 55.2719 23.1147 56.5707 23.1416C57.08 23.1554 57.5809 23.0093 58.003 22.7239C58.1792 22.6301 58.3286 22.4931 58.4374 22.3257C58.5461 22.1584 58.6106 21.9662 58.6248 21.7671C58.6389 21.5681 58.6023 21.3687 58.5184 21.1876C58.4344 21.0066 58.3059 20.8498 58.1448 20.732C57.5782 20.3078 56.9587 19.9593 56.3021 19.695C55.57 19.3927 54.8843 18.9883 54.2655 18.4939C54.0102 18.2671 53.8073 17.9875 53.6708 17.6745C53.5343 17.3615 53.4673 17.0225 53.4747 16.6811C53.4664 16.2841 53.5552 15.8911 53.7333 15.5361C53.9114 15.1812 54.1735 14.8751 54.4967 14.6445C55.2919 14.1088 56.24 13.8469 57.1973 13.8985C58.0168 13.9059 58.8309 14.0315 59.6144 14.2715V16.3454C59.3018 15.9867 58.9169 15.6983 58.4849 15.499C58.0529 15.2997 57.5836 15.1941 57.1078 15.1891C56.6636 15.1706 56.2258 15.2991 55.862 15.5546C55.7137 15.6644 55.5947 15.8089 55.5154 15.9754C55.436 16.1418 55.3988 16.3253 55.4069 16.5095C55.4083 16.6685 55.446 16.8251 55.5171 16.9673C55.5882 17.1095 55.6909 17.2336 55.8172 17.3302C56.3407 17.7143 56.9094 18.0325 57.5107 18.2776C58.2711 18.5993 58.992 19.0073 59.6592 19.4936C59.9232 19.697 60.1357 19.9596 60.2796 20.2603C60.4234 20.5609 60.4946 20.8912 60.4873 21.2244C60.4882 21.677 60.3826 22.1235 60.1792 22.5278C59.9757 22.9321 59.68 23.2829 59.316 23.552C58.4717 24.1874 57.4324 24.5092 56.3767 24.4621C55.4372 24.4555 54.5058 24.2864 53.6239 23.9623M69.1485 24.1786V23.3281C68.7819 23.7074 68.339 24.0045 67.849 24.2C67.3591 24.3955 66.8332 24.4848 66.3062 24.4621C65.6035 24.4716 64.9108 24.2939 64.2994 23.9473C63.6518 23.5832 63.1607 22.9938 62.9193 22.2912C62.7754 21.7058 62.7151 21.103 62.7402 20.5007V16.2111C62.7634 15.7831 62.7283 15.354 62.6358 14.9354C62.4991 14.6449 62.2974 14.3897 62.0465 14.1894H65.1797C64.9249 14.3877 64.7204 14.6433 64.5829 14.9354C64.4944 15.3546 64.4593 15.7832 64.4785 16.2111V20.5231C64.4259 21.1536 64.5977 21.7824 64.9634 22.2986C65.184 22.5595 65.4614 22.7664 65.7743 22.9035C66.0873 23.0405 66.4274 23.1041 66.7687 23.0894C67.2093 23.083 67.6418 22.9704 68.0295 22.7612C68.4271 22.5786 68.7526 22.2689 68.9546 21.8809C69.0598 21.6075 69.108 21.3156 69.0963 21.0229V16.2111C69.1183 15.7828 69.0806 15.3534 68.9844 14.9354C68.8503 14.6433 68.6482 14.3875 68.3951 14.1894H71.5283C71.2752 14.3875 71.0731 14.6433 70.939 14.9354C70.8428 15.3534 70.8052 15.7828 70.8271 16.2111V22.1793C70.805 22.6052 70.8426 23.0321 70.939 23.4475C71.071 23.7409 71.2735 23.9972 71.5283 24.1935L69.1485 24.1786ZM75.6389 15.5546V22.1569C75.6162 22.5877 75.6538 23.0196 75.7508 23.44C75.8884 23.73 76.0899 23.9851 76.3402 24.1861H73.2069C73.4629 23.9871 73.6697 23.7318 73.8112 23.44C73.8939 23.0227 73.9264 22.5969 73.9081 22.1718V16.2037C73.9296 15.7753 73.8919 15.3461 73.7962 14.928C73.6621 14.6358 73.46 14.38 73.2069 14.182H74.8034H75.5494H77.0414C77.7099 14.1568 78.3761 14.2738 78.996 14.5251C79.4718 14.739 79.8796 15.0797 80.1747 15.5099C80.4698 15.9209 80.6289 16.4139 80.6298 16.9198C80.6277 17.3149 80.5368 17.7044 80.3637 18.0595C80.1907 18.4147 79.9399 18.7263 79.6301 18.9714C78.9906 19.543 78.1602 19.8544 77.3025 19.8442C76.8305 19.8399 76.3707 19.6944 75.9821 19.4265C76.5424 19.3715 77.091 19.2306 77.6084 19.0087C77.9501 18.8476 78.2373 18.5902 78.4347 18.2682C78.6322 17.9462 78.7313 17.5735 78.72 17.1959C78.72 16.0619 77.9739 15.4875 76.5863 15.4875C76.2677 15.4874 75.9499 15.5224 75.6389 15.5919M84.3524 19.4488V22.709C84.962 22.8038 85.5781 22.8511 86.1951 22.8507C87.2425 22.8673 88.2811 22.656 89.2388 22.2315L88.4928 24.2234H81.9278C82.1755 24.0198 82.3764 23.7654 82.5172 23.4773C82.6104 23.0564 82.6456 22.6247 82.6216 22.1942V16.2261C82.6443 15.7981 82.6092 15.369 82.5172 14.9504C82.3831 14.6582 82.181 14.4024 81.9278 14.2043H87.15C87.384 14.2087 87.6161 14.1602 87.8288 14.0626V15.8978C87.2245 15.6199 86.5605 15.4968 85.8967 15.5397C85.3982 15.5309 84.8997 15.5559 84.4046 15.6143V18.1209H86.3517C86.5681 18.1173 86.7815 18.069 86.9784 17.9792V19.7547C86.5817 19.5299 86.1278 19.4262 85.6728 19.4563L84.3524 19.4488ZM92.5586 15.4875V22.2017C92.5392 22.6271 92.5743 23.0533 92.663 23.4699C92.7979 23.7616 92.9998 24.0172 93.2524 24.2159H90.0967C90.3528 24.0189 90.5576 23.763 90.6936 23.4699C90.7802 23.0531 90.8128 22.6268 90.7905 22.2017V16.2335C90.8137 15.8055 90.7785 15.3764 90.6861 14.9578C90.5494 14.6673 90.3477 14.4121 90.0967 14.2118H93.133H93.5135H93.797C94.6108 14.169 95.4181 14.3774 96.1096 14.8086C96.438 15.0184 96.7084 15.3074 96.8961 15.6489C97.0838 15.9903 97.1828 16.3735 97.1839 16.7632C97.1697 17.1111 97.0826 17.4522 96.9284 17.7645C96.7742 18.0767 96.5563 18.3532 96.2887 18.576C95.8824 18.9216 95.4066 19.176 94.8936 19.322C95.6891 20.4653 96.5536 21.559 97.4823 22.597C98.0412 23.2193 98.6961 23.7482 99.422 24.1637C98.564 24.2457 98.012 24.2831 97.7733 24.2831C97.3914 24.2958 97.0138 24.2001 96.6841 24.007C96.2382 23.6796 95.8413 23.2902 95.5054 22.8507C94.4886 21.6113 93.5777 20.2887 92.7824 18.8968C94.4087 18.6059 95.2144 17.9344 95.2144 16.8825C95.2207 16.6762 95.1803 16.4711 95.0964 16.2826C95.0124 16.094 94.887 15.9268 94.7295 15.7934C94.363 15.4991 93.9008 15.3504 93.4314 15.3756C93.118 15.3746 92.8054 15.4071 92.4989 15.4726M103.324 24.201H100.19C100.449 24.0062 100.654 23.7497 100.787 23.455C100.878 23.0387 100.913 22.6122 100.892 22.1867V16.2186C100.914 15.7902 100.876 15.3609 100.78 14.9429C100.646 14.6508 100.444 14.395 100.19 14.1969H103.324C103.068 14.3928 102.866 14.6492 102.734 14.9429C102.638 15.3609 102.6 15.7902 102.622 16.2186V22.1867C102.6 22.6126 102.638 23.0395 102.734 23.455C102.864 23.7499 103.067 24.0067 103.324 24.201ZM107.098 16.6438V22.1793C107.075 22.6048 107.11 23.0315 107.203 23.4475C107.34 23.7379 107.541 23.9931 107.792 24.1935H105.077C105.329 23.9924 105.533 23.7375 105.674 23.4475C105.76 23.0307 105.793 22.6044 105.771 22.1793V16.2111C105.789 15.7832 105.754 15.3546 105.666 14.9354C105.529 14.6449 105.328 14.3897 105.077 14.1894H107.419L107.576 14.4654L107.636 14.5475L107.807 14.7862L112.873 21.6048V16.2111C112.891 15.7832 112.856 15.3546 112.768 14.9354C112.632 14.6449 112.43 14.3897 112.179 14.1894H114.894C114.641 14.3875 114.439 14.6433 114.305 14.9354C114.213 15.354 114.178 15.7831 114.201 16.2111V24.7232C113.279 24.435 112.476 23.8566 111.91 23.0745L107.098 16.6438ZM124.041 14.0178L123.444 16.047C123.254 15.8183 122.99 15.6627 122.698 15.6069C122.42 15.5542 122.137 15.5342 121.855 15.5472H121.556H120.713V22.1121C120.694 22.545 120.729 22.9787 120.818 23.4027C120.953 23.6944 121.155 23.9501 121.407 24.1488H118.281C118.529 23.9452 118.73 23.6908 118.871 23.4027C118.964 22.9818 118.999 22.5501 118.975 22.1196V15.5546C118.692 15.5546 118.319 15.5546 117.849 15.5546C117.126 15.5232 116.412 15.7245 115.812 16.1291L116.364 14.0626C116.635 14.154 116.921 14.1945 117.207 14.182H122.966H123.339H123.518C123.698 14.1478 123.873 14.0927 124.041 14.0178ZM127.547 19.4265V22.6866C128.154 22.7814 128.768 22.8288 129.382 22.8283C130.43 22.8449 131.468 22.6336 132.426 22.2091L131.68 24.201H125.115C125.365 23.9982 125.569 23.7437 125.712 23.455C125.801 23.0334 125.836 22.6022 125.816 22.1718V16.2037C125.835 15.7757 125.8 15.3472 125.712 14.928C125.574 14.6358 125.37 14.3802 125.115 14.182H130.337C130.571 14.1871 130.803 14.1386 131.016 14.0402V15.8754C130.412 15.5969 129.747 15.4738 129.084 15.5173C128.585 15.5084 128.087 15.5333 127.592 15.5919V18.0986H129.539C129.755 18.0933 129.968 18.0451 130.165 17.9568V19.7323C129.768 19.5084 129.315 19.4047 128.86 19.4339L127.547 19.4265ZM135.305 16.6364V22.1718C135.283 22.5977 135.321 23.0246 135.417 23.44C135.549 23.7336 135.752 23.9899 136.007 24.1861H133.284C133.54 23.9895 133.745 23.7335 133.881 23.44C133.971 23.0237 134.006 22.5973 133.985 22.1718V16.2037C134.006 15.7753 133.969 15.3461 133.873 14.928C133.739 14.6358 133.537 14.38 133.284 14.182H135.626L135.79 14.458L135.843 14.5401L136.022 14.7788L141.087 21.5974V16.2111C141.109 15.7828 141.071 15.3535 140.975 14.9354C140.841 14.6433 140.639 14.3875 140.386 14.1894H143.109C142.854 14.3877 142.649 14.6433 142.512 14.9354C142.424 15.3546 142.389 15.7832 142.408 16.2111V24.7232C141.489 24.4297 140.687 23.8525 140.117 23.0745L135.305 16.6364ZM147.167 15.577V22.7313C147.504 22.7985 147.846 22.8335 148.189 22.8358C149.081 22.8938 149.969 22.6693 150.726 22.1942C151.19 21.8601 151.563 21.4142 151.809 20.8978C152.056 20.3814 152.168 19.8112 152.136 19.24C152.161 18.732 152.085 18.2241 151.914 17.7453C151.742 17.2665 151.478 16.8263 151.136 16.4499C150.787 16.1012 150.37 15.8295 149.91 15.6521C149.45 15.4748 148.958 15.3959 148.465 15.4204C148.032 15.4285 147.6 15.4759 147.175 15.5621M147.324 24.1935H144.743C144.999 23.9946 145.205 23.7393 145.347 23.4475C145.43 23.0301 145.462 22.6044 145.444 22.1793V16.2111C145.465 15.7828 145.428 15.3535 145.332 14.9354C145.198 14.6433 144.996 14.3875 144.743 14.1894H147.406H148.092H148.555C149.917 14.1267 151.258 14.5438 152.344 15.3681C152.904 15.812 153.353 16.3802 153.654 17.0277C153.956 17.6752 154.103 18.3842 154.083 19.0982C154.098 20.0748 153.84 21.0363 153.337 21.8734C152.844 22.6882 152.112 23.3315 151.24 23.7161C149.977 24.1254 148.649 24.295 147.324 24.2159M157.962 19.4414V22.7015C158.572 22.7963 159.188 22.8437 159.805 22.8432C160.847 22.8577 161.88 22.6464 162.834 22.224L162.087 24.2159H155.523C155.77 24.0123 155.971 23.7579 156.112 23.4699C156.209 23.0495 156.247 22.6176 156.224 22.1867V16.2186C156.245 15.7902 156.208 15.361 156.112 14.9429C155.978 14.6508 155.776 14.395 155.523 14.1969H160.745C160.979 14.202 161.211 14.1535 161.424 14.0551V15.8903C160.819 15.6118 160.155 15.4887 159.491 15.5323C158.993 15.5239 158.494 15.5488 157.999 15.6069V18.1135H159.954C160.17 18.1082 160.383 18.06 160.581 17.9717V19.7473C160.184 19.5233 159.73 19.4196 159.275 19.4488L157.962 19.4414ZM165.728 16.6513V22.1867C165.709 22.6122 165.744 23.0384 165.833 23.455C165.97 23.747 166.175 24.0025 166.429 24.201H163.706C163.963 24.0044 164.168 23.7484 164.303 23.455C164.394 23.0387 164.429 22.6122 164.408 22.1867V16.2186C164.429 15.7902 164.391 15.361 164.296 14.9429C164.162 14.6508 163.96 14.395 163.706 14.1969H166.049L166.213 14.4729L166.265 14.555L166.444 14.7937L171.51 21.6123V16.2111C171.531 15.7828 171.493 15.3535 171.398 14.9354C171.264 14.6433 171.062 14.3875 170.808 14.1894H173.524C173.273 14.3897 173.071 14.6449 172.935 14.9354C172.847 15.3546 172.811 15.7832 172.83 16.2111V24.7232C171.912 24.4297 171.11 23.8525 170.54 23.0745L165.728 16.6513ZM183.976 21.8734L183.028 23.9772C182.266 24.3104 181.443 24.4806 180.611 24.477C179.807 24.5226 179.004 24.389 178.258 24.0858C177.512 23.7826 176.843 23.3174 176.299 22.7239C175.412 21.7375 174.928 20.4544 174.941 19.1281C174.92 18.4372 175.042 17.7493 175.299 17.1075C175.555 16.4657 175.942 15.8838 176.433 15.398C176.929 14.9064 177.519 14.5207 178.168 14.2642C178.817 14.0077 179.511 13.8858 180.208 13.9059C181.163 13.9278 182.111 14.0732 183.028 14.3386V16.3678C182.188 15.7912 181.204 15.4605 180.186 15.4129C179.727 15.4052 179.272 15.4973 178.852 15.6828C178.432 15.8683 178.057 16.1427 177.754 16.4872C177.159 17.1739 176.851 18.0637 176.896 18.9714C176.871 20.0211 177.238 21.0424 177.925 21.8361C178.223 22.2106 178.603 22.5126 179.034 22.7193C179.466 22.9261 179.939 23.0322 180.417 23.0297C181.669 22.9402 182.881 22.5458 183.946 21.8809M188.198 24.201H185.072C185.326 24.0018 185.531 23.7464 185.669 23.455C185.756 23.0381 185.788 22.6119 185.766 22.1867V16.2186C185.785 15.7907 185.75 15.362 185.662 14.9429C185.525 14.6524 185.323 14.3971 185.072 14.1969H188.198C187.947 14.3971 187.746 14.6524 187.609 14.9429C187.52 15.362 187.485 15.7907 187.504 16.2186V22.1867C187.485 22.6122 187.52 23.0384 187.609 23.455C187.744 23.7467 187.946 24.0023 188.198 24.201Z"
        fill="white" />
  <path fill-rule="evenodd"
        clip-rule="evenodd"
        d="M195.658 19.3745L194.375 15.5698L193.047 19.3745H195.658ZM196.054 20.5457H192.689L191.854 22.7166C191.758 22.9284 191.702 23.156 191.689 23.388C191.689 23.6044 191.876 23.873 192.241 24.2012H189.257C189.938 23.6442 190.426 22.8874 190.652 22.0378L193.189 15.5101C193.273 15.3158 193.326 15.1093 193.346 14.8984C193.346 14.6945 193.174 14.4458 192.831 14.1523H195.494L198.553 22.0079C198.724 22.495 198.941 22.9646 199.202 23.4104C199.42 23.7055 199.691 23.9583 200 24.1564H196.695C196.746 24.0888 196.807 24.0285 196.874 23.9774C197.05 23.8501 197.17 23.6606 197.21 23.4477C197.161 23.1894 197.078 22.9387 196.964 22.7017L196.054 20.5457Z"
        fill="white" />
  <path fill-rule="evenodd"
        clip-rule="evenodd"
        d="M62.1209 31.7434V36.5627C62.347 36.6068 62.5768 36.6293 62.8072 36.6298C63.4071 36.6694 64.0043 36.5207 64.5156 36.2046C64.8273 35.9799 65.0775 35.6803 65.2431 35.3335C65.4086 34.9868 65.4843 34.6039 65.4631 34.2202C65.4806 33.8792 65.4302 33.5381 65.315 33.2167C65.1997 32.8952 65.0218 32.5999 64.7916 32.3477C64.5572 32.11 64.2752 31.9246 63.964 31.8038C63.6529 31.6829 63.3196 31.6293 62.9863 31.6464C62.6954 31.6514 62.4056 31.6839 62.1209 31.7434ZM62.2179 37.5549H60.4946C60.667 37.42 60.805 37.2461 60.8974 37.0476C60.9563 36.7657 60.9789 36.4773 60.9646 36.1897V32.1686C60.9772 31.881 60.9546 31.5929 60.8974 31.3107C60.8036 31.1131 60.6658 30.9395 60.4946 30.8034H62.2925C62.4193 30.8034 62.576 30.8034 62.7475 30.8034H63.0609C63.9797 30.7626 64.8842 31.0421 65.6197 31.5942C65.9992 31.8964 66.3027 32.2831 66.5061 32.7236C66.7095 33.164 66.807 33.6458 66.791 34.1307C66.7948 34.79 66.6111 35.4368 66.2613 35.9957C65.9374 36.5434 65.453 36.9784 64.8737 37.2416C64.0208 37.5111 63.1257 37.6224 62.2328 37.5698M69.402 34.3545V36.5925C69.8144 36.6542 70.2309 36.6841 70.6479 36.682C71.351 36.6956 72.0486 36.5556 72.692 36.2717L72.1847 37.6071H67.7682C67.9362 37.4666 68.0712 37.2909 68.1636 37.0924C68.2262 36.8084 68.2513 36.5175 68.2382 36.227V32.1686C68.2496 31.8807 68.2245 31.5924 68.1636 31.3107C68.0731 31.1131 67.9378 30.9394 67.7682 30.8034H71.2745C71.4308 30.8055 71.5858 30.775 71.7296 30.7139V31.9225C71.3239 31.7345 70.8779 31.6499 70.4315 31.6763C70.0874 31.6704 69.7432 31.6904 69.402 31.736V33.4145H70.715C70.862 33.4122 71.0068 33.3792 71.1402 33.3175V34.5111C70.8726 34.3599 70.5667 34.2899 70.2599 34.3097L69.402 34.3545ZM78.0931 34.265V36.6448C78.3675 36.7064 78.6475 36.7389 78.9287 36.7417C79.9209 36.7417 80.4207 36.3389 80.4207 35.5332C80.4207 34.7275 79.8687 34.2202 78.7571 34.2202C78.5354 34.2177 78.3137 34.2277 78.0931 34.25V34.265ZM78.0931 33.5189H78.3617C78.7337 33.5367 79.1025 33.4432 79.4211 33.2504C79.5348 33.1754 79.6296 33.0751 79.698 32.9573C79.7664 32.8394 79.8065 32.7074 79.8151 32.5714C79.8238 32.4355 79.8008 32.2994 79.748 32.1738C79.6951 32.0482 79.6139 31.9367 79.5106 31.8479C79.2709 31.6671 78.9748 31.5772 78.675 31.5942C78.4813 31.5821 78.2869 31.5821 78.0931 31.5942V33.5189ZM78.0185 37.5773H76.4817C76.6542 37.4423 76.7922 37.2685 76.8846 37.07C76.9435 36.7881 76.9661 36.4997 76.9517 36.2121V32.1686C76.9631 31.8807 76.938 31.5924 76.8771 31.3107C76.7866 31.1131 76.6512 30.9394 76.4817 30.8034H78.0185C78.8242 30.8034 79.3091 30.8034 79.5106 30.8034C79.9316 30.8268 80.3307 30.9986 80.6371 31.2883C80.806 31.4501 80.9312 31.6518 81.0013 31.8749C81.0713 32.098 81.0839 32.3352 81.0377 32.5644C80.9916 32.7936 80.8883 33.0075 80.7373 33.1861C80.5864 33.3647 80.3928 33.5023 80.1745 33.5861C80.5613 33.693 80.9186 33.8869 81.219 34.153C81.3806 34.3142 81.5082 34.5062 81.594 34.7177C81.6799 34.9292 81.7223 35.1558 81.7188 35.384C81.7152 35.7812 81.5874 36.1672 81.3532 36.4881C81.1035 36.8231 80.765 37.0815 80.376 37.2341C80.1395 37.3432 79.8881 37.4162 79.6299 37.4505C79.3464 37.5474 78.8168 37.5549 78.0185 37.5549V37.5773ZM86.5306 34.3246L85.6652 31.7658L84.77 34.3246H86.5306ZM86.7992 35.1154H84.5611L83.9941 36.6074C83.9292 36.751 83.8913 36.9052 83.8822 37.0625C83.8822 37.2043 84.0091 37.3833 84.2552 37.6071H82.2634C82.7314 37.2259 83.0616 36.7018 83.2034 36.1151L84.8819 31.7285C84.9409 31.599 84.9763 31.4601 84.9863 31.3182C84.9863 31.1839 84.8744 31.0123 84.6432 30.8183H86.4336L88.4926 36.1151C88.6094 36.4428 88.7594 36.7578 88.9402 37.0551C89.0802 37.2606 89.2604 37.4357 89.4699 37.5698H87.2319C87.2915 37.5027 87.3288 37.4579 87.3512 37.4505C87.4686 37.3638 87.5486 37.2358 87.575 37.0924C87.545 36.9115 87.4897 36.7357 87.4109 36.5702L86.7992 35.1154ZM91.3275 32.4894V36.2195C91.3108 36.5076 91.3359 36.7966 91.4021 37.0774C91.4901 37.2765 91.6259 37.4508 91.7975 37.5847H89.9623C90.1385 37.4517 90.2794 37.2775 90.3726 37.0774C90.4276 36.795 90.4501 36.5071 90.4397 36.2195V32.1686C90.4516 31.8807 90.4265 31.5923 90.3651 31.3107C90.274 31.1114 90.1357 30.9373 89.9623 30.8034H91.5438C91.5438 30.8482 91.6035 30.9079 91.6557 30.9899V31.0422L91.7826 31.2063L95.1919 35.8017V32.1686C95.2077 31.8806 95.1826 31.5917 95.1173 31.3107C95.0293 31.1116 94.8935 30.9374 94.7219 30.8034H96.5496C96.3801 30.9394 96.2447 31.1131 96.1542 31.3107C96.0929 31.5923 96.0678 31.8807 96.0796 32.1686V37.8906C95.4625 37.6923 94.9244 37.303 94.5428 36.779L91.3275 32.4894ZM103.622 36.0106L102.98 37.4355C102.466 37.6559 101.913 37.7701 101.354 37.7712C100.812 37.8022 100.271 37.7118 99.7688 37.5065C99.2667 37.3013 98.8168 36.9865 98.452 36.5851C97.8515 35.9214 97.5238 35.0555 97.5344 34.1605C97.5232 33.6949 97.6082 33.2319 97.7841 32.8007C97.9599 32.3694 98.2229 31.979 98.5564 31.6539C98.8897 31.3213 99.287 31.0599 99.7243 30.8855C100.162 30.7111 100.63 30.6274 101.1 30.6393C101.747 30.6542 102.389 30.7545 103.01 30.9377V32.3029C102.443 31.914 101.78 31.6894 101.093 31.6539C100.782 31.6514 100.473 31.7169 100.19 31.8457C99.9065 31.9746 99.6545 32.1637 99.4516 32.3999C99.0496 32.8641 98.8413 33.465 98.8697 34.0784C98.8536 34.7862 99.1009 35.4748 99.5635 36.0106C99.7658 36.2627 100.023 36.4655 100.315 36.6038C100.607 36.7421 100.926 36.8122 101.25 36.8089C102.09 36.7584 102.904 36.5022 103.622 36.0629M108.098 34.3769L107.233 31.818L106.337 34.3769H108.098ZM108.367 35.1676H106.129L105.562 36.6597C105.498 36.8034 105.463 36.9578 105.457 37.1147C105.457 37.2565 105.576 37.4355 105.83 37.6593H103.823C104.291 37.2782 104.622 36.754 104.763 36.1673L106.442 31.7807C106.502 31.6513 106.54 31.5126 106.554 31.3704C106.554 31.2361 106.434 31.0645 106.203 30.8706H107.994L110.06 36.1673C110.172 36.4958 110.319 36.811 110.5 37.1073C110.641 37.3147 110.824 37.4901 111.037 37.622H108.799C108.835 37.5782 108.875 37.5382 108.919 37.5027C109.036 37.4161 109.116 37.288 109.142 37.1446C109.112 36.9637 109.057 36.7879 108.978 36.6224L108.367 35.1676ZM111.694 39.0544C112.32 38.4203 112.634 37.9801 112.634 37.7414C112.634 37.6593 112.544 37.5997 112.365 37.5549C112.205 37.5116 112.065 37.4128 111.971 37.2762C111.877 37.1396 111.834 36.974 111.85 36.8089C111.846 36.7024 111.863 36.5961 111.9 36.4963C111.937 36.3964 111.994 36.3048 112.067 36.227C112.137 36.1511 112.223 36.0906 112.318 36.0495C112.413 36.0084 112.515 35.9876 112.619 35.9883C112.73 35.9899 112.839 36.0162 112.938 36.0652C113.037 36.1142 113.125 36.1848 113.193 36.2717C113.356 36.485 113.436 36.7502 113.417 37.0178C113.378 37.73 113.072 38.4013 112.559 38.8977C112.513 38.9621 112.454 39.0164 112.386 39.0574C112.318 39.0985 112.242 39.1253 112.164 39.1365C112.006 39.1351 111.849 39.1227 111.694 39.0992M118.117 37.5325L117.744 36.0405C118.39 36.6287 119.228 36.9627 120.101 36.9805C120.444 36.9908 120.781 36.8915 121.064 36.697C121.177 36.633 121.273 36.5419 121.343 36.4319C121.413 36.3219 121.454 36.1964 121.464 36.0665C121.474 35.9365 121.451 35.8062 121.398 35.6872C121.345 35.5681 121.264 35.464 121.161 35.384C120.779 35.0997 120.363 34.8642 119.922 34.6827C119.428 34.4847 118.966 34.2158 118.55 33.8845C118.377 33.7321 118.24 33.5434 118.148 33.3319C118.057 33.1204 118.013 32.8913 118.02 32.661C118.013 32.3934 118.071 32.1281 118.191 31.8886C118.311 31.6492 118.488 31.443 118.706 31.2883C119.241 30.9239 119.88 30.7432 120.527 30.7736C121.078 30.7794 121.626 30.8649 122.153 31.0272V32.4223C121.941 32.1853 121.681 31.9962 121.39 31.8676C121.1 31.739 120.785 31.6737 120.467 31.6763C120.167 31.6644 119.871 31.7508 119.624 31.9225C119.521 31.9923 119.436 32.0869 119.379 32.1977C119.322 32.3085 119.293 32.4319 119.296 32.5566C119.299 32.6642 119.325 32.77 119.372 32.8666C119.42 32.9632 119.488 33.0483 119.572 33.1161C119.93 33.3698 120.315 33.5825 120.721 33.7502C121.232 33.9689 121.718 34.2442 122.168 34.5708C122.344 34.7082 122.486 34.8851 122.582 35.0872C122.678 35.2893 122.725 35.511 122.72 35.7346C122.722 36.0398 122.652 36.3412 122.514 36.6137C122.377 36.8862 122.176 37.1219 121.929 37.3012C121.368 37.7328 120.675 37.9568 119.967 37.9354C119.336 37.9295 118.71 37.816 118.117 37.5997M125.346 34.5261V36.7641C125.756 36.8255 126.17 36.8554 126.584 36.8536C127.29 36.8673 127.99 36.7273 128.636 36.4433L128.129 37.7787H123.705C123.875 37.639 124.013 37.4632 124.108 37.2639C124.166 36.9795 124.189 36.6887 124.175 36.3986V32.1686C124.187 31.881 124.165 31.5929 124.108 31.3107C124.014 31.1131 123.876 30.9395 123.705 30.8034H127.211C127.37 30.8063 127.527 30.7758 127.674 30.7139V31.9225C127.265 31.7336 126.817 31.649 126.368 31.6763C126.026 31.6706 125.685 31.6906 125.346 31.736V33.4145H126.659C126.806 33.4114 126.95 33.3784 127.084 33.3175V34.5111C126.816 34.3611 126.511 34.2912 126.204 34.3097L125.346 34.5261ZM134.805 31.0198V32.4148C134.312 31.9567 133.658 31.7103 132.985 31.7285C132.651 31.7215 132.32 31.7843 132.011 31.9128C131.703 32.0412 131.425 32.2325 131.195 32.4745C130.961 32.7163 130.778 33.0028 130.658 33.3169C130.537 33.6309 130.481 33.9661 130.493 34.3023C130.485 34.6564 130.547 35.0087 130.675 35.3389C130.803 35.6692 130.995 35.971 131.239 36.227C131.474 36.4846 131.759 36.6901 132.078 36.8302C132.397 36.9703 132.741 37.0418 133.09 37.0401C133.514 37.0434 133.936 36.9831 134.343 36.8611V35.3989C134.358 35.1063 134.336 34.8129 134.276 34.5261C134.178 34.3374 134.037 34.174 133.865 34.0486H135.589C135.531 34.2727 135.503 34.5035 135.507 34.7349V36.8536C135.496 37.0548 135.529 37.256 135.604 37.443C135.486 37.4515 135.368 37.469 135.253 37.4952C135.115 37.5146 134.978 37.542 134.843 37.5773C134.274 37.7022 133.694 37.7697 133.112 37.7787C132.069 37.8259 131.047 37.4738 130.255 36.794C129.896 36.4771 129.611 36.0847 129.421 35.6449C129.232 35.2051 129.142 34.7287 129.158 34.25C129.146 33.7637 129.241 33.2806 129.435 32.8347C129.63 32.3888 129.92 31.9908 130.285 31.6688C131.069 30.9767 132.089 30.611 133.134 30.6468C133.69 30.6632 134.242 30.7357 134.783 30.8631M141.594 37.5773V36.9879C141.347 37.2424 141.047 37.4407 140.717 37.5694C140.386 37.6981 140.031 37.7542 139.677 37.7339C139.204 37.7417 138.738 37.6233 138.327 37.3908C137.891 37.1475 137.562 36.7515 137.402 36.2792C137.305 35.884 137.265 35.4771 137.282 35.0707V32.1612C137.294 31.8732 137.269 31.5849 137.208 31.3033C137.12 31.1042 136.984 30.9299 136.812 30.796H138.916C138.746 30.932 138.611 31.1057 138.521 31.3033C138.459 31.5849 138.434 31.8732 138.446 32.1612V35.0707C138.412 35.4947 138.528 35.9172 138.774 36.2643C138.922 36.4417 139.108 36.5826 139.319 36.6758C139.53 36.769 139.76 36.812 139.99 36.8014C140.288 36.796 140.579 36.7192 140.841 36.5776C141.109 36.4543 141.327 36.244 141.46 35.9808C141.534 35.7989 141.567 35.6027 141.557 35.4064V32.1686C141.57 31.881 141.547 31.5928 141.49 31.3107C141.396 31.1131 141.258 30.9395 141.087 30.8034H143.198C143.027 30.9374 142.891 31.1116 142.803 31.3107C142.737 31.5917 142.712 31.8806 142.728 32.1686V36.1897C142.711 36.4778 142.737 36.7667 142.803 37.0476C142.891 37.2467 143.027 37.421 143.198 37.5549L141.594 37.5773ZM146.033 31.6986V36.1748C146.02 36.4624 146.042 36.7506 146.1 37.0327C146.194 37.2303 146.332 37.4039 146.503 37.54H144.392C144.564 37.405 144.702 37.2312 144.795 37.0327C144.854 36.7507 144.876 36.4624 144.862 36.1748V32.1686C144.878 31.8806 144.852 31.5917 144.787 31.3107C144.699 31.1116 144.563 30.9374 144.392 30.8034H146.421C146.503 30.8102 146.585 30.8102 146.667 30.8034H146.861C147.41 30.7726 147.955 30.9134 148.42 31.2063C148.651 31.3491 148.841 31.5491 148.972 31.787C149.103 32.0249 149.17 32.2926 149.166 32.564C149.156 32.7976 149.097 33.0265 148.993 33.2359C148.889 33.4453 148.742 33.6306 148.562 33.78C148.29 34.0195 147.969 34.1976 147.622 34.3023C148.155 35.0854 148.738 35.833 149.368 36.5403C149.757 36.9556 150.21 37.3057 150.711 37.5773C150.129 37.6295 149.763 37.6593 149.599 37.6593C149.337 37.6694 149.077 37.602 148.853 37.4654C148.551 37.2581 148.282 37.0066 148.055 36.7194C147.369 35.8864 146.758 34.9953 146.227 34.0561C147.316 33.8546 147.861 33.407 147.861 32.6983C147.867 32.5572 147.84 32.4165 147.783 32.2872C147.726 32.1579 147.641 32.0433 147.533 31.9523C147.286 31.7534 146.976 31.6525 146.66 31.6688C146.449 31.669 146.239 31.6915 146.033 31.736M154.03 31.6017C153.724 31.5908 153.419 31.6472 153.136 31.7671C152.854 31.887 152.602 32.0673 152.397 32.2955C151.964 32.8037 151.74 33.4567 151.77 34.1232C151.763 34.8701 152.029 35.5938 152.516 36.1598C152.699 36.3942 152.933 36.5834 153.201 36.7128C153.469 36.8422 153.763 36.9082 154.06 36.9059C154.363 36.9146 154.665 36.8556 154.942 36.733C155.22 36.6103 155.466 36.4273 155.664 36.1971C156.096 35.6889 156.32 35.0359 156.291 34.3694C156.311 33.664 156.081 32.9742 155.642 32.4223C155.46 32.1751 155.223 31.9741 154.95 31.8354C154.676 31.6967 154.374 31.6243 154.068 31.624M154.127 30.6841C154.588 30.6743 155.046 30.7601 155.473 30.936C155.899 31.1119 156.284 31.3741 156.604 31.7061C157.099 32.2137 157.432 32.8559 157.564 33.5522C157.695 34.2485 157.618 34.9681 157.343 35.621C157.067 36.2739 156.605 36.831 156.015 37.2228C155.424 37.6145 154.731 37.8235 154.023 37.8235C153.557 37.8274 153.096 37.7387 152.665 37.5624C152.234 37.3861 151.843 37.1258 151.514 36.7966C151.184 36.4675 150.924 36.0761 150.748 35.6452C150.572 35.2144 150.483 34.7528 150.487 34.2873C150.476 33.809 150.563 33.3336 150.744 32.8907C150.925 32.4478 151.196 32.0471 151.539 31.7136C151.879 31.3767 152.283 31.1119 152.728 30.935C153.173 30.7581 153.649 30.6727 154.127 30.6841ZM158.82 37.4952L158.447 36.0032C159.096 36.5914 159.936 36.9252 160.812 36.9432C161.154 36.9509 161.49 36.8518 161.774 36.6597C161.892 36.5874 161.99 36.4867 162.059 36.3668C162.128 36.247 162.166 36.1117 162.169 35.9733C162.169 35.8533 162.142 35.7349 162.09 35.6266C162.039 35.5182 161.964 35.4226 161.871 35.3467C161.486 35.0629 161.068 34.8274 160.625 34.6454C160.132 34.4457 159.67 34.1769 159.252 33.8472C159.081 33.6938 158.945 33.5049 158.853 33.2937C158.762 33.0824 158.717 32.8538 158.723 32.6237C158.717 32.3563 158.776 32.0915 158.896 31.8522C159.015 31.613 159.192 31.4066 159.409 31.251C159.944 30.8866 160.583 30.7059 161.229 30.7363C161.781 30.7416 162.329 30.827 162.856 30.9899V32.385C162.644 32.148 162.384 31.9589 162.093 31.8303C161.802 31.7017 161.488 31.6364 161.17 31.639C160.872 31.627 160.578 31.7136 160.334 31.8852C160.229 31.9541 160.144 32.0484 160.085 32.1592C160.026 32.27 159.997 32.3939 159.998 32.5193C160.001 32.6269 160.028 32.7327 160.075 32.8293C160.123 32.9259 160.191 33.011 160.275 33.0788C160.633 33.3325 161.018 33.5452 161.423 33.7129C161.916 33.8849 162.389 34.11 162.833 34.3843C163.01 34.5217 163.152 34.6986 163.248 34.9007C163.343 35.1027 163.391 35.3245 163.385 35.5481C163.388 35.8533 163.317 36.1547 163.18 36.4272C163.042 36.6997 162.842 36.9354 162.595 37.1147C162.036 37.5463 161.345 37.7704 160.64 37.7489C160.006 37.7435 159.378 37.63 158.782 37.4132M170.861 34.623V36.1897C170.844 36.4778 170.869 36.7667 170.935 37.0476C171.023 37.2467 171.159 37.421 171.331 37.5549H169.219C169.388 37.418 169.523 37.2445 169.615 37.0476C169.681 36.7667 169.706 36.4778 169.689 36.1897V34.623L167.921 31.8777C167.665 31.4588 167.325 31.0979 166.922 30.8183L168.22 30.7661C168.344 30.7519 168.469 30.778 168.578 30.8407C168.713 30.9724 168.829 31.1232 168.921 31.2883L170.413 33.6458L171.659 31.8255C171.755 31.7044 171.82 31.5606 171.845 31.4077C171.845 31.2287 171.711 31.0272 171.435 30.8034H173.472L170.861 34.623ZM180.909 34.3023L180.044 31.7434L179.149 34.3023H180.909ZM181.178 35.093H178.94L178.373 36.5851C178.31 36.7288 178.274 36.8832 178.268 37.0401C178.268 37.1819 178.388 37.3609 178.641 37.5847H176.635C177.103 37.2035 177.433 36.6794 177.575 36.0927L179.246 31.7136C179.306 31.5842 179.344 31.4454 179.358 31.3033C179.358 31.169 179.238 30.9974 179.007 30.8034H180.805L182.864 36.1002C182.976 36.4287 183.123 36.7439 183.304 37.0401C183.445 37.2476 183.628 37.423 183.841 37.5549H181.603L181.723 37.4355C181.872 37.2938 181.954 37.1744 181.954 37.0774C181.92 36.8966 181.862 36.7211 181.782 36.5552L181.178 35.093ZM185.982 34.347V36.1748C185.97 36.4677 185.995 36.761 186.057 37.0476C186.147 37.2452 186.283 37.4189 186.452 37.5549H184.349C184.519 37.417 184.655 37.2406 184.744 37.0401C184.806 36.7562 184.832 36.4652 184.819 36.1748V32.1686C184.83 31.8807 184.805 31.5924 184.744 31.3107C184.656 31.1116 184.52 30.9374 184.349 30.8034H187.855C188.011 30.8078 188.167 30.7772 188.31 30.7139V31.9225C187.894 31.7489 187.447 31.6651 186.997 31.6763C186.658 31.6711 186.319 31.6911 185.982 31.736V33.4145H187.295C187.443 33.4162 187.588 33.383 187.721 33.3175V34.5261C187.457 34.3644 187.149 34.2888 186.84 34.3097L185.982 34.347ZM190.816 31.7509V36.227C190.8 36.5175 190.825 36.8089 190.891 37.0924C190.98 37.2891 191.115 37.4608 191.286 37.5922H189.168C189.344 37.4592 189.485 37.285 189.578 37.0849C189.637 36.803 189.66 36.5146 189.645 36.227V32.1686C189.657 31.8807 189.632 31.5924 189.571 31.3107C189.48 31.1114 189.341 30.9373 189.168 30.8034H190.235H190.742H191.727C192.178 30.7864 192.628 30.8653 193.047 31.0347C193.379 31.1766 193.663 31.4093 193.868 31.7061C194.065 31.9879 194.169 32.3244 194.166 32.6685C194.165 32.9341 194.103 33.196 193.987 33.4348C193.871 33.6737 193.703 33.8834 193.495 34.0486C193.062 34.4349 192.501 34.6452 191.921 34.638C191.604 34.6374 191.294 34.5412 191.033 34.3619C191.41 34.3226 191.78 34.227 192.129 34.0784C192.36 33.9695 192.553 33.7956 192.685 33.5782C192.818 33.3608 192.884 33.1094 192.875 32.855C192.875 32.109 192.398 31.7061 191.443 31.7061C191.227 31.7052 191.012 31.7278 190.802 31.7733"
        fill="white" />
  <path fill-rule="evenodd"
        clip-rule="evenodd"
        d="M61.6061 27.5656L67.4549 27.4463C71.185 27.394 76.4892 27.2523 82.8602 27.2001C89.2312 27.1478 96.6839 27.021 104.651 26.9912L116.946 26.939H129.628C138.133 26.939 146.637 26.939 154.605 27.021L166.101 27.1255L176.396 27.2224C182.774 27.2896 188.086 27.409 191.809 27.4612L197.657 27.588L191.809 27.7148C188.079 27.767 182.774 27.8864 176.396 27.9461L166.101 28.0505L154.627 28.1923C146.66 28.2445 138.155 28.2669 129.65 28.2743H116.968L104.644 28.1923C96.6765 28.1923 89.2312 28.0356 82.8528 27.9834C76.4743 27.9312 71.1626 27.7894 67.4475 27.7372L61.5987 27.6029L61.6061 27.5656Z"
        fill="white" />
</svg>