<svg xmlns="http://www.w3.org/2000/svg" width="26" height="26" viewBox="0 0 25.842 34.159">
  <path id="autorenew_FILL1_wght400_GRAD0_opsz24_1_" data-name="autorenew_FILL1_wght400_GRAD0_opsz24 (1)" d="M163.23-885.84a9.933,9.933,0,0,0,.081,1.272,6.528,6.528,0,0,0,.283,1.231,1.988,1.988,0,0,1-.04,1.312,1.607,1.607,0,0,1-.848.908,1.462,1.462,0,0,1-1.272.061,1.4,1.4,0,0,1-.828-.949,10.276,10.276,0,0,1-.464-1.9A13.41,13.41,0,0,1,160-885.84a12.6,12.6,0,0,1,3.755-9.206,12.4,12.4,0,0,1,9.166-3.8h.283l-1.454-1.454a1.532,1.532,0,0,1-.444-1.131,1.532,1.532,0,0,1,.444-1.131A1.532,1.532,0,0,1,172.88-903a1.532,1.532,0,0,1,1.131.444l4.2,4.2a1.549,1.549,0,0,1,.485,1.13,1.55,1.55,0,0,1-.485,1.131l-4.2,4.2a1.532,1.532,0,0,1-1.131.444,1.532,1.532,0,0,1-1.131-.444,1.531,1.531,0,0,1-.444-1.131,1.532,1.532,0,0,1,.444-1.131l1.454-1.453h-.283a9.312,9.312,0,0,0-6.864,2.847A9.46,9.46,0,0,0,163.23-885.84ZM182.611-886a9.937,9.937,0,0,0-.081-1.272,6.528,6.528,0,0,0-.283-1.231,1.989,1.989,0,0,1,.04-1.312,1.608,1.608,0,0,1,.848-.909,1.461,1.461,0,0,1,1.272-.06,1.4,1.4,0,0,1,.828.949,10.284,10.284,0,0,1,.464,1.9,13.409,13.409,0,0,1,.141,1.938,12.6,12.6,0,0,1-3.755,9.206,12.4,12.4,0,0,1-9.166,3.8h-.283l1.454,1.454a1.532,1.532,0,0,1,.444,1.131,1.531,1.531,0,0,1-.444,1.13,1.531,1.531,0,0,1-1.131.444,1.531,1.531,0,0,1-1.131-.444l-4.2-4.2a1.549,1.549,0,0,1-.485-1.131,1.549,1.549,0,0,1,.485-1.13l4.2-4.2a1.531,1.531,0,0,1,1.131-.444,1.531,1.531,0,0,1,1.131.444,1.531,1.531,0,0,1,.444,1.13,1.532,1.532,0,0,1-.444,1.131l-1.454,1.454h.283a9.312,9.312,0,0,0,6.864-2.847A9.461,9.461,0,0,0,182.611-886Z" transform="translate(-160 903)" fill="#fff"/>
</svg>
