<svg xmlns="http://www.w3.org/2000/svg" width="20.354" height="20.354" viewBox="0 0 20.354 20.354">
  <path id="block_48dp_FILL1_wght400_GRAD0_opsz48" d="M90.177-859.646a9.91,9.91,0,0,1-3.969-.8,10.278,10.278,0,0,1-3.231-2.175,10.278,10.278,0,0,1-2.175-3.231,9.91,9.91,0,0,1-.8-3.969,9.91,9.91,0,0,1,.8-3.969,10.278,10.278,0,0,1,2.175-3.231,10.277,10.277,0,0,1,3.231-2.175,9.91,9.91,0,0,1,3.969-.8,9.91,9.91,0,0,1,3.969.8,10.277,10.277,0,0,1,3.231,2.175,10.278,10.278,0,0,1,2.175,3.231,9.91,9.91,0,0,1,.8,3.969,9.91,9.91,0,0,1-.8,3.969,10.278,10.278,0,0,1-2.175,3.231,10.278,10.278,0,0,1-3.231,2.175A9.91,9.91,0,0,1,90.177-859.646Zm0-1.527a8.7,8.7,0,0,0,2.99-.522,8.156,8.156,0,0,0,2.582-1.514L83.562-875.395a9,9,0,0,0-1.5,2.6,8.42,8.42,0,0,0-.534,2.972,8.349,8.349,0,0,0,2.514,6.137A8.349,8.349,0,0,0,90.177-861.172Zm6.59-3.079a9.413,9.413,0,0,0,1.5-2.582,8.169,8.169,0,0,0,.56-2.99,8.349,8.349,0,0,0-2.514-6.137,8.349,8.349,0,0,0-6.137-2.514,8.42,8.42,0,0,0-2.973.534,8.7,8.7,0,0,0-2.6,1.527Z" transform="translate(-80 880)" fill="#27246d"/>
</svg>
