<svg xmlns="http://www.w3.org/2000/svg" width="20.238" height="20.238" viewBox="0 0 20.238 20.238">
  <path id="cancel_FILL1_wght400_GRAD0_opsz24" d="M90.119-868.464l2.935,2.935a.959.959,0,0,0,.708.278.959.959,0,0,0,.708-.278.959.959,0,0,0,.278-.708.96.96,0,0,0-.278-.708l-2.935-2.935,2.935-2.935a.959.959,0,0,0,.278-.708.96.96,0,0,0-.278-.708.96.96,0,0,0-.708-.278.96.96,0,0,0-.708.278L90.119-871.3l-2.935-2.935a.96.96,0,0,0-.708-.278.96.96,0,0,0-.708.278.96.96,0,0,0-.278.708.959.959,0,0,0,.278.708l2.935,2.935-2.935,2.935a.96.96,0,0,0-.278.708.959.959,0,0,0,.278.708.959.959,0,0,0,.708.278.959.959,0,0,0,.708-.278Zm0,8.7a9.854,9.854,0,0,1-3.946-.8,10.219,10.219,0,0,1-3.213-2.163,10.218,10.218,0,0,1-2.163-3.213,9.853,9.853,0,0,1-.8-3.946,9.853,9.853,0,0,1,.8-3.946,10.218,10.218,0,0,1,2.163-3.213,10.219,10.219,0,0,1,3.213-2.163,9.854,9.854,0,0,1,3.946-.8,9.854,9.854,0,0,1,3.946.8,10.219,10.219,0,0,1,3.213,2.163,10.219,10.219,0,0,1,2.163,3.213,9.853,9.853,0,0,1,.8,3.946,9.853,9.853,0,0,1-.8,3.946,10.219,10.219,0,0,1-2.163,3.213,10.219,10.219,0,0,1-3.213,2.163A9.854,9.854,0,0,1,90.119-859.762Z" transform="translate(-80 880)" fill="#db4343"/>
</svg>
