<svg xmlns="http://www.w3.org/2000/svg" width="20.238" height="20.238" viewBox="0 0 20.238 20.238">
  <path id="check_circle_FILL1_wght400_GRAD0_opsz24_2_" data-name="check_circle_FILL1_wght400_GRAD0_opsz24 (2)" d="M88.7-868.059l-2.176-2.176a.96.96,0,0,0-.708-.278.96.96,0,0,0-.708.278.959.959,0,0,0-.278.708.959.959,0,0,0,.278.708l2.884,2.884a.971.971,0,0,0,.708.3.971.971,0,0,0,.708-.3l5.717-5.717a.96.96,0,0,0,.278-.708.96.96,0,0,0-.278-.708.96.96,0,0,0-.708-.278.96.96,0,0,0-.708.278Zm1.417,8.3a9.854,9.854,0,0,1-3.946-.8,10.219,10.219,0,0,1-3.213-2.163,10.218,10.218,0,0,1-2.163-3.213,9.853,9.853,0,0,1-.8-3.946,9.853,9.853,0,0,1,.8-3.946,10.218,10.218,0,0,1,2.163-3.213,10.219,10.219,0,0,1,3.213-2.163,9.854,9.854,0,0,1,3.946-.8,9.854,9.854,0,0,1,3.946.8,10.219,10.219,0,0,1,3.213,2.163,10.219,10.219,0,0,1,2.163,3.213,9.853,9.853,0,0,1,.8,3.946,9.853,9.853,0,0,1-.8,3.946,10.219,10.219,0,0,1-2.163,3.213,10.219,10.219,0,0,1-3.213,2.163A9.854,9.854,0,0,1,90.119-859.762Z" transform="translate(-80 880)" fill="#79cb33"/>
</svg>
