<svg xmlns="http://www.w3.org/2000/svg" width="23.809" height="16.802" viewBox="0 0 23.809 16.802">
  <path id="person_add_48dp_FILL1_wght400_GRAD0_opsz48" d="M58.669-770.692v-3.517H55.151v-1.623h3.517v-3.517h1.623v3.517h3.517v1.623H60.292v3.517Zm-10.011-2.192a3.956,3.956,0,0,1-2.922-1.136,3.955,3.955,0,0,1-1.136-2.922,3.956,3.956,0,0,1,1.136-2.922A3.955,3.955,0,0,1,48.658-781a3.955,3.955,0,0,1,2.922,1.136,3.956,3.956,0,0,1,1.136,2.922,3.955,3.955,0,0,1-1.136,2.922A3.956,3.956,0,0,1,48.658-772.883ZM40-764.2v-2.543a3.218,3.218,0,0,1,.473-1.718,2.867,2.867,0,0,1,1.366-1.15,20.728,20.728,0,0,1,3.612-1.258,14.211,14.211,0,0,1,3.206-.365,14.035,14.035,0,0,1,3.193.365,20.889,20.889,0,0,1,3.6,1.258,3.134,3.134,0,0,1,1.38,1.163,3.084,3.084,0,0,1,.487,1.7v2.543Z" transform="translate(-40 781)" fill="#27246d"/>
</svg>
