<svg xmlns="http://www.w3.org/2000/svg" width="20.227" height="20.227" viewBox="0 0 20.227 20.227">
  <path id="recommend_48dp_FILL1_wght400_GRAD0_opsz48" d="M87.079-864.476h5.815a1.092,1.092,0,0,0,.594-.152,1.293,1.293,0,0,0,.417-.455l1.972-4.6a1.807,1.807,0,0,0,.088-.379,2.805,2.805,0,0,0,.038-.379v-.607a.709.709,0,0,0-.164-.518.709.709,0,0,0-.518-.164H89.911l.733-3.489a.722.722,0,0,0,0-.379.688.688,0,0,0-.177-.3l-.531-.556-4.071,4.4-.2.4a.947.947,0,0,0-.1.43v5.234a1.47,1.47,0,0,0,.455,1.049A1.437,1.437,0,0,0,87.079-864.476Zm3.034,4.7a9.784,9.784,0,0,1-3.919-.8,10.255,10.255,0,0,1-3.224-2.174,10.256,10.256,0,0,1-2.174-3.224,9.786,9.786,0,0,1-.8-3.919,9.848,9.848,0,0,1,.8-3.944,10.106,10.106,0,0,1,2.174-3.211,10.367,10.367,0,0,1,3.224-2.162,9.786,9.786,0,0,1,3.919-.8,9.848,9.848,0,0,1,3.944.8,10.213,10.213,0,0,1,3.211,2.162,10.212,10.212,0,0,1,2.162,3.211,9.848,9.848,0,0,1,.8,3.944,9.786,9.786,0,0,1-.8,3.919,10.365,10.365,0,0,1-2.162,3.224,10.1,10.1,0,0,1-3.211,2.174A9.846,9.846,0,0,1,90.114-859.773Z" transform="translate(-80 880)" fill="#27246d"/>
</svg>
