<svg xmlns="http://www.w3.org/2000/svg" width="25.842" height="25.842" viewBox="0 0 25.842 25.842">
  <path id="search_FILL0_wght400_GRAD0_opsz24_1_" data-name="search_FILL0_wght400_GRAD0_opsz24 (1)" d="M129.557-820.885a9.226,9.226,0,0,1-6.782-2.775A9.226,9.226,0,0,1,120-830.443a9.226,9.226,0,0,1,2.775-6.782A9.226,9.226,0,0,1,129.557-840a9.226,9.226,0,0,1,6.782,2.775,9.226,9.226,0,0,1,2.775,6.782,8.963,8.963,0,0,1-.515,3.051,8.762,8.762,0,0,1-1.4,2.536l8.234,8.234a1.394,1.394,0,0,1,.4,1.029,1.4,1.4,0,0,1-.4,1.029,1.394,1.394,0,0,1-1.029.4,1.394,1.394,0,0,1-1.029-.4l-8.234-8.234a8.761,8.761,0,0,1-2.536,1.4A8.961,8.961,0,0,1,129.557-820.885Zm0-2.941a6.381,6.381,0,0,0,4.687-1.93,6.381,6.381,0,0,0,1.93-4.687,6.38,6.38,0,0,0-1.93-4.687,6.381,6.381,0,0,0-4.687-1.93,6.381,6.381,0,0,0-4.687,1.93,6.38,6.38,0,0,0-1.93,4.687,6.381,6.381,0,0,0,1.93,4.687A6.381,6.381,0,0,0,129.557-823.826Z" transform="translate(-120 840)" fill="#b4b5d9"/>
</svg>
