<svg xmlns="http://www.w3.org/2000/svg" width="25.842" height="32.665" viewBox="0 0 25.842 32.665">
  <path id="swap_vert_FILL1_wght400_GRAD0_opsz24" d="M184.8-844.962a1.65,1.65,0,0,1-1.215-.49,1.651,1.651,0,0,1-.49-1.215V-857.2l-3.2,3.2a1.591,1.591,0,0,1-1.173.469,1.738,1.738,0,0,1-1.215-.469,1.66,1.66,0,0,1-.512-1.215,1.66,1.66,0,0,1,.512-1.215l6.1-6.1a1.5,1.5,0,0,1,.554-.362,1.883,1.883,0,0,1,.64-.107,1.882,1.882,0,0,1,.64.107,1.5,1.5,0,0,1,.554.362l6.141,6.141a1.562,1.562,0,0,1,.49,1.194A1.717,1.717,0,0,1,192.1-854a1.8,1.8,0,0,1-1.194.49,1.562,1.562,0,0,1-1.194-.49l-3.2-3.2v10.532a1.651,1.651,0,0,1-.49,1.215A1.65,1.65,0,0,1,184.8-844.962Zm10.234,14.626a1.892,1.892,0,0,1-.64-.106,1.5,1.5,0,0,1-.554-.363l-6.141-6.141a1.563,1.563,0,0,1-.49-1.194,1.717,1.717,0,0,1,.533-1.194,1.8,1.8,0,0,1,1.194-.49,1.562,1.562,0,0,1,1.194.49l3.2,3.2v-10.533a1.65,1.65,0,0,1,.49-1.215,1.651,1.651,0,0,1,1.215-.49,1.651,1.651,0,0,1,1.215.49,1.65,1.65,0,0,1,.49,1.215v10.533l3.2-3.2a1.592,1.592,0,0,1,1.173-.469,1.738,1.738,0,0,1,1.215.469,1.661,1.661,0,0,1,.512,1.215,1.66,1.66,0,0,1-.512,1.215l-6.1,6.1a1.5,1.5,0,0,1-.554.363A1.891,1.891,0,0,1,195.038-830.335Z" transform="translate(-177 863)" fill="#b4b5d9"/>
</svg>
