<svg xmlns="http://www.w3.org/2000/svg" width="25.842" height="18.071" viewBox="0 0 25.842 18.071">
  <path id="visibility_FILL1_wght400_GRAD0_opsz24" d="M63.921-785.543a5.228,5.228,0,0,0,3.84-1.581,5.228,5.228,0,0,0,1.581-3.84,5.228,5.228,0,0,0-1.581-3.84,5.228,5.228,0,0,0-3.84-1.581,5.228,5.228,0,0,0-3.84,1.581,5.228,5.228,0,0,0-1.581,3.84,5.228,5.228,0,0,0,1.581,3.84A5.228,5.228,0,0,0,63.921-785.543Zm0-2.169a3.137,3.137,0,0,1-2.3-.949,3.137,3.137,0,0,1-.949-2.3,3.137,3.137,0,0,1,.949-2.3,3.137,3.137,0,0,1,2.3-.949,3.137,3.137,0,0,1,2.3.949,3.137,3.137,0,0,1,.949,2.3,3.137,3.137,0,0,1-.949,2.3A3.137,3.137,0,0,1,63.921-787.712Zm0,5.783a13.207,13.207,0,0,1-7.364-2.169A15.579,15.579,0,0,1,51.3-789.82a2.406,2.406,0,0,1-.226-.557,2.3,2.3,0,0,1-.075-.587,2.3,2.3,0,0,1,.075-.587,2.4,2.4,0,0,1,.226-.557,15.578,15.578,0,0,1,5.256-5.722A13.207,13.207,0,0,1,63.921-800a13.207,13.207,0,0,1,7.364,2.169,15.578,15.578,0,0,1,5.256,5.722,2.4,2.4,0,0,1,.226.557,2.3,2.3,0,0,1,.075.587,2.3,2.3,0,0,1-.075.587,2.4,2.4,0,0,1-.226.557,15.579,15.579,0,0,1-5.256,5.723A13.207,13.207,0,0,1,63.921-781.929Z" transform="translate(-51 800)" fill="#27246d"/>
</svg>
