<svg xmlns="http://www.w3.org/2000/svg" width="25.842" height="22.803" viewBox="0 0 25.842 22.803">
  <path id="visibility_off_FILL1_wght400_GRAD0_opsz24" d="M72.449-808.528l-4.212-4.151a14.344,14.344,0,0,1-2.136.5,14.53,14.53,0,0,1-2.2.165,13.265,13.265,0,0,1-7.37-2.166A15.272,15.272,0,0,1,51.3-819.9a2.4,2.4,0,0,1-.226-.557,2.3,2.3,0,0,1-.075-.587,2.3,2.3,0,0,1,.075-.587,2.4,2.4,0,0,1,.226-.557q.662-1.173,1.414-2.286a10.329,10.329,0,0,1,1.745-1.985l-2.5-2.527a1.123,1.123,0,0,1-.331-.827,1.171,1.171,0,0,1,.361-.857,1.141,1.141,0,0,1,.842-.331,1.141,1.141,0,0,1,.842.331l20.457,20.457a1.176,1.176,0,0,1,.346.827,1.12,1.12,0,0,1-.346.857,1.141,1.141,0,0,1-.842.331A1.141,1.141,0,0,1,72.449-808.528Zm-8.544-7.1q.331,0,.632-.03a3.194,3.194,0,0,0,.6-.12l-6.5-6.5a3.2,3.2,0,0,0-.12.6q-.03.3-.03.632a5.222,5.222,0,0,0,1.579,3.836A5.222,5.222,0,0,0,63.906-815.627Zm0-14.44a13.271,13.271,0,0,1,7.385,2.181,15.346,15.346,0,0,1,5.25,5.731,1.9,1.9,0,0,1,.226.526,2.3,2.3,0,0,1,.075.587,2.841,2.841,0,0,1-.06.587,1.612,1.612,0,0,1-.211.526,17.057,17.057,0,0,1-1.279,2.106,14.674,14.674,0,0,1-1.579,1.865,1.258,1.258,0,0,1-.993.391,1.474,1.474,0,0,1-.993-.451l-2.407-2.407a.972.972,0,0,1-.271-.5,1.173,1.173,0,0,1,.03-.587,5.814,5.814,0,0,0,.18-.752,4.763,4.763,0,0,0,.06-.782,5.222,5.222,0,0,0-1.579-3.836,5.222,5.222,0,0,0-3.836-1.579,4.759,4.759,0,0,0-.782.06,5.8,5.8,0,0,0-.752.181,1.227,1.227,0,0,1-.6.03.978.978,0,0,1-.511-.271l-.993-.993a1.3,1.3,0,0,1-.376-1.324,1.272,1.272,0,0,1,.948-.963q.752-.15,1.519-.241A13.272,13.272,0,0,1,63.906-830.067Zm2.377,6.8a4.057,4.057,0,0,1,.557.857,3.046,3.046,0,0,1,.286.978.286.286,0,0,1-.18.331.331.331,0,0,1-.391-.09l-2.467-2.467a.313.313,0,0,1-.075-.391.359.359,0,0,1,.346-.211,2.86,2.86,0,0,1,1.053.316A3.3,3.3,0,0,1,66.282-823.268Z" transform="translate(-51 831)" fill="#8385b4"/>
</svg>
