<svg width="230" height="210" viewBox="0 0 230 210" fill="none" xmlns="http://www.w3.org/2000/svg">
<path d="M170.258 159.443V159.128C170.334 158.494 170.616 157.896 171.066 157.41C171.517 156.924 172.116 156.571 172.788 156.398C173.823 156.188 174.8 156.66 175.778 157.238C176.123 155.715 177.215 154.455 178.595 154.298C179.975 154.14 181.24 155.138 181.988 156.608C182.448 155.295 182.62 153.878 183.195 152.67C183.77 151.463 184.92 150.203 186.243 150.308C188.658 150.465 190.21 153.878 191.073 156.66C191.455 156.274 191.927 155.969 192.454 155.77C192.981 155.57 193.55 155.48 194.12 155.505C195.118 155.583 196.082 155.871 196.938 156.345C197.628 156.713 198.72 157.08 199.065 158.025C199.187 158.215 199.228 158.439 199.18 158.655C199.813 159.128 199.698 160.545 198.835 160.545H171.005C170.43 160.545 170.2 159.968 170.258 159.443Z" fill="#DBD4E4"/>
<path d="M166.347 23.6251C147.717 23.5201 132.537 37.1701 132.537 53.9701C132.537 37.1701 117.415 23.5201 98.7849 23.6251C89.9284 23.7217 81.4696 26.9984 75.2389 32.7462C69.0083 38.494 65.5069 46.2506 65.4924 54.3376C65.4898 61.6358 67.1148 68.8581 70.2682 75.5644C73.4217 82.2707 78.0377 88.3204 83.8349 93.3451L132.537 135.713L181.24 93.3451C187.037 88.3204 191.653 82.2707 194.807 75.5644C197.96 68.8581 199.585 61.6358 199.582 54.3376C199.568 46.2596 196.075 38.5108 189.856 32.7644C183.638 27.0181 175.194 23.7354 166.347 23.6251Z" fill="#B8A9C7"/>
<path d="M184.805 115.658H167.957V100.275H152.605V115.658H135.7V129.675H152.605V145.11H167.957V129.675H184.805V115.658Z" fill="url(#paint0_linear_9430_5974)"/>
<path d="M117.933 86.2576H143.865C144.252 86.3041 144.646 86.2682 145.015 86.1526C145.575 85.7204 146.094 85.2463 146.568 84.7351L147.948 83.4226H147.373L151.973 87.6226C152.022 87.6597 152.081 87.6854 152.144 87.6976C152.206 87.7098 152.271 87.7081 152.333 87.6927C152.395 87.6773 152.452 87.6486 152.499 87.609C152.547 87.5694 152.583 87.5201 152.605 87.4651C154.215 82.4251 155.768 77.3326 157.32 72.2926L158.01 70.1401H157.263L161.23 92.5576L161.748 95.7076C161.777 95.7758 161.829 95.8343 161.896 95.8755C161.962 95.9167 162.041 95.9387 162.121 95.9387C162.202 95.9387 162.28 95.9167 162.347 95.8755C162.414 95.8343 162.465 95.7758 162.495 95.7076L168.015 81.1126C168.303 80.3776 168.533 79.6951 168.82 79.0126H168.073C168.935 82.5301 169.74 86.1001 170.603 89.6701C170.633 89.7275 170.679 89.7766 170.737 89.8127C170.795 89.8488 170.862 89.8705 170.931 89.8758C171.001 89.8811 171.071 89.8698 171.134 89.8429C171.197 89.816 171.252 89.7746 171.293 89.7226L175.375 83.3701L174.858 83.4751L178.48 85.6276C179 86.0536 179.68 86.2793 180.378 86.2576H194.005C194.112 86.2576 194.214 86.2189 194.29 86.15C194.365 86.0811 194.408 85.9876 194.408 85.8901C194.408 85.7927 194.365 85.6992 194.29 85.6303C194.214 85.5613 194.112 85.5226 194.005 85.5226H179.745C179.573 85.5226 179.515 85.4701 179.745 85.5751L179.285 85.3126L175.26 82.8976C175.22 82.8694 175.174 82.8496 175.124 82.8395C175.075 82.8295 175.024 82.8294 174.974 82.8395C174.925 82.8495 174.879 82.8693 174.839 82.8975C174.798 82.9257 174.766 82.9616 174.743 83.0026L170.66 89.3551L171.35 89.4601C170.488 85.8901 169.683 82.3726 168.82 78.8026C168.79 78.7344 168.739 78.6759 168.672 78.6347C168.605 78.5935 168.527 78.5715 168.446 78.5715C168.366 78.5715 168.287 78.5935 168.221 78.6347C168.154 78.6759 168.102 78.7344 168.073 78.8026L162.553 93.3976C162.323 94.0801 162.035 94.8151 161.748 95.4976H162.495L158.528 73.0801L158.01 69.9826C157.953 69.6151 157.378 69.6676 157.263 69.9826C155.653 75.0226 154.1 80.0626 152.548 85.1026L151.858 87.2551L152.49 87.0976L147.948 82.9501C147.91 82.9152 147.865 82.8875 147.816 82.8685C147.767 82.8496 147.714 82.8398 147.66 82.8398C147.606 82.8398 147.553 82.8496 147.504 82.8685C147.455 82.8875 147.41 82.9152 147.373 82.9501L146.05 84.1576L145.015 85.1026C144.859 85.2904 144.686 85.466 144.498 85.6276L143.003 85.5226H117.933C117.826 85.5226 117.723 85.5613 117.648 85.6303C117.572 85.6992 117.53 85.7927 117.53 85.8901C117.53 85.9876 117.572 86.0811 117.648 86.15C117.723 86.2189 117.826 86.2576 117.933 86.2576Z" fill="white"/>
<path d="M94.8751 197.453C126.219 197.453 151.628 196.019 151.628 194.25C151.628 192.481 126.219 191.048 94.8751 191.048C63.5315 191.048 38.1226 192.481 38.1226 194.25C38.1226 196.019 63.5315 197.453 94.8751 197.453Z" fill="#E2DDE9"/>
<path d="M71.2427 187.215C81.7652 145.058 79.0627 106.838 79.0627 106.838C79.0627 106.838 79.2927 96.6527 62.1002 137.498C56.5802 150.623 57.6727 166.95 60.3752 177.608C61.2248 181.14 61.5918 184.755 61.4677 188.37V193.41H84.1227L71.2427 187.215Z" fill="#201751"/>
<path d="M71.7026 123.428C71.7026 123.428 79.4076 113.243 79.0626 106.838H50.0826C49.2161 112.647 48.8699 118.512 49.0476 124.373C49.2594 129.458 49.0094 134.55 48.3001 139.598C47.7826 143.168 47.3801 148.68 47.3801 157.185C47.3801 159.128 47.9551 168.42 48.9901 175.98C49.7376 181.44 50.0826 188.37 50.0826 188.37V193.41H72.7376L59.6851 188.37L71.7026 123.428Z" fill="#483C70"/>
<path d="M98.785 109.463C98.785 109.463 97.75 157.133 97.635 188.265H103.96C104.88 179.183 113.333 163.485 114.08 147.525C115 128.783 122.303 118.493 122.303 111.773C122.303 97.7027 114.713 112.193 114.77 104.895C114.828 97.5977 97.9225 109.095 98.785 109.463Z" fill="#7E739A"/>
<path d="M124.143 106.838C124.143 106.838 129.203 115.868 128.8 125.055C128.57 130.148 128.628 134.243 129.893 139.23C135.7 161.858 130.008 169.89 130.64 182.333C130.87 186.008 130.985 188.37 130.985 188.37H125.35L104.42 108.255C104.42 108.255 97.0601 113.243 97.4051 106.838H124.143Z" fill="#B6AFC6"/>
<path d="M110.4 48.9302C110.4 48.9302 102.58 48.6677 104.938 44.5202C108.733 38.0627 122.475 41.7377 123.338 51.6077C123.798 56.7527 118.278 59.0627 124.89 61.4252C132.538 64.2077 134.32 69.1952 130.87 75.4952C128.168 80.4302 138.518 91.6652 123.51 94.8152C105.11 98.7527 104.478 99.2777 99.1877 86.2577C93.4952 72.2402 110.4 48.9302 110.4 48.9302Z" fill="#2B2159"/>
<path d="M83.1452 79.6426L79.0627 81.3226C79.3202 85.5018 79.3202 89.6909 79.0627 93.8701C84.8702 99.3826 97.2327 95.4976 97.2327 95.4976V89.1451C89.8152 92.6626 87.2277 87.4126 83.1452 79.6426Z" fill="#C3BDD0"/>
<path d="M79.0627 81.3227L83.0877 79.6952L80.6727 74.9177C75.2677 64.5752 62.3302 63.4727 62.3302 63.4727L59.5127 64.6277C56.5227 65.9402 53.9352 67.5677 51.7502 71.1902C49.4676 75.0213 48.5624 79.4109 49.1627 83.7377L48.9902 109.463H80.0402C80.0402 109.463 79.5227 86.7827 79.0627 81.3227Z" fill="#736791"/>
<path d="M122.418 68.0928C122.418 68.0928 120.923 66.6753 114.425 64.2078L107.525 64.6278C107.525 64.6278 101.143 62.8428 96.0252 68.2503C90.9077 73.6578 87.6877 77.0178 80.0977 73.9203C80.3233 74.2355 80.5158 74.5695 80.6727 74.9178C81.8227 77.1228 83.6627 80.6928 84.6977 82.5828C86.8191 83.1126 89.0425 83.2085 91.2092 82.8636C93.3759 82.5188 95.4326 81.7417 97.2327 80.5878V101.43C97.2327 101.43 114.598 102.218 118.968 92.0853C123.338 81.9528 122.418 68.0928 122.418 68.0928Z" fill="white"/>
<path d="M61.6978 59.2727V62.9477C61.697 63.4963 61.8433 64.0367 62.1239 64.5217C62.4046 65.0067 62.811 65.4216 63.3078 65.7302C65.4928 67.0952 69.1728 68.7752 69.4028 64.6277L68.5978 61.6877L61.6978 59.2727Z" fill="#C3BDD0"/>
<path d="M62.9053 57.9601V54.3376C62.4883 54.4625 62.0843 54.6206 61.6978 54.8101V59.7976L62.9053 59.5876V57.9601Z" fill="#D2CDDC"/>
<path d="M67.0453 49.8228L65.6653 50.0328C65.3508 50.0884 65.0516 50.2006 64.7851 50.3628C64.5185 50.5251 64.29 50.7341 64.1128 50.9778V56.1228C64.701 56.5368 65.3952 56.8071 66.1296 56.9081C66.864 57.0091 67.6145 56.9376 68.3103 56.7003C69.1469 56.3857 70.0541 56.2596 70.9553 56.3328C71.6089 56.3786 72.222 56.6398 72.6803 57.0677C72.6803 56.1227 72.7378 53.8128 72.7378 50.6628C71.3578 50.4528 69.7478 49.9803 68.1378 49.8228H67.0453Z" fill="#D2CDDC"/>
<path d="M75.2678 44.0477C75.5553 41.9477 73.7153 39.3752 70.9553 40.2152C68.1953 41.0552 70.5528 43.6802 66.8153 44.1002C63.0778 44.5202 57.3853 42.3152 58.4778 48.9302C58.4778 48.9302 56.2928 48.9302 56.7528 52.5002C57.2128 56.0702 60.2603 59.4827 61.6978 59.7977V54.8102C62.0844 54.6207 62.4884 54.4626 62.9053 54.3377V61.7402C62.9053 61.7402 65.7803 65.2577 70.6103 65.2577C71.3781 65.244 72.1093 64.9558 72.6469 64.4552C73.1844 63.9545 73.4855 63.2813 73.4853 62.5802V58.9052C73.489 58.2661 73.2319 57.6486 72.7642 57.173C72.2965 56.6975 71.6517 56.3979 70.9553 56.3327C70.0541 56.2596 69.1469 56.3856 68.3103 56.7002C67.6146 56.9376 66.8641 57.0091 66.1296 56.9081C65.3952 56.807 64.7011 56.5367 64.1128 56.1227V50.9777C64.29 50.7341 64.5186 50.525 64.7851 50.3628C65.0516 50.2005 65.3509 50.0883 65.6653 50.0327C66.475 49.8591 67.307 49.7884 68.1378 49.8227C71.3003 50.0852 74.3478 51.6602 75.6128 50.1902C76.8778 48.7202 76.0728 48.6677 75.4403 48.2477C78.3728 46.3577 76.7628 44.8877 75.2678 44.0477Z" fill="#2B2159"/>
<path d="M62.9053 52.0278H62.4453C62.1583 52.0278 61.8742 52.0794 61.6091 52.1797C61.344 52.28 61.1031 52.4269 60.9002 52.6122C60.6973 52.7974 60.5364 53.0173 60.4266 53.2594C60.3168 53.5014 60.2603 53.7608 60.2603 54.0228C60.2603 54.2848 60.3168 54.5442 60.4266 54.7863C60.5364 55.0283 60.6973 55.2483 60.9002 55.4335C61.1031 55.6188 61.344 55.7657 61.6091 55.866C61.8742 55.9662 62.1583 56.0178 62.4453 56.0178H62.9053V52.0278Z" fill="#D2CDDC"/>
<path d="M126.673 86.9402L125.753 92.0852C124.844 97.424 125.277 102.881 127.018 108.045C127.995 110.775 128.858 113.558 129.548 116.393L131.56 125.055H95.1052L96.7152 102.69L114.425 93.6602L126.673 86.9402Z" fill="#EBE7F2"/>
<path d="M104.88 74.6553C104.88 74.6553 111.32 70.7178 114.425 64.2078L107.468 65.5203C105.791 68.3232 104.902 71.4618 104.88 74.6553Z" fill="#B6AFC6"/>
<path d="M104.938 74.6552C106.078 73.9088 107.155 73.0839 108.158 72.1877L108.733 68.6177C108.733 68.6177 106.433 69.2477 104.938 73.8677C104.938 74.1302 104.88 74.3402 104.88 74.6027L104.938 74.6552Z" fill="url(#paint1_linear_9430_5974)"/>
<path d="M108.56 66.3602L108.043 67.3577C107.874 67.6771 107.787 68.027 107.787 68.3814C107.787 68.7359 107.874 69.0857 108.043 69.4052L108.503 69.3002C108.87 69.1738 109.204 68.9773 109.481 68.7238C109.759 68.4703 109.974 68.1657 110.113 67.8302L110.86 66.0452L108.56 66.3602Z" fill="url(#paint2_linear_9430_5974)"/>
<path d="M107.468 65.5203C106.992 66.3114 106.589 67.1366 106.26 67.9878L109.193 66.9903L110.918 69.4053C112.355 67.8363 113.537 66.0856 114.425 64.2078L107.468 65.5203Z" fill="white"/>
<path d="M115.748 68.6176C116.297 68.1441 116.949 67.781 117.662 67.5518C118.374 67.3225 119.131 67.2322 119.884 67.2866C120.637 67.341 121.37 67.539 122.034 67.8677C122.698 68.1964 123.279 68.6486 123.74 69.1951C125.638 71.3476 127.363 75.2851 127.133 82.2151C126.673 96.5476 119.715 102.113 101.488 102.69C101.488 102.69 96.1402 105.683 92.6902 105.578C92.4602 105.578 92.2877 105.315 92.4602 105.158C92.8825 104.649 93.41 104.221 94.0127 103.898C93.2116 104.375 92.3112 104.697 91.3677 104.843C91.1952 104.843 91.0802 104.633 91.1952 104.528C91.7422 103.967 92.3825 103.489 93.0927 103.11C93.0927 103.11 91.1377 103.95 90.3902 103.845C89.6427 103.74 92.6327 101.798 92.6327 101.798C92.6327 101.798 89.5852 103.583 89.1827 103.11C88.7802 102.638 92.4027 99.3826 94.8752 99.0151C95.8527 98.8576 96.0827 98.4901 95.0477 98.1751C94.6534 98.0245 94.3113 97.7789 94.0581 97.4644C93.8049 97.15 93.6501 96.7787 93.6102 96.3901C93.6102 95.9176 94.4727 96.0226 94.9327 96.6001C95.4303 97.1682 96.1163 97.5735 96.8877 97.7551C97.2902 97.7551 99.6477 99.0676 99.6477 99.0676C99.6477 99.0676 113.85 94.1851 113.448 86.2576C113.103 79.6426 110.803 72.7651 115.748 68.6176Z" fill="#C3BDD0"/>
<path d="M99.6477 99.0676C99.6477 99.0676 113.85 94.1851 113.448 86.2576C113.103 79.6426 110.803 72.7651 115.748 68.6176C116.297 68.1441 116.949 67.781 117.662 67.5518C118.374 67.3225 119.131 67.2322 119.884 67.2866C120.637 67.341 121.37 67.539 122.034 67.8677C122.698 68.1964 123.279 68.6486 123.74 69.1951C125.638 71.3476 127.363 75.2851 127.133 82.2151C126.673 96.5476 119.715 102.113 101.488 102.69C101.258 99.8026 99.6477 99.0676 99.6477 99.0676Z" fill="white"/>
<path d="M98.9003 81.4803C97.9265 79.5186 97.7432 77.3059 98.3828 75.2328C98.8428 73.8153 101.315 69.9828 102.638 72.7653C103.96 75.5478 102.005 79.3803 100.798 81.7428C100.683 81.9528 101.085 82.1628 101.2 81.9528C102.293 79.7478 103.385 77.1753 103.385 74.7603C103.385 73.7103 103.27 71.8728 101.948 71.4528C100.625 71.0328 98.8428 72.9753 98.3828 74.0778C97.8458 75.2897 97.5794 76.5874 97.5992 77.8946C97.6189 79.2018 97.9244 80.4923 98.4978 81.6903C98.6128 81.9003 98.9578 81.7428 98.9003 81.4803Z" fill="url(#paint3_linear_9430_5974)"/>
<path d="M114.598 64.2077C116.898 66.7802 113.505 70.6127 112.125 72.9752C112.01 73.1327 112.355 73.3427 112.47 73.1327C113.965 70.6652 117.358 66.7802 114.885 63.9977C114.87 63.9804 114.851 63.9661 114.83 63.9554C114.809 63.9448 114.786 63.938 114.762 63.9356C114.738 63.9332 114.713 63.9351 114.69 63.9412C114.667 63.9474 114.645 63.9576 114.626 63.9714C114.608 63.9852 114.592 64.0022 114.58 64.0216C114.569 64.0409 114.561 64.0622 114.558 64.0841C114.556 64.106 114.558 64.1282 114.565 64.1494C114.571 64.1706 114.583 64.1904 114.598 64.2077Z" fill="#2F245C"/>
<path d="M106.663 63.9453C102.235 64.0503 101.775 68.4603 101.143 71.5053C101.085 71.7153 101.488 71.8203 101.545 71.6103C102.12 68.7228 102.465 64.4178 106.663 64.3128C106.893 64.3128 106.893 63.9453 106.663 63.9453Z" fill="url(#paint4_linear_9430_5974)"/>
<path d="M98.6128 82.2676C98.6888 82.3141 98.7769 82.3414 98.8682 82.3467C98.9595 82.352 99.0507 82.3352 99.1325 82.2978C99.2143 82.2605 99.2838 82.204 99.3339 82.1341C99.384 82.0643 99.413 81.9835 99.4178 81.9001C99.435 81.7686 99.3972 81.6361 99.3119 81.529C99.2266 81.4219 99.1001 81.3482 98.9578 81.3226C98.8298 81.3101 98.7007 81.3336 98.5876 81.3899C98.4746 81.4461 98.3831 81.5326 98.3253 81.6376C98.2869 81.6944 98.2638 81.7586 98.258 81.8251C98.2522 81.8916 98.2639 81.9584 98.292 82.02C98.3201 82.0816 98.3638 82.1361 98.4196 82.1792C98.4754 82.2223 98.5416 82.2526 98.6128 82.2676C98.8428 82.4251 99.0153 82.0576 98.7853 81.9526L98.6703 81.8476L98.8428 81.7426H99.0153C99.0728 81.8476 98.9003 81.9526 98.7853 81.9001C98.6703 81.8476 98.3253 82.1626 98.6128 82.2676Z" fill="url(#paint5_linear_9430_5974)"/>
<path d="M100.51 82.5302C100.586 82.5767 100.674 82.604 100.765 82.6093C100.857 82.6146 100.948 82.5977 101.03 82.5604C101.112 82.523 101.181 82.4666 101.231 82.3967C101.281 82.3268 101.31 82.2461 101.315 82.1627C101.332 82.0312 101.295 81.8987 101.209 81.7916C101.124 81.6845 100.997 81.6108 100.855 81.5852C100.729 81.5848 100.605 81.6135 100.495 81.6685C100.384 81.7236 100.29 81.8033 100.223 81.9002C100.05 82.1627 100.223 82.3727 100.51 82.5302C100.798 82.6877 100.97 82.3202 100.683 82.2152L100.568 82.1102L100.74 82.0052C100.798 82.0052 100.855 82.0052 100.913 82.1102C100.97 82.2152 100.798 82.3202 100.683 82.2677C100.568 82.2152 100.223 82.4252 100.51 82.5302Z" fill="url(#paint6_linear_9430_5974)"/>
<path d="M110.803 75.8626C112.068 76.2301 113.85 75.2851 113.218 73.6576C112.585 72.0301 109.595 72.5551 109.71 74.4451C109.704 74.7566 109.807 75.0617 110.003 75.3165C110.2 75.5713 110.48 75.7625 110.803 75.8626Z" fill="url(#paint7_linear_9430_5974)"/>
<path d="M111.32 74.8125C111.439 74.856 111.569 74.8656 111.693 74.8403C111.818 74.815 111.931 74.7559 112.018 74.6707C112.105 74.5855 112.162 74.4782 112.181 74.363C112.2 74.2477 112.181 74.1299 112.125 74.025C111.895 73.3425 110.86 73.6575 110.918 74.2875C110.9 74.4052 110.932 74.5246 111.007 74.6219C111.081 74.7191 111.193 74.7872 111.32 74.8125Z" fill="white"/>
<path d="M53.0152 68.5652C53.0152 68.5652 51.6352 68.7752 51.4627 69.4052C51.2902 70.0352 50.0252 70.4552 49.8527 70.8752C49.7241 71.6754 49.6473 72.4818 49.6227 73.2902V73.7102C49.6101 74.0286 49.6489 74.347 49.7377 74.6552C50.0252 76.0202 50.4852 75.6527 50.6577 74.3402C50.9452 75.1277 51.2902 74.6552 51.4052 73.4477C51.7502 74.6027 52.1527 74.0777 52.2677 72.6077C52.7277 74.1827 53.3602 72.3452 53.1302 69.4577C53.4752 69.6677 54.6252 70.2452 54.7402 69.4052C54.8552 68.5652 53.0152 68.5652 53.0152 68.5652Z" fill="#D2CDDC"/>
<path d="M115.575 53.9177C115.64 53.4239 115.49 52.9265 115.156 52.5334C114.823 52.1403 114.333 51.8831 113.793 51.8177C113.965 50.9252 114.195 50.1902 114.31 49.7702C112.47 49.8752 109.078 49.5077 107.468 45.9377C107.36 45.6681 107.302 45.3844 107.295 45.0977C106.088 45.8327 104.995 47.0402 104.133 49.0877C103.27 51.1352 101.948 54.8627 102.465 57.4352C103.27 60.9527 105.513 61.3727 108.388 60.8477C108.388 60.8477 104.995 68.0402 109.078 67.5677C113.16 67.0952 114.483 64.1027 114.483 64.1027L115 59.4827C113.85 58.6427 113.448 57.1727 113.39 55.5452C113.915 55.5894 114.438 55.4436 114.847 55.1392C115.256 54.8349 115.517 54.3962 115.575 53.9177Z" fill="#D2CDDC"/>
<path d="M95.9101 99.6453C94.9901 99.4878 94.7026 99.1203 95.7376 98.8053C96.1319 98.6547 96.474 98.4091 96.7272 98.0946C96.9804 97.7802 97.1352 97.4089 97.1751 97.0203C97.1751 96.5478 96.3126 96.6528 95.8526 97.2303C95.3757 97.7946 94.7091 98.2004 93.9551 98.3853C93.4951 98.3853 91.1376 99.6978 91.1376 99.6978C91.1376 99.6978 79.8101 99.2778 72.7376 97.6503C65.6651 96.0228 64.0551 97.3878 63.7101 86.9928C63.7101 85.8903 63.8826 84.7878 63.9976 83.6853H50.0826C48.9901 90.9303 51.9226 101.01 58.0751 103.635C63.0201 105.735 71.7026 106.733 89.2976 103.32C89.2976 103.32 94.6451 106.313 98.1526 106.208C98.3826 106.208 99.7051 104.58 100.453 104.475C101.2 104.37 101.258 104.213 101.603 103.74C101.948 103.268 98.4401 100.013 95.9101 99.6453Z" fill="#D2CDDC"/>
<path d="M97.6351 188.265L83.0876 193.358H104.363L103.96 188.265H97.6351Z" fill="#2B2159"/>
<path d="M125.35 188.37L109.653 193.41H130.985V188.37H125.35Z" fill="#2B2159"/>
<path d="M97.2326 74.1826H96.8301V82.8136H97.2326V74.1826Z" fill="#867CA1"/>
<defs>
<linearGradient id="paint0_linear_9430_5974" x1="135.717" y1="122.677" x2="184.828" y2="122.677" gradientUnits="userSpaceOnUse">
<stop offset="0.04" stop-color="#FF753B"/>
<stop offset="1" stop-color="#FF6E30"/>
</linearGradient>
<linearGradient id="paint1_linear_9430_5974" x1="104.903" y1="71.6312" x2="108.733" y2="71.6312" gradientUnits="userSpaceOnUse">
<stop offset="0.04" stop-color="#FF753B"/>
<stop offset="1" stop-color="#FF6E30"/>
</linearGradient>
<linearGradient id="paint2_linear_9430_5974" x1="107.767" y1="67.7357" x2="110.883" y2="67.7357" gradientUnits="userSpaceOnUse">
<stop offset="0.04" stop-color="#FF753B"/>
<stop offset="1" stop-color="#FF6E30"/>
</linearGradient>
<linearGradient id="paint3_linear_9430_5974" x1="97.6065" y1="76.7133" x2="103.408" y2="76.7133" gradientUnits="userSpaceOnUse">
<stop offset="0.04" stop-color="#FF753B"/>
<stop offset="1" stop-color="#FF6E30"/>
</linearGradient>
<linearGradient id="paint4_linear_9430_5974" x1="101.143" y1="67.8356" x2="106.847" y2="67.8356" gradientUnits="userSpaceOnUse">
<stop offset="0.04" stop-color="#FF753B"/>
<stop offset="1" stop-color="#FF6E30"/>
</linearGradient>
<linearGradient id="paint5_linear_9430_5974" x1="98.2448" y1="81.8424" x2="99.4408" y2="81.8424" gradientUnits="userSpaceOnUse">
<stop offset="0.04" stop-color="#FF753B"/>
<stop offset="1" stop-color="#FF6E30"/>
</linearGradient>
<linearGradient id="paint6_linear_9430_5974" x1="100.148" y1="82.0892" x2="101.35" y2="82.0892" gradientUnits="userSpaceOnUse">
<stop offset="0.04" stop-color="#FF753B"/>
<stop offset="1" stop-color="#FF6E30"/>
</linearGradient>
<linearGradient id="paint7_linear_9430_5974" x1="109.733" y1="74.2404" x2="113.367" y2="74.2404" gradientUnits="userSpaceOnUse">
<stop offset="0.04" stop-color="#FF753B"/>
<stop offset="1" stop-color="#FF6E30"/>
</linearGradient>
</defs>
</svg>
