<svg width="20" height="21" viewBox="0 0 20 21" fill="none" xmlns="http://www.w3.org/2000/svg">
<path d="M10 2.99707C14.41 2.99707 18 6.58707 18 10.9971C18 15.4071 14.41 18.9971 10 18.9971C5.59 18.9971 2 15.4071 2 10.9971C2 6.58707 5.59 2.99707 10 2.99707ZM10 0.99707C4.477 0.99707 0 5.47407 0 10.9971C0 16.5201 4.477 20.9971 10 20.9971C15.523 20.9971 20 16.5201 20 10.9971C20 5.47407 15.523 0.99707 10 0.99707ZM15 9.99707H11V5.99707H9V9.99707H5V11.9971H9V15.9971H11V11.9971H15V9.99707Z" fill="#ED6E00"/>
</svg>
