<?xml version="1.0" encoding="UTF-8"?>
<!DOCTYPE svg PUBLIC "-//W3C//DTD SVG 1.1//EN" "http://www.w3.org/Graphics/SVG/1.1/DTD/svg11.dtd">
<!-- Creator: CorelDRAW 2020 (64-Bit) -->
<svg xmlns="http://www.w3.org/2000/svg" xml:space="preserve" width="230mm" height="51.9997mm" version="1.1" style="shape-rendering:geometricPrecision; text-rendering:geometricPrecision; image-rendering:optimizeQuality; fill-rule:evenodd; clip-rule:evenodd"
viewBox="0 0 23363.17 5282.08"
 xmlns:xlink="http://www.w3.org/1999/xlink"
 xmlns:xodm="http://www.corel.com/coreldraw/odm/2003">
 <defs>
  <style type="text/css">
   <![CDATA[
    .fil11 {fill:none}
    .fil12 {fill:#FEFEFE}
    .fil2 {fill:#4DC8F4}
    .fil9 {fill:#00A357}
    .fil0 {fill:#00B7FA}
    .fil3 {fill:#065673}
    .fil7 {fill:#113075}
    .fil4 {fill:#84AABD}
    .fil6 {fill:#B9D1DE}
    .fil5 {fill:#CCDDE6}
    .fil1 {fill:#FEFEFE}
    .fil10 {fill:#FF0009}
    .fil8 {fill:#00A357;fill-rule:nonzero}
    .fil13 {fill:#FEFEFE;fill-rule:nonzero}
   ]]>
  </style>
 </defs>
 <g id="Capa_x0020_1">
  <metadata id="CorelCorpID_0Corel-Layer"/>
  <rect class="fil0" x="0.03" y="-0.03" width="23363.16" height="5282.07"/>
  <g id="_1772462789264">
   <g>
    <polygon class="fil1" points="6596.54,3673.42 3702.39,3673.42 4764.47,1608.67 5497.02,1608.67 "/>
    <polygon class="fil2" points="6545.9,3642.27 3753.02,3642.27 4777.94,1639.82 5484.86,1639.82 "/>
    <polygon class="fil3" points="5406.02,3246.55 4403.59,3246.55 4879.92,2315.92 4949.41,2314.81 5130.66,1916.88 5190.47,1916.88 5616.34,2682.44 5664.54,2678.8 5896.37,3187.44 5447.92,3186.88 "/>
    <polygon class="fil4" points="5326.23,3158.06 4448.89,3158.06 4879.92,2315.92 4949.41,2314.81 5130.66,1916.88 5190.47,1916.88 5616.34,2682.44 5664.54,2678.8 5856.02,3098.91 5368.15,3098.38 "/>
    <polygon class="fil5" points="5280.64,3044.29 4507.11,3044.29 4879.92,2315.92 4949.41,2314.81 5130.66,1916.88 5190.47,1916.88 5616.34,2682.44 5664.54,2678.8 5804.16,2985.13 5322.56,2984.61 "/>
    <polygon class="fil1" points="5217.96,2962.12 4549.17,2962.12 4879.92,2315.92 4949.41,2314.81 5130.66,1916.88 5190.47,1916.88 5616.34,2682.44 5664.54,2678.8 5758.28,2884.46 5265.57,2889.8 "/>
    <path class="fil6" d="M4549.17 2962.12l330.74 -646.19 69.49 -1.12 93.45 -202.28c14.07,3.77 21.02,17.04 33.66,36.66 28.48,-18.48 54.12,-35.35 96.86,-34.8 5.18,38.17 -1.04,81.1 4.16,119.29 10.34,54.66 27.37,94.51 45.34,132.26 -11.53,82.46 -43.06,142.71 -77.46,199.78 0.36,40.06 0.69,80.14 1.04,120.2 34.27,47.49 62.85,91.83 97.11,139.31 8.91,12.34 14.5,47.59 22,64.58l-47.61 72.32 -668.79 0z"/>
    <path class="fil7" d="M6384.52 3539.84l-1160.95 0 0 -186.22 868.08 0 -126.42 -235.07 196.05 0 223.23 421.3zm-1285.8 0l-1187.09 0 456.93 -892.76 202.98 0 -372.61 706.53 899.8 0 0 186.22zm-658.46 -1032.84l391.43 -764.77 243.65 0 0 37.18 -58.27 0 -372.03 727.59 -204.78 0zm759.93 -764.77l231.81 0 103.05 194.49 -203.49 0 -72.91 -157.32 -58.46 0 0 -37.18z"/>
    <g>
     <path class="fil8" d="M5106.98 2722.63l-14.95 -0.57 0.16 2 -0.97 -4.65 -1.03 -4.57 -1.12 -4.5 -1.17 -4.43 -1.26 -4.39 -1.32 -4.32 -1.39 -4.27 -1.47 -4.21 -1.53 -4.16 -1.62 -4.1 -1.69 -4.07 -1.76 -4.05 -1.83 -3.99 -1.9 -3.96 -1.97 -3.94 -2.04 -3.91 -2.12 -3.89 -2.19 -3.87 -2.26 -3.85 -2.33 -3.83 -2.42 -3.83 -2.48 -3.83 -2.55 -3.8 -2.63 -3.82 -2.69 -3.81 -2.77 -3.82 -2.83 -3.82 -2.92 -3.82 -3 -3.85 -3.05 -3.85 -3.13 -3.88 -3.2 -3.89 11.09 -10.95 3.28 3.99 3.23 3.98 3.15 3.97 3.08 3.97 3.02 3.96 2.96 3.98 2.87 3.96 2.81 3.97 2.75 3.98 2.67 4 2.6 4.01 2.54 4.03 2.47 4.05 2.4 4.07 2.32 4.11 2.24 4.11 2.18 4.17 2.11 4.21 2.02 4.25 1.95 4.28 1.88 4.32 1.81 4.36 1.74 4.43 1.66 4.47 1.57 4.51 1.49 4.59 1.42 4.62 1.34 4.69 1.27 4.75 1.18 4.83 1.11 4.9 1.03 4.96 0.16 2zm-0.16 -2c0.86,4.41 -1.71,8.76 -5.74,9.7 -4.03,0.94 -8.02,-1.86 -8.89,-6.27l14.63 -3.43zm-61.88 120.15l12.27 -9.32 -11.09 -1.45 1.97 -1.93 1.98 -2 1.97 -2.06 1.98 -2.15 1.99 -2.21 1.95 -2.3 1.96 -2.39 1.94 -2.46 1.91 -2.54 1.88 -2.62 1.85 -2.73 1.83 -2.82 1.79 -2.9 1.74 -3.01 1.7 -3.1 1.64 -3.21 1.58 -3.31 1.52 -3.42 1.47 -3.52 1.39 -3.64 1.33 -3.76 1.25 -3.88 1.17 -3.99 1.08 -4.13 1.01 -4.25 0.89 -4.39 0.8 -4.51 0.69 -4.65 0.58 -4.79 0.48 -4.95 0.37 -5.08 0.23 -5.23 14.95 0.57 -0.25 5.68 -0.39 5.55 -0.52 5.39 -0.64 5.24 -0.77 5.14 -0.88 4.98 -1 4.86 -1.11 4.71 -1.2 4.58 -1.31 4.46 -1.39 4.33 -1.47 4.21 -1.57 4.08 -1.64 3.95 -1.71 3.83 -1.79 3.72 -1.84 3.6 -1.9 3.48 -1.96 3.37 -1.99 3.26 -2.03 3.13 -2.07 3.04 -2.1 2.95 -2.13 2.84 -2.14 2.72 -2.16 2.63 -2.17 2.54 -2.17 2.44 -2.16 2.36 -2.17 2.27 -2.16 2.18 -2.13 2.09 -11.09 -1.45zm11.09 1.45c-3.09,2.98 -7.83,2.66 -10.56,-0.71 -2.73,-3.37 -2.44,-8.54 0.65,-11.52l9.91 12.23zm-60.68 -102.79l14.57 3.74 -0.24 -4.64 0.97 2.84 1.04 2.91 1.1 2.94 1.15 2.97 1.21 2.99 1.26 3.02 1.32 3.05 1.36 3.08 1.39 3.07 1.44 3.1 1.47 3.09 1.51 3.09 1.53 3.1 1.56 3.09 1.59 3.09 1.62 3.07 1.63 3.05 1.65 3.04 1.66 3.01 1.67 2.99 1.67 2.96 1.68 2.91 1.67 2.88 1.67 2.84 1.66 2.79 1.65 2.74 1.63 2.69 1.62 2.64 1.58 2.57 1.57 2.51 1.53 2.46 1.51 2.38 -12.27 9.32 -1.55 -2.44 -1.57 -2.5 -1.62 -2.57 -1.63 -2.65 -1.66 -2.7 -1.67 -2.75 -1.69 -2.8 -1.7 -2.87 -1.71 -2.91 -1.71 -2.95 -1.72 -3.01 -1.71 -3.04 -1.71 -3.05 -1.72 -3.11 -1.69 -3.12 -1.69 -3.15 -1.66 -3.17 -1.66 -3.19 -1.63 -3.21 -1.59 -3.2 -1.57 -3.23 -1.53 -3.23 -1.5 -3.22 -1.47 -3.23 -1.42 -3.22 -1.38 -3.21 -1.34 -3.2 -1.29 -3.21 -1.23 -3.17 -1.18 -3.16 -1.12 -3.13 -1.07 -3.11 -0.24 -4.64zm0.24 4.64c-1.4,-4.24 0.62,-8.93 4.5,-10.45 3.88,-1.52 8.18,0.67 9.58,4.91l-14.08 5.55zm41.08 -159.96l-11.09 10.95 13.01 -5.95 0.24 5.98 0.09 5.92 -0.07 5.87 -0.19 5.8 -0.34 5.73 -0.46 5.67 -0.58 5.61 -0.68 5.52 -0.77 5.44 -0.87 5.38 -0.93 5.3 -1.03 5.23 -1.08 5.16 -1.15 5.08 -1.19 5 -1.23 4.92 -1.26 4.83 -1.28 4.75 -1.31 4.67 -1.3 4.57 -1.3 4.5 -1.3 4.41 -1.28 4.31 -1.25 4.23 -1.23 4.13 -1.17 4.02 -1.13 3.93 -1.09 3.84 -1 3.73 -0.94 3.62 -0.84 3.5 -0.77 3.4 -14.57 -3.74 0.83 -3.71 0.92 -3.77 0.99 -3.84 1.06 -3.89 1.11 -3.96 1.15 -4.03 1.21 -4.1 1.23 -4.15 1.25 -4.23 1.28 -4.31 1.28 -4.35 1.28 -4.42 1.28 -4.49 1.27 -4.55 1.24 -4.61 1.22 -4.68 1.19 -4.73 1.15 -4.79 1.09 -4.86 1.04 -4.9 0.97 -4.97 0.89 -5.02 0.81 -5.08 0.73 -5.12 0.64 -5.19 0.54 -5.22 0.42 -5.28 0.31 -5.32 0.19 -5.37 0.05 -5.42 -0.07 -5.48 -0.22 -5.52 13.01 -5.95zm-13.01 5.95c-0.23,-4.49 2.92,-8.37 7.03,-8.62 4.11,-0.25 7.67,3.18 7.9,7.67l-14.93 0.95z"/>
    </g>
    <g>
     <path class="fil9" d="M5031.13 2589.6c17.86,51.62 4.05,81.12 14.25,132.74 3.8,52.67 10.44,92.7 5.7,113.77 -16.15,-25.28 -37.99,-63.2 -48.44,-94.8 8.08,-37.41 31.81,-90.07 28.49,-151.71z"/>
     <path id="1" class="fil8" d="M5052.86 2721.71l-14.97 1.28 0.14 1.09 -0.91 -4.97 -0.79 -4.85 -0.67 -4.74 -0.54 -4.62 -0.45 -4.49 -0.36 -4.43 -0.26 -4.31 -0.2 -4.24 -0.12 -4.15 -0.08 -4.05 -0.04 -4 -0.02 -3.94 0.01 -3.88 0.01 -3.83 0.01 -3.81 0 -3.77 -0.02 -3.73 -0.06 -3.73 -0.09 -3.73 -0.14 -3.71 -0.2 -3.73 -0.28 -3.77 -0.35 -3.79 -0.45 -3.83 -0.54 -3.88 -0.66 -3.95 -0.76 -4.03 -0.89 -4.11 -1.03 -4.21 -1.19 -4.32 -1.34 -4.44 -1.51 -4.55 14.06 -5.79 1.66 5 1.46 4.87 1.31 4.76 1.15 4.67 1 4.56 0.84 4.48 0.72 4.38 0.6 4.31 0.49 4.24 0.39 4.15 0.3 4.09 0.22 4.03 0.16 3.99 0.09 3.93 0.06 3.91 0.02 3.87 0 3.83 -0.01 3.83 -0.01 3.83 -0.01 3.82 0.02 3.82 0.04 3.86 0.08 3.89 0.12 3.91 0.18 3.95 0.24 4.02 0.34 4.08 0.41 4.19 0.5 4.26 0.61 4.34 0.73 4.46 0.85 4.58 0.14 1.09zm-0.14 -1.09c0.87,4.42 -1.71,8.79 -5.76,9.73 -4.05,0.94 -8.06,-1.86 -8.93,-6.28l14.69 -3.45zm-7.8 120.18l12.31 -9.37 -13.45 2.73 0.35 -1.68 0.29 -1.82 0.24 -1.95 0.2 -2.11 0.15 -2.26 0.11 -2.36 0.06 -2.5 0.02 -2.62 -0.03 -2.74 -0.07 -2.85 -0.1 -2.98 -0.15 -3.09 -0.18 -3.21 -0.2 -3.29 -0.25 -3.4 -0.26 -3.51 -0.3 -3.61 -0.33 -3.73 -0.34 -3.8 -0.36 -3.9 -0.38 -4 -0.39 -4.09 -0.4 -4.17 -0.41 -4.27 -0.41 -4.37 -0.41 -4.45 -0.43 -4.53 -0.4 -4.61 -0.41 -4.69 -0.39 -4.79 -0.39 -4.86 -0.37 -4.94 14.97 -1.28 0.37 4.86 0.37 4.79 0.39 4.71 0.41 4.65 0.4 4.57 0.41 4.49 0.41 4.43 0.41 4.33 0.41 4.27 0.4 4.17 0.39 4.11 0.38 4 0.38 3.96 0.34 3.86 0.33 3.75 0.3 3.71 0.28 3.6 0.25 3.52 0.22 3.45 0.18 3.33 0.15 3.27 0.12 3.18 0.07 3.1 0.03 3.01 -0.02 2.93 -0.06 2.86 -0.13 2.76 -0.19 2.68 -0.24 2.6 -0.33 2.54 -0.4 2.47 -0.49 2.39 -13.45 2.73zm13.45 -2.73c-0.99,4.39 -5.06,7.08 -9.08,6 -4.02,-1.08 -6.49,-5.52 -5.51,-9.9l14.59 3.9zm-63.04 -98.63l14.61 3.76 -0.24 -4.66 0.98 2.84 1.04 2.91 1.1 2.94 1.15 2.97 1.21 2.99 1.26 3.02 1.31 3.05 1.36 3.08 1.39 3.07 1.44 3.09 1.47 3.1 1.51 3.09 1.53 3.1 1.56 3.09 1.6 3.08 1.6 3.08 1.64 3.05 1.64 3.03 1.66 3.01 1.68 2.99 1.66 2.96 1.68 2.92 1.67 2.88 1.67 2.83 1.66 2.79 1.65 2.74 1.63 2.69 1.62 2.64 1.58 2.58 1.57 2.5 1.54 2.46 1.5 2.38 -12.31 9.37 -1.56 -2.44 -1.56 -2.5 -1.62 -2.58 -1.63 -2.64 -1.66 -2.7 -1.67 -2.75 -1.69 -2.8 -1.7 -2.87 -1.71 -2.92 -1.71 -2.95 -1.72 -3 -1.72 -3.04 -1.7 -3.05 -1.72 -3.11 -1.7 -3.13 -1.68 -3.15 -1.67 -3.16 -1.65 -3.2 -1.63 -3.21 -1.59 -3.2 -1.57 -3.23 -1.53 -3.22 -1.5 -3.23 -1.47 -3.23 -1.42 -3.22 -1.39 -3.21 -1.34 -3.2 -1.29 -3.21 -1.23 -3.17 -1.18 -3.16 -1.12 -3.13 -1.06 -3.11 -0.24 -4.66zm0.24 4.66c-1.4,-4.26 0.62,-8.96 4.51,-10.49 3.89,-1.53 8.21,0.67 9.61,4.93l-14.12 5.57zm42.58 -157.39l-14.06 5.79 14.53 -3.37 0.24 5.98 0.08 5.92 -0.06 5.87 -0.2 5.8 -0.34 5.73 -0.45 5.67 -0.58 5.61 -0.68 5.53 -0.78 5.44 -0.86 5.37 -0.94 5.3 -1.02 5.24 -1.09 5.15 -1.14 5.09 -1.2 5 -1.23 4.92 -1.26 4.83 -1.28 4.75 -1.31 4.67 -1.3 4.57 -1.3 4.5 -1.3 4.41 -1.28 4.31 -1.25 4.23 -1.22 4.13 -1.18 4.02 -1.13 3.93 -1.08 3.84 -1.01 3.72 -0.93 3.63 -0.85 3.5 -0.77 3.4 -14.61 -3.76 0.83 -3.71 0.91 -3.77 1 -3.83 1.05 -3.9 1.12 -3.96 1.15 -4.03 1.2 -4.1 1.24 -4.15 1.25 -4.23 1.28 -4.31 1.28 -4.35 1.28 -4.42 1.28 -4.49 1.27 -4.55 1.24 -4.61 1.22 -4.68 1.19 -4.73 1.14 -4.79 1.1 -4.85 1.03 -4.91 0.98 -4.96 0.88 -5.02 0.82 -5.09 0.72 -5.12 0.64 -5.18 0.54 -5.22 0.43 -5.28 0.31 -5.32 0.18 -5.37 0.06 -5.42 -0.08 -5.48 -0.22 -5.52 14.53 -3.37zm-14.53 3.37c-0.23,-4.51 2.93,-8.4 7.06,-8.65 4.13,-0.25 7.7,3.19 7.93,7.7l-14.99 0.95z"/>
    </g>
    <path class="fil10" d="M4965.59 2763.43c45.64,0 82.63,41.05 82.63,91.65 0,50.6 -37.01,91.64 -82.63,91.64 -45.62,-0.01 -82.62,-41.05 -82.62,-91.64 0,-50.62 37.01,-91.65 82.62,-91.65z"/>
    <path class="fil10" d="M5097.38 2831.33c28.71,0 52,25.83 52,57.68 0,31.83 -23.29,57.68 -52,57.68 -28.72,-0.01 -52,-25.83 -52,-57.68 0,-31.85 23.28,-57.68 52,-57.68z"/>
    <path class="fil11" d="M5174.25 2113.1c21.28,-8.02 49.54,-15.61 70.82,2.02 23.34,29.99 43.81,22.48 63.86,9.61"/>
    <path class="fil12" d="M4962.91 2782.09c13.1,-11.6 34.16,-9.21 47.01,5.32 12.84,14.54 12.64,35.73 -0.47,47.33 -13.1,11.59 -34.16,9.21 -47.01,-5.32 -12.85,-14.54 -12.64,-35.73 0.47,-47.33z"/>
    <path class="fil12" d="M5106.62 2841.89c12.17,0 22.04,9.77 22.04,21.81 0,12.04 -9.87,21.8 -22.04,21.8 -12.17,0 -22.04,-9.76 -22.04,-21.8 0,-12.05 9.87,-21.81 22.04,-21.81z"/>
   </g>
   <g>
    <path class="fil1" d="M12456.21 2638.08c174.16,0 327.88,0 491.75,0 55.03,0 111.19,0 169.66,0 58,0 67.19,-86.96 42.5,-163.2l-258.25 -753.23c-4.4,-14.77 -19.21,-32.58 -47.25,-35.81l-305.05 0c-28.05,3.22 -42.85,21.04 -47.25,35.81l-258.25 753.23c-24.68,76.22 -30.1,163.2 42.51,163.2 58.46,0 114.63,0 169.65,0zm245.86 -764.22c36.65,1.15 60.62,23.96 67.3,48.84l107.41 340.83c35.01,88.38 0.64,125.48 -35.49,125.48l-139.19 0.21 -139.19 -0.21c-26.88,-0.05 -61.42,-28.73 -35.5,-125.48l107.43 -340.83c6.24,-23.27 30.59,-47.69 67.25,-48.84z"/>
    <path class="fil1" d="M16065.43 2638.08l-1.2 -667.3 35.58 39.77 255.83 627.53 351.46 0c34.09,0.38 45.94,-34.88 18.2,-75.31l-458.58 -818.4c-22.58,-40.32 -63.22,-56.95 -91.28,-60.17l-274.69 0c-28.05,3.22 -47.41,19.39 -47.25,42.31 1.08,286.93 -2.4,569.67 1.24,856.26 -2.2,31.34 20.94,52.24 47.09,55.31 58.48,0 108.56,0 163.59,0z"/>
    <path class="fil1" d="M17042.84 2638.08l290.23 0 308.97 0c61.75,0 83.99,-76.28 39.45,-153.41l-437.35 -740.3c-26.64,-46.15 -61.8,-58.53 -91.27,-58.53l-274.69 0c-28.07,0 -47.26,11.71 -47.26,40.67 1.09,286.93 -2.39,569.67 1.25,856.26 -2.19,31.34 20.94,52.24 47.09,55.31 58.47,0 108.57,0 163.57,0zm216.72 -248.86c55.34,-2.86 64.16,-60.92 27.32,-137.16l-139.86 -318.02c-19.82,-41.89 -45.01,-56.94 -73.06,-60.18l-40.97 0c-28.05,3.22 -47.41,19.4 -47.26,42.31 1.09,286.95 3.69,131.15 7.31,417.74 -2.2,31.36 20.96,52.25 47.09,55.31 122.67,0 96.67,0 219.42,0z"/>
    <path class="fil1" d="M18668.03 2638.08c44.59,0.35 52.79,-32.4 52.79,-67.99 0,-43.54 -4.55,-49.84 -28.95,-82.76 -12.99,-17.5 -26,-35.02 -38.99,-52.54 -35.9,-48.4 -58.97,-45.56 -121.05,-45.56l-420.06 -0.02c-29.38,-0.56 -53.23,-24.74 -53.23,-54.25l0 -98.94c0,-29.52 23.85,-53.69 53.23,-54.25l252.64 -0.03c25,0 45.45,-20.41 45.45,-45.37 0,-24.86 0,-49.7 0,-74.57 0,-24.95 -20.45,-45.37 -45.45,-45.37 -88.91,0 -177.82,0 -266.75,0 -21.51,0 -39.12,-17.59 -39.12,-39.12l0 -25.68 0 -12.96 0 -25.7c0,-21.52 17.6,-39.13 39.12,-39.13 54.47,0 108.93,0 163.39,0 28.38,0 51.59,-23.21 51.59,-51.59 0,-28.28 0,-56.56 0,-84.84 0,-28.38 -23.21,-51.59 -51.59,-51.59 -104.79,0 -209.6,0 -314.39,0 -28.05,3.21 -47.4,19.36 -47.24,42.24 1.09,286.44 -2.4,568.68 1.24,854.8 -2.19,31.28 20.95,52.14 47.09,55.21l720.28 0z"/>
    <path class="fil1" d="M7478.93 1861.25l-88.07 0c-29.43,0 -45.95,34.47 -55.29,64.38l-130.64 398.62c-12.61,32.91 -5.96,57.15 24.44,64.55l173.93 1.06c303.09,-0.42 310.76,-12.87 342.67,23.54 3.96,4.53 20.3,56.79 28.45,85.71l12.83 42.3c24.69,76.24 -1.76,90.55 -54.05,96.67 -58.48,0 -114.65,0 -169.68,0 -174.14,0 -327.86,0 -491.73,0 -55.04,0 -156.73,0 -215.21,0 -50.87,0 -84.51,-90.38 -42.48,-163.2l391.79 -753.23c9.42,-16.31 22.07,-35.81 47.27,-35.81 66.28,0 132.56,-0.01 198.84,-0.01l26.92 0c22.98,0 41.76,18.78 41.76,41.76l0 91.9c0,22.97 -18.78,41.76 -41.76,41.76z"/>
    <path class="fil1" d="M12119.28 2638.08c-232.6,0 -413.74,0 -646.34,0 -51.73,0 -76.18,-57.68 -48.45,-101.36 159.92,-279.84 316.89,-571.04 476.8,-850.88 49.06,0 98.13,0 147.2,0 9.09,0 22.02,15.96 15.18,37.13l-248.98 559.17c-35.01,88.37 37.86,106.45 75.44,106.45l229.15 0.62c0,62.18 0,186.68 0,248.86z"/>
    <rect class="fil10" x="6802.5" y="2816.53" width="12848.48" height="118.97"/>
    <path class="fil13" d="M6802.5 3114.23l317.82 0c52.92,0 93.59,11.41 121.85,34.08 28.4,22.69 42.57,50.79 42.57,84.21 0,28.11 -10.1,52.23 -30.3,72.36 -13.54,13.39 -33.25,24 -59.2,31.74 39.4,8.2 68.4,22.37 87.07,42.29 18.57,20.01 27.88,45.14 27.88,75.34 0,24.68 -6.63,46.82 -19.81,66.5 -13.3,19.7 -31.34,35.2 -54.37,46.7 -14.18,7.09 -35.66,12.28 -64.44,15.49 -38.24,4.33 -63.57,6.53 -76.08,6.53l-293 0 0 -475.25zm171.25 186.45l73.8 0c26.46,0 44.89,-3.98 55.37,-11.84 10.36,-7.96 15.46,-19.36 15.46,-34.19 0,-13.82 -5.1,-24.67 -15.46,-32.41 -10.48,-7.86 -28.52,-11.73 -54.23,-11.73l-74.93 0 0 90.18zm0 186.67l86.59 0c29.26,0 49.88,-4.43 61.76,-13.4 12.03,-8.95 18.02,-21.02 18.02,-36.17 0,-14.06 -5.87,-25.35 -17.78,-33.87 -11.89,-8.52 -32.59,-12.83 -62.39,-12.83l-86.2 0 0 96.27zm750.03 23.67l-193.36 0 -26.6 78.46 -173.4 0 206.39 -475.25 185.05 0 206.54 475.25 -177.63 0 -26.99 -78.46zm-35.55 -102.8l-60.73 -170.84 -60.37 170.84 121.1 0zm295.55 -293.99l158.56 0 206.78 262.91 0 -262.91 159.99 0 0 475.25 -159.99 0 -205.76 -260.92 0 260.92 -159.59 0 0 -475.25zm1003.75 281.06l148.72 38.94c-9.98,36.09 -25.71,66.18 -47.19,90.41 -21.49,24.24 -48.21,42.5 -80.05,54.78 -31.83,12.39 -72.39,18.48 -121.49,18.48 -59.71,0 -108.58,-7.53 -146.3,-22.47 -37.85,-15.04 -70.57,-41.5 -98.07,-79.33 -27.36,-37.84 -41.18,-86.19 -41.18,-145.18 0,-78.66 24.17,-139.2 72.52,-181.36 48.33,-42.26 116.75,-63.4 205.12,-63.4 69.18,0 123.53,12.07 163.18,36.29 39.63,24.23 69.04,61.41 88.23,111.53l-149.88 28.89c-5.23,-14.51 -10.74,-25.13 -16.49,-31.89 -9.47,-11.17 -21.1,-19.8 -34.77,-25.88 -13.84,-6.08 -29.18,-9.07 -46.18,-9.07 -38.37,0 -67.93,13.39 -88.35,40.16 -15.5,19.91 -23.29,51.12 -23.29,93.72 0,52.79 9.35,88.86 27.75,108.44 18.55,19.58 44.49,29.33 77.88,29.33 32.47,0 57.03,-7.86 73.67,-23.68 16.62,-15.71 28.64,-38.62 36.19,-68.71zm569.07 115.73l-193.36 0 -26.59 78.46 -173.4 0 206.39 -475.25 185.05 0 206.52 475.25 -177.63 0 -26.98 -78.46zm-35.54 -102.8l-60.74 -170.84 -60.36 170.84 121.1 0zm552.59 -293.99l252.18 0c49.62,0 89.78,5.87 120.47,17.47 30.57,11.74 55.88,28.45 75.82,50.24 19.95,21.92 34.41,47.25 43.48,76.26 8.96,28.98 13.44,59.63 13.44,92.05 0,50.78 -6.66,90.18 -20.07,118.17 -13.31,28.01 -31.83,51.45 -55.62,70.26 -23.67,18.93 -49.11,31.54 -76.35,37.85 -37.23,8.63 -70.99,12.95 -101.16,12.95l-252.18 0 0 -475.25zm169.7 107.66l0 259.6 41.56 0c35.55,0 60.74,-3.33 75.71,-10.19 14.95,-6.74 26.73,-18.7 35.29,-35.62 8.44,-16.93 12.68,-44.49 12.68,-82.54 0,-50.35 -9.47,-84.77 -28.4,-103.36 -19.05,-18.59 -50.52,-27.88 -94.49,-27.88l-42.34 0zm424.57 -107.66l454.74 0 0 101.46 -284.65 0 0 75.57 264.07 0 0 96.94 -264.07 0 0 93.62 292.98 0 0 107.66 -463.07 0 0 -475.25zm817.02 0l170.08 0 0 475.25 -170.08 0 0 -475.25zm292.98 0l158.56 0 206.79 262.91 0 -262.91 159.97 0 0 475.25 -159.97 0 -205.75 -260.92 0 260.92 -159.61 0 0 -475.25zm1003.74 281.06l148.73 38.94c-9.96,36.09 -25.7,66.18 -47.19,90.41 -21.47,24.24 -48.2,42.5 -80.04,54.78 -31.83,12.39 -72.38,18.48 -121.49,18.48 -59.71,0 -108.58,-7.53 -146.29,-22.47 -37.88,-15.04 -70.6,-41.5 -98.08,-79.33 -27.36,-37.84 -41.18,-86.19 -41.18,-145.18 0,-78.66 24.16,-139.2 72.5,-181.36 48.35,-42.26 116.75,-63.4 205.14,-63.4 69.18,0 123.53,12.07 163.18,36.29 39.63,24.23 69.04,61.41 88.24,111.53l-149.88 28.89c-5.25,-14.51 -10.75,-25.13 -16.51,-31.89 -9.46,-11.17 -21.11,-19.8 -34.78,-25.88 -13.81,-6.08 -29.16,-9.07 -46.16,-9.07 -38.37,0 -67.92,13.39 -88.37,40.16 -15.48,19.91 -23.26,51.12 -23.26,93.72 0,52.79 9.31,88.86 27.73,108.44 18.56,19.58 44.5,29.33 77.89,29.33 32.47,0 57.03,-7.86 73.67,-23.68 16.62,-15.71 28.64,-38.62 36.17,-68.71zm231.1 -281.06l169.82 0 0 358.17 264.86 0 0 117.08 -434.68 0 0 -475.25zm849.38 0l169.45 0 0 283.37c0,28.11 -5.12,54.55 -15.23,79.56 -10.1,24.9 -25.97,46.81 -47.58,65.5 -21.61,18.71 -44.26,31.76 -68.03,39.4 -33,10.51 -72.52,15.83 -118.81,15.83 -26.73,0 -55.88,-1.55 -87.46,-4.88 -31.61,-3.21 -57.96,-9.62 -79.17,-19.25 -21.22,-9.63 -40.67,-23.34 -58.31,-41.05 -17.66,-17.71 -29.67,-35.97 -36.19,-54.78 -10.49,-30.21 -15.73,-56.99 -15.73,-80.33l0 -283.37 169.43 0 0 290.13c0,26 8.32,46.25 24.82,60.74 16.64,14.61 39.65,21.91 69.19,21.91 29.15,0 52.18,-7.2 68.81,-21.59 16.5,-14.27 24.81,-34.74 24.81,-61.07l0 -290.13zm252.2 318.01l161.49 -8.75c3.45,22.69 10.63,39.95 21.36,51.9 17.39,19.25 42.45,28.77 74.94,28.77 24.17,0 42.84,-4.87 56,-14.71 13.05,-9.84 19.57,-21.24 19.57,-34.19 0,-12.29 -6.13,-23.35 -18.67,-33.09 -12.53,-9.74 -41.42,-18.91 -86.95,-27.55 -74.44,-14.51 -127.51,-33.64 -159.24,-57.65 -31.96,-24.01 -47.94,-54.55 -47.94,-91.73 0,-24.47 8.18,-47.59 24.55,-69.28 16.37,-21.68 40.92,-38.73 73.79,-51.24 32.86,-12.39 77.87,-18.58 135.05,-18.58 70.2,0 123.79,11.29 160.62,33.86 36.83,22.57 58.68,58.54 65.72,107.77l-159.99 8.09c-4.22,-21.36 -13.16,-36.96 -26.84,-46.69 -13.57,-9.64 -32.36,-14.51 -56.28,-14.51 -19.81,0 -34.64,3.53 -44.63,10.85 -9.95,7.19 -14.95,16.04 -14.95,26.45 0,7.52 4.08,14.26 12.28,20.35 8.06,6.31 26.99,12.07 57.04,17.48 74.17,13.84 127.25,27.88 159.35,42.05 32.09,14.16 55.5,31.64 70.07,52.68 14.59,20.89 21.99,44.36 21.99,70.36 0,30.43 -9.83,58.54 -29.28,84.21 -19.44,25.78 -46.69,45.25 -81.72,58.53 -34.92,13.28 -79.03,19.91 -132.24,19.91 -93.35,0 -158.06,-15.48 -194.01,-46.69 -36.04,-31.09 -56.4,-70.6 -61.1,-118.61zm590.41 -318.01l170.08 0 0 475.25 -170.08 0 0 -475.25zm270.47 237.9c0,-77.57 25.05,-137.98 74.92,-181.13 50,-43.28 119.58,-64.85 208.7,-64.85 91.45,0 161.91,21.24 211.4,63.72 49.36,42.39 74.17,101.92 74.17,178.38 0,55.55 -10.87,101.14 -32.48,136.65 -21.6,35.52 -52.81,63.18 -93.61,82.99 -40.93,19.8 -91.71,29.64 -152.69,29.64 -61.9,0 -113.17,-8.51 -153.84,-25.55 -40.54,-17.16 -73.39,-44.15 -98.73,-81.11 -25.19,-36.95 -37.84,-83.21 -37.84,-138.76zm169.83 0.66c0,48.02 10.22,82.43 30.8,103.47 20.61,20.9 48.74,31.42 84.16,31.42 36.46,0 64.71,-10.29 84.66,-30.76 19.94,-20.59 30.05,-57.43 30.05,-110.55 0,-44.81 -10.47,-77.45 -31.32,-98.14 -20.86,-20.59 -49.11,-30.87 -84.91,-30.87 -34.16,0 -61.65,10.4 -82.38,31.42 -20.69,20.92 -31.05,55.66 -31.05,104.01zm111.25 -364.26l131.09 0 -120.99 96.94 -73.04 0 62.94 -96.94zm380.58 125.7l158.56 0 206.78 262.91 0 -262.91 159.99 0 0 475.25 -159.99 0 -205.74 -260.92 0 260.92 -159.61 0 0 -475.25zm864.37 318.01l161.51 -8.75c3.45,22.69 10.63,39.95 21.36,51.9 17.37,19.25 42.45,28.77 74.92,28.77 24.19,0 42.85,-4.87 56.02,-14.71 13.05,-9.84 19.57,-21.24 19.57,-34.19 0,-12.29 -6.15,-23.35 -18.67,-33.09 -12.53,-9.74 -41.44,-18.91 -86.97,-27.55 -74.44,-14.51 -127.49,-33.64 -159.21,-57.65 -31.97,-24.01 -47.96,-54.55 -47.96,-91.73 0,-24.47 8.2,-47.59 24.55,-69.28 16.38,-21.68 40.94,-38.73 73.79,-51.24 32.87,-12.39 77.89,-18.58 135.05,-18.58 70.22,0 123.79,11.29 160.62,33.86 36.83,22.57 58.7,58.54 65.74,107.77l-159.99 8.09c-4.22,-21.36 -13.18,-36.96 -26.86,-46.69 -13.55,-9.64 -32.35,-14.51 -56.26,-14.51 -19.83,0 -34.66,3.53 -44.63,10.85 -9.96,7.19 -14.97,16.04 -14.97,26.45 0,7.52 4.1,14.26 12.3,20.35 8.06,6.31 26.97,12.07 57.04,17.48 74.15,13.84 127.23,27.88 159.33,42.05 32.09,14.16 55.5,31.64 70.07,52.68 14.59,20.89 22,44.36 22,70.36 0,30.43 -9.84,58.54 -29.26,84.21 -19.46,25.78 -46.71,45.25 -81.74,58.53 -34.9,13.28 -79.03,19.91 -132.23,19.91 -93.34,0 -158.05,-15.48 -194,-46.69 -36.06,-31.09 -56.4,-70.6 -61.12,-118.61zm562.3 -80.12c0,-77.57 25.05,-137.98 74.92,-181.13 50,-43.28 119.57,-64.85 208.7,-64.85 91.45,0 161.91,21.24 211.4,63.72 49.36,42.39 74.17,101.92 74.17,178.38 0,55.55 -10.87,101.14 -32.5,136.65 -21.61,35.52 -52.81,63.18 -93.59,82.99 -40.94,19.8 -91.71,29.64 -152.69,29.64 -61.91,0 -113.17,-8.51 -153.84,-25.55 -40.54,-17.16 -73.41,-44.15 -98.73,-81.11 -25.19,-36.95 -37.84,-83.21 -37.84,-138.76zm169.83 0.66c0,48.02 10.22,82.43 30.8,103.47 20.61,20.9 48.72,31.42 84.16,31.42 36.44,0 64.71,-10.29 84.66,-30.76 19.94,-20.59 30.05,-57.43 30.05,-110.55 0,-44.81 -10.48,-77.45 -31.32,-98.14 -20.86,-20.59 -49.11,-30.87 -84.92,-30.87 -34.15,0 -61.64,10.4 -82.37,31.42 -20.71,20.92 -31.05,55.66 -31.05,104.01zm856.42 42.5l148.72 38.94c-9.96,36.09 -25.71,66.18 -47.18,90.41 -21.49,24.24 -48.22,42.5 -80.06,54.78 -31.83,12.39 -72.38,18.48 -121.49,18.48 -59.71,0 -108.58,-7.53 -146.29,-22.47 -37.86,-15.04 -70.58,-41.5 -98.08,-79.33 -27.36,-37.84 -41.17,-86.19 -41.17,-145.18 0,-78.66 24.16,-139.2 72.49,-181.36 48.35,-42.26 116.78,-63.4 205.14,-63.4 69.18,0 123.53,12.07 163.18,36.29 39.64,24.23 69.04,61.41 88.24,111.53l-149.88 28.89c-5.23,-14.51 -10.74,-25.13 -16.5,-31.89 -9.47,-11.17 -21.1,-19.8 -34.77,-25.88 -13.84,-6.08 -29.18,-9.07 -46.18,-9.07 -38.36,0 -67.92,13.39 -88.37,40.16 -15.47,19.91 -23.26,51.12 -23.26,93.72 0,52.79 9.34,88.86 27.75,108.44 18.54,19.58 44.48,29.33 77.87,29.33 32.47,0 57.03,-7.86 73.67,-23.68 16.63,-15.71 28.64,-38.62 36.19,-68.71zm237.86 -281.06l170.08 0 0 475.25 -170.08 0 0 -475.25zm629.81 396.79l-193.36 0 -26.6 78.46 -173.4 0 206.39 -475.25 185.05 0 206.54 475.25 -177.63 0 -26.99 -78.46zm-35.55 -102.8l-60.73 -170.84 -60.37 170.84 121.1 0zm294.4 -293.99l169.81 0 0 358.17 264.86 0 0 117.08 -434.67 0 0 -475.25z"/>
    <path class="fil1" d="M10153.69 1861.25l-88.23 0c-22.98,0 -41.76,-18.79 -41.76,-41.76l0 -91.9c0,-22.98 18.78,-41.76 41.76,-41.76 75.31,0 150.62,0.01 225.93,0.01 28.4,0 38.8,21.15 47.26,35.81l391.8 753.23c40.44,70.05 13.37,163.2 -42.49,163.2 -58.48,0 -160.17,0 -215.21,0 -163.87,0 -317.6,0 -491.73,0 -55.03,0 -111.19,0 -169.67,0 -74.4,0 -77.82,-102.01 -42.49,-163.2l237.44 -458.49 208.13 0 -94.21 307.99c-7.58,28.24 -14.6,65.48 21.03,65.48l179.46 -1.06c32.55,0 31.52,-31.64 18.91,-64.55l-130.64 -398.62c-9.34,-29.92 -21.58,-64.38 -55.29,-64.38z"/>
    <path class="fil1" d="M19043.16 2638.08l553.66 0c64.42,0 83.16,-92.74 42.49,-163.2l-291.57 -406.74c-23.5,-33.14 -44.81,-51.8 -85,-51.8l-246.65 0.1 -1.26 -0.04 -0.09 0c-13.79,0 -25.08,-11.28 -25.08,-25.07l0 -92.4c0,-13.79 11.28,-25.08 25.08,-25.08l8.23 0 33.01 0 141.49 0c24.96,0 45.37,-20.4 45.37,-45.36 0,-24.86 0,-72.45 0,-97.31 0,-26.97 -19.13,-42.02 -44.11,-45.36l-1.26 0 -323.82 0c-24.95,0 -45.36,20.4 -45.36,45.36 0,101.11 0.55,253.41 0.9,354.52 0,63.95 19.46,97.64 64.13,97.64 93.49,-0.63 186.96,-1.29 280.45,-1.94 45.54,0 88.47,15.77 88.47,70.69 0.05,51.83 0.08,15.92 0.13,67.74 0,43.19 -47.85,69.24 -80.88,69.24 -97.59,0.03 -198.2,0.11 -295.78,0.14 -37.48,0 -56.47,26.26 -57.73,61.02l1.49 132.53c-2.22,31.34 20.94,52.24 47.07,55.31 58.47,0 111.61,0 166.62,0z"/>
    <path class="fil1" d="M8265.92 1861.25l-88.23 0c-22.98,0 -41.76,-18.79 -41.76,-41.76l0 -91.9c0,-22.98 18.78,-41.76 41.76,-41.76 75.31,0 150.62,0.01 225.93,0.01 28.4,0 38.8,21.15 47.26,35.81l391.8 753.23c40.45,70.05 13.37,163.2 -42.49,163.2 -58.48,0 -160.17,0 -215.21,0 -163.87,0 -317.6,0 -491.73,0 -55.03,0 -111.19,0 -169.67,0 -74.39,0 -77.82,-102.01 -42.49,-163.2l237.44 -458.49 208.13 0 -94.21 307.99c-7.58,28.24 -14.6,65.48 21.03,65.48l179.46 -1.06c32.56,0 31.52,-31.64 18.91,-64.55l-130.64 -398.62c-9.34,-29.92 -21.58,-64.38 -55.29,-64.38z"/>
    <path class="fil1" d="M15118 1861.25l-88.24 0c-22.97,0 -41.76,-18.79 -41.76,-41.76l0 -91.9c0,-22.98 18.79,-41.76 41.76,-41.76 75.31,0 150.62,0.01 225.93,0.01 28.4,0 38.81,21.15 47.26,35.81l391.8 753.23c40.45,70.05 13.37,163.2 -42.49,163.2 -58.48,0 -160.16,0 -215.21,0 -163.87,0 -317.6,0 -491.73,0 -55.03,0 -111.19,0 -169.66,0 -74.4,0 -77.82,-102.01 -42.49,-163.2l237.43 -458.49 208.13 0 -94.21 307.99c-7.57,28.24 -14.6,65.48 21.03,65.48l179.46 -1.06c32.56,0 31.52,-31.64 18.91,-64.55l-130.64 -398.62c-9.34,-29.92 -21.57,-64.38 -55.28,-64.38z"/>
    <path class="fil1" d="M13482.68 2638.08l553.66 0c64.42,0 83.16,-92.74 42.49,-163.2l-291.56 -406.74c-23.51,-33.14 -44.81,-51.8 -85.01,-51.8l-246.64 0.1 -1.27 -0.04 -0.09 0c-13.78,0 -25.08,-11.28 -25.08,-25.07l0 -92.4c0,-13.79 11.29,-25.08 25.08,-25.08l8.23 0 33.01 0 141.5 0c24.96,0 45.36,-20.4 45.36,-45.36 0,-24.86 0,-72.45 0,-97.31 0,-26.97 -19.12,-42.02 -44.1,-45.36l-1.26 0 -323.83 0c-24.94,0 -45.36,20.4 -45.36,45.36 0,101.11 0.55,253.41 0.9,354.52 0,63.95 19.46,97.64 64.14,97.64 93.48,-0.63 186.95,-1.29 280.44,-1.94 45.54,0 88.48,15.77 88.48,70.69 0.04,51.83 0.07,15.92 0.12,67.74 0,43.19 -47.85,69.24 -80.88,69.24 -97.59,0.03 -198.19,0.11 -295.78,0.14 -37.48,0 -56.46,26.26 -57.72,61.02l1.48 132.53c-2.22,31.34 20.94,52.24 47.08,55.31 58.46,0 111.6,0 166.61,0z"/>
    <path class="fil12" d="M8938.93 2638.08c232.6,0 413.74,0 646.35,0 51.72,0 76.17,-57.68 48.44,-101.36 -126.84,-221.96 -251.83,-451.08 -377.9,-676l64.12 0c20.61,0 37.48,-16.88 37.48,-37.48l0 -99.92c0,-20.61 -16.89,-37.48 -37.48,-37.48l-343.52 0c-20.59,0 -37.48,16.9 -37.48,37.48l0 99.92c0,20.6 16.87,37.48 37.48,37.48l79.49 0 187.64 421.42c35,88.37 -37.86,106.45 -75.45,106.45l-229.15 0.62c0,62.18 0,186.68 0,248.86z"/>
   </g>
  </g>
 </g>
</svg>
