<?xml version="1.0" standalone="no"?>
<!DOCTYPE svg PUBLIC "-//W3C//DTD SVG 20010904//EN"
 "http://www.w3.org/TR/2001/REC-SVG-20010904/DTD/svg10.dtd">
<svg version="1.0" xmlns="http://www.w3.org/2000/svg"
 width="1106.000000pt" height="560.000000pt" viewBox="0 0 1106.000000 560.000000"
 preserveAspectRatio="xMidYMid meet">
<metadata>
Created by potrace 1.15, written by Peter Selinger 2001-2017
</metadata>
<g transform="translate(0.000000,560.000000) scale(0.100000,-0.100000)"
fill="#000000" stroke="none">
<path d="M6225 4670 l-1610 -929 0 -941 0 -941 1610 -929 1609 -930 31 18 c16
10 742 429 1613 932 l1582 913 0 937 0 937 -1582 913 c-871 503 -1597 922
-1613 932 l-31 18 -1609 -930z m3569 -664 c45 -22 80 -45 141 -94 21 -17 198
-93 272 -116 64 -21 83 -40 54 -55 -11 -6 -32 -11 -48 -11 -15 0 -43 -4 -61
-9 -18 -5 -76 -15 -130 -21 -53 -6 -128 -17 -167 -26 -85 -19 -124 -25 -107
-18 10 5 10 9 1 20 -10 12 -8 13 7 8 24 -7 -16 28 -76 69 -23 15 -49 44 -58
65 -29 62 -52 90 -84 101 -80 28 -112 -3 -106 -104 2 -35 0 -61 -4 -58 -10 6
-10 5 5 -37 10 -28 18 -36 42 -38 17 -2 26 0 22 5 -5 4 -13 8 -18 8 -5 0 -8 5
-6 10 1 6 7 8 12 7 6 -2 29 -5 52 -6 23 -1 46 -6 50 -10 4 -5 -11 -7 -34 -4
-24 2 -43 0 -43 -4 0 -9 3 -9 70 -12 25 -2 51 2 59 8 11 8 13 8 8 -1 -5 -7 1
-13 15 -16 13 -2 -22 -5 -76 -6 -115 -1 -125 -11 -13 -13 141 -3 70 -14 -103
-17 -155 -2 -179 -5 -263 -30 -280 -86 -541 -197 -687 -293 -36 -23 -101 -78
-145 -123 -78 -78 -179 -168 -261 -233 l-41 -33 0 -231 c0 -261 8 -325 76
-557 22 -75 56 -194 76 -266 53 -185 101 -333 150 -460 58 -148 105 -283 105
-301 0 -25 -41 -15 -74 19 -60 64 -91 106 -103 139 -7 18 -12 29 -13 23 0 -11
-11 5 -59 96 -22 41 -48 119 -72 218 -21 84 -41 156 -45 160 -7 8 1 -41 33
-194 49 -239 63 -301 82 -373 10 -39 15 -74 11 -77 -16 -10 -55 17 -97 67 -61
74 -114 203 -127 313 l-11 90 -7 -214 c-5 -118 -10 -217 -13 -219 -9 -9 -32
19 -57 70 -43 87 -61 216 -56 396 l4 157 -22 -70 c-12 -38 -27 -113 -33 -165
-34 -282 -32 -275 -53 -250 -10 12 -18 30 -18 41 0 10 -5 21 -10 24 -6 4 -8
11 -4 16 3 5 0 17 -7 26 -8 9 -15 57 -19 127 l-5 111 -13 -53 c-6 -29 -12 -59
-12 -66 0 -7 -12 -30 -26 -51 -14 -21 -21 -41 -16 -44 9 -6 44 -293 57 -466 3
-44 15 -118 25 -165 26 -120 35 -200 22 -200 -39 0 -113 146 -147 290 -14 58
-31 121 -37 140 -7 19 -14 105 -18 190 -5 145 -6 134 -13 -170 -5 -179 -12
-329 -17 -334 -13 -14 -38 35 -61 120 -18 66 -22 106 -22 249 0 94 4 191 8
215 4 25 4 42 0 38 -4 -3 -15 -98 -26 -210 -24 -263 -27 -284 -44 -298 -18
-15 -29 11 -46 107 -11 63 -8 267 6 378 l5 40 -14 -35 c-8 -19 -15 -50 -15
-69 -2 -59 -73 -331 -87 -331 -29 0 -37 42 -31 179 5 144 30 265 68 330 11 18
18 36 15 38 -3 3 -14 -14 -25 -38 -11 -24 -42 -94 -70 -154 -28 -61 -51 -116
-51 -122 0 -6 -10 -33 -21 -60 l-21 -48 -14 30 c-29 67 -9 244 41 352 14 31
25 58 25 62 0 12 -67 -95 -114 -181 -26 -49 -52 -88 -58 -88 -14 0 -2 148 13
166 6 8 8 14 3 14 -5 1 2 10 16 22 16 14 19 19 8 15 -10 -4 -18 -2 -18 3 0 17
50 124 68 144 16 18 16 19 -1 9 -10 -5 -44 -47 -77 -94 -33 -46 -66 -94 -75
-107 -9 -12 -20 -20 -26 -17 -16 11 -9 68 19 150 22 64 34 84 61 102 35 24 35
31 -1 12 -20 -11 -20 -11 -2 14 11 13 26 22 34 20 13 -4 13 -4 0 6 -12 8 -10
15 15 41 16 16 25 30 20 30 -6 0 -58 -48 -116 -106 -59 -59 -112 -104 -117
-100 -13 8 9 89 30 114 8 10 19 29 25 43 6 14 37 55 70 90 54 60 55 62 18 35
-22 -15 -68 -58 -102 -95 -49 -52 -64 -63 -74 -54 -22 22 7 87 66 152 30 32
55 62 55 65 0 3 -32 -10 -70 -29 -39 -20 -75 -33 -80 -30 -13 8 -1 36 24 60
12 11 32 33 46 49 23 27 24 28 3 17 -12 -6 -38 -11 -57 -11 -31 0 -37 4 -42
28 -4 15 -16 33 -26 40 -10 8 -18 25 -18 43 0 16 -9 38 -21 50 -12 12 -19 29
-16 39 3 11 -5 28 -19 41 -14 13 -24 34 -24 50 0 15 -7 29 -15 33 -8 3 -15 15
-15 26 0 11 -7 23 -15 26 -8 4 -15 17 -15 30 0 13 -9 28 -19 34 -11 5 -34 32
-52 60 -25 39 -38 50 -58 50 -53 0 -233 40 -278 62 -15 7 -30 7 -52 0 -20 -7
-31 -8 -31 -1 0 6 -5 7 -11 3 -6 -3 -15 -1 -19 5 -4 7 -21 13 -38 13 -18 1
-32 4 -32 7 0 11 -111 11 -131 1 -53 -29 -181 -28 -324 1 -5 2 56 5 137 8 105
4 151 10 160 20 11 11 4 12 -47 7 -89 -8 -337 -9 -358 -1 -21 9 162 59 254 71
72 9 100 25 34 20 -27 -2 -72 -9 -98 -15 -27 -6 -53 -9 -58 -6 -5 4 -9 2 -9
-3 0 -13 -182 -47 -205 -39 -9 4 -19 16 -22 26 -3 11 -11 17 -18 15 -19 -8
-87 24 -83 37 2 7 13 13 24 15 103 15 189 22 213 18 18 -4 41 0 58 9 15 9 65
28 110 43 46 15 81 29 79 31 -1 2 -41 -5 -87 -15 -205 -46 -252 -53 -389 -55
-57 -1 -95 2 -96 8 0 6 -4 23 -9 39 -11 41 20 66 89 68 l51 1 -45 6 -44 6 33
25 c18 14 44 35 57 47 33 30 78 53 105 53 18 0 20 2 8 16 -19 23 6 36 64 31
46 -4 47 -4 30 15 -17 19 -17 20 1 33 38 28 212 38 279 16 54 -18 47 -38 -20
-56 -83 -23 -103 -33 -103 -49 0 -19 -73 -40 -114 -32 -28 4 -29 4 -8 -6 29
-14 28 -26 -3 -34 -31 -8 -33 -34 -2 -34 57 0 99 14 107 34 7 16 9 17 9 4 1
-14 15 -16 99 -16 74 0 101 3 115 15 10 10 17 12 17 5 0 -7 4 -12 10 -12 5 0
7 7 4 15 -4 9 7 20 33 32 28 13 40 26 44 48 6 28 7 28 9 5 2 -19 3 -21 7 -7 3
13 11 17 26 13 13 -3 25 1 33 12 10 14 11 13 7 -11 -3 -15 -2 -27 1 -27 9 0
66 127 66 146 0 8 6 14 13 14 10 0 13 -18 11 -74 -1 -40 2 -79 7 -87 7 -11 9
-10 10 6 1 11 4 34 6 50 7 53 2 149 -8 162 -7 8 -7 18 0 30 10 17 10 17 11 1
0 -10 5 -18 10 -18 6 0 10 10 10 23 0 15 9 29 25 37 68 36 -7 41 -84 5 -30
-14 -56 -24 -57 -22 -7 6 249 185 304 212 85 42 160 65 256 75 50 6 106 13
124 16 21 4 45 0 70 -12 20 -9 57 -17 82 -17 26 0 36 -3 25 -7 -13 -5 -2 -11
40 -23 32 -9 61 -14 64 -12 2 3 -2 5 -10 6 -8 0 -6 4 6 10 17 7 15 8 -10 6
-16 -2 -24 -2 -17 0 7 3 10 9 7 14 -8 13 -5 12 68 -16 44 -16 73 -22 87 -17
21 8 21 9 -6 21 -22 10 -25 14 -13 22 20 12 37 11 19 -2 -12 -9 -11 -10 8 -6
12 3 20 2 17 -2 -2 -5 7 -13 20 -19 l25 -12 -17 27 c-14 21 -15 27 -4 31 11 4
11 6 0 13 -11 7 -11 9 2 9 23 0 39 -21 39 -51 0 -15 4 -31 10 -34 6 -4 7 5 4
23 -4 22 -2 29 10 29 8 0 14 -5 13 -11 -1 -6 8 -10 19 -9 16 2 25 -7 38 -39 8
-23 18 -39 21 -36 3 3 -1 18 -9 34 -20 36 -12 43 17 16 13 -12 33 -22 44 -22
15 0 27 -11 39 -40 10 -22 19 -38 20 -37 7 7 -18 91 -31 104 -8 8 -15 19 -15
25 0 24 68 -86 84 -136 4 -10 9 -17 12 -14 2 3 0 18 -6 33 -9 24 -9 26 4 16 8
-7 24 -31 36 -54 20 -39 55 -76 73 -77 4 0 3 9 -3 20 -15 28 5 26 24 -2 20
-28 20 -39 1 -32 -12 5 -15 -2 -15 -32 1 -30 7 -43 25 -57 31 -22 32 -11 3 20
-12 13 -17 23 -11 23 13 0 38 -29 47 -54 3 -10 9 -17 11 -14 3 3 -4 25 -14 49
-11 25 -21 65 -22 89 -1 25 -7 51 -12 58 -5 7 -8 14 -6 17 3 2 17 -11 32 -30
16 -20 21 -32 13 -29 -12 5 -14 -1 -11 -30 5 -37 33 -91 43 -82 2 3 -1 19 -8
36 -7 17 -10 33 -6 37 3 3 6 -1 6 -10 0 -9 10 -23 23 -32 15 -12 18 -19 10
-22 -27 -10 -1 -94 32 -107 38 -14 49 -5 18 15 -30 19 -62 79 -42 79 5 0 9 -4
9 -10 0 -8 26 -36 65 -68 8 -7 15 -22 15 -34 0 -12 10 -33 23 -47 l22 -25 -32
23 c-38 26 -43 18 -11 -16 43 -46 74 -20 33 28 -33 40 -24 51 13 15 20 -19 29
-37 30 -63 1 -20 13 -53 27 -75 22 -34 35 -42 56 -40 4 1 16 -21 27 -48 14
-34 30 -54 54 -66 18 -9 27 -19 20 -21 -16 -6 -5 -23 15 -23 13 0 15 9 9 56
-7 64 -30 112 -86 187 -22 28 -38 56 -37 62 2 5 -7 18 -20 28 -12 10 -51 60
-86 112 -76 111 -221 289 -295 363 -76 76 -102 85 -257 85 l-130 0 95 9 c133
12 139 12 208 -11 34 -12 72 -21 85 -21 15 0 38 -16 65 -45 23 -25 42 -42 42
-38 0 4 6 -2 14 -12 8 -11 12 -24 9 -31 -2 -6 3 -14 11 -17 20 -8 20 -9 -4 46
-21 46 -40 69 -40 46 0 -8 -4 -8 -15 1 -8 7 -12 17 -8 23 4 6 1 7 -8 2 -11 -6
-11 -5 -3 4 9 10 17 10 35 1 12 -7 47 -14 78 -16 54 -3 58 -5 116 -66 33 -35
52 -49 41 -33 -10 17 -30 43 -45 58 -22 24 -23 27 -6 21 11 -4 26 -14 33 -22
11 -14 12 -14 12 1 0 19 25 16 89 -9 41 -17 44 -17 35 -2 -5 7 -3 8 6 3 15 -9
52 -16 90 -16 17 0 34 -13 54 -40 29 -37 46 -49 46 -30 0 5 -13 23 -29 40 -16
17 -25 31 -20 31 15 0 69 -30 69 -38 1 -4 12 -20 26 -37 l25 -30 -12 30 c-7
17 -19 37 -25 45 -21 26 -3 35 89 48 86 12 222 59 380 131 37 16 140 55 230
85 189 63 208 71 264 108 53 35 186 101 238 118 62 20 142 29 237 26 70 -3 98
-9 142 -30z m-894 -1866 c25 -25 26 -73 4 -151 -21 -74 -58 -118 -105 -126
-29 -4 -41 -1 -59 17 -20 20 -22 30 -18 90 6 80 38 154 76 175 38 20 79 18
102 -5z m194 10 c22 -8 26 -16 26 -51 0 -32 -6 -47 -29 -68 -25 -23 -27 -29
-14 -37 13 -8 14 -21 9 -67 -4 -31 -12 -57 -17 -57 -11 0 -11 4 1 54 13 59 0
76 -59 76 l-47 0 -13 -65 c-7 -36 -17 -65 -23 -65 -5 0 -7 8 -4 18 7 21 56
254 56 265 0 10 84 9 114 -3z m223 -16 c19 -26 8 -74 -24 -102 -20 -18 -23
-26 -13 -32 15 -9 15 -60 0 -105 -8 -25 -9 -21 -5 26 6 68 -5 82 -66 77 l-43
-3 -14 -62 c-7 -35 -17 -63 -21 -63 -7 0 40 243 54 279 8 21 114 10 132 -15z
m371 2 c21 -20 19 -99 -3 -165 -24 -72 -61 -101 -131 -101 -30 0 -54 2 -54 5
0 5 45 217 55 264 6 22 9 23 62 18 31 -3 63 -13 71 -21z m214 7 c40 -36 9
-200 -48 -254 -28 -26 -94 -33 -116 -11 -19 19 -16 129 5 184 32 84 111 124
159 81z m215 -9 c19 -25 9 -71 -21 -104 -21 -22 -22 -27 -10 -38 11 -10 13
-24 8 -50 -12 -65 -25 -81 -19 -24 7 67 -4 82 -61 82 -47 0 -42 8 -69 -105 -4
-16 -9 -25 -12 -18 -4 10 39 231 53 272 7 21 113 10 131 -15z"/>
<path d="M8809 2135 c-48 -26 -92 -170 -70 -227 9 -24 16 -28 49 -28 61 0 101
62 110 167 4 52 1 67 -13 83 -21 23 -40 25 -76 5z"/>
<path d="M9570 2136 c0 -3 -11 -56 -25 -120 -14 -64 -25 -120 -25 -126 0 -5
18 -10 41 -10 53 0 92 38 113 110 32 108 14 150 -62 150 -23 0 -42 -2 -42 -4z"/>
<path d="M9801 2124 c-49 -41 -82 -199 -49 -232 17 -17 74 -15 93 4 38 38 72
158 59 208 -12 50 -57 59 -103 20z"/>
<path d="M0 3505 l0 -235 135 0 136 0 -3 -462 c-3 -458 -3 -463 -25 -505 -38
-69 -128 -123 -209 -123 l-34 0 0 -232 0 -231 108 7 c337 20 513 140 589 401
16 54 18 133 21 838 l3 777 -361 0 -360 0 0 -235z"/>
<path d="M910 3510 l0 -230 245 0 245 0 0 -705 0 -705 225 0 225 0 0 705 0
705 245 0 245 0 0 230 0 230 -715 0 -715 0 0 -230z"/>
<path d="M2500 2806 l0 -936 225 0 225 0 2 514 3 514 259 -169 c142 -93 264
-169 270 -169 6 0 130 76 276 169 l265 168 3 -513 2 -514 230 0 230 0 0 935
c0 897 -1 935 -18 926 -10 -5 -235 -149 -500 -320 l-482 -310 -468 303 c-257
166 -479 310 -494 320 l-28 18 0 -936z"/>
</g>
</svg>
