<?xml version="1.0" standalone="no"?>
<!DOCTYPE svg PUBLIC "-//W3C//DTD SVG 20010904//EN"
 "http://www.w3.org/TR/2001/REC-SVG-20010904/DTD/svg10.dtd">
<svg version="1.0" xmlns="http://www.w3.org/2000/svg"
 width="1280.000000pt" height="749.000000pt" viewBox="0 0 1280.000000 749.000000"
 preserveAspectRatio="xMidYMid meet">
<metadata>
Created by potrace 1.15, written by Peter Selinger 2001-2017
</metadata>
<g transform="translate(0.000000,749.000000) scale(0.100000,-0.100000)"
fill="#000000" stroke="none">
<path d="M0 3745 l0 -3745 6400 0 6400 0 0 3745 0 3745 -6400 0 -6400 0 0
-3745z m7550 1506 c347 -72 585 -215 778 -468 200 -263 292 -577 293 -1003 1
-457 -109 -782 -368 -1087 -29 -34 -53 -65 -53 -68 0 -17 348 -219 423 -246
21 -7 42 -19 48 -25 6 -7 -9 -54 -42 -135 -28 -68 -53 -126 -55 -128 -13 -14
-212 73 -349 151 -47 27 -193 124 -247 164 l-38 27 -77 -36 c-116 -53 -234
-92 -363 -117 -150 -30 -448 -33 -575 -6 -186 40 -291 77 -414 149 -106 61
-148 93 -237 181 -178 179 -289 365 -374 626 -77 241 -96 613 -46 910 33 194
110 395 211 550 67 103 239 272 349 345 201 131 402 202 681 239 77 11 364 -4
455 -23z m-1692 -208 l2 -173 -792 -2 -793 -3 -3 -200 c-2 -110 0 -314 3 -452
l7 -253 683 0 683 0 6 -31 c12 -61 7 -299 -6 -304 -18 -5 -663 -15 -1046 -15
l-323 0 1 -655 c1 -360 -1 -659 -5 -665 -4 -6 -77 -10 -194 -10 l-188 0 -6
703 c-4 386 -10 1047 -13 1470 l-7 767 994 -2 994 -3 3 -172z"/>
<path d="M7030 4925 c-94 -16 -161 -36 -234 -69 -31 -14 -59 -26 -63 -26 -3 0
-35 -21 -71 -47 -180 -128 -300 -300 -370 -528 -39 -125 -49 -186 -61 -352
-36 -515 120 -932 434 -1157 162 -117 339 -162 600 -153 135 5 173 10 242 31
86 28 101 37 80 54 -26 21 -176 91 -252 118 -44 15 -84 30 -88 34 -4 4 12 65
36 136 l43 129 35 -1 c79 -2 337 -118 452 -203 31 -22 62 -41 69 -41 38 0 158
163 222 301 148 320 151 854 7 1200 -77 186 -241 383 -384 463 -197 110 -458
152 -697 111z"/>
</g>
</svg>
