<?xml version="1.0" encoding="utf-8"?>
<!-- Generator: Adobe Illustrator 21.1.0, SVG Export Plug-In . SVG Version: 6.00 Build 0)  -->
<svg version="1.1" id="Capa_1" xmlns="http://www.w3.org/2000/svg" xmlns:xlink="http://www.w3.org/1999/xlink" x="0px" y="0px"
	 viewBox="0 0 885.3 180.1" style="enable-background:new 0 0 885.3 180.1;" xml:space="preserve">
<style type="text/css">
	.st0{fill:#3E3E3D;}
	.st1{fill:#C20C1F;}
	.st2{fill:url(#SVGID_1_);}
</style>
<g>
	<g id="XMLID_1284_">
		<path id="XMLID_1299_" class="st0" d="M238.8,2.5v29.1h-29.1v88.6h-30.1V31.6h-29.1V2.5H238.8z"/>
		<path id="XMLID_1296_" class="st0" d="M309.7,122.7c-17.3,0-31.9-5.9-43.9-17.6C253.9,93.1,248,78.7,248,61.3
			c0-17.3,5.9-31.8,17.8-43.5C277.7,5.9,292.4,0,309.7,0c17.3,0,31.8,5.9,43.7,17.8c11.9,11.8,18,26.2,18,43.5
			c0,17.3-6.1,31.8-18,43.7C341.4,116.8,327,122.7,309.7,122.7z M309.7,93.3c9.1,0,16.6-3,22.7-8.9c6.1-6.1,9.1-13.8,9.1-23
			c0-9.2-3-17-9.1-22.9c-6.1-6.1-13.6-9.1-22.7-9.1c-9.1,0-16.6,3-22.7,9.1c-6.1,5.9-9.1,13.6-9.1,22.9c0,9.2,3,17,9.1,23
			C293,90.3,300.6,93.3,309.7,93.3z"/>
		<path id="XMLID_1294_" class="st0" d="M386.2,2.5h30.1v76.1c0,9.9,5.5,14.8,16.5,14.8c10.9,0,16.5-4.9,16.5-14.8V2.5h30.1v79
			c0,12.4-4.4,22.4-13.1,29.9c-8.6,7.6-19.8,11.3-33.4,11.3c-13.6,0-24.9-3.7-33.6-11.3c-8.6-7.6-12.9-17.5-12.9-29.9V2.5z"/>
		<path id="XMLID_1291_" class="st0" d="M558.1,120.2l-20.5-38h-10.8v38h-30.1V2.5h47.1c11.9,0,22,3.9,30.1,11.6
			c8.2,7.6,12.3,17.3,12.3,29.1c0,14.1-7.7,26.6-20,33.4l24.2,43.5H558.1z M526.9,30.3v26.4h16.6c7.4,0.2,12.6-5.2,12.6-13.1
			c0-7.9-5.2-13.3-12.6-13.3H526.9z"/>
		<path id="XMLID_1289_" class="st0" d="M603,2.5h30.1v117.6H603V2.5z"/>
		<path id="XMLID_1287_" class="st0" d="M716.4,2.5h29.9v117.6h-23.2L681.6,61v59.2h-30.1V2.5h23.4l41.5,59.2V2.5z"/>
		<path id="XMLID_1285_" class="st0" d="M880.9,52.8v11.9c0,17.3-5.4,31.3-16.3,42c-10.8,10.6-24.7,16-42,16
			c-18.3,0-33.4-5.9-45.4-17.6c-11.8-11.8-17.6-26.2-17.6-43.5c0-17.3,5.9-31.8,17.6-43.7C788.9,5.9,803.5,0,820.9,0
			c10.9,0,21,2.5,30.1,7.4c9.2,4.9,16.3,11.4,21.5,19.7l-25.5,14.6c-4.7-7.4-14.3-12.3-25.7-12.3c-9.2,0-17,3-22.9,9.1
			c-5.9,6.1-8.9,13.8-8.9,23.2c0,9.1,2.9,16.8,8.7,23c5.9,6.2,14.3,9.4,24.9,9.4c13.6,0,22.7-5.2,27.1-15.5h-28.6V52.8H880.9z"/>
	</g>
	<g id="XMLID_1233_">
		<path id="XMLID_1281_" class="st1" d="M172.9,179.4l-1.9-5.8h-12.9l-1.9,5.8h-6.9l11.4-32.4h7.9l11.4,32.4H172.9z M160.1,167.6
			h8.9l-4.4-13.2L160.1,167.6z"/>
		<path id="XMLID_1279_" class="st1" d="M191.8,177c-2.3-2-3.5-4.8-3.5-8.2V147h6.3v21.3c0,3.4,1.9,5.5,6,5.5c4.1,0,6-2.1,6-5.5V147
			h6.4v21.8c0,3.4-1.2,6.2-3.5,8.2c-2.3,2-5.3,3.1-8.9,3.1C197.1,180.1,194.1,179,191.8,177z"/>
		<path id="XMLID_1277_" class="st1" d="M246.8,147v6.1H238v26.3h-6.4v-26.3h-8.7V147H246.8z"/>
		<path id="XMLID_1274_" class="st1" d="M270.3,180.1c-4.7,0-8.7-1.6-12-4.9c-3.2-3.3-4.9-7.3-4.9-12c0-4.7,1.6-8.7,4.9-12
			c3.3-3.3,7.3-4.9,12-4.9c4.7,0,8.7,1.6,12,4.9c3.3,3.2,4.9,7.2,4.9,12c0,4.7-1.6,8.7-4.9,12C279,178.4,275,180.1,270.3,180.1z
			 M270.3,173.8c3,0,5.5-1,7.5-3c2-2,3-4.5,3-7.6c0-3.1-1-5.7-3-7.6c-2-2-4.5-3-7.5-3c-3,0-5.5,1-7.5,3c-2,2-3,4.5-3,7.6
			c0,3.1,1,5.7,3,7.6C264.9,172.8,267.4,173.8,270.3,173.8z"/>
		<path id="XMLID_1272_" class="st1" d="M329.9,147v32.4h-6.3v-21l-9.1,15.1h-0.7l-9.1-15v21h-6.4V147h6.6l9.3,15.3l9.3-15.3H329.9z
			"/>
		<path id="XMLID_1268_" class="st1" d="M369.7,175.2c-3.3,3.2-7.3,4.9-12,4.9c-4.7,0-8.7-1.6-12-4.9c-3.2-3.3-4.9-7.3-4.9-12
			c0-4.7,1.6-8.7,4.9-12c3.3-3.3,7.3-4.9,12-4.9c4.7,0,8.7,1.6,12,4.9c3.3,3.2,4.9,7.2,4.9,12C374.6,167.9,373,171.9,369.7,175.2z
			 M350.3,170.8c2,2,4.5,3,7.5,3c3,0,5.5-1,7.5-3c2-2,3-4.5,3-7.6c0-3.1-1-5.7-3-7.6c-2-2-4.5-3-7.5-3c-3,0-5.5,1-7.5,3
			c-2,2-3,4.5-3,7.6C347.3,166.3,348.3,168.9,350.3,170.8z M354,143.7h5.7l5.1-6.3h-7.2L354,143.7z"/>
		<path id="XMLID_1266_" class="st1" d="M392.1,179.4L381.3,147h6.9l7.9,24.9L404,147h7l-10.9,32.4H392.1z"/>
		<path id="XMLID_1264_" class="st1" d="M420.6,147h6.4v32.4h-6.4V147z"/>
		<path id="XMLID_1262_" class="st1" d="M445.9,173.3h12.4v6.1h-18.8V147h6.4V173.3z"/>
		<path id="XMLID_1260_" class="st1" d="M489.7,175.2c-3.2-3.2-4.8-7.2-4.8-12c0-4.8,1.6-8.8,4.8-12c3.2-3.2,7.2-4.9,12.1-4.9
			c5.9,0,11.2,3,13.9,7.6l-5.5,3.2c-1.6-2.9-4.7-4.6-8.4-4.6c-3.2,0-5.7,1-7.6,3c-1.9,2-2.9,4.5-2.9,7.7c0,3.1,1,5.7,2.9,7.6
			c1.9,2,4.5,3,7.6,3c3.7,0,6.9-1.8,8.4-4.6l5.5,3.2c-2.8,4.7-8,7.6-13.9,7.6C496.9,180.1,492.9,178.4,489.7,175.2z"/>
		<path id="XMLID_1258_" class="st1" d="M532.5,173.3h12.4v6.1h-18.8V147h6.4V173.3z"/>
		<path id="XMLID_1256_" class="st1" d="M557.7,177c-2.3-2-3.5-4.8-3.5-8.2V147h6.3v21.3c0,3.4,1.9,5.5,6,5.5c4.1,0,6-2.1,6-5.5V147
			h6.4v21.8c0,3.4-1.2,6.2-3.5,8.2c-2.3,2-5.3,3.1-8.9,3.1C563,180.1,560,179,557.7,177z"/>
		<path id="XMLID_1252_" class="st1" d="M615.1,170c0,2.7-1,5-2.9,6.8c-1.9,1.8-4.4,2.6-7.2,2.6h-13.8V147H604c2.8,0,5.1,0.9,7,2.6
			c1.9,1.7,2.9,3.9,2.9,6.5c0,2.7-1,4.9-3.1,6.5C613.7,164.2,615.1,166.7,615.1,170z M597.6,153v7.1h6.4c2,0,3.5-1.5,3.5-3.6
			c0-2-1.4-3.6-3.5-3.6H597.6z M605,173.4c2.2,0,3.8-1.6,3.8-3.8c0-2.2-1.6-3.8-3.8-3.8h-7.4v7.6H605z"/>
		<path id="XMLID_1249_" class="st1" d="M656.7,147c4.4,0,8.2,1.6,11.1,4.7c3,3.1,4.5,6.9,4.5,11.5c0,4.6-1.5,8.4-4.5,11.5
			c-3,3.1-6.7,4.7-11.1,4.7h-12.9V147H656.7z M656.7,173.3c2.8,0,5.1-0.9,6.9-2.8c1.8-1.9,2.6-4.3,2.6-7.3c0-3-0.9-5.4-2.6-7.3
			c-1.8-1.9-4-2.8-6.9-2.8h-6.5v20.2H656.7z"/>
		<path id="XMLID_1247_" class="st1" d="M689.7,173.3h13.7v6.1h-20.1V147h19.8v6.1h-13.4v6.9H702v6h-12.3V173.3z"/>
		<path id="XMLID_1245_" class="st1" d="M720.7,173.3h12.4v6.1h-18.8V147h6.4V173.3z"/>
		<path id="XMLID_1242_" class="st1" d="M773.4,147c3.1,0,5.7,1.1,7.9,3.2c2.1,2.1,3.2,4.7,3.2,7.7c0,3.1-1.1,5.7-3.2,7.7
			c-2.1,2.1-4.8,3.2-7.9,3.2h-5.7v10.7h-6.4V147H773.4z M773.4,162.8c2.7,0,4.7-2.1,4.7-4.9c0-2.8-2-4.9-4.7-4.9h-5.7v9.8H773.4z"/>
		<path id="XMLID_1240_" class="st1" d="M801.5,173.3h13.7v6.1h-20.1V147h19.8v6.1h-13.4v6.9h12.3v6h-12.3V173.3z"/>
		<path id="XMLID_1237_" class="st1" d="M843.9,179.4l-6.5-11.3h-4.9v11.3h-6.4V147h13c3,0,5.6,1.1,7.6,3.2c2.1,2.1,3.2,4.6,3.2,7.6
			c0,4-2.5,7.7-6.3,9.5l7.2,12.2H843.9z M832.5,153v9.6h6.6c2.4,0,4.4-2.2,4.4-4.8c0-2.6-2-4.8-4.4-4.8H832.5z"/>
		<path id="XMLID_1234_" class="st1" d="M872.9,180.1c-3.6,0-6.6-1-8.9-3.1c-2.3-2-3.5-4.8-3.5-8.2V147h6.3v21.3
			c0,3.4,1.9,5.5,6,5.5c4.1,0,6-2.1,6-5.5V147h6.4v21.8c0,3.4-1.2,6.2-3.5,8.2C879.5,179,876.6,180.1,872.9,180.1z M869.2,144.1h5.7
			l5.1-6.3h-7.2L869.2,144.1z"/>
	</g>
	<linearGradient id="SVGID_1_" gradientUnits="userSpaceOnUse" x1="60.0402" y1="11.3731" x2="60.0402" y2="178.3683">
		<stop  offset="0" style="stop-color:#EAB916"/>
		<stop  offset="1" style="stop-color:#C20C1F"/>
	</linearGradient>
	<path class="st2" d="M116.5,4.2c-9.2,22.7-24.6,44.4-44.5,62.9c-3.7,3.4-7.7,6.8-11.9,10.2c-4.2-3.3-8.2-6.8-11.9-10.2
		C28.2,48.6,12.8,26.8,3.6,4.2L2.9,2.5H0v27.2l0.1,0.1C9.8,46.9,22.6,62.8,38,77.1c3.2,3,6.6,6,10.3,8.9c-5.9,4-12,7.7-18.2,11.1
		C24,91.8,18.2,86.2,12.9,80.4c-3.2-3.5-6.4-7.3-9.5-11.3L0,64.8v22.6l1.1,1.2c0.3,0.3,0.5,0.6,0.8,0.9c4.5,4.9,9.3,9.8,14.4,14.4
		c-5,2.2-10.1,4.3-15.2,6.1L0,110.4v19.2l0.6,0.4c5.2,4,10.5,7.9,16,11.4c7.7,5,15.8,9.6,24.1,13.6c-13.1,3.9-26.2,6.4-39.1,7.5
		L0,162.9v13.9l2-0.2c19.6-1.6,39.6-6.2,58.1-13.1c18.4,6.9,38.5,11.5,58.1,13.1l2,0.2v-13.9l-1.6-0.1c-12.9-1.1-26-3.6-39.1-7.5
		c8.3-4.1,16.5-8.6,24.1-13.6c5.5-3.6,10.9-7.4,16-11.4l0.6-0.4v-19.2L119,110c-5.1-1.8-10.2-3.9-15.2-6.1
		c5.1-4.7,9.9-9.5,14.4-14.4c0.3-0.4,0.6-0.7,0.9-1.1l0.9-1.1V64.8l-3.4,4.3c-3.1,4-6.3,7.8-9.5,11.3c-5.3,5.8-11.1,11.4-17.1,16.7
		C83.8,93.7,77.7,90,71.9,86c3.6-3,7.1-6,10.3-8.9c15.4-14.3,28.1-30.2,37.9-47.2l0.1-0.1V2.5h-2.9L116.5,4.2z M29.9,133.2
		c-1.8-1.1-3.5-2.2-5.1-3.2c-4.4-2.9-8.7-5.9-12.9-9c5.4-2.1,10.8-4.4,16.2-7c5.6,4.5,11.5,8.7,17.5,12.5
		C40.4,129,35.2,131.3,29.9,133.2z M60,148.4c-4.9-2-9.7-4.1-14.3-6.5c4.8-2.1,9.6-4.5,14.3-7c4.7,2.5,9.5,4.9,14.3,7
		C69.7,144.2,64.9,146.4,60,148.4z M92,114c5.3,2.6,10.8,4.9,16.2,7c-4.1,3.2-8.5,6.2-12.9,9c-1.6,1-3.3,2.1-5.1,3.2
		c-5.3-2-10.6-4.3-15.7-6.8C80.5,122.6,86.3,118.5,92,114z M78.1,106.7c-5.8,4.4-11.9,8.4-18.1,12c-6.2-3.7-12.2-7.7-18.1-12
		c6.2-3.6,12.3-7.5,18.1-11.6C65.8,99.2,71.9,103.1,78.1,106.7z"/>
</g>
</svg>
