<svg xmlns="http://www.w3.org/2000/svg" width="21" height="21" viewBox="0 0 21 21">
  <path id="check_circle_FILL0_wght400_GRAD0_opsz24" d="M89.03-867.61l-2.257-2.258a1,1,0,0,0-.735-.289,1,1,0,0,0-.735.289,1,1,0,0,0-.289.735,1,1,0,0,0,.289.735l2.993,2.992a1.007,1.007,0,0,0,.735.315,1.007,1.007,0,0,0,.735-.315l5.933-5.932a1,1,0,0,0,.289-.735,1,1,0,0,0-.289-.735,1,1,0,0,0-.735-.289,1,1,0,0,0-.735.289ZM90.5-859a10.224,10.224,0,0,1-4.095-.827,10.6,10.6,0,0,1-3.334-2.244,10.6,10.6,0,0,1-2.244-3.334A10.224,10.224,0,0,1,80-869.5a10.225,10.225,0,0,1,.827-4.1,10.6,10.6,0,0,1,2.244-3.334,10.6,10.6,0,0,1,3.334-2.244A10.225,10.225,0,0,1,90.5-880a10.225,10.225,0,0,1,4.1.827,10.6,10.6,0,0,1,3.334,2.244,10.6,10.6,0,0,1,2.244,3.334,10.225,10.225,0,0,1,.827,4.1,10.224,10.224,0,0,1-.827,4.095,10.6,10.6,0,0,1-2.244,3.334,10.6,10.6,0,0,1-3.334,2.244A10.224,10.224,0,0,1,90.5-859Zm0-2.1a8.107,8.107,0,0,0,5.959-2.441A8.107,8.107,0,0,0,98.9-869.5a8.107,8.107,0,0,0-2.441-5.959A8.107,8.107,0,0,0,90.5-877.9a8.107,8.107,0,0,0-5.959,2.441A8.107,8.107,0,0,0,82.1-869.5a8.107,8.107,0,0,0,2.441,5.959A8.107,8.107,0,0,0,90.5-861.1ZM90.5-869.5Z" transform="translate(-80 880)" fill="#00cb7d"/>
</svg>
