<svg xmlns="http://www.w3.org/2000/svg" width="21" height="21" viewBox="0 0 21 21">
  <path id="cancel_FILL0_wght400_GRAD0_opsz24" d="M90.5-868.03l3.045,3.045a1,1,0,0,0,.735.289,1,1,0,0,0,.735-.289,1,1,0,0,0,.289-.735,1,1,0,0,0-.289-.735L91.97-869.5l3.045-3.045a1,1,0,0,0,.289-.735,1,1,0,0,0-.289-.735,1,1,0,0,0-.735-.289,1,1,0,0,0-.735.289L90.5-870.97l-3.045-3.045a1,1,0,0,0-.735-.289,1,1,0,0,0-.735.289,1,1,0,0,0-.289.735,1,1,0,0,0,.289.735L89.03-869.5l-3.045,3.045a1,1,0,0,0-.289.735,1,1,0,0,0,.289.735,1,1,0,0,0,.735.289,1,1,0,0,0,.735-.289Zm0,9.03a10.224,10.224,0,0,1-4.1-.827,10.6,10.6,0,0,1-3.334-2.244,10.6,10.6,0,0,1-2.244-3.334A10.224,10.224,0,0,1,80-869.5a10.225,10.225,0,0,1,.827-4.1,10.6,10.6,0,0,1,2.244-3.334,10.6,10.6,0,0,1,3.334-2.244A10.225,10.225,0,0,1,90.5-880a10.225,10.225,0,0,1,4.1.827,10.6,10.6,0,0,1,3.334,2.244,10.6,10.6,0,0,1,2.244,3.334,10.225,10.225,0,0,1,.827,4.1,10.224,10.224,0,0,1-.827,4.095,10.6,10.6,0,0,1-2.244,3.334,10.6,10.6,0,0,1-3.334,2.244A10.224,10.224,0,0,1,90.5-859Zm0-2.1a8.107,8.107,0,0,0,5.959-2.441A8.107,8.107,0,0,0,98.9-869.5a8.107,8.107,0,0,0-2.441-5.959A8.107,8.107,0,0,0,90.5-877.9a8.107,8.107,0,0,0-5.959,2.441A8.107,8.107,0,0,0,82.1-869.5a8.107,8.107,0,0,0,2.441,5.959A8.107,8.107,0,0,0,90.5-861.1ZM90.5-869.5Z" transform="translate(-80 880)" fill="#e6092b"/>
</svg>
