<svg xmlns="http://www.w3.org/2000/svg" width="41.741" height="30" viewBox="0 0 41.741 30">
  <g id="Grupo_1165" data-name="Grupo 1165" transform="translate(-1517.259 -637)">
    <text id="Día_1" data-name="Día
1" transform="translate(1544 651)" fill="#fff" font-size="12" font-family="Roboto-Bold, Roboto" font-weight="700"><tspan x="-8.839" y="0">Día</tspan><tspan x="-3.442" y="12">1</tspan></text>
    <g id="Grupo_1175" data-name="Grupo 1175">
      <circle id="Elipse_59" data-name="Elipse 59" cx="15" cy="15" r="15" transform="translate(1529 637)" fill="#00cb7d"/>
      <g id="Grupo_1136" data-name="Grupo 1136" transform="translate(410.259 -346.3)">
        <g id="Grupo_1135" data-name="Grupo 1135" transform="translate(1108 991.3)">
          <g id="bookmark_manager_FILL0_wght400_GRAD0_opsz24" transform="translate(-103.68 783.403)" fill="#00cb7d">
            <path d="M 113.947265625 -769.099365234375 L 112.7848510742188 -769.099365234375 C 112.4534072875977 -769.099365234375 112.1575546264648 -769.2200317382812 111.9292831420898 -769.4483642578125 C 111.7010345458984 -769.6766357421875 111.5803527832031 -769.9724731445312 111.5803527832031 -770.3038330078125 L 111.5803527832031 -771.46630859375 C 111.5803527832031 -771.62353515625 111.6101455688477 -771.77783203125 111.6689071655273 -771.9248657226562 C 111.7294235229492 -772.0760498046875 111.8200073242188 -772.2124633789062 111.9382171630859 -772.3306274414062 L 115.6199722290039 -775.9948120117188 C 115.7761764526367 -776.1510620117188 115.9561538696289 -776.2672729492188 116.1539611816406 -776.3392333984375 C 116.3379364013672 -776.406005859375 116.5256958007812 -776.4398193359375 116.7123870849609 -776.4398193359375 C 116.9178009033203 -776.4398193359375 117.1178131103516 -776.4005737304688 117.3068618774414 -776.3232421875 C 117.4972610473633 -776.2453002929688 117.6710357666016 -776.1285400390625 117.8233337402344 -775.9761962890625 L 118.4749069213867 -775.3246459960938 L 118.485221862793 -775.3143310546875 L 118.4949264526367 -775.3034057617188 C 118.6260833740234 -775.156005859375 118.7301712036133 -774.9893798828125 118.8042907714844 -774.8082275390625 C 118.881591796875 -774.6192016601562 118.9207763671875 -774.4251708984375 118.9207763671875 -774.2313232421875 C 118.9207763671875 -774.0466918945312 118.8877334594727 -773.8580932617188 118.8225631713867 -773.6707763671875 C 118.7507934570312 -773.4644775390625 118.6337738037109 -773.279296875 118.4747543334961 -773.1204223632812 L 114.8115844726562 -769.4570922851562 C 114.6932678222656 -769.3388061523438 114.5567855834961 -769.2482299804688 114.4059219360352 -769.1879272460938 C 114.2590026855469 -769.129150390625 114.1046829223633 -769.099365234375 113.947265625 -769.099365234375 Z" stroke="none"/>
            <path d="M 113.947265625 -769.599365234375 C 114.0411911010742 -769.599365234375 114.1321868896484 -769.616943359375 114.2202453613281 -769.6521606445312 C 114.3083038330078 -769.6873779296875 114.3875732421875 -769.740234375 114.4580230712891 -769.8106689453125 L 118.1213607788086 -773.47412109375 C 118.22705078125 -773.5797119140625 118.3033676147461 -773.7000732421875 118.3503265380859 -773.8350830078125 C 118.3972930908203 -773.9700927734375 118.4207763671875 -774.1021728515625 118.4207763671875 -774.2313232421875 C 118.4207763671875 -774.360595703125 118.3943481445312 -774.48974609375 118.3415222167969 -774.618896484375 C 118.2886810302734 -774.748046875 118.2153015136719 -774.865478515625 118.1213607788086 -774.9710693359375 L 117.4697113037109 -775.6226806640625 C 117.3640441894531 -775.7283935546875 117.2466278076172 -775.8076171875 117.1174621582031 -775.8604736328125 C 116.8699111938477 -775.9617309570312 116.5949401855469 -775.9673461914062 116.3249282836914 -775.869384765625 C 116.1957778930664 -775.8223876953125 116.0783309936523 -775.74609375 115.9726715087891 -775.640380859375 L 112.2917175292969 -771.97705078125 C 112.2212524414062 -771.9066162109375 112.1684265136719 -771.8272705078125 112.1331939697266 -771.7392578125 C 112.0979614257812 -771.651123046875 112.0803527832031 -771.5601806640625 112.0803527832031 -771.46630859375 L 112.0803527832031 -770.3038330078125 C 112.0803527832031 -770.104248046875 112.1478729248047 -769.9368896484375 112.2828979492188 -769.8018798828125 C 112.4179229736328 -769.6668090820312 112.5852355957031 -769.599365234375 112.7848510742188 -769.599365234375 L 113.947265625 -769.599365234375 M 115.2857971191406 -773.4564208984375 L 115.6204223632812 -773.139404296875 L 115.9374542236328 -772.8048095703125 L 113.8063659667969 -770.6561279296875 L 113.1371078491211 -770.6561279296875 L 113.1371078491211 -771.3253173828125 L 115.2857971191406 -773.4564208984375 M 116.7123870849609 -774.883056640625 L 117.3640441894531 -774.2313232421875 L 116.7123870849609 -774.883056640625 M 115.9374542236328 -772.8048095703125 L 115.6204223632812 -773.139404296875 L 115.2857971191406 -773.4564208984375 L 115.9374542236328 -772.8048095703125 M 113.947265625 -768.599365234375 L 112.7848510742188 -768.599365234375 C 112.3178863525391 -768.599365234375 111.8997573852539 -768.7706909179688 111.57568359375 -769.0949096679688 C 111.2516860961914 -769.4188842773438 111.0803527832031 -769.8369750976562 111.0803527832031 -770.3038330078125 L 111.0803527832031 -771.46630859375 C 111.0803527832031 -771.6874389648438 111.1221618652344 -771.9041137695312 111.2046279907227 -772.1104125976562 C 111.2905349731445 -772.3250122070312 111.4183578491211 -772.5179443359375 111.5847015380859 -772.6842651367188 L 115.2672653198242 -776.3491821289062 C 115.4745864868164 -776.5565795898438 115.7160263061523 -776.7119750976562 115.9830169677734 -776.80908203125 C 116.4863739013672 -776.9918212890625 117.0209808349609 -776.98046875 117.4962539672852 -776.7859497070312 C 117.7484359741211 -776.6827392578125 117.9774627685547 -776.5292358398438 118.1769561767578 -776.3296508789062 L 118.8684844970703 -775.6357421875 C 119.037353515625 -775.4459228515625 119.1714553833008 -775.231201171875 119.2670516967773 -774.99755859375 C 119.3690719604492 -774.7481079101562 119.4207763671875 -774.4903564453125 119.4207763671875 -774.2313232421875 C 119.4207763671875 -773.9906616210938 119.3783950805664 -773.7467651367188 119.294807434082 -773.5065307617188 C 119.1980361938477 -773.228271484375 119.041015625 -772.9793701171875 118.8281326293945 -772.7666625976562 L 115.1651458740234 -769.1035766601562 C 114.9986343383789 -768.9370727539062 114.8056945800781 -768.809326171875 114.5915908813477 -768.7236938476562 C 114.385368347168 -768.6411743164062 114.168571472168 -768.599365234375 113.947265625 -768.599365234375 Z" stroke="none" fill="#fff"/>
          </g>
          <g id="file_open_FILL0_wght400_GRAD0_opsz24_1_" data-name="file_open_FILL0_wght400_GRAD0_opsz24 (1)" transform="translate(-160 880)" fill="#00cb7d">
            <path d="M 166.9139556884766 -865.4999389648438 L 161.3827819824219 -865.4999389648438 C 160.8656616210938 -865.4999389648438 160.4174041748047 -865.6882934570312 160.0504608154297 -866.059814453125 C 159.6851959228516 -866.4296264648438 159.5 -866.8804931640625 159.5 -867.3999633789062 L 159.5 -878.5999145507812 C 159.5 -879.119384765625 159.6851959228516 -879.5702514648438 160.0504608154297 -879.9400634765625 C 160.4172973632812 -880.3115234375 160.8655853271484 -880.4999389648438 161.3827819824219 -880.4999389648438 L 166.3435516357422 -880.4999389648438 C 166.5937194824219 -880.4999389648438 166.8360595703125 -880.4515991210938 167.0638275146484 -880.356201171875 C 167.2915649414062 -880.2607421875 167.4944610595703 -880.1237182617188 167.6672058105469 -879.9488525390625 L 171.0205078125 -876.5538330078125 C 171.19287109375 -876.3793334960938 171.3277740478516 -876.1746215820312 171.4214630126953 -875.9453735351562 C 171.5149230957031 -875.7167358398438 171.5623321533203 -875.4735107421875 171.5623321533203 -875.2224731445312 L 171.5623321533203 -872.2999877929688 C 171.5623321533203 -871.9710083007812 171.4436950683594 -871.677001953125 171.2192687988281 -871.4498291015625 C 170.9931945800781 -871.220947265625 170.6998443603516 -871.0999755859375 170.3709259033203 -871.0999755859375 C 170.0419921875 -871.0999755859375 169.7486419677734 -871.220947265625 169.5225830078125 -871.4498291015625 C 169.2981719970703 -871.677001953125 169.1795349121094 -871.9710083007812 169.1795349121094 -872.2999877929688 L 169.1795349121094 -874.5999755859375 L 166.9139556884766 -874.5999755859375 C 166.5850219726562 -874.5999755859375 166.2916717529297 -874.720947265625 166.0656127929688 -874.9498291015625 C 165.8411865234375 -875.177001953125 165.7225494384766 -875.4710083007812 165.7225494384766 -875.7999877929688 L 165.7225494384766 -878.0999145507812 L 161.8827819824219 -878.0999145507812 L 161.8827819824219 -867.8999633789062 L 166.9139556884766 -867.8999633789062 C 167.2429809570312 -867.8999633789062 167.5363616943359 -867.7789306640625 167.7623748779297 -867.5499877929688 C 167.9867248535156 -867.3229370117188 168.1053619384766 -867.0289306640625 168.1053619384766 -866.699951171875 C 168.1053619384766 -866.3710327148438 167.9867248535156 -866.0770874023438 167.7622833251953 -865.849853515625 C 167.5363006591797 -865.6209716796875 167.242919921875 -865.4999389648438 166.9139556884766 -865.4999389648438 Z" stroke="none"/>
            <path d="M 166.9139556884766 -865.9999389648438 C 167.1098480224609 -865.9999389648438 167.2740631103516 -866.0670166015625 167.4065704345703 -866.2012329101562 C 167.5390930175781 -866.3353881835938 167.6053619384766 -866.5016479492188 167.6053619384766 -866.699951171875 C 167.6053619384766 -866.8983154296875 167.5390930175781 -867.0645751953125 167.4065704345703 -867.19873046875 C 167.2740631103516 -867.3329467773438 167.1098480224609 -867.3999633789062 166.9139556884766 -867.3999633789062 L 161.3827819824219 -867.3999633789062 L 161.3827819824219 -878.5999145507812 L 166.2225494384766 -878.5999145507812 L 166.2225494384766 -875.7999877929688 C 166.2225494384766 -875.6016235351562 166.288818359375 -875.4353637695312 166.4213409423828 -875.3012084960938 C 166.5538482666016 -875.1670532226562 166.7180633544922 -875.0999755859375 166.9139556884766 -875.0999755859375 L 169.6795349121094 -875.0999755859375 L 169.6795349121094 -872.2999877929688 C 169.6795349121094 -872.1016235351562 169.7457885742188 -871.9353637695312 169.8783111572266 -871.8012084960938 C 170.0108184814453 -871.6670532226562 170.1750335693359 -871.5999755859375 170.3709259033203 -871.5999755859375 C 170.5668334960938 -871.5999755859375 170.7310333251953 -871.6670532226562 170.8635559082031 -871.8012084960938 C 170.9960784912109 -871.9353637695312 171.0623321533203 -872.1016235351562 171.0623321533203 -872.2999877929688 L 171.0623321533203 -875.2224731445312 C 171.0623321533203 -875.4091796875 171.0277557373047 -875.5870971679688 170.9586181640625 -875.7562255859375 C 170.8894805908203 -875.9254150390625 170.7915191650391 -876.0741577148438 170.6647796630859 -876.2024536132812 L 167.3115081787109 -879.5974731445312 C 167.1847534179688 -879.7257690429688 167.0378265380859 -879.824951171875 166.8707427978516 -879.89501953125 C 166.7036590576172 -879.9649658203125 166.5279388427734 -879.9999389648438 166.3435516357422 -879.9999389648438 L 161.3827819824219 -879.9999389648438 C 161.0025177001953 -879.9999389648438 160.6769866943359 -879.8629150390625 160.4061889648438 -879.5886840820312 C 160.1353912353516 -879.3145141601562 160 -878.9849853515625 160 -878.5999145507812 L 160 -867.3999633789062 C 160 -867.0149536132812 160.1353912353516 -866.6853637695312 160.4061889648438 -866.4111938476562 C 160.6769866943359 -866.1370239257812 161.0025177001953 -865.9999389648438 161.3827819824219 -865.9999389648438 L 166.9139556884766 -865.9999389648438 M 161.3827819824219 -867.3999633789062 L 161.3827819824219 -878.5999145507812 L 161.3827819824219 -867.3999633789062 M 166.9139556884766 -864.9999389648438 L 161.3827819824219 -864.9999389648438 C 160.7362670898438 -864.9999389648438 160.1525421142578 -865.2449340820312 159.6947174072266 -865.70849609375 C 159.240234375 -866.1686401367188 159 -866.7535400390625 159 -867.3999633789062 L 159 -878.5999145507812 C 159 -879.246337890625 159.240234375 -879.8312377929688 159.6947174072266 -880.2913818359375 C 160.1524047851562 -880.7548828125 160.7361602783203 -880.9999389648438 161.3827819824219 -880.9999389648438 L 166.3435516357422 -880.9999389648438 C 166.6603698730469 -880.9999389648438 166.9676818847656 -880.9385375976562 167.2569122314453 -880.8174438476562 C 167.5460510253906 -880.6961669921875 167.8035736083984 -880.5222778320312 168.0229034423828 -880.30029296875 L 171.3762512207031 -876.9051513671875 C 171.5947723388672 -876.6839599609375 171.7657318115234 -876.4246215820312 171.8843078613281 -876.134521484375 C 172.0024108886719 -875.8455810546875 172.0623321533203 -875.5386962890625 172.0623321533203 -875.2224731445312 L 172.0623321533203 -872.2999877929688 C 172.0623321533203 -871.836669921875 171.8938140869141 -871.4212036132812 171.5749816894531 -871.0984497070312 C 171.2528839111328 -870.7723388671875 170.8365173339844 -870.5999755859375 170.3709259033203 -870.5999755859375 C 169.9053344726562 -870.5999755859375 169.4889526367188 -870.7723388671875 169.1668395996094 -871.0985107421875 C 168.8480529785156 -871.4212036132812 168.6795349121094 -871.836669921875 168.6795349121094 -872.2999877929688 L 168.6795349121094 -874.0999755859375 L 166.9139556884766 -874.0999755859375 C 166.4483642578125 -874.0999755859375 166.031982421875 -874.2723388671875 165.7098693847656 -874.5985107421875 C 165.3910827636719 -874.9212036132812 165.2225494384766 -875.336669921875 165.2225494384766 -875.7999877929688 L 165.2225494384766 -877.5999145507812 L 162.3827819824219 -877.5999145507812 L 162.3827819824219 -868.3999633789062 L 166.9139556884766 -868.3999633789062 C 167.3796997070312 -868.3999633789062 167.7961120605469 -868.2275390625 168.1181945800781 -867.9013061523438 C 168.4368286132812 -867.5787353515625 168.6053619384766 -867.1632690429688 168.6053619384766 -866.699951171875 C 168.6053619384766 -866.2366943359375 168.4368438720703 -865.8212890625 168.1180114746094 -865.4984741210938 C 167.7960510253906 -865.17236328125 167.379638671875 -864.9999389648438 166.9139556884766 -864.9999389648438 Z" stroke="none" fill="#fff"/>
          </g>
        </g>
        <g id="alarm_on_FILL0_wght400_GRAD0_opsz24" transform="translate(901.533 1684.267)" fill="#00cb7d">
          <path d="M 211.2323913574219 -682.0870361328125 C 210.9119567871094 -682.0870361328125 210.6186370849609 -682.2109985351562 210.3841400146484 -682.445556640625 L 208.8804321289062 -683.9669189453125 C 208.6480102539062 -684.1992797851562 208.5240478515625 -684.4956665039062 208.5240478515625 -684.8218994140625 C 208.5240478515625 -685.14794921875 208.64794921875 -685.4442749023438 208.8823852539062 -685.6788940429688 C 209.1172027587891 -685.9135131835938 209.4104614257812 -686.0374145507812 209.730712890625 -686.0374145507812 C 210.0510101318359 -686.0374145507812 210.3442840576172 -685.9135131835938 210.5788421630859 -685.6790771484375 L 211.2324066162109 -685.0255126953125 L 213.3698425292969 -687.1629638671875 C 213.604248046875 -687.3973999023438 213.9006195068359 -687.5213623046875 214.2268981933594 -687.5213623046875 C 214.5531311035156 -687.5213623046875 214.8495178222656 -687.3973999023438 215.0839691162109 -687.1629028320312 C 215.3184356689453 -686.928466796875 215.4423828125 -686.6321411132812 215.4423828125 -686.305908203125 C 215.4423828125 -685.979736328125 215.3184509277344 -685.6834106445312 215.0839996337891 -685.4488525390625 L 212.0806121826172 -682.4454956054688 C 211.8461303710938 -682.2109985351562 211.5528106689453 -682.0870361328125 211.2323913574219 -682.0870361328125 Z" stroke="none"/>
          <path d="M 211.2323913574219 -682.5870361328125 C 211.4208374023438 -682.5870361328125 211.5857238769531 -682.65771484375 211.72705078125 -682.799072265625 L 214.7303924560547 -685.8023681640625 C 214.8717193603516 -685.9437255859375 214.9423828125 -686.111572265625 214.9423828125 -686.305908203125 C 214.9423828125 -686.500244140625 214.8717193603516 -686.6680908203125 214.7303924560547 -686.8093872070312 C 214.5890502929688 -686.9507446289062 214.4212188720703 -687.0213623046875 214.2268981933594 -687.0213623046875 C 214.0325469970703 -687.0213623046875 213.8647155761719 -686.9507446289062 213.723388671875 -686.8093872070312 L 211.2323913574219 -684.3184204101562 L 210.2253875732422 -685.325439453125 C 210.0840606689453 -685.4666748046875 209.9191741943359 -685.5374145507812 209.730712890625 -685.5374145507812 C 209.5422821044922 -685.5374145507812 209.3773956298828 -685.4666748046875 209.2360534667969 -685.325439453125 C 209.0947265625 -685.1840209960938 209.0240478515625 -685.0161743164062 209.0240478515625 -684.8218994140625 C 209.0240478515625 -684.6275634765625 209.0947265625 -684.459716796875 209.2360534667969 -684.3184204101562 L 210.7377319335938 -682.799072265625 C 210.8790588378906 -682.65771484375 211.0439453125 -682.5870361328125 211.2323913574219 -682.5870361328125 M 211.2323913574219 -681.5870361328125 C 210.7764434814453 -681.5870361328125 210.3608551025391 -681.7616577148438 210.0305480957031 -682.092041015625 L 210.0265045166016 -682.0961303710938 L 208.5258941650391 -683.6143798828125 C 208.1975708007812 -683.9441528320312 208.0240478515625 -684.3616333007812 208.0240478515625 -684.8218994140625 C 208.0240478515625 -685.2833862304688 208.1985626220703 -685.7019653320312 208.5287322998047 -686.0323486328125 C 208.8595581054688 -686.3629150390625 209.2750396728516 -686.5374145507812 209.730712890625 -686.5374145507812 C 210.1864471435547 -686.5374145507812 210.6019439697266 -686.3629150390625 210.9322967529297 -686.0327758789062 L 211.2324066162109 -685.7326049804688 L 213.0162811279297 -687.5164794921875 C 213.3464660644531 -687.8467407226562 213.7651214599609 -688.0213623046875 214.2268981933594 -688.0213623046875 C 214.6886444091797 -688.0213623046875 215.1072845458984 -687.8467407226562 215.4375610351562 -687.5164794921875 C 215.7677917480469 -687.186279296875 215.9423828125 -686.7676391601562 215.9423828125 -686.305908203125 C 215.9423828125 -685.8442993164062 215.7678375244141 -685.4256591796875 215.4376068115234 -685.0953369140625 L 212.4341583251953 -682.0919799804688 C 212.1039123535156 -681.7616577148438 211.6883239746094 -681.5870361328125 211.2323913574219 -681.5870361328125 Z" stroke="none" fill="#fff"/>
        </g>
      </g>
    </g>
  </g>
</svg>
