<svg xmlns="http://www.w3.org/2000/svg" width="47.604" height="30" viewBox="0 0 47.604 30">
  <g id="Grupo_1167" data-name="Grupo 1167" transform="translate(-1511.396 -838)">
    <text id="Día_3" data-name="Día
3" transform="translate(1544 852)" fill="#fff" font-size="12" font-family="Roboto-Bold, Roboto" font-weight="700"><tspan x="-8.839" y="0">Día</tspan><tspan x="-3.442" y="12">3</tspan></text>
    <g id="Grupo_1176" data-name="Grupo 1176">
      <circle id="Elipse_62" data-name="Elipse 62" cx="15" cy="15" r="15" transform="translate(1529 838)" fill="#fece00"/>
      <g id="Grupo_1156" data-name="Grupo 1156" transform="translate(416.734 -144.3)">
        <g id="acute_FILL0_wght400_GRAD0_opsz24" transform="translate(1055.661 1788.667)" fill="#ffce00">
          <path d="M 43.55003356933594 -785.3946533203125 L 41.7750244140625 -785.3946533203125 C 41.39206314086914 -785.3946533203125 41.05068206787109 -785.53466796875 40.78779220581055 -785.7994995117188 C 40.52589416503906 -786.0634765625 40.38750457763672 -786.4056396484375 40.38750457763672 -786.7891235351562 C 40.38750457763672 -787.1726684570312 40.52592468261719 -787.5148315429688 40.78778457641602 -787.7786865234375 C 41.05052185058594 -788.0435791015625 41.39194107055664 -788.1836547851562 41.7750244140625 -788.1836547851562 L 43.55003356933594 -788.1836547851562 C 43.93311309814453 -788.1836547851562 44.27453231811523 -788.0435791015625 44.53739166259766 -787.778564453125 C 44.79913330078125 -787.5148315429688 44.93755340576172 -787.1726684570312 44.93755340576172 -786.7891235351562 C 44.93755340576172 -786.4056396484375 44.79916381835938 -786.0634765625 44.5373420715332 -785.799560546875 C 44.27437210083008 -785.53466796875 43.93299102783203 -785.3946533203125 43.55003356933594 -785.3946533203125 Z M 43.55003356933594 -788.9727172851562 L 40.88750457763672 -788.9727172851562 C 40.50442123413086 -788.9727172851562 40.16301345825195 -789.11279296875 39.90015411376953 -789.3778076171875 C 39.63839340209961 -789.6416625976562 39.50000381469727 -789.9838256835938 39.50000381469727 -790.3673095703125 C 39.50000381469727 -790.7506713867188 39.63837432861328 -791.0927734375 39.90014266967773 -791.3567504882812 C 40.16308212280273 -791.6217651367188 40.50448226928711 -791.7617797851562 40.88750457763672 -791.7617797851562 L 43.55003356933594 -791.7617797851562 C 43.93306350708008 -791.7617797851562 44.27446365356445 -791.6217651367188 44.53733444213867 -791.3568115234375 C 44.7991828918457 -791.0927734375 44.93755340576172 -790.7506103515625 44.93755340576172 -790.3673095703125 C 44.93755340576172 -789.9838256835938 44.79916381835938 -789.6416625976562 44.5373420715332 -789.3777465820312 C 44.27453231811523 -789.11279296875 43.93311309814453 -788.9727172851562 43.55003356933594 -788.9727172851562 Z M 43.55003356933594 -792.5509033203125 L 41.7750244140625 -792.5509033203125 C 41.39201354980469 -792.5509033203125 41.05061340332031 -792.69091796875 40.7877311706543 -792.9558715820312 C 40.52587127685547 -793.2199096679688 40.38750457763672 -793.56201171875 40.38750457763672 -793.9453735351562 C 40.38750457763672 -794.328857421875 40.52589416503906 -794.6710205078125 40.78772354125977 -794.9349365234375 C 41.05052185058594 -795.1998901367188 41.39194107055664 -795.3399658203125 41.7750244140625 -795.3399658203125 L 43.55003356933594 -795.3399658203125 C 43.93311309814453 -795.3399658203125 44.27453231811523 -795.1998901367188 44.53739166259766 -794.9348754882812 C 44.79916381835938 -794.6710205078125 44.93755340576172 -794.328857421875 44.93755340576172 -793.9453735351562 C 44.93755340576172 -793.56201171875 44.7991828918457 -793.2199096679688 44.53740310668945 -792.9559326171875 C 44.27444458007812 -792.69091796875 43.93304443359375 -792.5509033203125 43.55003356933594 -792.5509033203125 Z" stroke="none"/>
          <path d="M 41.7750244140625 -794.8399658203125 C 41.52355194091797 -794.8399658203125 41.31277465820312 -794.7542724609375 41.14266204833984 -794.582763671875 C 40.97256469726562 -794.4113159179688 40.88750457763672 -794.1988525390625 40.88750457763672 -793.9453735351562 C 40.88750457763672 -793.6919555664062 40.97256469726562 -793.4795532226562 41.14266204833984 -793.3080444335938 C 41.31277465820312 -793.1365966796875 41.52355194091797 -793.0509033203125 41.7750244140625 -793.0509033203125 L 43.55003356933594 -793.0509033203125 C 43.8015022277832 -793.0509033203125 44.01228332519531 -793.1365966796875 44.18239212036133 -793.3080444335938 C 44.35249328613281 -793.4795532226562 44.43755340576172 -793.6919555664062 44.43755340576172 -793.9453735351562 C 44.43755340576172 -794.1988525390625 44.35249328613281 -794.4113159179688 44.18239212036133 -794.582763671875 C 44.01228332519531 -794.7542724609375 43.8015022277832 -794.8399658203125 43.55003356933594 -794.8399658203125 L 41.7750244140625 -794.8399658203125 M 40.88750457763672 -791.2617797851562 C 40.63604354858398 -791.2617797851562 40.42526245117188 -791.1760864257812 40.25515365600586 -791.004638671875 C 40.08505249023438 -790.8331298828125 40.00000381469727 -790.6207275390625 40.00000381469727 -790.3673095703125 C 40.00000381469727 -790.1138305664062 40.08505249023438 -789.9013671875 40.25515365600586 -789.7299194335938 C 40.42526245117188 -789.5584106445312 40.63604354858398 -789.4727172851562 40.88750457763672 -789.4727172851562 L 43.55003356933594 -789.4727172851562 C 43.8015022277832 -789.4727172851562 44.01228332519531 -789.5584106445312 44.18239212036133 -789.7299194335938 C 44.35249328613281 -789.9013671875 44.43755340576172 -790.1138305664062 44.43755340576172 -790.3673095703125 C 44.43755340576172 -790.6207275390625 44.35249328613281 -790.8331298828125 44.18239212036133 -791.004638671875 C 44.01228332519531 -791.1760864257812 43.8015022277832 -791.2617797851562 43.55003356933594 -791.2617797851562 L 40.88750457763672 -791.2617797851562 M 41.7750244140625 -787.6836547851562 C 41.52355194091797 -787.6836547851562 41.31277465820312 -787.5979614257812 41.14266204833984 -787.4264526367188 C 40.97256469726562 -787.2550659179688 40.88750457763672 -787.0426025390625 40.88750457763672 -786.7891235351562 C 40.88750457763672 -786.5357055664062 40.97256469726562 -786.3231811523438 41.14266204833984 -786.1517333984375 C 41.31277465820312 -785.9803466796875 41.52355194091797 -785.8946533203125 41.7750244140625 -785.8946533203125 L 43.55003356933594 -785.8946533203125 C 43.8015022277832 -785.8946533203125 44.01228332519531 -785.9803466796875 44.18239212036133 -786.1517333984375 C 44.35249328613281 -786.3231811523438 44.43755340576172 -786.5357055664062 44.43755340576172 -786.7891235351562 C 44.43755340576172 -787.0426025390625 44.35249328613281 -787.2550659179688 44.18239212036133 -787.4264526367188 C 44.01228332519531 -787.5979614257812 43.8015022277832 -787.6836547851562 43.55003356933594 -787.6836547851562 L 41.7750244140625 -787.6836547851562 M 41.7750244140625 -795.8399658203125 L 43.55003356933594 -795.8399658203125 C 44.06938171386719 -795.8399658203125 44.53356170654297 -795.6487426757812 44.89239120483398 -795.2869873046875 C 45.24899291992188 -794.9275512695312 45.43755340576172 -794.4635620117188 45.43755340576172 -793.9453735351562 C 45.43755340576172 -793.4273071289062 45.24904251098633 -792.9634399414062 44.89239120483398 -792.6038208007812 C 44.68854904174805 -792.3983764648438 44.45082473754883 -792.2479858398438 44.18831253051758 -792.1563720703125 C 44.45081329345703 -792.064697265625 44.68850326538086 -791.9143676757812 44.89227294921875 -791.708984375 C 45.24904251098633 -791.3492431640625 45.43755340576172 -790.8853149414062 45.43755340576172 -790.3673095703125 C 45.43755340576172 -789.84912109375 45.24900436401367 -789.3851318359375 44.89229202270508 -789.025634765625 C 44.68860626220703 -788.8202514648438 44.45088577270508 -788.6698608398438 44.18840408325195 -788.5781860351562 C 44.45089340209961 -788.4865112304688 44.68864440917969 -788.3360595703125 44.89239120483398 -788.1306762695312 C 45.24895477294922 -787.7714233398438 45.43755340576172 -787.3074340820312 45.43755340576172 -786.7891235351562 C 45.43755340576172 -786.2709350585938 45.24900436401367 -785.8069458007812 44.89229202270508 -785.4474487304688 C 44.53328323364258 -785.0857543945312 44.06919479370117 -784.8946533203125 43.55003356933594 -784.8946533203125 L 41.7750244140625 -784.8946533203125 C 41.25586318969727 -784.8946533203125 40.79177474975586 -785.0857543945312 40.43293380737305 -785.447265625 C 40.07605361938477 -785.8069458007812 39.88750457763672 -786.2709350585938 39.88750457763672 -786.7891235351562 C 39.88750457763672 -787.3074340820312 40.07610321044922 -787.7714233398438 40.43291473388672 -788.1309204101562 C 40.57158279418945 -788.2706909179688 40.72605514526367 -788.3850708007812 40.89339065551758 -788.4727172851562 L 40.88750457763672 -788.4727172851562 C 40.3681526184082 -788.4727172851562 39.90397262573242 -788.6639404296875 39.5451545715332 -789.0256958007812 C 39.18855285644531 -789.3851318359375 39.00000381469727 -789.84912109375 39.00000381469727 -790.3673095703125 C 39.00000381469727 -790.8853759765625 39.18850326538086 -791.3492431640625 39.54513168334961 -791.7088012695312 C 39.90410232543945 -792.0706176757812 40.36824417114258 -792.2617797851562 40.88750457763672 -792.2617797851562 L 40.89352798461914 -792.2617797851562 C 40.72613143920898 -792.3494262695312 40.57157516479492 -792.4638671875 40.43278121948242 -792.6036987304688 C 40.07601165771484 -792.9634399414062 39.88750457763672 -793.4273071289062 39.88750457763672 -793.9453735351562 C 39.88750457763672 -794.4635620117188 40.0760612487793 -794.9275512695312 40.43278121948242 -795.287109375 C 40.7914924621582 -795.6487426757812 41.25567245483398 -795.8399658203125 41.7750244140625 -795.8399658203125 Z" stroke="none" fill="#fff"/>
        </g>
        <g id="bookmark_manager_FILL0_wght400_GRAD0_opsz24" transform="translate(998.082 1774.947)" fill="#fece00">
          <path d="M 113.8773956298828 -769.3365478515625 L 112.7584838867188 -769.3365478515625 C 112.4343948364258 -769.3365478515625 112.1450500488281 -769.45458984375 111.9217224121094 -769.677978515625 C 111.6984100341797 -769.9012451171875 111.5803527832031 -770.1906127929688 111.5803527832031 -770.5147094726562 L 111.5803527832031 -771.6336059570312 C 111.5803527832031 -771.7875366210938 111.6095123291016 -771.9384155273438 111.6670150756836 -772.0820922851562 C 111.7259750366211 -772.2296142578125 111.8146362304688 -772.3632202148438 111.930419921875 -772.4789428710938 L 115.4743118286133 -776.0059204101562 C 115.6266708374023 -776.1582641601562 115.8022232055664 -776.2716064453125 115.9952011108398 -776.341796875 C 116.1739120483398 -776.4067993164062 116.3569107055664 -776.4397583007812 116.5390701293945 -776.4397583007812 C 116.7392425537109 -776.4397583007812 116.9341049194336 -776.4015502929688 117.1182556152344 -776.3262329101562 C 117.3038635253906 -776.250244140625 117.47314453125 -776.1365356445312 117.6215438842773 -775.9882202148438 L 118.2488861083984 -775.3607788085938 L 118.2592391967773 -775.3504638671875 L 118.2689743041992 -775.3394775390625 C 118.3966217041016 -775.1959228515625 118.4979019165039 -775.0338134765625 118.5700149536133 -774.8575439453125 C 118.6453552246094 -774.67333984375 118.6835327148438 -774.4841918945312 118.6835327148438 -774.2952270507812 C 118.6835327148438 -774.1154174804688 118.6513748168945 -773.9318237304688 118.5879592895508 -773.74951171875 C 118.5180206298828 -773.54833984375 118.4039001464844 -773.3677368164062 118.2488250732422 -773.212646484375 L 114.7226104736328 -769.6863403320312 C 114.6066360473633 -769.5704956054688 114.4731597900391 -769.4819946289062 114.3257064819336 -769.423095703125 C 114.1820220947266 -769.3656616210938 114.0311813354492 -769.3365478515625 113.8773956298828 -769.3365478515625 Z" stroke="none"/>
          <path d="M 113.8773956298828 -769.8365478515625 C 113.9678115844727 -769.8365478515625 114.0554046630859 -769.853515625 114.1401748657227 -769.8873901367188 C 114.2249298095703 -769.9212646484375 114.3012237548828 -769.97216796875 114.3690490722656 -770.0399169921875 L 117.8953247070312 -773.5662841796875 C 117.9970397949219 -773.66796875 118.0705261230469 -773.7838134765625 118.11572265625 -773.913818359375 C 118.1609344482422 -774.0437622070312 118.1835327148438 -774.1708374023438 118.1835327148438 -774.2952270507812 C 118.1835327148438 -774.4196166992188 118.1581039428711 -774.5438842773438 118.1072540283203 -774.668212890625 C 118.0563812255859 -774.7925415039062 117.9857406616211 -774.9055786132812 117.8953247070312 -775.0072631835938 L 117.2680435180664 -775.6345825195312 C 117.1663360595703 -775.7362670898438 117.0533142089844 -775.8125610351562 116.9289855957031 -775.8634643554688 C 116.6906967163086 -775.9609375 116.4260559082031 -775.9664306640625 116.1660995483398 -775.8718872070312 C 116.0417709350586 -775.82666015625 115.9287414550781 -775.7532348632812 115.8270263671875 -775.6514892578125 L 112.2837905883789 -772.1251831054688 C 112.2159729003906 -772.0574340820312 112.1651153564453 -771.9811401367188 112.1312103271484 -771.8963012695312 C 112.0973052978516 -771.8115844726562 112.0803527832031 -771.7239990234375 112.0803527832031 -771.6336059570312 L 112.0803527832031 -770.5147094726562 C 112.0803527832031 -770.322509765625 112.1453399658203 -770.1614379882812 112.2752990722656 -770.031494140625 C 112.4052810668945 -769.9014892578125 112.5663452148438 -769.8365478515625 112.7584838867188 -769.8365478515625 L 113.8773956298828 -769.8365478515625 M 115.1658554077148 -773.54931640625 L 115.4879608154297 -773.244140625 L 115.7931289672852 -772.9220581054688 L 113.7417755126953 -770.8536987304688 L 113.0975494384766 -770.8536987304688 L 113.0975494384766 -771.4979858398438 L 115.1658554077148 -773.54931640625 M 116.5390701293945 -774.9225463867188 L 117.1663360595703 -774.2952270507812 L 116.5390701293945 -774.9225463867188 M 115.7931289672852 -772.9220581054688 L 115.4879608154297 -773.244140625 L 115.1658554077148 -773.54931640625 L 115.7931289672852 -772.9220581054688 M 113.8773956298828 -768.8365478515625 L 112.7584838867188 -768.8365478515625 C 112.2988891601562 -768.8365478515625 111.8872833251953 -769.0052490234375 111.5681457519531 -769.324462890625 C 111.2490615844727 -769.6434936523438 111.0803527832031 -770.0551147460938 111.0803527832031 -770.5147094726562 L 111.0803527832031 -771.6336059570312 C 111.0803527832031 -771.8514404296875 111.1215515136719 -772.0648803710938 111.2028198242188 -772.2678833007812 C 111.286994934082 -772.4785766601562 111.412971496582 -772.6687622070312 111.5770492553711 -772.8326416015625 L 115.1216125488281 -776.3602905273438 C 115.3251190185547 -776.5638427734375 115.562141418457 -776.71630859375 115.8243026733398 -776.8116455078125 C 116.3156051635742 -776.990478515625 116.84130859375 -776.979736328125 117.3075256347656 -776.7890625 C 117.5550155639648 -776.687744140625 117.7794799804688 -776.5372924804688 117.9750442504883 -776.341796875 L 118.6426239013672 -775.6717529296875 C 118.8079452514648 -775.48583984375 118.9392013549805 -775.2755737304688 119.0327835083008 -775.046875 C 119.1328353881836 -774.80224609375 119.1835327148438 -774.5494384765625 119.1835327148438 -774.2952270507812 C 119.1835327148438 -774.059326171875 119.1420364379883 -773.8204345703125 119.0601959228516 -773.585205078125 C 118.9652938842773 -773.312255859375 118.8112258911133 -773.0679321289062 118.6023254394531 -772.8590698242188 L 115.076171875 -769.3328247070312 C 114.9118194580078 -769.1686401367188 114.7218933105469 -769.04296875 114.5112457275391 -768.9588012695312 C 114.3083038330078 -768.877685546875 114.0950241088867 -768.8365478515625 113.8773956298828 -768.8365478515625 Z" stroke="none" fill="#fff"/>
        </g>
        <g id="file_open_FILL0_wght400_GRAD0_opsz24_1_" data-name="file_open_FILL0_wght400_GRAD0_opsz24 (1)" transform="translate(941.525 1871.3)" fill="#fece00">
          <path d="M 167.0000610351562 -865.4998779296875 L 161.4000091552734 -865.4998779296875 C 160.8792114257812 -865.4998779296875 160.4275512695312 -865.6875610351562 160.0576019287109 -866.0576782226562 C 159.6876220703125 -866.4276733398438 159.5 -866.8792724609375 159.5 -867.39990234375 L 159.5 -878.5999755859375 C 159.5 -879.12060546875 159.6876220703125 -879.5722045898438 160.0576629638672 -879.9422607421875 C 160.4277496337891 -880.3123779296875 160.8793640136719 -880.5 161.4000091552734 -880.5 L 166.4225616455078 -880.5 C 166.6741638183594 -880.5 166.9180145263672 -880.451904296875 167.1473693847656 -880.3570556640625 C 167.3770294189453 -880.261962890625 167.5817413330078 -880.1254272460938 167.7560729980469 -879.9511108398438 L 171.1511535644531 -876.5559692382812 C 171.3255767822266 -876.381591796875 171.4621887207031 -876.1768188476562 171.5571136474609 -875.9473876953125 C 171.6519927978516 -875.7180786132812 171.7000885009766 -875.47412109375 171.7000885009766 -875.222412109375 L 171.7000885009766 -872.2999267578125 C 171.7000885009766 -871.9697265625 171.579833984375 -871.6749877929688 171.3523406982422 -871.447509765625 C 171.125 -871.22021484375 170.8302764892578 -871.0999755859375 170.5000915527344 -871.0999755859375 C 170.1699523925781 -871.0999755859375 169.8752288818359 -871.2201538085938 169.6478118896484 -871.4475708007812 C 169.4203338623047 -871.675048828125 169.3000946044922 -871.9697875976562 169.3000946044922 -872.2999267578125 L 169.3000946044922 -874.599853515625 L 167.0000610351562 -874.599853515625 C 166.6699676513672 -874.599853515625 166.375244140625 -874.7200927734375 166.1477508544922 -874.9476318359375 C 165.9203033447266 -875.175048828125 165.800048828125 -875.4697875976562 165.800048828125 -875.7999267578125 L 165.800048828125 -878.0999755859375 L 161.9000091552734 -878.0999755859375 L 161.9000091552734 -867.89990234375 L 167.0000610351562 -867.89990234375 C 167.3301391601562 -867.89990234375 167.6248626708984 -867.7796630859375 167.8523559570312 -867.5521850585938 C 168.0798034667969 -867.3247680664062 168.2000579833984 -867.030029296875 168.2000579833984 -866.6998291015625 C 168.2000579833984 -866.36962890625 168.0798034667969 -866.0748901367188 167.8523101806641 -865.8474731445312 C 167.6249542236328 -865.6200561523438 167.3302307128906 -865.4998779296875 167.0000610351562 -865.4998779296875 Z" stroke="none"/>
          <path d="M 167.0000610351562 -865.9998779296875 C 167.1983947753906 -865.9998779296875 167.3646545410156 -866.06689453125 167.4988098144531 -866.2010498046875 C 167.6329956054688 -866.335205078125 167.7000579833984 -866.50146484375 167.7000579833984 -866.6998291015625 C 167.7000579833984 -866.898193359375 167.6329956054688 -867.064453125 167.4988098144531 -867.1986083984375 C 167.3646545410156 -867.332763671875 167.1983947753906 -867.39990234375 167.0000610351562 -867.39990234375 L 161.4000091552734 -867.39990234375 L 161.4000091552734 -878.5999755859375 L 166.300048828125 -878.5999755859375 L 166.300048828125 -875.7999267578125 C 166.300048828125 -875.6015625 166.3671417236328 -875.435302734375 166.5013122558594 -875.3011474609375 C 166.6354675292969 -875.1669921875 166.8017272949219 -875.099853515625 167.0000610351562 -875.099853515625 L 169.8000946044922 -875.099853515625 L 169.8000946044922 -872.2999267578125 C 169.8000946044922 -872.1015625 169.8671722412109 -871.935302734375 170.0013427734375 -871.8011474609375 C 170.1355133056641 -871.6669921875 170.3017578125 -871.5999755859375 170.5000915527344 -871.5999755859375 C 170.6984252929688 -871.5999755859375 170.8646850585938 -871.6669921875 170.9988403320312 -871.8011474609375 C 171.1330261230469 -871.935302734375 171.2000885009766 -872.1015625 171.2000885009766 -872.2999267578125 L 171.2000885009766 -875.222412109375 C 171.2000885009766 -875.4090576171875 171.1651000976562 -875.5870361328125 171.0951080322266 -875.7562255859375 C 171.0251007080078 -875.9254150390625 170.9259338378906 -876.0740966796875 170.7975921630859 -876.202392578125 L 167.4025573730469 -879.5975341796875 C 167.2742309570312 -879.725830078125 167.1254730224609 -879.824951171875 166.956298828125 -879.89501953125 C 166.7871398925781 -879.9649658203125 166.6092224121094 -880 166.4225616455078 -880 L 161.4000091552734 -880 C 161.0149993896484 -880 160.6854095458984 -879.8629150390625 160.4112396240234 -879.5887451171875 C 160.1370849609375 -879.3145751953125 160 -878.9849853515625 160 -878.5999755859375 L 160 -867.39990234375 C 160 -867.014892578125 160.1370849609375 -866.685302734375 160.4112396240234 -866.4111328125 C 160.6854095458984 -866.1368408203125 161.0149993896484 -865.9998779296875 161.4000091552734 -865.9998779296875 L 167.0000610351562 -865.9998779296875 M 161.4000091552734 -867.39990234375 L 161.4000091552734 -878.5999755859375 L 161.4000091552734 -867.39990234375 M 167.0000610351562 -864.9998779296875 L 161.4000091552734 -864.9998779296875 C 160.7510070800781 -864.9998779296875 160.1645202636719 -865.243408203125 159.7039794921875 -865.7041625976562 C 159.2434692382812 -866.1647338867188 159 -866.7510986328125 159 -867.39990234375 L 159 -878.5999755859375 C 159 -879.248779296875 159.2434692382812 -879.8351440429688 159.7041015625 -880.2958374023438 C 160.1647796630859 -880.7565307617188 160.7512054443359 -881 161.4000091552734 -881 L 166.4225616455078 -881 C 166.7400512695312 -881 167.0481872558594 -880.9391479492188 167.3384246826172 -880.8191528320312 C 167.6293334960938 -880.6986694335938 167.8885955810547 -880.525634765625 168.1095733642578 -880.3047485351562 L 171.5047149658203 -876.9094848632812 C 171.7257995605469 -876.6884765625 171.89892578125 -876.4290771484375 172.0191192626953 -876.1385498046875 C 172.1392211914062 -875.8482666015625 172.2000885009766 -875.5400390625 172.2000885009766 -875.222412109375 L 172.2000885009766 -872.2999267578125 C 172.2000885009766 -871.834228515625 172.0291748046875 -871.4171752929688 171.7058410644531 -871.0939331054688 C 171.3827514648438 -870.7708129882812 170.9657745361328 -870.5999755859375 170.5000915527344 -870.5999755859375 C 170.0344543457031 -870.5999755859375 169.6174926757812 -870.7708129882812 169.2942657470703 -871.093994140625 C 168.9709930419922 -871.417236328125 168.8000946044922 -871.834228515625 168.8000946044922 -872.2999267578125 L 168.8000946044922 -874.099853515625 L 167.0000610351562 -874.099853515625 C 166.5344696044922 -874.099853515625 166.1174774169922 -874.270751953125 165.794189453125 -874.5940551757812 C 165.470947265625 -874.917236328125 165.300048828125 -875.3342895507812 165.300048828125 -875.7999267578125 L 165.300048828125 -877.5999755859375 L 162.4000091552734 -877.5999755859375 L 162.4000091552734 -868.39990234375 L 167.0000610351562 -868.39990234375 C 167.4656372070312 -868.39990234375 167.8826141357422 -868.22900390625 168.2059173583984 -867.9057006835938 C 168.5291595458984 -867.58251953125 168.7000579833984 -867.16552734375 168.7000579833984 -866.6998291015625 C 168.7000579833984 -866.234130859375 168.5291595458984 -865.817138671875 168.2058410644531 -865.4938354492188 C 167.8826904296875 -865.1707153320312 167.4657135009766 -864.9998779296875 167.0000610351562 -864.9998779296875 Z" stroke="none" fill="#fff"/>
        </g>
      </g>
    </g>
  </g>
</svg>
