<svg xmlns="http://www.w3.org/2000/svg" width="41.741" height="30" viewBox="0 0 41.741 30">
  <g id="Grupo_1169" data-name="Grupo 1169" transform="translate(-1517.259 -738)">
    <text id="Día_6" data-name="Día
6" transform="translate(1544 752)" fill="#fff" font-size="12" font-family="Roboto-Bold, Roboto" font-weight="700"><tspan x="-8.839" y="0">Día</tspan><tspan x="-3.442" y="12">6</tspan></text>
    <g id="Grupo_1177" data-name="Grupo 1177">
      <circle id="Elipse_60" data-name="Elipse 60" cx="15" cy="15" r="15" transform="translate(1529 738)" fill="#e6092b"/>
      <g id="Grupo_1155" data-name="Grupo 1155" transform="translate(367.168 -246.3)">
        <g id="Grupo_1133" data-name="Grupo 1133" transform="translate(1151.091 991.3)">
          <g id="bookmark_manager_FILL0_wght400_GRAD0_opsz24" transform="translate(-103.694 783.388)" fill="#e6092b">
            <path d="M 113.9513854980469 -769.0853881835938 L 112.7863998413086 -769.0853881835938 C 112.4544906616211 -769.0853881835938 112.1582641601562 -769.2062377929688 111.9297256469727 -769.434814453125 C 111.7012252807617 -769.6632080078125 111.5803527832031 -769.95947265625 111.5803527832031 -770.2913818359375 L 111.5803527832031 -771.4564208984375 C 111.5803527832031 -771.614013671875 111.6101913452148 -771.7684936523438 111.6690521240234 -771.9156494140625 C 111.7295837402344 -772.0669555664062 111.8203201293945 -772.20361328125 111.9387741088867 -772.3219604492188 L 115.6285400390625 -775.9940795898438 C 115.7849655151367 -776.1505126953125 115.9651641845703 -776.266845703125 116.1632461547852 -776.3389892578125 C 116.346809387207 -776.4058227539062 116.5350112915039 -776.439697265625 116.7225952148438 -776.439697265625 C 116.9286422729492 -776.439697265625 117.1289596557617 -776.4004516601562 117.317985534668 -776.3230590820312 C 117.508415222168 -776.2451171875 117.682373046875 -776.1282958984375 117.8350143432617 -775.9757690429688 L 118.4882431030273 -775.3225708007812 L 118.4986801147461 -775.3120727539062 L 118.5084915161133 -775.3010864257812 C 118.6397857666016 -775.1532592773438 118.7439422607422 -774.9865112304688 118.8180694580078 -774.8053588867188 C 118.8955001831055 -774.6161499023438 118.9347534179688 -774.4217529296875 118.9347534179688 -774.2275390625 C 118.9347534179688 -774.042724609375 118.9016723632812 -773.8538818359375 118.83642578125 -773.666259765625 C 118.764533996582 -773.4595336914062 118.6473541259766 -773.2740478515625 118.4881362915039 -773.1149291992188 L 114.8168106079102 -769.443603515625 C 114.6982192993164 -769.3250732421875 114.5615768432617 -769.234375 114.4105606079102 -769.1740112304688 C 114.2637939453125 -769.115234375 114.1091995239258 -769.0853881835938 113.9513854980469 -769.0853881835938 Z" stroke="none"/>
            <path d="M 113.9513854980469 -769.5853881835938 C 114.0455093383789 -769.5853881835938 114.1367263793945 -769.6029663085938 114.2249603271484 -769.6383056640625 C 114.3132095336914 -769.673583984375 114.3926544189453 -769.7265625 114.4632568359375 -769.797119140625 L 118.1346893310547 -773.4686279296875 C 118.2406005859375 -773.574462890625 118.3170700073242 -773.695068359375 118.3641510009766 -773.8304443359375 C 118.4112243652344 -773.9658203125 118.4347534179688 -774.09814453125 118.4347534179688 -774.2275390625 C 118.4347534179688 -774.3570556640625 118.4082794189453 -774.486572265625 118.3553314208984 -774.615966796875 C 118.302375793457 -774.745361328125 118.2288208007812 -774.863037109375 118.1346893310547 -774.968994140625 L 117.4815902709961 -775.6220703125 C 117.3756866455078 -775.7279052734375 117.2580108642578 -775.807373046875 117.1285705566406 -775.8603515625 C 116.8805084228516 -775.9619140625 116.6049270629883 -775.9677124023438 116.3342742919922 -775.869140625 C 116.204833984375 -775.822021484375 116.0871658325195 -775.74560546875 115.9812393188477 -775.6396484375 L 112.2921752929688 -771.96826171875 C 112.221549987793 -771.897705078125 112.1686096191406 -771.8182373046875 112.13330078125 -771.72998046875 C 112.0979995727539 -771.6417236328125 112.0803527832031 -771.550537109375 112.0803527832031 -771.4564208984375 L 112.0803527832031 -770.2913818359375 C 112.0803527832031 -770.09130859375 112.1480102539062 -769.923583984375 112.2833404541016 -769.788330078125 C 112.4186706542969 -769.6529541015625 112.5863494873047 -769.5853881835938 112.7863998413086 -769.5853881835938 L 113.9513854980469 -769.5853881835938 M 115.2928466796875 -773.450927734375 L 115.6282196044922 -773.13330078125 L 115.9459533691406 -772.7978515625 L 113.8101501464844 -770.6444091796875 L 113.1394348144531 -770.6444091796875 L 113.1394348144531 -771.315185546875 L 115.2928466796875 -773.450927734375 M 116.7225952148438 -774.8807373046875 L 117.3756866455078 -774.2275390625 L 116.7225952148438 -774.8807373046875 M 115.9459533691406 -772.7978515625 L 115.6282196044922 -773.13330078125 L 115.2928466796875 -773.450927734375 L 115.9459533691406 -772.7978515625 M 113.9513854980469 -768.5853881835938 L 112.7863998413086 -768.5853881835938 C 112.3189697265625 -768.5853881835938 111.9004516601562 -768.7568969726562 111.5761032104492 -769.0813598632812 C 111.2518997192383 -769.4053955078125 111.0803527832031 -769.8239135742188 111.0803527832031 -770.2913818359375 L 111.0803527832031 -771.4564208984375 C 111.0803527832031 -771.6778564453125 111.1222229003906 -771.8948364257812 111.2048110961914 -772.101318359375 C 111.2906799316406 -772.3159790039062 111.418701171875 -772.5091552734375 111.5853652954102 -772.6756591796875 L 115.2758331298828 -776.3484497070312 C 115.4833755493164 -776.5560302734375 115.7250061035156 -776.7115478515625 115.9922027587891 -776.808837890625 C 116.2307662963867 -776.8956909179688 116.4765014648438 -776.939697265625 116.7225952148438 -776.939697265625 C 116.9939117431641 -776.939697265625 117.2579650878906 -776.887939453125 117.5073928833008 -776.7858276367188 C 117.7595062255859 -776.6826171875 117.988639831543 -776.529052734375 118.1884307861328 -776.3294677734375 L 118.8823013305664 -775.6331176757812 C 119.0511627197266 -775.4430541992188 119.1852416992188 -775.228271484375 119.2808227539062 -774.9947509765625 C 119.3829650878906 -774.7451171875 119.4347534179688 -774.4869995117188 119.4347534179688 -774.2275390625 C 119.4347534179688 -773.9866943359375 119.3923416137695 -773.7426147460938 119.3086929321289 -773.5020141601562 C 119.211784362793 -773.223388671875 119.0546340942383 -772.9741821289062 118.8415603637695 -772.7612915039062 L 115.1703643798828 -769.0900268554688 C 115.0035095214844 -768.9232788085938 114.8104019165039 -768.79541015625 114.5961761474609 -768.7097778320312 C 114.3903121948242 -768.6273193359375 114.1731719970703 -768.5853881835938 113.9513854980469 -768.5853881835938 Z" stroke="none" fill="#fff"/>
          </g>
          <g id="file_open_FILL0_wght400_GRAD0_opsz24_1_" data-name="file_open_FILL0_wght400_GRAD0_opsz24 (1)" transform="translate(-160 880)" fill="#e6092b">
            <path d="M 166.9088592529297 -865.5 L 161.3817596435547 -865.5 C 160.8648223876953 -865.5 160.4167633056641 -865.6884155273438 160.0500183105469 -866.06005859375 C 159.68505859375 -866.4298095703125 159.5 -866.8806762695312 159.5 -867.4000244140625 L 159.5 -878.5999755859375 C 159.5 -879.1193237304688 159.68505859375 -879.5701904296875 160.0500335693359 -879.93994140625 C 160.4167785644531 -880.3115844726562 160.8648376464844 -880.5 161.3817596435547 -880.5 L 166.3388824462891 -880.5 C 166.5888671875 -880.5 166.8311157226562 -880.4515991210938 167.0588836669922 -880.356201171875 C 167.2861938476562 -880.260986328125 167.4890899658203 -880.1239013671875 167.6619415283203 -879.9487915039062 L 171.0127868652344 -876.5537109375 C 171.1849517822266 -876.37939453125 171.3197631835938 -876.1746215820312 171.4134368896484 -875.9452514648438 C 171.5068054199219 -875.716796875 171.5541839599609 -875.4735717773438 171.5541839599609 -875.2225341796875 L 171.5541839599609 -872.300048828125 C 171.5541839599609 -871.9711303710938 171.4356384277344 -871.6771850585938 171.2113800048828 -871.4500122070312 C 170.9854431152344 -871.2211303710938 170.6921844482422 -871.10009765625 170.3632965087891 -871.10009765625 C 170.0344085693359 -871.10009765625 169.7411346435547 -871.2211303710938 169.5151824951172 -871.4500732421875 C 169.2909545898438 -871.6771850585938 169.1724090576172 -871.9711303710938 169.1724090576172 -872.300048828125 L 169.1724090576172 -874.60009765625 L 166.9088592529297 -874.60009765625 C 166.5799865722656 -874.60009765625 166.2867126464844 -874.7211303710938 166.0607604980469 -874.9500122070312 C 165.8365020751953 -875.1771850585938 165.7179718017578 -875.4711303710938 165.7179718017578 -875.800048828125 L 165.7179718017578 -878.0999755859375 L 161.8817596435547 -878.0999755859375 L 161.8817596435547 -867.9000244140625 L 166.9088592529297 -867.9000244140625 C 167.2377319335938 -867.9000244140625 167.5309906005859 -867.7789916992188 167.7569580078125 -867.5501098632812 C 167.9812164306641 -867.3229370117188 168.0997467041016 -867.0289916992188 168.0997467041016 -866.7000732421875 C 168.0997467041016 -866.3711547851562 167.9812164306641 -866.0772705078125 167.7569732666016 -865.8500366210938 C 167.5308837890625 -865.6210327148438 167.2376251220703 -865.5 166.9088592529297 -865.5 Z" stroke="none"/>
            <path d="M 166.9088592529297 -866 C 167.1046142578125 -866 167.2686920166016 -866.067138671875 167.401123046875 -866.2012939453125 C 167.5335388183594 -866.33544921875 167.5997467041016 -866.501708984375 167.5997467041016 -866.7000732421875 C 167.5997467041016 -866.8984375 167.5335388183594 -867.064697265625 167.401123046875 -867.1988525390625 C 167.2686920166016 -867.3330078125 167.1046142578125 -867.4000244140625 166.9088592529297 -867.4000244140625 L 161.3817596435547 -867.4000244140625 L 161.3817596435547 -878.5999755859375 L 166.2179718017578 -878.5999755859375 L 166.2179718017578 -875.800048828125 C 166.2179718017578 -875.6016845703125 166.2841796875 -875.4354248046875 166.4166107177734 -875.30126953125 C 166.5490264892578 -875.1671142578125 166.7131042480469 -875.10009765625 166.9088592529297 -875.10009765625 L 169.6724090576172 -875.10009765625 L 169.6724090576172 -872.300048828125 C 169.6724090576172 -872.1016845703125 169.7386169433594 -871.9354248046875 169.8710479736328 -871.80126953125 C 170.0034637451172 -871.6671142578125 170.1675415039062 -871.60009765625 170.3632965087891 -871.60009765625 C 170.5590362548828 -871.60009765625 170.7231292724609 -871.6671142578125 170.8555450439453 -871.80126953125 C 170.9879760742188 -871.9354248046875 171.0541839599609 -872.1016845703125 171.0541839599609 -872.300048828125 L 171.0541839599609 -875.2225341796875 C 171.0541839599609 -875.4091796875 171.0196380615234 -875.587158203125 170.9505462646484 -875.7562255859375 C 170.8814544677734 -875.9254150390625 170.7835845947266 -876.07421875 170.6569213867188 -876.2025146484375 L 167.3061218261719 -879.5975341796875 C 167.1794586181641 -879.725830078125 167.0326538085938 -879.8250732421875 166.8656768798828 -879.89501953125 C 166.6987152099609 -879.9649658203125 166.5231170654297 -880 166.3388824462891 -880 L 161.3817596435547 -880 C 161.0017852783203 -880 160.6764831542969 -879.8629150390625 160.4058990478516 -879.5887451171875 C 160.1352996826172 -879.3145751953125 160 -878.9849853515625 160 -878.5999755859375 L 160 -867.4000244140625 C 160 -867.0150146484375 160.1352996826172 -866.6854248046875 160.4058990478516 -866.4112548828125 C 160.6764831542969 -866.1370849609375 161.0017852783203 -866 161.3817596435547 -866 L 166.9088592529297 -866 M 161.3817596435547 -867.4000244140625 L 161.3817596435547 -878.5999755859375 L 161.3817596435547 -867.4000244140625 M 166.9088592529297 -865 L 161.3817596435547 -865 C 160.7353668212891 -865 160.1517944335938 -865.2451171875 159.6941528320312 -865.7088012695312 C 159.2400360107422 -866.1689453125 159 -866.7537231445312 159 -867.4000244140625 L 159 -878.5999755859375 C 159 -879.2462768554688 159.2400360107422 -879.8310546875 159.6941680908203 -880.2911987304688 C 160.1517944335938 -880.7548828125 160.7353668212891 -881 161.3817596435547 -881 L 166.3388824462891 -881 C 166.6555633544922 -881 166.9628143310547 -880.9385375976562 167.2521057128906 -880.8173217773438 C 167.5406341552734 -880.6964721679688 167.7982482910156 -880.5223999023438 168.0177612304688 -880.300048828125 L 171.36865234375 -876.9049682617188 C 171.5869445800781 -876.6838989257812 171.7577972412109 -876.424560546875 171.8763275146484 -876.13427734375 C 171.9943084716797 -875.8455810546875 172.0541839599609 -875.5387573242188 172.0541839599609 -875.2225341796875 L 172.0541839599609 -872.300048828125 C 172.0541839599609 -871.8368530273438 171.8857879638672 -871.4214477539062 171.5671997070312 -871.0987548828125 C 171.2452392578125 -870.7725219726562 170.8289184570312 -870.60009765625 170.3632965087891 -870.60009765625 C 169.8976593017578 -870.60009765625 169.4813232421875 -870.7725219726562 169.1593170166016 -871.0988159179688 C 168.8408050537109 -871.4214477539062 168.6724090576172 -871.8368530273438 168.6724090576172 -872.300048828125 L 168.6724090576172 -874.10009765625 L 166.9088592529297 -874.10009765625 C 166.4432373046875 -874.10009765625 166.0269165039062 -874.2725219726562 165.7048950195312 -874.5988159179688 C 165.3863677978516 -874.9214477539062 165.2179718017578 -875.3368530273438 165.2179718017578 -875.800048828125 L 165.2179718017578 -877.5999755859375 L 162.3817596435547 -877.5999755859375 L 162.3817596435547 -868.4000244140625 L 166.9088592529297 -868.4000244140625 C 167.3744659423828 -868.4000244140625 167.7907867431641 -868.2276000976562 168.11279296875 -867.9013671875 C 168.4313659667969 -867.57861328125 168.5997467041016 -867.1632080078125 168.5997467041016 -866.7000732421875 C 168.5997467041016 -866.2369384765625 168.4313659667969 -865.821533203125 168.1128234863281 -865.4988403320312 C 167.7906646728516 -865.1724853515625 167.3743591308594 -865 166.9088592529297 -865 Z" stroke="none" fill="#fff"/>
          </g>
        </g>
        <g id="cancel_FILL0_wght400_GRAD0_opsz24" transform="translate(951.097 1753.474)" fill="#e6092b">
          <path d="M 207.7359313964844 -751.29052734375 C 207.4653778076172 -751.29052734375 207.2255554199219 -751.3873291015625 207.0423889160156 -751.5704956054688 L 205.9874267578125 -752.6255493164062 L 204.9324493408203 -751.5704956054688 C 204.7493591308594 -751.3873901367188 204.5095062255859 -751.29052734375 204.2389221191406 -751.29052734375 C 203.9683990478516 -751.29052734375 203.7285766601562 -751.3873291015625 203.5453948974609 -751.5704956054688 C 203.3622131347656 -751.7537231445312 203.265380859375 -751.9935302734375 203.265380859375 -752.2640991210938 C 203.265380859375 -752.5346069335938 203.3622131347656 -752.7744140625 203.5453948974609 -752.9576416015625 L 204.6003570556641 -754.0125732421875 L 203.5453948974609 -755.0675048828125 C 203.3622131347656 -755.250732421875 203.265380859375 -755.4905395507812 203.265380859375 -755.7610473632812 C 203.265380859375 -756.0316162109375 203.3622131347656 -756.2714233398438 203.5453948974609 -756.4546508789062 C 203.7285766601562 -756.6378173828125 203.9683990478516 -756.734619140625 204.2389221191406 -756.734619140625 C 204.5095062255859 -756.734619140625 204.7493591308594 -756.6377563476562 204.9324951171875 -756.45458984375 L 205.9874267578125 -755.399658203125 L 207.0423889160156 -756.4546508789062 C 207.2255554199219 -756.6378173828125 207.4653778076172 -756.734619140625 207.7359313964844 -756.734619140625 C 208.0065155029297 -756.734619140625 208.2463684082031 -756.6377563476562 208.4295043945312 -756.45458984375 C 208.6126556396484 -756.2714233398438 208.7095031738281 -756.0315551757812 208.7095031738281 -755.7610473632812 C 208.7095031738281 -755.4905395507812 208.6126556396484 -755.250732421875 208.4294586181641 -755.0675048828125 L 207.3744964599609 -754.0125732421875 L 208.4294586181641 -752.9576416015625 C 208.6126556396484 -752.7744140625 208.7095031738281 -752.5346069335938 208.7095031738281 -752.2640991210938 C 208.7095031738281 -751.9935913085938 208.6126556396484 -751.7537231445312 208.4294586181641 -751.5704956054688 C 208.2463684082031 -751.3873901367188 208.0065155029297 -751.29052734375 207.7359313964844 -751.29052734375 Z" stroke="none"/>
          <path d="M 207.7359313964844 -751.79052734375 C 207.87353515625 -751.79052734375 207.9868774414062 -751.8350219726562 208.0758972167969 -751.924072265625 C 208.1649475097656 -752.0131225585938 208.2095031738281 -752.12646484375 208.2095031738281 -752.2640991210938 C 208.2095031738281 -752.4016723632812 208.1649475097656 -752.5150146484375 208.0758972167969 -752.6040649414062 L 206.6673889160156 -754.0125732421875 L 208.0758972167969 -755.4210815429688 C 208.1649475097656 -755.5101318359375 208.2095031738281 -755.6234741210938 208.2095031738281 -755.7610473632812 C 208.2095031738281 -755.8987426757812 208.1649475097656 -756.0120239257812 208.0758972167969 -756.10107421875 C 207.9868774414062 -756.1901245117188 207.87353515625 -756.234619140625 207.7359313964844 -756.234619140625 C 207.5982971191406 -756.234619140625 207.4849853515625 -756.1901245117188 207.3959350585938 -756.10107421875 L 205.9874267578125 -754.6925659179688 L 204.5788879394531 -756.10107421875 C 204.4898681640625 -756.1901245117188 204.3765258789062 -756.234619140625 204.2389221191406 -756.234619140625 C 204.101318359375 -756.234619140625 203.9880065917969 -756.1901245117188 203.8989562988281 -756.10107421875 C 203.8099060058594 -756.0120239257812 203.765380859375 -755.8987426757812 203.765380859375 -755.7610473632812 C 203.765380859375 -755.6234741210938 203.8099060058594 -755.5101318359375 203.8989562988281 -755.4210815429688 L 205.3074645996094 -754.0125732421875 L 203.8989562988281 -752.6040649414062 C 203.8099060058594 -752.5150146484375 203.765380859375 -752.4016723632812 203.765380859375 -752.2640991210938 C 203.765380859375 -752.12646484375 203.8099060058594 -752.0131225585938 203.8989562988281 -751.924072265625 C 203.9880065917969 -751.8350219726562 204.101318359375 -751.79052734375 204.2389221191406 -751.79052734375 C 204.3765258789062 -751.79052734375 204.4898681640625 -751.8350219726562 204.5788879394531 -751.924072265625 L 205.9874267578125 -753.3326416015625 L 207.3959350585938 -751.924072265625 C 207.4849853515625 -751.8350219726562 207.5982971191406 -751.79052734375 207.7359313964844 -751.79052734375 M 207.7359313964844 -750.79052734375 C 207.335693359375 -750.79052734375 206.9638214111328 -750.9419555664062 206.6888275146484 -751.2169799804688 L 205.9874267578125 -751.9183959960938 L 205.2860107421875 -751.2169799804688 C 205.0111389160156 -750.9420166015625 204.6392364501953 -750.79052734375 204.2389221191406 -750.79052734375 C 203.8386993408203 -750.79052734375 203.4668426513672 -750.9419555664062 203.1918487548828 -751.2169799804688 C 202.9168395996094 -751.491943359375 202.765380859375 -751.8638305664062 202.765380859375 -752.2640991210938 C 202.765380859375 -752.664306640625 202.9168395996094 -753.0361328125 203.1918487548828 -753.3111572265625 L 203.8932495117188 -754.0125732421875 L 203.1918487548828 -754.7139892578125 C 202.9168395996094 -754.989013671875 202.765380859375 -755.36083984375 202.765380859375 -755.7610473632812 C 202.765380859375 -756.1613159179688 202.9168395996094 -756.533203125 203.1918487548828 -756.8081665039062 C 203.4668426513672 -757.0831909179688 203.8386993408203 -757.234619140625 204.2389221191406 -757.234619140625 C 204.6392364501953 -757.234619140625 205.0111389160156 -757.0831298828125 205.2861175537109 -756.8080444335938 L 205.9874114990234 -756.1067504882812 L 206.6888275146484 -756.8081665039062 C 206.9638214111328 -757.0831909179688 207.335693359375 -757.234619140625 207.7359313964844 -757.234619140625 C 208.1362457275391 -757.234619140625 208.5081481933594 -757.0831298828125 208.7831268310547 -756.8080444335938 C 209.0580444335938 -756.5331420898438 209.2095031738281 -756.1612548828125 209.2095031738281 -755.7610473632812 C 209.2095031738281 -755.36083984375 209.0580444335938 -754.989013671875 208.7830047607422 -754.7139892578125 L 208.0816192626953 -754.0125732421875 L 208.7830047607422 -753.3111572265625 C 209.0580444335938 -753.0361328125 209.2095031738281 -752.664306640625 209.2095031738281 -752.2640991210938 C 209.2095031738281 -751.8638916015625 209.0580444335938 -751.4920043945312 208.7830047607422 -751.2169799804688 C 208.5081481933594 -750.9420166015625 208.1362457275391 -750.79052734375 207.7359313964844 -750.79052734375 Z" stroke="none" fill="#fff"/>
        </g>
      </g>
    </g>
  </g>
</svg>
