<svg xmlns="http://www.w3.org/2000/svg" width="42.447" height="30" viewBox="0 0 42.447 30">
  <g id="Grupo_1172" data-name="Grupo 1172" transform="translate(-443.303 -440)">
    <circle id="Elipse_63" data-name="Elipse 63" cx="15" cy="15" r="15" transform="translate(455.75 440)" fill="#00cb7d"/>
    <g id="Grupo_1158" data-name="Grupo 1158" transform="translate(444.303 449)">
      <g id="alarm_on_FILL0_wght400_GRAD0_opsz24" transform="translate(-199.879 687.352)" fill="#00cb7d">
        <path d="M 211.3089447021484 -681.933349609375 C 210.9821166992188 -681.933349609375 210.6828765869141 -682.059814453125 210.4435729980469 -682.2991333007812 L 208.8877716064453 -683.8732299804688 C 208.6505584716797 -684.1103515625 208.5240478515625 -684.4127807617188 208.5240478515625 -684.74560546875 C 208.5240478515625 -685.0784301757812 208.6505279541016 -685.3807983398438 208.8898162841797 -685.6201171875 C 209.129150390625 -685.8594970703125 209.4283905029297 -685.9859619140625 209.7552185058594 -685.9859619140625 C 210.0820770263672 -685.9859619140625 210.3813323974609 -685.8594360351562 210.6206207275391 -685.6201171875 L 211.3089447021484 -684.9318237304688 L 213.5327301025391 -687.1555786132812 C 213.7720336914062 -687.3948974609375 214.0744476318359 -687.5213623046875 214.4072265625 -687.5213623046875 C 214.7400360107422 -687.5213623046875 215.0424346923828 -687.3948974609375 215.28173828125 -687.1555786132812 C 215.5210418701172 -686.9163208007812 215.6475524902344 -686.6138916015625 215.6475524902344 -686.2810668945312 C 215.6475524902344 -685.9483642578125 215.5210723876953 -685.6459350585938 215.2817840576172 -685.4066162109375 L 212.1742858886719 -682.2991333007812 C 211.9350433349609 -682.0598754882812 211.6358032226562 -681.933349609375 211.3089447021484 -681.933349609375 Z" stroke="none"/>
        <path d="M 211.3089447021484 -682.433349609375 C 211.50390625 -682.433349609375 211.6745300292969 -682.5064697265625 211.8207397460938 -682.6527099609375 L 214.9281921386719 -685.7601318359375 C 215.0744018554688 -685.9063720703125 215.1475524902344 -686.0800170898438 215.1475524902344 -686.2810668945312 C 215.1475524902344 -686.482177734375 215.0744018554688 -686.6558227539062 214.9281921386719 -686.802001953125 C 214.7819519042969 -686.9482421875 214.6083068847656 -687.0213623046875 214.4072265625 -687.0213623046875 C 214.2061614990234 -687.0213623046875 214.0325164794922 -686.9482421875 213.8862762451172 -686.802001953125 L 211.3089447021484 -684.2247314453125 L 210.2670288085938 -685.2666015625 C 210.1208190917969 -685.412841796875 209.9501953125 -685.4859619140625 209.7552185058594 -685.4859619140625 C 209.5602416992188 -685.4859619140625 209.3896331787109 -685.412841796875 209.2433929443359 -685.2666015625 C 209.09716796875 -685.120361328125 209.0240478515625 -684.9466552734375 209.0240478515625 -684.74560546875 C 209.0240478515625 -684.5445556640625 209.09716796875 -684.3709106445312 209.2433929443359 -684.2247314453125 L 210.797119140625 -682.6527099609375 C 210.943359375 -682.5064697265625 211.1139526367188 -682.433349609375 211.3089447021484 -682.433349609375 M 211.3089447021484 -681.433349609375 C 210.8466339111328 -681.433349609375 210.4251251220703 -681.6104736328125 210.0900115966797 -681.9456176757812 L 210.0858917236328 -681.9497680664062 L 208.5354614257812 -683.5184326171875 C 208.2008819580078 -683.8533935546875 208.0240478515625 -684.2776489257812 208.0240478515625 -684.74560546875 C 208.0240478515625 -685.2138671875 208.2011566162109 -685.6385498046875 208.5362243652344 -685.9736938476562 C 208.8713989257812 -686.308837890625 209.2929077148438 -686.4859619140625 209.7552185058594 -686.4859619140625 C 210.2175903320312 -686.4859619140625 210.6391143798828 -686.3087768554688 210.9742126464844 -685.9736328125 L 211.3089294433594 -685.638916015625 L 213.1791839599609 -687.5091552734375 C 213.5142974853516 -687.84423828125 213.9389495849609 -688.0213623046875 214.4072265625 -688.0213623046875 C 214.8755187988281 -688.0213623046875 215.3001861572266 -687.84423828125 215.6352996826172 -687.5090942382812 C 215.9703826904297 -687.174072265625 216.1475524902344 -686.7493896484375 216.1475524902344 -686.2810668945312 C 216.1475524902344 -685.8128662109375 215.9704437255859 -685.3882446289062 215.6353759765625 -685.0531005859375 L 212.5278472900391 -681.9456176757812 C 212.1928253173828 -681.6105346679688 211.7713165283203 -681.433349609375 211.3089447021484 -681.433349609375 Z" stroke="none" fill="#fff"/>
      </g>
      <g id="more_time_FILL0_wght400_GRAD0_opsz24" transform="translate(-80 871.463)" fill="#00cb7d">
        <path d="M 87.00000762939453 -856.9630126953125 C 85.96434783935547 -856.9630126953125 84.97906494140625 -857.1597290039062 84.07152557373047 -857.5476684570312 C 83.16755676269531 -857.9341430664062 82.36566162109375 -858.4735717773438 81.68812561035156 -859.1510620117188 C 81.01052856445312 -859.8287353515625 80.47106170654297 -860.6306762695312 80.08468627929688 -861.5345458984375 C 79.69672393798828 -862.442138671875 79.50000762939453 -863.4273681640625 79.50000762939453 -864.4630126953125 C 79.50000762939453 -865.4986572265625 79.69672393798828 -866.48388671875 80.08469390869141 -867.3914794921875 C 80.47111511230469 -868.2954711914062 81.01057434082031 -869.097412109375 81.68810272216797 -869.77490234375 C 82.36577606201172 -870.4525146484375 83.16767883300781 -870.9920043945312 84.07154846191406 -871.3783569335938 C 84.97906494140625 -871.7662963867188 85.96434783935547 -871.9630126953125 87.00000762939453 -871.9630126953125 C 87.1505126953125 -871.9630126953125 87.29344177246094 -871.9595336914062 87.42481231689453 -871.95263671875 C 87.55690765380859 -871.9456176757812 87.69823455810547 -871.92919921875 87.84574127197266 -871.9038696289062 C 88.17790222167969 -871.892578125 88.47415924072266 -871.7655029296875 88.70500183105469 -871.5346069335938 C 88.94706726074219 -871.29248046875 89.07501220703125 -870.9786376953125 89.07501220703125 -870.626953125 C 89.07501220703125 -870.275146484375 88.94703674316406 -869.9612426757812 88.70492553710938 -869.7191772460938 C 88.46285247802734 -869.4771118164062 88.14897155761719 -869.3491821289062 87.79724884033203 -869.3491821289062 C 87.62932586669922 -869.3491821289062 87.46901702880859 -869.3610229492188 87.32078552246094 -869.3843994140625 C 87.22382354736328 -869.3997192382812 87.11598205566406 -869.407470703125 87.00000762939453 -869.407470703125 C 85.59548187255859 -869.407470703125 84.44542694091797 -868.940185546875 83.48410797119141 -867.9789428710938 C 82.52284240722656 -867.0176391601562 82.05555725097656 -865.8675537109375 82.05555725097656 -864.4630126953125 C 82.05555725097656 -863.0584106445312 82.52284240722656 -861.9083862304688 83.48411560058594 -860.9471435546875 C 84.44541168212891 -859.98583984375 85.59546661376953 -859.5185546875 87.00000762939453 -859.5185546875 C 88.40454864501953 -859.5185546875 89.55460357666016 -859.98583984375 90.51591491699219 -860.9471435546875 C 91.47718811035156 -861.9083862304688 91.94446563720703 -863.0584106445312 91.94446563720703 -864.4630126953125 C 91.94446563720703 -864.814697265625 92.07241821289062 -865.1286010742188 92.31449890136719 -865.3707275390625 C 92.55669403076172 -865.6128540039062 92.87057495117188 -865.7408447265625 93.22225189208984 -865.7408447265625 C 93.57393646240234 -865.7408447265625 93.8878173828125 -865.6128540039062 94.12994384765625 -865.3707885742188 C 94.37208557128906 -865.1286010742188 94.50003814697266 -864.814697265625 94.50003814697266 -864.4630126953125 C 94.50003814697266 -863.4273681640625 94.30331420898438 -862.442138671875 93.91532897949219 -861.5345458984375 C 93.52896881103516 -860.6306762695312 92.989501953125 -859.8287353515625 92.31192779541016 -859.151123046875 C 91.63438415527344 -858.4736328125 90.83249664306641 -857.9341430664062 89.92850494384766 -857.5476684570312 C 89.02095794677734 -857.1597290039062 88.03566741943359 -856.9630126953125 87.00000762939453 -856.9630126953125 Z M 89.17779541015625 -861.02685546875 C 88.82608795166016 -861.02685546875 88.51556396484375 -861.1514892578125 88.27980804443359 -861.38720703125 L 86.10201263427734 -863.5650024414062 C 85.97646331787109 -863.6905517578125 85.88032531738281 -863.8353881835938 85.81631469726562 -863.9954223632812 C 85.75389862060547 -864.1514892578125 85.72222900390625 -864.3153686523438 85.72222900390625 -864.482421875 L 85.72222900390625 -867.5740966796875 C 85.72222900390625 -867.9259033203125 85.85019683837891 -868.2398071289062 86.09230804443359 -868.4818725585938 C 86.33445739746094 -868.7239990234375 86.64832305908203 -868.8519287109375 87.00000762939453 -868.8519287109375 C 87.3516845703125 -868.8519287109375 87.66555786132812 -868.7239990234375 87.90769195556641 -868.4818725585938 C 88.14981842041016 -868.2398071289062 88.27779388427734 -867.9259033203125 88.27779388427734 -867.5740966796875 L 88.27779388427734 -864.981201171875 L 90.07578277587891 -863.1832885742188 C 90.31153869628906 -862.9474487304688 90.43612670898438 -862.6369018554688 90.43612670898438 -862.2852172851562 C 90.43612670898438 -861.9335327148438 90.31153869628906 -861.623046875 90.07583618164062 -861.3872680664062 C 89.84000396728516 -861.1514892578125 89.52949523925781 -861.02685546875 89.17779541015625 -861.02685546875 Z" stroke="none"/>
        <path d="M 87.00000762939453 -871.4630126953125 C 86.02779388427734 -871.4630126953125 85.11713409423828 -871.2815551757812 84.26806640625 -870.9185791015625 C 83.41898345947266 -870.5556640625 82.67685699462891 -870.0565185546875 82.04166412353516 -869.42138671875 C 81.40648651123047 -868.7861938476562 80.90740203857422 -868.0440673828125 80.54444885253906 -867.1949462890625 C 80.18147277832031 -866.3458862304688 79.99999237060547 -865.4352416992188 79.99999237060547 -864.4630126953125 C 79.99999237060547 -863.4907836914062 80.18147277832031 -862.5801391601562 80.54444885253906 -861.7310791015625 C 80.90740203857422 -860.8819580078125 81.40648651123047 -860.139892578125 82.04166412353516 -859.504638671875 C 82.67685699462891 -858.8695068359375 83.41898345947266 -858.3704223632812 84.26806640625 -858.0074462890625 C 85.11713409423828 -857.6444702148438 86.02779388427734 -857.4630126953125 87.00000762939453 -857.4630126953125 C 87.97223663330078 -857.4630126953125 88.88288879394531 -857.6444702148438 89.73196411132812 -858.0074462890625 C 90.58103179931641 -858.3704223632812 91.32317352294922 -858.8695068359375 91.95835876464844 -859.504638671875 C 92.59354400634766 -860.139892578125 93.09262847900391 -860.8819580078125 93.45557403564453 -861.7310791015625 C 93.81854248046875 -862.5801391601562 94.00002288818359 -863.4907836914062 94.00002288818359 -864.4630126953125 C 94.00002288818359 -864.6834106445312 93.92549896240234 -864.8681030273438 93.77642822265625 -865.0172119140625 C 93.62734222412109 -865.166259765625 93.44261169433594 -865.2408447265625 93.22225189208984 -865.2408447265625 C 93.00188446044922 -865.2408447265625 92.81716156005859 -865.166259765625 92.66808319091797 -865.0172119140625 C 92.51900482177734 -864.8681030273438 92.44446563720703 -864.6834106445312 92.44446563720703 -864.4630126953125 C 92.44446563720703 -862.933349609375 91.91946411132812 -861.6435546875 90.86946868896484 -860.5935668945312 C 89.8194580078125 -859.5435791015625 88.52963256835938 -859.0185546875 87.00000762939453 -859.0185546875 C 85.47037506103516 -859.0185546875 84.18056488037109 -859.5435791015625 83.13056182861328 -860.5935668945312 C 82.08055877685547 -861.6435546875 81.55555725097656 -862.933349609375 81.55555725097656 -864.4630126953125 C 81.55555725097656 -865.99267578125 82.08055877685547 -867.282470703125 83.13056182861328 -868.33251953125 C 84.18056488037109 -869.3824462890625 85.47037506103516 -869.907470703125 87.00000762939453 -869.907470703125 C 87.14260864257812 -869.907470703125 87.27548217773438 -869.8977661132812 87.39862823486328 -869.8782958984375 C 87.52178192138672 -869.85888671875 87.65463256835938 -869.8491821289062 87.79724884033203 -869.8491821289062 C 88.01760864257812 -869.8491821289062 88.20233154296875 -869.9237060546875 88.35140228271484 -870.07275390625 C 88.50048828125 -870.2218017578125 88.57501220703125 -870.4065551757812 88.57501220703125 -870.626953125 C 88.57501220703125 -870.8472900390625 88.50048828125 -871.031982421875 88.35140228271484 -871.1810913085938 C 88.20233154296875 -871.3302001953125 88.01760864257812 -871.4046630859375 87.79724884033203 -871.4046630859375 C 87.65463256835938 -871.4306030273438 87.52178192138672 -871.44677734375 87.39862823486328 -871.4533081054688 C 87.27548217773438 -871.4597778320312 87.14260864257812 -871.4630126953125 87.00000762939453 -871.4630126953125 M 87.00000762939453 -868.3519287109375 C 86.77963256835938 -868.3519287109375 86.59491729736328 -868.27734375 86.44583892822266 -868.1282958984375 C 86.29677581787109 -867.979248046875 86.22222900390625 -867.7944946289062 86.22222900390625 -867.5740966796875 L 86.22222900390625 -864.482421875 C 86.22222900390625 -864.3787841796875 86.24167633056641 -864.2783203125 86.28057861328125 -864.1810913085938 C 86.3194580078125 -864.0838623046875 86.37778472900391 -863.996337890625 86.45556640625 -863.9185791015625 L 88.63335418701172 -861.7407836914062 C 88.77593231201172 -861.5982055664062 88.95742797851562 -861.52685546875 89.17779541015625 -861.52685546875 C 89.39816284179688 -861.52685546875 89.57964324951172 -861.5982055664062 89.72223663330078 -861.7407836914062 C 89.86483764648438 -861.8834228515625 89.93612670898438 -862.0648803710938 89.93612670898438 -862.2852172851562 C 89.93612670898438 -862.505615234375 89.86483764648438 -862.6870727539062 89.72223663330078 -862.8297119140625 L 87.77779388427734 -864.7741088867188 L 87.77779388427734 -867.5740966796875 C 87.77779388427734 -867.7944946289062 87.70325469970703 -867.979248046875 87.55417633056641 -868.1282958984375 C 87.40509796142578 -868.27734375 87.22039794921875 -868.3519287109375 87.00000762939453 -868.3519287109375 M 87.00000762939453 -872.4630126953125 C 87.159423828125 -872.4630126953125 87.31119537353516 -872.4592895507812 87.45109558105469 -872.451904296875 C 87.59294891357422 -872.4443969726562 87.74282073974609 -872.4276733398438 87.89797973632812 -872.402099609375 C 88.34468078613281 -872.3790893554688 88.74420928955078 -872.2025756835938 89.05860900878906 -871.8881225585938 C 89.39643859863281 -871.5502319335938 89.57501220703125 -871.1140747070312 89.57501220703125 -870.626953125 C 89.57501220703125 -870.1396484375 89.39638519287109 -869.7034301757812 89.05844879150391 -869.3656005859375 C 88.81719207763672 -869.1243286132812 88.52583312988281 -868.96435546875 88.20156097412109 -868.8925170898438 C 88.22176361083984 -868.8740844726562 88.24166107177734 -868.8550415039062 88.26121520996094 -868.83544921875 C 88.59915161132812 -868.4976196289062 88.77779388427734 -868.0614624023438 88.77779388427734 -867.5740966796875 L 88.77779388427734 -865.1883544921875 L 90.42933654785156 -863.5368041992188 C 90.75174713134766 -863.2142944335938 90.92631530761719 -862.7962646484375 90.93572235107422 -862.3255004882812 C 91.27687835693359 -862.9557495117188 91.44446563720703 -863.6632690429688 91.44446563720703 -864.4630126953125 C 91.44446563720703 -864.9501953125 91.623046875 -865.3863525390625 91.96090698242188 -865.7242431640625 C 92.29898834228516 -866.062255859375 92.735107421875 -866.2408447265625 93.22225189208984 -866.2408447265625 C 93.70940399169922 -866.2408447265625 94.14552307128906 -866.062255859375 94.48346710205078 -865.724365234375 C 94.82145690917969 -865.3862915039062 95.00002288818359 -864.9501953125 95.00002288818359 -864.4630126953125 C 95.00002288818359 -863.3594360351562 94.78976440429688 -862.3080444335938 94.37507629394531 -861.3380126953125 C 93.96355438232422 -860.375244140625 93.38836669921875 -859.5205078125 92.66549682617188 -858.7975463867188 C 91.94263458251953 -858.0747680664062 91.08792877197266 -857.4995727539062 90.12505340576172 -857.0879516601562 C 89.15502166748047 -856.6732788085938 88.10360717773438 -856.4630126953125 87.00000762939453 -856.4630126953125 C 85.89640808105469 -856.4630126953125 84.84499359130859 -856.6732788085938 83.87498474121094 -857.0879516601562 C 82.91212463378906 -857.4995727539062 82.05740356445312 -858.0747680664062 81.33458709716797 -858.7974853515625 C 80.61166381835938 -859.5205078125 80.03647613525391 -860.375244140625 79.62492370605469 -861.3380126953125 C 79.21025848388672 -862.3080444335938 78.99999237060547 -863.3594360351562 78.99999237060547 -864.4630126953125 C 78.99999237060547 -865.5665893554688 79.21025848388672 -866.6179809570312 79.62494659423828 -867.5880126953125 C 80.03652191162109 -868.5509033203125 80.61172485351562 -869.4056396484375 81.33455657958984 -870.1284790039062 C 82.05752563476562 -870.8513793945312 82.91225433349609 -871.4265747070312 83.87503814697266 -871.838134765625 C 84.84499359130859 -872.2527465820312 85.89640808105469 -872.4630126953125 87.00000762939453 -872.4630126953125 Z M 89.13739776611328 -860.5272827148438 C 88.66666412353516 -860.5366821289062 88.24862670898438 -860.7113037109375 87.92624664306641 -861.03369140625 L 85.74845886230469 -863.2114868164062 C 85.57476806640625 -863.3851318359375 85.44136810302734 -863.5864868164062 85.35205841064453 -863.809814453125 C 85.26592254638672 -864.0250854492188 85.22222900390625 -864.2514038085938 85.22222900390625 -864.482421875 L 85.22222900390625 -867.5740966796875 C 85.22222900390625 -868.0064086914062 85.36283111572266 -868.3984985351562 85.63050079345703 -868.7174072265625 C 84.95937347412109 -868.5161743164062 84.36629486083984 -868.1539916992188 83.837646484375 -867.6253662109375 C 82.97494506835938 -866.7626342773438 82.55555725097656 -865.7282104492188 82.55555725097656 -864.4630126953125 C 82.55555725097656 -863.1978149414062 82.97493743896484 -862.1633911132812 83.83766174316406 -861.3006591796875 C 84.70041656494141 -860.4379272460938 85.73482513427734 -860.0185546875 87.00000762939453 -860.0185546875 C 87.79969787597656 -860.0185546875 88.50717163085938 -860.1860961914062 89.13739776611328 -860.5272827148438 Z" stroke="none" fill="#fff"/>
      </g>
    </g>
  </g>
</svg>
