<svg xmlns="http://www.w3.org/2000/svg" width="47.438" height="30" viewBox="0 0 47.438 30">
  <g id="Grupo_1160" data-name="Grupo 1160" transform="translate(-1407.563 -687)">
    <text id="Día_3" data-name="Día
3" transform="translate(1440 701)" fill="#fff" font-size="12" font-family="Roboto-Bold, Roboto" font-weight="700"><tspan x="-8.839" y="0">Día</tspan><tspan x="-3.442" y="12">3</tspan></text>
    <g id="Grupo_1173" data-name="Grupo 1173">
      <circle id="Elipse_56" data-name="Elipse 56" cx="15" cy="15" r="15" transform="translate(1425 687)" fill="#fece00"/>
      <g id="acute_FILL0_wght400_GRAD0_opsz24" transform="translate(1368.563 1495)" fill="#ffce00">
        <path d="M 52.25004196166992 -785.5 C 50.16757202148438 -785.5 48.3779411315918 -786.2337036132812 46.93085098266602 -787.6807250976562 C 45.61226272583008 -788.9993896484375 44.8859748840332 -790.6022338867188 44.76737594604492 -792.4520263671875 C 44.70054244995117 -792.2935791015625 44.60319519042969 -792.1492309570312 44.47700881958008 -792.0230712890625 C 44.21664047241211 -791.7626342773438 43.87879943847656 -791.625 43.5000114440918 -791.625 L 40.875 -791.625 C 40.49621200561523 -791.625 40.15837097167969 -791.7626342773438 39.89799118041992 -792.0230712890625 C 39.63761901855469 -792.283447265625 39.5 -792.6212768554688 39.5 -793 C 39.5 -793.3787231445312 39.63761901855469 -793.716552734375 39.89799880981445 -793.9769287109375 C 40.15837097167969 -794.2373657226562 40.49621200561523 -794.375 40.875 -794.375 L 43.5000114440918 -794.375 C 43.87879943847656 -794.375 44.21664047241211 -794.2373657226562 44.47702026367188 -793.9769287109375 C 44.60332870483398 -793.8506469726562 44.70074081420898 -793.7061157226562 44.76758193969727 -793.5475463867188 C 44.88679122924805 -795.384033203125 45.61268997192383 -796.9830322265625 46.92990112304688 -798.3073120117188 C 48.37709045410156 -799.7622680664062 50.16704940795898 -800.5 52.25004196166992 -800.5 C 54.31800079345703 -800.5 56.10395050048828 -799.7625732421875 57.55829238891602 -798.3082885742188 C 59.01264190673828 -796.8539428710938 59.75006103515625 -795.0679931640625 59.75006103515625 -793 C 59.75006103515625 -790.9170532226562 59.0123291015625 -789.1270751953125 57.55735015869141 -787.6798095703125 C 56.10309982299805 -786.2333984375 54.31747055053711 -785.5 52.25004196166992 -785.5 Z M 52.25004196166992 -797.75 C 50.91740036010742 -797.75 49.81663131713867 -797.2970581054688 48.88484191894531 -796.3651733398438 C 47.95299911499023 -795.433349609375 47.50001907348633 -794.3325805664062 47.50001907348633 -793 C 47.50001907348633 -791.66748046875 47.95299911499023 -790.566650390625 48.88486099243164 -789.6346435546875 C 49.816650390625 -788.7029418945312 50.91741943359375 -788.25 52.25004196166992 -788.25 C 53.58266067504883 -788.25 54.68342971801758 -788.7029418945312 55.61526107788086 -789.6347045898438 C 56.54708099365234 -790.566650390625 57.00006103515625 -791.66748046875 57.00006103515625 -793 C 57.00006103515625 -794.3325805664062 56.54708099365234 -795.433349609375 55.61524200439453 -796.3651733398438 C 54.68344879150391 -797.2970581054688 53.58267974853516 -797.75 52.25004196166992 -797.75 Z M 43.5000114440918 -788.125 L 41.7500114440918 -788.125 C 41.37121963500977 -788.125 41.03338241577148 -788.2626342773438 40.77299880981445 -788.5230712890625 C 40.51263046264648 -788.783447265625 40.375 -789.1212768554688 40.375 -789.5 C 40.375 -789.8787231445312 40.51263046264648 -790.216552734375 40.77301025390625 -790.4769287109375 C 41.03330230712891 -790.7373046875 41.37113952636719 -790.8748779296875 41.7500114440918 -790.8748779296875 L 43.5000114440918 -790.8748779296875 C 43.87887954711914 -790.8748779296875 44.21672058105469 -790.7373046875 44.47702026367188 -790.4769287109375 C 44.73738861083984 -790.216552734375 44.87501907348633 -789.8787231445312 44.87501907348633 -789.5 C 44.87501907348633 -789.1212768554688 44.73738861083984 -788.783447265625 44.47700881958008 -788.5230712890625 C 44.21664047241211 -788.2626342773438 43.87879943847656 -788.125 43.5000114440918 -788.125 Z M 54.25160980224609 -789.6124267578125 C 53.88006210327148 -789.6124267578125 53.54225158691406 -789.7537841796875 53.27468872070312 -790.021240234375 L 51.28398132324219 -792.0120239257812 C 51.16989135742188 -792.1262817382812 51.07390975952148 -792.2659912109375 50.99850082397461 -792.4276123046875 C 50.91658020019531 -792.6031494140625 50.87504196166992 -792.7883911132812 50.87504196166992 -792.9781494140625 L 50.87504196166992 -795.625 C 50.87504196166992 -796.0037231445312 51.01266098022461 -796.341552734375 51.27304077148438 -796.6019287109375 C 51.53340911865234 -796.8623657226562 51.87125015258789 -797 52.25004196166992 -797 C 52.62882995605469 -797 52.96667098999023 -796.8623657226562 53.22705078125 -796.6019287109375 C 53.48741912841797 -796.341552734375 53.62504196166992 -796.0037231445312 53.62504196166992 -795.625 L 53.62504196166992 -793.5588989257812 L 55.22637176513672 -791.9776000976562 C 55.49610900878906 -791.7080078125 55.63755035400391 -791.3701171875 55.63755035400391 -790.9984130859375 C 55.63755035400391 -790.6268310546875 55.49616241455078 -790.2889404296875 55.2286491394043 -790.0213623046875 C 54.96097183227539 -789.7537841796875 54.62316131591797 -789.6124267578125 54.25160980224609 -789.6124267578125 Z M 43.5000114440918 -795.125 L 41.7500114440918 -795.125 C 41.37121963500977 -795.125 41.03338241577148 -795.2626342773438 40.77299880981445 -795.5230712890625 C 40.51263046264648 -795.783447265625 40.375 -796.1212768554688 40.375 -796.5 C 40.375 -796.8787231445312 40.51263046264648 -797.216552734375 40.77301025390625 -797.4769287109375 C 41.03338241577148 -797.7373657226562 41.37121963500977 -797.875 41.7500114440918 -797.875 L 43.5000114440918 -797.875 C 43.87879943847656 -797.875 44.21664047241211 -797.7373657226562 44.47702026367188 -797.4769287109375 C 44.73738861083984 -797.216552734375 44.87501907348633 -796.8787231445312 44.87501907348633 -796.5 C 44.87501907348633 -796.1212768554688 44.73738861083984 -795.783447265625 44.47700881958008 -795.5230712890625 C 44.21664047241211 -795.2626342773438 43.87879943847656 -795.125 43.5000114440918 -795.125 Z" stroke="none"/>
        <path d="M 52.25004196166992 -786 C 54.18964004516602 -786 55.84120178222656 -786.6781005859375 57.20473861694336 -788.0343017578125 C 58.56829071044922 -789.390625 59.25006103515625 -791.0457763671875 59.25006103515625 -793 C 59.25006103515625 -794.9395751953125 58.56829071044922 -796.5911865234375 57.20473861694336 -797.9547119140625 C 55.84120178222656 -799.3182373046875 54.18964004516602 -800 52.25004196166992 -800 C 50.29587173461914 -800 48.64065170288086 -799.3182373046875 47.28440093994141 -797.9547119140625 C 45.92815017700195 -796.5911865234375 45.25001907348633 -794.9395751953125 45.25001907348633 -793 C 45.25001907348633 -791.0457763671875 45.92815017700195 -789.390625 47.28440093994141 -788.0343017578125 C 48.64065170288086 -786.6781005859375 50.29587173461914 -786 52.25004196166992 -786 M 52.25004196166992 -798.25 C 53.70838165283203 -798.25 54.94797134399414 -797.7396240234375 55.96879959106445 -796.71875 C 56.98963928222656 -795.6978759765625 57.50006103515625 -794.4583740234375 57.50006103515625 -793 C 57.50006103515625 -791.5416259765625 56.98963928222656 -790.3021240234375 55.96879959106445 -789.2811279296875 C 54.94797134399414 -788.2603759765625 53.70838165283203 -787.75 52.25004196166992 -787.75 C 50.79170227050781 -787.75 49.55210876464844 -788.2603759765625 48.53128051757812 -789.2811279296875 C 47.51044082641602 -790.3021240234375 47.00001907348633 -791.5416259765625 47.00001907348633 -793 C 47.00001907348633 -794.4583740234375 47.51044082641602 -795.6978759765625 48.53128051757812 -796.71875 C 49.55210876464844 -797.7396240234375 50.79170227050781 -798.25 52.25004196166992 -798.25 M 43.5000114440918 -788.625 C 43.74792861938477 -788.625 43.95574188232422 -788.7088623046875 44.12345123291016 -788.8765869140625 C 44.29116058349609 -789.0443115234375 44.37501907348633 -789.2520751953125 44.37501907348633 -789.5 C 44.37501907348633 -789.7479248046875 44.29116058349609 -789.9556884765625 44.12345123291016 -790.1234130859375 C 43.95574188232422 -790.2911376953125 43.74792861938477 -790.3748779296875 43.5000114440918 -790.3748779296875 L 41.7500114440918 -790.3748779296875 C 41.50209045410156 -790.3748779296875 41.29428100585938 -790.2911376953125 41.12657165527344 -790.1234130859375 C 40.9588623046875 -789.9556884765625 40.875 -789.7479248046875 40.875 -789.5 C 40.875 -789.2520751953125 40.9588623046875 -789.0443115234375 41.12657165527344 -788.8765869140625 C 41.29428100585938 -788.7088623046875 41.50209045410156 -788.625 41.7500114440918 -788.625 L 43.5000114440918 -788.625 M 54.25160980224609 -790.1124267578125 C 54.49224090576172 -790.1124267578125 54.70005035400391 -790.199951171875 54.87504959106445 -790.3748779296875 C 55.050048828125 -790.5499267578125 55.13755035400391 -790.7578125 55.13755035400391 -790.9984130859375 C 55.13755035400391 -791.239013671875 55.050048828125 -791.4468994140625 54.87504959106445 -791.621826171875 L 53.12504196166992 -793.3499755859375 L 53.12504196166992 -795.625 C 53.12504196166992 -795.8729248046875 53.04119110107422 -796.0806884765625 52.87348175048828 -796.2484130859375 C 52.70577239990234 -796.4161376953125 52.49795913696289 -796.5 52.25004196166992 -796.5 C 52.00212097167969 -796.5 51.7943115234375 -796.4161376953125 51.62660217285156 -796.2484130859375 C 51.45888900756836 -796.0806884765625 51.37504196166992 -795.8729248046875 51.37504196166992 -795.625 L 51.37504196166992 -792.9781494140625 C 51.37504196166992 -792.8614501953125 51.40056228637695 -792.7484130859375 51.45159912109375 -792.6390380859375 C 51.50263977050781 -792.5296630859375 51.56462097167969 -792.4385986328125 51.63753890991211 -792.3656005859375 L 53.62817001342773 -790.3748779296875 C 53.80316925048828 -790.199951171875 54.01099014282227 -790.1124267578125 54.25160980224609 -790.1124267578125 M 43.5000114440918 -792.125 C 43.74792861938477 -792.125 43.95574188232422 -792.2088623046875 44.12345123291016 -792.3765869140625 C 44.29116058349609 -792.5443115234375 44.37501907348633 -792.7520751953125 44.37501907348633 -793 C 44.37501907348633 -793.2479248046875 44.29116058349609 -793.4556884765625 44.12345123291016 -793.6234130859375 C 43.95574188232422 -793.7911376953125 43.74792861938477 -793.875 43.5000114440918 -793.875 L 40.875 -793.875 C 40.62709045410156 -793.875 40.41926956176758 -793.7911376953125 40.25156021118164 -793.6234130859375 C 40.0838508605957 -793.4556884765625 40 -793.2479248046875 40 -793 C 40 -792.7520751953125 40.0838508605957 -792.5443115234375 40.25156021118164 -792.3765869140625 C 40.41926956176758 -792.2088623046875 40.62709045410156 -792.125 40.875 -792.125 L 43.5000114440918 -792.125 M 43.5000114440918 -795.625 C 43.74792861938477 -795.625 43.95574188232422 -795.7088623046875 44.12345123291016 -795.8765869140625 C 44.29116058349609 -796.0443115234375 44.37501907348633 -796.2520751953125 44.37501907348633 -796.5 C 44.37501907348633 -796.7479248046875 44.29116058349609 -796.9556884765625 44.12345123291016 -797.1234130859375 C 43.95574188232422 -797.2911376953125 43.74792861938477 -797.375 43.5000114440918 -797.375 L 41.7500114440918 -797.375 C 41.50209045410156 -797.375 41.29428100585938 -797.2911376953125 41.12657165527344 -797.1234130859375 C 40.9588623046875 -796.9556884765625 40.875 -796.7479248046875 40.875 -796.5 C 40.875 -796.2520751953125 40.9588623046875 -796.0443115234375 41.12657165527344 -795.8765869140625 C 41.29428100585938 -795.7088623046875 41.50209045410156 -795.625 41.7500114440918 -795.625 L 43.5000114440918 -795.625 M 52.25004196166992 -785 C 50.0301513671875 -785 48.1215705871582 -785.782958984375 46.57730865478516 -787.3272094726562 C 46.06974029541016 -787.8347778320312 45.64450836181641 -788.3815307617188 45.30218887329102 -788.9659423828125 C 45.21697998046875 -788.666748046875 45.05801391601562 -788.39697265625 44.83058166503906 -788.1694946289062 C 44.47441101074219 -787.8132934570312 44.01430130004883 -787.625 43.5000114440918 -787.625 L 41.7500114440918 -787.625 C 41.23572158813477 -787.625 40.77561187744141 -787.8132934570312 40.4194221496582 -788.1695556640625 C 40.06327056884766 -788.5256958007812 39.875 -788.9857788085938 39.875 -789.5 C 39.875 -790.0142211914062 40.06327056884766 -790.4743041992188 40.41944122314453 -790.8305053710938 C 40.53634643554688 -790.9474487304688 40.66449737548828 -791.0462646484375 40.80207061767578 -791.1262817382812 C 40.31720733642578 -791.1432495117188 39.88368606567383 -791.3302001953125 39.54441070556641 -791.6695556640625 C 39.18825912475586 -792.0256958007812 39 -792.4857788085938 39 -793 C 39 -793.5142211914062 39.18825912475586 -793.9743041992188 39.54442977905273 -794.3305053710938 C 39.8836669921875 -794.6697998046875 40.31719970703125 -794.856689453125 40.80202102661133 -794.8737182617188 C 40.66446685791016 -794.9537353515625 40.53633880615234 -795.0526123046875 40.4194221496582 -795.1695556640625 C 40.06327056884766 -795.5256958007812 39.875 -795.9857788085938 39.875 -796.5 C 39.875 -797.0142211914062 40.06327056884766 -797.4743041992188 40.41944122314453 -797.8305053710938 C 40.77561187744141 -798.1867065429688 41.23572158813477 -798.375 41.7500114440918 -798.375 L 43.5000114440918 -798.375 C 44.01430130004883 -798.375 44.47441101074219 -798.1867065429688 44.83060073852539 -797.8304443359375 C 45.06052017211914 -797.6005249023438 45.22046661376953 -797.3273315429688 45.30496978759766 -797.024169921875 C 45.6463508605957 -797.60595703125 46.07014465332031 -798.1519775390625 46.57540893554688 -798.659912109375 C 48.11988067626953 -800.2127075195312 50.02910232543945 -801 52.25004196166992 -801 C 54.45542144775391 -801 56.36032867431641 -800.2133178710938 57.91184234619141 -798.6618041992188 C 59.46337127685547 -797.1103515625 60.25006103515625 -795.2054443359375 60.25006103515625 -793 C 60.25006103515625 -790.7791137695312 59.46274185180664 -788.869873046875 57.90996170043945 -787.3253173828125 C 56.35863876342773 -785.7823486328125 54.45437240600586 -785 52.25004196166992 -785 Z M 51.0864143371582 -797.104248046875 C 50.39479064941406 -796.9193115234375 49.78400039672852 -796.5572509765625 49.23839950561523 -796.0116577148438 C 48.40510177612305 -795.1783447265625 48.00001907348633 -794.1932373046875 48.00001907348633 -793 C 48.00001907348633 -791.8068237304688 48.40510940551758 -790.8216552734375 49.23844146728516 -789.9881591796875 C 50.07165145874023 -789.155029296875 51.05678176879883 -788.75 52.25004196166992 -788.75 C 52.90806579589844 -788.75 53.50286102294922 -788.8732299804688 54.04374313354492 -789.1234130859375 C 53.6190185546875 -789.1688842773438 53.23422622680664 -789.354736328125 52.92119979858398 -789.6676025390625 L 50.930419921875 -791.6585083007812 C 50.77490234375 -791.814208984375 50.64548873901367 -792.001708984375 50.5453987121582 -792.2161865234375 C 50.4323616027832 -792.4584350585938 50.37504196166992 -792.7147827148438 50.37504196166992 -792.9781494140625 L 50.37504196166992 -795.625 C 50.37504196166992 -796.1392211914062 50.56330108642578 -796.5993041992188 50.91947174072266 -796.9555053710938 C 50.97283935546875 -797.0088500976562 51.02854537963867 -797.0584716796875 51.0864143371582 -797.104248046875 Z M 54.12504196166992 -793.7678833007812 L 55.5820198059082 -792.3291015625 C 55.8951416015625 -792.0160522460938 56.08108139038086 -791.6312255859375 56.12656021118164 -791.2062377929688 C 56.37686157226562 -791.7471923828125 56.50006103515625 -792.3419189453125 56.50006103515625 -793 C 56.50006103515625 -794.1932373046875 56.0949821472168 -795.1783447265625 55.26168060302734 -796.0116577148438 C 54.71607971191406 -796.5572509765625 54.10527420043945 -796.9193115234375 53.41365051269531 -797.104248046875 C 53.47151947021484 -797.0584716796875 53.52725982666016 -797.0088500976562 53.58063125610352 -796.9554443359375 C 53.9367790222168 -796.5993041992188 54.12504196166992 -796.1392211914062 54.12504196166992 -795.625 L 54.12504196166992 -793.7678833007812 Z" stroke="none" fill="#fff"/>
      </g>
    </g>
  </g>
</svg>
