<svg width="120"
     height="120"
     viewBox="0 0 120 120"
     fill="none"
     xmlns="http://www.w3.org/2000/svg">
  <g clip-path="url(#clip0_111_346)">
    <path d="M57.2425 11.6172C59.9862 10.8411 62.7809 10.2972 65.6015 9.99025C83.6883 8.02205 105.631 9.89924 115.578 28.7849C131.042 58.1601 102.83 96.7392 79.0073 108.241C50.6598 121.894 8.93789 113.418 1.1849 76.1356C-6.33821 45.7251 23.5453 25.8042 46.1773 15.7015C49.7645 14.0344 53.4637 12.669 57.2425 11.6172Z"
          fill="#E5E2EB" />
    <path d="M63.7003 83.501L70.6664 110.059L60.4731 120.735L50.2799 110.059L57.246 83.501"
          stroke="#201751"
          stroke-width="2.5"
          stroke-linecap="round"
          stroke-linejoin="round" />
    <path d="M66.7291 80.5828L64.6404 82.7525C63.5391 83.875 62.0579 84.5038 60.515 84.5038C58.9722 84.5038 57.491 83.875 56.3897 82.7525L54.3009 80.5828"
          stroke="#201751"
          stroke-width="2.5"
          stroke-linecap="round"
          stroke-linejoin="round" />
    <path d="M77.5905 109.82L102.207 104.515L98.9586 87.5909C98.2378 83.8327 96.2945 80.4465 93.4547 78.0005C91.9017 76.5943 90.0521 75.5871 88.0553 75.0604L74.144 70.8944C73.8421 70.8063 73.5563 70.667 73.2981 70.4822C72.9334 70.2302 72.6258 69.8989 72.3968 69.5111C72.1677 69.1233 72.0227 68.6883 71.9717 68.2365L71.3346 62.5191C75.3881 59.1246 78.2542 54.4394 79.4913 49.1857C81.9769 48.9579 83.8882 46.0938 83.8882 42.4702C83.8882 39.1179 82.2694 36.4165 80.0553 35.8416"
          stroke="#201751"
          stroke-width="2.5"
          stroke-linecap="round"
          stroke-linejoin="round" />
    <path d="M40.7866 35.874C38.6351 36.5141 37.079 39.1287 37.079 42.4702C37.079 46.0829 38.9693 48.9795 41.455 49.1857C42.7027 54.4373 45.5711 59.1202 49.6221 62.519L48.985 68.2364C48.9363 68.6851 48.7955 69.1178 48.5721 69.5053C48.3487 69.8927 48.0479 70.2258 47.6899 70.4821C47.428 70.6671 47.1388 70.8064 46.8336 70.8944L32.9537 75.0712C30.9431 75.5888 29.0787 76.5924 27.5124 78.0004C24.6768 80.4382 22.7307 83.8114 21.998 87.5583L18.75 104.483L40.7761 109.224"
          stroke="#201751"
          stroke-width="2.5"
          stroke-linecap="round"
          stroke-linejoin="round" />
    <path d="M42.2697 25.5786C41.2443 28.905 40.7435 32.3818 40.7867 35.8742"
          stroke="#201751"
          stroke-width="2.5"
          stroke-linecap="round"
          stroke-linejoin="round" />
    <path d="M80.0659 35.8415C80.1245 32.3441 79.6378 28.86 78.6247 25.5242"
          stroke="#201751"
          stroke-width="2.5"
          stroke-linecap="round"
          stroke-linejoin="round" />
    <path d="M78.6142 25.5238C74.965 27.4132 70.8503 28.1092 66.8126 27.52C62.4053 27.021 58.9797 24.8295 55.0528 22.9635C52.3374 21.6833 49.1833 20.7937 46.3844 21.8786C44.6112 22.5199 43.1398 23.8389 42.2695 25.5672"
          stroke="#201751"
          stroke-width="2.5"
          stroke-linecap="round"
          stroke-linejoin="round" />
    <path d="M71.8257 66.8914L60.4732 77.4473L49.1207 66.8914"
          stroke="#201751"
          stroke-width="2.5"
          stroke-linecap="round"
          stroke-linejoin="round" />
    <path d="M78.6035 95.2716L91.4495 92.7546"
          stroke="#201751"
          stroke-width="2.5"
          stroke-linecap="round"
          stroke-linejoin="round" />
    <path d="M41.9037 26.8148V10.0641C41.9064 8.39036 42.5477 6.78602 43.687 5.60252C44.8264 4.41902 46.3708 3.75287 47.982 3.75H72.5355C74.1468 3.75287 75.6912 4.41902 76.8305 5.60252C77.9698 6.78602 78.6111 8.39036 78.6139 10.0641V25.5238"
          stroke="#201751"
          stroke-width="2.5"
          stroke-linecap="round"
          stroke-linejoin="round" />
    <path d="M60.2536 18.2877V9.4458"
          stroke="#FF5100"
          stroke-width="2.5"
          stroke-linecap="round"
          stroke-linejoin="round" />
    <path d="M56.0033 13.8616H64.515"
          stroke="#FF5100"
          stroke-width="2.5"
          stroke-linecap="round"
          stroke-linejoin="round" />
  </g>
  <defs>
    <clipPath id="clip0_111_346">
      <rect width="120"
            height="120"
            fill="white" />
    </clipPath>
  </defs>
</svg>