<svg width="133" height="132" viewBox="0 0 133 132" fill="none" xmlns="http://www.w3.org/2000/svg">
<path d="M115.075 84.4078C127.483 50.9678 80.3154 45.5118 60.0754 29.4078C50.6594 21.3118 34.4674 26.6798 26.8114 37.6798C24.8344 40.4444 23.1254 43.3911 21.7074 46.4798C20.2638 49.7522 19.0006 53.1013 17.9234 56.5119C16.698 60.2179 15.9297 64.0596 15.6354 67.9519C15.2837 71.742 15.4614 75.5627 16.1634 79.3039C17.2676 84.0247 19.606 88.3674 22.9394 91.8878C29.0994 98.7518 37.4594 103.24 46.6994 105.792C49.8167 106.665 52.993 107.312 56.2034 107.728C59.5474 108.168 62.9794 108.432 66.4994 108.608C83.0434 108.96 103.195 104.912 112.699 89.4238C113.579 87.7812 114.371 86.1092 115.075 84.4078Z" fill="#EBEAEE"/>
<path d="M97.915 90.0234C102.139 102.255 101.259 105.511 101.259 105.511C101.259 105.511 80.931 107.007 66.499 96.8874" stroke="#201751" stroke-width="3" stroke-linecap="round" stroke-linejoin="round"/>
<path d="M34.9955 90.0234C30.6835 102.255 31.6515 105.511 31.6515 105.511C31.6515 105.511 51.9795 107.007 66.4115 96.8874" stroke="#201751" stroke-width="2.4" stroke-linecap="round" stroke-linejoin="round"/>
<path d="M51.2753 44.0875C44.0817 39.5367 36.0717 36.4284 27.6913 34.9355C27.6913 34.9355 20.2993 58.8715 30.9473 75.9435C41.5953 93.0155 66.4113 96.7995 66.4113 96.7995" stroke="#201751" stroke-width="2.4" stroke-linecap="round" stroke-linejoin="round"/>
<path d="M66.4111 96.7995C66.6751 96.7995 91.2271 92.9275 101.875 75.9435C112.523 58.9595 105.131 34.9355 105.131 34.9355C96.7508 36.4284 88.7408 39.5367 81.5471 44.0875" stroke="#201751" stroke-width="2.4" stroke-linecap="round" stroke-linejoin="round"/>
<path d="M94.8349 37.6645C93.6541 34.3012 92.2124 31.0353 90.5229 27.8965C85.6475 29.9432 81.0379 32.573 76.7949 35.7285" stroke="#201751" stroke-width="2.4" stroke-linecap="round" stroke-linejoin="round"/>
<path d="M37.9873 37.6645C39.1682 34.3012 40.6099 31.0353 42.2993 27.8965C47.1748 29.9432 51.7844 32.573 56.0273 35.7285" stroke="#201751" stroke-width="2.4" stroke-linecap="round" stroke-linejoin="round"/>
<path fill-rule="evenodd" clip-rule="evenodd" d="M85.4193 60.2798C85.4193 80.5198 66.4113 96.7998 66.4113 96.7998C66.4113 96.7998 47.4033 80.5198 47.4033 60.2798C47.4033 40.0398 66.4113 23.7598 66.4113 23.7598C66.4113 23.7598 85.4193 40.1278 85.4193 60.2798Z" stroke="#FF5100" stroke-width="2.4" stroke-linecap="round" stroke-linejoin="round"/>
<path d="M66.4111 96.799V68.375" stroke="#FF5100" stroke-width="2.4" stroke-linecap="round" stroke-linejoin="round"/>
</svg>
