<svg width="133" height="132" viewBox="0 0 133 132" fill="none" xmlns="http://www.w3.org/2000/svg">
<g clip-path="url(#clip0_6634_7940)">
<path fill-rule="evenodd" clip-rule="evenodd" d="M0.500933 66.2482C0.670185 42.2472 24.9486 29.1527 47.6594 21.1422C73.2143 12.1285 104.176 2.64723 121.177 23.6836C139.907 46.859 133.752 81.2053 114.758 104.167C98.7341 123.539 70.9148 121.282 47.0092 113.348C23.8219 105.653 0.329238 90.5958 0.500933 66.2482Z" fill="#EBEAEE"/>
<path d="M31.9062 64.6035V119.56" stroke="#201751" stroke-width="3" stroke-linecap="round" stroke-linejoin="round"/>
<path d="M65.3581 56.02C64.0778 49.3752 58.5013 44.9297 51.5816 44.9297H34.7184C26.8169 44.9297 20.667 50.734 20.667 58.9889V84.2877C20.667 87.2686 21.8511 90.1274 23.959 92.2352C26.0668 94.3431 28.9256 95.5272 31.9065 95.5272V95.5272" stroke="#201751" stroke-width="3" stroke-linecap="round" stroke-linejoin="round"/>
<path d="M99.3672 64.6133L107.803 112.391H90.9395" stroke="#201751" stroke-width="3" stroke-linecap="round" stroke-linejoin="round"/>
<path d="M45.9661 14.0148C44.5097 13.994 43.0634 14.2604 41.7099 14.7986C40.3564 15.3368 39.1222 16.1364 38.0778 17.1517C37.0333 18.1669 36.1991 19.378 35.6228 20.7157C35.0464 22.0534 34.7392 23.4916 34.7188 24.948V34.0041C34.7962 36.9346 36.0148 39.719 38.1149 41.7644C40.215 43.8097 43.0307 44.9543 45.9622 44.9543C48.8937 44.9543 51.7094 43.8097 53.8095 41.7644C55.9096 39.719 57.1282 36.9346 57.2057 34.0041V24.948C57.1643 22.008 55.9571 19.2047 53.8494 17.1545C51.7418 15.1043 48.9062 13.9749 45.9661 14.0148V14.0148Z" stroke="#201751" stroke-width="3" stroke-linecap="round" stroke-linejoin="round"/>
<path d="M68.4525 64.6035C62.2397 64.6035 57.2051 69.0098 57.2051 74.445V80.0687C57.2051 85.5039 62.2397 89.9023 68.4525 89.9023C74.6652 89.9023 79.6606 85.5039 79.6606 80.0687V74.445C79.6606 69.0098 74.6574 64.6035 68.4525 64.6035Z" stroke="#FF5100" stroke-width="3" stroke-linecap="round" stroke-linejoin="round"/>
<path d="M76.8808 117.982V111.533C78.4866 111.133 79.9126 110.208 80.9317 108.904C81.9508 107.601 82.5044 105.993 82.5045 104.339V99.3982C82.5045 92.4157 76.8415 89.9023 69.859 89.9023H64.2353C57.245 89.9023 51.582 92.4157 51.582 99.3982V104.339C51.5821 105.993 52.1358 107.601 53.1549 108.904C54.174 110.208 55.5999 111.133 57.2057 111.533V117.982" stroke="#FF5100" stroke-width="3" stroke-linecap="round" stroke-linejoin="round"/>
<path d="M72.9609 52.0916C75.0371 51.011 77.352 50.4707 79.6921 50.5208H96.5553C105.871 50.5208 109.24 57.1184 110.615 64.5721C111.4 68.7114 112.696 74.7042 113.866 79.8174C114.515 82.5862 114.105 85.4975 112.718 87.9797C111.33 90.4619 109.064 92.3355 106.365 93.2326L104.52 93.8531" stroke="#201751" stroke-width="3" stroke-linecap="round" stroke-linejoin="round"/>
<path d="M93.7435 36.0849C86.3762 33.3594 81.0666 26.3848 81.0666 26.3848C79.7961 27.3566 78.7602 28.6017 78.0355 30.0278C77.3109 31.4539 76.9161 33.0247 76.8803 34.6239V40.9074C76.8521 42.1629 77.0749 43.4113 77.5359 44.5794C77.9969 45.7475 78.6867 46.8117 79.5648 47.7095C80.4428 48.6073 81.4914 49.3206 82.649 49.8075C83.8065 50.2943 85.0497 50.545 86.3055 50.5447H90.9474V34.836" stroke="#201751" stroke-width="3" stroke-linecap="round" stroke-linejoin="round"/>
<path d="M71.2568 25.2552C71.2568 19.6393 78.1844 14.0156 86.722 14.0156C95.2597 14.0156 102.179 20.4719 102.179 28.444V39.3144C102.179 42.4561 103.844 43.7914 104.991 44.9302" stroke="#201751" stroke-width="3" stroke-linecap="round" stroke-linejoin="round"/>
</g>
<defs>
<clipPath id="clip0_6634_7940">
<rect width="132" height="132" fill="white" transform="translate(0.5)"/>
</clipPath>
</defs>
</svg>
