<svg width="119" height="111" viewBox="0 0 119 111" fill="none" xmlns="http://www.w3.org/2000/svg">
<path d="M21.4593 98.3148C1.3936 82.5558 -8.39456 50.157 12.4542 30.9722C16.0022 28.3462 19.8458 26.1451 23.9064 24.4142C51.6069 13.1578 83.8099 29.1125 103.974 47.0248C107.82 50.3768 111.122 54.3064 113.762 58.6727C116.293 62.5769 117.807 67.0521 118.166 71.691C117.912 76.6982 116.716 81.6126 114.643 86.1774C101.624 114.661 55.8158 114.759 31.639 104.383C27.9635 102.877 24.5327 100.831 21.4593 98.3148Z" fill="#EBEAEE"/>
<path d="M79.5027 90.1906C75.8875 95.3293 70.7291 99.1824 64.7759 101.191C58.8226 103.2 52.3842 103.259 46.3949 101.361C40.4056 99.4625 35.1769 95.7053 31.4674 90.6342C27.758 85.5632 25.7608 79.4421 25.7657 73.1592C25.7576 68.4085 26.9024 63.7268 29.1016 59.5158C31.3009 55.3048 34.489 51.6903 38.3924 48.9824" stroke="#FF5100" stroke-width="2.4" stroke-linecap="round" stroke-linejoin="round"/>
<path d="M51.5091 26.8619C53.9677 26.8619 56.3711 26.1329 58.4154 24.7669C60.4596 23.401 62.0529 21.4596 62.9938 19.1881C63.9347 16.9166 64.1808 14.4172 63.7012 12.0058C63.2215 9.59444 62.0376 7.37945 60.2991 5.64095C58.5606 3.90245 56.3456 2.71851 53.9343 2.23886C51.5229 1.75921 49.0234 2.00539 46.752 2.94626C44.4805 3.88713 42.5391 5.48043 41.1731 7.5247C39.8072 9.56896 39.0781 11.9724 39.0781 14.431C39.0781 17.7279 40.3878 20.8897 42.7191 23.221C45.0503 25.5522 48.2122 26.8619 51.5091 26.8619V26.8619Z" stroke="#201751" stroke-width="2.4" stroke-linecap="round" stroke-linejoin="round"/>
<path d="M64.2338 40.8584C64.038 39.6838 63.9401 38.705 63.8422 37.9219C62.0804 27.6443 55.1308 27.0571 51.0197 27.5465C46.9087 28.0359 43.6786 31.3638 43.1892 36.6495C42.6019 44.3821 45.4405 58.5749 48.1812 66.1118C49.7473 70.7122 52.2922 73.9423 58.4587 73.9423H75.0986L84.1037 86.7648C84.8205 87.8184 85.7836 88.6811 86.9094 89.2781C88.0351 89.8751 89.2896 90.1884 90.5639 90.1907C92.1814 90.1842 93.7561 89.6707 95.0665 88.7225C98.5902 86.2754 98.2966 81.2835 95.7516 77.8576C93.2067 74.4317 84.3974 62.8817 84.3974 62.8817C83.6757 61.8401 82.7091 60.9919 81.5826 60.4116C80.4561 59.8312 79.2042 59.5367 77.9372 59.5537H66.2893" stroke="#201751" stroke-width="2.4" stroke-linecap="round" stroke-linejoin="round"/>
<path d="M74.9024 83.5352C73.3855 86.3328 71.2828 88.77 68.7379 90.6807C66.193 92.5914 63.2658 93.9305 60.1561 94.6066C57.0464 95.2828 53.8274 95.28 50.7189 94.5985C47.6104 93.917 44.6855 92.5728 42.1439 90.6577C39.6023 88.7426 37.5038 86.3017 35.9917 83.5015C34.4796 80.7014 33.5894 77.6079 33.382 74.4323C33.1746 71.2568 33.6547 68.0738 34.7897 65.1008C35.9247 62.1277 37.6879 59.4345 39.9587 57.2051" stroke="#FF5100" stroke-width="2.4" stroke-linecap="round" stroke-linejoin="round"/>
<path d="M84.2012 95.2812H98.9813" stroke="#201751" stroke-width="2.4" stroke-linecap="round" stroke-linejoin="round"/>
<path d="M73.4346 53.486H58.165C56.4426 53.5056 54.771 52.9024 53.458 51.7872C52.1451 50.6721 51.2791 49.1202 51.0197 47.4173L49.4536 38.3143C49.2916 37.8158 49.2368 37.2886 49.2928 36.7674C49.3488 36.2462 49.5144 35.7427 49.7786 35.2899C50.0428 34.8372 50.3998 34.4454 50.8261 34.1403C51.2523 33.8352 51.7383 33.6236 52.2521 33.5195C52.7658 33.4153 53.2958 33.4209 53.8072 33.536C54.3187 33.651 54.8 33.8729 55.2197 34.187C55.6394 34.5011 55.988 34.9004 56.2425 35.3586C56.4971 35.8169 56.6519 36.3238 56.6968 36.8461L58.165 45.0681C58.209 45.3545 58.3494 45.6173 58.5629 45.8131C58.7765 46.0089 59.0505 46.1259 59.3396 46.1448H73.6303C74.1271 46.1447 74.6189 46.244 75.0767 46.437C75.5345 46.6301 75.9489 46.9128 76.2956 47.2686C76.6423 47.6245 76.9142 48.0461 77.0953 48.5088C77.2763 48.9714 77.3629 49.4656 77.3498 49.9622C77.2748 50.9401 76.8263 51.8515 76.0973 52.5076C75.3684 53.1636 74.4149 53.514 73.4346 53.486V53.486Z" stroke="#201751" stroke-width="2.4" stroke-linecap="round" stroke-linejoin="round"/>
</svg>
