<svg width="80" height="80" viewBox="0 0 80 80" fill="none" xmlns="http://www.w3.org/2000/svg">
<path d="M66.6668 68.3333H13.3334C9.66675 68.3333 6.66675 65.3333 6.66675 61.6667V26.8333C6.66675 24.6667 7.66675 22.6667 9.50008 21.3333L40.0001 0L70.5001 21.3333C72.3334 22.5 73.3334 24.6667 73.3334 26.8333V61.6667C73.3334 65.3333 70.3334 68.3333 66.6668 68.3333Z" fill="#FFE9E0"/>
<path d="M20 18H60V55H20V18Z" fill="white"/>
<path d="M66.6668 68.3333H13.3334C9.66675 68.3333 6.66675 65.3333 6.66675 61.6666V28.3333L40.0001 50L73.3334 28.3333V61.6666C73.3334 65.3333 70.3334 68.3333 66.6668 68.3333Z" fill="#FE5000"/>
<path d="M26 24H47V27H26V24Z" fill="#FE5000"/>
<path d="M26 31H50.5V34H26V31Z" fill="#FE5000"/>
<path d="M26 38H54V41H26V38Z" fill="#FE5000"/>
</svg>
