<svg width="133" height="132" viewBox="0 0 133 132" fill="none" xmlns="http://www.w3.org/2000/svg">
<path d="M11.0043 94.6225C4.57592 84.1021 3.04472 68.6449 12.3771 59.7085C14.3346 58.0445 16.5961 56.7759 19.0365 55.9729C21.1089 54.8905 23.1747 53.7949 25.1877 52.6729C29.2137 50.3827 33.0153 47.8813 36.1041 44.7529C47.8323 32.8597 48.4527 15.5413 68.9919 15.1849C75.6711 15.0727 83.8947 16.7821 92.0919 19.9501C94.8681 21.0198 97.5866 22.2337 100.236 23.5867C123.93 33.5395 136.008 64.0645 120.366 85.9171C119.152 87.8113 117.872 89.6461 116.558 91.3885C115.245 93.1309 113.918 94.7809 112.565 96.3253C98.1375 113.056 73.3413 121.28 46.5651 115.307C43.5274 114.63 40.5287 113.789 37.5825 112.786C28.7451 109.901 20.7723 105.651 14.6475 99.4273C13.3049 97.9271 12.0865 96.3202 11.0043 94.6225Z" fill="#EBEAEE"/>
<path d="M41.5498 55.3512C40.0838 55.1783 38.6831 54.6465 37.4717 53.803C36.2603 52.9595 35.2757 51.8302 34.605 50.5152C33.9343 49.2003 33.5983 47.7402 33.6267 46.2643C33.655 44.7885 34.047 43.3424 34.7677 42.0542C35.4885 40.766 36.5158 39.6754 37.7588 38.8791C39.0017 38.0828 40.4218 37.6053 41.8933 37.4889C43.3649 37.3725 44.8424 37.6208 46.1951 38.2119C47.5477 38.8029 48.7337 39.7185 49.648 40.8774V40.8774C50.5922 42.0742 51.216 43.4917 51.4606 44.9964C51.7053 46.5011 51.5627 48.0432 51.0463 49.4775C50.5299 50.9118 49.6567 52.1909 48.5091 53.1943C47.3614 54.1977 45.9772 54.8923 44.4868 55.2126C43.5218 55.4176 42.5298 55.4644 41.5498 55.3512V55.3512Z" stroke="#2E0563" stroke-width="2.4" stroke-linecap="round" stroke-linejoin="round"/>
<path d="M61.3165 90.7667L45.7009 66.7031L39.6421 74.5835L43.2391 86.3579C43.419 86.9446 43.4802 87.5612 43.4192 88.1718C43.3581 88.7824 43.1761 89.3747 42.8836 89.9142C42.5912 90.4536 42.1942 90.9294 41.7158 91.3138C41.2374 91.6981 40.6873 91.9833 40.0975 92.1527L39.9325 92.1923C38.8345 92.4237 37.6897 92.2348 36.7243 91.6629C35.7588 91.091 35.0431 90.1777 34.7185 89.1035L30.4615 75.1973C30.269 74.5763 30.2147 73.9207 30.3025 73.2765C30.3903 72.6323 30.618 72.0151 30.9697 71.4683L42.0049 56.1035" stroke="#2E0563" stroke-width="2.4" stroke-linecap="round" stroke-linejoin="round"/>
<path d="M61.3956 59.4043L70.5828 75.9901L89.8152 73.5811C91.8333 73.3279 93.8815 73.4782 95.841 74.0233L110.434 78.1021C111.001 78.3266 111.518 78.6612 111.955 79.0866C112.392 79.512 112.741 80.0198 112.981 80.5806C113.221 81.1415 113.347 81.7443 113.353 82.3542C113.359 82.9642 113.244 83.5692 113.014 84.1345C112.818 84.6189 112.538 85.0655 112.189 85.4545C111.557 86.1763 110.717 86.6836 109.784 86.906C108.85 87.1283 107.871 87.0547 106.982 86.6953L92.2374 83.0455L72.7278 84.7615L89.2938 90.1669C90.9153 90.6985 92.3104 91.7611 93.2538 93.1831L101.246 105.261C101.912 106.135 102.263 107.209 102.241 108.308C102.22 109.407 101.827 110.466 101.128 111.313C100.891 111.602 100.62 111.861 100.322 112.085C99.2956 112.868 98 113.211 96.7203 113.039C95.4406 112.867 94.2816 112.194 93.498 111.168L84.0864 98.4763L63.3756 91.8763C62.6208 91.6641 61.9192 91.2953 61.3164 90.7939" stroke="#2E0563" stroke-width="2.4" stroke-linecap="round" stroke-linejoin="round"/>
<path d="M58.3004 53.557L67.5404 44.0266C68.0104 43.5448 68.3647 42.9625 68.5766 42.3238L73.5794 28.8268C73.7701 28.2634 73.8479 27.668 73.8085 27.0745C73.7691 26.4811 73.6132 25.9012 73.3496 25.368C73.0861 24.8348 72.7201 24.3587 72.2726 23.967C71.8251 23.5752 71.3048 23.2754 70.7414 23.0848C70.1781 22.8941 69.5826 22.8162 68.9892 22.8557C68.3957 22.8951 67.8158 23.051 67.2827 23.3146C66.7495 23.5781 66.2734 23.9441 65.8816 24.3916C65.4899 24.8391 65.1901 25.3594 64.9994 25.9228L60.3266 38.4628L51.5156 47.5246" stroke="#2E0563" stroke-width="2.4" stroke-linecap="round" stroke-linejoin="round"/>
<path d="M51.6075 92.293L43.8789 97.507L53.6469 98.1076L49.6671 109.064L60.7155 101.229L64.8933 108.72L68.4903 101.889" stroke="#FF6D00" stroke-width="2.4" stroke-linecap="round" stroke-linejoin="round"/>
</svg>
