<svg width="120"
     height="120"
     viewBox="0 0 120 120"
     fill="none"
     xmlns="http://www.w3.org/2000/svg">
  <path d="M113.319 68.0928C113.398 70.4441 113.15 72.795 112.584 75.0784C107.436 97.5978 81.1485 111.293 59.4563 111.385C31.6977 111.661 15.6124 89.1415 9.08638 64.6919C3.66334 43.827 6.14507 18.3663 29.1241 10.0019C54.4009 0.810354 66.2581 32.1537 85.5604 41.621C94.1086 46.4926 109.459 54.1216 112.584 64.1404C113.005 65.4189 113.253 66.7483 113.319 68.0928Z"
        fill="#EBEAEE" />
  <path d="M20.0243 78.3878L27.7452 74.5273L40.7053 95.1165L34.2712 98.977"
        stroke="#201751"
        stroke-width="2.5"
        stroke-linecap="round"
        stroke-linejoin="round" />
  <path d="M53.5735 77.101H69.0154C70.3805 77.101 71.6898 76.5587 72.6551 75.5934C73.6204 74.6281 74.1627 73.3189 74.1627 71.9537V71.9537C74.1391 70.596 73.5892 69.3004 72.629 68.3402C71.6687 67.3799 70.3732 66.83 69.0154 66.8064H49.3454C47.0504 66.7738 44.7913 67.3783 42.8194 68.5528L30.4107 75.8142"
        stroke="#201751"
        stroke-width="2.5"
        stroke-linecap="round"
        stroke-linejoin="round" />
  <path d="M70.3023 77.1009L92.8218 67.174C94.0777 66.6547 95.488 66.6532 96.745 67.1698C98.002 67.6864 99.0038 68.6791 99.5316 69.9315C100.055 71.2004 100.059 72.6239 99.5429 73.8959C99.0273 75.1678 98.0331 76.1866 96.7741 76.7332L73.979 87.6712C72.375 88.3318 70.6582 88.6752 68.9236 88.6823H48.7021C47.308 88.6774 45.9398 89.0592 44.7497 89.7853L40.1539 92.5428"
        stroke="#201751"
        stroke-width="2.5"
        stroke-linecap="round"
        stroke-linejoin="round" />
  <path d="M99.5315 34.5444C98.7424 30.7028 96.8019 27.1927 93.9683 24.4814C91.1346 21.7702 87.5423 19.9864 83.6697 19.3676C79.797 18.7487 75.8277 19.3242 72.2903 21.0174C68.7528 22.7106 65.8151 25.4412 63.8681 28.8456C61.7503 25.1664 58.4786 22.2879 54.5596 20.656C50.6405 19.024 46.2928 18.7295 42.1895 19.8182C38.0862 20.9068 34.4563 23.3178 31.8617 26.6778C29.2671 30.0379 27.8525 34.1596 27.8371 38.4048C27.8371 47.0449 35.8338 58.5344 43.5547 66.7149"
        stroke="#201751"
        stroke-width="2.5"
        stroke-linecap="round"
        stroke-linejoin="round" />
  <path d="M75.9091 74.5279C83.2624 68.7372 96.1306 54.5821 99.2557 43.1846"
        stroke="#201751"
        stroke-width="2.5"
        stroke-linecap="round"
        stroke-linejoin="round" />
  <path d="M43.2791 52.5603H53.5737L56.1473 47.413L61.2946 57.7076L70.3024 37.1184L75.4497 52.5603H84.4574"
        stroke="#FF5100"
        stroke-width="2.5"
        stroke-linecap="round"
        stroke-linejoin="round" />
</svg>