<svg width="133" height="132" viewBox="0 0 133 132" fill="none" xmlns="http://www.w3.org/2000/svg">
<path d="M26.7242 107.888C44.2362 132.264 77.0602 104.984 96.7722 93.0162C99.3242 91.3442 101.788 89.6722 104.076 87.8242C115.868 78.6722 124.932 66.4402 122.644 52.5362C119.916 36.0802 101.26 29.7442 85.9482 24.6402C83.5722 23.9362 81.2842 23.3202 78.8202 22.8802C76.4442 22.4402 73.9802 22.0882 71.5162 21.8242C68.2602 21.5602 64.9162 21.4722 61.5722 21.6482C39.2202 22.4402 9.82823 32.0322 9.74023 56.4082C10.0922 61.0722 11.5002 65.2962 13.4362 69.2562C14.4042 71.1922 15.5482 73.1282 16.6922 75.0642C17.7482 77.0882 18.7162 79.1122 19.6842 81.2242C22.5002 88.2642 22.5002 95.3042 24.7882 102.608C25.4922 104.544 26.1082 106.304 26.7242 107.888Z" fill="#E8E4ED"/>
<path d="M86.124 66.1762L46.876 65.8242" stroke="#FF5100" stroke-width="2.4" stroke-miterlimit="10" stroke-linecap="round" stroke-linejoin="round"/>
<path d="M66.6762 46.377L66.3242 85.625" stroke="#FF5100" stroke-width="2.4" stroke-miterlimit="10" stroke-linecap="round" stroke-linejoin="round"/>
<path d="M66.5004 110.352C90.9954 110.352 110.852 90.4954 110.852 66.0004C110.852 41.5055 90.9954 21.6484 66.5004 21.6484C42.0055 21.6484 22.1484 41.5055 22.1484 66.0004C22.1484 90.4954 42.0055 110.352 66.5004 110.352Z" stroke="#201751" stroke-width="2.4" stroke-miterlimit="10" stroke-linecap="round" stroke-linejoin="round"/>
</svg>
