<svg width="101" height="101" viewBox="0 0 101 101" fill="none" xmlns="http://www.w3.org/2000/svg">
<g clip-path="url(#clip0)">
<path d="M98.8333 92.5811H2.16667C1.24625 92.5811 0.5 93.3273 0.5 94.2477C0.5 95.1681 1.24625 95.9144 2.16667 95.9144H98.8333C99.7537 95.9144 100.5 95.1681 100.5 94.2477C100.5 93.3273 99.7537 92.5811 98.8333 92.5811Z" fill="#2B0D61"/>
<path d="M29.9566 75.8791C29.7606 75.2751 29.2385 74.8349 28.61 74.7441L23.88 74.0574L21.7666 69.7724C21.3587 68.9472 20.3594 68.6089 19.5341 69.0166C19.206 69.1786 18.9406 69.4443 18.7783 69.7724L16.6666 74.0574L11.9333 74.7474C11.0231 74.8845 10.3964 75.7336 10.5335 76.6439C10.5871 76.9993 10.7542 77.328 11.0098 77.5807L14.4314 80.9141L13.625 85.6241C13.47 86.5314 14.08 87.3926 14.9873 87.5474C15.3475 87.6088 15.7179 87.5503 16.0416 87.3807L20.2716 85.1574L24.5 87.3891C25.3148 87.8174 26.3225 87.5043 26.7508 86.6895C26.9214 86.3651 26.9802 85.9936 26.9183 85.6324L26.11 80.9224L29.5333 77.5891C29.9887 77.1464 30.1529 76.4832 29.9566 75.8791ZM23.1666 79.1457C22.7737 79.5291 22.5948 80.0814 22.6883 80.6224L23.0716 82.8674L21.055 81.8074C20.5702 81.553 19.9914 81.553 19.5066 81.8074L17.49 82.8674L17.8733 80.6224C17.9669 80.0814 17.7879 79.5291 17.395 79.1457L15.7633 77.5574L18.0166 77.2241C18.5596 77.1453 19.0289 76.8043 19.2716 76.3124L20.28 74.2691L21.2883 76.3107C21.5306 76.8032 22.0002 77.1449 22.5433 77.2241L24.7966 77.5574L23.1666 79.1457Z" fill="#2B0D61"/>
<path d="M83.6383 47.6969L66.685 30.7469C66.0341 30.0963 64.9791 30.0963 64.3283 30.7469L52.1666 42.8986L41.03 31.7619C48.3816 30.6642 53.825 24.355 53.8333 16.9219V16.6369C53.8333 13.8755 51.5947 11.6369 48.8333 11.6369C46.0718 11.6369 43.8333 13.8755 43.8333 16.6369C43.8295 19.5548 41.4645 21.9192 38.5466 21.9219C35.6193 21.9277 32.7158 22.4448 29.9666 23.4502C31.737 18.2188 28.9312 12.5427 23.6998 10.7725C18.4683 9.00233 12.7923 11.808 11.022 17.0394C9.25184 22.2709 12.0575 27.9469 17.2889 29.7171C18.1148 29.9965 18.9735 30.1669 19.8433 30.2236L19.3333 30.7469C12.2398 37.8413 12.2398 49.3425 19.3333 56.4369L19.965 57.0686C22.0027 59.0936 25.2962 59.0834 27.3212 57.0457C28.2879 56.0729 28.8312 54.7582 28.8333 53.3869C28.8373 52.0065 28.2887 50.6819 27.31 49.7086L26.6783 49.0769C24.1081 46.4982 23.671 42.4813 25.6266 39.4102L48.8066 62.5802H35.5C34.5795 62.5802 33.8333 63.3265 33.8333 64.2469C33.8333 65.1673 34.5795 65.9136 35.5 65.9136H52.1333L53.8333 67.6136V82.5802C53.8354 83.7513 54.1464 84.9011 54.735 85.9136H43.8333C42.9129 85.9136 42.1666 86.6598 42.1666 87.5802C42.1666 88.5006 42.9129 89.2469 43.8333 89.2469H60.455H60.5C64.1818 89.2469 67.1666 86.2621 67.1666 82.5802V61.9136C67.1666 61.4715 66.9908 61.0477 66.6783 60.7352L59.5233 53.5802L65.5 47.6136L74.615 56.7202C77.1066 59.2119 81.1466 59.2119 83.6383 56.7202C86.13 54.2286 86.13 50.1886 83.6383 47.6969ZM13.8333 20.2552C13.8333 16.5734 16.8181 13.5886 20.5 13.5886C24.1818 13.5886 27.1666 16.5734 27.1666 20.2552C27.1666 23.9371 24.1818 26.9219 20.5 26.9219C16.8181 26.9219 13.8333 23.9371 13.8333 20.2552ZM81.2541 54.3644C80.6877 54.9254 79.9239 55.2421 79.1266 55.2467C78.3189 55.2448 77.5445 54.9244 76.9716 54.355L66.685 44.08C66.0341 43.4294 64.9791 43.4294 64.3283 44.08L56 52.4134C55.3493 53.0642 55.3493 54.1192 56 54.77L63.8333 62.6136V82.5802C63.8333 84.4213 62.341 85.9136 60.5 85.9136C58.6589 85.9136 57.1666 84.4213 57.1666 82.5802V66.9136C57.1666 66.4715 56.9908 66.0477 56.6783 65.7352L26.6783 35.7352C26.0275 35.0846 24.9725 35.0846 24.3216 35.7352C19.9948 40.0702 19.9948 47.0902 24.3216 51.4252L24.9533 52.0569C25.6833 52.7863 25.6837 53.9692 24.9543 54.6992C24.6037 55.0502 24.1277 55.2473 23.6316 55.2469C23.1362 55.2457 22.6614 55.0494 22.31 54.7002L21.6783 54.0686C15.886 48.2759 15.886 38.8846 21.6783 33.0919L23.1433 31.6286C27.2193 27.5296 32.766 25.2315 38.5466 25.2469C43.3014 25.2423 47.1566 21.3917 47.1666 16.6369C47.1666 15.7165 47.9129 14.9702 48.8333 14.9702C49.7537 14.9702 50.5 15.7165 50.5 16.6369V16.9219C50.4927 23.3621 45.2735 28.5813 38.8333 28.5886C37.9129 28.5886 37.1666 29.3348 37.1666 30.2552V31.9219C37.1666 32.364 37.3425 32.7877 37.655 33.1002L50.9883 46.4336C51.6391 47.0842 52.6941 47.0842 53.345 46.4336L65.5 34.2802L81.275 50.0536C82.4595 51.2498 82.4504 53.1798 81.2541 54.3644Z" fill="#2B0D61"/>
<path d="M37.1667 85.9141H33.8334C32.9129 85.9141 32.1667 86.6603 32.1667 87.5807C32.1667 88.5011 32.9129 89.2474 33.8334 89.2474H37.1667C38.0871 89.2474 38.8334 88.5011 38.8334 87.5807C38.8334 86.6603 38.0871 85.9141 37.1667 85.9141Z" fill="#2B0D61"/>
<path d="M28.8333 62.5811H25.5C24.5796 62.5811 23.8333 63.3273 23.8333 64.2477C23.8333 65.1681 24.5796 65.9144 25.5 65.9144H28.8333C29.7537 65.9144 30.5 65.1681 30.5 64.2477C30.5 63.3273 29.7537 62.5811 28.8333 62.5811Z" fill="#2B0D61"/>
<path d="M98.8337 6.59185C98.7216 6.59185 98.6098 6.6031 98.5 6.6256H98.5116C95.1654 7.30122 91.6875 6.69581 88.7666 4.92893L88.035 4.48727C87.9889 4.46435 87.9416 4.44372 87.8933 4.4256C87.845 4.40227 87.7966 4.38227 87.7466 4.36227C87.3766 4.2256 86.97 4.2256 86.6 4.36227C86.55 4.38227 86.5016 4.40227 86.4533 4.4256C86.405 4.44372 86.3579 4.46435 86.3116 4.48727L85.58 4.92893C82.6589 6.69685 79.18 7.30247 75.8333 6.6256C74.9314 6.44143 74.051 7.02331 73.8671 7.92518C73.8446 8.03497 73.8333 8.14685 73.8333 8.25893V25.0423C73.8333 27.4064 74.4725 29.7266 75.6833 31.7573C77.0816 34.1131 79.1921 35.9643 81.71 37.0439L86.5066 39.1106C86.9248 39.2906 87.3985 39.2906 87.8166 39.1106L92.615 37.0439C95.1329 35.9643 97.2433 34.1131 98.6416 31.7573C99.8554 29.7275 100.497 27.4073 100.5 25.0423V8.25893C100.5 7.33852 99.7541 6.59206 98.8337 6.59185ZM85.5066 35.0456L83.035 33.9806C81.1621 33.1777 79.5923 31.801 78.5516 30.0489C77.6506 28.5366 77.1744 26.8094 77.1733 25.0489V10.1739C80.0302 10.4012 82.8977 9.89831 85.5066 8.71227V35.0456ZM95.795 30.0489C94.7548 31.8016 93.1848 33.1789 91.3116 33.9823L88.8333 35.0473V8.71227C91.4423 9.8981 94.3098 10.4012 97.1666 10.1739L97.1733 25.0489C97.1723 26.8094 96.696 28.5366 95.795 30.0489Z" fill="#2B0D61"/>
</g>
<defs>
<clipPath id="clip0">
<rect width="100" height="100" fill="white" transform="translate(0.5 0.0869141)"/>
</clipPath>
</defs>
</svg>
