<svg width="61" height="61" viewBox="0 0 61 61" fill="none" xmlns="http://www.w3.org/2000/svg">
<path d="M52.8828 24.0496V22.7629H57.4531C57.6706 22.7628 57.8792 22.6763 58.033 22.5225C58.1868 22.3687 58.2733 22.1601 58.2734 21.9426V18.72C58.2734 18.5761 58.2356 18.4347 58.1637 18.31C58.0918 18.1854 57.9883 18.0818 57.8638 18.0098L30.9106 2.42387C30.7859 2.35156 30.6442 2.31348 30.5 2.31348C30.3558 2.31348 30.2141 2.35156 30.0894 2.42387L3.13625 18.0098C3.01167 18.0818 2.90823 18.1854 2.83632 18.31C2.76441 18.4347 2.72656 18.5761 2.72656 18.72V21.9426C2.72669 22.1601 2.81315 22.3687 2.96696 22.5225C3.12078 22.6763 3.32935 22.7628 3.54688 22.7629H8.11719V24.0496C8.11766 24.4333 8.26264 24.8027 8.52325 25.0842C8.78386 25.3658 9.14097 25.5388 9.52344 25.5689V47.7825H7.00391C6.78638 47.7826 6.57781 47.8691 6.42399 48.0229C6.27018 48.1767 6.18372 48.3853 6.18359 48.6028V52.0012H3.54688C3.32935 52.0013 3.12078 52.0878 2.96696 52.2416C2.81315 52.3954 2.72669 52.604 2.72656 52.8215V57.0403C2.72669 57.2578 2.81315 57.4664 2.96696 57.6202C3.12078 57.774 3.32935 57.8605 3.54688 57.8606H57.4531C57.6706 57.8605 57.8792 57.774 58.033 57.6202C58.1868 57.4664 58.2733 57.2578 58.2734 57.0403V52.8215C58.2733 52.604 58.1868 52.3954 58.033 52.2416C57.8792 52.0878 57.6706 52.0013 57.4531 52.0012H54.8164V48.6028C54.8163 48.3853 54.7298 48.1767 54.576 48.0229C54.4222 47.8691 54.2136 47.7826 53.9961 47.7825H51.4766V28.845C51.4766 28.8295 51.4813 28.815 51.4813 28.7981C51.4813 28.7812 51.4775 28.7681 51.4766 28.7512V25.5689C51.859 25.5388 52.2161 25.3658 52.4767 25.0842C52.7374 24.8027 52.8823 24.4333 52.8828 24.0496ZM49.8359 25.4559V27.9778H47.2578V25.4559C47.2573 25.0723 47.1124 24.7029 46.8517 24.4213C46.5911 24.1398 46.234 23.9667 45.8516 23.9367V22.7648H51.2422V23.9367C50.8597 23.9667 50.5026 24.1398 50.242 24.4213C49.9814 24.7029 49.8364 25.0723 49.8359 25.4559ZM39.4438 47.7825V28.845C39.4438 28.8295 39.4484 28.815 39.4484 28.7981C39.4484 28.7812 39.4447 28.7681 39.4438 28.7512V25.5689C39.8262 25.5388 40.1833 25.3658 40.4439 25.0842C40.7045 24.8027 40.8495 24.4333 40.85 24.0496V22.7629H44.2109V24.0496C44.2114 24.4333 44.3564 24.8027 44.617 25.0842C44.8776 25.3658 45.2347 25.5388 45.6172 25.5689V47.7825H39.4438ZM35.225 47.7825V29.6184H37.8031V47.7825H35.225ZM27.4156 47.7825V25.5689C27.7981 25.5388 28.1552 25.3658 28.4158 25.0842C28.6764 24.8027 28.8214 24.4333 28.8219 24.0496V22.7629H32.1781V24.0496C32.1786 24.4333 32.3236 24.8027 32.5842 25.0842C32.8448 25.3658 33.2019 25.5388 33.5844 25.5689V47.7825H27.4156ZM23.1969 47.7825V29.6184H25.775V47.7825H23.1969ZM15.3828 47.7825V25.5689C15.7653 25.5388 16.1224 25.3658 16.383 25.0842C16.6436 24.8027 16.7886 24.4333 16.7891 24.0496V22.7629H20.15V24.0496C20.1505 24.4333 20.2955 24.8027 20.5561 25.0842C20.8167 25.3658 21.1738 25.5388 21.5562 25.5689V47.7825H15.3828ZM27.1812 22.7629V23.9348C26.7988 23.9649 26.4417 24.1379 26.1811 24.4194C25.9205 24.701 25.7755 25.0704 25.775 25.454V27.9778H23.1969V25.4559C23.1964 25.0723 23.0514 24.7029 22.7908 24.4213C22.5302 24.1398 22.1731 23.9667 21.7906 23.9367V22.7648L27.1812 22.7629ZM39.2094 22.7629V23.9348C38.8269 23.9649 38.4698 24.1379 38.2092 24.4194C37.9486 24.701 37.8036 25.0704 37.8031 25.454V27.9778H35.225V25.4559C35.2245 25.0723 35.0795 24.7029 34.8189 24.4213C34.5583 24.1398 34.2012 23.9667 33.8188 23.9367V22.7648L39.2094 22.7629ZM4.36719 19.1934L30.5 4.08137L56.6328 19.1934V21.1223H52.0859C52.0784 21.1223 52.0714 21.12 52.0634 21.12H45.0312C45.0233 21.12 45.0163 21.1223 45.0088 21.1223H40.0522C40.0447 21.1223 40.0377 21.12 40.0297 21.12H32.9984C32.9905 21.12 32.9834 21.1223 32.9759 21.1223H28.0241C28.0166 21.1223 28.0095 21.12 28.0016 21.12H20.9703C20.9623 21.12 20.9553 21.1223 20.9478 21.1223H15.9913C15.9838 21.1223 15.9767 21.12 15.9688 21.12H8.9375C8.92953 21.12 8.9225 21.1223 8.915 21.1223H4.36719V19.1934ZM15.1484 22.7629V23.9348C14.766 23.9649 14.4089 24.1379 14.1482 24.4194C13.8876 24.701 13.7427 25.0704 13.7422 25.454V27.9778H11.1641V25.4559C11.1636 25.0723 11.0186 24.7029 10.758 24.4213C10.4974 24.1398 10.1403 23.9667 9.75781 23.9367V22.7648L15.1484 22.7629ZM11.1641 29.6184H13.7422V47.7825H11.1641V29.6184ZM56.6328 56.22H4.36719V53.6418H56.6328V56.22ZM53.1758 52.0012H7.82422V49.4231H53.1758V52.0012ZM47.2578 47.7825V29.6184H49.8359V47.7825H47.2578Z" fill="#2B0D61"/>
<path d="M30.5 18.25C31.2186 18.25 31.921 18.0369 32.5184 17.6377C33.1159 17.2384 33.5815 16.671 33.8564 16.0071C34.1313 15.3432 34.2032 14.6127 34.0629 13.9079C33.9226 13.2032 33.5765 12.5559 33.0683 12.0479C32.5601 11.5399 31.9127 11.194 31.2079 11.054C30.5031 10.914 29.7726 10.9861 29.1088 11.2613C28.445 11.5365 27.8778 12.0023 27.4787 12.5999C27.0797 13.1975 26.8669 13.9 26.8672 14.6186C26.8687 15.5815 27.2519 16.5045 27.9329 17.1852C28.6139 17.866 29.5371 18.2489 30.5 18.25ZM30.5 12.625C30.894 12.625 31.2791 12.7418 31.6067 12.9606C31.9342 13.1795 32.1896 13.4905 32.3404 13.8545C32.4912 14.2184 32.5308 14.6189 32.454 15.0053C32.3773 15.3917 32.1877 15.7467 31.9092 16.0254C31.6307 16.304 31.2759 16.4939 30.8895 16.5709C30.5032 16.648 30.1026 16.6087 29.7386 16.4581C29.3745 16.3076 29.0633 16.0524 28.8442 15.725C28.6252 15.3976 28.5081 15.0126 28.5078 14.6186C28.5081 14.0902 28.718 13.5835 29.0915 13.2097C29.465 12.8359 29.9716 12.6256 30.5 12.625Z" fill="#2B0D61"/>
<path d="M38.1374 11.7467L45.2587 15.8642C45.447 15.9731 45.6709 16.0028 45.8811 15.9466C46.0913 15.8904 46.2706 15.7531 46.3795 15.5647C46.4884 15.3764 46.518 15.1525 46.4618 14.9423C46.4057 14.7321 46.2683 14.5528 46.0799 14.4439L38.9587 10.326C38.7703 10.2171 38.5463 10.1875 38.3361 10.2437C38.1259 10.2999 37.9466 10.4373 37.8377 10.6257C37.7288 10.8141 37.6992 11.0381 37.7554 11.2483C37.8116 11.4585 37.949 11.6378 38.1374 11.7467Z" fill="#2B0D61"/>
</svg>
