<svg width="101" height="101" viewBox="0 0 101 101" fill="none" xmlns="http://www.w3.org/2000/svg">
<g clip-path="url(#clip0)">
<path d="M89.8309 40.6748C91.6186 38.8877 92.726 36.4199 92.726 33.6984C92.726 28.4273 88.5723 24.1082 83.3662 23.8422C81.6656 19.9146 77.9375 17.2537 73.6553 16.9297C75.4414 15.1428 76.5477 12.6762 76.5477 9.95605C76.5477 4.51426 72.1203 0.0869141 66.6785 0.0869141C61.2367 0.0869141 56.8094 4.51426 56.8094 9.95605C56.8094 12.6762 57.9156 15.1428 59.7018 16.9297C55.8066 17.2246 52.3695 19.4527 50.5002 22.8092C48.6309 19.4529 45.1941 17.2248 41.2992 16.9297C43.0854 15.1428 44.1916 12.6762 44.1916 9.95586C44.1914 4.51406 39.7641 0.0869141 34.3223 0.0869141C31.7465 0.0869141 29.3074 1.07461 27.4539 2.86816C26.8725 3.43086 26.8574 4.3582 27.4199 4.93945C27.9824 5.5207 28.9098 5.53613 29.4912 4.97344C30.7953 3.71152 32.5109 3.0166 34.3223 3.0166C38.1486 3.0166 41.2617 6.12949 41.2617 9.95605C41.2617 13.7826 38.1486 16.8955 34.3223 16.8955C30.5609 16.8955 27.4488 13.8379 27.3846 10.0795C27.3707 9.27051 26.7119 8.62773 25.8949 8.63984C25.0859 8.65371 24.4414 9.32051 24.4553 10.1295C24.5004 12.776 25.609 15.1771 27.3648 16.9285C23.0742 17.2457 19.3371 19.9086 17.6338 23.8422C12.4277 24.1082 8.27402 28.4273 8.27402 33.6984C8.27402 36.4199 9.38125 38.8877 11.1691 40.6748C5.21074 41.1271 0.5 46.1162 0.5 52.1885V69.8371C0.5 70.6461 1.15586 71.302 1.96484 71.302H30.7119C29.8045 73.6598 29.3055 76.2188 29.3055 78.8924C29.3055 90.5791 38.8133 100.087 50.5 100.087C62.1867 100.087 71.6945 90.5791 71.6945 78.8924C71.6945 76.2188 71.1955 73.6598 70.2881 71.302H99.0352C99.8441 71.302 100.5 70.6461 100.5 69.8371V52.1885C100.5 46.1162 95.7893 41.1271 89.8309 40.6748ZM89.7963 33.6984C89.7963 37.5223 86.6873 40.6336 82.8643 40.6377C79.0361 40.6424 75.9168 37.5275 75.9172 33.6984C75.9172 29.8721 79.0303 26.759 82.8566 26.759C86.683 26.759 89.7963 29.8721 89.7963 33.6984ZM66.6783 3.0166C70.5047 3.0166 73.6178 6.12969 73.6178 9.95605C73.618 13.7838 70.5018 16.8979 66.6746 16.8955C62.85 16.8936 59.7389 13.7812 59.7389 9.95605C59.7389 6.12969 62.852 3.0166 66.6783 3.0166ZM60.5859 19.8252H72.7715C75.9232 19.8252 78.757 21.5191 80.2656 24.1768C76.077 25.318 72.9875 29.1531 72.9875 33.6984C72.9875 36.4199 74.0947 38.8877 75.8824 40.6748C71.9252 40.975 68.5197 43.2758 66.6777 46.5678C64.8361 43.2758 61.4309 40.9748 57.4742 40.6748C59.2619 38.8877 60.3691 36.4199 60.3691 33.6984C60.3691 29.1533 57.2799 25.3184 53.0916 24.177C54.6004 21.5193 57.4342 19.8252 60.5859 19.8252ZM35.7865 58.0654H39.5801V60.7338C38.2064 61.5629 36.9344 62.5437 35.7865 63.6525V58.0654ZM42.51 52.398C42.51 51.5891 41.8541 50.9332 41.0451 50.9332C40.2361 50.9332 39.5803 51.5891 39.5803 52.398V55.1357H35.7871V52.1885C35.7871 47.4348 39.6535 43.5674 44.4062 43.5674H56.5938C61.3463 43.5674 65.2129 47.4348 65.2129 52.1885V55.1357H61.4197V52.398C61.4197 51.5891 60.7639 50.9332 59.9549 50.9332C59.1459 50.9332 58.49 51.5891 58.49 52.398L58.4902 59.2629C56.023 58.2549 53.3256 57.6977 50.5 57.6977C47.6744 57.6977 44.977 58.2549 42.5098 59.2629L42.51 52.398ZM50.5 26.759C54.3264 26.759 57.4395 29.8721 57.4395 33.6984C57.4395 37.5223 54.3305 40.6336 50.5074 40.6377C46.6793 40.6424 43.56 37.5275 43.5603 33.6984C43.5605 29.8721 46.6736 26.759 50.5 26.759ZM61.4199 58.0654H65.2135V63.6525C64.0654 62.5437 62.7936 61.5631 61.4199 60.7338V58.0654ZM28.2285 19.8252H40.4141C43.5658 19.8252 46.3996 21.5193 47.9084 24.177C43.7201 25.3184 40.6309 29.1533 40.6309 33.6984C40.6309 36.4199 41.7381 38.8875 43.5258 40.6748C39.5689 40.9748 36.1639 43.2758 34.3223 46.5678C32.4803 43.2758 29.0748 40.975 25.1176 40.6748C26.9053 38.8877 28.0125 36.4199 28.0125 33.6984C28.0125 29.1531 24.923 25.318 20.7344 24.1768C22.2432 21.5191 25.0768 19.8252 28.2285 19.8252ZM18.1432 26.759C21.9695 26.759 25.0826 29.8721 25.0826 33.6984C25.0826 37.5223 21.9736 40.6336 18.1506 40.6377C14.3225 40.6424 11.2031 37.5275 11.2035 33.6984C11.2037 29.8721 14.3168 26.759 18.1432 26.759ZM26.1328 68.3721H10.1523V66.6357C10.1523 65.8268 9.49648 65.1709 8.6875 65.1709C7.87852 65.1709 7.22266 65.8268 7.22266 66.6357V68.3723H3.42969V58.0654H7.22266V59.7998C7.22266 60.6088 7.87852 61.2647 8.6875 61.2647C9.49648 61.2647 10.1523 60.6088 10.1523 59.7998L10.1531 52.3982C10.1531 51.5893 9.49727 50.9334 8.68828 50.9334C7.8793 50.9334 7.22344 51.5893 7.22344 52.3982V55.1359H3.42969V52.1887C3.42969 47.435 7.29707 43.5676 12.0508 43.5676H24.2363C28.99 43.5676 32.8574 47.435 32.8574 52.1887V55.1359H29.0629V52.3982C29.0629 51.5893 28.407 50.9334 27.598 50.9334C26.7891 50.9334 26.1332 51.5893 26.1332 52.3982L26.1328 68.3721ZM29.0625 68.3723V58.0654H32.8566V67.1617C32.5934 67.5563 32.3424 67.9598 32.1055 68.3723H29.0625ZM50.5 97.1572C40.4287 97.1572 32.2352 88.9637 32.2352 78.8924C32.2352 68.8211 40.4287 60.6273 50.5 60.6273C60.5713 60.6273 68.7648 68.8209 68.7648 78.8924C68.7648 88.9637 60.5713 97.1572 50.5 97.1572ZM68.1432 67.1617V58.0654H71.9373V68.3723H68.8943C68.6576 67.9598 68.4064 67.5564 68.1432 67.1617ZM93.7773 68.3723V66.2686C93.7773 65.4596 93.1215 64.8037 92.3125 64.8037C91.5035 64.8037 90.8477 65.4596 90.8477 66.2686V68.3721H74.8672L74.8668 52.398C74.8668 51.5891 74.2109 50.9332 73.402 50.9332C72.593 50.9332 71.9371 51.5891 71.9371 52.398V55.1357H68.1426V52.1885C68.1426 47.4348 72.01 43.5674 76.7637 43.5674H88.9492C93.7029 43.5674 97.5703 47.4348 97.5703 52.1885V55.1357H93.7766V52.398C93.7766 51.5891 93.1207 50.9332 92.3117 50.9332C91.5027 50.9332 90.8469 51.5891 90.8469 52.398L90.8477 59.4326C90.8477 60.2416 91.5035 60.8975 92.3125 60.8975C93.1215 60.8975 93.7773 60.2416 93.7773 59.4326V58.0654H97.5703V68.3723H93.7773Z" fill="#2B0D61"/>
<path d="M61.5057 73.2975C61.5057 71.8521 60.9428 70.4934 59.9209 69.4715C58.8991 68.4496 57.5403 67.8867 56.095 67.8867C54.6497 67.8867 53.2909 68.4496 52.2692 69.4717L50.5001 71.2406L48.7313 69.4717C47.7092 68.4496 46.3505 67.8867 44.9051 67.8867C43.46 67.8867 42.1012 68.4496 41.0794 69.4715C40.0575 70.4934 39.4946 71.8521 39.4946 73.2975C39.4946 74.7428 40.0573 76.1016 41.0794 77.1234L42.8483 78.8926L41.0794 80.6615C40.0575 81.6834 39.4946 83.0422 39.4946 84.4875C39.4946 85.9328 40.0575 87.2916 41.0794 88.3135C42.1012 89.3354 43.46 89.8982 44.9053 89.8982C46.3506 89.8982 47.7094 89.3354 48.7313 88.3135L50.5003 86.5445L52.269 88.3131C53.2907 89.3354 54.6495 89.8982 56.0952 89.8982C57.5403 89.8982 58.8991 89.3356 59.9211 88.3137C60.9432 87.2916 61.5061 85.9328 61.5061 84.4875C61.5061 83.0422 60.9432 81.6834 59.9211 80.6615L58.1522 78.8924L59.9211 77.1234C60.9428 76.1016 61.5057 74.7428 61.5057 73.2975ZM57.8493 75.052L55.0446 77.8568C54.4725 78.4289 54.4725 79.3564 55.0446 79.9283L57.8495 82.7332C58.318 83.2018 58.5762 83.8248 58.5762 84.4875C58.5762 85.1502 58.3182 85.7732 57.8495 86.2418C57.3807 86.7104 56.7577 86.9686 56.095 86.9686C55.4321 86.9686 54.8092 86.7105 54.3407 86.2418L51.536 83.4371C51.2614 83.1623 50.8887 83.008 50.5003 83.008C50.1118 83.008 49.7391 83.1623 49.4645 83.4371L46.6598 86.2418C46.1913 86.7104 45.568 86.9686 44.9053 86.9686C44.2426 86.9686 43.6196 86.7106 43.151 86.242C42.1837 85.2746 42.1837 83.7006 43.151 82.7332L45.9557 79.9285C46.5278 79.3564 46.5278 78.4291 45.9557 77.857L43.151 75.0522C42.6825 74.5836 42.4245 73.9607 42.4245 73.298C42.4245 72.6352 42.6825 72.0123 43.1512 71.5438C43.6198 71.0752 44.2428 70.817 44.9055 70.817C45.5682 70.817 46.1913 71.075 46.66 71.5438L49.4647 74.3484C50.0368 74.9205 50.9643 74.9205 51.5362 74.3484L54.3411 71.5436C54.8096 71.075 55.4327 70.8168 56.0952 70.8168C56.7579 70.8168 57.3809 71.0748 57.8495 71.5436C58.3182 72.0123 58.5762 72.6354 58.5762 73.298C58.5762 73.9607 58.318 74.5832 57.8493 75.052Z" fill="#2B0D61"/>
</g>
<defs>
<clipPath id="clip0">
<rect width="100" height="100" fill="white" transform="translate(0.5 0.0869141)"/>
</clipPath>
</defs>
</svg>
