<svg width="13" height="14" viewBox="0 0 13 14" fill="none" xmlns="http://www.w3.org/2000/svg">
<path d="M8.97277 7.16944L12.5578 3.58444C12.9977 3.14451 12.9977 2.43124 12.5578 1.99095L11.761 1.19421C11.3211 0.754275 10.6078 0.754275 10.1675 1.19421L6.58253 4.7792L2.99753 1.19421C2.5576 0.754275 1.84433 0.754275 1.40404 1.19421L0.607291 1.99095C0.167361 2.43088 0.167361 3.14416 0.607291 3.58444L4.19229 7.16944L0.607291 10.7544C0.167361 11.1944 0.167361 11.9076 0.607291 12.3479L1.40404 13.1447C1.84397 13.5846 2.5576 13.5846 2.99753 13.1447L6.58253 9.55968L10.1675 13.1447C10.6075 13.5846 11.3211 13.5846 11.761 13.1447L12.5578 12.3479C12.9977 11.908 12.9977 11.1947 12.5578 10.7544L8.97277 7.16944Z" fill="#EB5757"/>
</svg>
