<svg width="17" height="17" viewBox="0 0 17 17" fill="none" xmlns="http://www.w3.org/2000/svg">
<path d="M14.7857 16.0869H2.21429C1.2675 16.0869 0.5 15.3194 0.5 14.3726V1.8012C0.5 0.854414 1.2675 0.0869141 2.21429 0.0869141H14.7857C15.7325 0.0869141 16.5 0.854414 16.5 1.8012V14.3726C16.5 15.3194 15.7325 16.0869 14.7857 16.0869ZM7.4755 12.5848L14.0469 6.01338C14.2701 5.79024 14.2701 5.42841 14.0469 5.20527L13.2388 4.39716C13.0157 4.17402 12.6539 4.17399 12.4307 4.39716L7.07143 9.75638L4.56932 7.25427C4.34618 7.03113 3.98436 7.03113 3.76118 7.25427L2.95307 8.06238C2.72993 8.28552 2.72993 8.64734 2.95307 8.87049L6.66736 12.5848C6.89054 12.808 7.25232 12.808 7.4755 12.5848Z" fill="#BDBDBD"/>
</svg>
