<svg width="33" height="32" viewBox="0 0 33 32" fill="none" xmlns="http://www.w3.org/2000/svg">
<path d="M16.1603 0C7.33776 0 0.160156 7.1775 0.160156 15.9999C0.160156 24.8223 7.33776 31.9998 16.1603 31.9998C24.9827 31.9998 32.1602 24.8223 32.1602 15.9999C32.1602 7.1775 24.9827 0 16.1603 0ZM16.1603 29.3768C8.78405 29.3768 2.78309 23.3761 2.78309 15.9999C2.78309 8.62378 8.78405 2.62293 16.1603 2.62293C23.5364 2.62293 29.5372 8.62378 29.5372 15.9999C29.5372 23.3761 23.5364 29.3768 16.1603 29.3768Z" fill="#ED6E00"/>
<path d="M23.082 9.85867L13.5822 19.3586L9.23881 15.0153C8.7266 14.5032 7.89628 14.5032 7.38408 15.0153C6.87197 15.5275 6.87197 16.3578 7.38408 16.87L12.6548 22.1407C12.9109 22.3967 13.2465 22.5248 13.5822 22.5248C13.9178 22.5248 14.2534 22.3967 14.5095 22.1407L24.9367 11.7135C25.4489 11.2013 25.4489 10.371 24.9367 9.85878C24.4245 9.34657 23.5941 9.34657 23.082 9.85867Z" fill="#ED6E00"/>
</svg>
