<svg width="61" height="61" viewBox="0 0 61 61" fill="none" xmlns="http://www.w3.org/2000/svg">
<g clip-path="url(#clip0)">
<path d="M59.4655 28.163H46.2345V25.6079C46.2338 25.2347 46.0322 24.8907 45.7069 24.7079L31.5345 16.7423V12.6872H34.3379V14.2286C34.3379 14.7998 34.8011 15.263 35.3724 15.263H43.8241C44.3954 15.2628 44.8584 14.7995 44.8582 14.2282C44.8582 14.1084 44.8373 13.9896 44.7966 13.8768L43.9483 11.4665L44.8069 9.10787C45.0011 8.57058 44.7231 7.97756 44.1858 7.78334C44.0732 7.74261 43.9543 7.72179 43.8345 7.72166H39.9862V6.22166C39.9862 5.65037 39.523 5.18718 38.9517 5.18718H31.5345V3.92511C31.5345 3.35381 31.0713 2.89062 30.5 2.89062C29.9287 2.89062 29.4655 3.35381 29.4655 3.92511V16.7423L15.2931 24.6975C14.9678 24.8804 14.7662 25.2243 14.7655 25.5975V28.1527H1.53448C0.96319 28.1527 0.5 28.6159 0.5 29.1872V56.2492C0.5 56.8205 0.96319 57.2837 1.53448 57.2837H59.4655C60.0368 57.2837 60.5 56.8205 60.5 56.2492V29.1975C60.5 28.6262 60.0368 28.163 59.4655 28.163ZM39.9862 11.6527L39.9448 11.6113V9.832H42.3034L41.8793 11.1561C41.7946 11.3866 41.7946 11.6395 41.8793 11.8699L42.3655 13.1941H36.4069V12.6872H38.9517C39.523 12.6872 39.9862 12.224 39.9862 11.6527ZM31.5345 7.25614H37.9172V8.79752V10.6182H31.5345V7.25614ZM14.7655 55.2148H2.56897V30.232H14.7655V55.2148ZM29.4655 55.2148H24.0345V43.401H29.4655V55.2148ZM36.9655 55.2148H31.5345V43.401H36.9655V55.2148ZM44.2069 55.2148H39.0345V42.3665C39.0345 41.7952 38.5713 41.332 38 41.332H23C22.4287 41.332 21.9655 41.7952 21.9655 42.3665V55.2148H16.7931V26.2492L30.5 18.532L44.1655 26.2079L44.2069 29.1872V55.2148ZM58.431 55.2148H46.2345V30.232H58.431V55.2148Z" fill="#2B0D61"/>
<path d="M30.5 21.6973C28.1044 21.703 26.1655 23.6465 26.1655 26.0421C26.1712 28.436 28.1164 30.3719 30.5104 30.3662C32.9043 30.3605 34.8402 28.4153 34.8345 26.0214C34.8288 23.6316 32.8898 21.6973 30.5 21.6973ZM30.5 28.2973C29.2488 28.2916 28.2391 27.2726 28.2448 26.0214C28.2505 24.7783 29.2568 23.7719 30.5 23.7662C31.7529 23.7719 32.7655 24.7892 32.7655 26.0421H32.7759C32.7702 27.2933 31.7512 28.303 30.5 28.2973Z" fill="#2B0D61"/>
<path d="M7.13098 32.5078H5.06201V36.6458H7.13098V32.5078Z" fill="#2B0D61"/>
<path d="M12.2311 32.5078H10.1621V36.6458H12.2311V32.5078Z" fill="#2B0D61"/>
<path d="M24.0759 32.5078H19.938V34.5768H24.0759V32.5078Z" fill="#2B0D61"/>
<path d="M32.5691 32.5078H28.4312V34.5768H32.5691V32.5078Z" fill="#2B0D61"/>
<path d="M41.062 32.5078H36.9241V34.5768H41.062V32.5078Z" fill="#2B0D61"/>
<path d="M24.0759 37.3281H19.938V39.3971H24.0759V37.3281Z" fill="#2B0D61"/>
<path d="M32.5691 37.3281H28.4312V39.3971H32.5691V37.3281Z" fill="#2B0D61"/>
<path d="M41.062 37.3281H36.9241V39.3971H41.062V37.3281Z" fill="#2B0D61"/>
<path d="M7.13098 40.6484H5.06201V44.7864H7.13098V40.6484Z" fill="#2B0D61"/>
<path d="M12.2311 40.6484H10.1621V44.7864H12.2311V40.6484Z" fill="#2B0D61"/>
<path d="M7.13098 48.8008H5.06201V52.9387H7.13098V48.8008Z" fill="#2B0D61"/>
<path d="M12.2311 48.8008H10.1621V52.9387H12.2311V48.8008Z" fill="#2B0D61"/>
<path d="M50.838 32.5078H48.769V36.6458H50.838V32.5078Z" fill="#2B0D61"/>
<path d="M55.9379 32.5078H53.8689V36.6458H55.9379V32.5078Z" fill="#2B0D61"/>
<path d="M50.838 40.6484H48.769V44.7864H50.838V40.6484Z" fill="#2B0D61"/>
<path d="M55.9379 40.6484H53.8689V44.7864H55.9379V40.6484Z" fill="#2B0D61"/>
<path d="M50.838 48.8008H48.769V52.9387H50.838V48.8008Z" fill="#2B0D61"/>
<path d="M55.9379 48.8008H53.8689V52.9387H55.9379V48.8008Z" fill="#2B0D61"/>
</g>
<defs>
<clipPath id="clip0">
<rect width="60" height="60" fill="white" transform="translate(0.5 0.0869141)"/>
</clipPath>
</defs>
</svg>
