<svg width="100" height="101" viewBox="0 0 100 101" fill="none" xmlns="http://www.w3.org/2000/svg">
<g clip-path="url(#clip0)">
<path d="M78.8677 65.4188L72.9987 63.6956L60.23 55.3555V53.4446C63.9269 50.6561 66.4655 46.3938 66.9374 41.5081C68.7915 41.2096 70.212 39.5985 70.212 37.6618V32.4069C70.212 32.3866 70.2099 32.3666 70.2089 32.3463V25.6897C70.9476 25.1608 71.4163 24.2993 71.4163 23.3329V17.2411L80.2282 15.7401C81.6765 15.4934 82.7179 14.3432 82.8202 12.8778C82.9222 11.4124 82.0505 10.1288 80.6507 9.68364L50.9442 0.234814C50.3243 0.0375488 49.6696 0.0377441 49.0501 0.234619L19.3433 9.68364C17.9435 10.1288 17.0716 11.4124 17.1737 12.8776C17.2386 13.8086 17.6835 14.6114 18.3702 15.1372V23.1034H18.2976C16.6247 23.1034 15.2638 24.4643 15.2638 26.1372V30.0915L13.3054 41.586C12.9669 43.5741 14.4981 45.3938 16.5196 45.3938H23.1503C25.1673 45.3938 26.7038 43.5784 26.3646 41.5858L24.4062 30.0915V26.1372C24.4062 24.4643 23.0452 23.1034 21.3724 23.1034H21.2999V16.0012L28.5839 17.2418V23.3329C28.5839 24.2952 29.0505 25.1553 29.7856 25.685L29.7884 32.4075V37.6618C29.7884 39.5987 31.2089 41.2096 33.063 41.5081C33.5347 46.3911 36.0706 50.6514 39.764 53.4401V55.36L26.998 63.6985L21.1337 65.4198C14.8585 67.2616 10.4276 73.0227 10.4276 79.7196V84.0852C10.4276 84.8942 11.0833 85.55 11.8925 85.55C12.7017 85.55 13.3573 84.8944 13.3573 84.0852V79.7196C13.3573 74.4415 16.8942 69.717 21.9589 68.2307L27.423 66.6268L49.2523 79.5981C49.6954 79.8614 50.2817 79.8754 50.7487 79.5981L72.5794 66.626L78.0429 68.2299C83.1068 69.7167 86.6437 74.4409 86.6437 79.7186V93.8667C86.6437 95.6813 85.1673 97.1577 83.3527 97.1577H76.8962V90.8436C76.8962 90.0346 76.2405 89.3788 75.4314 89.3788C74.6224 89.3788 73.9665 90.0344 73.9665 90.8436V97.1577H26.0274V90.8436C26.0274 90.0346 25.3718 89.3788 24.5626 89.3788C23.7534 89.3788 23.0978 90.0344 23.0978 90.8436V97.1577H16.6479C14.8333 97.1577 13.3569 95.6813 13.3569 93.8667V90.9327C13.3569 90.1237 12.7013 89.4678 11.8921 89.4678C11.0829 89.4678 10.4272 90.1235 10.4272 90.9327V93.8665C10.4272 97.2965 13.2177 100.087 16.6478 100.087H83.3523C86.7823 100.087 89.5728 97.2965 89.5728 93.8665V79.7184C89.5728 73.1793 85.2931 67.3053 78.8677 65.4188ZM23.1501 42.4641H16.5196C16.3147 42.4641 16.1585 42.2811 16.1933 42.0778L17.9647 31.6801H21.705L23.4765 42.0776C23.511 42.2805 23.356 42.4641 23.1501 42.4641ZM21.4765 26.1372V28.7506H18.1931V26.1372C18.1931 26.0795 18.2397 26.0329 18.2974 26.0329H21.372C21.4298 26.0327 21.4765 26.0795 21.4765 26.1372ZM44.7612 72.9719L45.3442 73.868L30.3894 64.9819L39.8817 58.7817C40.3122 63.8325 41.9771 68.6928 44.7612 72.9719ZM44.7511 66.6487C48.1989 67.1385 51.7993 67.1389 55.2491 66.6487C54.5825 68.2889 53.761 69.8717 52.7835 71.3745L50.0001 75.6526L47.2167 71.3745C46.2392 69.8717 45.4177 68.2889 44.7511 66.6487ZM55.239 72.9719C58.0232 68.6928 59.688 63.8325 60.1183 58.7817L69.6107 64.9817L54.656 73.868L55.239 72.9719ZM63.8075 26.2352H67.2794V30.9418H65.5562C64.5919 30.9418 63.8073 30.1575 63.8073 29.1932V26.2352H63.8075ZM20.2312 12.4754L49.9384 3.02622C49.9765 3.01411 50.0175 3.01392 50.0562 3.02642L79.7632 12.4754C79.8245 12.495 79.9087 12.5215 79.898 12.6741C79.8872 12.8264 79.8003 12.8411 79.7366 12.852L69.9148 14.5249L66.2273 14.0688C65.4249 13.9694 64.6933 14.5401 64.5939 15.3428C64.4946 16.1458 65.0651 16.877 65.8679 16.9762L68.487 17.3002V23.3057L31.5134 23.3043V17.3L46.671 15.4245C48.8788 15.1516 51.1171 15.1516 53.3233 15.4245L59.0603 16.134C59.863 16.2334 60.5944 15.6629 60.6939 14.8602C60.7933 14.0573 60.2228 13.326 59.42 13.2266L53.6831 12.517C51.2384 12.2145 48.7579 12.2145 46.3114 12.517L30.0821 14.5252L20.2573 12.852C20.1937 12.8411 20.1067 12.8264 20.096 12.6741C20.0855 12.5215 20.1696 12.4948 20.2312 12.4754ZM32.7171 30.9418L32.7151 26.2352H36.1927V29.1934C36.1927 30.1575 35.4083 30.942 34.4439 30.942H32.7171V30.9418ZM35.9411 40.7551C35.8657 39.5624 34.8743 38.628 33.6843 38.628C33.1513 38.628 32.7177 38.1944 32.7177 37.6616V33.8715H34.4439C37.0233 33.8715 39.1222 31.7729 39.1222 29.1934V26.2352H60.8778V29.1934C60.8778 31.7729 62.9767 33.8715 65.5562 33.8715H67.2823V37.6616C67.2823 38.1944 66.8487 38.628 66.3157 38.628C65.1257 38.628 64.1343 39.5624 64.0589 40.7553C63.5923 48.1516 57.4169 53.9456 49.9999 53.9456C42.5829 53.9456 36.4077 48.1516 35.9411 40.7551ZM50.0001 56.875C52.6054 56.875 55.0816 56.2793 57.3005 55.2202V56.1485C57.3005 58.653 56.9626 61.1235 56.312 63.5063C52.3312 64.2653 47.8306 64.2959 43.6882 63.5063C43.0376 61.1237 42.6997 58.6532 42.6997 56.1485C42.6997 56.1174 42.6954 56.0872 42.6935 56.0565C42.6931 56.0504 42.6937 56.0444 42.6933 56.0383V55.2172C44.9138 56.2782 47.3923 56.875 50.0001 56.875Z" fill="#2B0D61"/>
</g>
<defs>
<clipPath id="clip0">
<rect width="100" height="100" fill="white" transform="translate(0 0.0869141)"/>
</clipPath>
</defs>
</svg>
