<svg width="100" height="101" viewBox="0 0 100 101" fill="none" xmlns="http://www.w3.org/2000/svg">
<path d="M30.8394 36.3975C30.2111 35.888 29.2888 35.984 28.7791 36.6126C28.1873 37.3423 27.4027 37.744 26.5695 37.744C25.7363 37.744 24.9517 37.3421 24.3599 36.6126C23.8503 35.9842 22.9276 35.8881 22.2995 36.3975C21.6712 36.9071 21.5749 37.8296 22.0845 38.4579C23.2265 39.8661 24.8613 40.6737 26.5695 40.6737C28.2777 40.6737 29.9123 39.8661 31.0545 38.4579C31.564 37.8296 31.4677 36.9071 30.8394 36.3975Z" fill="#2B0D61"/>
<path d="M19.875 27.7021C19.066 27.7021 18.4102 28.358 18.4102 29.167V30.8406C18.4102 31.6496 19.066 32.3055 19.875 32.3055C20.684 32.3055 21.3399 31.6496 21.3399 30.8406V29.167C21.3399 28.358 20.684 27.7021 19.875 27.7021Z" fill="#2B0D61"/>
<path d="M33.2639 27.7021C32.4549 27.7021 31.7991 28.358 31.7991 29.167V30.8406C31.7991 31.6496 32.4547 32.3055 33.2639 32.3055C34.0729 32.3055 34.7288 31.6496 34.7288 30.8406V29.167C34.7288 28.358 34.0729 27.7021 33.2639 27.7021Z" fill="#2B0D61"/>
<path d="M79.3749 44.7657C78.7466 44.2561 77.8241 44.3522 77.3146 44.9807C76.7228 45.7102 75.938 46.1122 75.105 46.1122C74.2718 46.1122 73.4872 45.7102 72.8954 44.9807C72.386 44.3524 71.4634 44.2561 70.835 44.7657C70.2067 45.2753 70.1106 46.1977 70.6202 46.8261C71.762 48.2345 73.3968 49.0419 75.105 49.0419C76.8132 49.0419 78.4478 48.2343 79.5898 46.8261C80.0993 46.1977 80.0033 45.2753 79.3749 44.7657Z" fill="#2B0D61"/>
<path d="M68.4104 36.0693C67.6014 36.0693 66.9456 36.7252 66.9456 37.5342V39.2078C66.9456 40.0168 67.6014 40.6727 68.4104 40.6727C69.2194 40.6727 69.8753 40.0168 69.8753 39.2078V37.5342C69.8753 36.7252 69.2194 36.0693 68.4104 36.0693Z" fill="#2B0D61"/>
<path d="M81.7996 36.0693C80.9906 36.0693 80.3347 36.7252 80.3347 37.5342V39.2078C80.3347 40.0168 80.9904 40.6727 81.7996 40.6727C82.6086 40.6727 83.2644 40.0168 83.2644 39.2078V37.5342C83.2644 36.7252 82.6086 36.0693 81.7996 36.0693Z" fill="#2B0D61"/>
<path d="M95.9236 65.0375L84.4476 60.447C84.3855 60.4222 84.328 60.3906 84.2698 60.3601C92.1963 58.5566 95.9502 55.5405 96.1168 55.404C96.5131 55.0792 96.7109 54.571 96.6385 54.0638C96.6219 53.9477 94.9795 42.3186 94.9795 30.8402C94.9795 19.8811 86.0636 10.9653 75.1045 10.9653C64.1455 10.9653 55.2298 19.8809 55.2298 30.8402C55.2298 33.8429 55.0935 37.5156 54.8716 40.9924L51.6737 42.5914L42.287 37.8982C42.26 37.8848 42.2317 37.875 42.2042 37.8633C42.6506 36.5619 42.9426 35.1896 43.0499 33.7656C45.0134 33.159 46.444 31.3267 46.444 29.1665C46.444 27.7117 45.794 26.4066 44.7704 25.5234V15.7772C44.7704 13.0848 43.41 10.5657 41.1791 9.05198C40.4233 6.24337 37.8998 4.27051 34.9373 4.27051H21.5482C14.2806 4.27051 8.36782 10.1832 8.36782 17.4509V25.5232C7.34418 26.4062 6.69418 27.7115 6.69418 29.1664C6.69418 31.3265 8.12485 33.1588 10.0883 33.7654C10.4583 38.6832 12.9927 43.0041 16.736 45.785V49.8339L4.6219 53.4681C1.85743 54.2976 0 56.7939 0 59.6802V76.0281C0 76.8371 0.655863 77.493 1.46485 77.493H1.67364V94.4382C1.67364 95.2472 2.32951 95.9031 3.13849 95.9031C3.94748 95.9031 4.60335 95.2472 4.60335 94.4382V77.493H10.0419V94.4382C10.0419 95.2472 10.6977 95.9031 11.5067 95.9031C12.3157 95.9031 12.9716 95.2472 12.9716 94.4382V69.1803C12.9716 67.8955 12.5948 66.6513 11.8823 65.5826L9.37838 61.8267C8.92954 61.1535 8.01997 60.9718 7.34711 61.4202C6.67387 61.8689 6.49203 62.7785 6.94086 63.4517L9.44478 67.2078C9.83541 67.7937 10.0421 68.4758 10.0421 69.1803V74.5633H3.13849H2.9297V59.6802C2.9297 58.0976 3.94807 56.729 5.46409 56.2741L10.4928 54.7655C12.244 62.098 18.8946 67.4511 26.5695 67.4511C29.3267 67.4511 32.0045 66.7713 34.4024 65.4775C35.2787 66.673 36.6922 67.4511 38.2848 67.4511H38.4936V67.6599C38.4936 72.5707 41.1952 76.8598 45.1882 79.1272V81.5165C45.1882 81.6063 45.1307 81.686 45.0454 81.7145L39.5811 83.536C36.9285 84.4202 35.1463 86.8929 35.1463 89.689V94.4382C35.1463 95.2472 35.8022 95.9031 36.6112 95.9031C37.4201 95.9031 38.076 95.2472 38.076 94.4382V89.689C38.076 88.156 39.0532 86.8001 40.5075 86.3155L42.1143 85.7798C44.2401 88.9501 47.8153 90.8823 51.6737 90.8823C55.5363 90.8823 59.1082 88.9513 61.2336 85.78L62.84 86.3155C64.2943 86.8003 65.2715 88.156 65.2715 89.689V94.4382C65.2715 95.2472 65.9273 95.9031 66.7363 95.9031C67.5453 95.9031 68.2012 95.2472 68.2012 94.4382V89.689C68.2012 86.8929 66.4189 84.4202 63.7664 83.5362L58.3021 81.7147C58.2168 81.6862 58.1593 81.6067 58.1593 81.5167V79.1274C61.149 77.4297 63.4119 74.5985 64.3611 71.2209C67.1293 74.1174 70.9955 75.8197 75.1043 75.8197C81.5911 75.8197 87.2827 71.6266 89.2433 65.5213L94.8349 67.7578C96.1929 68.301 97.0703 69.5971 97.0703 71.0594V77.9108H96.8615H91.6318V76.0283C91.6318 75.2194 90.9759 74.5635 90.1669 74.5635C89.3579 74.5635 88.7021 75.2194 88.7021 76.0283V94.4384C88.7021 95.2474 89.3579 95.9033 90.1669 95.9033C90.9759 95.9033 91.6318 95.2474 91.6318 94.4384V80.8405H95.3967V94.4384C95.3967 95.2474 96.0525 95.9033 96.8615 95.9033C97.6705 95.9033 98.3264 95.2474 98.3264 94.4384V80.8405H98.5351C98.9236 80.8405 99.2961 80.6862 99.5709 80.4116C99.8457 80.1368 100 79.7643 100 79.3756V71.0594C100.001 68.3918 98.4004 66.0281 95.9236 65.0375ZM58.1597 30.84C58.1597 21.4964 65.7613 13.8948 75.1049 13.8948C84.4485 13.8948 92.05 21.4964 92.05 30.84C92.05 40.6766 93.2345 50.6202 93.6195 53.5899C92.3068 54.4487 88.9458 56.3401 83.2644 57.5831V55.2521C84.0425 54.811 84.7874 54.3077 85.4878 53.7417C88.3702 51.4118 90.4072 48.1487 91.2228 44.5537C91.4947 43.3559 91.6326 42.1205 91.6326 40.882C91.6326 32.6025 85.6448 31.4138 79.8542 30.2642C76.1696 29.5328 72.3596 28.7763 69.3256 26.3492C68.886 25.9974 68.2836 25.9288 67.776 26.1728C67.2684 26.4167 66.9457 26.9298 66.9457 27.4931C66.9457 27.532 66.8818 31.3863 61.3607 32.7666C60.5757 32.9629 60.0986 33.7582 60.2949 34.5431C60.491 35.3281 61.2865 35.8049 62.0713 35.609C66.6924 34.4537 68.5776 31.8613 69.3463 29.9136C72.5229 31.7961 76.0813 32.5023 79.2837 33.1381C85.473 34.3668 88.7029 35.2693 88.7029 40.8822C88.7029 41.903 88.5894 42.9201 88.3658 43.9057C87.6948 46.8616 86.0189 49.5456 83.646 51.4636C81.2046 53.437 78.251 54.48 75.1049 54.48C72.2369 54.48 69.5074 53.6003 67.191 51.938C66.3424 49.6217 64.9793 47.5026 63.1806 45.7565V39.2086C63.1806 38.7008 62.9178 38.2293 62.4859 37.9625C62.0541 37.6957 61.515 37.6713 61.0607 37.8984L57.898 39.4797C58.0714 36.4291 58.1597 33.5287 58.1597 30.84ZM60.2509 41.5783V46.8797L54.9493 44.2291L60.2509 41.5783ZM43.0969 41.5783L48.3983 44.2291L43.0969 46.8797V41.5783ZM35.1463 57.6181V59.0093C34.0975 59.915 33.4727 61.2404 33.4727 62.6388C31.3863 63.8714 29.0162 64.5214 26.5693 64.5214C20.1974 64.5214 14.6847 60.0374 13.3055 53.9218L16.9245 52.836C17.8173 57.3454 21.8019 60.7566 26.5695 60.7566C30.3553 60.7566 33.6459 58.6048 35.2885 55.4612C35.1945 56.1726 35.1463 56.8929 35.1463 57.6181ZM19.6661 50.9212V47.528C21.7681 48.4987 24.1064 49.0411 26.5695 49.0411C29.0324 49.0411 31.3709 48.4985 33.4729 47.5282V50.9233C33.4729 54.7298 30.3762 57.8267 26.5695 57.8267C22.7693 57.8267 19.6769 54.7399 19.6665 50.9421C19.6665 50.935 19.6661 50.928 19.6661 50.9212ZM26.5695 46.1114C19.0714 46.1114 12.9716 40.0115 12.9716 32.5136C12.9716 31.7047 12.3157 31.0488 11.5067 31.0488C10.4688 31.0488 9.62428 30.2043 9.62428 29.1664C9.62428 28.1285 10.4686 27.2839 11.5067 27.2839H14.854C15.4845 27.2839 16.0442 26.8806 16.2437 26.2824L17.5882 22.2487C20.9544 22.1728 31.3898 21.6995 37.2662 18.7612C37.9899 18.3993 38.2832 17.5196 37.9213 16.796C37.5596 16.0723 36.6799 15.779 35.9561 16.1409C29.6511 19.2933 16.6577 19.3335 16.5272 19.3335C15.8968 19.3337 15.337 19.737 15.1378 20.3352L13.7981 24.3544H11.5067C11.4368 24.3544 11.3673 24.3568 11.2979 24.3597V17.4509C11.2979 11.7987 15.8964 7.20021 21.5486 7.20021H34.9377C36.6869 7.20021 38.1565 8.46096 38.4325 10.1977C38.5026 10.6391 38.7703 11.0243 39.1596 11.2438C40.8135 12.1766 41.8411 13.9135 41.8411 15.777V24.3593C41.7717 24.3562 41.7024 24.354 41.6323 24.354H39.9586C39.1496 24.354 38.4938 25.0099 38.4938 25.8189C38.4938 26.6279 39.1496 27.2837 39.9586 27.2837H41.6323C42.6702 27.2837 43.5147 28.1281 43.5147 29.1662C43.5147 30.2043 42.6704 31.0486 41.6323 31.0486C40.8233 31.0486 40.1674 31.7045 40.1674 32.5134C40.1674 40.0113 34.0676 46.1114 26.5695 46.1114ZM36.4024 50.9237V45.785C37.8596 44.7024 39.1332 43.3873 40.1672 41.8928V45.7563C38.5268 47.3489 37.2481 49.2514 36.392 51.3311C36.3977 51.1958 36.4024 51.0602 36.4024 50.9237ZM58.3105 84.8054C56.6978 86.7755 54.2751 87.9524 51.6739 87.9524C49.0759 87.9524 46.6516 86.7747 45.0383 84.8052L45.972 84.494C47.2556 84.0663 48.1181 82.8696 48.1181 81.5167V80.3491C49.2501 80.6668 50.4419 80.8405 51.6741 80.8405C52.9064 80.8405 54.0982 80.6668 55.2302 80.3491V81.5167C55.23 82.8694 56.0923 84.0661 57.3761 84.4938L58.3105 84.8054ZM63.3896 64.5214C62.5806 64.5214 61.9248 65.1773 61.9248 65.9863V67.4427C61.9248 67.4554 61.9246 67.4681 61.9248 67.4808V67.6599C61.9246 73.3121 57.3261 77.9106 51.6739 77.9106C46.0218 77.9106 41.4235 73.3121 41.4235 67.6599V65.9863C41.4235 65.1773 40.7676 64.5214 39.9586 64.5214H38.285C37.2471 64.5214 36.4026 63.6771 36.4026 62.639C36.4026 61.971 36.7561 61.3665 37.3481 61.022C37.4803 60.945 37.5953 60.8476 37.6949 60.7374C41.3161 60.6325 53.0542 59.9511 60.7689 55.5427C61.4713 55.1413 61.7154 54.2466 61.314 53.544C60.9127 52.8415 60.0175 52.5975 59.3154 52.9989C52.5571 56.8607 41.9376 57.6339 38.0762 57.7884V57.6181C38.0762 54.8937 38.9012 52.2552 40.3961 50.0307C40.5131 50.2161 40.6696 50.377 40.8622 50.496C41.0975 50.6413 41.3645 50.7147 41.6323 50.7147C41.8561 50.7147 42.0805 50.6634 42.2874 50.56L51.6741 45.8666L61.0609 50.56C61.2677 50.6634 61.4922 50.7147 61.716 50.7147C61.984 50.7147 62.251 50.6413 62.4861 50.496C62.6785 50.377 62.8349 50.2159 62.9519 50.0307C64.4469 52.2552 65.2719 54.8937 65.2719 57.6181V59.756C65.2719 60.2775 65.549 60.7597 66 61.022C66.5922 61.3667 66.9457 61.971 66.9457 62.639C66.9457 63.6769 66.1012 64.5214 65.0633 64.5214H63.3896ZM75.1049 72.8896C71.0494 72.8896 67.2869 70.825 65.0967 67.4504C67.7346 67.4322 69.8752 65.2812 69.8752 62.6392C69.8752 61.2408 69.2504 59.9152 68.2016 59.0095V57.6183C68.2016 57.0286 68.1697 56.4423 68.1074 55.8614C70.2795 56.8798 72.651 57.4093 75.1049 57.4093C76.8911 57.4093 78.6575 57.1134 80.3347 56.554V58.6991C80.3347 60.6783 81.522 62.4322 83.3595 63.1671L86.5183 64.4306C85.0044 69.4361 80.3813 72.8896 75.1049 72.8896Z" fill="#2B0D61"/>
<path d="M55.9441 69.8702C55.3158 69.3606 54.3934 69.4567 53.8838 70.0852C53.2918 70.8149 52.5072 71.2167 51.6742 71.2167C50.8412 71.2167 50.0564 70.8149 49.4646 70.0852C48.955 69.4569 48.0324 69.3606 47.4043 69.8702C46.7759 70.3798 46.6796 71.3022 47.1892 71.9306C48.3314 73.3386 49.966 74.1464 51.6742 74.1464C53.3824 74.1464 55.017 73.3388 56.1592 71.9307C56.6686 71.3024 56.5723 70.3798 55.9441 69.8702Z" fill="#2B0D61"/>
<path d="M46.6799 65.7842C47.489 65.7842 48.1448 65.1284 48.1448 64.3193C48.1448 63.5103 47.489 62.8545 46.6799 62.8545C45.8709 62.8545 45.2151 63.5103 45.2151 64.3193C45.2151 65.1284 45.8709 65.7842 46.6799 65.7842Z" fill="#2B0D61"/>
<path d="M56.6409 65.7842C57.4499 65.7842 58.1057 65.1284 58.1057 64.3193C58.1057 63.5103 57.4499 62.8545 56.6409 62.8545C55.8319 62.8545 55.176 63.5103 55.176 64.3193C55.176 65.1284 55.8319 65.7842 56.6409 65.7842Z" fill="#2B0D61"/>
</svg>
