<svg width="68" height="101" viewBox="0 0 68 101" fill="none" xmlns="http://www.w3.org/2000/svg">
<path d="M27.7146 65.2509C27.2965 70.5511 22.8677 74.7061 17.4531 74.7061C9.77229 74.7061 3.58333 80.9227 3.58333 88.575V98.4202C3.58333 99.3407 2.83708 100.087 1.91667 100.087C0.99625 100.087 0.25 99.3407 0.25 98.4202V88.575C0.25 79.0677 7.94375 71.3727 17.4523 71.3727C21.2988 71.3727 24.4167 68.274 24.4167 64.4265V63.9875C17.1417 60.509 12.0356 53.1992 11.7244 44.6869C8.73063 43.9671 6.5 41.2875 6.5 38.0994V21.7536C6.5 9.8065 16.2196 0.0869141 28.1667 0.0869141H40.0417C51.9888 0.0869141 61.7083 9.8065 61.7083 21.7536V38.0994C61.7083 39.0198 60.9621 39.7661 60.0417 39.7661C59.1213 39.7661 58.375 39.0198 58.375 38.0994V21.7536C58.375 11.6446 50.1506 3.42025 40.0417 3.42025H28.1667C18.0577 3.42025 9.83333 11.6446 9.83333 21.7536V38.0994C9.83333 39.4219 10.595 40.5713 11.7083 41.1486C11.7083 36.1748 11.6185 36.1538 11.9819 35.6017C12.0933 35.4317 12.2485 35.2682 12.4298 35.1432C13.0765 34.6965 15.4417 34.6919 17.3842 32.6796C20.8677 29.07 18.2615 22.755 23.3948 18.7705C26.6644 16.2315 30.6467 16.0769 34 18.3815C37.26 16.1411 41.2396 16.1584 44.6052 18.7702C51.0531 23.7759 45.3117 32.8398 54.9704 34.8855C55.8711 35.0761 56.4465 35.9605 56.2558 36.8611C56.0898 37.6452 55.3975 38.1827 54.6269 38.183C54.0948 38.183 50.6204 37.484 48.2175 34.9944C43.7744 30.3911 46.3317 24.3302 42.5615 21.4036C41.519 20.5944 40.3435 20.0869 39.0081 20.0869C36.5704 20.0988 35.2413 21.7636 34.7048 22.0138C34.1138 22.2902 33.3904 22.1986 32.8831 21.7398C30.7081 19.7513 27.944 19.4586 25.439 21.4034C23.6192 22.8159 23.3081 24.7852 22.9144 27.2786C22.4523 30.2034 21.779 35.724 15.0419 37.804V43.863C15.0419 54.3167 23.5465 62.8213 34.0002 62.8213C44.454 62.8213 52.9586 54.3167 52.9586 43.863C52.9586 42.9425 53.7048 42.1963 54.6252 42.1963C55.5456 42.1963 56.2919 42.9425 56.2919 43.863C56.2919 56.1546 46.2919 66.1546 34.0002 66.1546C31.8181 66.1546 29.709 65.838 27.7146 65.2509ZM50.5473 71.3727C48.0161 71.3727 45.8179 70.0446 44.5902 68.0288C44.1113 67.2423 43.0858 66.9932 42.2998 67.4723C41.5138 67.9511 41.2646 68.9765 41.7433 69.7625C42.0585 70.28 42.4163 70.7594 42.8052 71.2044C40.8083 73.2013 39.3858 75.359 38.6733 78.3142C35.7248 79.4925 32.3883 79.5436 29.3167 78.3125C29.0738 77.3136 28.7294 76.3394 28.2817 75.4169C27.8798 74.589 26.8829 74.2438 26.0546 74.6452C25.2265 75.0473 24.881 76.0444 25.2831 76.8723C26.0131 78.3765 26.399 80.055 26.399 81.7271V98.4202C26.399 99.3407 27.1452 100.087 28.0656 100.087C28.986 100.087 29.7323 99.3407 29.7323 98.4202V81.9684C32.5029 82.7405 35.4569 82.7488 38.2679 81.9655V98.4202C38.2679 99.3407 39.0142 100.087 39.9346 100.087C40.855 100.087 41.6013 99.3407 41.6013 98.4202V81.7271C41.6013 78.7577 42.7575 75.9663 44.8573 73.8665L45.3902 73.3336C46.9265 74.22 48.6921 74.7061 50.5473 74.7061C58.2127 74.7061 64.4167 80.9086 64.4167 88.575V98.4202C64.4167 99.3407 65.1629 100.087 66.0833 100.087C67.0038 100.087 67.75 99.3407 67.75 98.4202V88.575C67.75 79.0671 60.0558 71.3723 50.5473 71.3727Z" fill="#2B0D61"/>
</svg>
