<svg width="61" height="61" viewBox="0 0 61 61" fill="none" xmlns="http://www.w3.org/2000/svg">
<path d="M35.5 22.8115L57.525 27.1865C59.3 27.5615 60.5 29.0615 60.5 30.8365V56.3365C60.5 58.4115 58.825 60.0865 56.75 60.0865H34.25C34.95 60.0865 35.5 59.5365 35.5 58.8365V57.5865H56.75C57.425 57.5865 58 57.0365 58 56.3365V30.8365C58 30.2615 57.6 29.7365 57.025 29.6115L35.5 25.3615V22.8115Z" fill="#2B0D61"/>
<path d="M49.25 35.0869C49.95 35.0869 50.5 35.6369 50.5 36.3369C50.5 37.0369 49.95 37.5869 49.25 37.5869H44.25C43.55 37.5869 43 37.0369 43 36.3369C43 35.6369 43.55 35.0869 44.25 35.0869H49.25Z" fill="#2B0D61"/>
<path d="M49.25 42.5869C49.95 42.5869 50.5 43.1369 50.5 43.8369C50.5 44.5369 49.95 45.0869 49.25 45.0869H44.25C43.55 45.0869 43 44.5369 43 43.8369C43 43.1369 43.55 42.5869 44.25 42.5869H49.25Z" fill="#2B0D61"/>
<path d="M49.25 50.0869C49.95 50.0869 50.5 50.6369 50.5 51.3369C50.5 52.0369 49.95 52.5869 49.25 52.5869H44.25C43.55 52.5869 43 52.0369 43 51.3369C43 50.6369 43.55 50.0869 44.25 50.0869H49.25Z" fill="#2B0D61"/>
<path d="M35.5 58.8365C35.5 59.5365 34.95 60.0865 34.25 60.0865C33.55 60.0865 33 59.5365 33 58.8365V57.5865V23.8365C33 23.4615 33.175 23.1115 33.45 22.8615C33.75 22.6365 34.125 22.5365 34.5 22.6115L35.5 22.8115V25.3615V57.5865V58.8365Z" fill="#2B0D61"/>
<path d="M33 57.5869V58.8369C33 59.5369 33.55 60.0869 34.25 60.0869H24.25C24.95 60.0869 25.5 59.5369 25.5 58.8369V57.5869H33Z" fill="#2B0D61"/>
<path d="M26.75 12.5869C27.45 12.5869 28 13.1369 28 13.8369C28 14.5369 27.45 15.0869 26.75 15.0869H21.75C21.05 15.0869 20.5 14.5369 20.5 13.8369C20.5 13.1369 21.05 12.5869 21.75 12.5869H26.75Z" fill="#2B0D61"/>
<path d="M28 21.3369C28 22.0369 27.45 22.5869 26.75 22.5869H21.75C21.05 22.5869 20.5 22.0369 20.5 21.3369C20.5 20.6369 21.05 20.0869 21.75 20.0869H26.75C27.45 20.0869 28 20.6369 28 21.3369Z" fill="#2B0D61"/>
<path d="M26.75 27.5869C27.45 27.5869 28 28.1369 28 28.8369C28 29.5369 27.45 30.0869 26.75 30.0869H21.75C21.05 30.0869 20.5 29.5369 20.5 28.8369C20.5 28.1369 21.05 27.5869 21.75 27.5869H26.75Z" fill="#2B0D61"/>
<path d="M26.75 35.0869C27.45 35.0869 28 35.6369 28 36.3369C28 37.0369 27.45 37.5869 26.75 37.5869H21.75C21.05 37.5869 20.5 37.0369 20.5 36.3369C20.5 35.6369 21.05 35.0869 21.75 35.0869H26.75Z" fill="#2B0D61"/>
<path d="M15.5 36.3369C15.5 37.0369 14.95 37.5869 14.25 37.5869H9.25C8.55 37.5869 8 37.0369 8 36.3369C8 35.6369 8.55 35.0869 9.25 35.0869H14.25C14.95 35.0869 15.5 35.6369 15.5 36.3369Z" fill="#2B0D61"/>
<path d="M14.25 12.5869C14.95 12.5869 15.5 13.1369 15.5 13.8369C15.5 14.5369 14.95 15.0869 14.25 15.0869H9.25C8.55 15.0869 8 14.5369 8 13.8369C8 13.1369 8.55 12.5869 9.25 12.5869H14.25Z" fill="#2B0D61"/>
<path d="M14.25 20.0869C14.95 20.0869 15.5 20.6369 15.5 21.3369C15.5 22.0369 14.95 22.5869 14.25 22.5869H9.25C8.55 22.5869 8 22.0369 8 21.3369C8 20.6369 8.55 20.0869 9.25 20.0869H14.25Z" fill="#2B0D61"/>
<path d="M14.25 27.5869C14.95 27.5869 15.5 28.1369 15.5 28.8369C15.5 29.5369 14.95 30.0869 14.25 30.0869H9.25C8.55 30.0869 8 29.5369 8 28.8369C8 28.1369 8.55 27.5869 9.25 27.5869H14.25Z" fill="#2B0D61"/>
<path d="M23 46.3369C23 45.6369 22.425 45.0869 21.75 45.0869H14.25C13.55 45.0869 13 45.6369 13 46.3369V57.5869H10.5V46.3369C10.5 44.2619 12.175 42.5869 14.25 42.5869H21.75C23.825 42.5869 25.5 44.2619 25.5 46.3369V57.5869H23V46.3369Z" fill="#2B0D61"/>
<path d="M13 57.5869H23H25.5V58.8369C25.5 59.5369 24.95 60.0869 24.25 60.0869H11.75C11.05 60.0869 10.5 59.5369 10.5 58.8369V57.5869H13Z" fill="#2B0D61"/>
<path d="M4.875 0.586758L32.35 4.76176C34.175 5.06176 35.5 6.61176 35.5 8.46176V22.8118L34.5 22.6118C34.125 22.5368 33.75 22.6368 33.45 22.8618C33.175 23.1118 33 23.4618 33 23.8368V8.46176C33 7.83676 32.55 7.31176 31.95 7.21176L4.475 3.06176C4.4 3.03676 4.325 3.03676 4.25 3.03676C3.95 3.03676 3.675 3.13676 3.45 3.33676C3.15 3.58676 3 3.91176 3 4.28676V56.3368C3 57.0368 3.575 57.5868 4.25 57.5868H10.5V58.8368C10.5 59.5368 11.05 60.0868 11.75 60.0868H4.25C2.175 60.0868 0.5 58.4118 0.5 56.3368V4.28676C0.5 3.18676 0.975 2.13676 1.825 1.43676C2.675 0.711758 3.775 0.411758 4.875 0.586758Z" fill="#2B0D61"/>
</svg>
