<svg width="17" height="17" viewBox="0 0 17 17" fill="none" xmlns="http://www.w3.org/2000/svg">
<path d="M0.5 8.08691C0.5 3.66891 4.082 0.0869141 8.5 0.0869141C12.918 0.0869141 16.5 3.66891 16.5 8.08691C16.5 12.5049 12.918 16.0869 8.5 16.0869C4.082 16.0869 0.5 12.5049 0.5 8.08691ZM8.5 4.08691C8.32319 4.08691 8.15362 4.15715 8.0286 4.28218C7.90357 4.4072 7.83333 4.57677 7.83333 4.75358V7.42025H5.16667C4.98986 7.42025 4.82029 7.49049 4.69526 7.61551C4.57024 7.74053 4.5 7.9101 4.5 8.08691C4.5 8.26373 4.57024 8.4333 4.69526 8.55832C4.82029 8.68334 4.98986 8.75358 5.16667 8.75358H7.83333V11.4202C7.83333 11.5971 7.90357 11.7666 8.0286 11.8917C8.15362 12.0167 8.32319 12.0869 8.5 12.0869C8.67681 12.0869 8.84638 12.0167 8.97141 11.8917C9.09643 11.7666 9.16667 11.5971 9.16667 11.4202V8.75358H11.8333C12.0101 8.75358 12.1797 8.68334 12.3047 8.55832C12.4298 8.4333 12.5 8.26373 12.5 8.08691C12.5 7.9101 12.4298 7.74053 12.3047 7.61551C12.1797 7.49049 12.0101 7.42025 11.8333 7.42025H9.16667V4.75358C9.16667 4.57677 9.09643 4.4072 8.97141 4.28218C8.84638 4.15715 8.67681 4.08691 8.5 4.08691Z" fill="#2B0D61"/>
</svg>
