<svg width="100" height="101" viewBox="0 0 100 101" fill="none" xmlns="http://www.w3.org/2000/svg">
<g clip-path="url(#clip0)">
<path d="M98.9328 25.9037C97.575 22.235 93.5187 20.0381 89.6703 21.0146L84.2922 17.735C82.2609 16.5053 79.8062 16.2646 77.5593 17.0725L57.8843 24.2318L41.7281 1.40215C41.3218 0.82871 40.5765 0.59746 39.9187 0.836523L31.1218 4.03965C30.3093 4.33496 29.8922 5.23027 30.1875 6.04121L39.2625 31.0053L19.7 38.124L9.19215 26.3709C8.76871 25.8959 8.09528 25.724 7.49372 25.9443L1.62028 28.0818C0.807777 28.3756 0.39059 29.274 0.685903 30.0834L9.23434 53.574C9.45934 54.1928 10.0468 54.6021 10.7015 54.6021H10.7218L43.8312 54.1959C44.0062 54.1943 44.1828 54.1615 44.3468 54.1006L47.2797 53.0303L55.8312 76.524C56.0609 77.1584 56.6609 77.5537 57.2984 77.5537C57.475 77.5537 57.6562 77.5225 57.8328 77.4584L66.6437 74.2506C67.3062 74.01 67.725 73.3553 67.6656 72.6537L65.4859 46.4084L94.2672 35.9271C97.3406 34.8084 99.4047 31.8521 99.4047 28.5693C99.4062 27.6818 99.25 26.7896 98.9328 25.9037ZM33.6578 6.44277L39.8672 4.18183L54.8422 25.3381L42.1984 29.9381L33.6578 6.44277ZM8.42965 42.2256L4.15621 30.485L7.56872 29.2443L16.539 39.2756L8.42965 42.2256ZM58.2343 73.9881L47.5453 44.6225L61.7734 39.4443L64.4547 71.7256L58.2343 73.9881ZM93.2 32.9943L65.2187 43.1834L64.7171 37.1475C64.6781 36.6615 64.414 36.2225 64.0031 35.96C63.5922 35.6975 63.0812 35.6443 62.6265 35.8068L45.0078 42.2193C44.6187 42.3615 44.3015 42.6521 44.1265 43.0271C43.9515 43.4037 43.9328 43.8334 44.075 44.2225L46.2125 50.0943L43.5281 51.074L11.7922 51.4646L9.50153 45.1631L78.6234 20.0115C79.975 19.524 81.4531 19.6693 82.6703 20.4053L84.1672 21.3178L79.5797 22.9881L80.6484 25.9256L87.5828 23.4021L88.6406 24.0475C89.0422 24.2943 89.5375 24.3428 89.9765 24.1865C92.464 23.3006 95.1375 24.6459 95.9968 26.9725C96.1859 27.5037 96.2828 28.0412 96.2828 28.5725C96.2812 30.5459 95.0422 32.3225 93.2 32.9943Z" fill="#2B0D61"/>
<path d="M69.3213 26.7217L72.2565 25.6538L73.3249 28.5904L70.3897 29.6583L69.3213 26.7217Z" fill="#2B0D61"/>
<path d="M63.4468 28.8604L66.382 27.7924L67.4504 30.7291L64.5152 31.797L63.4468 28.8604Z" fill="#2B0D61"/>
<path d="M57.5745 31.001L60.5097 29.9331L61.5781 32.8697L58.6429 33.9376L57.5745 31.001Z" fill="#2B0D61"/>
<path d="M51.7002 33.1387L54.6354 32.0708L55.7038 35.0074L52.7686 36.0753L51.7002 33.1387Z" fill="#2B0D61"/>
<path d="M45.8257 35.2793L48.7609 34.2114L49.8293 37.1481L46.8941 38.216L45.8257 35.2793Z" fill="#2B0D61"/>
<path d="M39.9514 37.4189L42.8866 36.351L43.9551 39.2877L41.0199 40.3556L39.9514 37.4189Z" fill="#2B0D61"/>
<path d="M34.0769 39.5566L37.0121 38.4887L38.0806 41.4254L35.1454 42.4933L34.0769 39.5566Z" fill="#2B0D61"/>
<path d="M28.1899 41.7148L31.1266 40.6464L32.1951 43.5831L29.2584 44.6515L28.1899 41.7148Z" fill="#2B0D61"/>
<path d="M22.314 43.8535L25.2506 42.7851L26.3191 45.7217L23.3824 46.7902L22.314 43.8535Z" fill="#2B0D61"/>
<path d="M29.6875 68.8369H39.35C39.9969 70.651 41.7156 71.9619 43.75 71.9619C46.3344 71.9619 48.4375 69.8588 48.4375 67.2744C48.4375 64.69 46.3344 62.5869 43.75 62.5869C41.7156 62.5869 39.9969 63.8979 39.35 65.7119H29.6875C24.5172 65.7119 20.3125 69.9166 20.3125 75.0869C20.3125 80.2572 24.5172 84.4619 29.6875 84.4619H56.25V81.3369H29.6875C26.2406 81.3369 23.4375 78.5338 23.4375 75.0869C23.4375 71.64 26.2406 68.8369 29.6875 68.8369ZM43.75 65.7119C44.6125 65.7119 45.3125 66.4135 45.3125 67.2744C45.3125 68.1354 44.6125 68.8369 43.75 68.8369C42.8875 68.8369 42.1875 68.1354 42.1875 67.2744C42.1875 66.4135 42.8875 65.7119 43.75 65.7119Z" fill="#2B0D61"/>
<path d="M59.375 81.3369H62.5V84.4619H59.375V81.3369Z" fill="#2B0D61"/>
<path d="M78.9062 81.3369H65.625V84.4619H78.9062C81.0609 84.4619 82.8125 86.215 82.8125 88.3682C82.8125 90.5213 81.0609 92.2744 78.9062 92.2744H29.6875V95.3994H78.9062C82.7828 95.3994 85.9375 92.2447 85.9375 88.3682C85.9375 84.4916 82.7828 81.3369 78.9062 81.3369Z" fill="#2B0D61"/>
<path d="M7.8125 89.1494C5.22812 89.1494 3.125 91.2525 3.125 93.8369C3.125 96.4213 5.22812 98.5244 7.8125 98.5244C9.84688 98.5244 11.5656 97.2135 12.2125 95.3994H26.5625V92.2744H12.2125C11.5656 90.4604 9.84688 89.1494 7.8125 89.1494ZM7.8125 95.3994C6.95 95.3994 6.25 94.6979 6.25 93.8369C6.25 92.976 6.95 92.2744 7.8125 92.2744C8.675 92.2744 9.375 92.976 9.375 93.8369C9.375 94.6979 8.675 95.3994 7.8125 95.3994Z" fill="#2B0D61"/>
</g>
<defs>
<clipPath id="clip0">
<rect width="100" height="100" fill="white" transform="translate(0 0.0869141)"/>
</clipPath>
</defs>
</svg>
