<svg width="77" height="45" viewBox="0 0 77 45" fill="none" xmlns="http://www.w3.org/2000/svg">
<path d="M12.4299 19.5302H11.1699L9.62991 24.2602H6.16992L10.6899 10.4102H15.3899C18.3899 10.4102 20.3899 11.5102 19.8699 14.3302C19.2399 17.8002 16.4699 19.5302 12.4699 19.5302H12.4299ZM14.4699 13.0502H13.2299L11.9899 16.8902H13.0899C14.9199 16.8902 15.9699 16.0302 16.2199 14.6502C16.4299 13.5002 15.7699 13.0502 14.4699 13.0502Z" fill="#2B0D61"/>
<path d="M31.01 13.1102L25.64 13.1302L24.78 15.7902H29.67L28.8 18.4202H23.91L22.9001 21.5402L28.26 21.5602L27.38 24.2602H18.5601L23.0901 10.4102H31.88L31.01 13.1102Z" fill="#2B0D61"/>
<path d="M39.6101 17.0702L41.7201 24.2602H37.8501L36.7201 19.6702H36.7001L32.5701 24.2602H28.6001L35.4001 17.0702L33.4901 10.4102H37.2901L38.3001 14.5002H38.3201L41.9701 10.4102H45.8501L39.6101 17.0702Z" fill="#2B0D61"/>
<path d="M56.9002 33.0002C56.9002 33.0002 61.1702 21.0002 47.1002 16.6602L45.9102 20.0602C45.9102 20.0602 56.0602 22.7102 52.5402 31.5002L56.9002 33.0002Z" fill="#2B0D61"/>
<path d="M65.6901 35.3496C65.6901 35.3496 72.5901 17.8996 49.6901 8.34961L48.6001 12.0796C48.6001 12.0796 66.3901 16.7496 61.6001 34.2396L65.6901 35.3496Z" fill="#2B0D61"/>
<path d="M74.6501 38.08C74.6501 38.08 84.6 12.36 52.54 0L51.28 3.58C51.28 3.58 77.38 10.18 70.92 37L74.6501 38.08Z" fill="#2B0D61"/>
<path d="M45.9199 20.0602C45.9199 20.0602 58.5799 22.2402 61.5999 34.2102L65.6799 35.3502C65.6799 35.3502 65.0499 20.7902 47.0999 16.6602L45.9199 20.0602Z" fill="#2B0D61"/>
<path d="M52.5499 31.5001C52.5499 31.5001 51.8799 28.6401 44.6499 28.6401H4.6499L4.93988 27.7101H48.1699C48.1699 27.7101 56.8899 27.4001 56.8899 32.9701L52.5499 31.5001Z" fill="#2B0D61"/>
<path d="M70.9201 37.0004C70.9201 37.0004 69.1701 19.1504 48.5801 12.0704L49.6901 8.36035C49.6901 8.36035 72.7401 14.9604 74.6901 38.0804L70.9201 37.0004Z" fill="#2B0D61"/>
<path d="M18.0101 37.5996C17.6301 37.5996 17.4101 37.9596 17.3501 38.3596L17.3001 38.7096C17.2948 38.7729 17.2948 38.8364 17.3001 38.8996C17.3001 39.1896 17.4301 39.3896 17.7001 39.3896C17.9701 39.3896 18.3701 38.9196 18.4401 38.4596L18.5201 37.8296C18.4567 37.7568 18.3782 37.6985 18.2902 37.6588C18.2022 37.6192 18.1066 37.5989 18.0101 37.5996V37.5996Z" fill="#2B0D61"/>
<path d="M13.3 37.5098C12.95 37.5098 12.6401 37.7998 12.5601 38.3298C13.2101 38.3298 13.6801 38.1498 13.6801 37.8498C13.6801 37.5498 13.55 37.5098 13.3 37.5098Z" fill="#2B0D61"/>
<path d="M10.4201 37.6201C10.0701 37.6201 9.74008 38.0901 9.68008 38.6201L9.59009 39.1701C9.65012 39.249 9.72714 39.3133 9.81543 39.3583C9.90372 39.4033 10.001 39.4279 10.1001 39.4301C10.5001 39.4301 10.7101 39.0801 10.7701 38.6701V38.3001C10.7794 38.2438 10.7794 38.1864 10.7701 38.1301C10.8401 37.7801 10.6801 37.6201 10.4201 37.6201Z" fill="#2B0D61"/>
<path d="M30.8101 37.5996C30.4301 37.5996 30.2101 37.9596 30.1501 38.3596L30.1001 38.7096C30.0949 38.7729 30.0949 38.8364 30.1001 38.8996C30.1001 39.1896 30.2301 39.3896 30.4901 39.3896C30.7501 39.3896 31.1601 38.9196 31.2301 38.4596L31.3201 37.8296C31.2567 37.7568 31.1783 37.6985 31.0903 37.6588C31.0023 37.6192 30.9067 37.5989 30.8101 37.5996V37.5996Z" fill="#2B0D61"/>
<path d="M44.17 31.1797H42.83L43.67 32.9097H3.45999L0 43.2897H42.7L41.53 44.9997H42.86L51.91 38.0797L44.17 31.1797ZM6.99998 39.9197H4.84999L5.37999 36.1497H6.12999L5.68001 39.2997H7.09001L6.99998 39.9197ZM8.15001 39.9197H7.40999L7.81001 37.0897H8.53999L8.15001 39.9197ZM8.27 36.7797C8.17863 36.7817 8.08872 36.7564 8.01176 36.7071C7.93481 36.6578 7.87429 36.5866 7.83794 36.5028C7.80158 36.4189 7.79106 36.3261 7.80766 36.2362C7.82427 36.1464 7.86725 36.0635 7.93117 35.9981C7.99508 35.9328 8.07703 35.888 8.16652 35.8694C8.25601 35.8508 8.349 35.8593 8.43364 35.8938C8.51828 35.9283 8.59074 35.9873 8.64174 36.0631C8.69274 36.139 8.71996 36.2283 8.71999 36.3197C8.72023 36.3836 8.70714 36.4469 8.68156 36.5055C8.65599 36.5641 8.6185 36.6167 8.57146 36.66C8.52441 36.7032 8.46885 36.7362 8.40834 36.7569C8.34783 36.7775 8.28367 36.7852 8.21999 36.7797H8.27ZM10.27 39.9897C10.123 39.9972 9.97638 39.9693 9.84239 39.9084C9.70841 39.8475 9.59098 39.7554 9.49998 39.6397V39.6397V39.9197H8.84999L9.40999 35.9197H10.15L9.93001 37.4797C10.0266 37.3365 10.1558 37.2182 10.3071 37.1348C10.4584 37.0513 10.6273 37.005 10.8 36.9997C11.4 36.9997 11.68 37.4097 11.68 38.0597C11.58 38.9997 11.17 39.9997 10.22 39.9997L10.27 39.9897ZM12.57 38.8197V38.8997C12.5678 38.9725 12.5816 39.0449 12.6103 39.1119C12.639 39.1788 12.6821 39.2387 12.7364 39.2873C12.7907 39.3358 12.8549 39.372 12.9246 39.3931C12.9944 39.4143 13.0679 39.4199 13.14 39.4097C13.4807 39.395 13.8087 39.2763 14.08 39.0697L14.03 39.6997C13.732 39.8917 13.3844 39.9925 13.03 39.9897C12.8771 40.0155 12.7203 40.0054 12.572 39.9602C12.4237 39.915 12.2879 39.836 12.1754 39.7293C12.0629 39.6226 11.9767 39.4912 11.9237 39.3455C11.8707 39.1998 11.8523 39.0437 11.87 38.8897C11.87 37.6197 12.57 37.0097 13.41 37.0097C14.1 37.0097 14.41 37.3597 14.41 37.8497C14.37 38.5497 13.41 38.8197 12.52 38.8197H12.57ZM16.34 37.6797C15.97 37.6797 15.58 38.0197 15.49 38.6197L15.31 39.9197H14.58L14.98 37.0897H15.61L15.55 37.5997C15.637 37.4305 15.7668 37.287 15.9264 37.1835C16.0861 37.08 16.27 37.0201 16.46 37.0097H16.62L16.49 37.6797C16.4244 37.6632 16.3556 37.6632 16.29 37.6797H16.34ZM19.12 39.0997C19.12 39.2297 19.03 39.9197 19.03 39.9197H18.38V39.4197C18.285 39.5848 18.1501 39.7236 17.9876 39.8231C17.8251 39.9227 17.6403 39.98 17.45 39.9897C16.87 39.9897 16.56 39.6097 16.56 38.8997C16.56 37.8997 17 37.0097 17.9 37.0097C18.0361 36.9998 18.1725 37.0228 18.2979 37.0767C18.4232 37.1307 18.5337 37.214 18.62 37.3197V37.0897H19.33L19.12 39.0997ZM22.76 37.6797H22.07L21.87 39.0997C21.8664 39.1229 21.8664 39.1465 21.87 39.1697C21.87 39.3597 21.98 39.4097 22.16 39.4097C22.3019 39.3965 22.4405 39.3593 22.57 39.2997V39.8597C22.3533 39.9445 22.1227 39.9886 21.89 39.9897C21.42 39.9897 21.17 39.7797 21.17 39.3197C21.1655 39.2498 21.1655 39.1796 21.17 39.1097L21.38 37.6797H20.77L20.86 37.0897H21.46L21.56 36.3897L22.3 36.2997L22.2 37.0897H22.89L22.76 37.6797ZM25.48 39.0997C25.48 39.2797 25.38 39.9197 25.38 39.9197H24.76V39.3697C24.6651 39.5547 24.5222 39.7108 24.3462 39.8216C24.1703 39.9324 23.9678 39.9939 23.76 39.9997C23.652 40.008 23.5434 39.9921 23.4423 39.9532C23.3411 39.9144 23.2499 39.8535 23.1752 39.775C23.1006 39.6964 23.0443 39.6023 23.0105 39.4993C22.9767 39.3964 22.9663 39.2872 22.98 39.1797C22.975 39.1098 22.975 39.0396 22.98 38.9697L23.24 37.0897H23.98L23.73 38.8797C23.7251 38.9162 23.7251 38.9532 23.73 38.9897C23.73 39.1997 23.82 39.3697 24.07 39.3697C24.32 39.3697 24.75 38.8597 24.82 38.3697L25 37.0597H25.73L25.48 39.0997ZM29.18 37.7297C29.0101 37.6421 28.8212 37.5974 28.63 37.5997C28.27 37.5997 27.99 37.8897 27.91 38.4097V38.7097C27.9067 38.7696 27.9067 38.8297 27.91 38.8897C27.9008 38.9562 27.9067 39.024 27.9271 39.0879C27.9476 39.1519 27.9821 39.2105 28.0281 39.2594C28.0742 39.3083 28.1305 39.3463 28.1932 39.3706C28.2558 39.3948 28.323 39.4048 28.39 39.3997C28.6409 39.3777 28.8819 39.2916 29.09 39.1497L29.03 39.7597C28.7779 39.9239 28.4805 40.0043 28.18 39.9897C28.0404 40.0017 27.8999 39.982 27.7689 39.932C27.638 39.8821 27.5201 39.8032 27.4239 39.7013C27.3277 39.5994 27.2559 39.477 27.2136 39.3434C27.1714 39.2098 27.1599 39.0684 27.18 38.9297C27.18 37.7597 27.7 37.0097 28.65 37.0097C28.8909 37.0027 29.1303 37.0506 29.35 37.1497L29.18 37.7297ZM31.91 39.0997C31.91 39.2297 31.82 39.9197 31.82 39.9197H31.17V39.4197C31.0759 39.5835 30.9425 39.7213 30.7819 39.8208C30.6213 39.9203 30.4386 39.9783 30.25 39.9897C29.67 39.9897 29.36 39.6097 29.36 38.8997C29.36 37.8997 29.8 37.0097 30.7 37.0097C30.8361 36.9998 30.9725 37.0228 31.0979 37.0767C31.2232 37.1307 31.3337 37.214 31.42 37.3197V37.0897H32.17L31.91 39.0997ZM36.73 37.9997L36.47 39.8797H35.73L35.99 38.0797C35.99 38.0797 35.99 37.9797 35.99 37.9297C35.99 37.8797 35.93 37.5897 35.7 37.5897C35.47 37.5897 35.03 38.0597 34.96 38.5297L34.78 39.8797H34.05L34.3 38.0797C34.3 38.0797 34.3 37.9797 34.3 37.9297C34.3 37.8797 34.24 37.5897 34.01 37.5897C33.78 37.5897 33.35 38.0497 33.28 38.5397L33.09 39.8797H32.36L32.76 37.0497H33.43L33.36 37.5497C33.4629 37.3753 33.609 37.2304 33.7841 37.1288C33.9592 37.0273 34.1576 36.9725 34.36 36.9697C34.4469 36.9641 34.534 36.9767 34.6158 37.0065C34.6976 37.0363 34.7723 37.0827 34.8353 37.1428C34.8982 37.203 34.948 37.2755 34.9816 37.3559C35.0151 37.4362 35.0315 37.5226 35.03 37.6097C35.1319 37.4296 35.2763 37.2772 35.4506 37.1656C35.6249 37.0541 35.8238 36.9868 36.03 36.9697C36.52 36.9697 36.75 37.2797 36.75 37.7597C36.7483 37.84 36.7417 37.9202 36.73 37.9997V37.9997ZM37.83 39.8797H37.1L37.49 37.0497H38.23L37.83 39.8797ZM37.95 36.7397C37.828 36.7397 37.711 36.6912 37.6247 36.605C37.5385 36.5187 37.49 36.4017 37.49 36.2797C37.49 36.1577 37.5385 36.0407 37.6247 35.9544C37.711 35.8682 37.828 35.8197 37.95 35.8197C38.072 35.8197 38.189 35.8682 38.2753 35.9544C38.3615 36.0407 38.41 36.1577 38.41 36.2797C38.41 36.4017 38.3615 36.5187 38.2753 36.605C38.189 36.6912 38.072 36.7397 37.95 36.7397V36.7397ZM41.25 37.9997L40.99 39.8797H40.25L40.51 38.0797V37.9997C40.51 37.8197 40.45 37.6097 40.17 37.6097C39.89 37.6097 39.45 38.1397 39.38 38.6097L39.17 39.9197H38.43L38.83 37.0897H39.5L39.43 37.5997C39.5365 37.4278 39.6832 37.2843 39.8573 37.1815C40.0315 37.0788 40.228 37.0198 40.43 37.0097C40.538 37.0014 40.6466 37.0173 40.7477 37.0561C40.8489 37.095 40.9401 37.1559 41.0148 37.2344C41.0894 37.3129 41.1457 37.4071 41.1795 37.51C41.2133 37.613 41.2237 37.7222 41.21 37.8297C41.2265 37.8856 41.2399 37.9423 41.25 37.9997V37.9997ZM42.76 39.9997C42.04 39.9997 41.61 39.6597 41.61 38.9297C41.61 37.7197 42.17 37.0197 43.09 37.0197C43.82 37.0197 44.24 37.3697 44.24 38.0997C44.24 39.2897 43.7 39.9997 42.76 39.9997V39.9997Z" fill="#2B0D61"/>
<path d="M43.06 37.5596C42.69 37.5596 42.48 37.9196 42.41 38.3696L42.35 38.7396C42.3453 38.8028 42.3453 38.8663 42.35 38.9296C42.35 39.2496 42.5 39.4396 42.8 39.4396C43.1 39.4396 43.39 39.0796 43.46 38.6296L43.51 38.2596C43.5193 38.1966 43.5193 38.1326 43.51 38.0696C43.52 37.7496 43.37 37.5596 43.06 37.5596Z" fill="#2B0D61"/>
</svg>
