<svg width="130" height="130" viewBox="0 0 130 130" fill="none" xmlns="http://www.w3.org/2000/svg">
<path d="M61.2087 22.34C64.1471 22.2367 67.0892 22.3604 70.0086 22.71C72.8338 23.037 75.5885 23.8135 78.1686 25.01C80.9774 26.0858 83.6931 27.3902 86.2886 28.91C92.859 32.7438 98.6306 37.8058 103.289 43.8201C104.834 45.8155 106.247 47.91 107.519 50.09C116.829 66.15 123.189 88.55 109.759 104.01C98.1086 117.27 78.7586 114.29 62.8686 111.71C60.502 111.25 58.1686 110.677 55.8686 109.99C53.5849 109.299 51.3414 108.481 49.1487 107.54C46.2187 106.284 43.3902 104.803 40.6886 103.11C22.2286 92.11 2.86863 70.1101 16.6886 48.5701C25.4686 36.5701 40.1486 33.06 51.6886 25.3C54.7844 24.0023 57.9952 22.9979 61.2787 22.3" fill="#E8E4ED"/>
<path d="M68.2984 39.1C66.1108 39.1 63.9724 38.4506 62.1542 37.2342C60.336 36.0178 58.9197 34.2891 58.0849 32.2671C57.25 30.245 57.0341 28.0207 57.4646 25.8758C57.895 23.731 58.9524 21.7621 60.5028 20.2188C62.0531 18.6754 64.0267 17.627 66.1735 17.2063C68.3202 16.7856 70.5436 17.0115 72.5618 17.8556C74.5801 18.6996 76.3024 20.1237 77.5105 21.9474C78.7187 23.7711 79.3583 25.9124 79.3484 28.1C79.3352 31.022 78.1652 33.8198 76.0943 35.8813C74.0235 37.9427 71.2204 39.1 68.2984 39.1V39.1ZM68.2984 19.55C66.6149 19.548 64.9686 20.0454 63.5678 20.9793C62.167 21.9132 61.0747 23.2416 60.4291 24.7964C59.7835 26.3512 59.6135 28.0626 59.9407 29.7141C60.268 31.3655 61.0777 32.8828 62.2674 34.0739C63.4572 35.2651 64.9735 36.0766 66.6245 36.4057C68.2756 36.7349 69.9872 36.567 71.5427 35.9232C73.0983 35.2794 74.428 34.1886 75.3635 32.789C76.2991 31.3893 76.7984 29.7436 76.7984 28.06C76.7958 25.8056 75.8997 23.6441 74.3065 22.049C72.7133 20.4539 70.5529 19.5553 68.2984 19.55" fill="#FF5100"/>
<path d="M94.1086 113.04C92.7881 113.042 91.4987 112.639 90.4137 111.886C89.3286 111.134 88.4998 110.067 88.0385 108.83L83.3686 95.48C83.2596 95.2244 83.0917 94.9982 82.8786 94.82L69.1986 84.59L61.3186 98.39C60.3481 100.121 58.8279 101.48 56.9986 102.25L42.2185 107.66C41.4352 107.945 40.6031 108.071 39.7705 108.032C38.9379 107.992 38.1214 107.788 37.3686 107.43C36.2159 106.912 35.2444 106.061 34.579 104.986C33.9135 103.912 33.5843 102.663 33.6338 101.4C33.6832 100.137 34.109 98.9176 34.8564 97.8984C35.6039 96.8792 36.6389 96.1067 37.8286 95.68L50.4085 91.04C50.6339 90.9398 50.8227 90.7721 50.9486 90.56L57.2486 77.85V50.97L51.4986 53.85C51.4433 53.883 51.3976 53.93 51.3661 53.9861C51.3345 54.0422 51.3181 54.1056 51.3186 54.17L52.4785 62.96C52.6547 64.3278 52.2824 65.7097 51.443 66.804C50.6036 67.8982 49.3653 68.6158 47.9986 68.8C47.3258 68.8953 46.6407 68.8559 45.9832 68.6843C45.3258 68.5126 44.7089 68.212 44.1686 67.8C43.0712 66.9516 42.3526 65.7048 42.1686 64.33L40.4986 51.25C40.4108 50.298 40.5977 49.3408 41.0373 48.4919C41.4768 47.6429 42.1505 46.9377 42.9785 46.46L56.9785 39.06C57.3967 38.8559 57.8535 38.7434 58.3186 38.73H78.1686C78.6637 38.7492 79.1385 38.9321 79.5186 39.25L87.4586 46.42C87.5487 46.4546 87.6484 46.4546 87.7386 46.42L94.8586 41.19C95.6889 40.5783 96.6825 40.2274 97.7128 40.1818C98.7431 40.1363 99.7638 40.3981 100.645 40.9341C101.526 41.4701 102.228 42.2559 102.661 43.1918C103.095 44.1277 103.24 45.1713 103.079 46.19C102.979 46.8667 102.745 47.5168 102.392 48.1022C102.038 48.6877 101.571 49.1969 101.019 49.6L89.7586 57.87C88.9774 58.3898 88.052 58.6493 87.1145 58.6116C86.177 58.5739 85.2754 58.2408 84.5385 57.66L79.2686 53.12V76.24L91.4685 85.32C93.0138 86.5964 94.2195 88.235 94.9785 90.09L99.9785 104.52C100.325 105.476 100.436 106.501 100.303 107.509C100.17 108.517 99.7971 109.478 99.2147 110.312C98.6323 111.145 97.858 111.826 96.9571 112.297C96.0563 112.769 95.0553 113.017 94.0385 113.02L94.1086 113.04ZM68.9685 81.81C69.4081 81.8056 69.8369 81.9462 70.1886 82.21L84.3386 92.7599C84.948 93.2409 85.4176 93.8763 85.6986 94.6L90.3686 107.96C90.7329 108.897 91.4437 109.659 92.3539 110.087C93.2641 110.515 94.3041 110.577 95.2586 110.26C95.7326 110.092 96.1687 109.832 96.542 109.495C96.9153 109.158 97.2184 108.751 97.434 108.297C97.6495 107.842 97.7733 107.35 97.7981 106.848C97.8229 106.346 97.7483 105.843 97.5786 105.37L92.5786 90.94C91.9945 89.5571 91.0936 88.3308 89.9486 87.36L77.5385 78.13C77.2839 77.9391 77.0773 77.6914 76.935 77.4067C76.7926 77.1221 76.7185 76.8082 76.7185 76.49V52.04C76.6996 51.6417 76.8001 51.2469 77.0072 50.9062C77.2142 50.5656 77.5184 50.2945 77.8806 50.1279C78.2428 49.9613 78.6465 49.9068 79.04 49.9713C79.4334 50.0358 79.7986 50.2164 80.0886 50.49L86.1986 55.75C86.4924 55.946 86.8344 56.0571 87.1873 56.0712C87.5401 56.0853 87.8901 56.0018 88.1986 55.83L99.4586 47.57C100.026 47.1508 100.404 46.5244 100.51 45.8275C100.617 45.1305 100.444 44.4197 100.029 43.85C99.5929 43.3059 98.9687 42.9454 98.2797 42.8398C97.5907 42.7342 96.8872 42.8913 96.3086 43.28L89.1886 48.5099C88.6727 48.8738 88.0499 49.0548 87.4193 49.024C86.7887 48.9932 86.1866 48.7524 85.7086 48.34V48.34L77.9286 41.34H58.3586H58.1585L44.1585 48.72C43.7918 48.9571 43.493 49.2855 43.2914 49.6729C43.0897 50.0603 42.9923 50.4935 43.0086 50.93L44.7285 63.99C44.814 64.692 45.1734 65.3318 45.7285 65.77C46.0009 65.9812 46.3132 66.1353 46.6465 66.2229C46.9799 66.3105 47.3275 66.3299 47.6686 66.28C48.0164 66.2344 48.3518 66.1206 48.6554 65.9449C48.9591 65.7693 49.2249 65.5353 49.4378 65.2565C49.6506 64.9776 49.8062 64.6595 49.8956 64.3203C49.985 63.981 50.0064 63.6275 49.9586 63.28L48.8086 54.5C48.7372 53.913 48.8463 53.3181 49.1214 52.7947C49.3965 52.2712 49.8246 51.8441 50.3485 51.57L56.7986 48.31C57.1098 48.1297 57.464 48.0366 57.8238 48.0407C58.1835 48.0448 58.5354 48.1458 58.8426 48.3332C59.1497 48.5205 59.4006 48.7872 59.5688 49.1052C59.7371 49.4232 59.8164 49.7807 59.7986 50.14V78.04C59.7998 78.3598 59.7244 78.6753 59.5786 78.96L53.2386 91.77C52.8094 92.5791 52.0975 93.202 51.2386 93.52L38.7086 98.04C37.9936 98.2951 37.3713 98.7585 36.9221 99.3705C36.4729 99.9825 36.2172 100.715 36.1881 101.474C36.1591 102.232 36.358 102.982 36.7591 103.627C37.1602 104.271 37.7451 104.781 38.4386 105.09C38.8879 105.306 39.3756 105.43 39.8735 105.456C40.3714 105.482 40.8694 105.408 41.3386 105.24L56.1186 99.82C57.3459 99.2717 58.3731 98.3563 59.0586 97.2C59.0534 97.1769 59.0534 97.1531 59.0586 97.13L67.2285 82.81C67.3676 82.5554 67.5604 82.3341 67.7935 82.1614C68.0266 81.9887 68.2945 81.8688 68.5786 81.81C68.7183 81.7965 68.8589 81.7965 68.9986 81.81H68.9685Z" fill="#1A1053"/>
</svg>
