<svg width="130" height="130" viewBox="0 0 130 130" fill="none" xmlns="http://www.w3.org/2000/svg">
<path d="M77.0932 101.11C61.8132 110 41.3932 118.22 28.9732 111.28C25.7405 110.203 22.6485 108.743 19.7632 106.93C17.2244 105.258 14.8233 103.385 12.5832 101.33C3.72317 93.0903 -1.31681 81.8504 4.48319 67.8804C12.0832 49.8804 34.4833 40.6503 52.8033 33.2503C55.5733 32.2503 58.3432 31.2503 61.1332 30.4603C63.9232 29.6703 66.6732 28.9903 69.4432 28.4603C73.0745 27.749 76.7494 27.2813 80.4432 27.0603C104.913 25.0603 134.663 31.7703 127.933 57.9803C126.636 61.8146 124.847 65.4649 122.613 68.8403C113.103 80.0103 102.123 87.6904 89.0032 94.3804C84.8232 96.7604 80.8632 99.007 77.1232 101.12" fill="#E8E4ED"/>
<path d="M60.8632 99.7103C54.7457 99.7091 48.703 98.3652 43.1617 95.7734C37.6203 93.1816 32.7155 89.405 28.7933 84.7103C28.5758 84.4451 28.4725 84.1044 28.5063 83.763C28.54 83.4217 28.708 83.1078 28.9732 82.8904C29.2384 82.6729 29.5791 82.5696 29.9205 82.6034C30.2618 82.6371 30.5758 82.8051 30.7933 83.0703C34.6503 87.6698 39.5093 91.3249 44.9979 93.7553C50.4864 96.1857 56.4587 97.3268 62.4567 97.0913C68.4547 96.8557 74.3192 95.2497 79.6003 92.3963C84.8814 89.543 89.4389 85.5181 92.9233 80.6303C93.1296 80.382 93.4222 80.2209 93.7424 80.1792C94.0625 80.1375 94.3866 80.2184 94.6497 80.4056C94.9128 80.5927 95.0954 80.8724 95.1609 81.1886C95.2265 81.5047 95.1702 81.834 95.0032 82.1103C91.123 87.5333 86.0073 91.9544 80.0793 95.008C74.1513 98.0615 67.5815 99.6597 60.9133 99.6703" fill="#FF5100"/>
<path d="M94.253 36.1102C94.0554 36.1006 93.8627 36.0461 93.6894 35.9508C93.5161 35.8555 93.3668 35.7219 93.253 35.5602C90.2267 31.1655 86.3377 27.4327 81.8227 24.5891C77.3076 21.7455 72.261 19.8506 66.9902 19.0199C61.7193 18.1891 56.3346 18.4399 51.1637 19.7568C45.9929 21.0738 41.1443 23.4294 36.913 26.6802C36.6459 26.8521 36.3241 26.9177 36.011 26.864C35.6979 26.8104 35.4163 26.6414 35.2217 26.3903C35.0271 26.1392 34.9337 25.8244 34.9599 25.5078C34.986 25.1912 35.1298 24.896 35.363 24.6802C42.6615 19.0251 51.64 15.9702 60.873 16.0002C67.6551 16.0045 74.3348 17.6547 80.3388 20.8091C86.3427 23.9634 91.4915 28.5278 95.3429 34.1102C95.4714 34.2985 95.5473 34.5177 95.5627 34.7452C95.578 34.9726 95.5324 35.2 95.4305 35.4039C95.3285 35.6078 95.1739 35.7808 94.9827 35.9049C94.7915 36.0291 94.5707 36.1 94.3429 36.1102" fill="#FF5100"/>
<path d="M60.8631 86.0204C55.292 86.0184 49.8466 84.3647 45.2154 81.2681C40.5842 78.1715 36.9751 73.7713 34.8445 68.6237C32.7139 63.4761 32.1576 57.8124 33.2457 52.3486C34.3337 46.8848 37.0174 41.8663 40.9574 37.9277C44.8975 33.9891 49.9169 31.3071 55.381 30.221C60.8452 29.1348 66.5088 29.6933 71.6556 31.8257C76.8024 33.9581 81.2014 37.5688 84.2963 42.2011C87.3912 46.8334 89.0431 52.2794 89.0431 57.8504C89.0352 65.3209 86.0633 72.4829 80.78 77.7644C75.4966 83.0458 68.3335 86.0151 60.8631 86.0204ZM60.8631 32.2204C55.7939 32.2204 50.8387 33.7236 46.6238 36.5399C42.409 39.3561 39.1239 43.359 37.184 48.0423C35.2441 52.7255 34.7367 57.8789 35.7256 62.8506C36.7146 67.8223 39.1555 72.3892 42.7399 75.9736C46.3243 79.558 50.8912 81.999 55.863 82.9879C60.8347 83.9769 65.988 83.4693 70.6713 81.5294C75.3546 79.5896 79.3574 76.3045 82.1736 72.0897C84.9899 67.8749 86.4931 62.9196 86.4931 57.8504C86.4852 51.0554 83.7823 44.5409 78.9775 39.7361C74.1726 34.9312 67.6581 32.2284 60.8631 32.2204" fill="#FF5100"/>
<path d="M18.833 96.8405C17.2753 96.8378 15.7823 96.2172 14.6818 95.1147C13.5812 94.0123 12.963 92.5182 12.963 90.9604V51.8505C12.9303 51.0586 13.0581 50.2682 13.3386 49.5269C13.6191 48.7856 14.0467 48.1087 14.5955 47.5369C15.1442 46.965 15.8029 46.5099 16.532 46.1991C17.2611 45.8883 18.0454 45.728 18.838 45.728C19.6306 45.728 20.4151 45.8883 21.1442 46.1991C21.8732 46.5099 22.5319 46.965 23.0807 47.5369C23.6294 48.1087 24.0569 48.7856 24.3374 49.5269C24.6179 50.2682 24.7457 51.0586 24.713 51.8505V90.9604C24.7104 92.5191 24.0901 94.0132 22.9879 95.1154C21.8858 96.2175 20.3917 96.8378 18.833 96.8405V96.8405ZM18.833 48.5204C17.9506 48.5231 17.1052 48.8748 16.4813 49.4987C15.8574 50.1226 15.5057 50.9681 15.503 51.8505V90.9604C15.503 91.8436 15.8539 92.6906 16.4784 93.3151C17.1029 93.9396 17.9498 94.2905 18.833 94.2905C19.7162 94.2905 20.5632 93.9396 21.1877 93.3151C21.8122 92.6906 22.1631 91.8436 22.1631 90.9604V51.8505C22.1631 50.9673 21.8122 50.1203 21.1877 49.4958C20.5632 48.8713 19.7162 48.5204 18.833 48.5204" fill="#1A1053"/>
<path d="M18.8328 48.5203C12.1028 48.5203 6.63281 43.7003 6.63281 37.7803V20.1104C6.63281 19.7735 6.76659 19.4505 7.00476 19.2123C7.24293 18.9742 7.56601 18.8403 7.90283 18.8403C8.23966 18.8403 8.56261 18.9742 8.80078 19.2123C9.03895 19.4505 9.17285 19.7735 9.17285 20.1104V37.7604C9.17285 42.2804 13.5128 45.9504 18.8328 45.9504C24.1528 45.9504 28.5028 42.2804 28.5028 37.7604V20.1104C28.5028 19.7735 28.6366 19.4505 28.8748 19.2123C29.1129 18.9742 29.436 18.8403 29.7728 18.8403C30.1097 18.8403 30.4326 18.9742 30.6708 19.2123C30.9089 19.4505 31.0428 19.7735 31.0428 20.1104V37.7604C31.0428 43.6804 25.5728 48.5004 18.8328 48.5004" fill="#1A1053"/>
<path d="M15.2529 35.4803C14.9161 35.4803 14.593 35.3466 14.3549 35.1084C14.1167 34.8702 13.9829 34.5472 13.9829 34.2103V20.1104C13.9829 19.7735 14.1167 19.4505 14.3549 19.2123C14.593 18.9742 14.9161 18.8403 15.2529 18.8403C15.5898 18.8403 15.9128 18.9742 16.151 19.2123C16.3892 19.4505 16.5229 19.7735 16.5229 20.1104V34.2103C16.5229 34.5472 16.3892 34.8702 16.151 35.1084C15.9128 35.3466 15.5898 35.4803 15.2529 35.4803Z" fill="#1A1053"/>
<path d="M104.793 96.8403C103.235 96.8377 101.742 96.2171 100.642 95.1146C99.541 94.0122 98.923 92.5181 98.923 90.9603V66.4703C98.8903 65.6784 99.0181 64.8881 99.2986 64.1469C99.5791 63.4056 100.007 62.7286 100.555 62.1567C101.104 61.5849 101.763 61.1298 102.492 60.819C103.221 60.5081 104.005 60.3479 104.798 60.3479C105.591 60.3479 106.375 60.5081 107.104 60.819C107.833 61.1298 108.492 61.5849 109.041 62.1567C109.589 62.7286 110.017 63.4056 110.297 64.1469C110.578 64.8881 110.706 65.6784 110.673 66.4703V90.9603C110.67 92.519 110.05 94.0131 108.948 95.1152C107.846 96.2174 106.352 96.8377 104.793 96.8403V96.8403ZM104.793 63.1404C103.911 63.143 103.065 63.4947 102.441 64.1186C101.817 64.7425 101.466 65.588 101.463 66.4703V90.9603C101.463 91.8435 101.814 92.6905 102.438 93.315C103.063 93.9395 103.91 94.2903 104.793 94.2903C105.676 94.2903 106.523 93.9395 107.148 93.315C107.772 92.6905 108.123 91.8435 108.123 90.9603V66.4703C108.123 65.5872 107.772 64.7402 107.148 64.1157C106.523 63.4912 105.676 63.1404 104.793 63.1404" fill="#1A1053"/>
<path d="M106.673 63.1104H99.8031C98.6943 63.1158 97.6284 62.6825 96.8379 61.905C96.0473 61.1276 95.5962 60.0691 95.583 58.9604C95.583 46.3804 101.233 27.1704 102.983 21.5904C103.258 20.6858 103.85 19.9108 104.65 19.4072C105.45 18.9036 106.405 18.7053 107.339 18.8487C108.274 18.9921 109.125 19.4675 109.738 20.1878C110.35 20.9081 110.682 21.825 110.673 22.7704V59.1104C110.673 60.1713 110.252 61.1887 109.501 61.9388C108.751 62.689 107.734 63.1104 106.673 63.1104V63.1104ZM106.743 21.3804C106.443 21.3813 106.152 21.4792 105.912 21.6594C105.672 21.8397 105.497 22.0926 105.413 22.3804C103.693 27.8804 98.0831 46.7704 98.1331 58.9804C98.137 59.1958 98.1832 59.4083 98.2693 59.6058C98.3553 59.8033 98.4794 59.9818 98.6345 60.1314C98.7896 60.2809 98.9726 60.3984 99.1731 60.4771C99.3736 60.5559 99.5877 60.5944 99.8031 60.5904H106.673C106.864 60.5904 107.052 60.5529 107.228 60.48C107.404 60.4072 107.564 60.3004 107.698 60.1657C107.833 60.0311 107.94 59.8712 108.013 59.6953C108.086 59.5194 108.123 59.3309 108.123 59.1404V22.8004C108.124 22.6184 108.09 22.4378 108.021 22.2692C107.952 22.1006 107.851 21.9473 107.722 21.8181C107.594 21.6889 107.442 21.5864 107.273 21.5164C107.105 21.4464 106.925 21.4104 106.743 21.4104" fill="#1A1053"/>
</svg>
