<svg width="130" height="130" viewBox="0 0 130 130" fill="none" xmlns="http://www.w3.org/2000/svg">
<path d="M125.38 68.59C124.675 71.9096 123.637 75.1494 122.28 78.26C119.985 83.4948 116.858 88.3239 113.02 92.56C111.167 94.6271 109.161 96.5525 107.02 98.32C84.4299 126.97 55.7999 120.82 35.0199 102.04C32.5799 100.52 30.1999 98.93 27.8999 97.28C25.7612 95.613 23.8068 93.7223 22.0699 91.64C10.1799 77.34 10.0099 55.5 15.1399 35.78C15.7335 32.9516 16.594 30.1858 17.7099 27.52C18.8321 24.8486 20.2296 22.3015 21.8799 19.92C23.9373 17.3788 26.3643 15.1608 29.0799 13.34C31.5482 12.61 34.091 12.1605 36.66 12C40.61 12.21 44.6599 11.81 48.0599 13.27C58.2071 21.2485 69.3805 27.8274 81.2799 32.83C84.1299 34.05 87.01 35.18 89.91 36.26C102.16 42.26 120.26 41.45 124.66 57.83C125.635 61.3288 125.9 64.9872 125.44 68.59" fill="#E8E4ED"/>
<path d="M27.9502 101.98H12.2202C10.3168 101.977 8.49199 101.22 7.14605 99.8741C5.80011 98.5281 5.0428 96.7034 5.04015 94.8V44.5C5.02447 44.3231 5.04582 44.1448 5.10277 43.9766C5.15972 43.8083 5.25104 43.6538 5.37096 43.5228C5.49088 43.3917 5.63675 43.2871 5.79931 43.2155C5.96186 43.1439 6.13756 43.1069 6.31518 43.1069C6.4928 43.1069 6.66849 43.1439 6.83104 43.2155C6.9936 43.2871 7.13947 43.3917 7.25939 43.5228C7.37931 43.6538 7.47063 43.8083 7.52758 43.9766C7.58453 44.1448 7.60588 44.3231 7.5902 44.5V94.8C7.5902 96.0289 8.07766 97.2076 8.94567 98.0775C9.81368 98.9473 10.9913 99.4374 12.2202 99.44H27.9502C28.287 99.44 28.61 99.5738 28.8482 99.812C29.0864 100.05 29.2202 100.373 29.2202 100.71C29.2202 101.047 29.0864 101.37 28.8482 101.608C28.61 101.846 28.287 101.98 27.9502 101.98Z" fill="#1A1053"/>
<path d="M100.18 101.98H84.4502C84.1134 101.98 83.7904 101.846 83.5522 101.608C83.314 101.37 83.1802 101.047 83.1802 100.71C83.1802 100.373 83.314 100.05 83.5522 99.812C83.7904 99.5738 84.1134 99.44 84.4502 99.44H100.18C101.409 99.4374 102.587 98.9473 103.455 98.0775C104.323 97.2076 104.81 96.0289 104.81 94.8V44.5C104.794 44.3231 104.816 44.1448 104.873 43.9766C104.93 43.8083 105.021 43.6538 105.141 43.5228C105.261 43.3917 105.407 43.2871 105.569 43.2155C105.732 43.1439 105.908 43.1069 106.085 43.1069C106.263 43.1069 106.438 43.1439 106.601 43.2155C106.764 43.2871 106.909 43.3917 107.029 43.5228C107.149 43.6538 107.241 43.8083 107.298 43.9766C107.355 44.1448 107.376 44.3231 107.36 44.5V94.8C107.358 96.7034 106.6 98.5281 105.254 99.8741C103.908 101.22 102.084 101.977 100.18 101.98" fill="#1A1053"/>
<path d="M97.77 56.76H90.14C89.8214 56.7317 89.5248 56.5852 89.3088 56.3492C89.0928 56.1132 88.973 55.8049 88.973 55.485C88.973 55.1651 89.0928 54.8568 89.3088 54.6208C89.5248 54.3848 89.8214 54.2382 90.14 54.2099H97.77C99.6225 54.1969 101.395 53.4552 102.705 52.1452C104.015 50.8353 104.757 49.0624 104.77 47.2099V43.38C104.767 41.2935 103.937 39.2933 102.462 37.818C100.987 36.3426 98.9865 35.5126 96.9 35.51H15.46C13.3736 35.5126 11.3733 36.3426 9.89801 37.818C8.42267 39.2933 7.59267 41.2935 7.59003 43.38V47.2099C7.60312 49.0624 8.3448 50.8353 9.65472 52.1452C10.9647 53.4552 12.7376 54.1969 14.59 54.2099H22.72C23.0387 54.2382 23.3352 54.3848 23.5512 54.6208C23.7672 54.8568 23.887 55.1651 23.887 55.485C23.887 55.8049 23.7672 56.1132 23.5512 56.3492C23.3352 56.5852 23.0387 56.7317 22.72 56.76H14.59C12.0474 56.7573 9.60967 55.7461 7.81177 53.9482C6.01387 52.1503 5.00265 49.7126 5 47.17V43.3399C5.00131 41.9686 5.27306 40.6109 5.79968 39.3447C6.3263 38.0785 7.09747 36.9285 8.06903 35.9607C9.04059 34.9928 10.1935 34.2261 11.4617 33.7043C12.73 33.1826 14.0887 32.916 15.46 32.92H96.94C98.3097 32.9187 99.6662 33.1871 100.932 33.7101C102.198 34.233 103.349 35.0002 104.318 35.9678C105.287 36.9353 106.057 38.0844 106.582 39.3493C107.108 40.6143 107.379 41.9703 107.38 43.3399V47.17C107.377 49.7126 106.366 52.1503 104.568 53.9482C102.77 55.7461 100.333 56.7573 97.79 56.76" fill="#1A1053"/>
<path d="M82.13 56.7599H30.77C30.5931 56.7756 30.4148 56.7542 30.2466 56.6973C30.0783 56.6403 29.9238 56.549 29.7928 56.4291C29.6618 56.3091 29.5571 56.1633 29.4855 56.0007C29.414 55.8382 29.377 55.6625 29.377 55.4849C29.377 55.3072 29.414 55.1315 29.4855 54.969C29.5571 54.8064 29.6618 54.6606 29.7928 54.5406C29.9238 54.4207 30.0783 54.3294 30.2466 54.2725C30.4148 54.2155 30.5931 54.1941 30.77 54.2098H82.13C82.3069 54.1941 82.4852 54.2155 82.6534 54.2725C82.8217 54.3294 82.9762 54.4207 83.1072 54.5406C83.2383 54.6606 83.3429 54.8064 83.4145 54.969C83.4861 55.1315 83.523 55.3072 83.523 55.4849C83.523 55.6625 83.4861 55.8382 83.4145 56.0007C83.3429 56.1633 83.2383 56.3091 83.1072 56.4291C82.9762 56.549 82.8217 56.6403 82.6534 56.6973C82.4852 56.7542 82.3069 56.7756 82.13 56.7599Z" fill="#1A1053"/>
<path d="M26.7703 64.26C25.3699 64.26 24.0269 63.7037 23.0367 62.7135C22.0466 61.7233 21.4902 60.3803 21.4902 58.98V51.98C21.4902 51.0597 21.8558 50.1771 22.5066 49.5263C23.1573 48.8756 24.04 48.51 24.9603 48.51H28.5703C29.4906 48.51 30.3732 48.8756 31.0239 49.5263C31.6747 50.1771 32.0402 51.0597 32.0402 51.98V58.98C32.0376 60.3778 31.4818 61.7178 30.4944 62.7071C29.5069 63.6964 28.1681 64.2547 26.7703 64.26V64.26ZM24.9603 51C24.7136 51 24.477 51.098 24.3026 51.2724C24.1282 51.4468 24.0303 51.6833 24.0303 51.93V58.93C24.0724 59.6268 24.3789 60.2812 24.8872 60.7596C25.3955 61.2381 26.0672 61.5045 26.7653 61.5045C27.4633 61.5045 28.135 61.2381 28.6433 60.7596C29.1516 60.2812 29.4581 59.6268 29.5002 58.93V51.93C29.5002 51.6833 29.4023 51.4468 29.2278 51.2724C29.0534 51.098 28.8169 51 28.5703 51H24.9603Z" fill="#1A1053"/>
<path d="M86.1399 64.26C84.7404 64.2574 83.3989 63.7002 82.4093 62.7106C81.4197 61.721 80.8625 60.3795 80.8599 58.98V51.98C80.8599 51.0597 81.2255 50.1771 81.8762 49.5263C82.527 48.8756 83.4096 48.51 84.3299 48.51H87.9499C88.8529 48.5203 89.7164 48.8822 90.3569 49.5189C90.9973 50.1556 91.3643 51.017 91.3799 51.92V58.92C91.3772 60.3195 90.8201 61.661 89.8305 62.6506C88.8409 63.6402 87.4994 64.1974 86.0999 64.2L86.1399 64.26ZM84.3799 51C84.135 51.0026 83.901 51.1018 83.7287 51.2759C83.5564 51.45 83.4599 51.6851 83.4599 51.93V58.93C83.4599 59.654 83.7475 60.3484 84.2595 60.8604C84.7714 61.3724 85.4658 61.66 86.1899 61.66C86.9139 61.66 87.6083 61.3724 88.1203 60.8604C88.6323 60.3484 88.9199 59.654 88.9199 58.93V51.93C88.9199 51.6851 88.8233 51.45 88.6511 51.2759C88.4788 51.1018 88.2448 51.0026 87.9999 51H84.3799Z" fill="#1A1053"/>
<path d="M67.3799 35.4698C67.0431 35.4698 66.72 35.336 66.4819 35.0978C66.2437 34.8597 66.1099 34.5367 66.1099 34.1998V28.4098C66.1099 28.1234 65.9961 27.8487 65.7936 27.6461C65.591 27.4436 65.3163 27.3298 65.0299 27.3298H49.0299C48.7435 27.3298 48.4688 27.4436 48.2662 27.6461C48.0637 27.8487 47.9499 28.1234 47.9499 28.4098V34.1998C47.9216 34.5185 47.7751 34.815 47.5391 35.031C47.3031 35.247 46.9948 35.3668 46.6749 35.3668C46.355 35.3668 46.0467 35.247 45.8107 35.031C45.5747 34.815 45.4282 34.5185 45.3999 34.1998V28.4098C45.4025 27.4479 45.7858 26.5261 46.466 25.8459C47.1462 25.1658 48.068 24.7824 49.0299 24.7798H65.0299C65.9918 24.7824 66.9136 25.1658 67.5938 25.8459C68.2739 26.5261 68.6573 27.4479 68.6599 28.4098V34.1998C68.6599 34.3675 68.6267 34.5334 68.5623 34.6881C68.4978 34.8428 68.4034 34.9833 68.2844 35.1014C68.1654 35.2194 68.0242 35.3128 67.869 35.376C67.7137 35.4393 67.5475 35.4711 67.3799 35.4698" fill="#1A1053"/>
<path d="M73.8602 35.4698C73.6926 35.4712 73.5264 35.4393 73.3712 35.3761C73.2159 35.3129 73.0747 35.2195 72.9557 35.1014C72.8368 34.9834 72.7423 34.8429 72.6779 34.6882C72.6134 34.5334 72.5803 34.3675 72.5803 34.1999V28.4099C72.5803 26.4154 71.788 24.5027 70.3777 23.0924C68.9674 21.6821 67.0547 20.8898 65.0602 20.8898H49.0602C47.0658 20.8898 45.1531 21.6821 43.7428 23.0924C42.3325 24.5027 41.5402 26.4154 41.5402 28.4099V34.1999C41.512 34.5186 41.3654 34.8151 41.1295 35.0311C40.8935 35.2471 40.5852 35.3668 40.2653 35.3668C39.9453 35.3668 39.637 35.2471 39.4011 35.0311C39.1651 34.8151 39.0185 34.5186 38.9902 34.1999V28.4099C38.9929 25.7399 40.0547 23.1802 41.9426 21.2922C43.8305 19.4043 46.3903 18.3425 49.0602 18.3398H65.0602C67.7302 18.3425 70.29 19.4043 72.1779 21.2922C74.0658 23.1802 75.1276 25.7399 75.1302 28.4099V34.1999C75.1302 34.5367 74.9965 34.8597 74.7583 35.0979C74.5201 35.3361 74.1971 35.4698 73.8602 35.4698" fill="#1A1053"/>
<path d="M58.3101 103.48H54.0901C53.1024 103.464 52.1604 103.061 51.4666 102.358C50.7727 101.655 50.3826 100.708 50.3801 99.72V96.22H46.8801C45.8837 96.2173 44.9289 95.8203 44.2243 95.1158C43.5197 94.4112 43.1228 93.4564 43.1201 92.46V88.24C43.1228 87.2436 43.5197 86.2887 44.2243 85.5842C44.9289 84.8796 45.8837 84.4826 46.8801 84.48H50.3801V80.98C50.3828 79.9836 50.7797 79.0287 51.4843 78.3242C52.1889 77.6196 53.1437 77.2226 54.1401 77.22H58.3601C59.3565 77.2226 60.3114 77.6196 61.0159 78.3242C61.7205 79.0287 62.1175 79.9836 62.1201 80.98V84.48H65.6201C66.6165 84.4826 67.5714 84.8796 68.2759 85.5842C68.9805 86.2887 69.3775 87.2436 69.3801 88.24V92.46C69.3775 93.4564 68.9805 94.4112 68.2759 95.1158C67.5714 95.8203 66.6165 96.2173 65.6201 96.22H62.1201V99.72C62.1175 100.716 61.7205 101.671 61.0159 102.376C60.3114 103.08 59.3565 103.477 58.3601 103.48H58.3101ZM46.8801 87.03C46.7212 87.03 46.5639 87.0613 46.4171 87.1221C46.2702 87.1829 46.1369 87.272 46.0245 87.3844C45.9122 87.4968 45.823 87.6301 45.7622 87.7769C45.7014 87.9237 45.6701 88.0811 45.6701 88.24V92.46C45.6701 92.6189 45.7014 92.7762 45.7622 92.923C45.823 93.0698 45.9122 93.2032 46.0245 93.3156C46.1369 93.4279 46.2702 93.5171 46.4171 93.5779C46.5639 93.6387 46.7212 93.67 46.8801 93.67H51.6501C51.9758 93.6826 52.2843 93.819 52.5128 94.0513C52.7414 94.2835 52.8727 94.5942 52.8801 94.92V99.69C52.8801 100.011 53.0076 100.319 53.2346 100.546C53.4615 100.773 53.7692 100.9 54.0901 100.9H58.3101C58.631 100.9 58.9388 100.773 59.1657 100.546C59.3926 100.319 59.5201 100.011 59.5201 99.69V94.92C59.5201 94.5805 59.655 94.2549 59.895 94.0149C60.1351 93.7748 60.4606 93.64 60.8001 93.64H65.5701C65.891 93.64 66.1988 93.5125 66.4257 93.2856C66.6526 93.0587 66.7802 92.7509 66.7802 92.43V88.21C66.7802 87.889 66.6526 87.5813 66.4257 87.3544C66.1988 87.1275 65.891 87 65.5701 87H60.8001C60.4606 87 60.1351 86.8651 59.895 86.6251C59.655 86.385 59.5201 86.0594 59.5201 85.72V80.95C59.5201 80.6291 59.3926 80.3213 59.1657 80.0944C58.9388 79.8674 58.631 79.74 58.3101 79.74H54.0901C53.7692 79.74 53.4615 79.8674 53.2346 80.0944C53.0076 80.3213 52.8801 80.6291 52.8801 80.95V85.73C52.8801 85.8976 52.847 86.0636 52.7825 86.2183C52.7181 86.3731 52.6236 86.5135 52.5046 86.6316C52.3856 86.7497 52.2445 86.843 52.0892 86.9062C51.934 86.9694 51.7677 87.0013 51.6001 87L46.8801 87.03Z" fill="#FF5100"/>
<path d="M56.1998 118.92C55.951 118.92 55.7075 118.847 55.4998 118.71L53.3098 117.27C52.1898 116.53 42.3098 110.01 38.9198 107.5C35.2598 104.79 33.0698 100.03 33.0698 94.76V71.31C33.0698 71.1424 33.103 70.9764 33.1674 70.8217C33.2319 70.6669 33.3263 70.5264 33.4453 70.4084C33.5643 70.2903 33.7055 70.197 33.8607 70.1338C34.016 70.0706 34.1822 70.0387 34.3498 70.04C43.7298 70.04 55.2998 61.16 55.4198 61.04C55.6421 60.8648 55.9168 60.7695 56.1998 60.7695C56.4828 60.7695 56.7575 60.8648 56.9798 61.04C57.0998 61.13 68.6698 70.04 78.0498 70.04C78.3866 70.04 78.7097 70.1738 78.9479 70.412C79.186 70.6502 79.3198 70.9732 79.3198 71.31V94.74C79.3198 100.01 77.1398 104.74 73.4798 107.48C70.0798 109.99 60.2098 116.48 59.0898 117.24L56.8998 118.69C56.6921 118.827 56.4487 118.9 56.1998 118.9V118.92ZM35.6198 72.54V94.74C35.6198 99.21 37.4198 103.2 40.4298 105.43C43.7798 107.9 53.5998 114.43 54.7098 115.12L56.1998 116.12L57.6798 115.12C58.7998 114.39 68.6198 107.9 71.9598 105.43C74.9598 103.2 76.7798 99.21 76.7798 94.74V72.54C68.2198 71.95 58.9298 65.64 56.1998 63.66C53.4698 65.66 44.1998 71.95 35.6198 72.54" fill="#1A1053"/>
</svg>
