<svg width="130" height="130" viewBox="0 0 130 130" fill="none" xmlns="http://www.w3.org/2000/svg">
<path d="M90.24 30.6199C97.2644 34.4734 103.339 39.8476 108.02 46.3499C126.78 67.2199 111.1 100.73 84.21 107.18C78.6967 109.102 72.8878 110.036 67.05 109.94C64.75 110.02 62.44 109.99 60.14 109.85C57.8486 109.712 55.5657 109.458 53.3 109.09C49.2957 108.213 45.3894 106.937 41.64 105.28C33.0927 101.484 25.5063 95.8179 19.4399 88.6999C17.4343 86.3189 15.6376 83.7695 14.07 81.0799C2.69995 60.3699 16.14 40.6499 31.92 30.0799C33.6367 28.931 35.4125 27.8729 37.24 26.9099C39.24 26.3799 41.24 25.7799 43.24 25.1899C53.86 20.6699 67.12 20.8299 80.09 26.0999C83.5798 27.3588 86.9666 28.8867 90.22 30.6699" fill="#E8E4ED"/>
<path d="M64.8597 30.28H64.6597C64.4921 30.28 64.3261 30.2469 64.1714 30.1824C64.0166 30.118 63.8762 30.0235 63.7581 29.9045C63.64 29.7855 63.5467 29.6444 63.4835 29.4891C63.4203 29.3339 63.3884 29.1676 63.3897 29V18.28C63.3884 18.1124 63.4203 17.9462 63.4835 17.791C63.5467 17.6357 63.64 17.4945 63.7581 17.3755C63.8762 17.2566 64.0166 17.1621 64.1714 17.0977C64.3261 17.0332 64.4921 17 64.6597 17H64.8597C65.1992 17 65.5248 17.1349 65.7648 17.3749C66.0049 17.615 66.1397 17.9406 66.1397 18.28V29.03C66.1397 29.3695 66.0049 29.6951 65.7648 29.9351C65.5248 30.1752 65.1992 30.3101 64.8597 30.3101" fill="#FF5100"/>
<path d="M54.9399 36.05C54.6877 36.0515 54.4407 35.9784 54.2299 35.84L44.1699 29.11C43.8903 28.9229 43.6965 28.6324 43.6308 28.3024C43.5652 27.9724 43.6332 27.6299 43.8199 27.35L43.9299 27.19C44.0219 27.0494 44.1408 26.9284 44.2798 26.8341C44.4188 26.7398 44.5751 26.674 44.7397 26.6405C44.9044 26.607 45.074 26.6065 45.2388 26.639C45.4036 26.6716 45.5603 26.7365 45.6999 26.83L55.7499 33.55C56.0289 33.7374 56.2232 34.0269 56.2905 34.3562C56.3579 34.6855 56.293 35.0282 56.1099 35.31L55.9999 35.48C55.8111 35.7612 55.5208 35.9583 55.1899 36.03C55.1068 36.0399 55.0229 36.0399 54.9399 36.03" fill="#FF5100"/>
<path d="M74.59 36.0502C74.507 36.0601 74.423 36.0601 74.34 36.0502C74.0082 35.9804 73.7172 35.7828 73.53 35.5001L73.42 35.3302C73.2333 35.0503 73.1653 34.7077 73.2309 34.3778C73.2966 34.0478 73.4904 33.7573 73.77 33.5702L83.83 26.8502C84.1115 26.663 84.4555 26.5947 84.7871 26.6603C85.1188 26.7259 85.411 26.9199 85.6 27.2002L85.71 27.3702C85.8967 27.6501 85.9647 27.9926 85.8991 28.3226C85.8335 28.6526 85.6396 28.943 85.36 29.1302L75.3 35.8602C75.0892 35.9986 74.8422 36.0716 74.59 36.0702" fill="#FF5100"/>
<path d="M64.7597 43.88C64.0596 43.88 63.3752 43.6724 62.7931 43.2835C62.2109 42.8945 61.7572 42.3416 61.4892 41.6947C61.2213 41.0479 61.1511 40.3361 61.2877 39.6494C61.4243 38.9627 61.7615 38.332 62.2566 37.8369C62.7517 37.3418 63.3824 37.0047 64.0691 36.8681C64.7558 36.7315 65.4676 36.8016 66.1145 37.0695C66.7613 37.3375 67.3142 37.7912 67.7031 38.3733C68.0921 38.9555 68.2998 39.6399 68.2998 40.34C68.2971 41.2781 67.9233 42.177 67.26 42.8403C66.5967 43.5036 65.6978 43.8774 64.7597 43.88ZM64.7597 39.34C64.5619 39.34 64.3686 39.3987 64.2042 39.5086C64.0397 39.6184 63.9115 39.7746 63.8358 39.9574C63.7601 40.1401 63.7404 40.3411 63.779 40.5351C63.8175 40.7291 63.9128 40.9073 64.0526 41.0471C64.1925 41.187 64.3707 41.2822 64.5647 41.3208C64.7586 41.3594 64.9597 41.3396 65.1424 41.2639C65.3251 41.1882 65.4813 41.0601 65.5912 40.8957C65.7011 40.7312 65.7597 40.5378 65.7597 40.34C65.7597 40.0748 65.6544 39.8205 65.4669 39.633C65.2793 39.4454 65.0249 39.34 64.7597 39.34Z" fill="#FF5100"/>
<path d="M18.86 112.36C18.7737 112.37 18.6864 112.37 18.6 112.36C15.8896 111.807 13.4535 110.334 11.7041 108.191C9.95472 106.048 8.99944 103.366 9 100.6V85.6C9 82.4174 10.2643 79.3651 12.5148 77.1147C14.7652 74.8643 17.8174 73.6 21 73.6H39.7L54.6 54.28L54.71 54.16C55.9481 52.9158 57.6286 52.2124 59.3839 52.2037C61.1391 52.195 62.8264 52.8817 64.0768 54.1135C65.3272 55.3454 66.0389 57.0223 66.0564 58.7775C66.0739 60.5328 65.3957 62.2235 64.17 63.48L45.89 88.28V111.11C45.89 111.447 45.7562 111.77 45.5181 112.008C45.2799 112.246 44.9569 112.38 44.6201 112.38H18.86V112.36ZM20.13 109.83H43.34V87.69C43.3389 87.4736 43.3935 87.2606 43.4986 87.0714C43.6037 86.8823 43.7557 86.7233 43.94 86.61L62.17 61.91C62.208 61.8586 62.2517 61.8117 62.3 61.77C63.0745 61.0088 63.5148 59.9712 63.5242 58.8853C63.5335 57.7995 63.1112 56.7544 62.35 55.98C61.5889 55.2056 60.5512 54.7652 59.4654 54.7558C58.3796 54.7464 57.3345 55.1688 56.5601 55.93L41.33 75.59C41.212 75.7435 41.0607 75.8683 40.8875 75.9549C40.7143 76.0415 40.5237 76.0877 40.33 76.09H21C18.4936 76.0926 16.0905 77.0888 14.3173 78.8601C12.544 80.6315 11.5453 83.0336 11.54 85.54V100.54C11.5465 102.441 12.1212 104.296 13.1904 105.868C14.2596 107.44 15.7743 108.656 17.54 109.36V87.66C17.5683 87.3413 17.7148 87.0448 17.9508 86.8288C18.1868 86.6128 18.4951 86.493 18.815 86.493C19.1349 86.493 19.4433 86.6128 19.6793 86.8288C19.9152 87.0448 20.0618 87.3413 20.09 87.66L20.13 109.83Z" fill="#1A1053"/>
<path d="M31.7398 73.9399C29.3664 73.9399 27.0463 73.2362 25.0729 71.9176C23.0995 70.599 21.5615 68.7249 20.6532 66.5322C19.745 64.3394 19.5073 61.9266 19.9703 59.5989C20.4333 57.2711 21.5763 55.1329 23.2545 53.4547C24.9327 51.7765 27.0709 50.6335 29.3987 50.1705C31.7264 49.7075 34.1392 49.9451 36.3319 50.8534C38.5247 51.7616 40.3988 53.2997 41.7174 55.2731C43.036 57.2465 43.7398 59.5666 43.7398 61.9399C43.7398 65.1225 42.4755 68.1748 40.225 70.4252C37.9746 72.6757 34.9224 73.9399 31.7398 73.9399V73.9399ZM31.7398 52.47C29.8688 52.47 28.0397 53.0248 26.484 54.0643C24.9284 55.1037 23.7159 56.5812 22.9999 58.3097C22.2839 60.0383 22.0965 61.9404 22.4615 63.7755C22.8265 65.6106 23.7275 67.2962 25.0505 68.6192C26.3735 69.9422 28.0591 70.8432 29.8942 71.2082C31.7293 71.5732 33.6314 71.3859 35.36 70.6699C37.0886 69.9538 38.566 68.7414 39.6054 67.1857C40.6449 65.63 41.1997 63.801 41.1997 61.93C41.1971 59.4219 40.1996 57.0172 38.4261 55.2436C36.6525 53.4701 34.2479 52.4726 31.7398 52.47" fill="#1A1053"/>
<path d="M110.67 112.36H84.9099C84.5731 112.36 84.25 112.226 84.0119 111.988C83.7737 111.75 83.6399 111.427 83.6399 111.09V88.28L65.3599 63.52C64.1343 62.2635 63.456 60.5728 63.4735 58.8176C63.4909 57.0624 64.2027 55.3855 65.4531 54.1536C66.7035 52.9218 68.3908 52.235 70.1461 52.2437C71.9014 52.2524 73.5817 52.9558 74.8198 54.2L74.9299 54.32L89.8299 73.5601H108.53C111.712 73.5601 114.765 74.8244 117.015 77.0748C119.266 79.3252 120.53 82.3775 120.53 85.5601V100.56C120.53 103.326 119.575 106.008 117.826 108.151C116.076 110.294 113.64 111.767 110.93 112.32C110.844 112.33 110.756 112.33 110.67 112.32V112.36ZM86.1799 109.77H109.4V87.69C109.4 87.3532 109.534 87.0302 109.772 86.792C110.01 86.5538 110.333 86.4201 110.67 86.4201C111.007 86.4201 111.33 86.5538 111.568 86.792C111.806 87.0302 111.94 87.3532 111.94 87.69V109.39C113.707 108.688 115.223 107.473 116.293 105.901C117.362 104.328 117.936 102.472 117.94 100.57V85.57C117.937 83.0628 116.939 80.6592 115.166 78.8873C113.392 77.1154 110.987 76.1201 108.48 76.1201H89.1699C88.9762 76.1178 88.7856 76.0716 88.6124 75.985C88.4392 75.8984 88.2879 75.7736 88.1699 75.6201L72.9299 55.96C72.1555 55.2002 71.1109 54.7791 70.026 54.7894C68.9411 54.7998 67.9047 55.2406 67.1449 56.015C66.385 56.7895 65.964 57.8341 65.9743 58.919C65.9846 60.0039 66.4254 61.0402 67.1999 61.8001C67.2451 61.842 67.2853 61.8889 67.3198 61.94L85.5499 86.64C85.7342 86.7534 85.8862 86.9123 85.9913 87.1015C86.0964 87.2906 86.151 87.5037 86.1499 87.7201L86.1799 109.77Z" fill="#1A1053"/>
<path d="M97.79 73.9399C95.4167 73.9399 93.0966 73.2362 91.1232 71.9176C89.1498 70.599 87.6117 68.7249 86.7035 66.5322C85.7952 64.3394 85.5576 61.9266 86.0206 59.5989C86.4836 57.2711 87.6265 55.1329 89.3047 53.4547C90.983 51.7765 93.1212 50.6335 95.449 50.1705C97.7767 49.7075 100.189 49.9451 102.382 50.8534C104.575 51.7616 106.449 53.2997 107.768 55.2731C109.086 57.2465 109.79 59.5666 109.79 61.9399C109.79 65.1225 108.526 68.1748 106.275 70.4252C104.025 72.6757 100.973 73.9399 97.79 73.9399V73.9399ZM97.79 52.47C95.919 52.47 94.09 53.0248 92.5344 54.0643C90.9787 55.1037 89.7661 56.5812 89.0501 58.3097C88.3341 60.0383 88.1468 61.9404 88.5118 63.7755C88.8768 65.6106 89.7778 67.2962 91.1008 68.6192C92.4238 69.9422 94.1094 70.8432 95.9445 71.2082C97.7795 71.5732 99.6816 71.3859 101.41 70.6699C103.139 69.9538 104.616 68.7414 105.656 67.1857C106.695 65.63 107.25 63.801 107.25 61.93C107.247 59.4219 106.25 57.0172 104.476 55.2436C102.703 53.4701 100.298 52.4726 97.79 52.47Z" fill="#1A1053"/>
</svg>
