<svg width="130" height="130" viewBox="0 0 130 130" fill="none" xmlns="http://www.w3.org/2000/svg">
<path d="M117.573 80.5804C119.524 83.9081 121.072 87.4564 122.183 91.1504C125.523 102.46 123.703 115.08 107.043 118.56C103.067 119.423 99.0329 119.995 94.9733 120.27C66.6633 122.22 37.8633 110.27 19.9733 92.9904C16.7877 89.5195 14.0158 85.6906 11.7133 81.5804C6.69364 72.871 4.4016 62.8562 5.13334 52.8304C5.42114 49.5304 6.09233 46.2751 7.13334 43.1304C16.8433 16.4404 57.1333 12.9604 84.8633 18.7704C111.243 24.5704 114.013 51.2604 113.593 71.4304C114.903 74.6204 116.263 77.6704 117.593 80.5804" fill="#E8E4ED"/>
<path d="M26.473 99.5903H26.333C19.573 98.8703 15.403 94.2303 14.603 86.5303C14.143 82.0803 14.213 80.1403 14.883 78.8203C15.733 77.1603 17.323 76.8203 19.343 76.5003C21.2571 76.1828 23.1359 75.6805 24.953 75.0003C28.483 73.6403 31.713 72.1902 34.823 70.7902C45.183 66.1202 54.123 62.0903 67.973 64.5003C75.393 65.7903 82.113 68.9402 88.613 71.9902C93.019 74.1722 97.5619 76.0662 102.213 77.6603C104.018 78.1579 105.852 78.5486 107.703 78.8303C113.383 79.8303 120.453 81.0803 123.233 85.8303C125.073 88.9803 125.433 91.7402 124.313 94.0502C122.563 97.6502 117.713 99.0502 113.953 99.5502C113.781 99.586 113.604 99.5861 113.432 99.5505C113.26 99.515 113.098 99.4444 112.954 99.3434C112.811 99.2423 112.69 99.1129 112.599 98.9631C112.507 98.8133 112.448 98.6463 112.424 98.4725C112.4 98.2988 112.412 98.122 112.459 97.953C112.506 97.7841 112.588 97.6266 112.698 97.4904C112.809 97.3542 112.946 97.2422 113.102 97.1613C113.257 97.0804 113.428 97.0325 113.603 97.0203C118.053 96.4103 121.043 94.9603 122.023 92.9403C122.753 91.4403 122.423 89.4802 121.023 87.1102C118.843 83.3702 112.413 82.2303 107.253 81.3203C105.288 81.026 103.344 80.6051 101.433 80.0602C96.6794 78.4522 92.0361 76.5348 87.533 74.3203C81.183 71.3203 74.6229 68.2702 67.5329 67.0402C54.4529 64.7702 45.843 68.6503 35.873 73.1403C32.723 74.5603 29.463 76.0203 25.873 77.4003C23.9129 78.1457 21.8826 78.6918 19.813 79.0303C18.023 79.3603 17.423 79.5103 17.163 80.0303C16.673 81.0303 16.863 83.6203 17.163 86.3203C17.843 92.8803 21.023 96.5102 26.623 97.1102C26.9599 97.1275 27.276 97.2778 27.5019 97.5282C27.7279 97.7786 27.8452 98.1084 27.828 98.4453C27.8108 98.7821 27.6604 99.0982 27.41 99.3242C27.1597 99.5502 26.8299 99.6675 26.493 99.6503" fill="#1A1053"/>
<path d="M86.0433 100.44H54.1733C53.8365 100.44 53.5136 100.307 53.2754 100.068C53.0372 99.8302 52.9033 99.5072 52.9033 99.1703C52.9033 98.8335 53.0372 98.5105 53.2754 98.2723C53.5136 98.0342 53.8365 97.9004 54.1733 97.9004H86.0433C86.3802 97.9004 86.7032 98.0342 86.9414 98.2723C87.1796 98.5105 87.3134 98.8335 87.3134 99.1703C87.3134 99.5072 87.1796 99.8302 86.9414 100.068C86.7032 100.307 86.3802 100.44 86.0433 100.44" fill="#1A1053"/>
<path d="M117.123 90.0703C116.603 90.0703 116.013 90.0103 115.613 89.9703C111.313 89.5803 110.083 88.4903 108.793 86.0403C108.637 85.7406 108.606 85.391 108.707 85.0685C108.808 84.7459 109.034 84.4768 109.333 84.3203C109.633 84.1638 109.982 84.1328 110.305 84.2341C110.628 84.3353 110.897 84.5606 111.053 84.8603C111.833 86.3603 112.233 87.1103 115.843 87.4303C116.363 87.4303 116.843 87.5103 117.173 87.5203C117.492 87.5486 117.788 87.6951 118.004 87.9311C118.22 88.1671 118.34 88.4754 118.34 88.7953C118.34 89.1152 118.22 89.4236 118.004 89.6595C117.788 89.8955 117.492 90.0421 117.173 90.0703" fill="#1A1053"/>
<path d="M40.293 106.47C38.418 106.47 36.5852 105.914 35.0263 104.873C33.4673 103.831 32.2522 102.35 31.5347 100.618C30.8172 98.8859 30.6293 96.9798 30.9951 95.1408C31.3609 93.3019 32.2638 91.6127 33.5896 90.2869C34.9154 88.9611 36.6047 88.0582 38.4436 87.6924C40.2826 87.3266 42.1887 87.5144 43.9209 88.2319C45.6532 88.9494 47.1336 90.1645 48.1753 91.7235C49.217 93.2825 49.773 95.1153 49.773 96.9903C49.7703 99.5037 48.7707 101.913 46.9934 103.691C45.2161 105.468 42.8064 106.468 40.293 106.47V106.47ZM40.293 90.0703C38.9219 90.0703 37.5818 90.477 36.4419 91.2389C35.3021 92.0008 34.4138 93.0837 33.8895 94.3506C33.3653 95.6175 33.2288 97.0114 33.497 98.3559C33.7652 99.7005 34.4262 100.935 35.3964 101.904C36.3665 102.873 37.6022 103.532 38.9472 103.798C40.2921 104.065 41.6858 103.926 42.9519 103.4C44.218 102.874 45.2997 101.984 46.0599 100.843C46.8202 99.7022 47.225 98.3613 47.223 96.9903C47.223 96.0807 47.0437 95.18 46.6953 94.3398C46.3469 93.4996 45.8363 92.7362 45.1926 92.0935C44.549 91.4508 43.785 90.9413 42.9442 90.5941C42.1035 90.247 41.2026 90.069 40.293 90.0703" fill="#1A1053"/>
<path d="M99.833 106.47C97.9581 106.47 96.1252 105.914 94.5662 104.873C93.0072 103.831 91.7921 102.35 91.0746 100.618C90.3571 98.8859 90.1694 96.9798 90.5352 95.1408C90.901 93.3019 91.8039 91.6127 93.1297 90.2869C94.4555 88.9611 96.1446 88.0582 97.9836 87.6924C99.8225 87.3266 101.729 87.5144 103.461 88.2319C105.193 88.9494 106.674 90.1645 107.715 91.7235C108.757 93.2825 109.313 95.1153 109.313 96.9903C109.31 99.5037 108.311 101.913 106.533 103.691C104.756 105.468 102.346 106.468 99.833 106.47V106.47ZM99.833 90.0703C98.462 90.0703 97.1217 90.477 95.9819 91.2389C94.842 92.0008 93.9538 93.0837 93.4296 94.3506C92.9054 95.6175 92.7687 97.0114 93.0369 98.3559C93.3051 99.7005 93.9661 100.935 94.9363 101.904C95.9065 102.873 97.1423 103.532 98.4872 103.798C99.8322 104.065 101.226 103.926 102.492 103.4C103.758 102.874 104.84 101.984 105.6 100.843C106.36 99.7022 106.765 98.3613 106.763 96.9903C106.76 95.154 106.029 93.3939 104.73 92.0965C103.43 90.799 101.669 90.0703 99.833 90.0703Z" fill="#1A1053"/>
<path d="M23.0032 88.6503C22.3041 88.6643 21.6206 88.4424 21.0632 88.0203C20.2232 87.3803 19.3132 85.9602 19.7632 82.8602C19.8303 82.4123 20.056 82.0034 20.3992 81.7079C20.7424 81.4125 21.1803 81.25 21.6332 81.2502H27.3031C27.5811 81.2499 27.8554 81.3136 28.1048 81.4364C28.3541 81.5592 28.5719 81.7377 28.7411 81.9582C28.9104 82.1787 29.0265 82.4352 29.0806 82.7078C29.1347 82.9804 29.1253 83.2619 29.0531 83.5303C29.0531 83.6503 28.9832 83.7803 28.9432 83.9003C28.6244 84.8217 28.1263 85.6707 27.4775 86.3985C26.8287 87.1263 26.042 87.7182 25.1631 88.1403C24.486 88.4574 23.7507 88.6311 23.0032 88.6503V88.6503ZM22.2132 83.7902C22.1032 85.1902 22.3932 85.7902 22.6132 86.0002C22.8332 86.2102 23.4331 86.1202 24.1531 85.8102C25.0316 85.3641 25.7588 84.6683 26.2432 83.8102L22.2132 83.7902Z" fill="#1A1053"/>
<path d="M117.583 107.45H20.3031C20.1262 107.466 19.9479 107.445 19.7797 107.388C19.6114 107.331 19.457 107.239 19.3259 107.119C19.1949 107 19.0903 106.854 19.0187 106.691C18.9471 106.529 18.9102 106.353 18.9102 106.175C18.9102 105.998 18.9471 105.822 19.0187 105.659C19.0903 105.497 19.1949 105.351 19.3259 105.231C19.457 105.111 19.6114 105.02 19.7797 104.963C19.9479 104.906 20.1262 104.885 20.3031 104.9H117.583C117.902 104.929 118.198 105.075 118.414 105.311C118.63 105.547 118.75 105.855 118.75 106.175C118.75 106.495 118.63 106.803 118.414 107.039C118.198 107.275 117.902 107.422 117.583 107.45Z" fill="#1A1053"/>
<path d="M29.7529 66.9104H18.9429C18.606 66.9104 18.283 66.7766 18.0448 66.5384C17.8066 66.3002 17.6729 65.9772 17.6729 65.6404C17.6729 65.3036 17.8066 64.9805 18.0448 64.7424C18.283 64.5042 18.606 64.3704 18.9429 64.3704H29.7529C29.9197 64.3704 30.0848 64.4032 30.2389 64.467C30.393 64.5309 30.5329 64.6244 30.6509 64.7424C30.7688 64.8603 30.8624 65.0003 30.9263 65.1544C30.9901 65.3084 31.0228 65.4736 31.0228 65.6404C31.0228 65.8072 30.9901 65.9723 30.9263 66.1264C30.8624 66.2805 30.7688 66.4205 30.6509 66.5384C30.5329 66.6563 30.393 66.7499 30.2389 66.8137C30.0848 66.8775 29.9197 66.9104 29.7529 66.9104" fill="#1A1053"/>
<path d="M39.2133 58.8104H31.1133C30.9364 58.826 30.7581 58.8047 30.5898 58.7478C30.4216 58.6909 30.267 58.5995 30.136 58.4796C30.005 58.3597 29.9003 58.2138 29.8287 58.0512C29.7572 57.8886 29.7202 57.713 29.7202 57.5354C29.7202 57.3578 29.7572 57.1821 29.8287 57.0195C29.9003 56.857 30.005 56.7111 30.136 56.5912C30.267 56.4713 30.4216 56.3799 30.5898 56.3229C30.7581 56.266 30.9364 56.2447 31.1133 56.2604H39.2133C39.5319 56.2886 39.8284 56.4352 40.0444 56.6711C40.2604 56.9071 40.3802 57.2155 40.3802 57.5354C40.3802 57.8553 40.2604 58.1636 40.0444 58.3996C39.8284 58.6356 39.5319 58.7821 39.2133 58.8104Z" fill="#1A1053"/>
<path d="M112.173 65.5602H95.9634C95.6266 65.5602 95.3035 65.4265 95.0653 65.1883C94.8271 64.9501 94.6934 64.627 94.6934 64.2902C94.6934 63.9534 94.8271 63.6304 95.0653 63.3922C95.3035 63.154 95.6266 63.0203 95.9634 63.0203H112.173C112.51 63.0203 112.833 63.154 113.071 63.3922C113.31 63.6304 113.443 63.9534 113.443 64.2902C113.443 64.627 113.31 64.9501 113.071 65.1883C112.833 65.4265 112.51 65.5602 112.173 65.5602" fill="#1A1053"/>
<path d="M93.2633 57.4504H85.1532C84.8164 57.4504 84.4934 57.3165 84.2552 57.0784C84.0171 56.8402 83.8833 56.5172 83.8833 56.1804C83.8833 55.8435 84.0171 55.5205 84.2552 55.2823C84.4934 55.0442 84.8164 54.9104 85.1532 54.9104H93.2633C93.6001 54.9104 93.9231 55.0442 94.1613 55.2823C94.3994 55.5205 94.5332 55.8435 94.5332 56.1804C94.5332 56.5172 94.3994 56.8402 94.1613 57.0784C93.9231 57.3165 93.6001 57.4504 93.2633 57.4504" fill="#1A1053"/>
<path d="M62.833 40.7303C62.4968 40.7261 62.1749 40.5937 61.933 40.3603L55.363 33.7803C55.1243 33.5416 54.9902 33.2179 54.9902 32.8803C54.9902 32.5427 55.1243 32.219 55.363 31.9803C55.6017 31.7416 55.9255 31.6075 56.2631 31.6075C56.6006 31.6075 56.9243 31.7416 57.163 31.9803L62.833 37.6503L72.683 27.8103C72.9217 27.5716 73.2454 27.4375 73.583 27.4375C73.9206 27.4375 74.2443 27.5716 74.483 27.8103C74.7217 28.049 74.8558 28.3728 74.8558 28.7103C74.8558 29.0479 74.7217 29.3716 74.483 29.6103L63.7631 40.3203C63.5235 40.5573 63.2 40.6903 62.863 40.6903" fill="#FF5100"/>
<path d="M64.3831 58.9304C64.1342 58.9305 63.8907 58.8575 63.683 58.7205L61.793 57.4705C60.243 56.4705 52.343 51.2305 49.543 49.1505C47.9043 47.8349 46.5942 46.1562 45.7161 44.2471C44.8379 42.338 44.4157 40.2508 44.483 38.1505V18.1505C44.483 17.9828 44.5162 17.8168 44.5807 17.6621C44.6451 17.5074 44.7395 17.3669 44.8585 17.2488C44.9775 17.1308 45.1187 17.0375 45.2739 16.9742C45.4292 16.911 45.5954 16.8791 45.7631 16.8804C53.7031 16.8804 63.503 9.35045 63.603 9.27045C63.8253 9.09526 64.1001 9 64.3831 9C64.666 9 64.9407 9.09526 65.163 9.27045C65.263 9.35045 75.0831 16.8804 83.0131 16.8804C83.3499 16.8804 83.6728 17.0142 83.911 17.2524C84.1492 17.4906 84.283 17.8136 84.283 18.1505V38.1505C84.3503 40.2508 83.9282 42.338 83.05 44.2471C82.1719 46.1562 80.8616 47.8349 79.223 49.1505C76.323 51.3005 67.903 56.8604 66.953 57.4804L65.083 58.7205C64.8758 58.8586 64.6321 58.9317 64.3831 58.9304V58.9304ZM47.033 19.3904V38.1404C46.9544 39.8483 47.2751 41.5508 47.9695 43.1131C48.6638 44.6754 49.7127 46.0543 51.033 47.1404C53.793 49.1404 61.633 54.3604 63.173 55.3704L64.363 56.1605L65.5229 55.3904C66.5229 54.7604 74.843 49.2404 77.693 47.1404C79.0103 46.0518 80.0572 44.6724 80.7512 43.1107C81.4453 41.5491 81.7676 39.8477 81.693 38.1404V19.3904C74.513 18.8204 66.793 13.6504 64.333 11.8804C61.883 13.6504 54.163 18.8204 46.983 19.3904" fill="#1A1053"/>
</svg>
