<svg width="130" height="130" viewBox="0 0 130 130" fill="none" xmlns="http://www.w3.org/2000/svg">
<path d="M120.878 63.2909C121.628 71.2909 119.118 79.2909 115.698 86.6309C110.208 98.3409 101.778 112.341 89.8077 118.121C76.1677 124.701 60.8077 122.921 47.0377 117.531C40.3077 114.891 33.6077 111.961 27.8077 107.641C11.4777 95.5009 7.65764 71.2909 9.37764 52.2709C9.81764 47.3909 10.7277 42.4308 13.2277 38.2108C17.7977 30.5208 27.7277 26.7908 36.3077 28.9608C48.1277 31.9608 58.9477 37.2109 71.1677 39.3209C74.1677 39.8309 77.1677 40.2609 80.1677 40.6309C95.7977 44.2109 116.268 39.3209 120.508 60.3809C120.697 61.3432 120.837 62.3144 120.928 63.2909" fill="#E8E4ED"/>
<path d="M74.5676 111.281C73.4777 111.28 72.398 111.07 71.3877 110.661L22.9977 90.9608C20.9233 90.1174 19.2678 88.4859 18.3943 86.424C17.5208 84.362 17.5004 82.0378 18.3377 79.9608L31.0877 48.6508C31.187 48.4351 31.3659 48.2661 31.5869 48.1792C31.808 48.0923 32.0541 48.0943 32.2737 48.1848C32.4933 48.2752 32.6695 48.447 32.7653 48.6644C32.8611 48.8817 32.8691 49.1277 32.7877 49.3509L20.0477 80.6508C19.7181 81.457 19.5508 82.3203 19.5554 83.1912C19.5601 84.0622 19.7365 84.9237 20.0747 85.7263C20.4128 86.5289 20.906 87.2569 21.526 87.8686C22.1459 88.4802 22.8806 88.9636 23.6877 89.2909L72.0777 108.991C73.7063 109.651 75.5303 109.639 77.1499 108.956C78.7694 108.274 80.0524 106.977 80.7177 105.351L93.4577 74.0409C93.5529 73.8148 93.7328 73.6349 93.9589 73.5396C94.185 73.4443 94.4393 73.4411 94.6677 73.5308C94.893 73.6238 95.0722 73.8024 95.1659 74.0274C95.2597 74.2524 95.2603 74.5054 95.1677 74.7309L82.4277 106.041C81.785 107.595 80.6945 108.924 79.2949 109.857C77.8953 110.79 76.2498 111.285 74.5676 111.281Z" stroke="#201752" stroke-miterlimit="10"/>
<path d="M99.4677 76.7408C98.3736 76.7396 97.2902 76.5256 96.2777 76.1108L87.2777 72.4508C87.051 72.3593 86.8698 72.1815 86.7742 71.9565C86.6786 71.7314 86.6762 71.4776 86.7677 71.2508C86.8592 71.0241 87.0371 70.8429 87.2621 70.7473C87.4872 70.6516 87.741 70.6493 87.9677 70.7408L96.9677 74.4008C97.7739 74.7304 98.6372 74.8977 99.5081 74.893C100.379 74.8884 101.241 74.712 102.043 74.3738C102.846 74.0357 103.574 73.5425 104.185 72.9225C104.797 72.3025 105.28 71.5679 105.608 70.7608L110.158 59.6108C110.821 57.9824 110.81 56.1573 110.127 54.537C109.444 52.9167 108.146 51.634 106.518 50.9708L39.5177 23.7108C38.7116 23.3812 37.8483 23.214 36.9774 23.2186C36.1065 23.2232 35.245 23.3997 34.4424 23.7378C33.6397 24.076 32.9117 24.5691 32.3 25.1891C31.6883 25.8091 31.205 26.5437 30.8777 27.3508L26.3277 38.5308C25.6648 40.1592 25.6759 41.9843 26.3586 43.6046C27.0412 45.2249 28.3394 46.5076 29.9677 47.1708L39.2177 50.9308C39.4445 51.0223 39.6256 51.2002 39.7213 51.4252C39.8169 51.6502 39.8193 51.9041 39.7278 52.1308C39.6363 52.3576 39.4584 52.5387 39.2334 52.6344C39.0083 52.73 38.7545 52.7323 38.5277 52.6408L29.2677 48.8708C27.1986 48.0212 25.5489 46.3885 24.678 44.3282C23.8071 42.2679 23.7854 39.947 24.6178 37.8708L29.1577 26.6508C30.0074 24.5816 31.6401 22.932 33.7003 22.0611C35.7606 21.1901 38.0816 21.1685 40.1577 22.0008L107.158 49.2608C109.225 50.1126 110.873 51.7455 111.744 53.805C112.614 55.8646 112.637 58.1844 111.808 60.2608L107.258 71.4508C106.62 73.0097 105.533 74.3438 104.135 75.2838C102.738 76.2239 101.092 76.7275 99.4077 76.7308L99.4677 76.7408Z" stroke="#201752" stroke-miterlimit="10"/>
<path d="M90.9878 43.4709C89.05 43.4638 87.1317 43.0835 85.3377 42.3509L73.0177 37.3509C72.7924 37.2579 72.6132 37.0793 72.5195 36.8543C72.4258 36.6293 72.4251 36.3763 72.5177 36.1509L74.2978 31.7709C75.9456 27.7133 78.6197 24.1536 82.0578 21.4409C84.0852 19.8072 86.5199 18.7576 89.0996 18.4051C91.6794 18.0527 94.3064 18.4108 96.6977 19.4409C98.3242 20.04 99.8 20.9878 101.021 22.2178C102.243 23.4478 103.18 24.9302 103.768 26.5609C104.746 29.4186 104.657 32.5336 103.518 35.3309C102.846 36.9771 101.838 38.465 100.559 39.6996C99.2797 40.9342 97.7568 41.8883 96.0877 42.5009C94.4619 43.1353 92.733 43.4641 90.9878 43.4709V43.4709ZM74.5677 35.9809L86.0277 40.6409C89.0257 41.8899 92.3867 41.9507 95.4278 40.8109C96.8604 40.2865 98.1683 39.4699 99.2684 38.4128C100.368 37.3558 101.237 36.0815 101.818 34.6709C102.785 32.2874 102.86 29.6349 102.028 27.2009C101.521 25.8264 100.722 24.5782 99.6863 23.5424C98.6504 22.5065 97.4022 21.7077 96.0277 21.2009C93.9354 20.2651 91.6243 19.9285 89.352 20.2287C87.0797 20.5288 84.9353 21.4539 83.1577 22.9009C79.9964 25.4222 77.5318 28.7095 75.9978 32.4509L74.5677 35.9809Z" stroke="#201752" stroke-miterlimit="10"/>
<path d="M73.368 37.4109C73.2483 37.407 73.13 37.3833 73.018 37.3409L60.708 32.3409C57.2596 30.9619 54.4642 28.3238 52.888 24.9609C52.1213 23.3554 51.697 21.6079 51.6419 19.8296C51.5868 18.0512 51.9021 16.2809 52.568 14.631C53.7252 11.8281 55.856 9.53755 58.568 8.18096C60.1235 7.42984 61.8243 7.02724 63.5514 7.00134C65.2786 6.97543 66.9906 7.32681 68.568 8.03094C70.9993 8.95672 73.1323 10.5278 74.7375 12.5752C76.3426 14.6227 77.3593 17.0689 77.678 19.6509C78.2397 23.9926 77.6677 28.4058 76.018 32.4609L74.238 36.8409C74.1923 36.9534 74.1244 37.0557 74.0386 37.1415C73.9527 37.2274 73.8505 37.2952 73.738 37.3409C73.621 37.3901 73.4949 37.414 73.368 37.4109V37.4109ZM61.368 30.621L72.828 35.2809L74.258 31.761C75.7682 28.0091 76.2982 23.9344 75.798 19.921C75.5353 17.6482 74.6489 15.4925 73.237 13.6923C71.8251 11.8921 69.9427 10.5176 67.798 9.72094C66.4546 9.12134 64.997 8.82066 63.5259 8.83965C62.0549 8.85865 60.6055 9.1969 59.278 9.83099C56.9841 10.9904 55.1869 12.9403 54.218 15.321C53.6475 16.7364 53.3778 18.2551 53.426 19.7804C53.4742 21.3057 53.8393 22.8044 54.498 24.181C55.8978 27.1289 58.369 29.432 61.408 30.621H61.368Z" stroke="#201752" stroke-miterlimit="10"/>
<path d="M47.5378 100.881C47.4176 100.882 47.2984 100.858 47.1879 100.811C47.0755 100.766 46.9731 100.699 46.8869 100.614C46.8007 100.529 46.7323 100.428 46.6857 100.316C46.6392 100.204 46.6154 100.084 46.6157 99.9632C46.6161 99.8421 46.6406 99.7223 46.6879 99.6109L50.2479 90.8509C50.2932 90.7386 50.3601 90.6364 50.445 90.55C50.5298 90.4636 50.6308 90.3947 50.7422 90.3473C50.8536 90.3 50.9733 90.2751 51.0944 90.274C51.2154 90.2729 51.3355 90.2956 51.4478 90.3409C51.5601 90.3862 51.6624 90.4532 51.7488 90.538C51.8352 90.6228 51.904 90.7238 51.9514 90.8352C51.9987 90.9467 52.0237 91.0663 52.0248 91.1874C52.0259 91.3085 52.0031 91.4286 51.9578 91.5409L48.3878 100.301C48.3201 100.471 48.203 100.618 48.0515 100.721C47.9001 100.824 47.7212 100.88 47.5378 100.881V100.881Z" stroke="#201752" stroke-miterlimit="10"/>
<path d="M68.598 49.141C68.4777 49.143 68.3583 49.1191 68.248 49.071C68.1356 49.0259 68.0331 48.959 67.9466 48.8742C67.86 48.7894 67.7911 48.6884 67.7437 48.5769C67.6963 48.4654 67.6714 48.3456 67.6704 48.2245C67.6695 48.1033 67.6924 47.9832 67.738 47.8709L72.518 36.141C72.5633 36.0287 72.6303 35.9264 72.7151 35.84C72.7999 35.7536 72.9009 35.6848 73.0124 35.6374C73.1238 35.5901 73.2435 35.5651 73.3645 35.564C73.4856 35.5629 73.6057 35.5857 73.718 35.631C73.8303 35.6763 73.9326 35.7432 74.019 35.828C74.1053 35.9129 74.1742 36.0139 74.2215 36.1253C74.2689 36.2368 74.2938 36.3564 74.295 36.4775C74.2961 36.5986 74.2733 36.7187 74.228 36.831L69.448 48.571C69.3776 48.7387 69.2595 48.8821 69.1084 48.9834C68.9573 49.0847 68.7799 49.1395 68.598 49.141V49.141Z" stroke="#201752" stroke-miterlimit="10"/>
<path d="M74.5676 111.281C73.4777 111.28 72.398 111.07 71.3877 110.661L22.9977 90.9608C20.9233 90.1174 19.2678 88.4859 18.3943 86.424C17.5208 84.362 17.5004 82.0378 18.3377 79.9608L31.0877 48.6508C31.187 48.4351 31.3659 48.2661 31.5869 48.1792C31.808 48.0923 32.0541 48.0943 32.2737 48.1848C32.4933 48.2752 32.6695 48.447 32.7653 48.6644C32.8611 48.8817 32.8691 49.1277 32.7877 49.3509L20.0477 80.6508C19.7181 81.457 19.5508 82.3203 19.5554 83.1912C19.5601 84.0622 19.7365 84.9237 20.0747 85.7263C20.4128 86.5289 20.906 87.2569 21.526 87.8686C22.1459 88.4802 22.8806 88.9636 23.6877 89.2909L72.0777 108.991C73.7063 109.651 75.5303 109.639 77.1499 108.956C78.7694 108.274 80.0524 106.977 80.7177 105.351L93.4577 74.0409C93.5529 73.8148 93.7328 73.6349 93.9589 73.5396C94.185 73.4443 94.4393 73.4411 94.6677 73.5308C94.893 73.6238 95.0722 73.8024 95.1659 74.0274C95.2597 74.2524 95.2603 74.5054 95.1677 74.7309L82.4277 106.041C81.7912 107.603 80.7034 108.94 79.3032 109.88C77.9031 110.821 76.2543 111.322 74.5676 111.321" fill="#201752"/>
<path d="M99.4677 76.7408C98.3736 76.7396 97.2902 76.5256 96.2777 76.1108L87.2777 72.4508C87.051 72.3593 86.8698 72.1815 86.7742 71.9565C86.6786 71.7314 86.6762 71.4776 86.7677 71.2508C86.8592 71.0241 87.0371 70.8429 87.2621 70.7473C87.4872 70.6516 87.741 70.6493 87.9677 70.7408L96.9677 74.4008C97.7739 74.7304 98.6372 74.8977 99.5081 74.893C100.379 74.8884 101.241 74.712 102.043 74.3738C102.846 74.0357 103.574 73.5425 104.185 72.9225C104.797 72.3025 105.28 71.5679 105.608 70.7608L110.158 59.6108C110.821 57.9824 110.81 56.1573 110.127 54.537C109.444 52.9167 108.146 51.634 106.518 50.9708L39.5177 23.7108C38.7116 23.3812 37.8483 23.214 36.9774 23.2186C36.1065 23.2232 35.245 23.3997 34.4424 23.7378C33.6397 24.076 32.9117 24.5691 32.3 25.1891C31.6883 25.8091 31.205 26.5437 30.8777 27.3508L26.3277 38.5308C25.6648 40.1592 25.6759 41.9843 26.3586 43.6046C27.0412 45.2249 28.3394 46.5076 29.9677 47.1708L39.2177 50.9308C39.4445 51.0223 39.6256 51.2002 39.7213 51.4252C39.8169 51.6502 39.8193 51.9041 39.7278 52.1308C39.6363 52.3576 39.4584 52.5387 39.2334 52.6344C39.0083 52.73 38.7545 52.7323 38.5277 52.6408L29.2677 48.8708C27.1986 48.0212 25.5489 46.3885 24.678 44.3282C23.8071 42.2679 23.7854 39.947 24.6178 37.8708L29.1577 26.6508C30.0074 24.5816 31.6401 22.932 33.7003 22.0611C35.7606 21.1901 38.0816 21.1685 40.1577 22.0008L107.158 49.2608C109.225 50.1126 110.873 51.7455 111.744 53.805C112.614 55.8646 112.637 58.1844 111.808 60.2608L107.258 71.4508C106.62 73.0097 105.533 74.3438 104.135 75.2838C102.738 76.2239 101.092 76.7275 99.4077 76.7308" fill="#201752"/>
<path d="M90.9878 43.4709C89.05 43.4638 87.1317 43.0835 85.3377 42.3509L73.0177 37.3509C72.7924 37.2579 72.6132 37.0793 72.5195 36.8543C72.4258 36.6293 72.4251 36.3763 72.5177 36.1509L74.2978 31.7709C75.9456 27.7133 78.6197 24.1536 82.0578 21.4409C84.0852 19.8072 86.5199 18.7576 89.0996 18.4051C91.6794 18.0527 94.3064 18.4108 96.6977 19.4409C98.3242 20.04 99.8 20.9878 101.021 22.2178C102.243 23.4478 103.18 24.9302 103.768 26.5609C104.746 29.4186 104.657 32.5336 103.518 35.3309C102.846 36.9771 101.838 38.465 100.559 39.6996C99.2797 40.9342 97.7568 41.8883 96.0877 42.5009C94.46 43.1251 92.7311 43.4437 90.9878 43.4409V43.4709ZM74.5677 35.9509L86.0277 40.6109C89.0257 41.8599 92.3867 41.9206 95.4278 40.7809C96.8604 40.2565 98.1683 39.4399 99.2684 38.3829C100.368 37.3258 101.237 36.0515 101.818 34.6409C102.785 32.2574 102.86 29.6049 102.028 27.1709C101.521 25.7964 100.722 24.5482 99.6863 23.5124C98.6504 22.4765 97.4022 21.6777 96.0277 21.1709C93.9327 20.2392 91.6201 19.9075 89.3477 20.213C87.0753 20.5185 84.9324 21.449 83.1577 22.9009C79.9964 25.4222 77.5318 28.7095 75.9978 32.4509L74.5677 35.9509Z" fill="#201752"/>
<path d="M73.368 37.4109C73.2483 37.407 73.13 37.3833 73.018 37.3409L60.708 32.3409C57.2596 30.9619 54.4642 28.3238 52.888 24.9609C52.1213 23.3554 51.697 21.6079 51.6419 19.8296C51.5868 18.0512 51.9021 16.2809 52.568 14.631C53.7252 11.8281 55.856 9.53755 58.568 8.18096C60.1235 7.42984 61.8243 7.02724 63.5514 7.00134C65.2786 6.97543 66.9906 7.32681 68.568 8.03094C70.9993 8.95672 73.1323 10.5278 74.7375 12.5752C76.3426 14.6227 77.3593 17.0689 77.678 19.6509C78.2397 23.9926 77.6677 28.4058 76.018 32.4609L74.238 36.8409C74.1923 36.9534 74.1244 37.0557 74.0386 37.1415C73.9527 37.2274 73.8505 37.2952 73.738 37.3409C73.6248 37.3922 73.5022 37.4194 73.378 37.421L73.368 37.4109ZM61.378 30.631L72.838 35.2909L74.268 31.771C75.7782 28.0191 76.3082 23.9444 75.808 19.931C75.5453 17.6583 74.6589 15.5025 73.247 13.7023C71.8351 11.9021 69.9527 10.5276 67.808 9.73095C66.4646 9.13135 65.007 8.83067 63.5359 8.84966C62.0649 8.86866 60.6155 9.20685 59.288 9.84093C56.9941 11.0004 55.1969 12.9504 54.228 15.331C53.6575 16.7464 53.3878 18.2651 53.436 19.7904C53.4842 21.3157 53.8493 22.8144 54.508 24.191C55.8934 27.1277 58.3415 29.4293 61.358 30.631" fill="#201752"/>
<path d="M47.5378 100.881C47.4176 100.882 47.2984 100.858 47.1879 100.811C47.0755 100.766 46.9731 100.699 46.8869 100.614C46.8007 100.529 46.7323 100.428 46.6857 100.316C46.6392 100.204 46.6154 100.084 46.6157 99.9632C46.6161 99.8421 46.6406 99.7223 46.6879 99.6109L50.2479 90.8509C50.2932 90.7386 50.3601 90.6364 50.445 90.55C50.5298 90.4636 50.6308 90.3947 50.7422 90.3473C50.8536 90.3 50.9733 90.2751 51.0944 90.274C51.2154 90.2729 51.3355 90.2956 51.4478 90.3409C51.5601 90.3862 51.6624 90.4532 51.7488 90.538C51.8352 90.6228 51.904 90.7238 51.9514 90.8352C51.9987 90.9467 52.0237 91.0663 52.0248 91.1874C52.0259 91.3085 52.0031 91.4286 51.9578 91.5409L48.3878 100.301C48.3201 100.471 48.203 100.618 48.0515 100.721C47.9001 100.824 47.7212 100.88 47.5378 100.881" fill="#201752"/>
<path d="M68.598 49.141C68.4777 49.143 68.3583 49.1191 68.248 49.071C68.1356 49.0259 68.0331 48.959 67.9466 48.8742C67.86 48.7894 67.7911 48.6884 67.7437 48.5769C67.6963 48.4654 67.6714 48.3456 67.6704 48.2245C67.6695 48.1033 67.6924 47.9832 67.738 47.8709L72.518 36.141C72.5633 36.0287 72.6303 35.9264 72.7151 35.84C72.7999 35.7536 72.9009 35.6848 73.0124 35.6374C73.1238 35.5901 73.2435 35.5651 73.3645 35.564C73.4856 35.5629 73.6057 35.5857 73.718 35.631C73.8303 35.6763 73.9326 35.7432 74.019 35.828C74.1053 35.9129 74.1742 36.0139 74.2215 36.1253C74.2689 36.2368 74.2938 36.3564 74.295 36.4775C74.2961 36.5986 74.2733 36.7187 74.228 36.831L69.448 48.571C69.3776 48.7387 69.2595 48.8821 69.1084 48.9834C68.9573 49.0847 68.7799 49.1395 68.598 49.141" fill="#201752"/>
<path d="M53.8378 84.831C53.7122 84.8311 53.5883 84.8022 53.4756 84.7467C53.3629 84.6912 53.2645 84.6106 53.1879 84.511L52.8679 84.061C52.3279 83.321 39.8678 66.061 44.4778 54.991C45.3716 52.8669 46.9151 51.0804 48.8868 49.8876C50.8586 48.6948 53.1575 48.157 55.4537 48.3514C57.75 48.5457 59.9258 49.4621 61.6691 50.9693C63.4124 52.4764 64.6337 54.4969 65.1578 56.741C67.1188 55.5141 69.4192 54.9428 71.7263 55.1098C74.0334 55.2768 76.2276 56.1735 77.9914 57.67C79.7552 59.1666 80.9972 61.1854 81.5377 63.4346C82.0781 65.6837 81.8891 68.0464 80.9979 70.181C76.3879 81.281 55.3578 84.591 54.4678 84.731L53.9279 84.811L53.8378 84.831ZM54.5579 49.831C52.7159 49.8346 50.9159 50.381 49.3827 51.4019C47.8496 52.4228 46.6514 53.8729 45.9379 55.571C41.6679 65.851 53.6378 82.401 54.1478 83.101V83.151H54.2178C55.0778 83.021 75.2178 79.841 79.5278 69.561C80.2781 67.6618 80.3845 65.5688 79.8308 63.6033C79.2771 61.6377 78.0938 59.9081 76.4625 58.6798C74.8311 57.4515 72.8418 56.7923 70.7998 56.8033C68.7578 56.8144 66.7758 57.4951 65.1578 58.741C65.0472 58.8303 64.9147 58.8885 64.7741 58.9096C64.6335 58.9307 64.4898 58.9139 64.3578 58.861C64.2261 58.8068 64.1117 58.7176 64.0271 58.603C63.9425 58.4884 63.8908 58.3528 63.8778 58.211C63.6992 56.5437 63.076 54.9551 62.0732 53.6111C61.0705 52.2671 59.7252 51.2172 58.1779 50.571C57.0312 50.0934 55.8 49.8519 54.5579 49.861V49.831Z" stroke="#FF5100" stroke-miterlimit="10"/>
<path d="M74.5477 68.3009C74.4436 68.3016 74.3408 68.2776 74.2477 68.2309C74.0615 68.1511 73.913 68.0029 73.833 67.8168C73.7529 67.6307 73.7474 67.4209 73.8177 67.2309C73.9787 66.8535 74.0636 66.4481 74.0672 66.0378C74.0709 65.6275 73.9934 65.2205 73.8391 64.8403C73.6848 64.4601 73.4568 64.1143 73.1682 63.8226C72.8796 63.531 72.5362 63.2993 72.1577 63.1409C71.9715 63.0612 71.823 62.9129 71.7429 62.7268C71.6629 62.5407 71.6575 62.3309 71.7277 62.1409C71.8112 61.9578 71.9598 61.8124 72.1447 61.7329C72.3295 61.6534 72.5374 61.6455 72.7277 61.7109C73.8749 62.1926 74.7848 63.1087 75.2589 64.2591C75.7329 65.4096 75.7325 66.7008 75.2577 67.8509C75.1918 67.9837 75.0908 68.0959 74.9656 68.1752C74.8404 68.2546 74.6959 68.298 74.5477 68.3009V68.3009Z" stroke="#FF5100" stroke-miterlimit="10"/>
<path d="M53.8378 84.831C53.7122 84.8311 53.5883 84.8022 53.4756 84.7467C53.3629 84.6912 53.2645 84.6106 53.1879 84.511L52.8679 84.061C52.3279 83.321 39.8678 66.061 44.4778 54.991C45.3716 52.8669 46.9151 51.0804 48.8868 49.8876C50.8586 48.6948 53.1575 48.157 55.4537 48.3514C57.75 48.5457 59.9258 49.4621 61.6691 50.9693C63.4124 52.4764 64.6337 54.4969 65.1578 56.741C67.1188 55.5141 69.4192 54.9428 71.7263 55.1098C74.0334 55.2768 76.2276 56.1735 77.9914 57.67C79.7552 59.1666 80.9972 61.1854 81.5377 63.4346C82.0781 65.6837 81.8891 68.0464 80.9979 70.181C76.3879 81.281 55.3578 84.591 54.4678 84.731L53.9279 84.811H53.8079L53.8378 84.831ZM54.5278 49.811C52.6859 49.8146 50.8859 50.361 49.3528 51.3819C47.8197 52.4028 46.6214 53.8529 45.9078 55.551C41.6378 65.831 53.6079 82.381 54.1179 83.081V83.131H54.1879C55.0479 83.001 75.1879 79.821 79.4979 69.541C80.2306 67.6472 80.3254 65.566 79.768 63.6134C79.2106 61.6608 78.0314 59.9433 76.4094 58.7217C74.7873 57.5 72.811 56.8409 70.7803 56.8444C68.7497 56.8479 66.7757 57.5138 65.1578 58.741C65.0472 58.8303 64.9147 58.8885 64.7741 58.9096C64.6335 58.9307 64.4898 58.9139 64.3578 58.861C64.2261 58.8068 64.1117 58.7176 64.0271 58.603C63.9425 58.4884 63.8908 58.3528 63.8778 58.211C63.6992 56.5437 63.076 54.9551 62.0732 53.6111C61.0705 52.2671 59.7252 51.2172 58.1779 50.571C57.0467 50.1 55.8332 49.8586 54.6078 49.861" fill="#FF5100"/>
<path d="M74.5477 68.3009C74.4436 68.3016 74.3408 68.2776 74.2477 68.2309C74.0615 68.1511 73.913 68.0029 73.833 67.8168C73.7529 67.6307 73.7474 67.4209 73.8177 67.2309C73.9787 66.8535 74.0636 66.4481 74.0672 66.0378C74.0709 65.6275 73.9934 65.2205 73.8391 64.8403C73.6848 64.4601 73.4568 64.1143 73.1682 63.8226C72.8796 63.531 72.5362 63.2993 72.1577 63.1409C71.9715 63.0612 71.823 62.9129 71.7429 62.7268C71.6629 62.5407 71.6575 62.3309 71.7277 62.1409C71.8112 61.9578 71.9598 61.8124 72.1447 61.7329C72.3295 61.6534 72.5374 61.6455 72.7277 61.7109C73.8749 62.1926 74.7848 63.1087 75.2589 64.2591C75.7329 65.4096 75.7325 66.7008 75.2577 67.8509C75.1954 67.9957 75.0922 68.1192 74.9608 68.2063C74.8293 68.2933 74.6753 68.3401 74.5177 68.3409" fill="#FF5100"/>
</svg>
